<svg width="24" height="24" viewBox="0 0 24 24" fill="none" xmlns="http://www.w3.org/2000/svg">
<path d="M21.4791 5.88937C21.3407 5.69185 21.1568 5.53059 20.9428 5.41929C20.7289 5.30799 20.4912 5.24992 20.2501 5.25H12.7501V2.25H14.2501C14.449 2.25 14.6397 2.17098 14.7804 2.03033C14.921 1.88968 15.0001 1.69891 15.0001 1.5C15.0001 1.30109 14.921 1.11032 14.7804 0.96967C14.6397 0.829018 14.449 0.75 14.2501 0.75H9.75005C9.55114 0.75 9.36037 0.829018 9.21972 0.96967C9.07907 1.11032 9.00005 1.30109 9.00005 1.5C9.00005 1.69891 9.07907 1.88968 9.21972 2.03033C9.36037 2.17098 9.55114 2.25 9.75005 2.25H11.2501V5.25H3.75005C3.50921 5.25054 3.27205 5.30906 3.05861 5.42062C2.84516 5.53218 2.66172 5.69349 2.52379 5.89092C2.38586 6.08834 2.29749 6.31608 2.26616 6.55487C2.23483 6.79366 2.26146 7.03649 2.3438 7.26281L4.79911 14.0128C4.90417 14.3016 5.09538 14.5511 5.34689 14.7277C5.5984 14.9043 5.89807 14.9993 6.20536 15H17.7957C18.103 14.9993 18.4026 14.9043 18.6541 14.7277C18.9057 14.5511 19.0969 14.3016 19.2019 14.0128L21.6572 7.26281C21.7401 7.03642 21.7672 6.79339 21.7362 6.55431C21.7052 6.31523 21.617 6.08714 21.4791 5.88937ZM9.6113 13.4878C9.56677 13.496 9.52158 13.5001 9.4763 13.5C9.30082 13.4998 9.13098 13.438 8.99635 13.3254C8.86171 13.2129 8.77079 13.0567 8.73943 12.8841L7.7813 7.63406C7.7637 7.53711 7.76536 7.43764 7.7862 7.34133C7.80703 7.24502 7.84664 7.15376 7.90274 7.07275C8.01606 6.90916 8.18972 6.79727 8.38552 6.76172C8.58132 6.72616 8.78323 6.76985 8.94683 6.88316C9.02783 6.93927 9.09699 7.01078 9.15036 7.09361C9.20373 7.17645 9.24026 7.26898 9.25786 7.36594L10.2122 12.6159C10.2478 12.8112 10.2046 13.0126 10.0919 13.176C9.97928 13.3395 9.80645 13.4516 9.6113 13.4878ZM16.2188 7.63406L15.2635 12.8841C15.2321 13.0567 15.1412 13.2129 15.0066 13.3254C14.8719 13.438 14.7021 13.4998 14.5266 13.5C14.4813 13.5001 14.4361 13.496 14.3916 13.4878C14.1959 13.4522 14.0224 13.3404 13.9092 13.1769C13.796 13.0134 13.7523 12.8116 13.7879 12.6159L14.7422 7.36594C14.7778 7.17013 14.8897 6.99647 15.0533 6.88316C15.2169 6.76985 15.4188 6.72616 15.6146 6.76172C15.8104 6.79727 15.984 6.90916 16.0974 7.07275C16.2107 7.23635 16.2544 7.43826 16.2188 7.63406ZM15.0001 16.875V21C15.0001 21.1989 14.921 21.3897 14.7804 21.5303C14.6397 21.671 14.449 21.75 14.2501 21.75H9.75005C9.55114 21.75 9.36037 21.671 9.21972 21.5303C9.07907 21.3897 9.00005 21.1989 9.00005 21V16.875C9.00005 16.7755 9.03956 16.6802 9.10989 16.6098C9.18021 16.5395 9.2756 16.5 9.37505 16.5H14.6251C14.7245 16.5 14.8199 16.5395 14.8902 16.6098C14.9605 16.6802 15.0001 16.7755 15.0001 16.875Z" fill="black"/>
</svg>
