<svg width="24" height="24" viewBox="0 0 24 24" fill="none" xmlns="http://www.w3.org/2000/svg">
<path d="M17.0691 19.7616C17.1625 19.8704 17.2227 20.0038 17.2427 20.1459C17.2626 20.288 17.2413 20.4328 17.1814 20.5631C17.1215 20.6935 17.0255 20.804 16.9047 20.8814C16.7839 20.9588 16.6435 21 16.5 21H7.5C7.35653 21 7.21608 20.9588 7.0953 20.8814C6.97453 20.804 6.87849 20.6935 6.81859 20.5631C6.75869 20.4328 6.73743 20.288 6.75735 20.1459C6.77726 20.0038 6.8375 19.8704 6.93094 19.7616L11.4309 14.5116C11.5013 14.4294 11.5887 14.3634 11.687 14.3182C11.7853 14.273 11.8923 14.2496 12.0005 14.2496C12.1087 14.2496 12.2156 14.273 12.3139 14.3182C12.4122 14.3634 12.4996 14.4294 12.57 14.5116L17.0691 19.7616ZM19.5 3.75H4.5C3.90326 3.75 3.33097 3.98705 2.90901 4.40901C2.48705 4.83097 2.25 5.40326 2.25 6V16.5C2.25 17.0967 2.48705 17.669 2.90901 18.091C3.33097 18.5129 3.90326 18.75 4.5 18.75H5.64937C5.70291 18.7495 5.7557 18.7375 5.80422 18.7148C5.85273 18.6922 5.89583 18.6594 5.93062 18.6188L10.2881 13.5356C10.4994 13.2893 10.7614 13.0915 11.0562 12.9559C11.3511 12.8203 11.6717 12.7501 11.9963 12.7501C12.3208 12.7501 12.6414 12.8203 12.9363 12.9559C13.2311 13.0915 13.4931 13.2893 13.7044 13.5356L18.0656 18.6188C18.1004 18.6594 18.1435 18.6922 18.192 18.7148C18.2405 18.7375 18.2933 18.7495 18.3469 18.75H19.5C20.0967 18.75 20.669 18.5129 21.091 18.091C21.5129 17.669 21.75 17.0967 21.75 16.5V6C21.75 5.40326 21.5129 4.83097 21.091 4.40901C20.669 3.98705 20.0967 3.75 19.5 3.75Z" fill="black"/>
</svg>
