<svg width="24" height="24" viewBox="0 0 24 24" fill="none" xmlns="http://www.w3.org/2000/svg">
<path d="M16.5 20.25C16.5 20.4489 16.421 20.6397 16.2804 20.7803C16.1397 20.921 15.949 21 15.75 21H2.25005C2.05114 21 1.86037 20.921 1.71972 20.7803C1.57907 20.6397 1.50005 20.4489 1.50005 20.25C1.50005 20.0511 1.57907 19.8603 1.71972 19.7197C1.86037 19.579 2.05114 19.5 2.25005 19.5H15.75C15.949 19.5 16.1397 19.579 16.2804 19.7197C16.421 19.8603 16.5 20.0511 16.5 20.25ZM23.0916 8.13375L21.3441 5.89406L21.3329 5.88C20.7678 5.18393 19.971 4.71449 19.0883 4.5575C18.2056 4.40051 17.2958 4.56645 16.5254 5.025L11.6907 7.91062L6.6338 6.05062C6.46479 5.9876 6.27874 5.9876 6.10974 6.05062L5.43755 6.30656L5.40755 6.31875C5.17759 6.41746 4.97598 6.57214 4.82108 6.76869C4.66619 6.96524 4.56293 7.19743 4.52071 7.4441C4.4785 7.69076 4.49867 7.94407 4.57939 8.18095C4.66011 8.41783 4.79881 8.63074 4.98286 8.80031L7.0313 10.7869L5.14036 11.9306L2.49099 11.0362C2.30348 10.9731 2.0986 10.9865 1.92099 11.0737L1.63974 11.2116C1.41472 11.3121 1.21795 11.4666 1.06682 11.6612C0.915691 11.8559 0.814861 12.0849 0.773246 12.3278C0.731632 12.5707 0.750515 12.8201 0.828227 13.054C0.905938 13.2879 1.04008 13.499 1.2188 13.6687L4.5938 16.9753L4.60505 16.9866C5.29638 17.64 6.21128 18.0045 7.16255 18.0056C7.83035 18.0045 8.48586 17.8259 9.06192 17.4881L22.8816 9.23812C22.9728 9.18363 23.0514 9.11038 23.1121 9.02323C23.1729 8.93608 23.2144 8.83702 23.234 8.73261C23.2536 8.6282 23.2508 8.52082 23.2258 8.41758C23.2007 8.31433 23.154 8.21759 23.0888 8.13375H23.0916Z" fill="black"/>
</svg>
