<svg width="24" height="24" viewBox="0 0 24 24" fill="none" xmlns="http://www.w3.org/2000/svg">
<path d="M21.0001 20.25C21.0001 20.4489 20.9211 20.6397 20.7804 20.7803C20.6398 20.921 20.449 21 20.2501 21H6.75011C6.55119 21 6.36043 20.921 6.21978 20.7803C6.07912 20.6397 6.00011 20.4489 6.00011 20.25C6.00011 20.0511 6.07912 19.8603 6.21978 19.7197C6.36043 19.579 6.55119 19.5 6.75011 19.5H20.2501C20.449 19.5 20.6398 19.579 20.7804 19.7197C20.9211 19.8603 21.0001 20.0511 21.0001 20.25ZM19.5001 9H13.8114L9.53073 4.71938C9.46103 4.64975 9.37829 4.59454 9.28724 4.5569C9.1962 4.51926 9.09863 4.49992 9.00011 4.5H8.25011C8.0125 4.50013 7.77831 4.55671 7.56685 4.66507C7.35539 4.77343 7.1727 4.93048 7.03382 5.12328C6.89494 5.31608 6.80385 5.53912 6.76805 5.77402C6.73226 6.00892 6.75277 6.24896 6.82792 6.47438L7.67167 9H5.56136L3.53073 6.96937C3.46103 6.89975 3.37829 6.84454 3.28724 6.8069C3.1962 6.76926 3.09863 6.74992 3.00011 6.75H2.25011C2.01636 6.75021 1.7859 6.80505 1.57711 6.91013C1.36832 7.01521 1.18698 7.16764 1.04755 7.35524C0.90812 7.54285 0.814464 7.76044 0.774053 7.99067C0.733641 8.22089 0.747593 8.45737 0.814794 8.68125L2.13386 13.0772C2.36216 13.8516 2.83581 14.531 3.48353 15.013C4.13126 15.4951 4.91802 15.7537 5.72542 15.75H22.5001C22.699 15.75 22.8898 15.671 23.0304 15.5303C23.1711 15.3897 23.2501 15.1989 23.2501 15V12.75C23.2501 11.7554 22.855 10.8016 22.1518 10.0984C21.4485 9.39509 20.4947 9 19.5001 9Z" fill="black"/>
</svg>
