<svg width="24" height="24" viewBox="0 0 24 24" fill="none" xmlns="http://www.w3.org/2000/svg">
<path d="M23.25 20.25C23.25 20.4489 23.171 20.6397 23.0303 20.7803C22.8897 20.921 22.6989 21 22.5 21H9C8.80109 21 8.61032 20.921 8.46967 20.7803C8.32902 20.6397 8.25 20.4489 8.25 20.25C8.25 20.0511 8.32902 19.8603 8.46967 19.7197C8.61032 19.579 8.80109 19.5 9 19.5H22.5C22.6989 19.5 22.8897 19.579 23.0303 19.7197C23.171 19.8603 23.25 20.0511 23.25 20.25ZM21 18C21.1989 18 21.3897 17.921 21.5303 17.7803C21.671 17.6397 21.75 17.4489 21.75 17.25V13.905C21.7481 13.0861 21.4789 12.2901 20.9835 11.638C20.4881 10.9859 19.7934 10.5133 19.005 10.2919L13.3013 8.69814L11.1919 3.67033C11.1506 3.57165 11.0886 3.48295 11.0102 3.41018C10.9318 3.33742 10.8387 3.28227 10.7372 3.24845L10.2244 3.07783C9.99896 3.00268 9.75892 2.98216 9.52402 3.01796C9.28912 3.05376 9.06608 3.14485 8.87328 3.28372C8.68048 3.4226 8.52343 3.6053 8.41507 3.81676C8.30671 4.02822 8.25013 4.2624 8.25 4.50001V7.25533L5.44969 6.45751L4.455 3.70408C4.41644 3.5975 4.35423 3.50105 4.27304 3.42198C4.19185 3.3429 4.0938 3.28325 3.98625 3.24751L3.47344 3.07689C3.248 3.0019 3.00798 2.98154 2.77313 3.01747C2.53828 3.0534 2.31533 3.14461 2.12263 3.28357C1.92993 3.42253 1.77299 3.60528 1.66475 3.81677C1.5565 4.02826 1.50003 4.26243 1.5 4.50001V9.72376C1.5018 10.5416 1.77009 11.3365 2.26423 11.9882C2.75838 12.6398 3.45145 13.1126 4.23844 13.335L20.7975 17.9719C20.8634 17.9905 20.9315 17.9999 21 18Z" fill="black"/>
</svg>
