<svg width="24" height="24" viewBox="0 0 24 24" fill="none" xmlns="http://www.w3.org/2000/svg">
<path d="M5.78055 2.78061L2.78055 5.78061C2.71087 5.8503 2.62815 5.90557 2.5371 5.94328C2.44606 5.981 2.34847 6.00041 2.24993 6.00041C2.15138 6.00041 2.0538 5.981 1.96276 5.94328C1.87171 5.90557 1.78899 5.8503 1.7193 5.78061C1.57857 5.63988 1.49951 5.44901 1.49951 5.24999C1.49951 5.05097 1.57857 4.8601 1.7193 4.71936L4.7193 1.71936C4.78899 1.64968 4.87171 1.59441 4.96276 1.55669C5.0538 1.51898 5.15138 1.49957 5.24993 1.49957C5.34847 1.49957 5.44606 1.51898 5.5371 1.55669C5.62815 1.59441 5.71087 1.64968 5.78055 1.71936C5.85024 1.78905 5.90551 1.87177 5.94322 1.96282C5.98094 2.05386 6.00035 2.15144 6.00035 2.24999C6.00035 2.34854 5.98094 2.44612 5.94322 2.53716C5.90551 2.62821 5.85024 2.71093 5.78055 2.78061ZM22.2806 4.71936L19.2806 1.71936C19.1398 1.57863 18.949 1.49957 18.7499 1.49957C18.5509 1.49957 18.36 1.57863 18.2193 1.71936C18.0786 1.8601 17.9995 2.05097 17.9995 2.24999C17.9995 2.44901 18.0786 2.63988 18.2193 2.78061L21.2193 5.78061C21.289 5.8503 21.3717 5.90557 21.4628 5.94328C21.5538 5.981 21.6514 6.00041 21.7499 6.00041C21.8485 6.00041 21.9461 5.981 22.0371 5.94328C22.1281 5.90557 22.2109 5.8503 22.2806 5.78061C22.3502 5.71093 22.4055 5.62821 22.4432 5.53716C22.4809 5.44612 22.5003 5.34854 22.5003 5.24999C22.5003 5.15144 22.4809 5.05386 22.4432 4.96282C22.4055 4.87177 22.3502 4.78905 22.2806 4.71936ZM20.9999 12C20.9999 13.78 20.4721 15.5201 19.4832 17.0001C18.4942 18.4802 17.0886 19.6337 15.4441 20.3149C13.7995 20.9961 11.9899 21.1743 10.2441 20.8271C8.49829 20.4798 6.89464 19.6226 5.63597 18.364C4.3773 17.1053 3.52013 15.5016 3.17286 13.7558C2.82559 12.01 3.00382 10.2004 3.68501 8.55584C4.3662 6.9113 5.51975 5.5057 6.9998 4.51676C8.47984 3.52783 10.2199 2.99999 11.9999 2.99999C14.386 3.00272 16.6736 3.95181 18.3609 5.63904C20.0481 7.32628 20.9972 9.61388 20.9999 12ZM17.9999 12C17.9999 11.8011 17.9209 11.6103 17.7803 11.4697C17.6396 11.329 17.4488 11.25 17.2499 11.25H12.7499V6.74999C12.7499 6.55108 12.6709 6.36031 12.5303 6.21966C12.3896 6.07901 12.1988 5.99999 11.9999 5.99999C11.801 5.99999 11.6103 6.07901 11.4696 6.21966C11.3289 6.36031 11.2499 6.55108 11.2499 6.74999V12C11.2499 12.1989 11.3289 12.3897 11.4696 12.5303C11.6103 12.671 11.801 12.75 11.9999 12.75H17.2499C17.4488 12.75 17.6396 12.671 17.7803 12.5303C17.9209 12.3897 17.9999 12.1989 17.9999 12Z" fill="black"/>
</svg>
