<svg width="24" height="24" viewBox="0 0 24 24" fill="none" xmlns="http://www.w3.org/2000/svg">
<path d="M21 13.5C20.9985 14.8919 20.4449 16.2264 19.4607 17.2107C18.4764 18.1949 17.1419 18.7485 15.75 18.75C14.9544 18.75 14.1913 19.0661 13.6287 19.6287C13.0661 20.1913 12.75 20.9543 12.75 21.75C12.75 21.9489 12.671 22.1397 12.5303 22.2803C12.3897 22.421 12.1989 22.5 12 22.5C11.8011 22.5 11.6103 22.421 11.4697 22.2803C11.329 22.1397 11.25 21.9489 11.25 21.75C11.25 20.9543 10.9339 20.1913 10.3713 19.6287C9.80871 19.0661 9.04565 18.75 8.25 18.75C6.85807 18.7485 5.52358 18.1949 4.53933 17.2107C3.55509 16.2264 3.00149 14.8919 3 13.5C3 13.3011 3.07902 13.1103 3.21967 12.9697C3.36032 12.829 3.55109 12.75 3.75 12.75C3.94891 12.75 4.13968 12.829 4.28033 12.9697C4.42098 13.1103 4.5 13.3011 4.5 13.5C4.5 13.9924 4.597 14.4801 4.78545 14.9351C4.97391 15.39 5.25013 15.8034 5.59835 16.1516C6.30161 16.8549 7.25544 17.25 8.25 17.25C9.35782 17.2493 10.4266 17.6592 11.25 18.4003V12H8.25C8.05109 12 7.86032 11.921 7.71967 11.7803C7.57902 11.6397 7.5 11.4489 7.5 11.25C7.5 11.0511 7.57902 10.8603 7.71967 10.7197C7.86032 10.579 8.05109 10.5 8.25 10.5H11.25V7.7653C10.6458 7.58515 10.1265 7.19352 9.7873 6.66202C9.44806 6.13053 9.31147 5.49468 9.4025 4.87076C9.49353 4.24683 9.8061 3.67651 10.2831 3.2641C10.76 2.85168 11.3695 2.62473 12 2.62473C12.6305 2.62473 13.24 2.85168 13.7169 3.2641C14.1939 3.67651 14.5065 4.24683 14.5975 4.87076C14.6885 5.49468 14.5519 6.13053 14.2127 6.66202C13.8735 7.19352 13.3542 7.58515 12.75 7.7653V10.5H15.75C15.9489 10.5 16.1397 10.579 16.2803 10.7197C16.421 10.8603 16.5 11.0511 16.5 11.25C16.5 11.4489 16.421 11.6397 16.2803 11.7803C16.1397 11.921 15.9489 12 15.75 12H12.75V18.4003C13.5734 17.6592 14.6422 17.2493 15.75 17.25C16.2425 17.25 16.7301 17.153 17.1851 16.9645C17.64 16.7761 18.0534 16.4999 18.4017 16.1516C18.7499 15.8034 19.0261 15.39 19.2145 14.9351C19.403 14.4801 19.5 13.9924 19.5 13.5C19.5 13.3011 19.579 13.1103 19.7197 12.9697C19.8603 12.829 20.0511 12.75 20.25 12.75C20.4489 12.75 20.6397 12.829 20.7803 12.9697C20.921 13.1103 21 13.3011 21 13.5Z" fill="black"/>
</svg>
