<svg width="24" height="24" viewBox="0 0 24 24" fill="none" xmlns="http://www.w3.org/2000/svg">
<path d="M19.4119 8.3128C19.3425 8.24343 19.2722 8.17593 19.2019 8.10936L21.5306 5.78061C21.6003 5.71093 21.6556 5.62821 21.6933 5.53716C21.731 5.44612 21.7504 5.34854 21.7504 5.24999C21.7504 5.15144 21.731 5.05386 21.6933 4.96282C21.6556 4.87177 21.6003 4.78905 21.5306 4.71936C21.4609 4.64968 21.3782 4.59441 21.2872 4.55669C21.1961 4.51898 21.0986 4.49957 21 4.49957C20.9015 4.49957 20.8039 4.51898 20.7128 4.55669C20.6218 4.59441 20.5391 4.64968 20.4694 4.71936L18.0319 7.15686C16.2673 5.91471 14.1612 5.24952 12.0033 5.25271C9.8453 5.2559 7.74126 5.92731 5.98032 7.17468L3.53063 4.71936C3.3899 4.57863 3.19903 4.49957 3 4.49957C2.80098 4.49957 2.61011 4.57863 2.46938 4.71936C2.32865 4.8601 2.24959 5.05097 2.24959 5.24999C2.24959 5.44901 2.32865 5.63988 2.46938 5.78061L4.81875 8.12999C3.76922 9.12437 2.93357 10.3224 2.36294 11.6508C1.7923 12.9793 1.49867 14.4101 1.5 15.8559V18C1.5 18.3978 1.65804 18.7793 1.93934 19.0606C2.22065 19.342 2.60218 19.5 3 19.5H21C21.3978 19.5 21.7794 19.342 22.0607 19.0606C22.342 18.7793 22.5 18.3978 22.5 18V15.75C22.5039 14.3675 22.2328 12.9981 21.7027 11.7213C21.1725 10.4446 20.3938 9.28593 19.4119 8.3128ZM8.625 15.75C8.4025 15.75 8.18499 15.684 7.99999 15.5604C7.81498 15.4368 7.67079 15.2611 7.58564 15.0555C7.50049 14.8499 7.47821 14.6237 7.52162 14.4055C7.56503 14.1873 7.67217 13.9868 7.82951 13.8295C7.98684 13.6722 8.1873 13.565 8.40553 13.5216C8.62376 13.4782 8.84996 13.5005 9.05552 13.5856C9.26109 13.6708 9.43679 13.815 9.56041 14C9.68402 14.185 9.75 14.4025 9.75 14.625C9.75 14.9234 9.63148 15.2095 9.4205 15.4205C9.20952 15.6315 8.92337 15.75 8.625 15.75ZM15.375 15.75C15.1525 15.75 14.935 15.684 14.75 15.5604C14.565 15.4368 14.4208 15.2611 14.3356 15.0555C14.2505 14.8499 14.2282 14.6237 14.2716 14.4055C14.315 14.1873 14.4222 13.9868 14.5795 13.8295C14.7368 13.6722 14.9373 13.565 15.1555 13.5216C15.3738 13.4782 15.6 13.5005 15.8055 13.5856C16.0111 13.6708 16.1868 13.815 16.3104 14C16.434 14.185 16.5 14.4025 16.5 14.625C16.5 14.9234 16.3815 15.2095 16.1705 15.4205C15.9595 15.6315 15.6734 15.75 15.375 15.75Z" fill="black"/>
</svg>
