<svg width="24" height="24" viewBox="0 0 24 24" fill="none" xmlns="http://www.w3.org/2000/svg">
<path d="M12 9.79406L13.2253 12H10.7747L12 9.79406ZM21.7434 6.84937L20.2434 18.0994C20.2273 18.2207 20.1817 18.3363 20.1106 18.436C20.0395 18.5357 19.9451 18.6165 19.8356 18.6712L12.3356 22.4212C12.2314 22.4734 12.1165 22.5005 12 22.5005C11.8835 22.5005 11.7686 22.4734 11.6644 22.4212L4.16438 18.6712C4.05489 18.6165 3.96048 18.5357 3.88939 18.436C3.81831 18.3363 3.7727 18.2207 3.75657 18.0994L2.25657 6.84937C2.23478 6.68584 2.26752 6.51968 2.34972 6.37663C2.43192 6.23359 2.55899 6.12164 2.71126 6.05812L11.7113 2.30812C11.8027 2.2696 11.9008 2.24976 12 2.24976C12.0992 2.24976 12.1974 2.2696 12.2888 2.30812L21.2888 6.05812C21.441 6.12164 21.5681 6.23359 21.6503 6.37663C21.7325 6.51968 21.7652 6.68584 21.7434 6.84937ZM16.4063 14.6362L12.6563 7.88625C12.5914 7.76902 12.4963 7.67131 12.3809 7.60327C12.2655 7.53523 12.134 7.49934 12 7.49934C11.866 7.49934 11.7345 7.53523 11.6191 7.60327C11.5037 7.67131 11.4086 7.76902 11.3438 7.88625L7.59376 14.6362C7.54599 14.7224 7.51567 14.8172 7.50451 14.9151C7.49336 15.013 7.5016 15.1121 7.52876 15.2068C7.55592 15.3015 7.60147 15.39 7.66281 15.4671C7.72415 15.5442 7.80008 15.6085 7.88626 15.6562C7.97244 15.704 8.06718 15.7343 8.16508 15.7455C8.26298 15.7566 8.36212 15.7484 8.45684 15.7212C8.55155 15.6941 8.63999 15.6485 8.7171 15.5872C8.79422 15.5259 8.85849 15.4499 8.90626 15.3637L9.93751 13.5H14.0625L15.0938 15.3637C15.1415 15.4499 15.2058 15.5259 15.2829 15.5872C15.36 15.6485 15.4485 15.6941 15.5432 15.7212C15.6379 15.7484 15.737 15.7566 15.8349 15.7455C15.9328 15.7343 16.0276 15.704 16.1138 15.6562C16.1999 15.6085 16.2759 15.5442 16.3372 15.4671C16.3985 15.39 16.4441 15.3015 16.4713 15.2068C16.4984 15.1121 16.5067 15.013 16.4955 14.9151C16.4844 14.8172 16.454 14.7224 16.4063 14.6362Z" fill="black"/>
</svg>
