<svg width="24" height="24" viewBox="0 0 24 24" fill="none" xmlns="http://www.w3.org/2000/svg">
<path d="M21.7499 12C21.75 10.0716 21.1782 8.1865 20.1068 6.58309C19.0355 4.97968 17.5127 3.72997 15.7311 2.99201C13.9495 2.25404 11.9891 2.06095 10.0978 2.43717C8.20641 2.81339 6.46912 3.74202 5.10555 5.10561C3.74196 6.46918 2.81333 8.20648 2.43711 10.0978C2.06089 11.9891 2.25398 13.9496 2.99194 15.7312C3.72991 17.5128 4.97962 19.0355 6.58303 20.1069C8.18644 21.1782 10.0715 21.75 11.9999 21.75H12.0084C14.5928 21.7478 17.0705 20.7195 18.8972 18.8913C20.7239 17.0631 21.7499 14.5844 21.7499 12ZM4.61055 8.33624L9.41149 9.2128L4.37337 15.1434C3.92833 14.0568 3.71933 12.8879 3.76022 11.7143C3.80111 10.5408 4.09096 9.3893 4.61055 8.33624ZM19.6265 8.85561C20.0716 9.94245 20.2806 11.1115 20.2397 12.2852C20.1988 13.4589 19.9089 14.6105 19.3893 15.6637L14.5884 14.7872L19.6265 8.85561ZM18.869 7.43061L15.7077 11.1562L13.0902 3.82311C14.8872 4.05813 16.5555 4.8824 17.834 6.16686C18.2196 6.55314 18.5663 6.97643 18.869 7.43061ZM11.4777 3.7678L13.1193 8.36155L5.46555 6.96749C5.68175 6.68571 5.91566 6.41798 6.16586 6.16593C7.5826 4.74235 9.47299 3.88891 11.4777 3.7678ZM5.13087 16.5694L8.29212 12.8437L10.9096 20.1731C9.74507 20.0179 8.62709 19.6158 7.6305 18.9937C6.63391 18.3715 5.78169 17.5437 5.13087 16.5656V16.5694ZM12.5221 20.2312L10.8806 15.6375L13.0443 16.0312L18.5306 17.0334C17.816 17.9661 16.9093 18.7343 15.8721 19.2862C14.8348 19.8381 13.6911 20.1607 12.5184 20.2322L12.5221 20.2312Z" fill="black"/>
</svg>
