<svg width="24" height="24" viewBox="0 0 24 24" fill="none" xmlns="http://www.w3.org/2000/svg">
<path d="M12.0001 13.5C11.481 13.5 10.9734 13.346 10.5418 13.0576C10.1101 12.7692 9.77363 12.3592 9.57495 11.8795C9.37627 11.3999 9.32428 10.8721 9.42557 10.3629C9.52685 9.85369 9.77686 9.38596 10.144 9.01884C10.5111 8.65173 10.9788 8.40172 11.488 8.30044C11.9972 8.19915 12.525 8.25114 13.0047 8.44982C13.4843 8.6485 13.8943 8.98495 14.1827 9.41663C14.4712 9.84831 14.6251 10.3558 14.6251 10.875C14.6251 11.5712 14.3486 12.2389 13.8563 12.7312C13.364 13.2234 12.6963 13.5 12.0001 13.5ZM13.4767 13.5H10.5236C10.2341 13.4992 9.94834 13.5649 9.68827 13.692C9.42821 13.8192 9.2008 14.0043 9.02357 14.2331C8.84862 14.4559 8.72734 14.716 8.66914 14.9932C8.61093 15.2704 8.61737 15.5572 8.68794 15.8316L9.82982 20.3316C9.93482 20.7384 10.1724 21.0988 10.5049 21.3556C10.8375 21.6125 11.2462 21.7512 11.6664 21.75H12.3339C12.7549 21.7523 13.1646 21.614 13.4982 21.3571C13.8317 21.1001 14.0699 20.7392 14.1751 20.3316L15.317 15.8316C15.3876 15.5572 15.394 15.2704 15.3358 14.9932C15.2776 14.716 15.1563 14.4559 14.9814 14.2331C14.8037 14.0036 14.5755 13.8181 14.3146 13.691C14.0536 13.5639 13.7669 13.4985 13.4767 13.5ZM17.0851 13.3125C17.0356 13.5051 17.0645 13.7094 17.1656 13.8807C17.2667 14.0519 17.4317 14.176 17.6242 14.2256C17.6855 14.2412 17.7485 14.2491 17.8117 14.2491C17.9779 14.2489 18.1393 14.1936 18.2706 14.0918C18.402 13.99 18.4958 13.8475 18.5373 13.6866C18.7938 12.6894 18.8188 11.6467 18.6103 10.6384C18.4019 9.63006 17.9655 8.68278 17.3346 7.86906C16.7037 7.05533 15.895 6.39672 14.9704 5.94364C14.0458 5.49055 13.0298 5.25499 12.0001 5.25499C10.9705 5.25499 9.95447 5.49055 9.02987 5.94364C8.10526 6.39672 7.29656 7.05533 6.66566 7.86906C6.03476 8.68278 5.59838 9.63006 5.38992 10.6384C5.18145 11.6467 5.20643 12.6894 5.46294 13.6866C5.48633 13.7832 5.52872 13.8743 5.58763 13.9544C5.64654 14.0345 5.7208 14.1022 5.80609 14.1533C5.89137 14.2045 5.98599 14.2382 6.08442 14.2524C6.18285 14.2667 6.28313 14.2612 6.37943 14.2363C6.47572 14.2115 6.56611 14.1677 6.64534 14.1076C6.72456 14.0475 6.79103 13.9722 6.84088 13.8861C6.89074 13.8 6.92297 13.7049 6.93572 13.6063C6.94847 13.5077 6.94147 13.4075 6.91513 13.3116C6.71598 12.5361 6.69684 11.7253 6.85917 10.9412C7.02151 10.1572 7.36102 9.4207 7.85174 8.78804C8.34246 8.15538 8.97138 7.64334 9.69039 7.29108C10.4094 6.93883 11.1995 6.7557 12.0001 6.7557C12.8008 6.7557 13.5909 6.93883 14.3099 7.29108C15.0289 7.64334 15.6578 8.15538 16.1485 8.78804C16.6392 9.4207 16.9788 10.1572 17.1411 10.9412C17.3034 11.7253 17.2843 12.5361 17.0851 13.3116V13.3125ZM12.0001 2.25C9.90561 2.24976 7.86669 2.92402 6.18527 4.17295C4.50384 5.42188 3.2693 7.17907 2.66443 9.18435C2.05957 11.1896 2.11654 13.3364 2.8269 15.3068C3.53727 17.2771 4.86327 18.9664 6.60857 20.1244C6.77417 20.2345 6.97673 20.2743 7.1717 20.2351C7.36667 20.1959 7.53809 20.0809 7.64825 19.9153C7.70273 19.8333 7.74052 19.7413 7.75945 19.6446C7.77838 19.548 7.77809 19.4485 7.75859 19.352C7.73909 19.2554 7.70076 19.1637 7.6458 19.0819C7.59084 19.0002 7.52031 18.9301 7.43825 18.8756C5.96159 17.8958 4.83968 16.4665 4.23864 14.7994C3.63759 13.1322 3.58936 11.3158 4.10107 9.61915C4.61278 7.92245 5.65724 6.43563 7.07982 5.3788C8.5024 4.32198 10.2275 3.75132 11.9997 3.75132C13.7718 3.75132 15.4969 4.32198 16.9195 5.3788C18.3421 6.43563 19.3865 7.92245 19.8983 9.61915C20.41 11.3158 20.3617 13.1322 19.7607 14.7994C19.1596 16.4665 18.0377 17.8958 16.5611 18.8756C16.3993 18.9874 16.2878 19.1582 16.2507 19.3513C16.2137 19.5444 16.2539 19.7444 16.3628 19.9081C16.4717 20.0719 16.6406 20.1863 16.833 20.2267C17.0255 20.2672 17.2261 20.2304 17.3917 20.1244C19.137 18.9664 20.463 17.2771 21.1734 15.3068C21.8837 13.3364 21.9407 11.1896 21.3358 9.18435C20.731 7.17907 19.4964 5.42188 17.815 4.17295C16.1336 2.92402 14.0946 2.24976 12.0001 2.25Z" fill="black"/>
</svg>
