<svg width="24" height="24" viewBox="0 0 24 24" fill="none" xmlns="http://www.w3.org/2000/svg">
<path d="M3.75 7.88531V6.75C3.75 5.75544 4.14509 4.80161 4.84835 4.09835C5.55161 3.39509 6.50544 3 7.5 3H16.5C17.4946 3 18.4484 3.39509 19.1516 4.09835C19.8549 4.80161 20.25 5.75544 20.25 6.75V7.88531C20.2496 7.93397 20.2396 7.98208 20.2205 8.02684C20.2014 8.07159 20.1736 8.11211 20.1387 8.14604C20.1038 8.17996 20.0626 8.20662 20.0173 8.22447C19.972 8.24232 19.9237 8.25099 19.875 8.25C18.9115 8.25142 17.9789 8.58951 17.2383 9.2058C16.4977 9.82209 15.9958 10.6778 15.8194 11.625H8.18062C8.0042 10.6778 7.50229 9.82209 6.76172 9.2058C6.02114 8.58951 5.08847 8.25142 4.125 8.25C4.07635 8.25099 4.02798 8.24232 3.98271 8.22447C3.93744 8.20662 3.89616 8.17996 3.86128 8.14604C3.82639 8.11211 3.79859 8.07159 3.77949 8.02684C3.76039 7.98208 3.75036 7.93397 3.75 7.88531ZM19.875 9.75C19.1788 9.75 18.5111 10.0266 18.0188 10.5188C17.5266 11.0111 17.25 11.6788 17.25 12.375V15.75C17.25 15.9489 17.171 16.1397 17.0303 16.2803C16.8897 16.421 16.6989 16.5 16.5 16.5C16.3011 16.5 16.1103 16.421 15.9697 16.2803C15.829 16.1397 15.75 15.9489 15.75 15.75V13.125H8.25V15.75C8.25 15.9489 8.17098 16.1397 8.03033 16.2803C7.88968 16.421 7.69891 16.5 7.5 16.5C7.30109 16.5 7.11032 16.421 6.96967 16.2803C6.82902 16.1397 6.75 15.9489 6.75 15.75V12.375C6.75005 11.8718 6.60548 11.3792 6.33351 10.9559C6.06154 10.5326 5.67363 10.1963 5.21597 9.98718C4.75831 9.77806 4.25019 9.70488 3.75212 9.77635C3.25405 9.84783 2.78701 10.061 2.40663 10.3903C2.02625 10.7197 1.74856 11.1515 1.60661 11.6342C1.46467 12.117 1.46446 12.6303 1.60601 13.1132C1.74756 13.596 2.0249 14.028 2.40501 14.3577C2.78513 14.6874 3.25199 14.9009 3.75 14.9728V18.75C3.75 19.1478 3.90804 19.5294 4.18934 19.8107C4.47064 20.092 4.85218 20.25 5.25 20.25H18.75C19.1478 20.25 19.5294 20.092 19.8107 19.8107C20.092 19.5294 20.25 19.1478 20.25 18.75V14.9728C20.9065 14.8776 21.5025 14.5374 21.9184 14.0205C22.3342 13.5037 22.5389 12.8486 22.4914 12.187C22.4439 11.5254 22.1477 10.9063 21.6623 10.4541C21.1769 10.002 20.5383 9.75046 19.875 9.75Z" fill="black"/>
</svg>
