<svg width="24" height="24" viewBox="0 0 24 24" fill="none" xmlns="http://www.w3.org/2000/svg">
<path d="M20.0306 8.03062L15.5306 12.5306C15.4257 12.6356 15.292 12.7072 15.1465 12.7361C15.0009 12.7651 14.85 12.7503 14.7129 12.6935C14.5758 12.6366 14.4586 12.5404 14.3762 12.417C14.2938 12.2935 14.2499 12.1484 14.25 12V8.25H6.75V21C6.75 21.1989 6.67098 21.3897 6.53033 21.5303C6.38968 21.671 6.19891 21.75 6 21.75C5.80109 21.75 5.61032 21.671 5.46967 21.5303C5.32902 21.3897 5.25 21.1989 5.25 21V7.5C5.25 7.30108 5.32902 7.11032 5.46967 6.96967C5.61032 6.82901 5.80109 6.75 6 6.75H14.25V3C14.2499 2.85157 14.2938 2.70645 14.3762 2.58301C14.4586 2.45956 14.5758 2.36334 14.7129 2.30653C14.85 2.24971 15.0009 2.23486 15.1465 2.26385C15.292 2.29284 15.4257 2.36436 15.5306 2.46937L20.0306 6.96937C20.1004 7.03903 20.1557 7.12174 20.1934 7.21279C20.2312 7.30384 20.2506 7.40143 20.2506 7.5C20.2506 7.59856 20.2312 7.69615 20.1934 7.7872C20.1557 7.87825 20.1004 7.96097 20.0306 8.03062Z" fill="black"/>
</svg>
