<svg width="24" height="24" viewBox="0 0 24 24" fill="none" xmlns="http://www.w3.org/2000/svg">
<path d="M17.0306 7.71937C17.1004 7.78903 17.1557 7.87175 17.1934 7.96279C17.2312 8.05384 17.2506 8.15144 17.2506 8.25C17.2506 8.34856 17.2312 8.44616 17.1934 8.53721C17.1557 8.62825 17.1004 8.71097 17.0306 8.78063L11.5603 14.25L15.5306 18.2194C15.6356 18.3243 15.7072 18.458 15.7361 18.6035C15.7651 18.7491 15.7503 18.9 15.6935 19.0371C15.6367 19.1742 15.5404 19.2914 15.417 19.3738C15.2935 19.4562 15.1484 19.5001 15 19.5H6C5.80109 19.5 5.61032 19.421 5.46967 19.2803C5.32902 19.1397 5.25 18.9489 5.25 18.75V9.75C5.24988 9.60158 5.29381 9.45646 5.37621 9.33301C5.45861 9.20957 5.57579 9.11335 5.71291 9.05653C5.85002 8.99972 6.00092 8.98487 6.14648 9.01385C6.29204 9.04284 6.42573 9.11437 6.53063 9.21937L10.5 13.1897L15.9694 7.71937C16.039 7.64964 16.1217 7.59432 16.2128 7.55658C16.3038 7.51884 16.4014 7.49941 16.5 7.49941C16.5986 7.49941 16.6962 7.51884 16.7872 7.55658C16.8783 7.59432 16.961 7.64964 17.0306 7.71937ZM20.25 3H3.75C3.55109 3 3.36032 3.07902 3.21967 3.21967C3.07902 3.36032 3 3.55109 3 3.75C3 3.94891 3.07902 4.13968 3.21967 4.28033C3.36032 4.42098 3.55109 4.5 3.75 4.5H20.25C20.4489 4.5 20.6397 4.42098 20.7803 4.28033C20.921 4.13968 21 3.94891 21 3.75C21 3.55109 20.921 3.36032 20.7803 3.21967C20.6397 3.07902 20.4489 3 20.25 3Z" fill="black"/>
</svg>
