<svg width="24" height="24" viewBox="0 0 24 24" fill="none" xmlns="http://www.w3.org/2000/svg">
<path d="M17.2501 20.25C17.2501 20.4489 17.1711 20.6397 17.0304 20.7803C16.8898 20.921 16.699 21 16.5001 21H7.5001C7.30119 21 7.11043 20.921 6.96977 20.7803C6.82912 20.6397 6.7501 20.4489 6.7501 20.25C6.7501 20.0511 6.82912 19.8603 6.96977 19.7197C7.11043 19.579 7.30119 19.5 7.5001 19.5H16.5001C16.699 19.5 16.8898 19.579 17.0304 19.7197C17.1711 19.8603 17.2501 20.0511 17.2501 20.25ZM21.5307 10.7194L12.5307 1.71937C12.4611 1.64964 12.3784 1.59432 12.2873 1.55658C12.1963 1.51883 12.0987 1.4994 12.0001 1.4994C11.9015 1.4994 11.8039 1.51883 11.7129 1.55658C11.6218 1.59432 11.5391 1.64964 11.4695 1.71937L2.46948 10.7194C2.36447 10.8243 2.29294 10.958 2.26396 11.1035C2.23497 11.2491 2.24982 11.4 2.30664 11.5371C2.36345 11.6742 2.45967 11.7914 2.58312 11.8738C2.70656 11.9562 2.85168 12.0001 3.0001 12H6.7501V17.25C6.7501 17.4489 6.82912 17.6397 6.96977 17.7803C7.11043 17.921 7.30119 18 7.5001 18H16.5001C16.699 18 16.8898 17.921 17.0304 17.7803C17.1711 17.6397 17.2501 17.4489 17.2501 17.25V12H21.0001C21.1485 12.0001 21.2936 11.9562 21.4171 11.8738C21.5405 11.7914 21.6368 11.6742 21.6936 11.5371C21.7504 11.4 21.7652 11.2491 21.7363 11.1035C21.7073 10.958 21.6357 10.8243 21.5307 10.7194Z" fill="black"/>
</svg>
