<svg width="24" height="24" viewBox="0 0 24 24" fill="none" xmlns="http://www.w3.org/2000/svg">
<path d="M8.03073 13.7194C8.17146 13.8601 8.25052 14.051 8.25052 14.25C8.25052 14.449 8.17146 14.6399 8.03073 14.7806C7.89 14.9214 7.69912 15.0004 7.5001 15.0004C7.30108 15.0004 7.11021 14.9214 6.96948 14.7806L2.46948 10.2806C2.39974 10.211 2.34442 10.1283 2.30668 10.0372C2.26894 9.94617 2.24951 9.84857 2.24951 9.75001C2.24951 9.65145 2.26894 9.55385 2.30668 9.46281C2.34442 9.37176 2.39974 9.28904 2.46948 9.21939L6.96948 4.71939C7.11021 4.57866 7.30108 4.49959 7.5001 4.49959C7.69912 4.49959 7.89 4.57866 8.03073 4.71939C8.17146 4.86012 8.25052 5.05099 8.25052 5.25001C8.25052 5.44903 8.17146 5.63991 8.03073 5.78064L4.06041 9.75001L8.03073 13.7194ZM12.7501 9.02814V5.25001C12.7502 5.10159 12.7063 4.95647 12.6239 4.83302C12.5415 4.70958 12.4243 4.61336 12.2872 4.55654C12.1501 4.49973 11.9992 4.48488 11.8536 4.51386C11.7081 4.54285 11.5744 4.61438 11.4695 4.71939L6.96948 9.21939C6.89974 9.28904 6.84443 9.37176 6.80668 9.46281C6.76894 9.55385 6.74951 9.65145 6.74951 9.75001C6.74951 9.84857 6.76894 9.94617 6.80668 10.0372C6.84443 10.1283 6.89974 10.211 6.96948 10.2806L11.4695 14.7806C11.5744 14.8856 11.7081 14.9572 11.8536 14.9862C11.9992 15.0151 12.1501 15.0003 12.2872 14.9435C12.4243 14.8867 12.5415 14.7904 12.6239 14.667C12.7063 14.5436 12.7502 14.3984 12.7501 14.25V10.5347C14.7988 10.7241 16.7031 11.6712 18.0903 13.1906C19.4774 14.7101 20.2476 16.6926 20.2501 18.75C20.2501 18.9489 20.3291 19.1397 20.4698 19.2803C20.6104 19.421 20.8012 19.5 21.0001 19.5C21.199 19.5 21.3898 19.421 21.5304 19.2803C21.6711 19.1397 21.7501 18.9489 21.7501 18.75C21.747 16.2948 20.8191 13.9309 19.1512 12.1292C17.4833 10.3275 15.1978 9.22026 12.7501 9.02814Z" fill="black"/>
</svg>
