<svg width="24" height="24" viewBox="0 0 24 24" fill="none" xmlns="http://www.w3.org/2000/svg">
<path d="M21.7501 18C21.7501 18.1989 21.6711 18.3897 21.5304 18.5303C21.3898 18.671 21.199 18.75 21.0001 18.75H7.5001C7.30119 18.75 7.11042 18.671 6.96977 18.5303C6.82912 18.3897 6.7501 18.1989 6.7501 18V9.75H3.0001C2.85168 9.75011 2.70656 9.70619 2.58312 9.62379C2.45967 9.54138 2.36345 9.42421 2.30664 9.28709C2.24982 9.14997 2.23497 8.99908 2.26396 8.85351C2.29294 8.70795 2.36447 8.57426 2.46948 8.46937L6.96948 3.96937C7.03913 3.89964 7.12185 3.84432 7.2129 3.80658C7.30395 3.76883 7.40154 3.7494 7.5001 3.7494C7.59866 3.7494 7.69626 3.76883 7.78731 3.80658C7.87836 3.84432 7.96107 3.89964 8.03073 3.96937L12.5307 8.46937C12.6357 8.57426 12.7073 8.70795 12.7362 8.85351C12.7652 8.99908 12.7504 9.14997 12.6936 9.28709C12.6368 9.42421 12.5405 9.54138 12.4171 9.62379C12.2936 9.70619 12.1485 9.75011 12.0001 9.75H8.2501V17.25H21.0001C21.199 17.25 21.3898 17.329 21.5304 17.4697C21.6711 17.6103 21.7501 17.8011 21.7501 18Z" fill="black"/>
</svg>
