<svg width="24" height="24" viewBox="0 0 24 24" fill="none" xmlns="http://www.w3.org/2000/svg">
<path d="M3.96923 8.03062C3.8995 7.96097 3.84418 7.87825 3.80644 7.7872C3.76869 7.69615 3.74927 7.59856 3.74927 7.5C3.74927 7.40143 3.76869 7.30384 3.80644 7.21279C3.84418 7.12174 3.8995 7.03903 3.96923 6.96937L6.96923 3.96937C7.07412 3.86436 7.20781 3.79284 7.35338 3.76385C7.49894 3.73486 7.64983 3.74971 7.78695 3.80653C7.92407 3.86334 8.04124 3.95956 8.12365 4.08301C8.20605 4.20645 8.24997 4.35157 8.24986 4.5V6.75H19.4999C19.6988 6.75 19.8895 6.82901 20.0302 6.96967C20.1708 7.11032 20.2499 7.30108 20.2499 7.5C20.2499 7.69891 20.1708 7.88967 20.0302 8.03033C19.8895 8.17098 19.6988 8.25 19.4999 8.25H8.24986V10.5C8.24997 10.6484 8.20605 10.7935 8.12365 10.917C8.04124 11.0404 7.92407 11.1366 7.78695 11.1935C7.64983 11.2503 7.49894 11.2651 7.35338 11.2361C7.20781 11.2072 7.07412 11.1356 6.96923 11.0306L3.96923 8.03062ZM20.0305 15.9694L17.0305 12.9694C16.9256 12.8644 16.7919 12.7928 16.6463 12.7638C16.5008 12.7349 16.3499 12.7497 16.2128 12.8065C16.0756 12.8633 15.9585 12.9596 15.8761 13.083C15.7937 13.2065 15.7497 13.3516 15.7499 13.5V15.75H4.49986C4.30095 15.75 4.11018 15.829 3.96953 15.9697C3.82888 16.1103 3.74986 16.3011 3.74986 16.5C3.74986 16.6989 3.82888 16.8897 3.96953 17.0303C4.11018 17.171 4.30095 17.25 4.49986 17.25H15.7499V19.5C15.7497 19.6484 15.7937 19.7935 15.8761 19.917C15.9585 20.0404 16.0756 20.1366 16.2128 20.1935C16.3499 20.2503 16.5008 20.2651 16.6463 20.2361C16.7919 20.2072 16.9256 20.1356 17.0305 20.0306L20.0305 17.0306C20.1002 16.961 20.1555 16.8783 20.1933 16.7872C20.231 16.6962 20.2504 16.5986 20.2504 16.5C20.2504 16.4014 20.231 16.3038 20.1933 16.2128C20.1555 16.1217 20.1002 16.039 20.0305 15.9694Z" fill="black"/>
</svg>
