<svg width="24" height="24" viewBox="0 0 24 24" fill="none" xmlns="http://www.w3.org/2000/svg">
<path d="M21.5306 10.2806L17.0306 14.7806C16.9257 14.8856 16.792 14.9572 16.6465 14.9861C16.5009 15.0151 16.35 15.0003 16.2129 14.9435C16.0758 14.8866 15.9586 14.7904 15.8762 14.667C15.7938 14.5435 15.7499 14.3984 15.75 14.25V10.5H12C9.81273 10.5025 7.71575 11.3725 6.16911 12.9191C4.62247 14.4657 3.75248 16.5627 3.75 18.75C3.75 18.9489 3.67098 19.1397 3.53033 19.2803C3.38968 19.421 3.19891 19.5 3 19.5C2.80109 19.5 2.61032 19.421 2.46967 19.2803C2.32902 19.1397 2.25 18.9489 2.25 18.75C2.25273 16.165 3.28084 13.6866 5.10872 11.8587C6.93661 10.0308 9.41498 9.00273 12 9H15.75V5.25C15.7499 5.10157 15.7938 4.95645 15.8762 4.83301C15.9586 4.70956 16.0758 4.61334 16.2129 4.55653C16.35 4.49971 16.5009 4.48486 16.6465 4.51385C16.792 4.54284 16.9257 4.61436 17.0306 4.71937L21.5306 9.21937C21.6004 9.28903 21.6557 9.37174 21.6934 9.46279C21.7312 9.55384 21.7506 9.65143 21.7506 9.75C21.7506 9.84856 21.7312 9.94615 21.6934 10.0372C21.6557 10.1282 21.6004 10.211 21.5306 10.2806Z" fill="black"/>
</svg>
