<svg width="24" height="24" viewBox="0 0 24 24" fill="none" xmlns="http://www.w3.org/2000/svg">
<path d="M21.7501 5.25C21.7474 7.83502 20.7193 10.3134 18.8914 12.1413C17.0635 13.9692 14.5851 14.9973 12.0001 15H8.2501V18.75C8.25022 18.8984 8.2063 19.0435 8.12389 19.167C8.04149 19.2904 7.92431 19.3867 7.78719 19.4435C7.65008 19.5003 7.49919 19.5151 7.35362 19.4861C7.20806 19.4572 7.07437 19.3856 6.96948 19.2806L2.46948 14.7806C2.39974 14.711 2.34442 14.6283 2.30668 14.5372C2.26894 14.4462 2.24951 14.3486 2.24951 14.25C2.24951 14.1514 2.26894 14.0538 2.30668 13.9628C2.34442 13.8717 2.39974 13.789 2.46948 13.7194L6.96948 9.21937C7.07437 9.11437 7.20806 9.04284 7.35362 9.01385C7.49919 8.98487 7.65008 8.99972 7.78719 9.05653C7.92431 9.11335 8.04149 9.20957 8.12389 9.33301C8.2063 9.45646 8.25022 9.60158 8.2501 9.75V13.5H12.0001C14.1874 13.4975 16.2844 12.6275 17.831 11.0809C19.3776 9.53425 20.2476 7.43727 20.2501 5.25C20.2501 5.05109 20.3291 4.86032 20.4698 4.71967C20.6104 4.57902 20.8012 4.5 21.0001 4.5C21.199 4.5 21.3898 4.57902 21.5304 4.71967C21.6711 4.86032 21.7501 5.05109 21.7501 5.25Z" fill="black"/>
</svg>
