<svg width="24" height="24" viewBox="0 0 24 24" fill="none" xmlns="http://www.w3.org/2000/svg">
<path d="M22.5 8.25001V14.25C22.5 14.4489 22.421 14.6397 22.2803 14.7803C22.1397 14.921 21.9489 15 21.75 15H15.75C15.6016 15.0001 15.4565 14.9562 15.333 14.8738C15.2096 14.7914 15.1133 14.6742 15.0565 14.5371C14.9997 14.4 14.9849 14.2491 15.0139 14.1035C15.0428 13.958 15.1144 13.8243 15.2194 13.7194L17.6747 11.265C16.5042 10.1559 15.0344 9.41402 13.4468 9.13123C11.8593 8.84843 10.2237 9.03707 8.74222 9.67383C7.26075 10.3106 5.99835 11.3675 5.11111 12.714C4.22386 14.0605 3.75066 15.6375 3.75 17.25C3.75 17.4489 3.67098 17.6397 3.53033 17.7803C3.38968 17.921 3.19891 18 3 18C2.80109 18 2.61032 17.921 2.46967 17.7803C2.32902 17.6397 2.25 17.4489 2.25 17.25C2.25001 15.3404 2.8108 13.4728 3.86275 11.8791C4.91471 10.2853 6.41151 9.03558 8.16741 8.28494C9.92331 7.53429 11.861 7.3158 13.7399 7.65659C15.6189 7.99737 17.3564 8.88241 18.7369 10.2019L21.2194 7.71939C21.3243 7.61438 21.458 7.54285 21.6035 7.51386C21.7491 7.48488 21.9 7.49973 22.0371 7.55654C22.1742 7.61336 22.2914 7.70958 22.3738 7.83302C22.4562 7.95647 22.5001 8.10159 22.5 8.25001Z" fill="black"/>
</svg>
