<svg width="24" height="24" viewBox="0 0 24 24" fill="none" xmlns="http://www.w3.org/2000/svg">
<path d="M15.6927 18.4631C15.7495 18.6001 15.7645 18.751 15.7356 18.8965C15.7067 19.042 15.6353 19.1757 15.5305 19.2806L12.5305 22.2806C12.4608 22.3504 12.3781 22.4057 12.2871 22.4434C12.196 22.4812 12.0984 22.5006 11.9999 22.5006C11.9013 22.5006 11.8037 22.4812 11.7127 22.4434C11.6216 22.4057 11.5389 22.3504 11.4692 22.2806L8.46923 19.2806C8.36422 19.1757 8.2927 19.042 8.26371 18.8965C8.23472 18.7509 8.24958 18.6 8.30639 18.4629C8.36321 18.3258 8.45943 18.2086 8.58287 18.1262C8.70632 18.0438 8.85144 17.9999 8.99986 18H11.2499V6H8.99986C8.85144 6.00011 8.70632 5.95619 8.58287 5.87379C8.45943 5.79138 8.36321 5.6742 8.30639 5.53709C8.24958 5.39997 8.23472 5.24908 8.26371 5.10351C8.2927 4.95795 8.36422 4.82426 8.46923 4.71937L11.4692 1.71937C11.5389 1.64964 11.6216 1.59432 11.7127 1.55658C11.8037 1.51883 11.9013 1.4994 11.9999 1.4994C12.0984 1.4994 12.196 1.51883 12.2871 1.55658C12.3781 1.59432 12.4608 1.64964 12.5305 1.71937L15.5305 4.71937C15.6355 4.82426 15.707 4.95795 15.736 5.10351C15.765 5.24908 15.7501 5.39997 15.6933 5.53709C15.6365 5.6742 15.5403 5.79138 15.4168 5.87379C15.2934 5.95619 15.1483 6.00011 14.9999 6H12.7499V18H14.9999C15.1482 18 15.2932 18.044 15.4165 18.1265C15.5398 18.2089 15.6359 18.3261 15.6927 18.4631Z" fill="black"/>
</svg>
