<svg width="24" height="24" viewBox="0 0 24 24" fill="none" xmlns="http://www.w3.org/2000/svg">
<path d="M5.25 14.25V5.25C5.25 5.05109 5.32902 4.86032 5.46967 4.71967C5.61032 4.57902 5.80109 4.5 6 4.5H15C15.1484 4.49988 15.2935 4.54381 15.417 4.62621C15.5404 4.70861 15.6367 4.82579 15.6935 4.96291C15.7503 5.10002 15.7651 5.25092 15.7361 5.39648C15.7072 5.54204 15.6356 5.67573 15.5306 5.78063L11.5603 9.75L17.0306 15.2194C17.1003 15.2891 17.1556 15.3718 17.1933 15.4628C17.231 15.5539 17.2504 15.6515 17.2504 15.75C17.2504 15.8485 17.231 15.9461 17.1933 16.0372C17.1556 16.1282 17.1003 16.2109 17.0306 16.2806C16.9609 16.3503 16.8782 16.4056 16.7872 16.4433C16.6961 16.481 16.5985 16.5004 16.5 16.5004C16.4015 16.5004 16.3039 16.481 16.2128 16.4433C16.1218 16.4056 16.0391 16.3503 15.9694 16.2806L10.5 10.8103L6.53063 14.7806C6.42573 14.8856 6.29204 14.9572 6.14648 14.9861C6.00092 15.0151 5.85002 15.0003 5.71291 14.9435C5.57579 14.8867 5.45861 14.7904 5.37621 14.667C5.29381 14.5435 5.24988 14.3984 5.25 14.25ZM20.25 19.5H3.75C3.55109 19.5 3.36032 19.579 3.21967 19.7197C3.07902 19.8603 3 20.0511 3 20.25C3 20.4489 3.07902 20.6397 3.21967 20.7803C3.36032 20.921 3.55109 21 3.75 21H20.25C20.4489 21 20.6397 20.921 20.7803 20.7803C20.921 20.6397 21 20.4489 21 20.25C21 20.0511 20.921 19.8603 20.7803 19.7197C20.6397 19.579 20.4489 19.5 20.25 19.5Z" fill="black"/>
</svg>
