<svg width="24" height="24" viewBox="0 0 24 24" fill="none" xmlns="http://www.w3.org/2000/svg">
<path d="M21.75 17.25C21.75 17.4489 21.671 17.6397 21.5303 17.7803C21.3897 17.921 21.1989 18 21 18C20.8011 18 20.6103 17.921 20.4697 17.7803C20.329 17.6397 20.25 17.4489 20.25 17.25C20.2493 15.6375 19.7761 14.0605 18.8889 12.714C18.0016 11.3675 16.7393 10.3106 15.2578 9.67383C13.7763 9.03707 12.1407 8.84843 10.5532 9.13123C8.96563 9.41402 7.49578 10.1559 6.32531 11.265L8.78063 13.7194C8.88563 13.8243 8.95716 13.958 8.98615 14.1035C9.01513 14.2491 9.00028 14.4 8.94347 14.5371C8.88665 14.6742 8.79043 14.7914 8.66699 14.8738C8.54354 14.9562 8.39842 15.0001 8.25 15H2.25C2.05109 15 1.86032 14.921 1.71967 14.7803C1.57902 14.6397 1.5 14.4489 1.5 14.25V8.25001C1.49988 8.10159 1.54381 7.95647 1.62621 7.83302C1.70861 7.70958 1.82579 7.61336 1.96291 7.55654C2.10002 7.49973 2.25092 7.48488 2.39648 7.51386C2.54204 7.54285 2.67573 7.61438 2.78063 7.71939L5.26313 10.2019C6.64357 8.88241 8.3811 7.99737 10.2601 7.65659C12.139 7.3158 14.0767 7.53429 15.8326 8.28494C17.5885 9.03558 19.0853 10.2853 20.1372 11.8791C21.1892 13.4728 21.75 15.3404 21.75 17.25Z" fill="black"/>
</svg>
