<svg width="24" height="24" viewBox="0 0 24 24" fill="none" xmlns="http://www.w3.org/2000/svg">
<path d="M21.5305 17.7806L18.5305 20.7806C18.4608 20.8504 18.3781 20.9057 18.2871 20.9434C18.196 20.9812 18.0984 21.0006 17.9999 21.0006C17.9013 21.0006 17.8037 20.9812 17.7127 20.9434C17.6216 20.9057 17.5389 20.8504 17.4692 20.7806L14.4692 17.7806C14.3642 17.6757 14.2927 17.542 14.2637 17.3965C14.2347 17.2509 14.2496 17.1 14.3064 16.9629C14.3632 16.8258 14.4594 16.7086 14.5829 16.6262C14.7063 16.5438 14.8514 16.4999 14.9999 16.5H17.2499V13.0603L11.9999 7.81031L6.74986 13.0603V16.5H8.99986C9.14828 16.4999 9.2934 16.5438 9.41685 16.6262C9.54029 16.7086 9.63651 16.8258 9.69333 16.9629C9.75014 17.1 9.76499 17.2509 9.73601 17.3965C9.70702 17.542 9.63549 17.6757 9.53048 17.7806L6.53048 20.7806C6.46083 20.8504 6.37811 20.9057 6.28706 20.9434C6.19602 20.9812 6.09842 21.0006 5.99986 21.0006C5.9013 21.0006 5.8037 20.9812 5.71265 20.9434C5.6216 20.9057 5.53889 20.8504 5.46923 20.7806L2.46923 17.7806C2.36422 17.6757 2.2927 17.542 2.26371 17.3965C2.23472 17.2509 2.24958 17.1 2.30639 16.9629C2.36321 16.8258 2.45943 16.7086 2.58287 16.6262C2.70632 16.5438 2.85144 16.4999 2.99986 16.5H5.24986V12.75C5.24978 12.6515 5.26911 12.5539 5.30676 12.4629C5.3444 12.3718 5.39961 12.2891 5.46923 12.2194L11.2499 6.43969V2.25C11.2499 2.05109 11.3289 1.86032 11.4695 1.71967C11.6102 1.57902 11.8009 1.5 11.9999 1.5C12.1988 1.5 12.3895 1.57902 12.5302 1.71967C12.6708 1.86032 12.7499 2.05109 12.7499 2.25V6.43969L18.5305 12.2194C18.6001 12.2891 18.6553 12.3718 18.693 12.4629C18.7306 12.5539 18.7499 12.6515 18.7499 12.75V16.5H20.9999C21.1483 16.4999 21.2934 16.5438 21.4168 16.6262C21.5403 16.7086 21.6365 16.8258 21.6933 16.9629C21.7501 17.1 21.765 17.2509 21.736 17.3965C21.707 17.542 21.6355 17.6757 21.5305 17.7806Z" fill="black"/>
</svg>
