<svg width="24" height="24" viewBox="0 0 24 24" fill="none" xmlns="http://www.w3.org/2000/svg">
<path d="M19.4429 10.7869C19.3862 10.9239 19.2901 11.0411 19.1668 11.1235C19.0434 11.2059 18.8984 11.25 18.7501 11.25H12.7501V20.25C12.7501 20.4489 12.6711 20.6397 12.5304 20.7803C12.3898 20.921 12.199 21 12.0001 21C11.8012 21 11.6104 20.921 11.4698 20.7803C11.3291 20.6397 11.2501 20.4489 11.2501 20.25V11.25H5.2501C5.10168 11.2501 4.95656 11.2062 4.83312 11.1238C4.70967 11.0414 4.61345 10.9242 4.55664 10.7871C4.49982 10.65 4.48497 10.4991 4.51396 10.3535C4.54294 10.208 4.61447 10.0743 4.71948 9.96937L11.4695 3.21937C11.5391 3.14964 11.6218 3.09432 11.7129 3.05658C11.8039 3.01883 11.9015 2.9994 12.0001 2.9994C12.0987 2.9994 12.1963 3.01883 12.2873 3.05658C12.3784 3.09432 12.4611 3.14964 12.5307 3.21937L19.2807 9.96937C19.3856 10.0743 19.457 10.208 19.4858 10.3535C19.5147 10.499 19.4998 10.6498 19.4429 10.7869Z" fill="black"/>
</svg>
