<svg width="24" height="24" viewBox="0 0 24 24" fill="none" xmlns="http://www.w3.org/2000/svg">
<path d="M22.5 5.24998V9.74998C22.5 9.94889 22.421 10.1397 22.2803 10.2803C22.1397 10.421 21.9489 10.5 21.75 10.5H17.25C17.1016 10.5001 16.9565 10.4562 16.833 10.3738C16.7096 10.2914 16.6134 10.1742 16.5565 10.0371C16.4997 9.89996 16.4849 9.74906 16.5139 9.6035C16.5428 9.45794 16.6144 9.32425 16.7194 9.21936L18.3131 7.62561L17.3241 6.72092L17.3006 6.69842C16.2582 5.65638 14.9318 4.9446 13.4872 4.65199C12.0426 4.35939 10.5438 4.49894 9.17803 5.0532C7.81227 5.60746 6.6401 6.55187 5.80795 7.76845C4.9758 8.98502 4.52057 10.4198 4.49913 11.8936C4.47769 13.3674 4.89098 14.8148 5.68738 16.0551C6.48378 17.2954 7.62798 18.2735 8.97704 18.8673C10.3261 19.461 11.8202 19.6441 13.2727 19.3937C14.7252 19.1432 16.0718 18.4703 17.1441 17.459C17.2157 17.3913 17.2999 17.3384 17.3919 17.3032C17.484 17.2681 17.5821 17.2514 17.6806 17.2541C17.7791 17.2569 17.8761 17.279 17.966 17.3192C18.056 17.3594 18.1371 17.417 18.2049 17.4886C18.2726 17.5602 18.3255 17.6444 18.3607 17.7364C18.3958 17.8285 18.4125 17.9266 18.4098 18.0251C18.407 18.1236 18.3849 18.2206 18.3447 18.3105C18.3045 18.4005 18.2469 18.4816 18.1753 18.5494C16.5077 20.1285 14.2967 21.0059 12 21H11.8763C10.4023 20.9798 8.95579 20.5978 7.66397 19.8877C6.37216 19.1776 5.27455 18.161 4.46762 16.9273C3.6607 15.6937 3.16915 14.2807 3.0362 12.8126C2.90324 11.3444 3.13294 9.86613 3.70511 8.50757C4.27728 7.149 5.1744 5.95178 6.31762 5.02113C7.46085 4.09048 8.81517 3.45489 10.2616 3.17022C11.7079 2.88556 13.2021 2.96054 14.6127 3.38856C16.0234 3.81659 17.3073 4.58456 18.3516 5.62498L19.3763 6.56248L21.2194 4.71561C21.3245 4.61037 21.4585 4.53876 21.6045 4.50989C21.7504 4.48102 21.9016 4.49619 22.0388 4.55347C22.1761 4.61075 22.2933 4.70756 22.3754 4.83158C22.4575 4.9556 22.5009 5.10124 22.5 5.24998Z" fill="black"/>
</svg>
