<svg width="24" height="24" viewBox="0 0 24 24" fill="none" xmlns="http://www.w3.org/2000/svg">
<path d="M18.7499 8.25001V18C18.7499 18.1989 18.6709 18.3897 18.5303 18.5303C18.3896 18.671 18.1988 18.75 17.9999 18.75H8.24993C8.10151 18.7501 7.95639 18.7062 7.83294 18.6238C7.7095 18.5414 7.61328 18.4242 7.55646 18.2871C7.49965 18.15 7.48479 17.9991 7.51378 17.8535C7.54277 17.708 7.6143 17.5743 7.7193 17.4694L12.0646 13.125L5.4693 6.53063C5.32857 6.3899 5.24951 6.19903 5.24951 6.00001C5.24951 5.80098 5.32857 5.61011 5.4693 5.46938C5.61003 5.32865 5.80091 5.24959 5.99993 5.24959C6.19895 5.24959 6.38982 5.32865 6.53055 5.46938L13.1249 12.0647L17.4693 7.71938C17.5742 7.61437 17.7079 7.54285 17.8534 7.51386C17.999 7.48487 18.1499 7.49972 18.287 7.55654C18.4241 7.61335 18.5413 7.70957 18.6237 7.83302C18.7061 7.95646 18.75 8.10158 18.7499 8.25001Z" fill="black"/>
</svg>
