<svg width="24" height="24" viewBox="0 0 24 24" fill="none" xmlns="http://www.w3.org/2000/svg">
<path d="M21.6928 9.28687C21.6361 9.42392 21.54 9.54108 21.4166 9.62351C21.2933 9.70595 21.1483 9.74996 21 9.75H17.25V18C17.25 18.1989 17.171 18.3897 17.0303 18.5303C16.8897 18.671 16.6989 18.75 16.5 18.75H3C2.80109 18.75 2.61032 18.671 2.46967 18.5303C2.32902 18.3897 2.25 18.1989 2.25 18C2.25 17.8011 2.32902 17.6103 2.46967 17.4697C2.61032 17.329 2.80109 17.25 3 17.25H15.75V9.75H12C11.8516 9.75011 11.7065 9.70619 11.583 9.62379C11.4596 9.54138 11.3633 9.42421 11.3065 9.28709C11.2497 9.14997 11.2349 8.99908 11.2639 8.85351C11.2928 8.70795 11.3644 8.57426 11.4694 8.46937L15.9694 3.96937C16.039 3.89964 16.1217 3.84432 16.2128 3.80658C16.3038 3.76883 16.4014 3.7494 16.5 3.7494C16.5986 3.7494 16.6962 3.76883 16.7872 3.80658C16.8783 3.84432 16.961 3.89964 17.0306 3.96937L21.5306 8.46937C21.6355 8.57432 21.7069 8.708 21.7357 8.85352C21.7646 8.99903 21.7497 9.14984 21.6928 9.28687Z" fill="black"/>
</svg>
