<svg width="24" height="24" viewBox="0 0 24 24" fill="none" xmlns="http://www.w3.org/2000/svg">
<path d="M11.9999 12.75V18.75C12 18.8984 11.9561 19.0435 11.8737 19.167C11.7913 19.2904 11.6741 19.3867 11.537 19.4435C11.3999 19.5003 11.249 19.5151 11.1034 19.4861C10.9579 19.4572 10.8242 19.3856 10.7193 19.2806L8.24993 16.8103L4.28055 20.7806C4.21087 20.8503 4.12815 20.9056 4.0371 20.9433C3.94606 20.981 3.84847 21.0004 3.74993 21.0004C3.65138 21.0004 3.5538 20.981 3.46276 20.9433C3.37171 20.9056 3.28899 20.8503 3.2193 20.7806C3.14962 20.7109 3.09435 20.6282 3.05663 20.5372C3.01892 20.4461 2.99951 20.3485 2.99951 20.25C2.99951 20.1515 3.01892 20.0539 3.05663 19.9628C3.09435 19.8718 3.14962 19.7891 3.2193 19.7194L7.18962 15.75L4.7193 13.2806C4.6143 13.1757 4.54277 13.042 4.51378 12.8965C4.48479 12.7509 4.49965 12.6 4.55646 12.4629C4.61328 12.3258 4.7095 12.2086 4.83294 12.1262C4.95639 12.0438 5.10151 11.9999 5.24993 12H11.2499C11.4488 12 11.6396 12.079 11.7803 12.2197C11.9209 12.3603 11.9999 12.5511 11.9999 12.75ZM19.4999 3H7.49993C7.1021 3 6.72057 3.15804 6.43927 3.43934C6.15796 3.72064 5.99993 4.10218 5.99993 4.5V9C5.99993 9.19891 6.07895 9.38968 6.2196 9.53033C6.36025 9.67098 6.55102 9.75 6.74993 9.75C6.94884 9.75 7.13961 9.67098 7.28026 9.53033C7.42091 9.38968 7.49993 9.19891 7.49993 9V4.5H19.4999V16.5H14.9999C14.801 16.5 14.6103 16.579 14.4696 16.7197C14.3289 16.8603 14.2499 17.0511 14.2499 17.25C14.2499 17.4489 14.3289 17.6397 14.4696 17.7803C14.6103 17.921 14.801 18 14.9999 18H19.4999C19.8978 18 20.2793 17.842 20.5606 17.5607C20.8419 17.2794 20.9999 16.8978 20.9999 16.5V4.5C20.9999 4.10218 20.8419 3.72064 20.5606 3.43934C20.2793 3.15804 19.8978 3 19.4999 3Z" fill="black"/>
</svg>
