<svg width="24" height="24" viewBox="0 0 24 24" fill="none" xmlns="http://www.w3.org/2000/svg">
<path d="M4.5 7.5V16.5C4.5 16.6989 4.42098 16.8897 4.28033 17.0303C4.13968 17.171 3.94891 17.25 3.75 17.25C3.55109 17.25 3.36032 17.171 3.21967 17.0303C3.07902 16.8897 3 16.6989 3 16.5V7.5C3 7.30108 3.07902 7.11032 3.21967 6.96967C3.36032 6.82901 3.55109 6.75 3.75 6.75C3.94891 6.75 4.13968 6.82901 4.28033 6.96967C4.42098 7.11032 4.5 7.30108 4.5 7.5ZM22.2806 11.4694L13.2806 2.46937C13.1757 2.36436 13.042 2.29284 12.8965 2.26385C12.7509 2.23486 12.6 2.24971 12.4629 2.30653C12.3258 2.36334 12.2086 2.45956 12.1262 2.58301C12.0438 2.70645 11.9999 2.85157 12 3V6.75H6.75C6.55109 6.75 6.36032 6.82901 6.21967 6.96967C6.07902 7.11032 6 7.30108 6 7.5V16.5C6 16.6989 6.07902 16.8897 6.21967 17.0303C6.36032 17.171 6.55109 17.25 6.75 17.25H12V21C11.9999 21.1484 12.0438 21.2935 12.1262 21.417C12.2086 21.5404 12.3258 21.6366 12.4629 21.6935C12.6 21.7503 12.7509 21.7651 12.8965 21.7361C13.042 21.7072 13.1757 21.6356 13.2806 21.5306L22.2806 12.5306C22.3504 12.461 22.4057 12.3783 22.4434 12.2872C22.4812 12.1962 22.5006 12.0986 22.5006 12C22.5006 11.9014 22.4812 11.8038 22.4434 11.7128C22.4057 11.6217 22.3504 11.539 22.2806 11.4694Z" fill="black"/>
</svg>
