<svg width="24" height="24" viewBox="0 0 24 24" fill="none" xmlns="http://www.w3.org/2000/svg">
<path d="M8.99986 12.75H5.99986V15C5.99997 15.1484 5.95605 15.2935 5.87365 15.417C5.79124 15.5404 5.67407 15.6366 5.53695 15.6935C5.39983 15.7503 5.24894 15.7651 5.10338 15.7361C4.95781 15.7072 4.82412 15.6356 4.71923 15.5306L1.71923 12.5306C1.6495 12.461 1.59418 12.3782 1.55644 12.2872C1.51869 12.1962 1.49927 12.0986 1.49927 12C1.49927 11.9014 1.51869 11.8038 1.55644 11.7128C1.59418 11.6217 1.6495 11.539 1.71923 11.4694L4.71923 8.46937C4.82412 8.36436 4.95781 8.29284 5.10338 8.26385C5.24894 8.23486 5.39983 8.24971 5.53695 8.30653C5.67407 8.36334 5.79124 8.45956 5.87365 8.58301C5.95605 8.70645 5.99997 8.85157 5.99986 9V11.25H8.99986C9.19877 11.25 9.38954 11.329 9.53019 11.4697C9.67084 11.6103 9.74986 11.8011 9.74986 12C9.74986 12.1989 9.67084 12.3897 9.53019 12.5303C9.38954 12.671 9.19877 12.75 8.99986 12.75ZM8.99986 6H11.2499V9C11.2499 9.19891 11.3289 9.38967 11.4695 9.53032C11.6102 9.67098 11.8009 9.75 11.9999 9.75C12.1988 9.75 12.3895 9.67098 12.5302 9.53032C12.6708 9.38967 12.7499 9.19891 12.7499 9V6H14.9999C15.1483 6.00011 15.2934 5.95619 15.4168 5.87379C15.5403 5.79138 15.6365 5.6742 15.6933 5.53709C15.7501 5.39997 15.765 5.24908 15.736 5.10351C15.707 4.95795 15.6355 4.82426 15.5305 4.71937L12.5305 1.71937C12.4608 1.64964 12.3781 1.59432 12.2871 1.55658C12.196 1.51883 12.0984 1.4994 11.9999 1.4994C11.9013 1.4994 11.8037 1.51883 11.7127 1.55658C11.6216 1.59432 11.5389 1.64964 11.4692 1.71937L8.46923 4.71937C8.36422 4.82426 8.2927 4.95795 8.26371 5.10351C8.23472 5.24908 8.24958 5.39997 8.30639 5.53709C8.3632 5.6742 8.45943 5.79138 8.58287 5.87379C8.70632 5.95619 8.85144 6.00011 8.99986 6ZM22.2805 11.4694L19.2805 8.46937C19.1756 8.36436 19.0419 8.29284 18.8963 8.26385C18.7508 8.23486 18.5999 8.24971 18.4628 8.30653C18.3256 8.36334 18.2085 8.45956 18.1261 8.58301C18.0437 8.70645 17.9997 8.85157 17.9999 9V11.25H14.9999C14.8009 11.25 14.6102 11.329 14.4695 11.4697C14.3289 11.6103 14.2499 11.8011 14.2499 12C14.2499 12.1989 14.3289 12.3897 14.4695 12.5303C14.6102 12.671 14.8009 12.75 14.9999 12.75H17.9999V15C17.9997 15.1484 18.0437 15.2935 18.1261 15.417C18.2085 15.5404 18.3256 15.6366 18.4628 15.6935C18.5999 15.7503 18.7508 15.7651 18.8963 15.7361C19.0419 15.7072 19.1756 15.6356 19.2805 15.5306L22.2805 12.5306C22.3502 12.461 22.4055 12.3782 22.4433 12.2872C22.481 12.1962 22.5004 12.0986 22.5004 12C22.5004 11.9014 22.481 11.8038 22.4433 11.7128C22.4055 11.6217 22.3502 11.539 22.2805 11.4694ZM14.9999 18H12.7499V15C12.7499 14.8011 12.6708 14.6103 12.5302 14.4697C12.3895 14.329 12.1988 14.25 11.9999 14.25C11.8009 14.25 11.6102 14.329 11.4695 14.4697C11.3289 14.6103 11.2499 14.8011 11.2499 15V18H8.99986C8.85144 17.9999 8.70632 18.0438 8.58287 18.1262C8.45943 18.2086 8.3632 18.3258 8.30639 18.4629C8.24958 18.6 8.23472 18.7509 8.26371 18.8965C8.2927 19.042 8.36422 19.1757 8.46923 19.2806L11.4692 22.2806C11.5389 22.3504 11.6216 22.4057 11.7127 22.4434C11.8037 22.4812 11.9013 22.5006 11.9999 22.5006C12.0984 22.5006 12.196 22.4812 12.2871 22.4434C12.3781 22.4057 12.4608 22.3504 12.5305 22.2806L15.5305 19.2806C15.6355 19.1757 15.707 19.042 15.736 18.8965C15.765 18.7509 15.7501 18.6 15.6933 18.4629C15.6365 18.3258 15.5403 18.2086 15.4168 18.1262C15.2934 18.0438 15.1483 17.9999 14.9999 18Z" fill="black"/>
</svg>
