<svg width="24" height="24" viewBox="0 0 24 24" fill="none" xmlns="http://www.w3.org/2000/svg">
<path d="M13.4999 9.75V6.00001C13.4998 5.85158 13.5437 5.70646 13.6261 5.58302C13.7085 5.45957 13.8257 5.36335 13.9628 5.30654C14.1 5.24972 14.2508 5.23487 14.3964 5.26386C14.542 5.29285 14.6757 5.36437 14.7806 5.46938L16.1249 6.81469L18.9693 3.96938C19.11 3.82865 19.3009 3.74959 19.4999 3.74959C19.699 3.74959 19.8898 3.82865 20.0306 3.96938C20.1713 4.11011 20.2503 4.30098 20.2503 4.50001C20.2503 4.69903 20.1713 4.8899 20.0306 5.03063L17.1852 7.875L18.5306 9.21938C18.6356 9.32427 18.7071 9.45796 18.7361 9.60353C18.7651 9.74909 18.7502 9.89998 18.6934 10.0371C18.6366 10.1742 18.5404 10.2914 18.4169 10.3738C18.2935 10.4562 18.1484 10.5001 17.9999 10.5H14.2499C14.051 10.5 13.8603 10.421 13.7196 10.2803C13.5789 10.1397 13.4999 9.94892 13.4999 9.75ZM9.74993 13.5H5.99993C5.85151 13.4999 5.70639 13.5438 5.58294 13.6262C5.4595 13.7086 5.36328 13.8258 5.30646 13.9629C5.24965 14.1 5.23479 14.2509 5.26378 14.3965C5.29277 14.542 5.3643 14.6757 5.4693 14.7806L6.81462 16.125L3.9693 18.9694C3.82857 19.1101 3.74951 19.301 3.74951 19.5C3.74951 19.699 3.82857 19.8899 3.9693 20.0306C4.11003 20.1714 4.30091 20.2504 4.49993 20.2504C4.69895 20.2504 4.88982 20.1714 5.03055 20.0306L7.87493 17.1853L9.2193 18.5306C9.32419 18.6356 9.45789 18.7072 9.60345 18.7362C9.74901 18.7651 9.8999 18.7503 10.037 18.6935C10.1741 18.6367 10.2913 18.5404 10.3737 18.417C10.4561 18.2935 10.5 18.1484 10.4999 18V14.25C10.4999 14.0511 10.4209 13.8603 10.2803 13.7197C10.1396 13.579 9.94884 13.5 9.74993 13.5ZM10.0368 5.30719C9.89978 5.25034 9.74897 5.23541 9.60345 5.26428C9.45794 5.29315 9.32425 5.36453 9.2193 5.46938L7.87493 6.81469L5.03055 3.96938C4.88982 3.82865 4.69895 3.74959 4.49993 3.74959C4.30091 3.74959 4.11003 3.82865 3.9693 3.96938C3.82857 4.11011 3.74951 4.30098 3.74951 4.50001C3.74951 4.69903 3.82857 4.8899 3.9693 5.03063L6.81462 7.875L5.4693 9.21938C5.3643 9.32427 5.29277 9.45796 5.26378 9.60353C5.23479 9.74909 5.24965 9.89998 5.30646 10.0371C5.36328 10.1742 5.4595 10.2914 5.58294 10.3738C5.70639 10.4562 5.85151 10.5001 5.99993 10.5H9.74993C9.94884 10.5 10.1396 10.421 10.2803 10.2803C10.4209 10.1397 10.4999 9.94892 10.4999 9.75V6.00001C10.4999 5.85167 10.4559 5.70667 10.3734 5.58336C10.291 5.46004 10.1739 5.36393 10.0368 5.30719ZM17.1852 16.125L18.5306 14.7806C18.6356 14.6757 18.7071 14.542 18.7361 14.3965C18.7651 14.2509 18.7502 14.1 18.6934 13.9629C18.6366 13.8258 18.5404 13.7086 18.4169 13.6262C18.2935 13.5438 18.1484 13.4999 17.9999 13.5H14.2499C14.051 13.5 13.8603 13.579 13.7196 13.7197C13.5789 13.8603 13.4999 14.0511 13.4999 14.25V18C13.4998 18.1484 13.5437 18.2935 13.6261 18.417C13.7085 18.5404 13.8257 18.6367 13.9628 18.6935C14.1 18.7503 14.2508 18.7651 14.3964 18.7362C14.542 18.7072 14.6757 18.6356 14.7806 18.5306L16.1249 17.1853L18.9693 20.0306C19.039 20.1003 19.1217 20.1556 19.2128 20.1933C19.3038 20.231 19.4014 20.2504 19.4999 20.2504C19.5985 20.2504 19.6961 20.231 19.7871 20.1933C19.8781 20.1556 19.9609 20.1003 20.0306 20.0306C20.1002 19.9609 20.1555 19.8782 20.1932 19.7872C20.2309 19.6961 20.2503 19.5986 20.2503 19.5C20.2503 19.4015 20.2309 19.3039 20.1932 19.2128C20.1555 19.1218 20.1002 19.0391 20.0306 18.9694L17.1852 16.125Z" fill="black"/>
</svg>
