<svg width="24" height="24" viewBox="0 0 24 24" fill="none" xmlns="http://www.w3.org/2000/svg">
<path d="M6.7501 3.75C6.7501 3.55109 6.82912 3.36032 6.96977 3.21967C7.11043 3.07902 7.30119 3 7.5001 3H16.5001C16.699 3 16.8898 3.07902 17.0304 3.21967C17.1711 3.36032 17.2501 3.55109 17.2501 3.75C17.2501 3.94891 17.1711 4.13968 17.0304 4.28033C16.8898 4.42098 16.699 4.5 16.5001 4.5H7.5001C7.30119 4.5 7.11043 4.42098 6.96977 4.28033C6.82912 4.13968 6.7501 3.94891 6.7501 3.75ZM21.6929 12.4631C21.6362 12.3261 21.5401 12.2089 21.4168 12.1265C21.2934 12.044 21.1484 12 21.0001 12H17.2501V9.75C17.2501 9.55109 17.1711 9.36032 17.0304 9.21967C16.8898 9.07902 16.699 9 16.5001 9H7.5001C7.30119 9 7.11043 9.07902 6.96977 9.21967C6.82912 9.36032 6.7501 9.55109 6.7501 9.75V12H3.0001C2.85168 11.9999 2.70656 12.0438 2.58312 12.1262C2.45967 12.2086 2.36345 12.3258 2.30664 12.4629C2.24982 12.6 2.23497 12.7509 2.26396 12.8965C2.29294 13.042 2.36447 13.1757 2.46948 13.2806L11.4695 22.2806C11.5391 22.3504 11.6218 22.4057 11.7129 22.4434C11.8039 22.4812 11.9015 22.5006 12.0001 22.5006C12.0987 22.5006 12.1963 22.4812 12.2873 22.4434C12.3784 22.4057 12.4611 22.3504 12.5307 22.2806L21.5307 13.2806C21.6356 13.1757 21.707 13.042 21.7358 12.8965C21.7647 12.751 21.7498 12.6002 21.6929 12.4631ZM7.5001 7.5H16.5001C16.699 7.5 16.8898 7.42098 17.0304 7.28033C17.1711 7.13968 17.2501 6.94891 17.2501 6.75C17.2501 6.55109 17.1711 6.36032 17.0304 6.21967C16.8898 6.07902 16.699 6 16.5001 6H7.5001C7.30119 6 7.11043 6.07902 6.96977 6.21967C6.82912 6.36032 6.7501 6.55109 6.7501 6.75C6.7501 6.94891 6.82912 7.13968 6.96977 7.28033C7.11043 7.42098 7.30119 7.5 7.5001 7.5Z" fill="black"/>
</svg>
