<svg width="24" height="24" viewBox="0 0 24 24" fill="none" xmlns="http://www.w3.org/2000/svg">
<path d="M11.2499 13.5V18C11.25 18.1484 11.2061 18.2935 11.1237 18.417C11.0413 18.5404 10.9241 18.6366 10.787 18.6935C10.6499 18.7503 10.499 18.7651 10.3534 18.7361C10.2079 18.7072 10.0742 18.6356 9.9693 18.5306L8.24993 16.8103L5.03055 20.0306C4.88982 20.1714 4.69895 20.2504 4.49993 20.2504C4.30091 20.2504 4.11003 20.1714 3.9693 20.0306C3.82857 19.8899 3.74951 19.699 3.74951 19.5C3.74951 19.301 3.82857 19.1101 3.9693 18.9694L7.18962 15.75L5.4693 14.0306C5.3643 13.9257 5.29277 13.792 5.26378 13.6465C5.23479 13.5009 5.24965 13.35 5.30646 13.2129C5.36328 13.0758 5.4595 12.9586 5.58294 12.8762C5.70639 12.7938 5.85151 12.7499 5.99993 12.75H10.4999C10.6988 12.75 10.8896 12.829 11.0303 12.9697C11.1709 13.1103 11.2499 13.3011 11.2499 13.5ZM20.0306 3.96937C19.9609 3.89964 19.8782 3.84432 19.7871 3.80658C19.6961 3.76883 19.5985 3.7494 19.4999 3.7494C19.4014 3.7494 19.3038 3.76883 19.2127 3.80658C19.1217 3.84432 19.039 3.89964 18.9693 3.96937L15.7499 7.18968L14.0306 5.46937C13.9257 5.36436 13.792 5.29284 13.6464 5.26385C13.5008 5.23486 13.35 5.24971 13.2128 5.30653C13.0757 5.36334 12.9585 5.45956 12.8761 5.58301C12.7937 5.70645 12.7498 5.85157 12.7499 5.99999V10.5C12.7499 10.6989 12.8289 10.8897 12.9696 11.0303C13.1103 11.171 13.301 11.25 13.4999 11.25H17.9999C18.1484 11.2501 18.2935 11.2062 18.4169 11.1238C18.5404 11.0414 18.6366 10.9242 18.6934 10.7871C18.7502 10.65 18.7651 10.4991 18.7361 10.3535C18.7071 10.208 18.6356 10.0743 18.5306 9.96937L16.8102 8.25L20.0306 5.03062C20.1003 4.96097 20.1556 4.87825 20.1933 4.7872C20.2311 4.69615 20.2505 4.59856 20.2505 4.49999C20.2505 4.40143 20.2311 4.30384 20.1933 4.21279C20.1556 4.12174 20.1003 4.03902 20.0306 3.96937Z" fill="black"/>
</svg>
