<svg width="24" height="24" viewBox="0 0 24 24" fill="none" xmlns="http://www.w3.org/2000/svg">
<path d="M21.7501 18.75C21.7501 18.9489 21.6711 19.1397 21.5304 19.2803C21.3898 19.421 21.199 19.5 21.0001 19.5C20.8012 19.5 20.6104 19.421 20.4698 19.2803C20.3291 19.1397 20.2501 18.9489 20.2501 18.75C20.2476 16.5627 19.3776 14.4657 17.831 12.9191C16.2844 11.3725 14.1874 10.5025 12.0001 10.5H8.2501V14.25C8.25022 14.3984 8.2063 14.5435 8.12389 14.667C8.04149 14.7904 7.92431 14.8866 7.78719 14.9435C7.65008 15.0003 7.49919 15.0151 7.35362 14.9861C7.20806 14.9572 7.07437 14.8856 6.96948 14.7806L2.46948 10.2806C2.39974 10.211 2.34442 10.1282 2.30668 10.0372C2.26894 9.94615 2.24951 9.84856 2.24951 9.75C2.24951 9.65143 2.26894 9.55384 2.30668 9.46279C2.34442 9.37174 2.39974 9.28903 2.46948 9.21937L6.96948 4.71937C7.07437 4.61436 7.20806 4.54284 7.35362 4.51385C7.49919 4.48486 7.65008 4.49971 7.78719 4.55653C7.92431 4.61334 8.04149 4.70956 8.12389 4.83301C8.2063 4.95645 8.25022 5.10157 8.2501 5.25V9H12.0001C14.5851 9.00273 17.0635 10.0308 18.8914 11.8587C20.7193 13.6866 21.7474 16.165 21.7501 18.75Z" fill="black"/>
</svg>
