<svg width="24" height="24" viewBox="0 0 24 24" fill="none" xmlns="http://www.w3.org/2000/svg">
<path d="M21.0001 12C21.0001 12.1989 20.9211 12.3897 20.7804 12.5303C20.6398 12.671 20.449 12.75 20.2501 12.75H11.2501V18.75C11.2502 18.8984 11.2063 19.0435 11.1239 19.167C11.0415 19.2904 10.9243 19.3866 10.7872 19.4435C10.6501 19.5003 10.4992 19.5151 10.3536 19.4861C10.2081 19.4572 10.0744 19.3856 9.96948 19.2806L3.21948 12.5306C3.14974 12.461 3.09443 12.3782 3.05668 12.2872C3.01894 12.1962 2.99951 12.0986 2.99951 12C2.99951 11.9014 3.01894 11.8038 3.05668 11.7128C3.09443 11.6217 3.14974 11.539 3.21948 11.4694L9.96948 4.71937C10.0744 4.61436 10.2081 4.54284 10.3536 4.51385C10.4992 4.48486 10.6501 4.49971 10.7872 4.55653C10.9243 4.61334 11.0415 4.70956 11.1239 4.83301C11.2063 4.95645 11.2502 5.10157 11.2501 5.25V11.25H20.2501C20.449 11.25 20.6398 11.329 20.7804 11.4697C20.9211 11.6103 21.0001 11.8011 21.0001 12Z" fill="black"/>
</svg>
