<svg width="24" height="24" viewBox="0 0 24 24" fill="none" xmlns="http://www.w3.org/2000/svg">
<path d="M21.7501 6C21.7501 6.19891 21.6711 6.38968 21.5304 6.53033C21.3898 6.67098 21.199 6.75 21.0001 6.75H8.2501V14.25H12.0001C12.1485 14.2499 12.2936 14.2938 12.4171 14.3762C12.5405 14.4586 12.6368 14.5758 12.6936 14.7129C12.7504 14.85 12.7652 15.0009 12.7362 15.1465C12.7073 15.292 12.6357 15.4257 12.5307 15.5306L8.03073 20.0306C7.96107 20.1004 7.87836 20.1557 7.78731 20.1934C7.69626 20.2312 7.59866 20.2506 7.5001 20.2506C7.40154 20.2506 7.30395 20.2312 7.2129 20.1934C7.12185 20.1557 7.03913 20.1004 6.96948 20.0306L2.46948 15.5306C2.36447 15.4257 2.29294 15.292 2.26396 15.1465C2.23497 15.0009 2.24982 14.85 2.30664 14.7129C2.36345 14.5758 2.45967 14.4586 2.58312 14.3762C2.70656 14.2938 2.85168 14.2499 3.0001 14.25H6.7501V6C6.7501 5.80109 6.82912 5.61032 6.96977 5.46967C7.11042 5.32902 7.30119 5.25 7.5001 5.25H21.0001C21.199 5.25 21.3898 5.32902 21.5304 5.46967C21.6711 5.61032 21.7501 5.80109 21.7501 6Z" fill="black"/>
</svg>
