<svg width="24" height="24" viewBox="0 0 24 24" fill="none" xmlns="http://www.w3.org/2000/svg">
<path d="M15.75 12.75V9H8.25C7.05653 9 5.91193 9.4741 5.06802 10.318C4.22411 11.1619 3.75 12.3065 3.75 13.5C3.75 14.6935 4.22411 15.8381 5.06802 16.682C5.91193 17.5259 7.05653 18 8.25 18H16.5C16.6989 18 16.8897 18.079 17.0303 18.2197C17.171 18.3603 17.25 18.5511 17.25 18.75C17.25 18.9489 17.171 19.1397 17.0303 19.2803C16.8897 19.421 16.6989 19.5 16.5 19.5H8.25C6.6587 19.5 5.13258 18.8679 4.00736 17.7426C2.88214 16.6174 2.25 15.0913 2.25 13.5C2.25 11.9087 2.88214 10.3826 4.00736 9.25735C5.13258 8.13214 6.6587 7.5 8.25 7.5H15.75V3.75C15.7499 3.60157 15.7938 3.45645 15.8762 3.33301C15.9586 3.20956 16.0758 3.11334 16.2129 3.05653C16.35 2.99971 16.5009 2.98486 16.6465 3.01385C16.792 3.04284 16.9257 3.11436 17.0306 3.21937L21.5306 7.71937C21.6004 7.78903 21.6557 7.87174 21.6934 7.96279C21.7312 8.05384 21.7506 8.15143 21.7506 8.25C21.7506 8.34856 21.7312 8.44615 21.6934 8.5372C21.6557 8.62825 21.6004 8.71097 21.5306 8.78062L17.0306 13.2806C16.9257 13.3856 16.792 13.4572 16.6465 13.4861C16.5009 13.5151 16.35 13.5003 16.2129 13.4435C16.0758 13.3866 15.9586 13.2904 15.8762 13.167C15.7938 13.0435 15.7499 12.8984 15.75 12.75Z" fill="black"/>
</svg>
