<svg width="24" height="24" viewBox="0 0 24 24" fill="none" xmlns="http://www.w3.org/2000/svg">
<path d="M11.1929 16.2131C11.2498 16.3501 11.2647 16.501 11.2358 16.6465C11.207 16.792 11.1356 16.9257 11.0307 17.0306L8.03073 20.0306C7.96107 20.1004 7.87836 20.1557 7.78731 20.1934C7.69626 20.2312 7.59866 20.2506 7.5001 20.2506C7.40154 20.2506 7.30395 20.2312 7.2129 20.1934C7.12185 20.1557 7.03913 20.1004 6.96948 20.0306L3.96948 17.0306C3.86447 16.9257 3.79294 16.792 3.76396 16.6465C3.73497 16.5009 3.74982 16.35 3.80664 16.2129C3.86345 16.0758 3.95967 15.9586 4.08312 15.8762C4.20656 15.7938 4.35168 15.7499 4.5001 15.75H6.7501V4.49999C6.7501 4.30108 6.82912 4.11032 6.96977 3.96967C7.11043 3.82901 7.30119 3.74999 7.5001 3.74999C7.69902 3.74999 7.88978 3.82901 8.03043 3.96967C8.17108 4.11032 8.2501 4.30108 8.2501 4.49999V15.75H10.5001C10.6484 15.75 10.7934 15.794 10.9168 15.8765C11.0401 15.9589 11.1362 16.0761 11.1929 16.2131ZM20.0307 6.96937L17.0307 3.96937C16.9611 3.89964 16.8784 3.84432 16.7873 3.80658C16.6963 3.76883 16.5987 3.7494 16.5001 3.7494C16.4015 3.7494 16.3039 3.76883 16.2129 3.80658C16.1219 3.84432 16.0391 3.89964 15.9695 3.96937L12.9695 6.96937C12.8645 7.07426 12.7929 7.20795 12.764 7.35351C12.735 7.49908 12.7498 7.64997 12.8066 7.78709C12.8635 7.92421 12.9597 8.04138 13.0831 8.12379C13.2066 8.20619 13.3517 8.25011 13.5001 8.25H15.7501V19.5C15.7501 19.6989 15.8291 19.8897 15.9698 20.0303C16.1104 20.171 16.3012 20.25 16.5001 20.25C16.699 20.25 16.8898 20.171 17.0304 20.0303C17.1711 19.8897 17.2501 19.6989 17.2501 19.5V8.25H19.5001C19.6485 8.25011 19.7936 8.20619 19.9171 8.12379C20.0405 8.04138 20.1368 7.92421 20.1936 7.78709C20.2504 7.64997 20.2652 7.49908 20.2362 7.35351C20.2073 7.20795 20.1357 7.07426 20.0307 6.96937Z" fill="black"/>
</svg>
