<svg width="24" height="24" viewBox="0 0 24 24" fill="none" xmlns="http://www.w3.org/2000/svg">
<path d="M19.5001 7.5V15.75C19.5001 17.3413 18.868 18.8674 17.7427 19.9926C16.6175 21.1179 15.0914 21.75 13.5001 21.75C11.9088 21.75 10.3827 21.1179 9.25746 19.9926C8.13224 18.8674 7.5001 17.3413 7.5001 15.75V8.25H3.7501C3.60168 8.25011 3.45656 8.20619 3.33312 8.12379C3.20967 8.04138 3.11345 7.92421 3.05664 7.78709C2.99982 7.64997 2.98497 7.49908 3.01396 7.35351C3.04294 7.20795 3.11447 7.07426 3.21948 6.96937L7.71948 2.46937C7.78913 2.39964 7.87185 2.34432 7.9629 2.30657C8.05395 2.26883 8.15154 2.2494 8.2501 2.2494C8.34866 2.2494 8.44626 2.26883 8.53731 2.30657C8.62836 2.34432 8.71107 2.39964 8.78073 2.46937L13.2807 6.96937C13.3857 7.07426 13.4573 7.20795 13.4862 7.35351C13.5152 7.49908 13.5004 7.64997 13.4436 7.78709C13.3868 7.92421 13.2905 8.04138 13.1671 8.12379C13.0436 8.20619 12.8985 8.25011 12.7501 8.25H9.0001V15.75C9.0001 16.9435 9.47421 18.0881 10.3181 18.932C11.162 19.7759 12.3066 20.25 13.5001 20.25C14.6936 20.25 15.8382 19.7759 16.6821 18.932C17.526 18.0881 18.0001 16.9435 18.0001 15.75V7.5C18.0001 7.30108 18.0791 7.11032 18.2198 6.96967C18.3604 6.82901 18.5512 6.75 18.7501 6.75C18.949 6.75 19.1398 6.82901 19.2804 6.96967C19.4211 7.11032 19.5001 7.30108 19.5001 7.5Z" fill="black"/>
</svg>
