<svg width="24" height="24" viewBox="0 0 24 24" fill="none" xmlns="http://www.w3.org/2000/svg">
<path d="M21.0001 8.25V15.75C21.0001 16.1478 20.8421 16.5294 20.5608 16.8107C20.2795 17.092 19.8979 17.25 19.5001 17.25H12.0001V21C12.0002 21.1484 11.9563 21.2935 11.8739 21.417C11.7915 21.5404 11.6743 21.6366 11.5372 21.6935C11.4001 21.7503 11.2492 21.7651 11.1036 21.7361C10.9581 21.7072 10.8244 21.6356 10.7195 21.5306L1.71948 12.5306C1.64974 12.461 1.59443 12.3783 1.55668 12.2872C1.51894 12.1962 1.49951 12.0986 1.49951 12C1.49951 11.9014 1.51894 11.8038 1.55668 11.7128C1.59443 11.6217 1.64974 11.539 1.71948 11.4694L10.7195 2.46937C10.8244 2.36436 10.9581 2.29284 11.1036 2.26385C11.2492 2.23486 11.4001 2.24971 11.5372 2.30653C11.6743 2.36334 11.7915 2.45956 11.8739 2.58301C11.9563 2.70645 12.0002 2.85157 12.0001 3V6.75H19.5001C19.8979 6.75 20.2795 6.90803 20.5608 7.18934C20.8421 7.47064 21.0001 7.85217 21.0001 8.25Z" fill="black"/>
</svg>
