<svg width="24" height="24" viewBox="0 0 24 24" fill="none" xmlns="http://www.w3.org/2000/svg">
<path d="M19.5001 8.25V16.5C19.5001 16.6989 19.4211 16.8897 19.2804 17.0303C19.1398 17.171 18.949 17.25 18.7501 17.25C18.5512 17.25 18.3604 17.171 18.2198 17.0303C18.0791 16.8897 18.0001 16.6989 18.0001 16.5V8.25C18.0001 7.05653 17.526 5.91193 16.6821 5.06802C15.8382 4.22411 14.6936 3.75 13.5001 3.75C12.3066 3.75 11.162 4.22411 10.3181 5.06802C9.47421 5.91193 9.0001 7.05653 9.0001 8.25V15.75H12.7501C12.8985 15.7499 13.0436 15.7938 13.1671 15.8762C13.2905 15.9586 13.3868 16.0758 13.4436 16.2129C13.5004 16.35 13.5152 16.5009 13.4862 16.6465C13.4573 16.792 13.3857 16.9257 13.2807 17.0306L8.78073 21.5306C8.71107 21.6004 8.62836 21.6557 8.53731 21.6934C8.44626 21.7312 8.34866 21.7506 8.2501 21.7506C8.15154 21.7506 8.05395 21.7312 7.9629 21.6934C7.87185 21.6557 7.78913 21.6004 7.71948 21.5306L3.21948 17.0306C3.11447 16.9257 3.04294 16.792 3.01396 16.6465C2.98497 16.5009 2.99982 16.35 3.05664 16.2129C3.11345 16.0758 3.20967 15.9586 3.33312 15.8762C3.45656 15.7938 3.60168 15.7499 3.7501 15.75H7.5001V8.25C7.5001 6.6587 8.13224 5.13258 9.25746 4.00736C10.3827 2.88214 11.9088 2.25 13.5001 2.25C15.0914 2.25 16.6175 2.88214 17.7427 4.00736C18.868 5.13258 19.5001 6.6587 19.5001 8.25Z" fill="black"/>
</svg>
