<svg width="24" height="24" viewBox="0 0 24 24" fill="none" xmlns="http://www.w3.org/2000/svg">
<path d="M18.7501 7.5V21C18.7501 21.1989 18.6711 21.3897 18.5304 21.5303C18.3898 21.671 18.199 21.75 18.0001 21.75C17.8012 21.75 17.6104 21.671 17.4698 21.5303C17.3291 21.3897 17.2501 21.1989 17.2501 21V8.25H9.7501V12C9.75022 12.1484 9.7063 12.2935 9.62389 12.417C9.54149 12.5404 9.42431 12.6366 9.28719 12.6935C9.15008 12.7503 8.99919 12.7651 8.85362 12.7361C8.70806 12.7072 8.57437 12.6356 8.46948 12.5306L3.96948 8.03062C3.89974 7.96097 3.84443 7.87825 3.80668 7.7872C3.76894 7.69615 3.74951 7.59856 3.74951 7.5C3.74951 7.40143 3.76894 7.30384 3.80668 7.21279C3.84443 7.12174 3.89974 7.03903 3.96948 6.96937L8.46948 2.46937C8.57437 2.36436 8.70806 2.29284 8.85362 2.26385C8.99919 2.23486 9.15008 2.24971 9.28719 2.30653C9.42431 2.36334 9.54149 2.45956 9.62389 2.58301C9.7063 2.70645 9.75022 2.85157 9.7501 3V6.75H18.0001C18.199 6.75 18.3898 6.82901 18.5304 6.96967C18.6711 7.11032 18.7501 7.30108 18.7501 7.5Z" fill="black"/>
</svg>
