<svg width="24" height="24" viewBox="0 0 24 24" fill="none" xmlns="http://www.w3.org/2000/svg">
<path d="M8.30719 4.78687C8.25034 4.64984 8.2354 4.49903 8.26427 4.35352C8.29314 4.208 8.36452 4.07432 8.46937 3.96937L11.4694 0.96937C11.539 0.899638 11.6217 0.844318 11.7128 0.806575C11.8038 0.768832 11.9014 0.749405 12 0.749405C12.0986 0.749405 12.1962 0.768832 12.2872 0.806575C12.3783 0.844318 12.461 0.899638 12.5306 0.96937L15.5306 3.96937C15.6356 4.07426 15.7072 4.20795 15.7361 4.35351C15.7651 4.49908 15.7503 4.64997 15.6935 4.78709C15.6367 4.9242 15.5404 5.04138 15.417 5.12379C15.2935 5.20619 15.1484 5.25011 15 5.25H12.75V9C12.75 9.19891 12.671 9.38967 12.5303 9.53032C12.3897 9.67098 12.1989 9.75 12 9.75C11.8011 9.75 11.6103 9.67098 11.4697 9.53032C11.329 9.38967 11.25 9.19891 11.25 9V5.25H9C8.85167 5.24996 8.70667 5.20595 8.58335 5.12351C8.46003 5.04108 8.36393 4.92392 8.30719 4.78687ZM20.25 11.25H3.75C3.55109 11.25 3.36032 11.329 3.21967 11.4697C3.07902 11.6103 3 11.8011 3 12C3 12.1989 3.07902 12.3897 3.21967 12.5303C3.36032 12.671 3.55109 12.75 3.75 12.75H20.25C20.4489 12.75 20.6397 12.671 20.7803 12.5303C20.921 12.3897 21 12.1989 21 12C21 11.8011 20.921 11.6103 20.7803 11.4697C20.6397 11.329 20.4489 11.25 20.25 11.25ZM15 18.75H12.75V15C12.75 14.8011 12.671 14.6103 12.5303 14.4697C12.3897 14.329 12.1989 14.25 12 14.25C11.8011 14.25 11.6103 14.329 11.4697 14.4697C11.329 14.6103 11.25 14.8011 11.25 15V18.75H9C8.85158 18.7499 8.70646 18.7938 8.58301 18.8762C8.45957 18.9586 8.36335 19.0758 8.30653 19.2129C8.24972 19.35 8.23487 19.5009 8.26385 19.6465C8.29284 19.792 8.36437 19.9257 8.46937 20.0306L11.4694 23.0306C11.539 23.1004 11.6217 23.1557 11.7128 23.1934C11.8038 23.2312 11.9014 23.2506 12 23.2506C12.0986 23.2506 12.1962 23.2312 12.2872 23.1934C12.3783 23.1557 12.461 23.1004 12.5306 23.0306L15.5306 20.0306C15.6356 19.9257 15.7072 19.792 15.7361 19.6465C15.7651 19.5009 15.7503 19.35 15.6935 19.2129C15.6367 19.0758 15.5404 18.9586 15.417 18.8762C15.2935 18.7938 15.1484 18.7499 15 18.75Z" fill="black"/>
</svg>
