<svg width="24" height="24" viewBox="0 0 24 24" fill="none" xmlns="http://www.w3.org/2000/svg">
<path d="M20.9428 7.78687C20.8861 7.92392 20.79 8.04108 20.6666 8.12351C20.5433 8.20595 20.3983 8.24996 20.25 8.25H16.5V15.75C16.5 17.3413 15.8679 18.8674 14.7426 19.9926C13.6174 21.1179 12.0913 21.75 10.5 21.75C8.9087 21.75 7.38258 21.1179 6.25736 19.9926C5.13214 18.8674 4.5 17.3413 4.5 15.75V7.5C4.5 7.30108 4.57902 7.11032 4.71967 6.96967C4.86032 6.82901 5.05109 6.75 5.25 6.75C5.44891 6.75 5.63968 6.82901 5.78033 6.96967C5.92098 7.11032 6 7.30108 6 7.5V15.75C6 16.9435 6.47411 18.0881 7.31802 18.932C8.16193 19.7759 9.30653 20.25 10.5 20.25C11.6935 20.25 12.8381 19.7759 13.682 18.932C14.5259 18.0881 15 16.9435 15 15.75V8.25H11.25C11.1016 8.25011 10.9565 8.20619 10.833 8.12379C10.7096 8.04138 10.6133 7.92421 10.5565 7.78709C10.4997 7.64997 10.4849 7.49908 10.5139 7.35351C10.5428 7.20795 10.6144 7.07426 10.7194 6.96937L15.2194 2.46937C15.289 2.39964 15.3717 2.34432 15.4628 2.30657C15.5538 2.26883 15.6514 2.2494 15.75 2.2494C15.8486 2.2494 15.9462 2.26883 16.0372 2.30657C16.1283 2.34432 16.211 2.39964 16.2806 2.46937L20.7806 6.96937C20.8855 7.07432 20.9569 7.208 20.9857 7.35352C21.0146 7.49903 20.9997 7.64984 20.9428 7.78687Z" fill="black"/>
</svg>
