<svg width="24" height="24" viewBox="0 0 24 24" fill="none" xmlns="http://www.w3.org/2000/svg">
<path d="M21.7501 13.5C21.7484 15.0908 21.1157 16.6159 19.9908 17.7407C18.866 18.8656 17.3409 19.4983 15.7501 19.5H7.5001C7.30119 19.5 7.11042 19.421 6.96977 19.2803C6.82912 19.1397 6.7501 18.9489 6.7501 18.75C6.7501 18.5511 6.82912 18.3603 6.96977 18.2197C7.11042 18.079 7.30119 18 7.5001 18H15.7501C16.9436 18 18.0882 17.5259 18.9321 16.682C19.776 15.8381 20.2501 14.6935 20.2501 13.5C20.2501 12.3065 19.776 11.1619 18.9321 10.318C18.0882 9.4741 16.9436 9 15.7501 9H8.2501V12.75C8.25022 12.8984 8.2063 13.0435 8.12389 13.167C8.04149 13.2904 7.92431 13.3866 7.78719 13.4435C7.65008 13.5003 7.49919 13.5151 7.35362 13.4861C7.20806 13.4572 7.07437 13.3856 6.96948 13.2806L2.46948 8.78062C2.39974 8.71097 2.34442 8.62825 2.30668 8.5372C2.26894 8.44615 2.24951 8.34856 2.24951 8.25C2.24951 8.15143 2.26894 8.05384 2.30668 7.96279C2.34442 7.87174 2.39974 7.78903 2.46948 7.71937L6.96948 3.21937C7.07437 3.11436 7.20806 3.04284 7.35362 3.01385C7.49919 2.98486 7.65008 2.99971 7.78719 3.05653C7.92431 3.11334 8.04149 3.20956 8.12389 3.33301C8.2063 3.45645 8.25022 3.60157 8.2501 3.75V7.5H15.7501C17.3409 7.50173 18.866 8.13443 19.9908 9.25927C21.1157 10.3841 21.7484 11.9092 21.7501 13.5Z" fill="black"/>
</svg>
