<svg width="24" height="24" viewBox="0 0 24 24" fill="none" xmlns="http://www.w3.org/2000/svg">
<path d="M22.4999 7.5V14.25C22.5 14.3984 22.4561 14.5435 22.3737 14.667C22.2913 14.7904 22.1741 14.8867 22.037 14.9435C21.8999 15.0003 21.749 15.0151 21.6034 14.9861C21.4579 14.9572 21.3242 14.8856 21.2193 14.7806L18.3749 11.9353L11.7806 18.5306C11.7109 18.6004 11.6282 18.6557 11.5371 18.6934C11.4461 18.7312 11.3485 18.7506 11.2499 18.7506C11.1514 18.7506 11.0538 18.7312 10.9627 18.6934C10.8717 18.6557 10.789 18.6004 10.7193 18.5306L1.7193 9.53063C1.57857 9.38989 1.49951 9.19902 1.49951 9C1.49951 8.80098 1.57857 8.61011 1.7193 8.46937C1.86003 8.32864 2.05091 8.24958 2.24993 8.24958C2.44895 8.24958 2.63982 8.32864 2.78055 8.46937L11.2499 16.9397L17.3146 10.875L14.4693 8.03063C14.3643 7.92573 14.2928 7.79204 14.2638 7.64648C14.2348 7.50092 14.2496 7.35002 14.3065 7.21291C14.3633 7.07579 14.4595 6.95861 14.5829 6.87621C14.7064 6.79381 14.8515 6.74988 14.9999 6.75H21.7499C21.9488 6.75 22.1396 6.82902 22.2803 6.96967C22.4209 7.11032 22.4999 7.30109 22.4999 7.5Z" fill="black"/>
</svg>
