<svg width="24" height="24" viewBox="0 0 24 24" fill="none" xmlns="http://www.w3.org/2000/svg">
<path d="M18.5306 6.53063L11.9353 13.125L16.2806 17.4694C16.3856 17.5743 16.4572 17.708 16.4861 17.8535C16.5151 17.9991 16.5003 18.15 16.4435 18.2871C16.3867 18.4242 16.2904 18.5414 16.167 18.6238C16.0435 18.7062 15.8984 18.7501 15.75 18.75H6C5.80109 18.75 5.61032 18.671 5.46967 18.5303C5.32902 18.3897 5.25 18.1989 5.25 18V8.25001C5.24988 8.10158 5.29381 7.95646 5.37621 7.83302C5.45861 7.70957 5.57579 7.61335 5.71291 7.55654C5.85002 7.49972 6.00092 7.48487 6.14648 7.51386C6.29204 7.54285 6.42573 7.61437 6.53063 7.71938L10.875 12.0647L17.4694 5.46938C17.5391 5.3997 17.6218 5.34442 17.7128 5.30671C17.8039 5.269 17.9015 5.24959 18 5.24959C18.0985 5.24959 18.1961 5.269 18.2872 5.30671C18.3782 5.34442 18.4609 5.3997 18.5306 5.46938C18.6003 5.53906 18.6556 5.62179 18.6933 5.71283C18.731 5.80388 18.7504 5.90146 18.7504 6.00001C18.7504 6.09855 18.731 6.19613 18.6933 6.28718C18.6556 6.37822 18.6003 6.46095 18.5306 6.53063Z" fill="black"/>
</svg>
