<svg width="24" height="24" viewBox="0 0 24 24" fill="none" xmlns="http://www.w3.org/2000/svg">
<path d="M19.4428 7.78689C19.3861 7.92394 19.29 8.04109 19.1666 8.12353C19.0433 8.20596 18.8983 8.24998 18.75 8.25001H15V12C14.9973 14.585 13.9692 17.0634 12.1413 18.8913C10.3134 20.7192 7.83502 21.7473 5.25 21.75C5.05109 21.75 4.86032 21.671 4.71967 21.5303C4.57902 21.3897 4.5 21.1989 4.5 21C4.5 20.8011 4.57902 20.6103 4.71967 20.4697C4.86032 20.329 5.05109 20.25 5.25 20.25C7.43727 20.2475 9.53425 19.3775 11.0809 17.8309C12.6275 16.2843 13.4975 14.1873 13.5 12V8.25001H9.75C9.60158 8.25013 9.45646 8.2062 9.33301 8.1238C9.20957 8.0414 9.11335 7.92422 9.05653 7.7871C8.99972 7.64999 8.98487 7.49909 9.01385 7.35353C9.04284 7.20797 9.11437 7.07428 9.21937 6.96939L13.7194 2.46939C13.789 2.39965 13.8717 2.34433 13.9628 2.30659C14.0538 2.26885 14.1514 2.24942 14.25 2.24942C14.3486 2.24942 14.4462 2.26885 14.5372 2.30659C14.6283 2.34433 14.711 2.39965 14.7806 2.46939L19.2806 6.96939C19.3855 7.07433 19.4569 7.20802 19.4857 7.35353C19.5146 7.49905 19.4997 7.64986 19.4428 7.78689Z" fill="black"/>
</svg>
