<svg width="24" height="24" viewBox="0 0 24 24" fill="none" xmlns="http://www.w3.org/2000/svg">
<path d="M22.2807 12.5306L19.2807 15.5306C19.1758 15.6356 19.0421 15.7072 18.8966 15.7361C18.751 15.7651 18.6001 15.7503 18.463 15.6935C18.3259 15.6366 18.2087 15.5404 18.1263 15.417C18.0439 15.2935 18 15.1484 18.0001 15V12.75H6.0001V15C6.00022 15.1484 5.9563 15.2935 5.87389 15.417C5.79149 15.5404 5.67431 15.6366 5.53719 15.6935C5.40008 15.7503 5.24919 15.7651 5.10362 15.7361C4.95806 15.7072 4.82437 15.6356 4.71948 15.5306L1.71948 12.5306C1.64974 12.461 1.59443 12.3782 1.55668 12.2872C1.51894 12.1962 1.49951 12.0986 1.49951 12C1.49951 11.9014 1.51894 11.8038 1.55668 11.7128C1.59443 11.6217 1.64974 11.539 1.71948 11.4694L4.71948 8.46937C4.82437 8.36436 4.95806 8.29284 5.10362 8.26385C5.24919 8.23486 5.40008 8.24971 5.53719 8.30653C5.67431 8.36334 5.79149 8.45956 5.87389 8.58301C5.9563 8.70645 6.00022 8.85157 6.0001 9V11.25H18.0001V9C18 8.85157 18.0439 8.70645 18.1263 8.58301C18.2087 8.45956 18.3259 8.36334 18.463 8.30653C18.6001 8.24971 18.751 8.23486 18.8966 8.26385C19.0421 8.29284 19.1758 8.36436 19.2807 8.46937L22.2807 11.4694C22.3505 11.539 22.4058 11.6217 22.4435 11.7128C22.4813 11.8038 22.5007 11.9014 22.5007 12C22.5007 12.0986 22.4813 12.1962 22.4435 12.2872C22.4058 12.3782 22.3505 12.461 22.2807 12.5306Z" fill="black"/>
</svg>
