<svg width="24" height="24" viewBox="0 0 24 24" fill="none" xmlns="http://www.w3.org/2000/svg">
<path d="M9.74986 12C9.74986 12.1989 9.67084 12.3897 9.53019 12.5303C9.38953 12.671 9.19877 12.75 8.99986 12.75H5.24986V15C5.24997 15.1484 5.20605 15.2935 5.12365 15.417C5.04124 15.5404 4.92407 15.6367 4.78695 15.6935C4.64983 15.7503 4.49894 15.7651 4.35338 15.7361C4.20781 15.7072 4.07412 15.6356 3.96923 15.5306L0.969233 12.5306C0.8995 12.461 0.844181 12.3783 0.806438 12.2872C0.768695 12.1962 0.749268 12.0986 0.749268 12C0.749268 11.9014 0.768695 11.8038 0.806438 11.7128C0.844181 11.6217 0.8995 11.539 0.969233 11.4694L3.96923 8.46937C4.07412 8.36437 4.20781 8.29284 4.35338 8.26385C4.49894 8.23487 4.64983 8.24972 4.78695 8.30653C4.92407 8.36335 5.04124 8.45957 5.12365 8.58301C5.20605 8.70646 5.24997 8.85158 5.24986 9V11.25H8.99986C9.19877 11.25 9.38953 11.329 9.53019 11.4697C9.67084 11.6103 9.74986 11.8011 9.74986 12ZM23.0305 11.4694L20.0305 8.46937C19.9256 8.36437 19.7919 8.29284 19.6463 8.26385C19.5008 8.23487 19.3499 8.24972 19.2128 8.30653C19.0756 8.36335 18.9585 8.45957 18.8761 8.58301C18.7937 8.70646 18.7497 8.85158 18.7499 9V11.25H14.9999C14.8009 11.25 14.6102 11.329 14.4695 11.4697C14.3289 11.6103 14.2499 11.8011 14.2499 12C14.2499 12.1989 14.3289 12.3897 14.4695 12.5303C14.6102 12.671 14.8009 12.75 14.9999 12.75H18.7499V15C18.7497 15.1484 18.7937 15.2935 18.8761 15.417C18.9585 15.5404 19.0756 15.6367 19.2128 15.6935C19.3499 15.7503 19.5008 15.7651 19.6463 15.7361C19.7919 15.7072 19.9256 15.6356 20.0305 15.5306L23.0305 12.5306C23.1002 12.461 23.1555 12.3783 23.1933 12.2872C23.231 12.1962 23.2504 12.0986 23.2504 12C23.2504 11.9014 23.231 11.8038 23.1933 11.7128C23.1555 11.6217 23.1002 11.539 23.0305 11.4694ZM11.9999 3C11.8009 3 11.6102 3.07902 11.4695 3.21967C11.3289 3.36032 11.2499 3.55109 11.2499 3.75V20.25C11.2499 20.4489 11.3289 20.6397 11.4695 20.7803C11.6102 20.921 11.8009 21 11.9999 21C12.1988 21 12.3895 20.921 12.5302 20.7803C12.6708 20.6397 12.7499 20.4489 12.7499 20.25V3.75C12.7499 3.55109 12.6708 3.36032 12.5302 3.21967C12.3895 3.07902 12.1988 3 11.9999 3Z" fill="black"/>
</svg>
