<svg width="24" height="24" viewBox="0 0 24 24" fill="none" xmlns="http://www.w3.org/2000/svg">
<path d="M20.0306 17.0306L15.5306 21.5306C15.4257 21.6356 15.292 21.7072 15.1465 21.7361C15.0009 21.7651 14.85 21.7503 14.7129 21.6935C14.5758 21.6367 14.4586 21.5404 14.3762 21.417C14.2938 21.2935 14.2499 21.1484 14.25 21V17.25H6C5.80109 17.25 5.61032 17.171 5.46967 17.0303C5.32902 16.8897 5.25 16.6989 5.25 16.5V3C5.25 2.80109 5.32902 2.61032 5.46967 2.46967C5.61032 2.32902 5.80109 2.25 6 2.25C6.19891 2.25 6.38968 2.32902 6.53033 2.46967C6.67098 2.61032 6.75 2.80109 6.75 3V15.75H14.25V12C14.2499 11.8516 14.2938 11.7065 14.3762 11.583C14.4586 11.4596 14.5758 11.3633 14.7129 11.3065C14.85 11.2497 15.0009 11.2349 15.1465 11.2639C15.292 11.2928 15.4257 11.3644 15.5306 11.4694L20.0306 15.9694C20.1004 16.039 20.1557 16.1217 20.1934 16.2128C20.2312 16.3038 20.2506 16.4014 20.2506 16.5C20.2506 16.5986 20.2312 16.6962 20.1934 16.7872C20.1557 16.8783 20.1004 16.961 20.0306 17.0306Z" fill="black"/>
</svg>
