<svg width="24" height="24" viewBox="0 0 24 24" fill="none" xmlns="http://www.w3.org/2000/svg">
<path d="M19.5001 21C19.5001 21.1989 19.4211 21.3897 19.2804 21.5303C19.1398 21.671 18.949 21.75 18.7501 21.75C16.1651 21.7473 13.6867 20.7192 11.8588 18.8913C10.0309 17.0634 9.00283 14.585 9.0001 12V8.25001H5.2501C5.10168 8.25013 4.95656 8.2062 4.83312 8.1238C4.70967 8.0414 4.61345 7.92422 4.55664 7.7871C4.49982 7.64999 4.48497 7.49909 4.51396 7.35353C4.54294 7.20797 4.61447 7.07428 4.71948 6.96939L9.21948 2.46939C9.28913 2.39965 9.37185 2.34433 9.4629 2.30659C9.55395 2.26885 9.65154 2.24942 9.7501 2.24942C9.84866 2.24942 9.94626 2.26885 10.0373 2.30659C10.1284 2.34433 10.2111 2.39965 10.2807 2.46939L14.7807 6.96939C14.8857 7.07428 14.9573 7.20797 14.9862 7.35353C15.0152 7.49909 15.0004 7.64999 14.9436 7.7871C14.8868 7.92422 14.7905 8.0414 14.6671 8.1238C14.5436 8.2062 14.3985 8.25013 14.2501 8.25001H10.5001V12C10.5026 14.1873 11.3726 16.2843 12.9192 17.8309C14.4658 19.3775 16.5628 20.2475 18.7501 20.25C18.949 20.25 19.1398 20.329 19.2804 20.4697C19.4211 20.6103 19.5001 20.8011 19.5001 21Z" fill="black"/>
</svg>
