<svg width="24" height="24" viewBox="0 0 24 24" fill="none" xmlns="http://www.w3.org/2000/svg">
<path d="M21.7501 10.5C21.7484 12.0908 21.1157 13.6159 19.9908 14.7407C18.866 15.8656 17.3409 16.4983 15.7501 16.5H8.2501V20.25C8.25022 20.3984 8.2063 20.5435 8.12389 20.667C8.04149 20.7904 7.92431 20.8867 7.78719 20.9435C7.65008 21.0003 7.49919 21.0151 7.35362 20.9861C7.20806 20.9572 7.07437 20.8856 6.96948 20.7806L2.46948 16.2806C2.39974 16.211 2.34442 16.1283 2.30668 16.0372C2.26894 15.9462 2.24951 15.8486 2.24951 15.75C2.24951 15.6514 2.26894 15.5538 2.30668 15.4628C2.34442 15.3717 2.39974 15.289 2.46948 15.2194L6.96948 10.7194C7.07437 10.6144 7.20806 10.5428 7.35362 10.5139C7.49919 10.4849 7.65008 10.4997 7.78719 10.5565C7.92431 10.6133 8.04149 10.7096 8.12389 10.833C8.2063 10.9565 8.25022 11.1016 8.2501 11.25V15H15.7501C16.9436 15 18.0882 14.5259 18.9321 13.682C19.776 12.8381 20.2501 11.6935 20.2501 10.5C20.2501 9.30653 19.776 8.16193 18.9321 7.31802C18.0882 6.47411 16.9436 6 15.7501 6H7.5001C7.30119 6 7.11042 5.92098 6.96977 5.78033C6.82912 5.63968 6.7501 5.44891 6.7501 5.25C6.7501 5.05109 6.82912 4.86032 6.96977 4.71967C7.11042 4.57902 7.30119 4.5 7.5001 4.5H15.7501C17.3409 4.50174 18.866 5.13444 19.9908 6.25928C21.1157 7.38412 21.7484 8.90923 21.7501 10.5Z" fill="black"/>
</svg>
