<svg width="24" height="24" viewBox="0 0 24 24" fill="none" xmlns="http://www.w3.org/2000/svg">
<path d="M21.5306 10.2806L17.0306 14.7806C16.8899 14.9214 16.699 15.0004 16.5 15.0004C16.301 15.0004 16.1101 14.9214 15.9694 14.7806C15.8286 14.6399 15.7496 14.449 15.7496 14.25C15.7496 14.051 15.8286 13.8601 15.9694 13.7194L19.9397 9.75001L15.9694 5.78064C15.8997 5.71095 15.8444 5.62823 15.8067 5.53718C15.769 5.44614 15.7496 5.34856 15.7496 5.25001C15.7496 5.15146 15.769 5.05388 15.8067 4.96284C15.8444 4.87179 15.8997 4.78907 15.9694 4.71939C16.1101 4.57866 16.301 4.49959 16.5 4.49959C16.5985 4.49959 16.6961 4.519 16.7872 4.55672C16.8782 4.59443 16.9609 4.6497 17.0306 4.71939L21.5306 9.21939C21.6004 9.28904 21.6557 9.37176 21.6934 9.46281C21.7312 9.55385 21.7506 9.65145 21.7506 9.75001C21.7506 9.84857 21.7312 9.94617 21.6934 10.0372C21.6557 10.1283 21.6004 10.211 21.5306 10.2806ZM17.0306 9.21939L12.5306 4.71939C12.4257 4.61438 12.292 4.54285 12.1465 4.51386C12.0009 4.48488 11.85 4.49973 11.7129 4.55654C11.5758 4.61336 11.4586 4.70958 11.3762 4.83302C11.2938 4.95647 11.2499 5.10159 11.25 5.25001V9.02814C8.80232 9.22026 6.51685 10.3275 4.84893 12.1292C3.18101 13.9309 2.25308 16.2948 2.25 18.75C2.25 18.9489 2.32902 19.1397 2.46967 19.2803C2.61032 19.421 2.80109 19.5 3 19.5C3.19891 19.5 3.38968 19.421 3.53033 19.2803C3.67098 19.1397 3.75 18.9489 3.75 18.75C3.75247 16.6926 4.52267 14.7101 5.90984 13.1906C7.29701 11.6712 9.2013 10.7241 11.25 10.5347V14.25C11.2499 14.3984 11.2938 14.5436 11.3762 14.667C11.4586 14.7904 11.5758 14.8867 11.7129 14.9435C11.85 15.0003 12.0009 15.0151 12.1465 14.9862C12.292 14.9572 12.4257 14.8856 12.5306 14.7806L17.0306 10.2806C17.1004 10.211 17.1557 10.1283 17.1934 10.0372C17.2312 9.94617 17.2506 9.84857 17.2506 9.75001C17.2506 9.65145 17.2312 9.55385 17.1934 9.46281C17.1557 9.37176 17.1004 9.28904 17.0306 9.21939Z" fill="black"/>
</svg>
