<svg width="24" height="24" viewBox="0 0 24 24" fill="none" xmlns="http://www.w3.org/2000/svg">
<path d="M23.25 9V10.5C23.25 10.6989 23.1709 10.8897 23.0303 11.0303C22.8896 11.171 22.6989 11.25 22.5 11.25H15C14.801 11.25 14.6103 11.171 14.4696 11.0303C14.329 10.8897 14.25 10.6989 14.25 10.5V9C14.25 8.80109 14.329 8.61032 14.4696 8.46967C14.6103 8.32902 14.801 8.25 15 8.25H22.5C22.6989 8.25 22.8896 8.32902 23.0303 8.46967C23.1709 8.61032 23.25 8.80109 23.25 9ZM22.5 12.75H15C14.801 12.75 14.6103 12.829 14.4696 12.9697C14.329 13.1103 14.25 13.3011 14.25 13.5V15C14.25 15.1989 14.329 15.3897 14.4696 15.5303C14.6103 15.671 14.801 15.75 15 15.75H22.5C22.6989 15.75 22.8896 15.671 23.0303 15.5303C23.1709 15.3897 23.25 15.1989 23.25 15V13.5C23.25 13.3011 23.1709 13.1103 23.0303 12.9697C22.8896 12.829 22.6989 12.75 22.5 12.75ZM22.5 17.25H6.74996C6.55105 17.25 6.36028 17.329 6.21963 17.4697C6.07898 17.6103 5.99996 17.8011 5.99996 18V19.5C5.99996 19.6989 6.07898 19.8897 6.21963 20.0303C6.36028 20.171 6.55105 20.25 6.74996 20.25H22.5C22.6989 20.25 22.8896 20.171 23.0303 20.0303C23.1709 19.8897 23.25 19.6989 23.25 19.5V18C23.25 17.8011 23.1709 17.6103 23.0303 17.4697C22.8896 17.329 22.6989 17.25 22.5 17.25ZM7.49996 15.75C6.10803 15.7485 4.77354 15.1949 3.78929 14.2107C2.80505 13.2264 2.25145 11.8919 2.24996 10.5C2.24945 9.82497 2.38032 9.15629 2.63527 8.53125C2.17648 8.21272 1.83125 7.75616 1.64976 7.22794C1.46828 6.69972 1.46001 6.12739 1.62615 5.59415C1.79229 5.0609 2.12419 4.59455 2.57358 4.2629C3.02297 3.93124 3.56644 3.75157 4.12496 3.75C4.25252 3.74973 4.37803 3.782 4.48965 3.84375L11.0456 7.48594C11.3245 7.44146 11.5764 7.2937 11.7514 7.07203C11.9264 6.85036 12.0116 6.57098 11.9901 6.28938C11.9686 6.00779 11.842 5.74457 11.6354 5.55202C11.4288 5.35946 11.1574 5.25165 10.875 5.25C10.676 5.25 10.4853 5.17098 10.3446 5.03033C10.204 4.88968 10.125 4.69891 10.125 4.5C10.125 4.30109 10.204 4.11032 10.3446 3.96967C10.4853 3.82902 10.676 3.75 10.875 3.75C11.5712 3.75 12.2388 4.02656 12.7311 4.51885C13.2234 5.01113 13.5 5.67881 13.5 6.375C13.5 7.07119 13.2234 7.73887 12.7311 8.23116C12.2388 8.72344 11.5712 9 10.875 9C10.7474 9.00027 10.6219 8.96801 10.5103 8.90625L6.76027 6.82406C5.91181 6.99455 5.14842 7.45326 4.59959 8.12239C4.05075 8.79152 3.75024 9.62989 3.74903 10.4953C3.74781 11.3607 4.04597 12.1999 4.59293 12.8706C5.13988 13.5413 5.90198 14.0021 6.74996 14.175V10.5C6.74996 10.3011 6.82898 10.1103 6.96963 9.96967C7.11028 9.82902 7.30105 9.75 7.49996 9.75C7.69887 9.75 7.88964 9.82902 8.03029 9.96967C8.17094 10.1103 8.24996 10.3011 8.24996 10.5V14.1741C8.88396 14.0441 9.47366 13.7527 9.96196 13.3279C10.4503 12.9032 10.8206 12.3596 11.0371 11.7497C11.106 11.5655 11.2445 11.4157 11.4227 11.3326C11.6009 11.2495 11.8046 11.2397 11.99 11.3054C12.1754 11.371 12.3275 11.5068 12.4137 11.6836C12.4999 11.8603 12.5133 12.0638 12.4509 12.2503C12.0878 13.2733 11.417 14.1589 10.5306 14.7855C9.64415 15.4121 8.5855 15.749 7.49996 15.75ZM3.39652 7.23188C3.84461 6.66928 4.4029 6.20415 5.03715 5.865L3.95433 5.26313C3.74089 5.29521 3.54118 5.38801 3.37902 5.53047C3.21687 5.67293 3.09912 5.85903 3.03983 6.06657C2.98053 6.27411 2.98219 6.49432 3.0446 6.70095C3.10702 6.90757 3.22755 7.09187 3.39183 7.23188H3.39652Z" fill="black"/>
</svg>
