<svg width="24" height="24" viewBox="0 0 24 24" fill="none" xmlns="http://www.w3.org/2000/svg">
<path d="M5.25 13.5C5.25 13.6989 5.17098 13.8897 5.03033 14.0303C4.88968 14.171 4.69891 14.25 4.5 14.25H2.25C2.05109 14.25 1.86032 14.171 1.71967 14.0303C1.57902 13.8897 1.5 13.6989 1.5 13.5C1.5 13.3011 1.57902 13.1103 1.71967 12.9697C1.86032 12.829 2.05109 12.75 2.25 12.75H3V6.75H2.25C2.05109 6.75 1.86032 6.67098 1.71967 6.53033C1.57902 6.38968 1.5 6.19891 1.5 6C1.5 5.80109 1.57902 5.61032 1.71967 5.46967C1.86032 5.32902 2.05109 5.25 2.25 5.25H3.75C3.87697 5.24986 4.00189 5.28196 4.11306 5.34329C4.22423 5.40461 4.31802 5.49316 4.38562 5.60063L7.5 10.5853L10.6144 5.6025C10.6818 5.49469 10.7754 5.40577 10.8866 5.34411C10.9978 5.28245 11.1229 5.25006 11.25 5.25H12.75C12.9489 5.25 13.1397 5.32902 13.2803 5.46967C13.421 5.61032 13.5 5.80109 13.5 6C13.5 6.19891 13.421 6.38968 13.2803 6.53033C13.1397 6.67098 12.9489 6.75 12.75 6.75H12V12.75H12.75C12.9489 12.75 13.1397 12.829 13.2803 12.9697C13.421 13.1103 13.5 13.3011 13.5 13.5C13.5 13.6989 13.421 13.8897 13.2803 14.0303C13.1397 14.171 12.9489 14.25 12.75 14.25H10.5C10.3011 14.25 10.1103 14.171 9.96967 14.0303C9.82902 13.8897 9.75 13.6989 9.75 13.5C9.75 13.3011 9.82902 13.1103 9.96967 12.9697C10.1103 12.829 10.3011 12.75 10.5 12.75V8.61469L8.13562 12.3975C8.06817 12.5052 7.97445 12.594 7.86327 12.6556C7.75209 12.7171 7.62708 12.7494 7.5 12.7494C7.37292 12.7494 7.24791 12.7171 7.13673 12.6556C7.02555 12.594 6.93183 12.5052 6.86438 12.3975L4.5 8.61469V12.75C4.69891 12.75 4.88968 12.829 5.03033 12.9697C5.17098 13.1103 5.25 13.3011 5.25 13.5ZM22.5 11.25H15.75C15.5511 11.25 15.3603 11.329 15.2197 11.4697C15.079 11.6103 15 11.8011 15 12V13.5C15 13.6989 15.079 13.8897 15.2197 14.0303C15.3603 14.171 15.5511 14.25 15.75 14.25H22.5C22.6989 14.25 22.8897 14.171 23.0303 14.0303C23.171 13.8897 23.25 13.6989 23.25 13.5V12C23.25 11.8011 23.171 11.6103 23.0303 11.4697C22.8897 11.329 22.6989 11.25 22.5 11.25ZM22.5 15.75H6.75C6.55109 15.75 6.36032 15.829 6.21967 15.9697C6.07902 16.1103 6 16.3011 6 16.5V18C6 18.1989 6.07902 18.3897 6.21967 18.5303C6.36032 18.671 6.55109 18.75 6.75 18.75H22.5C22.6989 18.75 22.8897 18.671 23.0303 18.5303C23.171 18.3897 23.25 18.1989 23.25 18V16.5C23.25 16.3011 23.171 16.1103 23.0303 15.9697C22.8897 15.829 22.6989 15.75 22.5 15.75ZM22.5 6.75H15.75C15.5511 6.75 15.3603 6.82902 15.2197 6.96967C15.079 7.11032 15 7.30109 15 7.5V9C15 9.19891 15.079 9.38968 15.2197 9.53033C15.3603 9.67098 15.5511 9.75 15.75 9.75H22.5C22.6989 9.75 22.8897 9.67098 23.0303 9.53033C23.171 9.38968 23.25 9.19891 23.25 9V7.5C23.25 7.30109 23.171 7.11032 23.0303 6.96967C22.8897 6.82902 22.6989 6.75 22.5 6.75Z" fill="black"/>
</svg>
