<svg width="24" height="24" viewBox="0 0 24 24" fill="none" xmlns="http://www.w3.org/2000/svg">
<path d="M12 2.25C10.0716 2.25 8.18657 2.82183 6.58319 3.89317C4.97982 4.96451 3.73013 6.48726 2.99218 8.26884C2.25422 10.0504 2.06114 12.0108 2.43735 13.9021C2.81355 15.7934 3.74215 17.5307 5.10571 18.8943C6.46928 20.2579 8.20656 21.1865 10.0979 21.5627C11.9892 21.9389 13.9496 21.7458 15.7312 21.0078C17.5127 20.2699 19.0355 19.0202 20.1068 17.4168C21.1782 15.8134 21.75 13.9284 21.75 12C21.7473 9.41498 20.7192 6.93661 18.8913 5.10872C17.0634 3.28084 14.585 2.25273 12 2.25ZM17.5453 10.4391L13.2188 12.2925L16.3247 16.02C16.452 16.1729 16.5133 16.3701 16.4952 16.5683C16.4771 16.7664 16.381 16.9493 16.2281 17.0766C16.0752 17.2039 15.878 17.2652 15.6798 17.2471C15.4817 17.229 15.2989 17.1329 15.1716 16.98L12 13.1719L8.82657 16.98C8.69926 17.1329 8.51643 17.229 8.31828 17.2471C8.12014 17.2652 7.92292 17.2039 7.77 17.0766C7.61709 16.9493 7.52101 16.7664 7.5029 16.5683C7.48479 16.3701 7.54614 16.1729 7.67344 16.02L10.7813 12.2925L6.45469 10.4391C6.36134 10.4023 6.27633 10.3471 6.20469 10.2768C6.13304 10.2066 6.07622 10.1227 6.0376 10.0301C5.99897 9.93745 5.97932 9.83803 5.9798 9.73769C5.98029 9.63735 6.00091 9.53813 6.04044 9.4459C6.07996 9.35367 6.1376 9.27031 6.20992 9.20076C6.28224 9.1312 6.36779 9.07687 6.46149 9.04097C6.55519 9.00508 6.65514 8.98835 6.75543 8.99178C6.85571 8.99521 6.95429 9.01872 7.04532 9.06094L11.25 10.8628V6.5625C11.25 6.36359 11.329 6.17282 11.4697 6.03217C11.6103 5.89152 11.8011 5.8125 12 5.8125C12.1989 5.8125 12.3897 5.89152 12.5303 6.03217C12.671 6.17282 12.75 6.36359 12.75 6.5625V10.8628L16.9547 9.06094C17.0457 9.01872 17.1443 8.99521 17.2446 8.99178C17.3449 8.98835 17.4448 9.00508 17.5385 9.04097C17.6322 9.07687 17.7178 9.1312 17.7901 9.20076C17.8624 9.27031 17.92 9.35367 17.9596 9.4459C17.9991 9.53813 18.0197 9.63735 18.0202 9.73769C18.0207 9.83803 18.001 9.93745 17.9624 10.0301C17.9238 10.1227 17.867 10.2066 17.7953 10.2768C17.7237 10.3471 17.6387 10.4023 17.5453 10.4391Z" fill="black"/>
</svg>
