<svg width="24" height="24" viewBox="0 0 24 24" fill="none" xmlns="http://www.w3.org/2000/svg">
<path d="M18.3861 12C20.697 8.75531 21.8755 5.40187 20.2367 3.76312C18.598 2.12437 15.2445 3.30281 11.9999 5.61375C8.75517 3.30281 5.40174 2.12437 3.76299 3.76312C2.12424 5.40187 3.30267 8.75531 5.61361 12C3.30267 15.2447 2.12424 18.5981 3.76299 20.2369C4.2908 20.7647 4.9958 21 5.81705 21C7.54861 21 9.79955 19.9528 12.0045 18.3862C14.2002 19.9528 16.4502 21 18.1874 21C19.0086 21 19.7146 20.7637 20.2414 20.2369C21.8755 18.5981 20.697 15.2447 18.3861 12ZM19.1764 4.82344C19.8927 5.53969 19.4089 7.86094 17.4402 10.7559C16.8173 9.98492 16.1542 9.24733 15.4536 8.54625C14.7522 7.84686 14.0146 7.1847 13.2439 6.5625C16.1389 4.59375 18.4602 4.10719 19.1764 4.82344ZM4.8233 4.82344C5.02955 4.61625 5.36986 4.50937 5.81892 4.50937C6.92705 4.50937 8.69611 5.15625 10.7549 6.5625C9.98465 7.18493 9.2474 7.84707 8.54611 8.54625C7.84645 9.2474 7.18428 9.98499 6.56236 10.7559C4.59361 7.86094 4.10705 5.53969 4.8233 4.82344ZM4.8233 19.1766C4.10705 18.4603 4.59361 16.1391 6.56236 13.2441C7.18519 14.0151 7.84831 14.7527 8.54892 15.4537C9.24962 16.1529 9.98625 16.815 10.7558 17.4375C7.8608 19.4062 5.53955 19.8928 4.8233 19.1766ZM11.9999 13.125C11.7774 13.125 11.5599 13.059 11.3748 12.9354C11.1898 12.8118 11.0456 12.6361 10.9605 12.4305C10.8753 12.2249 10.8531 11.9988 10.8965 11.7805C10.9399 11.5623 11.047 11.3618 11.2044 11.2045C11.3617 11.0472 11.5622 10.94 11.7804 10.8966C11.9986 10.8532 12.2248 10.8755 12.4304 10.9606C12.6359 11.0458 12.8116 11.19 12.9353 11.375C13.0589 11.56 13.1249 11.7775 13.1249 12C13.1249 12.2984 13.0063 12.5845 12.7954 12.7955C12.5844 13.0065 12.2982 13.125 11.9999 13.125ZM19.1764 19.1775C18.4602 19.8947 16.1389 19.41 13.2439 17.4412C14.0145 16.8179 14.7521 16.1548 15.4536 15.4547C16.1533 14.7532 16.8155 14.0153 17.4374 13.2441C19.4061 16.1391 19.8927 18.4603 19.1764 19.1766V19.1775Z" fill="black"/>
</svg>
