<svg width="24" height="24" viewBox="0 0 24 24" fill="none" xmlns="http://www.w3.org/2000/svg">
<path d="M12.5774 2.25939C12.5118 2.25596 12.4464 2.26982 12.3879 2.2996C12.3293 2.32939 12.2796 2.37404 12.2437 2.42908C11.278 3.88877 11.2499 5.23033 11.2499 5.25002C11.2504 5.36163 11.2757 5.47174 11.3241 5.57231C11.3725 5.67288 11.4428 5.76138 11.5297 5.83135C11.6167 5.90133 11.7181 5.95101 11.8267 5.97679C11.9353 6.00256 12.0483 6.00377 12.1574 5.98033C12.3277 5.93953 12.4791 5.84207 12.5868 5.70392C12.6945 5.56578 12.752 5.39515 12.7499 5.22002C12.7535 5.11743 12.7781 5.01668 12.8222 4.92398C12.8663 4.83129 12.929 4.74864 13.0063 4.68114C13.0837 4.61365 13.174 4.56275 13.2718 4.53159C13.3696 4.50044 13.4728 4.48969 13.5749 4.50002C13.7631 4.52187 13.9365 4.61297 14.0613 4.75558C14.186 4.89819 14.2533 5.08212 14.2499 5.27158C14.2466 5.86832 14.0063 6.43928 13.582 6.85886C13.1576 7.27845 12.584 7.51228 11.9873 7.50893C11.3905 7.50557 10.8196 7.2653 10.4 6.84097C9.9804 6.41664 9.74657 5.84301 9.74992 5.24627C9.74992 5.18721 9.75836 4.23564 10.2599 2.99627C10.2853 2.93285 10.2929 2.86369 10.2819 2.79627C10.2709 2.72885 10.2416 2.66572 10.1973 2.61371C10.153 2.56169 10.0954 2.52277 10.0306 2.50113C9.96575 2.4795 9.89627 2.47598 9.82961 2.49096C7.61979 2.99856 5.65549 4.25933 4.27368 6.05698C2.89187 7.85464 2.17869 10.0771 2.25649 12.3431C2.43742 17.505 6.67774 21.6563 11.8424 21.7406C14.3902 21.7797 16.852 20.8198 18.7008 19.0664C20.5497 17.3131 21.6388 14.9056 21.7348 12.3594C21.8309 9.81314 20.9264 7.33047 19.2148 5.44279C17.5033 3.55512 15.1209 2.41245 12.5774 2.25939ZM7.49992 11.9916C7.49992 11.7691 7.5659 11.5516 7.68952 11.3666C7.81314 11.1816 7.98884 11.0374 8.1944 10.9522C8.39997 10.8671 8.62617 10.8448 8.8444 10.8882C9.06263 10.9316 9.26308 11.0388 9.42042 11.1961C9.57775 11.3534 9.6849 11.5539 9.72831 11.7721C9.77171 11.9903 9.74944 12.2165 9.66429 12.4221C9.57914 12.6277 9.43494 12.8034 9.24994 12.927C9.06493 13.0506 8.84743 13.1166 8.62492 13.1166C8.32655 13.1166 8.04041 12.9981 7.82943 12.7871C7.61845 12.5761 7.49992 12.29 7.49992 11.9916ZM15.0252 17.1263C14.1176 17.6921 13.0695 17.992 11.9999 17.992C10.9304 17.992 9.88225 17.6921 8.97461 17.1263C8.80628 17.0201 8.68702 16.8514 8.64307 16.6573C8.59911 16.4632 8.63407 16.2596 8.74024 16.0913C8.84641 15.9229 9.01509 15.8037 9.20919 15.7597C9.40329 15.7158 9.60691 15.7507 9.77524 15.8569C10.4432 16.2715 11.2137 16.4911 11.9999 16.4911C12.7861 16.4911 13.5566 16.2715 14.2246 15.8569C14.308 15.8043 14.4008 15.7687 14.498 15.752C14.5951 15.7353 14.6945 15.738 14.7907 15.7597C14.8868 15.7815 14.9776 15.822 15.0581 15.8789C15.1386 15.9357 15.207 16.0079 15.2596 16.0913C15.3122 16.1746 15.3478 16.2675 15.3645 16.3646C15.3812 16.4617 15.3785 16.5612 15.3568 16.6573C15.335 16.7534 15.2945 16.8443 15.2376 16.9248C15.1808 17.0052 15.1086 17.0737 15.0252 17.1263ZM15.3749 13.1166C15.1524 13.1166 14.9349 13.0506 14.7499 12.927C14.5649 12.8034 14.4207 12.6277 14.3356 12.4221C14.2504 12.2165 14.2281 11.9903 14.2715 11.7721C14.3149 11.5539 14.4221 11.3534 14.5794 11.1961C14.7368 11.0388 14.9372 10.9316 15.1554 10.8882C15.3737 10.8448 15.5999 10.8671 15.8054 10.9522C16.011 11.0374 16.1867 11.1816 16.3103 11.3666C16.4339 11.5516 16.4999 11.7691 16.4999 11.9916C16.4999 12.29 16.3814 12.5761 16.1704 12.7871C15.9594 12.9981 15.6733 13.1166 15.3749 13.1166Z" fill="black"/>
</svg>
