<svg width="24" height="24" viewBox="0 0 24 24" fill="none" xmlns="http://www.w3.org/2000/svg">
<path d="M20.2497 3.75H6.42443C6.1656 3.75111 5.91139 3.81867 5.68617 3.94622C5.46094 4.07377 5.27225 4.25703 5.13818 4.47844L0.856619 11.6137C0.786537 11.7304 0.749512 11.8639 0.749512 12C0.749512 12.1361 0.786537 12.2696 0.856619 12.3862L5.13818 19.5216C5.27219 19.743 5.46086 19.9263 5.6861 20.0539C5.91134 20.1815 6.16558 20.249 6.42443 20.25H20.2497C20.6476 20.25 21.0291 20.092 21.3104 19.8107C21.5917 19.5294 21.7497 19.1478 21.7497 18.75V5.25C21.7497 4.85218 21.5917 4.47064 21.3104 4.18934C21.0291 3.90804 20.6476 3.75 20.2497 3.75ZM15.5304 13.7194C15.6001 13.7891 15.6553 13.8718 15.693 13.9628C15.7308 14.0539 15.7502 14.1515 15.7502 14.25C15.7502 14.3485 15.7308 14.4461 15.693 14.5372C15.6553 14.6282 15.6001 14.7109 15.5304 14.7806C15.4607 14.8503 15.378 14.9056 15.2869 14.9433C15.1959 14.981 15.0983 15.0004 14.9997 15.0004C14.9012 15.0004 14.8036 14.981 14.7126 14.9433C14.6215 14.9056 14.5388 14.8503 14.4691 14.7806L12.7497 13.0603L11.0294 14.7806C10.8887 14.9212 10.6979 15.0002 10.4989 15.0001C10.3 15 10.1093 14.9209 9.96865 14.7802C9.82804 14.6394 9.7491 14.4486 9.74919 14.2497C9.74928 14.0507 9.82839 13.86 9.96912 13.7194L11.6894 12L9.96912 10.2806C9.82839 10.14 9.74928 9.94927 9.74919 9.75033C9.74915 9.65183 9.76851 9.55428 9.80616 9.46326C9.84382 9.37224 9.89903 9.28953 9.96865 9.21984C10.0383 9.15016 10.1209 9.09487 10.2119 9.05714C10.3029 9.0194 10.4004 8.99996 10.4989 8.99991C10.6979 8.99983 10.8887 9.07877 11.0294 9.21937L12.7497 10.9397L14.4691 9.21937C14.5388 9.14969 14.6215 9.09442 14.7126 9.0567C14.8036 9.01899 14.9012 8.99958 14.9997 8.99958C15.0983 8.99958 15.1959 9.01899 15.2869 9.0567C15.378 9.09442 15.4607 9.14969 15.5304 9.21937C15.6001 9.28906 15.6553 9.37178 15.693 9.46283C15.7308 9.55387 15.7502 9.65145 15.7502 9.75C15.7502 9.84855 15.7308 9.94613 15.693 10.0372C15.6553 10.1282 15.6001 10.2109 15.5304 10.2806L13.8101 12L15.5304 13.7194Z" fill="black"/>
</svg>
