<svg width="24" height="24" viewBox="0 0 24 24" fill="none" xmlns="http://www.w3.org/2000/svg">
<path d="M12 13.125C12.6213 13.125 13.125 12.6213 13.125 12C13.125 11.3787 12.6213 10.875 12 10.875C11.3787 10.875 10.875 11.3787 10.875 12C10.875 12.6213 11.3787 13.125 12 13.125Z" fill="black"/>
<path d="M17.3034 12L19.9012 9.40123C20.2594 9.05531 20.545 8.64152 20.7416 8.184C20.9381 7.72649 21.0416 7.23441 21.0459 6.73649C21.0502 6.23857 20.9553 5.74477 20.7668 5.28391C20.5782 4.82305 20.2998 4.40435 19.9477 4.05225C19.5956 3.70016 19.1769 3.42171 18.716 3.23315C18.2552 3.0446 17.7614 2.94972 17.2634 2.95404C16.7655 2.95837 16.2734 3.06182 15.8159 3.25835C15.3584 3.45489 14.9446 3.74057 14.5987 4.09873L11.9999 6.69655L9.40119 4.09873C9.05526 3.74057 8.64147 3.45489 8.18396 3.25835C7.72644 3.06182 7.23437 2.95837 6.73644 2.95404C6.23852 2.94972 5.74472 3.0446 5.28386 3.23315C4.823 3.42171 4.4043 3.70016 4.05221 4.05225C3.70011 4.40435 3.42166 4.82305 3.23311 5.28391C3.04455 5.74477 2.94967 6.23857 2.954 6.73649C2.95833 7.23441 3.06177 7.72649 3.25831 8.184C3.45484 8.64152 3.74053 9.05531 4.09869 9.40123L6.6965 12L4.09869 14.5987C3.74053 14.9447 3.45484 15.3585 3.25831 15.816C3.06177 16.2735 2.95833 16.7656 2.954 17.2635C2.94967 17.7614 3.04455 18.2552 3.23311 18.7161C3.42166 19.1769 3.70011 19.5956 4.05221 19.9477C4.4043 20.2998 4.823 20.5783 5.28386 20.7668C5.74472 20.9554 6.23852 21.0503 6.73644 21.0459C7.23437 21.0416 7.72644 20.9381 8.18396 20.7416C8.64147 20.5451 9.05526 20.2594 9.40119 19.9012L11.9999 17.3034L14.5987 19.9012C14.9446 20.2594 15.3584 20.5451 15.8159 20.7416C16.2734 20.9381 16.7655 21.0416 17.2634 21.0459C17.7614 21.0503 18.2552 20.9554 18.716 20.7668C19.1769 20.5783 19.5956 20.2998 19.9477 19.9477C20.2998 19.5956 20.5782 19.1769 20.7668 18.7161C20.9553 18.2552 21.0502 17.7614 21.0459 17.2635C21.0416 16.7656 20.9381 16.2735 20.7416 15.816C20.545 15.3585 20.2594 14.9447 19.9012 14.5987L17.3034 12ZM11.9999 8.81811L15.1818 12L11.9999 15.1819L8.81806 12L11.9999 8.81811ZM15.6562 5.16186C16.0781 4.73917 16.6507 4.50141 17.248 4.50088C17.8452 4.50036 18.4182 4.7371 18.8409 5.15905C19.2636 5.58099 19.5013 6.15356 19.5019 6.75081C19.5024 7.34805 19.2656 7.92105 18.8437 8.34373L16.2449 10.9425L13.0603 7.7578L15.6562 5.16186ZM8.34369 18.8437C8.13439 19.053 7.88593 19.219 7.61247 19.3323C7.33901 19.4456 7.04593 19.5039 6.74994 19.5039C6.45395 19.5039 6.16086 19.4456 5.88741 19.3323C5.61395 19.219 5.36548 19.053 5.15619 18.8437C4.94689 18.6344 4.78087 18.386 4.6676 18.1125C4.55433 17.8391 4.49604 17.546 4.49604 17.25C4.49604 16.954 4.55433 16.6609 4.6676 16.3875C4.78087 16.114 4.94689 15.8655 5.15619 15.6562L7.75494 13.0575L10.9368 16.2394L8.34369 18.8437Z" fill="black"/>
</svg>
