<svg width="24" height="24" viewBox="0 0 24 24" fill="none" xmlns="http://www.w3.org/2000/svg">
<g clip-path="url(#clip0_639_9861)">
<path d="M18.7502 6V18C18.7502 18.3978 18.5921 18.7794 18.3108 19.0607C18.0295 19.342 17.648 19.5 17.2502 19.5H15.7502C15.3524 19.5 14.9708 19.342 14.6895 19.0607C14.4082 18.7794 14.2502 18.3978 14.2502 18V12.75H9.75018V18C9.75018 18.3978 9.59215 18.7794 9.31084 19.0607C9.02954 19.342 8.64801 19.5 8.25018 19.5H6.75018C6.35236 19.5 5.97083 19.342 5.68952 19.0607C5.40822 18.7794 5.25018 18.3978 5.25018 18V6C5.25018 5.60218 5.40822 5.22064 5.68952 4.93934C5.97083 4.65804 6.35236 4.5 6.75018 4.5H8.25018C8.64801 4.5 9.02954 4.65804 9.31084 4.93934C9.59215 5.22064 9.75018 5.60218 9.75018 6V11.25H14.2502V6C14.2502 5.60218 14.4082 5.22064 14.6895 4.93934C14.9708 4.65804 15.3524 4.5 15.7502 4.5H17.2502C17.648 4.5 18.0295 4.65804 18.3108 4.93934C18.5921 5.22064 18.7502 5.60218 18.7502 6ZM3.37518 6.75H3.00018C2.60236 6.75 2.22083 6.90804 1.93952 7.18934C1.65822 7.47064 1.50018 7.85218 1.50018 8.25V11.25H0.775496C0.581682 11.2471 0.393975 11.3178 0.250133 11.4477C0.106291 11.5776 0.0169861 11.7572 0.000183043 11.9503C-0.00662876 12.0529 0.00772565 12.1558 0.0423547 12.2526C0.0769837 12.3494 0.131148 12.4381 0.201482 12.5131C0.271817 12.5881 0.35682 12.6478 0.451212 12.6885C0.545603 12.7293 0.647367 12.7502 0.750183 12.75H1.50018V15.75C1.50018 16.1478 1.65822 16.5294 1.93952 16.8107C2.22083 17.092 2.60236 17.25 3.00018 17.25H3.37518C3.47464 17.25 3.57002 17.2105 3.64035 17.1402C3.71067 17.0698 3.75018 16.9745 3.75018 16.875V7.125C3.75018 7.02554 3.71067 6.93016 3.64035 6.85983C3.57002 6.78951 3.47464 6.75 3.37518 6.75ZM24.0002 11.9503C23.9834 11.7575 23.8944 11.5782 23.7509 11.4483C23.6075 11.3185 23.4202 11.2476 23.2267 11.25H22.5002V8.25C22.5002 7.85218 22.3421 7.47064 22.0608 7.18934C21.7795 6.90804 21.398 6.75 21.0002 6.75H20.6252C20.5257 6.75 20.4303 6.78951 20.36 6.85983C20.2897 6.93016 20.2502 7.02554 20.2502 7.125V16.875C20.2502 16.9745 20.2897 17.0698 20.36 17.1402C20.4303 17.2105 20.5257 17.25 20.6252 17.25H21.0002C21.398 17.25 21.7795 17.092 22.0608 16.8107C22.3421 16.5294 22.5002 16.1478 22.5002 15.75V12.75H23.2502C23.353 12.7502 23.4548 12.7293 23.5492 12.6885C23.6435 12.6478 23.7285 12.5881 23.7989 12.5131C23.8692 12.4381 23.9234 12.3494 23.958 12.2526C23.9926 12.1558 24.007 12.0529 24.0002 11.9503Z" fill="black"/>
</g>
<defs>
<clipPath id="clip0_639_9861">
<rect width="24" height="24" fill="white"/>
</clipPath>
</defs>
</svg>
