<svg width="24" height="24" viewBox="0 0 24 24" fill="none" xmlns="http://www.w3.org/2000/svg">
<path d="M19.6265 5.93252C19.5945 5.89265 19.5548 5.85973 19.5097 5.83578C19.4645 5.81182 19.415 5.79734 19.3641 5.79321C19.3132 5.78909 19.2619 5.79541 19.2136 5.81179C19.1652 5.82816 19.1206 5.85426 19.0827 5.88846C18.7652 6.17779 18.4706 6.49123 18.2015 6.82596C18.0826 6.97901 17.9103 7.08153 17.7191 7.113C17.5279 7.14446 17.3318 7.10255 17.1702 6.99565C17.0852 6.93686 17.0133 6.86115 16.959 6.77327C16.9047 6.68539 16.8691 6.58723 16.8545 6.48495C16.8399 6.38266 16.8465 6.27847 16.8741 6.17889C16.9016 6.07931 16.9495 5.9865 17.0146 5.90627C17.3115 5.53504 17.6352 5.18599 17.983 4.8619C18.0231 4.82522 18.0548 4.78027 18.0758 4.73016C18.0968 4.68004 18.1066 4.62596 18.1047 4.57166C18.1027 4.51736 18.089 4.46413 18.0644 4.41566C18.0398 4.3672 18.005 4.32465 17.9624 4.29096C16.2563 2.96805 14.1588 2.25009 11.9999 2.25009C9.84102 2.25009 7.74345 2.96805 6.03739 4.29096C5.99476 4.32465 5.95995 4.3672 5.93538 4.41566C5.91082 4.46413 5.89708 4.51736 5.89512 4.57166C5.89316 4.62596 5.90302 4.68004 5.92402 4.73016C5.94503 4.78027 5.97667 4.82522 6.01677 4.8619C6.35857 5.18032 6.67719 5.52276 6.9702 5.88658C7.0885 6.03043 7.1504 6.21241 7.14437 6.39855C7.13833 6.58469 7.06476 6.76227 6.93739 6.89815C6.86322 6.97468 6.7736 7.03452 6.67448 7.0737C6.57537 7.11287 6.46905 7.13047 6.3626 7.12533C6.25615 7.12018 6.15202 7.09241 6.05714 7.04386C5.96227 6.99531 5.87883 6.9271 5.81239 6.84377C5.53845 6.50176 5.23782 6.182 4.91333 5.88752C4.87535 5.85352 4.83083 5.82762 4.7825 5.81141C4.73417 5.79519 4.68304 5.789 4.63224 5.79322C4.58144 5.79743 4.53203 5.81195 4.48703 5.8359C4.44203 5.85986 4.40238 5.89273 4.37052 5.93252C2.99576 7.65606 2.24707 9.79536 2.24707 12C2.24707 14.2047 2.99576 16.344 4.37052 18.0675C4.40245 18.1074 4.4422 18.1403 4.48732 18.1643C4.53244 18.1882 4.58197 18.2027 4.63289 18.2068C4.6838 18.211 4.73502 18.2046 4.78341 18.1883C4.8318 18.1719 4.87632 18.1458 4.91427 18.1116C5.23172 17.8222 5.52635 17.5088 5.79552 17.1741C5.91437 17.021 6.08665 16.9185 6.27787 16.887C6.46909 16.8556 6.66513 16.8975 6.82677 17.0044C6.91194 17.063 6.9841 17.1385 7.03869 17.2263C7.09329 17.3141 7.12915 17.4122 7.14403 17.5145C7.15891 17.6168 7.15248 17.721 7.12515 17.8207C7.09781 17.9204 7.05017 18.0134 6.9852 18.0938C6.68824 18.465 6.36457 18.8141 6.01677 19.1381C5.97667 19.1748 5.94503 19.2198 5.92402 19.2699C5.90302 19.32 5.89316 19.3741 5.89512 19.4284C5.89708 19.4827 5.91082 19.5359 5.93538 19.5844C5.95995 19.6328 5.99476 19.6754 6.03739 19.7091C7.74345 21.032 9.84102 21.75 11.9999 21.75C14.1588 21.75 16.2563 21.032 17.9624 19.7091C18.005 19.6754 18.0398 19.6328 18.0644 19.5844C18.089 19.5359 18.1027 19.4827 18.1047 19.4284C18.1066 19.3741 18.0968 19.32 18.0758 19.2699C18.0548 19.2198 18.0231 19.1748 17.983 19.1381C17.6352 18.8141 17.3115 18.465 17.0146 18.0938C16.9501 18.0134 16.9029 17.9206 16.8759 17.8211C16.8489 17.7217 16.8427 17.6177 16.8577 17.5158C16.8726 17.4138 16.9084 17.3161 16.9628 17.2286C17.0173 17.1411 17.0891 17.0657 17.174 17.0072C17.3356 16.9003 17.5316 16.8584 17.7228 16.8899C17.9141 16.9213 18.0863 17.0238 18.2052 17.1769C18.4744 17.5116 18.769 17.8251 19.0865 18.1144C19.1244 18.1486 19.1689 18.1747 19.2173 18.1911C19.2657 18.2074 19.3169 18.2138 19.3678 18.2096C19.4187 18.2055 19.4683 18.191 19.5134 18.1671C19.5585 18.1431 19.5983 18.1102 19.6302 18.0703C21.005 16.3468 21.7536 14.2075 21.7536 12.0028C21.7536 9.79817 21.005 7.65887 19.6302 5.93533L19.6265 5.93252ZM7.6602 8.27815C7.84753 8.22979 8.04622 8.25403 8.21643 8.346C8.38664 8.43798 8.5158 8.59089 8.57802 8.77408C8.75667 9.28606 8.89276 9.8119 8.98489 10.3463C9.00777 10.4555 9.00598 10.5685 8.97965 10.677C8.95332 10.7854 8.90311 10.8866 8.83268 10.9732C8.76226 11.0598 8.67339 11.1296 8.57257 11.1775C8.47175 11.2254 8.36151 11.2502 8.24989 11.25C8.0611 11.2506 7.87902 11.18 7.73999 11.0523C7.60097 10.9246 7.51523 10.7491 7.49989 10.561C7.46427 10.1447 7.39583 9.72565 7.19989 9.35721C7.14636 9.258 7.11588 9.14801 7.11072 9.0354C7.10556 8.92279 7.12585 8.81047 7.17008 8.70678C7.21431 8.60309 7.28135 8.51071 7.3662 8.4365C7.45106 8.36229 7.55155 8.30817 7.6602 8.27815ZM8.98489 13.6491C8.89227 14.1937 8.75333 14.7294 8.56958 15.2503C8.53396 15.3509 8.47727 15.4428 8.40331 15.5198C8.32935 15.5967 8.23981 15.657 8.14069 15.6966C8.04156 15.7362 7.93513 15.7541 7.8285 15.7493C7.72188 15.7444 7.61752 15.7169 7.52239 15.6685C7.35844 15.581 7.2318 15.437 7.16594 15.2632C7.10008 15.0894 7.09949 14.8976 7.16427 14.7235C7.31736 14.285 7.43309 13.8343 7.5102 13.3763C7.5277 13.2713 7.56732 13.1713 7.62643 13.0829C7.68554 12.9944 7.76279 12.9196 7.85306 12.8633C7.94332 12.807 8.04453 12.7705 8.14996 12.7563C8.2554 12.7421 8.36264 12.7505 8.46458 12.781C8.64205 12.8376 8.79278 12.957 8.88855 13.1168C8.98433 13.2766 9.01858 13.4659 8.98489 13.6491ZM16.4774 15.6685C16.3823 15.7169 16.2779 15.7444 16.1713 15.7493C16.0647 15.7541 15.9582 15.7362 15.8591 15.6966C15.76 15.657 15.6704 15.5967 15.5965 15.5198C15.5225 15.4428 15.4658 15.3509 15.4302 15.2503C15.2465 14.7294 15.1075 14.1937 15.0149 13.6491C14.9814 13.4659 15.0158 13.2767 15.1115 13.117C15.2072 12.9572 15.3579 12.8378 15.5352 12.781C15.6371 12.7505 15.7444 12.7421 15.8498 12.7563C15.9553 12.7705 16.0565 12.807 16.1467 12.8633C16.237 12.9196 16.3142 12.9944 16.3734 13.0829C16.4325 13.1713 16.4721 13.2713 16.4896 13.3763C16.5667 13.8343 16.6824 14.285 16.8355 14.7235C16.9003 14.8976 16.8997 15.0894 16.8338 15.2632C16.768 15.437 16.6413 15.581 16.4774 15.6685ZM16.7971 9.35721C16.6011 9.72565 16.5327 10.1447 16.4971 10.561C16.4875 10.6712 16.4537 10.7779 16.398 10.8735C16.3424 10.9691 16.2662 11.0512 16.1751 11.1139C16.084 11.1766 15.9801 11.2184 15.8709 11.2363C15.7618 11.2541 15.65 11.2476 15.5436 11.2172C15.3645 11.1626 15.2116 11.0441 15.114 10.8843C15.0164 10.7244 14.9808 10.5343 15.014 10.35C15.1056 9.81454 15.242 9.28769 15.4218 8.77502C15.4836 8.59152 15.6127 8.43825 15.7829 8.34606C15.9532 8.25388 16.1521 8.22961 16.3396 8.27815C16.448 8.30849 16.5482 8.36286 16.6327 8.4372C16.7172 8.51155 16.784 8.60398 16.8279 8.70762C16.8718 8.81127 16.8919 8.92348 16.8866 9.03593C16.8812 9.14838 16.8506 9.25819 16.7971 9.35721Z" fill="black"/>
</svg>
