<svg width="24" height="24" viewBox="0 0 24 24" fill="none" xmlns="http://www.w3.org/2000/svg">
<path d="M5.9625 4.34904C7.36856 3.23472 9.05608 2.53213 10.8375 2.31935C10.8902 2.31339 10.9435 2.31866 10.994 2.33481C11.0445 2.35097 11.091 2.37764 11.1304 2.41308C11.1698 2.44851 11.2013 2.49191 11.2227 2.54039C11.2441 2.58887 11.255 2.64135 11.2547 2.69435V11.25H8.97188C8.78552 8.83516 7.70509 6.57669 5.94188 4.91623C5.90243 4.87957 5.87134 4.83484 5.85073 4.78509C5.83011 4.73534 5.82046 4.68173 5.82241 4.62791C5.82437 4.5741 5.8379 4.52133 5.86207 4.47321C5.88624 4.42509 5.9205 4.38274 5.9625 4.34904ZM4.3125 6.00654C3.21896 7.40213 2.52866 9.07065 2.31656 10.8309C2.31031 10.8837 2.31537 10.9373 2.33139 10.988C2.34742 11.0387 2.37405 11.0854 2.40952 11.1251C2.44498 11.1647 2.48847 11.1963 2.5371 11.2179C2.58573 11.2394 2.63838 11.2503 2.69156 11.25H7.46531C7.28031 9.22676 6.3541 7.3433 4.86469 5.96154C4.82654 5.92601 4.7814 5.89883 4.73215 5.88172C4.6829 5.86462 4.63063 5.85798 4.57867 5.86221C4.52671 5.86645 4.4762 5.88147 4.43037 5.90632C4.38454 5.93117 4.3444 5.9653 4.3125 6.00654ZM18.0375 4.34904C16.6314 3.23472 14.9439 2.53213 13.1625 2.31935C13.1098 2.31339 13.0565 2.31866 13.006 2.33481C12.9555 2.35097 12.909 2.37764 12.8696 2.41308C12.8302 2.44851 12.7987 2.49191 12.7773 2.54039C12.7559 2.58887 12.745 2.64135 12.7453 2.69435V11.25H15.0234C15.2098 8.83516 16.2902 6.57669 18.0534 4.91623C18.0932 4.87989 18.1246 4.83543 18.1456 4.78587C18.1666 4.73631 18.1767 4.6828 18.1752 4.62899C18.1737 4.57518 18.1606 4.52232 18.1368 4.47402C18.1131 4.42571 18.0792 4.38309 18.0375 4.34904ZM21.6806 10.8309C21.4693 9.07093 20.78 7.40244 19.6875 6.00654C19.6556 5.96574 19.6156 5.93199 19.57 5.90741C19.5245 5.88284 19.4743 5.86796 19.4227 5.86374C19.3711 5.85951 19.3191 5.86602 19.2702 5.88285C19.2212 5.89968 19.1762 5.92648 19.1381 5.96154C17.6477 7.34285 16.7204 9.22637 16.5347 11.25H21.3075C21.3605 11.2501 21.413 11.2389 21.4614 11.2173C21.5098 11.1956 21.553 11.1639 21.5883 11.1243C21.6236 11.0847 21.65 11.0381 21.6659 10.9875C21.6818 10.937 21.6869 10.8836 21.6806 10.8309ZM2.31938 13.169C2.53065 14.929 3.21997 16.5975 4.3125 17.9934C4.34439 18.0342 4.38439 18.068 4.42997 18.0925C4.47555 18.1171 4.52572 18.132 4.57733 18.1362C4.62895 18.1404 4.68087 18.1339 4.72984 18.1171C4.77882 18.1003 4.82377 18.0735 4.86188 18.0384C6.35233 16.6571 7.27957 14.7736 7.46531 12.75H2.6925C2.63948 12.7499 2.58703 12.761 2.53863 12.7827C2.49023 12.8043 2.44697 12.836 2.41171 12.8756C2.37645 12.9152 2.34998 12.9618 2.33407 13.0124C2.31815 13.063 2.31315 13.1164 2.31938 13.169ZM19.6875 17.9934C20.781 16.5978 21.4713 14.9293 21.6834 13.169C21.6897 13.1162 21.6846 13.0627 21.6686 13.012C21.6526 12.9613 21.626 12.9145 21.5905 12.8749C21.555 12.8353 21.5115 12.8036 21.4629 12.7821C21.4143 12.7606 21.3616 12.7496 21.3084 12.75H16.5347C16.7197 14.7732 17.6459 16.6567 19.1353 18.0384C19.1735 18.0739 19.2186 18.1011 19.2679 18.1182C19.3171 18.1353 19.3694 18.142 19.4213 18.1377C19.4733 18.1335 19.5238 18.1185 19.5696 18.0936C19.6155 18.0688 19.6556 18.0347 19.6875 17.9934ZM5.9625 19.6509C7.36856 20.7652 9.05608 21.4678 10.8375 21.6806C10.8902 21.6866 10.9435 21.6813 10.994 21.6651C11.0445 21.649 11.091 21.6223 11.1304 21.5869C11.1698 21.5514 11.2013 21.508 11.2227 21.4596C11.2441 21.4111 11.255 21.3586 11.2547 21.3056V12.75H8.97188C8.78552 15.1648 7.70509 17.4233 5.94188 19.0837C5.90243 19.1204 5.87134 19.1651 5.85073 19.2149C5.83011 19.2646 5.82046 19.3182 5.82241 19.372C5.82437 19.4259 5.8379 19.4786 5.86207 19.5267C5.88624 19.5749 5.9205 19.6172 5.9625 19.6509ZM15.0281 12.75H12.75V21.3075C12.7497 21.3605 12.7606 21.413 12.782 21.4614C12.8034 21.5099 12.8349 21.5533 12.8743 21.5887C12.9137 21.6242 12.9602 21.6509 13.0107 21.667C13.0612 21.6832 13.1145 21.6884 13.1672 21.6825C14.9486 21.4697 16.6361 20.7671 18.0422 19.6528C18.0842 19.6191 18.1184 19.5767 18.1426 19.5286C18.1668 19.4805 18.1803 19.4277 18.1823 19.3739C18.1842 19.3201 18.1746 19.2665 18.154 19.2167C18.1333 19.167 18.1023 19.1223 18.0628 19.0856C16.2975 17.4254 15.2153 15.1661 15.0281 12.75Z" fill="black"/>
</svg>
