<svg width="24" height="24" viewBox="0 0 24 24" fill="none" xmlns="http://www.w3.org/2000/svg">
<path d="M23.0309 3.96938L20.0309 0.96938C19.8902 0.82865 19.6993 0.749588 19.5003 0.749588C19.3012 0.749588 19.1104 0.82865 18.9696 0.96938C18.8289 1.11011 18.7498 1.30098 18.7498 1.50001C18.7498 1.69903 18.8289 1.8899 18.9696 2.03063L19.1084 2.16844L13.9362 6.04782L10.3531 6.76501C10.208 6.79407 10.0747 6.86514 9.96964 6.96938L2.15652 14.7806C1.73459 15.2026 1.49756 15.7749 1.49756 16.3716C1.49756 16.9683 1.73459 17.5406 2.15652 17.9625L6.03777 21.8438C6.45972 22.2657 7.03199 22.5027 7.6287 22.5027C8.22541 22.5027 8.79769 22.2657 9.21964 21.8438L17.0309 14.0334C17.1354 13.9286 17.2065 13.7952 17.2353 13.65L17.9525 10.0669L21.8318 4.89469L21.9696 5.03344C22.0393 5.10313 22.122 5.1584 22.2131 5.19611C22.3041 5.23382 22.4017 5.25323 22.5003 5.25323C22.5988 5.25323 22.6964 5.23382 22.7874 5.19611C22.8785 5.1584 22.9612 5.10313 23.0309 5.03344C23.1006 4.96376 23.1558 4.88103 23.1936 4.78999C23.2313 4.69894 23.2507 4.60136 23.2507 4.50282C23.2507 4.40427 23.2313 4.30669 23.1936 4.21565C23.1558 4.1246 23.1006 4.04188 23.0309 3.97219V3.96938ZM7.6287 21C7.5303 21.0003 7.43281 20.981 7.34189 20.9434C7.25097 20.9057 7.16842 20.8504 7.09902 20.7806L3.21964 16.9013C3.07909 16.7606 3.00014 16.5699 3.00014 16.3711C3.00014 16.1723 3.07909 15.9816 3.21964 15.8409L3.75027 15.3103L8.68995 20.25L8.15652 20.7806C8.01643 20.9206 7.8267 20.9994 7.6287 21ZM16.6503 9.3C16.583 9.38948 16.5369 9.493 16.5153 9.60282L15.8093 13.1306L15.0003 13.9397L10.0606 9L10.8696 8.19094L14.3975 7.485C14.5073 7.4634 14.6108 7.41725 14.7003 7.35001L20.18 3.24001L20.7603 3.82032L16.6503 9.3Z" fill="black"/>
</svg>
