<svg width="24" height="24" viewBox="0 0 24 24" fill="none" xmlns="http://www.w3.org/2000/svg">
<path d="M15.7499 21C15.7499 21.1989 15.6709 21.3897 15.5303 21.5303C15.3896 21.671 15.1988 21.75 14.9999 21.75H8.99993C8.80102 21.75 8.61025 21.671 8.4696 21.5303C8.32895 21.3897 8.24993 21.1989 8.24993 21C8.24993 20.8011 8.32895 20.6103 8.4696 20.4697C8.61025 20.329 8.80102 20.25 8.99993 20.25H14.9999C15.1988 20.25 15.3896 20.329 15.5303 20.4697C15.6709 20.6103 15.7499 20.8011 15.7499 21ZM20.7984 18C20.6682 18.2292 20.4793 18.4196 20.2511 18.5514C20.0228 18.6833 19.7635 18.7518 19.4999 18.75H4.49993C4.23625 18.7496 3.97731 18.6798 3.74923 18.5475C3.52115 18.4151 3.33198 18.225 3.20079 17.9963C3.0696 17.7676 3.00102 17.5083 3.00196 17.2446C3.00291 16.9809 3.07335 16.7222 3.20618 16.4944C3.72649 15.5981 4.49993 13.0631 4.49993 9.75C4.49993 7.76088 5.29011 5.85322 6.69663 4.4467C8.10315 3.04018 10.0108 2.25 11.9999 2.25C13.9891 2.25 15.8967 3.04018 17.3032 4.4467C18.7098 5.85322 19.4999 7.76088 19.4999 9.75C19.4999 13.0622 20.2743 15.5981 20.7946 16.4944C20.9288 16.7225 20.9997 16.9822 21.0002 17.2468C21.0007 17.5114 20.9307 17.7714 20.7974 18H20.7984ZM14.2499 13.5C14.2499 13.3011 14.1709 13.1103 14.0303 12.9697C13.8896 12.829 13.6988 12.75 13.4999 12.75H11.9062L14.1281 9.41625C14.2036 9.30301 14.2469 9.17134 14.2533 9.03535C14.2598 8.89937 14.229 8.76421 14.1645 8.64435C14.0999 8.52449 14.004 8.42447 13.8869 8.355C13.7698 8.28553 13.6361 8.24923 13.4999 8.25H10.4999C10.301 8.25 10.1103 8.32902 9.9696 8.46967C9.82895 8.61032 9.74993 8.80109 9.74993 9C9.74993 9.19891 9.82895 9.38968 9.9696 9.53033C10.1103 9.67098 10.301 9.75 10.4999 9.75H12.0984L9.87649 13.0837C9.80116 13.1967 9.75788 13.3279 9.75127 13.4635C9.74466 13.599 9.77496 13.7339 9.83895 13.8536C9.90294 13.9733 9.99822 14.0734 10.1146 14.1432C10.231 14.213 10.3642 14.2499 10.4999 14.25H13.4999C13.6988 14.25 13.8896 14.171 14.0303 14.0303C14.1709 13.8897 14.2499 13.6989 14.2499 13.5Z" fill="black"/>
</svg>
