<svg width="24" height="24" viewBox="0 0 24 24" fill="none" xmlns="http://www.w3.org/2000/svg">
<path d="M15.75 21C15.75 21.1989 15.671 21.3897 15.5303 21.5303C15.3897 21.671 15.1989 21.75 15 21.75H9.00002C8.80111 21.75 8.61034 21.671 8.46969 21.5303C8.32904 21.3897 8.25002 21.1989 8.25002 21C8.25002 20.8011 8.32904 20.6103 8.46969 20.4697C8.61034 20.329 8.80111 20.25 9.00002 20.25H15C15.1989 20.25 15.3897 20.329 15.5303 20.4697C15.671 20.6103 15.75 20.8011 15.75 21ZM21.3178 5.655C20.4749 4.00749 19.2092 2.61365 17.6503 1.61625C17.567 1.56305 17.4741 1.52683 17.3767 1.50968C17.2794 1.49253 17.1796 1.49479 17.0832 1.51633C16.9867 1.53786 16.8955 1.57825 16.8147 1.63517C16.7339 1.69208 16.6651 1.76441 16.6124 1.84799C16.5596 1.93156 16.5239 2.02474 16.5073 2.12217C16.4906 2.21959 16.4934 2.31934 16.5155 2.41568C16.5376 2.51202 16.5784 2.60306 16.6358 2.68354C16.6931 2.76403 16.7658 2.83239 16.8497 2.88469C18.1871 3.73547 19.2707 4.93078 19.9866 6.345C20.0812 6.51594 20.2388 6.64322 20.4258 6.69976C20.6128 6.75629 20.8145 6.73762 20.9879 6.64772C21.1614 6.55781 21.2929 6.40377 21.3545 6.21837C21.4161 6.03297 21.403 5.83085 21.3178 5.655ZM3.34783 6.75C3.48523 6.74995 3.61998 6.71214 3.73736 6.64072C3.85474 6.5693 3.95025 6.46701 4.01346 6.345C4.72933 4.93078 5.81291 3.73547 7.15033 2.88469C7.23419 2.83239 7.30689 2.76403 7.36424 2.68354C7.4216 2.60306 7.46248 2.51202 7.48454 2.41568C7.50659 2.31934 7.50939 2.21959 7.49277 2.12217C7.47615 2.02474 7.44043 1.93156 7.38768 1.84799C7.33493 1.76441 7.26617 1.69208 7.18538 1.63517C7.10458 1.57825 7.01333 1.53786 6.91687 1.51633C6.82041 1.49479 6.72065 1.49253 6.62331 1.50968C6.52598 1.52683 6.433 1.56305 6.34971 1.61625C4.79085 2.61365 3.52514 4.00749 2.68221 5.655C2.62299 5.7693 2.59419 5.89692 2.59858 6.02557C2.60297 6.15422 2.6404 6.27958 2.70726 6.38958C2.77413 6.49958 2.86818 6.59052 2.98037 6.65364C3.09256 6.71676 3.2191 6.74995 3.34783 6.75ZM19.5 10.5C19.5 8.51088 18.7098 6.60323 17.3033 5.1967C15.8968 3.79018 13.9891 3 12 3C10.0109 3 8.10324 3.79018 6.69672 5.1967C5.29019 6.60323 4.50002 8.51088 4.50002 10.5C4.50002 12.9638 4.05189 15.0366 3.20533 16.4944C3.07246 16.7222 3.00202 16.9811 3.00111 17.2449C3.00021 17.5086 3.06887 17.768 3.20017 17.9967C3.33148 18.2255 3.52078 18.4156 3.74899 18.5478C3.9772 18.6801 4.23625 18.7498 4.50002 18.75H19.5C19.7636 18.7495 20.0224 18.6795 20.2504 18.5471C20.4783 18.4147 20.6674 18.2246 20.7985 17.9959C20.9295 17.7672 20.998 17.508 20.997 17.2444C20.9961 16.9808 20.9256 16.7221 20.7928 16.4944C19.9481 15.0356 19.5 12.9628 19.5 10.5Z" fill="black"/>
</svg>
