<svg width="24" height="24" viewBox="0 0 24 24" fill="none" xmlns="http://www.w3.org/2000/svg">
<path d="M20.0568 19.7456C20.1244 19.8183 20.177 19.9036 20.2114 19.9967C20.2458 20.0898 20.2613 20.1888 20.2572 20.288C20.2531 20.3871 20.2293 20.4845 20.1872 20.5744C20.1452 20.6643 20.0857 20.745 20.0123 20.8117C19.9388 20.8785 19.8528 20.93 19.7593 20.9632C19.6658 20.9965 19.5667 21.0109 19.4676 21.0056C19.3685 21.0003 19.2714 20.9753 19.182 20.9322C19.0926 20.8891 19.0127 20.8286 18.9468 20.7544L17.1243 18.75H4.49993C4.23624 18.7497 3.97731 18.6798 3.74923 18.5475C3.52115 18.4152 3.33198 18.2251 3.20079 17.9963C3.0696 17.7676 3.00102 17.5083 3.00196 17.2446C3.00291 16.981 3.07335 16.7222 3.20618 16.4944C3.72649 15.5981 4.49993 13.0631 4.49993 9.75002C4.49782 8.42579 4.8486 7.12491 5.51618 5.98127L3.9468 4.25439C3.87918 4.18175 3.82665 4.09641 3.79225 4.00331C3.75785 3.91022 3.74227 3.81122 3.74641 3.71206C3.75055 3.61289 3.77434 3.51554 3.81638 3.42564C3.85843 3.33574 3.9179 3.25507 3.99135 3.18832C4.06479 3.12158 4.15076 3.07007 4.24426 3.03679C4.33777 3.00351 4.43694 2.98912 4.53605 2.99445C4.63515 2.99978 4.73221 3.02473 4.8216 3.06785C4.911 3.11097 4.99094 3.1714 5.0568 3.24564L20.0568 19.7456ZM14.9999 20.25H8.99993C8.80102 20.25 8.61025 20.329 8.4696 20.4697C8.32895 20.6103 8.24993 20.8011 8.24993 21C8.24993 21.1989 8.32895 21.3897 8.4696 21.5303C8.61025 21.671 8.80102 21.75 8.99993 21.75H14.9999C15.1988 21.75 15.3896 21.671 15.5303 21.5303C15.6709 21.3897 15.7499 21.1989 15.7499 21C15.7499 20.8011 15.6709 20.6103 15.5303 20.4697C15.3896 20.329 15.1988 20.25 14.9999 20.25ZM20.4852 15.8325C20.2565 15.2428 19.4999 13.0641 19.4999 9.75002C19.5001 8.43837 19.1562 7.14961 18.5027 6.01236C17.8492 4.87511 16.9089 3.92913 15.7755 3.26883C14.6422 2.60853 13.3555 2.25699 12.0439 2.2493C10.7323 2.24162 9.44154 2.57805 8.30055 3.22502C8.2025 3.2803 8.11814 3.35695 8.05374 3.44927C7.98934 3.5416 7.94655 3.64724 7.92854 3.75836C7.91053 3.86947 7.91776 3.98322 7.94971 4.09116C7.98165 4.1991 8.03748 4.29847 8.11305 4.38189L19.2346 16.6106C19.3527 16.7398 19.5123 16.8237 19.6856 16.8476C19.859 16.8716 20.0353 16.8341 20.184 16.7417C20.3327 16.6494 20.4444 16.5079 20.4997 16.3419C20.5551 16.1758 20.5506 15.9956 20.4871 15.8325H20.4852Z" fill="black"/>
</svg>
