<svg width="24" height="24" viewBox="0 0 24 24" fill="none" xmlns="http://www.w3.org/2000/svg">
<path d="M20.7936 16.4944C20.2733 15.5981 19.4999 13.0622 19.4999 9.75C19.4999 7.76088 18.7097 5.85322 17.3032 4.4467C15.8967 3.04018 13.989 2.25 11.9999 2.25C10.0108 2.25 8.10311 3.04018 6.69659 4.4467C5.29007 5.85322 4.49989 7.76088 4.49989 9.75C4.49989 13.0631 3.72551 15.5981 3.2052 16.4944C3.07233 16.7222 3.00189 16.9811 3.00099 17.2449C3.00008 17.5086 3.06874 17.768 3.20005 17.9967C3.33135 18.2255 3.52065 18.4156 3.74886 18.5478C3.97708 18.6801 4.23613 18.7498 4.49989 18.75H8.32583C8.49886 19.5967 8.95904 20.3577 9.62852 20.9042C10.298 21.4507 11.1357 21.7492 11.9999 21.7492C12.8641 21.7492 13.7018 21.4507 14.3713 20.9042C15.0407 20.3577 15.5009 19.5967 15.674 18.75H19.4999C19.7636 18.7496 20.0225 18.6798 20.2506 18.5475C20.4787 18.4151 20.6678 18.225 20.799 17.9963C20.9302 17.7676 20.9988 17.5083 20.9979 17.2446C20.9969 16.9809 20.9265 16.7222 20.7936 16.4944ZM11.9999 20.25C11.5347 20.2499 11.081 20.1055 10.7013 19.8369C10.3215 19.5683 10.0343 19.1886 9.87927 18.75H14.1205C13.9655 19.1886 13.6783 19.5683 13.2985 19.8369C12.9188 20.1055 12.4651 20.2499 11.9999 20.25ZM13.4999 14.25H10.4999C10.3642 14.2499 10.231 14.213 10.1146 14.1432C9.99818 14.0734 9.9029 13.9733 9.83891 13.8536C9.77493 13.7339 9.74462 13.599 9.75123 13.4635C9.75784 13.3279 9.80112 13.1967 9.87645 13.0837L12.0983 9.75H10.4999C10.301 9.75 10.1102 9.67098 9.96956 9.53033C9.82891 9.38968 9.74989 9.19891 9.74989 9C9.74989 8.80109 9.82891 8.61032 9.96956 8.46967C10.1102 8.32902 10.301 8.25 10.4999 8.25H13.4999C13.6356 8.25008 13.7688 8.287 13.8852 8.35681C14.0016 8.42663 14.0969 8.52672 14.1609 8.64642C14.2249 8.76613 14.2552 8.90095 14.2486 9.03653C14.2419 9.1721 14.1987 9.30334 14.1233 9.41625L11.9061 12.75H13.4999C13.6988 12.75 13.8896 12.829 14.0302 12.9697C14.1709 13.1103 14.2499 13.3011 14.2499 13.5C14.2499 13.6989 14.1709 13.8897 14.0302 14.0303C13.8896 14.171 13.6988 14.25 13.4999 14.25Z" fill="black"/>
</svg>
