<svg width="24" height="24" viewBox="0 0 24 24" fill="none" xmlns="http://www.w3.org/2000/svg">
<path d="M5.05673 3.24562C4.99086 3.17138 4.91092 3.11095 4.82153 3.06783C4.73213 3.02471 4.63507 2.99976 4.53597 2.99443C4.43686 2.9891 4.33769 3.00349 4.24418 3.03677C4.15068 3.07005 4.06472 3.12156 3.99127 3.18831C3.91782 3.25505 3.85835 3.33572 3.8163 3.42562C3.77426 3.51552 3.75047 3.61288 3.74633 3.71204C3.74219 3.8112 3.75777 3.9102 3.79217 4.00329C3.82657 4.09639 3.8791 4.18173 3.94673 4.25437L5.5161 5.98125C4.84852 7.12489 4.49774 8.42577 4.49985 9.75C4.49985 13.0631 3.72454 15.5981 3.20423 16.4944C3.07131 16.7223 3.00087 16.9812 3.00001 17.2451C2.99914 17.5089 3.06789 17.7683 3.1993 17.9971C3.33072 18.2259 3.52015 18.416 3.7485 18.5482C3.97684 18.6804 4.23601 18.75 4.49985 18.75H8.32673C8.49931 19.5972 8.95936 20.3588 9.62897 20.9057C10.2986 21.4527 11.1366 21.7515 12.0013 21.7515C12.8659 21.7515 13.7039 21.4527 14.3735 20.9057C15.0432 20.3588 15.5032 19.5972 15.6758 18.75H17.1242L18.9467 20.7544C19.0126 20.8286 19.0925 20.8891 19.1819 20.9322C19.2713 20.9753 19.3684 21.0002 19.4675 21.0056C19.5666 21.0109 19.6658 20.9965 19.7593 20.9632C19.8528 20.93 19.9387 20.8784 20.0122 20.8117C20.0856 20.7449 20.1451 20.6643 20.1871 20.5744C20.2292 20.4845 20.253 20.3871 20.2571 20.288C20.2613 20.1888 20.2457 20.0898 20.2113 19.9967C20.1769 19.9036 20.1244 19.8183 20.0567 19.7456L5.05673 3.24562ZM11.9999 20.25C11.5345 20.25 11.0806 20.1058 10.7007 19.8372C10.3207 19.5686 10.0334 19.1887 9.87829 18.75H14.1205C13.9654 19.1886 13.6782 19.5683 13.2985 19.8369C12.9187 20.1055 12.465 20.2499 11.9999 20.25ZM20.1833 16.7428C20.0344 16.8354 19.8577 16.8728 19.6841 16.8487C19.5104 16.8245 19.3507 16.7403 19.2327 16.6106L8.11673 4.38188C8.04115 4.29845 7.98532 4.19908 7.95338 4.09114C7.92144 3.9832 7.9142 3.86946 7.93221 3.75834C7.95022 3.64722 7.99301 3.54158 8.05741 3.44925C8.12181 3.35693 8.20617 3.28028 8.30423 3.225C9.44511 2.57895 10.7354 2.24327 12.0465 2.25143C13.3576 2.25958 14.6436 2.61129 15.7764 3.27148C16.9091 3.93168 17.8491 4.87728 18.5024 6.01402C19.1557 7.15075 19.4996 8.43889 19.4999 9.75C19.4999 13.0641 20.2499 15.2428 20.4852 15.8325C20.5492 15.9954 20.5543 16.1756 20.4995 16.3418C20.4448 16.5081 20.3335 16.6499 20.1852 16.7428H20.1833Z" fill="black"/>
</svg>
