<svg width="24" height="24" viewBox="0 0 24 24" fill="none" xmlns="http://www.w3.org/2000/svg">
<path d="M20.7188 13.5375C20.1667 11.3714 18.8305 9.48723 16.9688 8.25H22.5C22.6989 8.25 22.8897 8.17098 23.0303 8.03033C23.171 7.88968 23.25 7.69891 23.25 7.5C23.25 7.30109 23.171 7.11032 23.0303 6.96967C22.8897 6.82902 22.6989 6.75 22.5 6.75H14.9062C14.741 6.10469 14.3657 5.53272 13.8395 5.12427C13.3133 4.71582 12.6661 4.49412 12 4.49412C11.3339 4.49412 10.6867 4.71582 10.1605 5.12427C9.63428 5.53272 9.25898 6.10469 9.09375 6.75H1.5C1.30109 6.75 1.11032 6.82902 0.96967 6.96967C0.829018 7.11032 0.75 7.30109 0.75 7.5C0.75 7.69891 0.829018 7.88968 0.96967 8.03033C1.11032 8.17098 1.30109 8.25 1.5 8.25H7.03125C5.16953 9.48723 3.83325 11.3714 3.28125 13.5375C2.74686 13.6223 2.24535 13.85 1.82984 14.1966C1.41432 14.5432 1.10027 14.9957 0.920951 15.5062C0.741628 16.0167 0.703707 16.5662 0.811204 17.0964C0.918701 17.6267 1.16761 18.1181 1.53158 18.5184C1.89555 18.9188 2.36102 19.2133 2.87869 19.3707C3.39637 19.5281 3.94698 19.5426 4.4722 19.4125C4.99743 19.2825 5.47772 19.0129 5.86221 18.6322C6.24669 18.2515 6.52106 17.7739 6.65625 17.25H17.3438C17.4789 17.7739 17.7533 18.2515 18.1378 18.6322C18.5223 19.0129 19.0026 19.2825 19.5278 19.4125C20.053 19.5426 20.6036 19.5281 21.1213 19.3707C21.639 19.2133 22.1045 18.9188 22.4684 18.5184C22.8324 18.1181 23.0813 17.6267 23.1888 17.0964C23.2963 16.5662 23.2584 16.0167 23.0791 15.5062C22.8997 14.9957 22.5857 14.5432 22.1702 14.1966C21.7546 13.85 21.2531 13.6223 20.7188 13.5375ZM3.75 18C3.45333 18 3.16332 17.912 2.91664 17.7472C2.66997 17.5824 2.47771 17.3481 2.36418 17.074C2.25065 16.7999 2.22094 16.4983 2.27882 16.2074C2.3367 15.9164 2.47956 15.6491 2.68934 15.4393C2.89912 15.2296 3.16639 15.0867 3.45736 15.0288C3.74834 14.9709 4.04994 15.0006 4.32403 15.1142C4.59811 15.2277 4.83238 15.42 4.9972 15.6666C5.16203 15.9133 5.25 16.2033 5.25 16.5C5.25 16.8978 5.09196 17.2794 4.81066 17.5607C4.52936 17.842 4.14782 18 3.75 18ZM12 6C12.2967 6 12.5867 6.08797 12.8334 6.2528C13.08 6.41762 13.2723 6.65189 13.3858 6.92598C13.4994 7.20006 13.5291 7.50166 13.4712 7.79264C13.4133 8.08361 13.2704 8.35088 13.0607 8.56066C12.8509 8.77044 12.5836 8.9133 12.2926 8.97118C12.0017 9.02906 11.7001 8.99935 11.426 8.88582C11.1519 8.77229 10.9176 8.58003 10.7528 8.33336C10.588 8.08668 10.5 7.79667 10.5 7.5C10.5 7.10218 10.658 6.72064 10.9393 6.43934C11.2206 6.15804 11.6022 6 12 6ZM20.25 18C19.9533 18 19.6633 17.912 19.4166 17.7472C19.17 17.5824 18.9777 17.3481 18.8642 17.074C18.7506 16.7999 18.7209 16.4983 18.7788 16.2074C18.8367 15.9164 18.9796 15.6491 19.1893 15.4393C19.3991 15.2296 19.6664 15.0867 19.9574 15.0288C20.2483 14.9709 20.5499 15.0006 20.824 15.1142C21.0981 15.2277 21.3324 15.42 21.4972 15.6666C21.662 15.9133 21.75 16.2033 21.75 16.5C21.75 16.8978 21.592 17.2794 21.3107 17.5607C21.0294 17.842 20.6478 18 20.25 18Z" fill="black"/>
</svg>
