<svg width="24" height="24" viewBox="0 0 24 24" fill="none" xmlns="http://www.w3.org/2000/svg">
<g clip-path="url(#clip0_639_9887)">
<path d="M5.1056 15.4416L7.71841 11.8594C8.50576 12.6676 8.96077 13.7421 8.99326 14.8699C9.02576 15.9978 8.63336 17.0967 7.89384 17.9489C7.15432 18.8011 6.12164 19.3443 5.00045 19.4711C3.87926 19.5978 2.75139 19.2986 1.84034 18.633C0.929286 17.9673 0.301547 16.9837 0.0815189 15.877C-0.138509 14.7704 0.0652313 13.6214 0.652365 12.6579C1.2395 11.6944 2.16718 10.9866 3.25156 10.6748C4.33595 10.3629 5.4979 10.4699 6.50716 10.9744L3.89435 14.5584C3.83206 14.6377 3.78637 14.7286 3.76002 14.8259C3.73367 14.9232 3.7272 15.0248 3.74099 15.1246C3.75478 15.2244 3.78855 15.3205 3.84028 15.407C3.89201 15.4935 3.96065 15.5686 4.04208 15.628C4.12352 15.6874 4.21609 15.7297 4.31426 15.7525C4.41242 15.7753 4.51418 15.7781 4.61345 15.7607C4.71272 15.7433 4.80746 15.7061 4.89202 15.6513C4.97658 15.5964 5.04922 15.5251 5.1056 15.4416ZM19.5 10.5C18.9577 10.4998 18.42 10.5979 17.9128 10.7897L20.1478 14.625C20.2046 14.7103 20.2433 14.8063 20.2615 14.9071C20.2798 15.0079 20.2772 15.1114 20.2539 15.2112C20.2306 15.3109 20.1872 15.4049 20.1262 15.4872C20.0652 15.5695 19.988 15.6385 19.8993 15.6898C19.8106 15.7411 19.7124 15.7738 19.6106 15.7857C19.5088 15.7975 19.4057 15.7885 19.3076 15.759C19.2095 15.7295 19.1185 15.6802 19.0401 15.6141C18.9618 15.5481 18.8978 15.4667 18.8522 15.375L16.6181 11.5444C15.8052 12.2224 15.2574 13.1653 15.0709 14.2073C14.8845 15.2493 15.0713 16.3237 15.5986 17.2416C16.1259 18.1595 16.9599 18.8621 17.954 19.2259C18.9481 19.5897 20.0386 19.5914 21.0338 19.2308C22.029 18.8701 22.8652 18.1701 23.3954 17.2539C23.9256 16.3377 24.1159 15.264 23.9327 14.2214C23.7495 13.1788 23.2047 12.2341 22.394 11.5535C21.5832 10.8729 20.5585 10.4999 19.5 10.5ZM15.5559 6.75H18C18.1989 6.75 18.3897 6.82902 18.5303 6.96967C18.671 7.11032 18.75 7.30109 18.75 7.5C18.75 7.69891 18.829 7.88968 18.9696 8.03033C19.1103 8.17098 19.3011 8.25 19.5 8.25C19.6989 8.25 19.8897 8.17098 20.0303 8.03033C20.171 7.88968 20.25 7.69891 20.25 7.5C20.25 6.90326 20.0129 6.33097 19.591 5.90901C19.169 5.48705 18.5967 5.25 18 5.25H14.25C14.1185 5.2503 13.9893 5.28517 13.8756 5.35112C13.7618 5.41707 13.6674 5.51177 13.6017 5.62574C13.5361 5.7397 13.5016 5.86892 13.5017 6.00043C13.5018 6.13193 13.5364 6.26111 13.6022 6.375L14.6943 8.25H9.3056L7.77279 5.625C7.7071 5.51124 7.61269 5.41672 7.499 5.35091C7.38532 5.2851 7.25634 5.2503 7.12497 5.25H4.49997C4.30106 5.25 4.11029 5.32902 3.96964 5.46967C3.82899 5.61032 3.74997 5.80109 3.74997 6C3.74997 6.19891 3.82899 6.38968 3.96964 6.53033C4.11029 6.67098 4.30106 6.75 4.49997 6.75H6.69466L7.97997 8.95406L6.50716 10.9744C6.9577 11.1993 7.36717 11.4985 7.71841 11.8594L8.80497 10.3687L11.7272 15.375C11.7728 15.4667 11.8368 15.5481 11.9151 15.6141C11.9935 15.6802 12.0845 15.7295 12.1826 15.759C12.2807 15.7885 12.3838 15.7975 12.4856 15.7857C12.5874 15.7738 12.6856 15.7411 12.7743 15.6898C12.863 15.6385 12.9402 15.5695 13.0012 15.4872C13.0622 15.4049 13.1056 15.3109 13.1289 15.2112C13.1522 15.1114 13.1548 15.0079 13.1365 14.9071C13.1183 14.8063 13.0796 14.7103 13.0228 14.625L10.1803 9.75H15.569L16.6181 11.5472C17.0044 11.2242 17.442 10.9682 17.9128 10.7897L15.5559 6.75Z" fill="black"/>
</g>
<defs>
<clipPath id="clip0_639_9887">
<rect width="24" height="24" fill="white"/>
</clipPath>
</defs>
</svg>
