<svg width="24" height="24" viewBox="0 0 24 24" fill="none" xmlns="http://www.w3.org/2000/svg">
<path d="M22.2391 14.2406V14.2313C22.2375 14.2242 22.2353 14.2173 22.2325 14.2106C22.1703 14.0408 22.098 13.8749 22.016 13.7138L18.1188 4.85625C18.0813 4.77094 18.0282 4.69336 17.9622 4.6275C17.6836 4.34885 17.3529 4.12781 16.9889 3.97701C16.6248 3.8262 16.2347 3.74858 15.8406 3.74858C15.4466 3.74858 15.0565 3.8262 14.6924 3.97701C14.3284 4.12781 13.9977 4.34885 13.7191 4.6275C13.5789 4.76781 13.5001 4.95793 13.4997 5.15625V7.5H10.4997V5.15625C10.4998 5.05773 10.4805 4.96016 10.4428 4.86911C10.4052 4.77807 10.35 4.69533 10.2803 4.62563C10.0018 4.34698 9.671 4.12594 9.30698 3.97513C8.94296 3.82432 8.5528 3.7467 8.15877 3.7467C7.76475 3.7467 7.37459 3.82432 7.01057 3.97513C6.64654 4.12594 6.3158 4.34698 6.03721 4.62563C5.97126 4.69149 5.91817 4.76906 5.88065 4.85438L1.98721 13.7138C1.9052 13.8749 1.83288 14.0408 1.77065 14.2106C1.76804 14.217 1.76585 14.2236 1.76409 14.2303C1.76409 14.2303 1.76409 14.2378 1.76409 14.2406C1.37689 15.3594 1.44616 16.5857 1.95689 17.6537C2.46763 18.7218 3.37867 19.5455 4.49258 19.9465C5.6065 20.3474 6.83354 20.2932 7.90779 19.7957C8.98204 19.2982 9.81696 18.3973 10.2316 17.2884C10.4142 16.7903 10.5062 16.2636 10.5035 15.7331V9H13.5035V15.7341C13.5007 16.2646 13.5928 16.7913 13.7753 17.2894C14.19 18.3983 15.0249 19.2991 16.0991 19.7966C17.1734 20.2942 18.4004 20.3483 19.5143 19.9474C20.6283 19.5465 21.5393 18.7227 22.05 17.6547C22.5608 16.5866 22.63 15.3603 22.2428 14.2416L22.2391 14.2406ZM8.81877 16.7719C8.54182 17.5109 7.98484 18.1109 7.26851 18.4421C6.55219 18.7733 5.73422 18.8089 4.99185 18.5412C4.24947 18.2734 3.64249 17.724 3.30241 17.0118C2.96234 16.2997 2.91657 15.4822 3.17502 14.7366L3.34471 14.3494C3.65659 13.7565 4.15791 13.2851 4.7688 13.0103C5.37968 12.7354 6.06498 12.6729 6.7155 12.8328C7.36602 12.9926 7.94434 13.3655 8.3583 13.8922C8.77227 14.4188 8.99806 15.0689 8.99971 15.7388V15.75C8.99966 16.0998 8.93842 16.4469 8.81877 16.7756V16.7719ZM19.031 18.5691C18.5775 18.7351 18.0906 18.7891 17.6118 18.7267C17.1329 18.6642 16.6762 18.4871 16.2805 18.2104C15.8847 17.9336 15.5616 17.5654 15.3387 17.1371C15.1157 16.7088 14.9994 16.2329 14.9997 15.75V15.7397C15.0022 15.0701 15.2286 14.4207 15.6428 13.8947C16.0571 13.3686 16.6354 12.9963 17.2857 12.837C17.936 12.6776 18.621 12.7404 19.2315 13.0153C19.842 13.2903 20.343 13.7615 20.6547 14.3541L20.8244 14.7413C21.0912 15.4868 21.0523 16.3076 20.7164 17.0247C20.3804 17.7417 19.7746 18.2969 19.031 18.5691Z" fill="black"/>
</svg>
