<svg width="24" height="24" viewBox="0 0 24 24" fill="none" xmlns="http://www.w3.org/2000/svg">
<g clip-path="url(#clip0_639_9917)">
<path d="M22.1662 6.87562L19.9884 5.42438C19.5835 4.1432 18.7332 3.0493 17.5917 2.34064C16.4501 1.63198 15.0925 1.35538 13.7647 1.56088C12.4368 1.76639 11.2264 2.44042 10.3524 3.46102C9.47847 4.48161 8.99872 5.78134 8.99998 7.125V8.73656L0.164044 19.7812C0.0757064 19.8916 0.0203439 20.0246 0.00433724 20.1651C-0.0116695 20.3055 0.0123311 20.4476 0.0735728 20.575C0.134815 20.7024 0.230804 20.8098 0.350479 20.885C0.470154 20.9602 0.608642 21.0001 0.749981 21H10.5C13.085 20.9973 15.5634 19.9692 17.3913 18.1413C19.2191 16.3134 20.2473 13.835 20.25 11.25V9.40125L22.1662 8.12438C22.2691 8.05591 22.3535 7.96309 22.4118 7.85416C22.4702 7.74523 22.5007 7.62357 22.5007 7.5C22.5007 7.37643 22.4702 7.25477 22.4118 7.14584C22.3535 7.03691 22.2691 6.94409 22.1662 6.87562ZM10.3265 13.23L6.57654 17.73C6.44924 17.8829 6.2664 17.979 6.06826 17.9971C5.87012 18.0152 5.6729 17.9539 5.51998 17.8266C5.36707 17.6993 5.27099 17.5164 5.25288 17.3183C5.23477 17.1201 5.29611 16.9229 5.42342 16.77L9.17342 12.27C9.23645 12.1943 9.31378 12.1317 9.401 12.0859C9.48821 12.0401 9.58359 12.0119 9.6817 12.0029C9.77981 11.9939 9.87873 12.0044 9.9728 12.0336C10.0669 12.0629 10.1543 12.1104 10.23 12.1734C10.3057 12.2365 10.3683 12.3138 10.4141 12.401C10.4599 12.4882 10.4881 12.5836 10.4971 12.6817C10.5061 12.7798 10.4956 12.8787 10.4663 12.9728C10.4371 13.0669 10.3896 13.1543 10.3265 13.23ZM15.375 7.5C15.1525 7.5 14.935 7.43402 14.75 7.3104C14.565 7.18679 14.4208 7.01109 14.3356 6.80552C14.2505 6.59995 14.2282 6.37375 14.2716 6.15552C14.315 5.93729 14.4222 5.73684 14.5795 5.5795C14.7368 5.42217 14.9373 5.31502 15.1555 5.27162C15.3737 5.22821 15.5999 5.25049 15.8055 5.33564C16.0111 5.42078 16.1868 5.56498 16.3104 5.74998C16.434 5.93499 16.5 6.1525 16.5 6.375C16.5 6.67337 16.3815 6.95952 16.1705 7.1705C15.9595 7.38147 15.6733 7.5 15.375 7.5Z" fill="black"/>
</g>
<defs>
<clipPath id="clip0_639_9917">
<rect width="24" height="24" fill="white"/>
</clipPath>
</defs>
</svg>
