<svg width="24" height="24" viewBox="0 0 24 24" fill="none" xmlns="http://www.w3.org/2000/svg">
<path d="M18 16.5C18 16.6164 17.9729 16.7313 17.9209 16.8354C17.8688 16.9395 17.7932 17.0301 17.7 17.1L11.7 21.6C11.5702 21.6974 11.4123 21.75 11.25 21.75C11.1142 21.7504 10.9809 21.7134 10.8647 21.6431C10.7509 21.572 10.6574 21.4726 10.5934 21.3547C10.5293 21.2367 10.4968 21.1042 10.4991 20.97V13.5L5.69629 17.1C5.53799 17.2187 5.33921 17.27 5.14325 17.2428C4.94728 17.2155 4.77001 17.112 4.65004 16.9547C4.53222 16.7896 4.48388 16.5848 4.51544 16.3844C4.547 16.184 4.65592 16.004 4.81879 15.8831L9.99942 12L4.81692 8.11592C4.66059 8.00175 4.55316 7.83274 4.51613 7.64274C4.4791 7.45273 4.51521 7.25575 4.61723 7.09124C4.67352 7.00536 4.74684 6.93196 4.83265 6.87558C4.91846 6.81919 5.01493 6.78103 5.1161 6.76345C5.21726 6.74588 5.32095 6.74926 5.42075 6.77339C5.52055 6.79752 5.61434 6.84188 5.69629 6.90374L10.5 10.5V3.02249C10.4982 2.91005 10.5209 2.79856 10.5668 2.69587C10.6126 2.59318 10.6804 2.50179 10.7654 2.42811C10.8952 2.31756 11.0587 2.25453 11.2292 2.24942C11.3996 2.24431 11.5667 2.29742 11.7029 2.39999L14.8547 4.76249C14.9004 4.7979 14.9373 4.84341 14.9626 4.89545C14.9878 4.94749 15.0006 5.00466 15 5.06249V9.93749C15 9.9957 14.9865 10.0531 14.9605 10.1052C14.9344 10.1573 14.8966 10.2026 14.85 10.2375L12.5007 12L17.7038 15.9C17.7963 15.9702 17.8711 16.061 17.9225 16.1651C17.974 16.2692 18.0005 16.3839 18 16.5ZM22.2629 9.19967L20.566 7.49999L22.2638 5.80217C22.4066 5.66387 22.4904 5.47564 22.4976 5.27694C22.5048 5.07824 22.4347 4.88447 22.3022 4.73624C22.2334 4.66298 22.1506 4.60429 22.0587 4.56365C21.9668 4.52302 21.8677 4.50127 21.7672 4.49969C21.6667 4.49812 21.567 4.51675 21.4738 4.55449C21.3807 4.59222 21.2961 4.64829 21.225 4.71936L19.5047 6.43967L17.806 4.74186C17.6674 4.59916 17.4791 4.5155 17.2803 4.50834C17.0815 4.50118 16.8876 4.57107 16.7391 4.70342C16.6658 4.77221 16.6072 4.85501 16.5665 4.94692C16.5259 5.03883 16.5041 5.13797 16.5026 5.23844C16.501 5.33892 16.5196 5.43869 16.5574 5.53183C16.5951 5.62496 16.6512 5.70957 16.7222 5.78061L18.4435 7.49999L16.7419 9.19967C16.6036 9.33437 16.521 9.51619 16.5105 9.709C16.5001 9.90181 16.5626 10.0915 16.6857 10.2403C16.753 10.3183 16.8358 10.3816 16.9287 10.4262C17.0216 10.4708 17.1228 10.4958 17.2258 10.4996C17.3288 10.5034 17.4315 10.4859 17.5275 10.4482C17.6234 10.4105 17.7106 10.3535 17.7835 10.2806L19.5047 8.5603L21.225 10.2806C21.298 10.3536 21.3852 10.4108 21.4812 10.4486C21.5773 10.4864 21.6801 10.5039 21.7832 10.5001C21.8863 10.4963 21.9876 10.4713 22.0806 10.4266C22.1736 10.3819 22.2564 10.3185 22.3238 10.2403C22.4465 10.0913 22.5087 9.90158 22.4981 9.70883C22.4875 9.51609 22.4049 9.33436 22.2666 9.19967H22.2629Z" fill="black"/>
</svg>
