<svg width="24" height="24" viewBox="0 0 24 24" fill="none" xmlns="http://www.w3.org/2000/svg">
<path d="M18 16.5C18 16.6164 17.9729 16.7313 17.9208 16.8354C17.8688 16.9396 17.7931 17.0301 17.7 17.1L11.7 21.6C11.5702 21.6974 11.4123 21.75 11.25 21.75C11.0511 21.75 10.8603 21.671 10.7197 21.5303C10.579 21.3897 10.5 21.1989 10.5 21V13.5L5.7 17.1C5.62121 17.1591 5.53155 17.2021 5.43614 17.2265C5.34073 17.251 5.24144 17.2564 5.14394 17.2425C4.94702 17.2143 4.76935 17.1091 4.65 16.95C4.53066 16.7909 4.47941 16.5908 4.50754 16.3939C4.53567 16.197 4.64087 16.0193 4.8 15.9L10.0003 12L4.8 8.1C4.64087 7.98065 4.53567 7.80298 4.50754 7.60607C4.47941 7.40915 4.53066 7.20913 4.65 7.05C4.76935 6.89087 4.94702 6.78567 5.14394 6.75754C5.34085 6.72941 5.54087 6.78065 5.7 6.9L10.5 10.5V3C10.5 2.86072 10.5388 2.72418 10.612 2.6057C10.6852 2.48722 10.79 2.39147 10.9146 2.32918C11.0392 2.26689 11.1786 2.24052 11.3174 2.25303C11.4561 2.26554 11.5886 2.31643 11.7 2.4L17.7 6.9C17.7931 6.96986 17.8688 7.06045 17.9208 7.16459C17.9729 7.26873 18 7.38357 18 7.5C18 7.61643 17.9729 7.73127 17.9208 7.83541C17.8688 7.93955 17.7931 8.03014 17.7 8.1L12.4997 12L17.7 15.9C17.7931 15.9699 17.8688 16.0604 17.9208 16.1646C17.9729 16.2687 18 16.3836 18 16.5Z" fill="black"/>
</svg>
