<svg width="24" height="24" viewBox="0 0 24 24" fill="none" xmlns="http://www.w3.org/2000/svg">
<path d="M20.0041 20.805C19.8569 20.9387 19.6626 21.0085 19.4639 20.9991C19.2652 20.9896 19.0785 20.9015 18.9447 20.7544L16.465 18.0262L11.6997 21.6C11.5805 21.6893 11.4374 21.7411 11.2886 21.7488C11.1398 21.7565 10.9922 21.7197 10.8644 21.6431C10.7509 21.5717 10.6577 21.4723 10.5938 21.3544C10.5299 21.2365 10.4975 21.1041 10.4997 20.97V13.5L5.6997 17.1C5.5414 17.2187 5.34262 17.27 5.14665 17.2428C4.95069 17.2155 4.77342 17.112 4.65345 16.9547C4.53586 16.7895 4.48767 16.5848 4.51922 16.3845C4.55076 16.1842 4.65953 16.0042 4.8222 15.8831L10.586 11.5603L3.9447 4.25436C3.87708 4.18172 3.82454 4.09637 3.79014 4.00328C3.75574 3.91018 3.74016 3.81118 3.74431 3.71202C3.74845 3.61286 3.77223 3.51551 3.81428 3.42561C3.85632 3.3357 3.91579 3.25504 3.98924 3.18829C4.06269 3.12154 4.14866 3.07003 4.24216 3.03675C4.33566 3.00347 4.43484 2.98908 4.53394 2.99441C4.63305 2.99975 4.73011 3.02469 4.8195 3.06781C4.90889 3.11093 4.98884 3.17137 5.0547 3.24561L20.0547 19.7456C20.1885 19.8928 20.2583 20.0871 20.2488 20.2858C20.2393 20.4844 20.1513 20.6712 20.0041 20.805ZM13.5513 10.3622C13.6771 10.5001 13.8498 10.5861 14.0356 10.6034C14.2215 10.6207 14.4071 10.5682 14.5563 10.4559L17.6828 8.11217C17.8141 8.01704 17.9124 7.88333 17.9641 7.72967C18.0118 7.58106 18.012 7.42126 17.9646 7.27253C17.9172 7.12381 17.8246 6.99357 17.6997 6.89999L11.6997 2.39999C11.5635 2.29742 11.3964 2.24431 11.226 2.24942C11.0556 2.25453 10.892 2.31756 10.7622 2.42811C10.6779 2.50217 10.6108 2.59371 10.5654 2.69636C10.5201 2.799 10.4977 2.91029 10.4997 3.02249V6.7153C10.5 6.9015 10.5695 7.08095 10.6947 7.21874L13.5513 10.3622Z" fill="black"/>
</svg>
