<svg width="24" height="24" viewBox="0 0 24 24" fill="none" xmlns="http://www.w3.org/2000/svg">
<path d="M21.6674 10.0988C21.1401 10.7037 20.414 11.1004 19.62 11.2173C18.826 11.3342 18.0164 11.1636 17.3371 10.7363C17.3341 10.7351 17.3308 10.7351 17.3278 10.7363L10.7324 17.3325C10.7324 17.3325 10.7324 17.3325 10.7324 17.34C10.9997 17.7705 11.1665 18.2556 11.2207 18.7593C11.2749 19.263 11.2149 19.7725 11.0453 20.2499C10.8757 20.7274 10.6008 21.1605 10.241 21.5171C9.88114 21.8738 9.44563 22.1449 8.96673 22.3103C8.48783 22.4756 7.97785 22.5311 7.4746 22.4725C6.97135 22.4138 6.48776 22.2427 6.05969 21.9717C5.63163 21.7006 5.27007 21.3367 5.00184 20.9069C4.73361 20.4771 4.56559 19.9924 4.51025 19.4888C4.00664 19.4334 3.52194 19.2654 3.09212 18.9972C2.6623 18.729 2.29838 18.3674 2.02737 17.9393C1.75635 17.5113 1.58518 17.0277 1.52657 16.5244C1.46795 16.0212 1.52339 15.5112 1.68877 15.0323C1.85415 14.5534 2.12523 14.1179 2.4819 13.758C2.83857 13.3982 3.27167 13.1233 3.74909 12.9537C4.22651 12.7841 4.73598 12.7241 5.23973 12.7783C5.74347 12.8325 6.22856 12.9994 6.659 13.2666C6.66202 13.2677 6.66536 13.2677 6.66838 13.2666L13.2637 6.67033C13.2637 6.67033 13.2637 6.67033 13.2637 6.66283C12.9965 6.23239 12.8296 5.7473 12.7754 5.24356C12.7212 4.73981 12.7812 4.23034 12.9508 3.75292C13.1204 3.2755 13.3953 2.8424 13.7552 2.48573C14.115 2.12906 14.5505 1.85798 15.0294 1.6926C15.5083 1.52722 16.0183 1.47178 16.5215 1.5304C17.0248 1.58901 17.5084 1.76018 17.9364 2.0312C18.3645 2.30221 18.7261 2.66613 18.9943 3.09595C19.2625 3.52577 19.4305 4.01047 19.4859 4.51408C20.1014 4.57888 20.6873 4.81171 21.1795 5.1871C21.6716 5.56249 22.051 6.06599 22.2762 6.64252C22.5014 7.21906 22.5638 7.84642 22.4564 8.456C22.349 9.06557 22.0761 9.63389 21.6674 10.0988Z" fill="black"/>
</svg>
