<svg width="24" height="24" viewBox="0 0 24 24" fill="none" xmlns="http://www.w3.org/2000/svg">
<path d="M22.5 6V18C22.5 18.3978 22.342 18.7794 22.0607 19.0607C21.7794 19.342 21.3978 19.5 21 19.5H15C14.4033 19.5 13.831 19.7371 13.409 20.159C12.9871 20.581 12.75 21.1533 12.75 21.75C12.75 21.9489 12.671 22.1397 12.5303 22.2803C12.3897 22.421 12.1989 22.5 12 22.5C11.8011 22.5 11.6103 22.421 11.4697 22.2803C11.329 22.1397 11.25 21.9489 11.25 21.75C11.25 21.1533 11.0129 20.581 10.591 20.159C10.169 19.7371 9.59674 19.5 9 19.5H3C2.60218 19.5 2.22064 19.342 1.93934 19.0607C1.65804 18.7794 1.5 18.3978 1.5 18V6C1.5 5.60218 1.65804 5.22064 1.93934 4.93934C2.22064 4.65804 2.60218 4.5 3 4.5H8.25C9.04565 4.5 9.80871 4.81607 10.3713 5.37868C10.9339 5.94129 11.25 6.70435 11.25 7.5V15.75C11.25 15.9489 11.329 16.1397 11.4697 16.2803C11.6103 16.421 11.8011 16.5 12 16.5C12.1989 16.5 12.3897 16.421 12.5303 16.2803C12.671 16.1397 12.75 15.9489 12.75 15.75V7.5C12.75 6.70435 13.0661 5.94129 13.6287 5.37868C14.1913 4.81607 14.9544 4.5 15.75 4.5H21C21.3978 4.5 21.7794 4.65804 22.0607 4.93934C22.342 5.22064 22.5 5.60218 22.5 6Z" fill="black"/>
</svg>
