<svg width="24" height="24" viewBox="0 0 24 24" fill="none" xmlns="http://www.w3.org/2000/svg">
<path d="M18.0001 10.5H10.5254C10.3318 10.5026 10.1445 10.4318 10.001 10.3019C9.85747 10.172 9.7685 9.99254 9.75193 9.79967C9.74513 9.69724 9.75943 9.59451 9.79395 9.49782C9.82846 9.40114 9.88246 9.31258 9.95259 9.23761C10.0227 9.16264 10.1075 9.10287 10.2017 9.062C10.2958 9.02112 10.3974 9.00002 10.5001 8.99999H14.6251C14.7245 8.99999 14.8199 8.96048 14.8902 8.89015C14.9605 8.81983 15.0001 8.72444 15.0001 8.62499V7.87499C15.0001 7.77553 14.9605 7.68015 14.8902 7.60982C14.8199 7.5395 14.7245 7.49999 14.6251 7.49999H10.5254C10.3315 7.50307 10.1437 7.43251 9.99978 7.30254C9.85589 7.17257 9.76664 6.99286 9.75006 6.79968C9.74324 6.69709 9.7576 6.59419 9.79223 6.49738C9.82686 6.40057 9.88102 6.31192 9.95136 6.23692C10.0217 6.16193 10.1067 6.1022 10.2011 6.06144C10.2955 6.02068 10.3972 5.99976 10.5001 5.99999H14.6251C14.7245 5.99999 14.8199 5.96048 14.8902 5.89015C14.9605 5.81983 15.0001 5.72444 15.0001 5.62499V5.24999C15.0001 4.85216 14.842 4.47063 14.5607 4.18933C14.2794 3.90802 13.8979 3.74999 13.5001 3.74999H3.02068C2.84926 3.7469 2.68169 3.801 2.54443 3.90374C2.4158 4.00209 2.32246 4.13944 2.27836 4.29524C2.23425 4.45104 2.24176 4.61693 2.29974 4.76811C3.33662 7.47186 3.12099 12.6159 2.27912 15.5428C2.2598 15.6102 2.25002 15.6799 2.25006 15.75V18.75C2.25006 19.1478 2.40809 19.5293 2.6894 19.8106C2.9707 20.092 3.35223 20.25 3.75006 20.25H6.19787C6.43089 20.25 6.66071 20.1958 6.86912 20.0916L8.05224 19.5H9.57287L10.756 20.0916C10.9644 20.1958 11.1942 20.25 11.4272 20.25H14.0729C14.3059 20.25 14.5357 20.1958 14.7441 20.0916L15.9272 19.5H17.4479L18.631 20.0916C18.8394 20.1958 19.0692 20.25 19.3022 20.25H21.7501C22.1479 20.25 22.5294 20.092 22.8107 19.8106C23.092 19.5293 23.2501 19.1478 23.2501 18.75V15.75C23.2501 14.3576 22.6969 13.0222 21.7124 12.0377C20.7278 11.0531 19.3924 10.5 18.0001 10.5ZM21.7501 18.75H19.3022L18.1191 18.1584C17.9107 18.0542 17.6809 17.9999 17.4479 18H15.9272C15.6942 17.9999 15.4644 18.0542 15.256 18.1584L14.0729 18.75H11.4272L10.2441 18.1584C10.0357 18.0542 9.80589 17.9999 9.57287 18H8.05224C7.81922 17.9999 7.5894 18.0542 7.38099 18.1584L6.19787 18.75H3.75006V16.5H21.7501V18.75Z" fill="black"/>
</svg>
