<svg width="24" height="24" viewBox="0 0 24 24" fill="none" xmlns="http://www.w3.org/2000/svg">
<path d="M19.875 7.125V6.75C19.874 5.93742 19.633 5.14323 19.1823 4.46709C18.7316 3.79095 18.0913 3.26299 17.3416 2.94945C16.592 2.63591 15.7664 2.55076 14.9685 2.70469C14.1707 2.85862 13.436 3.24477 12.8568 3.81469C12.8226 3.84922 12.7955 3.8902 12.7771 3.93525C12.7588 3.9803 12.7496 4.02854 12.75 4.07719V12.3947C12.7501 12.4623 12.7686 12.5286 12.8034 12.5866C12.8381 12.6446 12.8879 12.6921 12.9475 12.7241C13.0071 12.756 13.0742 12.7713 13.1417 12.7683C13.2093 12.7653 13.2747 12.7441 13.3312 12.7069C14.0444 12.2496 14.8728 12.0045 15.72 12C15.9161 11.9964 16.1061 12.068 16.251 12.2002C16.3959 12.3323 16.4847 12.515 16.499 12.7106C16.5044 12.8124 16.4889 12.9142 16.4536 13.0097C16.4183 13.1053 16.364 13.1927 16.2938 13.2666C16.2236 13.3405 16.1391 13.3993 16.0454 13.4394C15.9518 13.4795 15.8509 13.5001 15.749 13.5C14.9534 13.5 14.1903 13.8161 13.6277 14.3787C13.0651 14.9413 12.749 15.7044 12.749 16.5V19.6763C12.7489 19.7323 12.7614 19.7878 12.7856 19.8384C12.8098 19.889 12.845 19.9335 12.8887 19.9688C13.4209 20.4092 14.0475 20.721 14.7198 20.8799C15.3921 21.0387 16.092 21.0404 16.7651 20.8848C17.4382 20.7291 18.0663 20.4204 18.6006 19.9825C19.1349 19.5446 19.5611 18.9894 19.8459 18.36C19.8746 18.2967 19.8851 18.2267 19.8763 18.1578C19.8675 18.0888 19.8397 18.0237 19.7961 17.9697C19.7524 17.9156 19.6946 17.8747 19.6291 17.8516C19.5635 17.8285 19.4929 17.824 19.425 17.8387C18.9575 17.9459 18.4795 18 18 18H17.2753C17.0818 18.0024 16.8945 17.9315 16.7511 17.8017C16.6076 17.6718 16.5186 17.4925 16.5018 17.2997C16.495 17.1971 16.5094 17.0942 16.544 16.9974C16.5786 16.9006 16.6328 16.8119 16.7031 16.7369C16.7735 16.6619 16.8585 16.6022 16.9529 16.5615C17.0472 16.5207 17.149 16.4998 17.2518 16.5H18.0018C18.7854 16.5012 19.5575 16.312 20.2518 15.9487C21.074 15.5205 21.7571 14.8668 22.2209 14.0641C22.6847 13.2614 22.9101 12.3432 22.8705 11.417C22.831 10.4908 22.5281 9.59508 21.9976 8.83489C21.467 8.0747 20.7307 7.48155 19.875 7.125ZM18.75 10.5H18.375C17.4798 10.5 16.6214 10.1444 15.9885 9.51149C15.3555 8.87855 15 8.02011 15 7.125V6.75C15 6.55109 15.079 6.36032 15.2196 6.21967C15.3603 6.07902 15.551 6 15.75 6C15.9489 6 16.1396 6.07902 16.2803 6.21967C16.4209 6.36032 16.5 6.55109 16.5 6.75V7.125C16.5 7.37123 16.5485 7.61505 16.6427 7.84253C16.7369 8.07002 16.875 8.27672 17.0491 8.45083C17.4008 8.80246 17.8777 9 18.375 9H18.75C18.9489 9 19.1396 9.07902 19.2803 9.21967C19.4209 9.36032 19.5 9.55109 19.5 9.75C19.5 9.94891 19.4209 10.1397 19.2803 10.2803C19.1396 10.421 18.9489 10.5 18.75 10.5ZM8.24995 2.625C7.15632 2.62624 6.10783 3.06124 5.33451 3.83456C4.56119 4.60787 4.12619 5.65636 4.12495 6.75V7.125C3.26932 7.48174 2.53315 8.07505 2.00275 8.83534C1.47236 9.59563 1.16974 10.4914 1.13037 11.4176C1.09101 12.3438 1.31654 13.262 1.78052 14.0645C2.24449 14.8671 2.92768 15.5207 3.74995 15.9487C4.44424 16.312 5.21638 16.5012 5.99995 16.5H6.72464C6.91845 16.4971 7.10616 16.5678 7.25 16.6977C7.39384 16.8276 7.48315 17.0072 7.49995 17.2003C7.50676 17.3029 7.49241 17.4058 7.45778 17.5026C7.42315 17.5994 7.36899 17.6881 7.29865 17.7631C7.22832 17.8381 7.14332 17.8978 7.04892 17.9385C6.95453 17.9793 6.85277 18.0002 6.74995 18H5.99995C5.52003 18.0002 5.04164 17.9458 4.57401 17.8378C4.50615 17.823 4.43551 17.8273 4.36997 17.8503C4.30442 17.8733 4.24655 17.9141 4.20281 17.968C4.15906 18.022 4.13116 18.087 4.12222 18.1559C4.11327 18.2248 4.12363 18.2948 4.15214 18.3581C4.43689 18.9877 4.86299 19.5431 5.39731 19.9812C5.93163 20.4192 6.55978 20.7282 7.23293 20.884C7.90609 21.0398 8.60611 21.0383 9.27858 20.8796C9.95105 20.7208 10.5779 20.4091 11.1103 19.9688C11.1539 19.9335 11.1892 19.889 11.2133 19.8384C11.2375 19.7878 11.25 19.7323 11.25 19.6763V16.5C11.25 15.7044 10.9339 14.9413 10.3713 14.3787C9.80866 13.8161 9.0456 13.5 8.24995 13.5C8.14806 13.5001 8.0472 13.4795 7.95354 13.4394C7.85989 13.3993 7.77538 13.3405 7.7052 13.2666C7.63502 13.1927 7.58062 13.1053 7.54533 13.0097C7.51004 12.9142 7.4946 12.8124 7.49995 12.7106C7.51431 12.5149 7.6032 12.332 7.74831 12.1998C7.89341 12.0676 8.08369 11.9961 8.27995 12C9.12711 12.0045 9.95555 12.2496 10.6687 12.7069C10.7252 12.7441 10.7906 12.7653 10.8582 12.7683C10.9257 12.7713 10.9928 12.756 11.0524 12.7241C11.112 12.6921 11.1618 12.6446 11.1965 12.5866C11.2313 12.5286 11.2498 12.4623 11.25 12.3947V4.07719C11.2503 3.97875 11.2119 3.88413 11.1431 3.81375C10.373 3.05177 9.33329 2.62457 8.24995 2.625ZM8.99995 7.125C8.99995 8.02011 8.64437 8.87855 8.01144 9.51149C7.3785 10.1444 6.52006 10.5 5.62495 10.5H5.24995C5.05104 10.5 4.86027 10.421 4.71962 10.2803C4.57897 10.1397 4.49995 9.94891 4.49995 9.75C4.49995 9.55109 4.57897 9.36032 4.71962 9.21967C4.86027 9.07902 5.05104 9 5.24995 9H5.62495C5.87118 9 6.115 8.9515 6.34248 8.85727C6.56997 8.76305 6.77667 8.62494 6.95078 8.45083C7.12489 8.27672 7.263 8.07002 7.35723 7.84253C7.45145 7.61505 7.49995 7.37123 7.49995 7.125V6.75C7.49995 6.55109 7.57897 6.36032 7.71962 6.21967C7.86027 6.07902 8.05104 6 8.24995 6C8.44886 6 8.63963 6.07902 8.78028 6.21967C8.92093 6.36032 8.99995 6.55109 8.99995 6.75V7.125Z" fill="black"/>
</svg>
