<svg width="24" height="24" viewBox="0 0 24 24" fill="none" xmlns="http://www.w3.org/2000/svg">
<path d="M15.7497 12C15.7497 12.7417 15.5298 13.4667 15.1178 14.0834C14.7057 14.7001 14.12 15.1807 13.4348 15.4646C12.7496 15.7484 11.9956 15.8227 11.2682 15.678C10.5407 15.5333 9.87254 15.1761 9.34809 14.6517C8.82365 14.1272 8.46649 13.459 8.3218 12.7316C8.1771 12.0042 8.25137 11.2502 8.5352 10.5649C8.81903 9.87972 9.29967 9.29406 9.91636 8.882C10.533 8.46994 11.2581 8.25001 11.9997 8.25001C12.9943 8.25001 13.9481 8.6451 14.6514 9.34836C15.3547 10.0516 15.7497 11.0054 15.7497 12ZM19.4997 12C19.502 10.1549 18.8218 8.3741 17.5901 7.00032C17.5249 6.92514 17.4454 6.86368 17.3562 6.81952C17.2671 6.77536 17.17 6.74938 17.0707 6.74309C16.9714 6.73681 16.8719 6.75034 16.7779 6.78291C16.6839 6.81547 16.5973 6.86642 16.5231 6.93278C16.449 6.99913 16.3888 7.07958 16.3461 7.16943C16.3033 7.25928 16.2789 7.35673 16.2742 7.45611C16.2695 7.5555 16.2846 7.65482 16.3187 7.74831C16.3527 7.84179 16.405 7.92757 16.4726 8.00064C17.4564 9.10066 18.0003 10.5247 18.0003 12.0005C18.0003 13.4763 17.4564 14.9003 16.4726 16.0003C16.3436 16.1491 16.2783 16.3425 16.2908 16.539C16.3032 16.7354 16.3924 16.9191 16.539 17.0504C16.6857 17.1817 16.8781 17.2501 17.0747 17.2408C17.2714 17.2314 17.4565 17.1452 17.5901 17.0006C18.8216 15.6264 19.5018 13.8454 19.4997 12ZM7.52693 8.00064C7.59446 7.92757 7.64678 7.84179 7.68083 7.74831C7.71489 7.65482 7.73 7.5555 7.7253 7.45611C7.72059 7.35673 7.69615 7.25928 7.65341 7.16943C7.61068 7.07958 7.55049 6.99913 7.47635 6.93278C7.40222 6.86642 7.31563 6.81547 7.22161 6.78291C7.1276 6.75034 7.02804 6.73681 6.92875 6.74309C6.82945 6.74938 6.7324 6.77536 6.64324 6.81952C6.55408 6.86368 6.47461 6.92514 6.40943 7.00032C5.1783 8.37483 4.49754 10.1552 4.49754 12.0005C4.49754 13.8457 5.1783 15.6261 6.40943 17.0006C6.54304 17.1452 6.72812 17.2314 6.92475 17.2408C7.12137 17.2501 7.31378 17.1817 7.46045 17.0504C7.60712 16.9191 7.69629 16.7354 7.70873 16.539C7.72117 16.3425 7.65587 16.1491 7.52693 16.0003C6.54214 14.9008 5.99761 13.4766 5.99761 12.0005C5.99761 10.5244 6.54214 9.10019 7.52693 8.00064ZM22.3657 7.62564C21.8168 6.32208 21.026 5.13427 20.0351 4.12501C19.9668 4.05199 19.8845 3.99336 19.7933 3.95257C19.702 3.91178 19.6034 3.88966 19.5035 3.8875C19.4035 3.88535 19.3041 3.9032 19.2112 3.94001C19.1182 3.97683 19.0335 4.03186 18.9622 4.10187C18.8908 4.17188 18.8341 4.25545 18.7955 4.34768C18.7569 4.43991 18.7371 4.53893 18.7373 4.63892C18.7375 4.7389 18.7577 4.83784 18.7967 4.9299C18.8357 5.02197 18.8927 5.1053 18.9644 5.17501C20.752 6.99623 21.7535 9.44623 21.7535 11.9981C21.7535 14.55 20.752 17 18.9644 18.8213C18.8952 18.8916 18.8406 18.9748 18.8036 19.0662C18.7665 19.1576 18.7479 19.2555 18.7487 19.3541C18.7494 19.4527 18.7697 19.5502 18.8081 19.6411C18.8466 19.7319 18.9026 19.8143 18.9729 19.8834C19.0432 19.9526 19.1264 20.0073 19.2178 20.0443C19.3093 20.0813 19.4071 20.1 19.5057 20.0992C19.6043 20.0984 19.7019 20.0782 19.7927 20.0398C19.8835 20.0013 19.9659 19.9453 20.0351 19.875C21.5878 18.2894 22.6374 16.2803 23.052 14.1001C23.4667 11.92 23.2279 9.66587 22.3657 7.62095V7.62564ZM3.01568 15.795C2.26629 14.0235 2.05815 12.0698 2.41752 10.1802C2.7769 8.29054 3.68768 6.54962 5.03506 5.17689C5.17454 5.03491 5.25192 4.84334 5.25016 4.64432C5.2484 4.4453 5.16766 4.25512 5.02568 4.11564C4.88371 3.97615 4.69214 3.89877 4.49312 3.90053C4.29409 3.90229 4.10392 3.98304 3.96443 4.12501C1.90023 6.22644 0.743652 9.05434 0.743652 12C0.743652 14.9457 1.90023 17.7736 3.96443 19.875C4.03273 19.948 4.11494 20.0067 4.20623 20.0475C4.29752 20.0882 4.39604 20.1104 4.49601 20.1125C4.59597 20.1147 4.69536 20.0968 4.78832 20.06C4.88128 20.0232 4.96594 19.9682 5.03733 19.8982C5.10872 19.8281 5.16538 19.7446 5.204 19.6523C5.24261 19.5601 5.26239 19.4611 5.26218 19.3611C5.26197 19.2611 5.24177 19.1622 5.20276 19.0701C5.16376 18.9781 5.10674 18.8947 5.03506 18.825C4.17695 17.9513 3.49179 16.9233 3.01568 15.795Z" fill="black"/>
</svg>
