<svg width="24" height="24" viewBox="0 0 24 24" fill="none" xmlns="http://www.w3.org/2000/svg">
<path d="M22.0781 20.3259C19.9631 19.2947 18.75 17.0841 18.75 14.2509V12.6309C18.7508 12.3304 18.661 12.0366 18.4922 11.7879C18.3235 11.5392 18.0837 11.3472 17.8041 11.2369L15.4688 10.3125C15.285 10.239 15.1378 10.0959 15.0591 9.91431C14.9805 9.73274 14.9767 9.52743 15.0488 9.34312L17.0475 4.37437C17.1832 4.04826 17.2516 3.69812 17.2487 3.34492C17.2459 2.99173 17.1718 2.64275 17.0308 2.31887C16.8899 1.995 16.6851 1.7029 16.4286 1.46006C16.1721 1.21723 15.8692 1.02865 15.5381 0.905625C14.8933 0.669341 14.1817 0.693857 13.5546 0.97396C12.9275 1.25406 12.4344 1.76767 12.18 2.40562C12.1796 2.40937 12.1796 2.41313 12.18 2.41687L10.2094 7.40625C10.1361 7.59084 9.99259 7.73882 9.81033 7.81773C9.62808 7.89664 9.42197 7.90004 9.23721 7.82719L6.85408 6.85687C6.57932 6.74554 6.27758 6.71871 5.98748 6.77984C5.69738 6.84096 5.43212 6.98726 5.22564 7.2C3.25127 9.22969 2.25002 11.6016 2.25002 14.25C2.24483 16.9602 3.29296 19.5664 5.17314 21.5184C5.24359 21.5921 5.3283 21.6506 5.42211 21.6904C5.51592 21.7302 5.61686 21.7505 5.71877 21.75H21.75C21.9195 21.7498 22.084 21.6923 22.2166 21.5866C22.3492 21.481 22.4421 21.3336 22.4801 21.1684C22.5182 21.0032 22.4992 20.83 22.4262 20.677C22.3532 20.524 22.2305 20.4003 22.0781 20.3259ZM10.7916 20.25C9.67494 19.1789 8.88389 17.8139 8.50971 16.3125C8.45756 16.1226 8.33282 15.9608 8.16242 15.8621C7.99202 15.7634 7.78963 15.7357 7.59896 15.7849C7.40829 15.8342 7.24463 15.9564 7.14333 16.1253C7.04203 16.2942 7.0112 16.4961 7.05752 16.6875C7.38464 17.9791 7.97018 19.191 8.77877 20.25H6.04127C4.56207 18.602 3.7458 16.4645 3.75002 14.25C3.74085 13.0767 3.98818 11.9155 4.47471 10.8478L17.3935 16.0153C17.6747 17.7028 18.3835 19.1541 19.4456 20.2491L10.7916 20.25Z" fill="black"/>
</svg>
