<svg width="24" height="24" viewBox="0 0 24 24" fill="none" xmlns="http://www.w3.org/2000/svg">
<path d="M21 10.5H19.5V9H21C21.1989 9 21.3897 9.07902 21.5303 9.21967C21.671 9.36032 21.75 9.55109 21.75 9.75C21.75 9.94891 21.671 10.1397 21.5303 10.2803C21.3897 10.421 21.1989 10.5 21 10.5ZM3 9C2.80109 9 2.61032 9.07902 2.46967 9.21967C2.32902 9.36032 2.25 9.55109 2.25 9.75C2.25 9.94891 2.32902 10.1397 2.46967 10.2803C2.61032 10.421 2.80109 10.5 3 10.5H4.5V9H3ZM19.5 14.25C19.5 14.5031 19.4869 14.7534 19.4625 15H21C21.1989 15 21.3897 15.079 21.5303 15.2197C21.671 15.3603 21.75 15.5511 21.75 15.75C21.75 15.9489 21.671 16.1397 21.5303 16.2803C21.3897 16.421 21.1989 16.5 21 16.5H19.155C18.6764 18.0228 17.7245 19.3532 16.4377 20.2977C15.1508 21.2422 13.5962 21.7515 12 21.7515C10.4038 21.7515 8.84916 21.2422 7.56233 20.2977C6.2755 19.3532 5.32356 18.0228 4.845 16.5H3C2.80109 16.5 2.61032 16.421 2.46967 16.2803C2.32902 16.1397 2.25 15.9489 2.25 15.75C2.25 15.5511 2.32902 15.3603 2.46967 15.2197C2.61032 15.079 2.80109 15 3 15H4.5375C4.51313 14.7534 4.5 14.5031 4.5 14.25V13.5H3C2.80109 13.5 2.61032 13.421 2.46967 13.2803C2.32902 13.1397 2.25 12.9489 2.25 12.75C2.25 12.5511 2.32902 12.3603 2.46967 12.2197C2.61032 12.079 2.80109 12 3 12H4.5V10.5H19.5V12H21C21.1989 12 21.3897 12.079 21.5303 12.2197C21.671 12.3603 21.75 12.5511 21.75 12.75C21.75 12.9489 21.671 13.1397 21.5303 13.2803C21.3897 13.421 21.1989 13.5 21 13.5H19.5V14.25ZM12.75 12.75C12.75 12.5511 12.671 12.3603 12.5303 12.2197C12.3897 12.079 12.1989 12 12 12C11.8011 12 11.6103 12.079 11.4697 12.2197C11.329 12.3603 11.25 12.5511 11.25 12.75V18.75C11.25 18.9489 11.329 19.1397 11.4697 19.2803C11.6103 19.421 11.8011 19.5 12 19.5C12.1989 19.5 12.3897 19.421 12.5303 19.2803C12.671 19.1397 12.75 18.9489 12.75 18.75V12.75ZM6.5475 4.60781C5.41006 5.8092 4.70316 7.35389 4.5375 9H19.4625C19.2968 7.35389 18.5899 5.8092 17.4525 4.60781L19.2806 2.78063C19.3503 2.71094 19.4056 2.62822 19.4433 2.53717C19.481 2.44613 19.5004 2.34855 19.5004 2.25C19.5004 2.15145 19.481 2.05387 19.4433 1.96283C19.4056 1.87178 19.3503 1.78906 19.2806 1.71938C19.2109 1.64969 19.1282 1.59442 19.0372 1.55671C18.9461 1.51899 18.8485 1.49958 18.75 1.49958C18.6515 1.49958 18.5539 1.51899 18.4628 1.55671C18.3718 1.59442 18.2891 1.64969 18.2194 1.71938L16.3172 3.6225C15.0547 2.72946 13.5464 2.2499 12 2.2499C10.4536 2.2499 8.94527 2.72946 7.68281 3.6225L5.78062 1.71938C5.63989 1.57864 5.44902 1.49958 5.25 1.49958C5.05098 1.49958 4.86011 1.57864 4.71938 1.71938C4.57864 1.86011 4.49958 2.05098 4.49958 2.25C4.49958 2.44902 4.57864 2.63989 4.71938 2.78063L6.5475 4.60781Z" fill="black"/>
</svg>
