<svg width="24" height="24" viewBox="0 0 24 24" fill="none" xmlns="http://www.w3.org/2000/svg">
<path d="M17.9841 4.07625L19.2806 2.78063C19.3503 2.71094 19.4056 2.62822 19.4433 2.53717C19.481 2.44613 19.5004 2.34855 19.5004 2.25C19.5004 2.15145 19.481 2.05387 19.4433 1.96283C19.4056 1.87178 19.3503 1.78906 19.2806 1.71938C19.2109 1.64969 19.1282 1.59442 19.0372 1.55671C18.9461 1.51899 18.8485 1.49958 18.75 1.49958C18.6515 1.49958 18.5539 1.51899 18.4628 1.55671C18.3718 1.59442 18.2891 1.64969 18.2194 1.71938L16.8553 3.08438C15.4458 2.05491 13.7455 1.50011 12 1.50011C10.2545 1.50011 8.55424 2.05491 7.14469 3.08438L5.78063 1.71938C5.6399 1.57864 5.44902 1.49958 5.25 1.49958C5.05098 1.49958 4.86011 1.57864 4.71938 1.71938C4.57865 1.86011 4.49958 2.05098 4.49958 2.25C4.49958 2.44902 4.57865 2.63989 4.71938 2.78063L6.01594 4.07625C4.56007 5.60636 3.74871 7.63795 3.75 9.75V13.5C3.75 15.688 4.6192 17.7865 6.16637 19.3336C7.71355 20.8808 9.81197 21.75 12 21.75C14.188 21.75 16.2865 20.8808 17.8336 19.3336C19.3808 17.7865 20.25 15.688 20.25 13.5V9.75C20.2513 7.63795 19.4399 5.60636 17.9841 4.07625ZM12 3C13.7896 3.00199 15.5053 3.71378 16.7708 4.97922C18.0362 6.24466 18.748 7.9604 18.75 9.75V10.5H5.25V9.75C5.25199 7.9604 5.96378 6.24466 7.22922 4.97922C8.49466 3.71378 10.2104 3.00199 12 3ZM13.5 7.875C13.5 7.6525 13.566 7.43499 13.6896 7.24998C13.8132 7.06498 13.9889 6.92078 14.1945 6.83564C14.4001 6.75049 14.6263 6.72821 14.8445 6.77162C15.0627 6.81502 15.2632 6.92217 15.4205 7.0795C15.5778 7.23684 15.685 7.43729 15.7284 7.65552C15.7718 7.87375 15.7495 8.09995 15.6644 8.30552C15.5792 8.51109 15.435 8.68679 15.25 8.8104C15.065 8.93402 14.8475 9 14.625 9C14.3266 9 14.0405 8.88147 13.8295 8.6705C13.6185 8.45952 13.5 8.17337 13.5 7.875ZM8.25 7.875C8.25 7.6525 8.31598 7.43499 8.4396 7.24998C8.56321 7.06498 8.73892 6.92078 8.94448 6.83564C9.15005 6.75049 9.37625 6.72821 9.59448 6.77162C9.81271 6.81502 10.0132 6.92217 10.1705 7.0795C10.3278 7.23684 10.435 7.43729 10.4784 7.65552C10.5218 7.87375 10.4995 8.09995 10.4144 8.30552C10.3292 8.51109 10.185 8.68679 10 8.8104C9.81501 8.93402 9.59751 9 9.375 9C9.07663 9 8.79048 8.88147 8.57951 8.6705C8.36853 8.45952 8.25 8.17337 8.25 7.875Z" fill="black"/>
</svg>
