<svg width="24" height="24" viewBox="0 0 24 24" fill="none" xmlns="http://www.w3.org/2000/svg">
<path d="M21 20.25C21 20.4489 20.921 20.6397 20.7803 20.7803C20.6397 20.921 20.4489 21 20.25 21H3.75C3.55109 21 3.36032 20.921 3.21967 20.7803C3.07902 20.6397 3 20.4489 3 20.25C3 20.0511 3.07902 19.8603 3.21967 19.7197C3.36032 19.579 3.55109 19.5 3.75 19.5H8.25V13.5H7.875C6.18478 13.4983 4.56428 12.8261 3.36911 11.6309C2.17395 10.4357 1.50174 8.81522 1.5 7.125C1.5 6.42881 1.77656 5.76113 2.26884 5.26884C2.76113 4.77656 3.42881 4.5 4.125 4.5C4.82119 4.5 5.48887 4.77656 5.98116 5.26884C6.47344 5.76113 6.75 6.42881 6.75 7.125C6.75 7.42337 6.86853 7.70952 7.0795 7.9205C7.29048 8.13147 7.57663 8.25 7.875 8.25H8.25V5.25C8.25 4.25544 8.64509 3.30161 9.34835 2.59835C10.0516 1.89509 11.0054 1.5 12 1.5C12.9946 1.5 13.9484 1.89509 14.6517 2.59835C15.3549 3.30161 15.75 4.25544 15.75 5.25V12H16.125C16.4234 12 16.7095 11.8815 16.9205 11.6705C17.1315 11.4595 17.25 11.1734 17.25 10.875C17.25 10.1788 17.5266 9.51113 18.0188 9.01884C18.5111 8.52656 19.1788 8.25 19.875 8.25C20.5712 8.25 21.2389 8.52656 21.7312 9.01884C22.2234 9.51113 22.5 10.1788 22.5 10.875C22.4983 12.5652 21.8261 14.1857 20.6309 15.3809C19.4357 16.5761 17.8152 17.2483 16.125 17.25H15.75V19.5H20.25C20.4489 19.5 20.6397 19.579 20.7803 19.7197C20.921 19.8603 21 20.0511 21 20.25Z" fill="black"/>
</svg>
