<svg width="24" height="24" viewBox="0 0 24 24" fill="none" xmlns="http://www.w3.org/2000/svg">
<path d="M5.055 3.24563C4.98914 3.17138 4.90919 3.11095 4.8198 3.06783C4.73041 3.02471 4.63335 2.99976 4.53424 2.99443C4.43514 2.9891 4.33596 3.00349 4.24246 3.03677C4.14896 3.07005 4.06299 3.12156 3.98954 3.18831C3.91609 3.25506 3.85662 3.33572 3.81458 3.42562C3.77253 3.51552 3.74875 3.61288 3.74461 3.71204C3.74046 3.8112 3.75604 3.9102 3.79044 4.00329C3.82484 4.09639 3.87738 4.18173 3.945 4.25438L4.84969 5.25H4.5C3.90326 5.25 3.33097 5.48705 2.90901 5.90901C2.48705 6.33097 2.25 6.90326 2.25 7.5V18C2.25 18.5967 2.48705 19.169 2.90901 19.591C3.33097 20.0129 3.90326 20.25 4.5 20.25H18.4866L18.945 20.7544C19.0109 20.8286 19.0908 20.8891 19.1802 20.9322C19.2696 20.9753 19.3667 21.0002 19.4658 21.0056C19.5649 21.0109 19.664 20.9965 19.7575 20.9632C19.851 20.93 19.937 20.8784 20.0105 20.8117C20.0839 20.7449 20.1434 20.6643 20.1854 20.5744C20.2275 20.4845 20.2513 20.3871 20.2554 20.288C20.2595 20.1888 20.244 20.0898 20.2096 19.9967C20.1752 19.9036 20.1226 19.8183 20.055 19.7456L5.055 3.24563ZM12 15.75C11.3614 15.7499 10.736 15.5687 10.1963 15.2273C9.65658 14.886 9.22481 14.3985 8.95111 13.8216C8.67741 13.2446 8.57301 12.6018 8.65003 11.9679C8.72706 11.334 8.98235 10.7349 9.38625 10.2403L13.875 15.18C13.3208 15.5527 12.6679 15.7512 12 15.75ZM21.75 7.5V17.4375C21.75 17.5889 21.7042 17.7367 21.6186 17.8616C21.533 17.9864 21.4116 18.0824 21.2704 18.137C21.1292 18.1916 20.9748 18.2021 20.8275 18.1673C20.6801 18.1325 20.5468 18.0539 20.445 17.9419L8.2575 4.53563C8.14515 4.41196 8.0773 4.25432 8.06473 4.08771C8.05217 3.9211 8.09559 3.75506 8.18812 3.61594L8.37562 3.33469C8.44406 3.23178 8.53688 3.14737 8.64581 3.08898C8.75474 3.03059 8.87641 3.00002 9 3H15C15.1235 2.99992 15.2451 3.03034 15.354 3.08857C15.463 3.14679 15.5558 3.23101 15.6244 3.33375L16.9012 5.25H19.5C20.0967 5.25 20.669 5.48705 21.091 5.90901C21.5129 6.33097 21.75 6.90326 21.75 7.5Z" fill="black"/>
</svg>
