<svg width="24" height="24" viewBox="0 0 24 24" fill="none" xmlns="http://www.w3.org/2000/svg">
<path d="M12.3928 2.36155C12.2746 2.28891 12.1387 2.25046 12 2.25046C11.8613 2.25046 11.7253 2.28891 11.6072 2.36155C10.6664 2.97287 9.79916 3.6904 9.02247 4.49999C7.29091 6.29343 6.37497 8.24062 6.37497 10.125C6.37497 11.6168 6.9676 13.0476 8.02249 14.1025C9.07739 15.1574 10.5081 15.75 12 15.75C13.4918 15.75 14.9226 15.1574 15.9774 14.1025C17.0323 13.0476 17.625 11.6168 17.625 10.125C17.625 5.63249 12.6065 2.4928 12.3928 2.36155ZM12 14.25C11.4032 14.25 10.8309 14.0129 10.409 13.591C9.98702 13.169 9.74997 12.5967 9.74997 12C9.74997 9.74999 12 8.24999 12 8.24999C12 8.24999 14.25 9.74999 14.25 12C14.25 12.5967 14.0129 13.169 13.591 13.591C13.169 14.0129 12.5967 14.25 12 14.25ZM20.9643 21.2269C20.9345 21.3207 20.8865 21.4078 20.823 21.4831C20.7595 21.5585 20.6817 21.6205 20.5942 21.6658C20.5067 21.7111 20.4112 21.7387 20.313 21.747C20.2149 21.7553 20.116 21.7442 20.0222 21.7144L12 19.1616L3.97778 21.7144C3.88391 21.7442 3.78507 21.7553 3.68692 21.747C3.58876 21.7386 3.49321 21.711 3.40572 21.6658C3.31823 21.6205 3.24052 21.5584 3.17701 21.4831C3.1135 21.4078 3.06545 21.3207 3.03559 21.2269C3.00574 21.133 2.99467 21.0342 3.00301 20.936C3.01135 20.8378 3.03894 20.7423 3.08421 20.6548C3.12948 20.5673 3.19154 20.4896 3.26684 20.4261C3.34215 20.3626 3.42922 20.3145 3.52309 20.2847L9.5231 18.375L3.52309 16.4644C3.42663 16.4368 3.33668 16.3901 3.25859 16.3271C3.18049 16.2641 3.11583 16.186 3.06843 16.0976C3.02104 16.0091 2.99187 15.9121 2.98266 15.8122C2.97345 15.7123 2.98438 15.6115 3.01481 15.5159C3.04524 15.4203 3.09455 15.3317 3.15981 15.2555C3.22507 15.1793 3.30497 15.117 3.39476 15.0722C3.48456 15.0274 3.58242 15.0011 3.68257 14.9948C3.78271 14.9885 3.8831 15.0024 3.97778 15.0356L12 17.5875L20.0222 15.0356C20.1168 15.0024 20.2172 14.9885 20.3174 14.9948C20.4175 15.0011 20.5154 15.0274 20.6052 15.0722C20.695 15.117 20.7749 15.1793 20.8401 15.2555C20.9054 15.3317 20.9547 15.4203 20.9851 15.5159C21.0156 15.6115 21.0265 15.7123 21.0173 15.8122C21.0081 15.9121 20.9789 16.0091 20.9315 16.0976C20.8841 16.186 20.8195 16.2641 20.7414 16.3271C20.6633 16.3901 20.5733 16.4368 20.4768 16.4644L14.4768 18.375L20.4768 20.2847C20.5707 20.3145 20.6578 20.3626 20.7331 20.4261C20.8084 20.4896 20.8705 20.5673 20.9158 20.6548C20.961 20.7423 20.9886 20.8378 20.997 20.936C21.0053 21.0342 20.9942 21.133 20.9643 21.2269Z" fill="black"/>
</svg>
