<svg width="24" height="24" viewBox="0 0 24 24" fill="none" xmlns="http://www.w3.org/2000/svg">
<path d="M22.5 10.5H21.4875L18.8831 4.64062C18.7653 4.37553 18.5731 4.15029 18.3298 3.99222C18.0865 3.83414 17.8026 3.75 17.5125 3.75H6.4875C6.19738 3.75 5.91349 3.83414 5.67022 3.99222C5.42695 4.15029 5.23474 4.37553 5.11688 4.64062L2.5125 10.5H1.5C1.30109 10.5 1.11032 10.579 0.96967 10.7197C0.829018 10.8603 0.75 11.0511 0.75 11.25C0.75 11.4489 0.829018 11.6397 0.96967 11.7803C1.11032 11.921 1.30109 12 1.5 12H2.25V19.5C2.25 19.8978 2.40804 20.2794 2.68934 20.5607C2.97064 20.842 3.35218 21 3.75 21H6C6.39782 21 6.77936 20.842 7.06066 20.5607C7.34196 20.2794 7.5 19.8978 7.5 19.5V18H16.5V19.5C16.5 19.8978 16.658 20.2794 16.9393 20.5607C17.2206 20.842 17.6022 21 18 21H20.25C20.6478 21 21.0294 20.842 21.3107 20.5607C21.592 20.2794 21.75 19.8978 21.75 19.5V12H22.5C22.6989 12 22.8897 11.921 23.0303 11.7803C23.171 11.6397 23.25 11.4489 23.25 11.25C23.25 11.0511 23.171 10.8603 23.0303 10.7197C22.8897 10.579 22.6989 10.5 22.5 10.5Z" fill="black"/>
</svg>
