<svg width="24" height="24" viewBox="0 0 24 24" fill="none" xmlns="http://www.w3.org/2000/svg">
<path d="M15.7496 4.5V19.5C15.7497 19.6484 15.7058 19.7935 15.6234 19.917C15.541 20.0404 15.4238 20.1366 15.2867 20.1935C15.1496 20.2503 14.9987 20.2651 14.8531 20.2361C14.7076 20.2072 14.5739 20.1356 14.469 20.0306L6.96899 12.5306C6.89926 12.461 6.84394 12.3783 6.80619 12.2872C6.76845 12.1962 6.74902 12.0986 6.74902 12C6.74902 11.9014 6.76845 11.8038 6.80619 11.7128C6.84394 11.6217 6.89926 11.539 6.96899 11.4694L14.469 3.96937C14.5739 3.86436 14.7076 3.79284 14.8531 3.76385C14.9987 3.73486 15.1496 3.74971 15.2867 3.80653C15.4238 3.86334 15.541 3.95956 15.6234 4.08301C15.7058 4.20645 15.7497 4.35157 15.7496 4.5Z" fill="black"/>
</svg>
