<svg width="24" height="24" viewBox="0 0 24 24" fill="none" xmlns="http://www.w3.org/2000/svg">
<path d="M18.8978 5.10189C17.5338 3.73928 15.7965 2.81163 13.9055 2.43619C12.0144 2.06076 10.0545 2.2544 8.27347 2.99263C6.49245 3.73087 4.97027 4.98055 3.89935 6.58373C2.82842 8.1869 2.25684 10.0716 2.25684 11.9995C2.25684 13.9275 2.82842 15.8122 3.89935 17.4154C4.97027 19.0185 6.49245 20.2682 8.27347 21.0065C10.0545 21.7447 12.0144 21.9383 13.9055 21.5629C15.7965 21.1875 17.5338 20.2598 18.8978 18.8972C20.7244 17.0664 21.7502 14.5858 21.7502 11.9995C21.7502 9.41333 20.7244 6.93271 18.8978 5.10189ZM11.7812 12.5306L8.7812 15.5306C8.71152 15.6003 8.62879 15.6556 8.53775 15.6933C8.4467 15.731 8.34912 15.7504 8.25057 15.7504C8.15203 15.7504 8.05445 15.731 7.9634 15.6933C7.87236 15.6556 7.78963 15.6003 7.71995 15.5306C7.65026 15.461 7.59499 15.3782 7.55728 15.2872C7.51957 15.1961 7.50016 15.0986 7.50016 15C7.50016 14.9015 7.51957 14.8039 7.55728 14.7128C7.59499 14.6218 7.65026 14.5391 7.71995 14.4694L10.1893 12L7.71807 9.52876C7.64839 9.45908 7.59311 9.37636 7.5554 9.28531C7.51769 9.19427 7.49828 9.09669 7.49828 8.99814C7.49828 8.89959 7.51769 8.80201 7.5554 8.71097C7.59311 8.61992 7.64839 8.5372 7.71807 8.46751C7.78776 8.39783 7.87048 8.34256 7.96153 8.30484C8.05257 8.26713 8.15015 8.24772 8.2487 8.24772C8.34724 8.24772 8.44483 8.26713 8.53587 8.30484C8.62691 8.34256 8.70964 8.39783 8.77932 8.46751L11.7793 11.4675C11.8495 11.5371 11.9052 11.6198 11.9432 11.711C11.9813 11.8021 12.001 11.8999 12.0012 11.9987C12.0013 12.0975 11.982 12.1953 11.9442 12.2866C11.9065 12.3779 11.8511 12.4608 11.7812 12.5306ZM17.0312 12.5306L14.0312 15.5306C13.8905 15.6714 13.6996 15.7504 13.5006 15.7504C13.3015 15.7504 13.1107 15.6714 12.9699 15.5306C12.8292 15.3899 12.7502 15.199 12.7502 15C12.7502 14.801 12.8292 14.6101 12.9699 14.4694L15.4421 12L12.9709 9.52876C12.9012 9.45908 12.8459 9.37636 12.8082 9.28531C12.7705 9.19427 12.7511 9.09669 12.7511 8.99814C12.7511 8.89959 12.7705 8.80201 12.8082 8.71097C12.8459 8.61992 12.9012 8.5372 12.9709 8.46751C13.0406 8.39783 13.1233 8.34256 13.2143 8.30484C13.3054 8.26713 13.403 8.24772 13.5015 8.24772C13.6001 8.24772 13.6976 8.26713 13.7887 8.30484C13.8797 8.34256 13.9625 8.39783 14.0321 8.46751L17.0321 11.4675C17.1022 11.5371 17.1578 11.6199 17.1958 11.7111C17.2338 11.8023 17.2534 11.9001 17.2535 11.9989C17.2536 12.0977 17.2342 12.1955 17.1963 12.2868C17.1585 12.378 17.103 12.4609 17.0331 12.5306H17.0312Z" fill="black"/>
</svg>
