<svg width="24" height="24" viewBox="0 0 24 24" fill="none" xmlns="http://www.w3.org/2000/svg">
<path d="M6.8068 7.78687C6.74995 7.64984 6.73502 7.49903 6.76389 7.35352C6.79276 7.208 6.86413 7.07432 6.96899 6.96937L11.469 2.46937C11.5386 2.39964 11.6214 2.34432 11.7124 2.30657C11.8035 2.26883 11.9011 2.2494 11.9996 2.2494C12.0982 2.2494 12.1958 2.26883 12.2868 2.30657C12.3779 2.34432 12.4606 2.39964 12.5302 2.46937L17.0302 6.96937C17.1352 7.07426 17.2068 7.20795 17.2358 7.35351C17.2647 7.49908 17.2499 7.64997 17.1931 7.78709C17.1363 7.92421 17.04 8.04138 16.9166 8.12379C16.7932 8.20619 16.648 8.25011 16.4996 8.25H7.49961C7.35128 8.24996 7.20628 8.20595 7.08296 8.12351C6.95965 8.04108 6.86354 7.92392 6.8068 7.78687ZM16.4996 15.75H7.49961C7.35119 15.7499 7.20607 15.7938 7.08263 15.8762C6.95918 15.9586 6.86296 16.0758 6.80615 16.2129C6.74933 16.35 6.73448 16.5009 6.76347 16.6465C6.79245 16.792 6.86398 16.9257 6.96899 17.0306L11.469 21.5306C11.5386 21.6004 11.6214 21.6557 11.7124 21.6934C11.8035 21.7312 11.9011 21.7506 11.9996 21.7506C12.0982 21.7506 12.1958 21.7312 12.2868 21.6934C12.3779 21.6557 12.4606 21.6004 12.5302 21.5306L17.0302 17.0306C17.1352 16.9257 17.2068 16.792 17.2358 16.6465C17.2647 16.5009 17.2499 16.35 17.1931 16.2129C17.1363 16.0758 17.04 15.9586 16.9166 15.8762C16.7932 15.7938 16.648 15.7499 16.4996 15.75Z" fill="black"/>
</svg>
