<svg width="24" height="24" viewBox="0 0 24 24" fill="none" xmlns="http://www.w3.org/2000/svg">
<path d="M20.0302 18.9694C20.1353 19.0743 20.2068 19.208 20.2358 19.3535C20.2647 19.4991 20.2499 19.65 20.1931 19.7871C20.1363 19.9242 20.04 20.0414 19.9166 20.1238C19.7932 20.2062 19.648 20.2501 19.4996 20.25H4.49961C4.35119 20.2501 4.20607 20.2062 4.08263 20.1238C3.95918 20.0414 3.86296 19.9242 3.80615 19.7871C3.74933 19.65 3.73448 19.4991 3.76347 19.3535C3.79245 19.208 3.86398 19.0743 3.96899 18.9694L10.1893 12.75H4.49961C4.35119 12.7501 4.20607 12.7062 4.08263 12.6238C3.95918 12.5414 3.86296 12.4242 3.80615 12.2871C3.74933 12.15 3.73448 11.9991 3.76347 11.8535C3.79245 11.708 3.86398 11.5743 3.96899 11.4694L11.469 3.96937C11.5386 3.89964 11.6214 3.84432 11.7124 3.80658C11.8035 3.76883 11.9011 3.7494 11.9996 3.7494C12.0982 3.7494 12.1958 3.76883 12.2868 3.80658C12.3779 3.84432 12.4606 3.89964 12.5302 3.96937L20.0302 11.4694C20.1353 11.5743 20.2068 11.708 20.2358 11.8535C20.2647 11.9991 20.2499 12.15 20.1931 12.2871C20.1363 12.4242 20.04 12.5414 19.9166 12.6238C19.7932 12.7062 19.648 12.7501 19.4996 12.75H13.8099L20.0302 18.9694Z" fill="black"/>
</svg>
