<svg width="24" height="24" viewBox="0 0 24 24" fill="none" xmlns="http://www.w3.org/2000/svg">
<path d="M18.8975 5.10281C17.3015 3.50356 15.2002 2.50729 12.9519 2.28383C10.7036 2.06037 8.44737 2.62355 6.5678 3.87737C4.68822 5.13119 3.30165 6.99805 2.64441 9.15974C1.98717 11.3214 2.09995 13.6441 2.96352 15.732C3.8271 17.8198 5.38801 19.5436 7.38022 20.6094C9.37242 21.6752 11.6726 22.0172 13.8887 21.577C16.1048 21.1367 18.0996 19.9416 19.5332 18.1952C20.9667 16.4489 21.7503 14.2594 21.7503 12C21.7501 9.4139 20.7241 6.93347 18.8975 5.10281ZM15.5319 14.0316L12.5319 17.0316C12.4622 17.1013 12.3795 17.1566 12.2884 17.1944C12.1974 17.2321 12.0998 17.2515 12.0012 17.2515C11.9027 17.2515 11.8051 17.2321 11.714 17.1944C11.623 17.1566 11.5403 17.1013 11.4706 17.0316L8.47061 14.0316C8.40092 13.9619 8.34565 13.8792 8.30794 13.7881C8.27023 13.6971 8.25082 13.5995 8.25082 13.5009C8.25082 13.4024 8.27023 13.3048 8.30794 13.2138C8.34565 13.1227 8.40092 13.04 8.47061 12.9703C8.54029 12.9006 8.62302 12.8454 8.71406 12.8076C8.80511 12.7699 8.90269 12.7505 9.00123 12.7505C9.09978 12.7505 9.19736 12.7699 9.2884 12.8076C9.37945 12.8454 9.46217 12.9006 9.53186 12.9703L12.0003 15.4416L14.4706 12.9703C14.6113 12.8296 14.8022 12.7505 15.0012 12.7505C15.2003 12.7505 15.3911 12.8296 15.5319 12.9703C15.6726 13.111 15.7516 13.3019 15.7516 13.5009C15.7516 13.7 15.6726 13.8908 15.5319 14.0316ZM15.5319 8.78156L12.5319 11.7816C12.4622 11.8513 12.3795 11.9066 12.2884 11.9444C12.1974 11.9821 12.0998 12.0015 12.0012 12.0015C11.9027 12.0015 11.8051 11.9821 11.714 11.9444C11.623 11.9066 11.5403 11.8513 11.4706 11.7816L8.47061 8.78156C8.40092 8.71188 8.34565 8.62915 8.30794 8.53811C8.27023 8.44706 8.25082 8.34948 8.25082 8.25094C8.25082 8.15239 8.27023 8.05481 8.30794 7.96377C8.34565 7.87272 8.40092 7.79 8.47061 7.72031C8.54029 7.65063 8.62302 7.59535 8.71406 7.55764C8.80511 7.51993 8.90269 7.50052 9.00123 7.50052C9.09978 7.50052 9.19736 7.51993 9.2884 7.55764C9.37945 7.59535 9.46217 7.65063 9.53186 7.72031L12.0003 10.1887L14.4706 7.7175C14.6113 7.57677 14.8022 7.49771 15.0012 7.49771C15.2003 7.49771 15.3911 7.57677 15.5319 7.7175C15.6726 7.85823 15.7516 8.0491 15.7516 8.24813C15.7516 8.44715 15.6726 8.63802 15.5319 8.77875V8.78156Z" fill="black"/>
</svg>
