<svg width="24" height="24" viewBox="0 0 24 24" fill="none" xmlns="http://www.w3.org/2000/svg">
<path d="M19.4996 4.5V19.5C19.4997 19.6484 19.4558 19.7935 19.3734 19.917C19.291 20.0404 19.1738 20.1366 19.0367 20.1935C18.8996 20.2503 18.7487 20.2651 18.6031 20.2361C18.4576 20.2072 18.3239 20.1356 18.219 20.0306L11.9996 13.8103V19.5C11.9997 19.6484 11.9558 19.7935 11.8734 19.917C11.791 20.0404 11.6738 20.1366 11.5367 20.1935C11.3996 20.2503 11.2487 20.2651 11.1031 20.2361C10.9576 20.2072 10.8239 20.1356 10.719 20.0306L3.21899 12.5306C3.14926 12.461 3.09394 12.3783 3.05619 12.2872C3.01845 12.1962 2.99902 12.0986 2.99902 12C2.99902 11.9014 3.01845 11.8038 3.05619 11.7128C3.09394 11.6217 3.14926 11.539 3.21899 11.4694L10.719 3.96937C10.8239 3.86436 10.9576 3.79284 11.1031 3.76385C11.2487 3.73486 11.3996 3.74971 11.5367 3.80653C11.6738 3.86334 11.791 3.95956 11.8734 4.08301C11.9558 4.20645 11.9997 4.35157 11.9996 4.5V10.1897L18.219 3.96937C18.3239 3.86436 18.4576 3.79284 18.6031 3.76385C18.7487 3.73486 18.8996 3.74971 19.0367 3.80653C19.1738 3.86334 19.291 3.95956 19.3734 4.08301C19.4558 4.20645 19.4997 4.35157 19.4996 4.5Z" fill="black"/>
</svg>
