<svg width="24" height="24" viewBox="0 0 24 24" fill="none" xmlns="http://www.w3.org/2000/svg">
<path d="M18.8978 5.10189C17.5338 3.73928 15.7965 2.81163 13.9055 2.43619C12.0144 2.06076 10.0545 2.2544 8.27347 2.99263C6.49245 3.73087 4.97027 4.98055 3.89935 6.58373C2.82842 8.1869 2.25684 10.0716 2.25684 11.9995C2.25684 13.9275 2.82842 15.8122 3.89935 17.4154C4.97027 19.0185 6.49245 20.2682 8.27347 21.0065C10.0545 21.7447 12.0144 21.9383 13.9055 21.5629C15.7965 21.1875 17.5338 20.2598 18.8978 18.8972C20.7244 17.0664 21.7502 14.5858 21.7502 11.9995C21.7502 9.41333 20.7244 6.93271 18.8978 5.10189ZM11.0303 14.4703C11.0999 14.54 11.1552 14.6227 11.1929 14.7138C11.2306 14.8048 11.2501 14.9024 11.2501 15.001C11.2501 15.0995 11.2306 15.1971 11.1929 15.2881C11.1552 15.3792 11.0999 15.4619 11.0303 15.5316C10.9606 15.6013 10.8779 15.6565 10.7868 15.6942C10.6958 15.732 10.5982 15.7514 10.4996 15.7514C10.4011 15.7514 10.3035 15.732 10.2125 15.6942C10.1214 15.6565 10.0387 15.6013 9.96901 15.5316L6.96901 12.5316C6.89928 12.4619 6.84396 12.3792 6.80622 12.2882C6.76847 12.1971 6.74904 12.0995 6.74904 12.001C6.74904 11.9024 6.76847 11.8048 6.80622 11.7137C6.84396 11.6227 6.89928 11.54 6.96901 11.4703L9.96901 8.47033C10.0387 8.40064 10.1214 8.34537 10.2125 8.30766C10.3035 8.26995 10.4011 8.25054 10.4996 8.25054C10.5982 8.25054 10.6958 8.26995 10.7868 8.30766C10.8779 8.34537 10.9606 8.40064 11.0303 8.47033C11.0999 8.54001 11.1552 8.62274 11.1929 8.71378C11.2306 8.80482 11.2501 8.90241 11.2501 9.00095C11.2501 9.0995 11.2306 9.19708 11.1929 9.28812C11.1552 9.37917 11.0999 9.46189 11.0303 9.53158L8.55901 12L11.0303 14.4703ZM16.2803 14.4703C16.3499 14.54 16.4052 14.6227 16.4429 14.7138C16.4806 14.8048 16.5001 14.9024 16.5001 15.001C16.5001 15.0995 16.4806 15.1971 16.4429 15.2881C16.4052 15.3792 16.3499 15.4619 16.2803 15.5316C16.2106 15.6013 16.1279 15.6565 16.0368 15.6942C15.9458 15.732 15.8482 15.7514 15.7496 15.7514C15.6511 15.7514 15.5535 15.732 15.4625 15.6942C15.3714 15.6565 15.2887 15.6013 15.219 15.5316L12.219 12.5316C12.1493 12.4619 12.094 12.3792 12.0562 12.2882C12.0185 12.1971 11.999 12.0995 11.999 12.001C11.999 11.9024 12.0185 11.8048 12.0562 11.7137C12.094 11.6227 12.1493 11.54 12.219 11.4703L15.219 8.47033C15.2887 8.40064 15.3714 8.34537 15.4625 8.30766C15.5535 8.26995 15.6511 8.25054 15.7496 8.25054C15.8482 8.25054 15.9458 8.26995 16.0368 8.30766C16.1279 8.34537 16.2106 8.40064 16.2803 8.47033C16.3499 8.54001 16.4052 8.62274 16.4429 8.71378C16.4806 8.80482 16.5001 8.90241 16.5001 9.00095C16.5001 9.0995 16.4806 9.19708 16.4429 9.28812C16.4052 9.37917 16.3499 9.46189 16.2803 9.53158L13.8118 12L16.2803 14.4703Z" fill="black"/>
</svg>
