<svg width="24" height="24" viewBox="0 0 24 24" fill="none" xmlns="http://www.w3.org/2000/svg">
<path d="M20.1924 11.7131C20.2493 11.8502 20.2642 12.001 20.2353 12.1465C20.2065 12.292 20.1351 12.4257 20.0302 12.5306L12.5302 20.0306C12.4606 20.1004 12.3779 20.1557 12.2868 20.1934C12.1958 20.2312 12.0982 20.2506 11.9996 20.2506C11.9011 20.2506 11.8035 20.2312 11.7124 20.1934C11.6214 20.1557 11.5386 20.1004 11.469 20.0306L3.96899 12.5306C3.86398 12.4257 3.79245 12.292 3.76347 12.1465C3.73448 12.0009 3.74933 11.85 3.80615 11.7129C3.86296 11.5758 3.95918 11.4586 4.08263 11.3762C4.20607 11.2938 4.35119 11.2499 4.49961 11.25H10.1893L3.96899 5.03063C3.86398 4.92573 3.79245 4.79204 3.76347 4.64648C3.73448 4.50092 3.74933 4.35002 3.80615 4.21291C3.86296 4.07579 3.95918 3.95861 4.08263 3.87621C4.20607 3.79381 4.35119 3.74988 4.49961 3.75H19.4996C19.648 3.74988 19.7932 3.79381 19.9166 3.87621C20.04 3.95861 20.1363 4.07579 20.1931 4.21291C20.2499 4.35002 20.2647 4.50092 20.2358 4.64648C20.2068 4.79204 20.1353 4.92573 20.0302 5.03063L13.8099 11.25H19.4996C19.648 11.25 19.7929 11.294 19.9163 11.3765C20.0396 11.4589 20.1357 11.5761 20.1924 11.7131Z" fill="black"/>
</svg>
