<svg width="24" height="24" viewBox="0 0 24 24" fill="none" xmlns="http://www.w3.org/2000/svg">
<path d="M18.75 2.25H18C17.6022 2.25 17.2207 2.40804 16.9393 2.68934C16.658 2.97064 16.5 3.35218 16.5 3.75V5.25H13.875V3.75C13.875 3.35218 13.717 2.97064 13.4357 2.68934C13.1544 2.40804 12.7728 2.25 12.375 2.25H11.625C11.2272 2.25 10.8457 2.40804 10.5643 2.68934C10.283 2.97064 10.125 3.35218 10.125 3.75V5.25H7.50001V3.75C7.50001 3.35218 7.34197 2.97064 7.06067 2.68934C6.77936 2.40804 6.39783 2.25 6.00001 2.25H5.25001C4.85218 2.25 4.47065 2.40804 4.18935 2.68934C3.90804 2.97064 3.75001 3.35218 3.75001 3.75V7.93969C3.74938 8.13674 3.78792 8.33196 3.86341 8.51398C3.93889 8.69601 4.0498 8.86122 4.18969 9L5.25001 10.0603V20.25C5.25001 20.6478 5.40804 21.0294 5.68935 21.3107C5.97065 21.592 6.35218 21.75 6.75001 21.75H17.25C17.6478 21.75 18.0294 21.592 18.3107 21.3107C18.592 21.0294 18.75 20.6478 18.75 20.25V10.0603L19.8103 9C19.9502 8.86122 20.0611 8.69601 20.1366 8.51398C20.2121 8.33196 20.2506 8.13674 20.25 7.93969V3.75C20.25 3.35218 20.092 2.97064 19.8107 2.68934C19.5294 2.40804 19.1478 2.25 18.75 2.25ZM14.25 20.25H9.75001V14.25C9.75001 13.6533 9.98706 13.081 10.409 12.659C10.831 12.2371 11.4033 12 12 12C12.5967 12 13.169 12.2371 13.591 12.659C14.013 13.081 14.25 13.6533 14.25 14.25V20.25Z" fill="black"/>
</svg>
