<svg width="24" height="24" viewBox="0 0 24 24" fill="none" xmlns="http://www.w3.org/2000/svg">
<path d="M20.8904 3.14436C20.6111 3.01246 20.2978 2.97004 19.9934 3.0229C19.689 3.07575 19.4083 3.22131 19.1898 3.43967C19.1767 3.4528 19.1654 3.46499 19.1542 3.47811L17.536 5.34374C15.877 4.3057 13.9595 3.75524 12.0025 3.75524C10.0454 3.75524 8.12789 4.3057 6.46886 5.34374L4.84605 3.47811C4.8348 3.46499 4.82355 3.4528 4.81043 3.43967C4.59188 3.22131 4.31123 3.07575 4.00685 3.0229C3.70246 2.97004 3.38917 3.01246 3.1098 3.14436C2.84897 3.27244 2.62978 3.47182 2.47762 3.71938C2.32547 3.96694 2.24659 4.25255 2.25011 4.54311V12.75C2.25011 17.3437 6.00574 21.1528 10.8339 21.6862C10.8865 21.6921 10.9397 21.6867 10.9901 21.6705C11.0404 21.6542 11.0868 21.6275 11.1261 21.5921C11.1654 21.5567 11.1968 21.5134 11.2182 21.465C11.2396 21.4165 11.2504 21.3642 11.2501 21.3112V18.3112L9.99199 17.0522C9.84935 16.9137 9.76572 16.7256 9.75855 16.5269C9.75139 16.3283 9.82125 16.1346 9.95355 15.9862C10.0223 15.913 10.1051 15.8543 10.197 15.8137C10.289 15.773 10.3881 15.7513 10.4886 15.7497C10.589 15.7481 10.6888 15.7668 10.782 15.8045C10.8751 15.8422 10.9597 15.8983 11.0307 15.9694L12.0001 16.9387L12.9695 15.9684C13.0405 15.8974 13.1251 15.8413 13.2183 15.8036C13.3114 15.7658 13.4112 15.7472 13.5117 15.7488C13.6121 15.7503 13.7113 15.7721 13.8032 15.8127C13.8951 15.8533 13.9779 15.912 14.0467 15.9853C14.179 16.1336 14.2488 16.3274 14.2417 16.526C14.2345 16.7246 14.1509 16.9128 14.0082 17.0512L12.7501 18.3103V21.3103C12.7498 21.3632 12.7607 21.4156 12.782 21.464C12.8034 21.5124 12.8348 21.5558 12.8741 21.5912C12.9134 21.6266 12.9598 21.6533 13.0102 21.6695C13.0605 21.6857 13.1138 21.6911 13.1664 21.6853C17.9945 21.1519 21.7501 17.3437 21.7501 12.75V4.54311C21.7536 4.25255 21.6748 3.96694 21.5226 3.71938C21.3704 3.47182 21.1513 3.27244 20.8904 3.14436ZM7.87511 14.25C7.65261 14.25 7.4351 14.184 7.2501 14.0604C7.06509 13.9368 6.9209 13.7611 6.83575 13.5555C6.7506 13.3499 6.72832 13.1237 6.77173 12.9055C6.81514 12.6873 6.92228 12.4868 7.07962 12.3295C7.23695 12.1722 7.43741 12.065 7.65564 12.0216C7.87386 11.9782 8.10006 12.0005 8.30563 12.0856C8.5112 12.1708 8.6869 12.315 8.81052 12.5C8.93413 12.685 9.00011 12.9025 9.00011 13.125C9.00011 13.4234 8.88159 13.7095 8.67061 13.9205C8.45963 14.1315 8.17348 14.25 7.87511 14.25ZM9.75011 8.24999C9.75011 8.4489 9.67109 8.63966 9.53044 8.78032C9.38979 8.92097 9.19902 8.99999 9.00011 8.99999C8.8012 8.99999 8.61044 8.92097 8.46978 8.78032C8.32913 8.63966 8.25011 8.4489 8.25011 8.24999V6.46874C8.25011 6.26982 8.32913 6.07906 8.46978 5.93841C8.61044 5.79775 8.8012 5.71874 9.00011 5.71874C9.19902 5.71874 9.38979 5.79775 9.53044 5.93841C9.67109 6.07906 9.75011 6.26982 9.75011 6.46874V8.24999ZM12.7501 8.24999C12.7501 8.4489 12.6711 8.63966 12.5304 8.78032C12.3898 8.92097 12.199 8.99999 12.0001 8.99999C11.8012 8.99999 11.6104 8.92097 11.4698 8.78032C11.3291 8.63966 11.2501 8.4489 11.2501 8.24999V5.99999C11.2501 5.80107 11.3291 5.61031 11.4698 5.46966C11.6104 5.329 11.8012 5.24999 12.0001 5.24999C12.199 5.24999 12.3898 5.329 12.5304 5.46966C12.6711 5.61031 12.7501 5.80107 12.7501 5.99999V8.24999ZM14.2501 8.24999V6.46874C14.2501 6.26982 14.3291 6.07906 14.4698 5.93841C14.6104 5.79775 14.8012 5.71874 15.0001 5.71874C15.199 5.71874 15.3898 5.79775 15.5304 5.93841C15.6711 6.07906 15.7501 6.26982 15.7501 6.46874V8.24999C15.7501 8.4489 15.6711 8.63966 15.5304 8.78032C15.3898 8.92097 15.199 8.99999 15.0001 8.99999C14.8012 8.99999 14.6104 8.92097 14.4698 8.78032C14.3291 8.63966 14.2501 8.4489 14.2501 8.24999ZM16.1251 14.25C15.9026 14.25 15.6851 14.184 15.5001 14.0604C15.3151 13.9368 15.1709 13.7611 15.0857 13.5555C15.0006 13.3499 14.9783 13.1237 15.0217 12.9055C15.0651 12.6873 15.1723 12.4868 15.3296 12.3295C15.487 12.1722 15.6874 12.065 15.9056 12.0216C16.1239 11.9782 16.3501 12.0005 16.5556 12.0856C16.7612 12.1708 16.9369 12.315 17.0605 12.5C17.1841 12.685 17.2501 12.9025 17.2501 13.125C17.2501 13.4234 17.1316 13.7095 16.9206 13.9205C16.7096 14.1315 16.4235 14.25 16.1251 14.25Z" fill="black"/>
</svg>
