<svg width="24" height="24" viewBox="0 0 24 24" fill="none" xmlns="http://www.w3.org/2000/svg">
<path d="M20.0041 20.805C19.8569 20.9388 19.6626 21.0086 19.4639 20.9991C19.2653 20.9896 19.0785 20.9016 18.9447 20.7544L18.4863 20.25H2.99972C2.70287 20.2502 2.41263 20.1624 2.16574 19.9976C1.91885 19.8328 1.72641 19.5984 1.61278 19.3242C1.49915 19.05 1.46945 18.7482 1.52742 18.4571C1.5854 18.1659 1.72845 17.8986 1.93847 17.6888L9.3869 10.2413L3.94378 4.25439C3.87748 4.18151 3.82619 4.09628 3.79283 4.00357C3.75947 3.91087 3.7447 3.8125 3.74936 3.71408C3.75401 3.61567 3.77801 3.51913 3.81997 3.42999C3.86194 3.34085 3.92105 3.26085 3.99393 3.19455C4.06682 3.12825 4.15205 3.07696 4.24475 3.0436C4.33746 3.01024 4.43583 2.99547 4.53424 3.00013C4.63266 3.00478 4.72919 3.02878 4.81834 3.07074C4.90748 3.11271 4.98748 3.17182 5.05378 3.2447L20.0538 19.7447C20.1202 19.8176 20.1716 19.9028 20.2051 19.9955C20.2385 20.0883 20.2534 20.1867 20.2488 20.2852C20.2442 20.3836 20.2202 20.4802 20.1782 20.5694C20.1362 20.6587 20.077 20.7387 20.0041 20.805ZM18.1947 15.4688C18.2965 15.5807 18.4297 15.6593 18.577 15.6941C18.7242 15.729 18.8785 15.7185 19.0197 15.664C19.1608 15.6096 19.2822 15.5137 19.3679 15.389C19.4536 15.2643 19.4995 15.1166 19.4997 14.9653V3.75002C19.4994 3.45353 19.4112 3.16378 19.2463 2.91738C19.0814 2.67098 18.8472 2.47897 18.5732 2.36561C18.2993 2.25225 17.9978 2.22263 17.707 2.28048C17.4163 2.33833 17.1491 2.48106 16.9394 2.69064L12.0166 7.61252C11.8814 7.74867 11.8035 7.93146 11.799 8.12329C11.7944 8.31511 11.8636 8.50138 11.9922 8.64377L18.1947 15.4688Z" fill="black"/>
</svg>
