<svg width="24" height="24" viewBox="0 0 24 24" fill="none" xmlns="http://www.w3.org/2000/svg">
<path d="M13.8014 16.2347C13.8363 16.2695 13.864 16.3109 13.8828 16.3564C13.9017 16.4019 13.9114 16.4507 13.9114 16.5C13.9114 16.5493 13.9017 16.5981 13.8828 16.6436C13.864 16.6891 13.8363 16.7305 13.8014 16.7653L13.4068 17.1563C13.0782 17.4855 12.8598 17.9085 12.7816 18.367C12.7033 18.8255 12.7691 19.297 12.9699 19.7166C12.9959 19.7737 13.0072 19.8365 13.0027 19.8991C12.9982 19.9617 12.9781 20.0222 12.9441 20.075C12.9101 20.1278 12.8635 20.1713 12.8083 20.2014C12.7532 20.2314 12.6914 20.2472 12.6286 20.2472H3.0005C2.69158 20.2472 2.39017 20.1519 2.13746 19.9742C1.88476 19.7965 1.69309 19.5451 1.58863 19.2544C1.49524 18.9798 1.48151 18.6844 1.54904 18.4023C1.61657 18.1203 1.76258 17.8631 1.97019 17.6606L16.9393 2.68969C17.1576 2.47137 17.438 2.32576 17.7422 2.27274C18.0464 2.21972 18.3596 2.26187 18.6389 2.39344C18.9002 2.52141 19.1198 2.72084 19.2723 2.96858C19.4248 3.21633 19.5039 3.50223 19.5005 3.79313V11.6522C19.5013 11.7435 19.4689 11.8319 19.4091 11.9009C19.3494 11.97 19.2666 12.0149 19.1761 12.0272C18.6961 12.0942 18.2508 12.3149 17.9068 12.6563L17.513 13.05C17.4782 13.0849 17.4368 13.1125 17.3913 13.1314C17.3458 13.1503 17.297 13.16 17.2477 13.16C17.1984 13.16 17.1496 13.1503 17.1041 13.1314C17.0586 13.1125 17.0172 13.0849 16.9824 13.05L16.5943 12.6563C16.1776 12.2393 15.614 12.0024 15.0246 11.9966C14.4352 11.9909 13.8671 12.2166 13.4424 12.6253C12.5339 13.5 12.5555 14.9822 13.4424 15.8738L13.8014 16.2347ZM18.3108 16.5L20.0311 14.7797C20.1717 14.639 20.2507 14.4481 20.2506 14.2492C20.2505 14.0503 20.1714 13.8595 20.0307 13.7189C19.8899 13.5783 19.6991 13.4994 19.5002 13.4994C19.3012 13.4995 19.1105 13.5786 18.9699 13.7194L17.2505 15.4388L15.5302 13.7194C15.3884 13.5847 15.1996 13.5107 15.004 13.5132C14.8084 13.5157 14.6216 13.5945 14.4833 13.7328C14.345 13.8711 14.2662 14.0579 14.2637 14.2535C14.2612 14.4491 14.3352 14.6379 14.4699 14.7797L16.1893 16.5L14.4689 18.2194C14.3282 18.36 14.2491 18.5507 14.249 18.7497C14.2489 18.9486 14.3279 19.1394 14.4685 19.2802C14.6091 19.4209 14.7998 19.5 14.9988 19.5001C15.1977 19.5002 15.3885 19.4212 15.5293 19.2806L17.2505 17.5603L18.9708 19.2806C19.1115 19.4214 19.3024 19.5004 19.5014 19.5004C19.7005 19.5004 19.8913 19.4214 20.0321 19.2806C20.1728 19.1399 20.2519 18.949 20.2519 18.75C20.2519 18.551 20.1728 18.3601 20.0321 18.2194L18.3108 16.5Z" fill="black"/>
</svg>
