<svg width="24" height="24" viewBox="0 0 24 24" fill="none" xmlns="http://www.w3.org/2000/svg">
<path d="M18.574 2.36533C18.2999 2.25163 17.9983 2.22176 17.7073 2.2795C17.4163 2.33724 17.1489 2.47999 16.939 2.6897L1.93899 17.6897C1.7293 17.8995 1.58653 18.1668 1.52874 18.4578C1.47095 18.7488 1.50073 19.0503 1.61432 19.3244C1.72791 19.5984 1.92021 19.8326 2.1669 19.9974C2.41359 20.1621 2.70359 20.2501 3.00024 20.25H18.0002C18.3981 20.25 18.7796 20.092 19.0609 19.8107C19.3422 19.5294 19.5002 19.1478 19.5002 18.75V3.75002C19.5007 3.45334 19.4129 3.16322 19.248 2.91663C19.083 2.67003 18.8484 2.47812 18.574 2.36533ZM18.0002 18.75H8.25024V13.5L18.0002 3.75002V18.75Z" fill="black"/>
</svg>
