<svg width="24" height="24" viewBox="0 0 24 24" fill="none" xmlns="http://www.w3.org/2000/svg">
<path d="M19.5003 3.74999V18.75C19.5003 19.1478 19.3422 19.5294 19.0609 19.8107C18.7796 20.092 18.3981 20.25 18.0003 20.25H3.00028C2.7036 20.2499 2.41362 20.1617 2.16702 19.9968C1.92041 19.8318 1.72826 19.5975 1.61487 19.3233C1.50147 19.0492 1.47192 18.7475 1.52996 18.4566C1.58799 18.1656 1.731 17.8984 1.94091 17.6887L16.9409 2.68874C17.1508 2.47937 17.418 2.33688 17.7088 2.27928C17.9996 2.22167 18.301 2.25153 18.5748 2.36508C18.8487 2.47864 19.0827 2.67079 19.2474 2.91728C19.4122 3.16377 19.5001 3.45354 19.5003 3.74999Z" fill="black"/>
</svg>
