<svg width="24" height="24" viewBox="0 0 24 24" fill="none" xmlns="http://www.w3.org/2000/svg">
<path d="M20.25 3.75H3.75C3.35218 3.75 2.97064 3.90804 2.68934 4.18934C2.40804 4.47064 2.25 4.85218 2.25 5.25V18.75C2.25 19.1478 2.40804 19.5294 2.68934 19.8107C2.97064 20.092 3.35218 20.25 3.75 20.25H20.25C20.6478 20.25 21.0294 20.092 21.3107 19.8107C21.592 19.5294 21.75 19.1478 21.75 18.75V5.25C21.75 4.85218 21.592 4.47064 21.3107 4.18934C21.0294 3.90804 20.6478 3.75 20.25 3.75ZM18.75 18H5.25C5.05109 18 4.86032 17.921 4.71967 17.7803C4.57902 17.6397 4.5 17.4489 4.5 17.25V6.75C4.5 6.55109 4.57902 6.36032 4.71967 6.21967C4.86032 6.07902 5.05109 6 5.25 6C5.44891 6 5.63968 6.07902 5.78033 6.21967C5.92098 6.36032 6 6.55109 6 6.75V13.9397L9.21937 10.7194C9.28903 10.6496 9.37175 10.5943 9.46279 10.5566C9.55384 10.5188 9.65144 10.4994 9.75 10.4994C9.84856 10.4994 9.94616 10.5188 10.0372 10.5566C10.1283 10.5943 10.211 10.6496 10.2806 10.7194L12 12.4397L16.1897 8.25H14.25C14.0511 8.25 13.8603 8.17098 13.7197 8.03033C13.579 7.88968 13.5 7.69891 13.5 7.5C13.5 7.30109 13.579 7.11032 13.7197 6.96967C13.8603 6.82902 14.0511 6.75 14.25 6.75H18C18.1989 6.75 18.3897 6.82902 18.5303 6.96967C18.671 7.11032 18.75 7.30109 18.75 7.5V11.25C18.75 11.4489 18.671 11.6397 18.5303 11.7803C18.3897 11.921 18.1989 12 18 12C17.8011 12 17.6103 11.921 17.4697 11.7803C17.329 11.6397 17.25 11.4489 17.25 11.25V9.31031L12.5306 14.0306C12.461 14.1004 12.3783 14.1557 12.2872 14.1934C12.1962 14.2312 12.0986 14.2506 12 14.2506C11.9014 14.2506 11.8038 14.2312 11.7128 14.1934C11.6217 14.1557 11.539 14.1004 11.4694 14.0306L9.75 12.3103L6 16.0603V16.5H18.75C18.9489 16.5 19.1397 16.579 19.2803 16.7197C19.421 16.8603 19.5 17.0511 19.5 17.25C19.5 17.4489 19.421 17.6397 19.2803 17.7803C19.1397 17.921 18.9489 18 18.75 18Z" fill="black"/>
</svg>
