<svg width="24" height="24" viewBox="0 0 24 24" fill="none" xmlns="http://www.w3.org/2000/svg">
<path d="M21.75 19.5C21.75 19.6989 21.671 19.8897 21.5303 20.0303C21.3897 20.171 21.1989 20.25 21 20.25H3C2.80109 20.25 2.61032 20.171 2.46967 20.0303C2.32902 19.8897 2.25 19.6989 2.25 19.5V4.5C2.25 4.30109 2.32902 4.11032 2.46967 3.96967C2.61032 3.82902 2.80109 3.75 3 3.75C3.19891 3.75 3.38968 3.82902 3.53033 3.96967C3.67098 4.11032 3.75 4.30109 3.75 4.5V5.68969L9 10.9397L11.4694 8.46937C11.539 8.39964 11.6217 8.34432 11.7128 8.30658C11.8038 8.26884 11.9014 8.24941 12 8.24941C12.0986 8.24941 12.1962 8.26884 12.2872 8.30658C12.3783 8.34432 12.461 8.39964 12.5306 8.46937L16.875 12.8147L18.2194 11.4694C18.3243 11.3644 18.458 11.2928 18.6035 11.2639C18.7491 11.2349 18.9 11.2497 19.0371 11.3065C19.1742 11.3633 19.2914 11.4596 19.3738 11.583C19.4562 11.7065 19.5001 11.8516 19.5 12V15.75C19.5 15.9489 19.421 16.1397 19.2803 16.2803C19.1397 16.421 18.9489 16.5 18.75 16.5H15C14.8516 16.5001 14.7065 16.4562 14.583 16.3738C14.4596 16.2914 14.3633 16.1742 14.3065 16.0371C14.2497 15.9 14.2349 15.7491 14.2639 15.6035C14.2928 15.458 14.3644 15.3243 14.4694 15.2194L15.8147 13.875L12 10.0603L9.53063 12.5306C9.46097 12.6004 9.37825 12.6557 9.28721 12.6934C9.19616 12.7312 9.09856 12.7506 9 12.7506C8.90144 12.7506 8.80384 12.7312 8.71279 12.6934C8.62175 12.6557 8.53903 12.6004 8.46937 12.5306L3.75 7.81031V18.75H21C21.1989 18.75 21.3897 18.829 21.5303 18.9697C21.671 19.1103 21.75 19.3011 21.75 19.5Z" fill="black"/>
</svg>
