<svg width="24" height="24" viewBox="0 0 24 24" fill="none" xmlns="http://www.w3.org/2000/svg">
<path d="M11.2495 18.7069V21.3075C11.2499 21.3606 11.2389 21.4132 11.2175 21.4617C11.196 21.5103 11.1644 21.5537 11.1249 21.5892C11.0854 21.6246 11.0388 21.6513 10.9882 21.6673C10.9376 21.6834 10.8841 21.6886 10.8314 21.6825C8.6658 21.4177 6.65113 20.4357 5.10841 18.893C3.56569 17.3503 2.5837 15.3356 2.3189 13.17C2.31279 13.1173 2.31795 13.0638 2.33404 13.0132C2.35013 12.9626 2.37679 12.916 2.41224 12.8765C2.44769 12.837 2.49113 12.8054 2.53968 12.7839C2.58824 12.7624 2.6408 12.7515 2.6939 12.7519H5.29264C5.46519 14.2721 6.1483 15.6888 7.23032 16.7705C8.31233 17.8521 9.72927 18.5348 11.2495 18.7069ZM17.1951 12.75H12.7495V17.1956C13.8704 17.0321 14.9086 16.511 15.7096 15.71C16.5106 14.909 17.0316 13.8709 17.1951 12.75ZM12.7495 6.80437V11.25H17.1951C17.0316 10.1291 16.5106 9.09094 15.7096 8.28995C14.9086 7.48896 13.8704 6.96793 12.7495 6.80437ZM21.307 12.75H18.7064C18.5342 14.2705 17.8513 15.6877 16.7693 16.7697C15.6872 17.8518 14.2701 18.5347 12.7495 18.7069V21.3075C12.7492 21.3606 12.7601 21.4132 12.7816 21.4617C12.8031 21.5103 12.8346 21.5537 12.8741 21.5892C12.9137 21.6246 12.9603 21.6513 13.0109 21.6673C13.0615 21.6834 13.1149 21.6886 13.1676 21.6825C15.3332 21.4177 17.3479 20.4357 18.8906 18.893C20.4333 17.3503 21.4153 15.3356 21.6801 13.17C21.6865 13.1173 21.6816 13.0638 21.6658 13.0131C21.6499 12.9624 21.6235 12.9156 21.5882 12.8759C21.5529 12.8362 21.5096 12.8045 21.4611 12.7828C21.4127 12.761 21.3601 12.7499 21.307 12.75ZM18.7064 11.25H21.307C21.3601 11.2503 21.4127 11.2394 21.4612 11.2179C21.5098 11.1965 21.5532 11.1649 21.5887 11.1254C21.6241 11.0859 21.6508 11.0392 21.6669 10.9886C21.683 10.9381 21.6881 10.8846 21.682 10.8319C21.4172 8.66627 20.4352 6.6516 18.8925 5.10888C17.3498 3.56617 15.3351 2.58417 13.1695 2.31937C13.1168 2.31326 13.0633 2.31842 13.0127 2.33451C12.9621 2.35061 12.9155 2.37726 12.876 2.41271C12.8365 2.44816 12.8049 2.4916 12.7835 2.54015C12.762 2.58871 12.751 2.64127 12.7514 2.69437V5.29312C14.2716 5.46567 15.6883 6.14877 16.77 7.23079C17.8517 8.31281 18.5343 9.72974 18.7064 11.25ZM10.8314 2.31937C8.6658 2.58417 6.65113 3.56617 5.10841 5.10888C3.56569 6.6516 2.5837 8.66627 2.3189 10.8319C2.31279 10.8846 2.31795 10.9381 2.33404 10.9886C2.35013 11.0392 2.37679 11.0859 2.41224 11.1254C2.44769 11.1649 2.49113 11.1965 2.53968 11.2179C2.58824 11.2394 2.6408 11.2503 2.6939 11.25H5.29264C5.4648 9.72945 6.14773 8.3123 7.22978 7.23025C8.31183 6.1482 9.72898 5.46527 11.2495 5.29312V2.69249C11.2496 2.63956 11.2385 2.5872 11.2169 2.53887C11.1953 2.49054 11.1637 2.44733 11.1242 2.41209C11.0847 2.37684 11.0382 2.35036 10.9877 2.33438C10.9373 2.3184 10.884 2.31328 10.8314 2.31937ZM6.8039 11.25H11.2495V6.80437C10.1286 6.96793 9.09047 7.48896 8.28948 8.28995C7.48849 9.09094 6.96746 10.1291 6.8039 11.25ZM11.2495 17.1956V12.75H6.8039C6.96746 13.8709 7.48849 14.909 8.28948 15.71C9.09047 16.511 10.1286 17.0321 11.2495 17.1956Z" fill="black"/>
</svg>
