<svg width="24" height="24" viewBox="0 0 24 24" fill="none" xmlns="http://www.w3.org/2000/svg">
<path d="M2.32062 10.8319C2.5421 8.97475 3.3017 7.22288 4.50594 5.79188C4.63918 5.6312 4.8045 5.5001 4.9913 5.40697C5.17811 5.31384 5.3823 5.26072 5.59081 5.25101C5.79933 5.2413 6.00757 5.27522 6.20222 5.3506C6.39687 5.42598 6.57365 5.54115 6.72125 5.68875L9.31531 8.33813C9.56514 8.58738 9.71823 8.91731 9.74725 9.26902C9.77627 9.62072 9.67934 9.97129 9.47375 10.2581C9.31802 10.479 9.20074 10.7247 9.12687 10.9847C9.10341 11.0614 9.05596 11.1286 8.9915 11.1763C8.92704 11.2241 8.84897 11.2499 8.76875 11.25H2.69375C2.64081 11.2501 2.58846 11.239 2.54013 11.2174C2.4918 11.1958 2.44859 11.1642 2.41334 11.1247C2.3781 11.0852 2.35161 11.0387 2.33563 10.9882C2.31965 10.9377 2.31454 10.8845 2.32062 10.8319ZM12.8806 2.25563C12.6734 2.23756 12.4648 2.26277 12.2678 2.32966C12.0709 2.39656 11.8901 2.50367 11.7368 2.6442C11.5834 2.78472 11.461 2.9556 11.3773 3.14596C11.2935 3.33633 11.2503 3.54203 11.2503 3.75V7.56281C11.2477 7.91661 11.3714 8.25973 11.5991 8.53054C11.8267 8.80135 12.1435 8.9821 12.4925 9.04031C13.1496 9.14872 13.752 9.47272 14.2047 9.96125C14.6574 10.4498 14.9346 11.075 14.9927 11.7385C15.0508 12.402 14.8865 13.0659 14.5257 13.6257C14.1648 14.1855 13.628 14.6093 12.9997 14.8303C12.9266 14.8572 12.8634 14.9058 12.8188 14.9697C12.7743 15.0336 12.7503 15.1096 12.7503 15.1875V21.3028C12.75 21.3559 12.7609 21.4085 12.7824 21.457C12.8038 21.5056 12.8354 21.549 12.8749 21.5845C12.9145 21.6199 12.9611 21.6466 13.0117 21.6627C13.0623 21.6788 13.1157 21.6839 13.1684 21.6778C15.5083 21.3889 17.6651 20.2647 19.242 18.512C20.8188 16.7593 21.7096 14.496 21.7503 12.1388C21.8206 7.04906 17.9244 2.7075 12.8806 2.25563ZM10.9925 14.8275C10.5733 14.678 10.1926 14.437 9.87799 14.1221C9.56342 13.8072 9.32286 13.4263 9.17375 13.0069C9.14818 12.9325 9.1002 12.8679 9.03641 12.8219C8.97262 12.7759 8.89614 12.7508 8.8175 12.75H2.69281C2.63981 12.7497 2.58733 12.7606 2.53885 12.782C2.49036 12.8034 2.44697 12.8349 2.41154 12.8743C2.3761 12.9137 2.34943 12.9602 2.33327 13.0107C2.31712 13.0612 2.31185 13.1145 2.31781 13.1672C2.58042 15.3341 3.5619 17.3505 5.10538 18.894C6.64886 20.4375 8.66523 21.419 10.8322 21.6816C10.8849 21.6875 10.9382 21.6823 10.9887 21.6661C11.0392 21.6499 11.0856 21.6233 11.1251 21.5878C11.1645 21.5524 11.196 21.509 11.2174 21.4605C11.2388 21.412 11.2497 21.3596 11.2494 21.3066V15.1875C11.2495 15.1082 11.2248 15.0308 11.1788 14.9662C11.1327 14.9017 11.0676 14.8532 10.9925 14.8275Z" fill="black"/>
</svg>
