<svg width="24" height="24" viewBox="0 0 24 24" fill="none" xmlns="http://www.w3.org/2000/svg">
<path d="M21.75 5.25V17.25C21.75 17.6478 21.592 18.0294 21.3107 18.3107C21.0294 18.592 20.6478 18.75 20.25 18.75H14.6747L13.2834 21.0272C13.1495 21.2484 12.9607 21.4312 12.7353 21.5579C12.5099 21.6846 12.2556 21.7509 11.997 21.7503C11.7384 21.7497 11.4844 21.6823 11.2596 21.5547C11.0347 21.427 10.8467 21.2433 10.7137 21.0216L9.32812 18.7556L3.75 18.75C3.35218 18.75 2.97064 18.592 2.68934 18.3107C2.40804 18.0294 2.25 17.6478 2.25 17.25V5.25C2.25 4.85218 2.40804 4.47064 2.68934 4.18934C2.97064 3.90804 3.35218 3.75 3.75 3.75H20.25C20.6478 3.75 21.0294 3.90804 21.3107 4.18934C21.592 4.47064 21.75 4.85218 21.75 5.25Z" fill="black"/>
</svg>
