<svg width="24" height="24" viewBox="0 0 24 24" fill="none" xmlns="http://www.w3.org/2000/svg">
<path d="M11.7801 15.5306L6.53007 20.7806C6.46041 20.8504 6.37769 20.9057 6.28665 20.9434C6.1956 20.9812 6.098 21.0006 5.99944 21.0006C5.90088 21.0006 5.80328 20.9812 5.71224 20.9434C5.62119 20.9057 5.53847 20.8504 5.46882 20.7806L3.21882 18.5306C3.14913 18.4609 3.09386 18.3782 3.05615 18.2872C3.01843 18.1961 2.99902 18.0985 2.99902 18C2.99902 17.9015 3.01843 17.8039 3.05615 17.7128C3.09386 17.6218 3.14913 17.5391 3.21882 17.4694C3.2885 17.3997 3.37122 17.3444 3.46227 17.3067C3.55331 17.269 3.65089 17.2496 3.74944 17.2496C3.84799 17.2496 3.94557 17.269 4.03661 17.3067C4.12766 17.3444 4.21038 17.3997 4.28007 17.4694L5.99944 19.1897L10.7188 14.4694C10.8595 14.3286 11.0504 14.2496 11.2494 14.2496C11.4485 14.2496 11.6393 14.3286 11.7801 14.4694C11.9208 14.6101 11.9999 14.801 11.9999 15C11.9999 15.199 11.9208 15.3899 11.7801 15.5306ZM19.4994 3H4.49944C4.10162 3 3.72008 3.15804 3.43878 3.43934C3.15748 3.72064 2.99944 4.10218 2.99944 4.5V14.6466C2.99916 14.6992 3.00998 14.7513 3.03118 14.7995C3.05238 14.8477 3.0835 14.8909 3.1225 14.9263C3.1615 14.9617 3.20751 14.9884 3.25754 15.0049C3.30757 15.0213 3.3605 15.027 3.41288 15.0216C3.8608 14.9708 4.3144 15.0217 4.73996 15.1704C5.16553 15.319 5.55212 15.5617 5.871 15.8803C5.88782 15.8973 5.90783 15.9107 5.92987 15.9199C5.95192 15.9291 5.97556 15.9338 5.99944 15.9338C6.02332 15.9338 6.04696 15.9291 6.06901 15.9199C6.09105 15.9107 6.11106 15.8973 6.12788 15.8803L9.12788 12.8803C9.69055 12.3176 10.4537 12.0015 11.2494 12.0015C12.0452 12.0015 12.8083 12.3176 13.371 12.8803C13.9337 13.443 14.2498 14.2061 14.2498 15.0019C14.2498 15.7976 13.9337 16.5608 13.371 17.1234L10.1319 20.3616C10.0794 20.414 10.0437 20.4809 10.0292 20.5536C10.0147 20.6264 10.0221 20.7019 10.0505 20.7704C10.0789 20.839 10.127 20.8976 10.1888 20.9388C10.2505 20.98 10.323 21.0019 10.3973 21.0019H19.4994C19.8973 21.0019 20.2788 20.8438 20.5601 20.5625C20.8414 20.2812 20.9994 19.8997 20.9994 19.5019V4.5C20.9994 4.10218 20.8414 3.72064 20.5601 3.43934C20.2788 3.15804 19.8973 3 19.4994 3Z" fill="black"/>
</svg>
