<svg width="24" height="24" viewBox="0 0 24 24" fill="none" xmlns="http://www.w3.org/2000/svg">
<path d="M22.8119 8.52281L10.7735 20.5603C10.6342 20.6996 10.4688 20.8102 10.2868 20.8856C10.1048 20.961 9.90972 20.9998 9.7127 20.9998C9.51569 20.9998 9.32061 20.961 9.1386 20.8856C8.95659 20.8102 8.79121 20.6996 8.65192 20.5603L1.93755 13.8103C1.65674 13.5291 1.49902 13.1479 1.49902 12.7505C1.49902 12.353 1.65674 11.9719 1.93755 11.6906L4.18755 9.44062C4.46789 9.16021 4.84785 9.0022 5.24436 9.00115C5.64086 9.00009 6.02166 9.15608 6.30348 9.43499L9.73849 12.7416L9.7488 12.7519L18.4422 4.18593C18.7234 3.90598 19.1039 3.74881 19.5007 3.74881C19.8974 3.74881 20.278 3.90598 20.5591 4.18593L22.8091 6.39468C22.9496 6.53391 23.0612 6.69954 23.1374 6.88206C23.2136 7.06458 23.253 7.26036 23.2533 7.45816C23.2535 7.65595 23.2147 7.85185 23.1389 8.03456C23.0632 8.21728 22.952 8.38321 22.8119 8.52281Z" fill="black"/>
</svg>
