<svg width="24" height="24" viewBox="0 0 24 24" fill="none" xmlns="http://www.w3.org/2000/svg">
<path d="M12 2.25C10.0716 2.25 8.18657 2.82183 6.58319 3.89317C4.97982 4.96451 3.73013 6.48726 2.99218 8.26884C2.25422 10.0504 2.06114 12.0108 2.43735 13.9021C2.81355 15.7934 3.74215 17.5307 5.10571 18.8943C6.46928 20.2579 8.20656 21.1865 10.0979 21.5627C11.9892 21.9389 13.9496 21.7458 15.7312 21.0078C17.5127 20.2699 19.0355 19.0202 20.1068 17.4168C21.1782 15.8134 21.75 13.9284 21.75 12C21.7473 9.41498 20.7192 6.93661 18.8913 5.10872C17.0634 3.28084 14.585 2.25273 12 2.25ZM3.75 12C3.75095 10.369 4.23531 8.77487 5.14189 7.41904C6.04848 6.06321 7.33661 5.00652 8.84351 4.38249C10.3504 3.75846 12.0085 3.59509 13.6082 3.91302C15.2079 4.23096 16.6775 5.01593 17.8313 6.16875L6.16875 17.8312C5.40153 17.0664 4.79291 16.1575 4.37784 15.1568C3.96276 14.1562 3.7494 13.0834 3.75 12Z" fill="black"/>
</svg>
