<svg width="24" height="24" viewBox="0 0 24 24" fill="none" xmlns="http://www.w3.org/2000/svg">
<path d="M18.75 3H15.3506C14.9292 2.52818 14.4129 2.15068 13.8355 1.89221C13.2581 1.63374 12.6326 1.50014 12 1.50014C11.3674 1.50014 10.7419 1.63374 10.1645 1.89221C9.58709 2.15068 9.07079 2.52818 8.64937 3H5.25C4.85218 3 4.47064 3.15804 4.18934 3.43934C3.90804 3.72065 3.75 4.10218 3.75 4.5V20.25C3.75 20.6478 3.90804 21.0294 4.18934 21.3107C4.47064 21.592 4.85218 21.75 5.25 21.75H18.75C19.1478 21.75 19.5294 21.592 19.8107 21.3107C20.092 21.0294 20.25 20.6478 20.25 20.25V4.5C20.25 4.10218 20.092 3.72065 19.8107 3.43934C19.5294 3.15804 19.1478 3 18.75 3ZM12 3C12.7956 3 13.5587 3.31607 14.1213 3.87868C14.6839 4.44129 15 5.20435 15 6H9C9 5.20435 9.31607 4.44129 9.87868 3.87868C10.4413 3.31607 11.2044 3 12 3Z" fill="black"/>
</svg>
