<svg width="24" height="24" viewBox="0 0 24 24" fill="none" xmlns="http://www.w3.org/2000/svg">
<path d="M12.7506 7.5V11.5753L16.1369 13.6069C16.3075 13.7093 16.4303 13.8753 16.4785 14.0684C16.5267 14.2614 16.4962 14.4657 16.3938 14.6363C16.2913 14.8068 16.1253 14.9297 15.9323 14.9779C15.7392 15.0261 15.535 14.9956 15.3644 14.8931L11.6144 12.6431C11.5034 12.5764 11.4116 12.4822 11.3478 12.3695C11.2841 12.2568 11.2506 12.1295 11.2506 12V7.5C11.2506 7.30109 11.3297 7.11033 11.4703 6.96967C11.611 6.82902 11.8017 6.75 12.0006 6.75C12.1996 6.75 12.3903 6.82902 12.531 6.96967C12.6716 7.11033 12.7506 7.30109 12.7506 7.5ZM21.2875 5.30719C21.1505 5.25034 20.9997 5.23541 20.8542 5.26428C20.7086 5.29315 20.575 5.36452 20.47 5.46938L19.3131 6.62907C19.0103 6.3 18.6981 5.97282 18.3663 5.63625C17.1155 4.38535 15.5238 3.53078 13.7902 3.17931C12.0565 2.82783 10.2577 2.99505 8.6185 3.66007C6.97932 4.32508 5.57246 5.4584 4.5737 6.91842C3.57495 8.37844 3.02859 10.1004 3.0029 11.8692C2.97721 13.6379 3.47333 15.375 4.42926 16.8634C5.38519 18.3518 6.75854 19.5255 8.37772 20.2379C9.9969 20.9502 11.7901 21.1696 13.5332 20.8686C15.2764 20.5677 16.8922 19.7597 18.1788 18.5456C18.2504 18.4779 18.308 18.3968 18.3483 18.3068C18.3886 18.2168 18.4108 18.1198 18.4136 18.0212C18.4163 17.9227 18.3997 17.8245 18.3646 17.7324C18.3294 17.6403 18.2765 17.556 18.2088 17.4844C18.1411 17.4127 18.0599 17.3551 17.9699 17.3148C17.8799 17.2745 17.7829 17.2524 17.6844 17.2496C17.5858 17.2468 17.4877 17.2635 17.3956 17.2986C17.3035 17.3337 17.2192 17.3867 17.1475 17.4544C16.0755 18.4659 14.7291 19.1392 13.2767 19.39C11.8242 19.6409 10.3301 19.4582 8.98085 18.8647C7.63163 18.2713 6.48717 17.2935 5.69044 16.0535C4.89371 14.8134 4.48004 13.3661 4.5011 11.8923C4.52216 10.4185 4.97701 8.98355 5.80884 7.76676C6.64068 6.54997 7.8126 5.60525 9.17823 5.05063C10.5438 4.49601 12.0426 4.35608 13.4873 4.64831C14.932 4.94054 16.2586 5.65198 17.3013 6.69375C17.6331 7.02938 17.9453 7.35938 18.2491 7.69032L16.72 9.21938C16.615 9.32427 16.5435 9.45796 16.5145 9.60352C16.4855 9.74909 16.5004 9.89998 16.5572 10.0371C16.614 10.1742 16.7102 10.2914 16.8337 10.3738C16.9571 10.4562 17.1022 10.5001 17.2506 10.5H21.0006C21.1996 10.5 21.3903 10.421 21.531 10.2803C21.6716 10.1397 21.7506 9.94892 21.7506 9.75V6C21.7506 5.85167 21.7066 5.70667 21.6242 5.58335C21.5417 5.46004 21.4246 5.36393 21.2875 5.30719Z" fill="black"/>
</svg>
