<svg width="24" height="24" viewBox="0 0 24 24" fill="none" xmlns="http://www.w3.org/2000/svg">
<path d="M19.5003 8.99998C19.5003 8.77748 19.5662 8.55997 19.6899 8.37497C19.8135 8.18996 19.9892 8.04577 20.1947 7.96062C20.4003 7.87547 20.6265 7.85319 20.8447 7.8966C21.063 7.94001 21.2634 8.04716 21.4208 8.20449C21.5781 8.36182 21.6852 8.56228 21.7286 8.78051C21.7721 8.99874 21.7498 9.22494 21.6646 9.4305C21.5795 9.63607 21.4353 9.81177 21.2503 9.93539C21.0653 10.059 20.8478 10.125 20.6253 10.125C20.3269 10.125 20.0407 10.0065 19.8298 9.79548C19.6188 9.5845 19.5003 9.29835 19.5003 8.99998ZM18.3753 6.74998C18.5978 6.74998 18.8153 6.684 19.0003 6.56039C19.1853 6.43677 19.3295 6.26107 19.4146 6.0555C19.4998 5.84994 19.5221 5.62374 19.4786 5.40551C19.4352 5.18728 19.3281 4.98682 19.1708 4.82949C19.0134 4.67216 18.813 4.56501 18.5947 4.5216C18.3765 4.47819 18.1503 4.50047 17.9447 4.58562C17.7392 4.67077 17.5635 4.81496 17.4399 4.99997C17.3162 5.18497 17.2503 5.40248 17.2503 5.62498C17.2503 5.92335 17.3688 6.2095 17.5798 6.42048C17.7907 6.63146 18.0769 6.74998 18.3753 6.74998ZM21.0621 12C20.864 11.9836 20.6675 12.0467 20.5157 12.1752C20.364 12.3037 20.2696 12.4872 20.2531 12.6853C20.1189 14.2532 19.5396 15.7502 18.5835 17.0001C17.6273 18.25 16.3341 19.2008 14.8559 19.7406C13.3778 20.2805 11.7761 20.3869 10.2395 20.0474C8.70294 19.7078 7.29528 18.9365 6.18218 17.8241C5.06908 16.7117 4.29686 15.3045 3.95637 13.7681C3.61588 12.2318 3.72129 10.6301 4.2602 9.15157C4.79911 7.67306 5.7491 6.37923 6.99839 5.42231C8.24768 4.46539 9.74429 3.88519 11.3121 3.74998C11.4106 3.74186 11.5066 3.71441 11.5944 3.66922C11.6823 3.62402 11.7604 3.56195 11.8243 3.48656C11.8882 3.41117 11.9367 3.32394 11.9669 3.22983C11.997 3.13573 12.0084 3.0366 12.0003 2.93811C11.9921 2.83962 11.9647 2.74369 11.9195 2.65581C11.8743 2.56792 11.8122 2.4898 11.7368 2.4259C11.6615 2.362 11.5742 2.31358 11.4801 2.2834C11.386 2.25321 11.2869 2.24186 11.1884 2.24998C9.33591 2.40933 7.56748 3.09443 6.09114 4.22469C4.61481 5.35496 3.49199 6.88336 2.85479 8.63008C2.21759 10.3768 2.09252 12.2692 2.49428 14.0846C2.89605 15.9 3.80794 17.5628 5.12268 18.8776C6.43741 20.1923 8.10029 21.1042 9.91568 21.506C11.7311 21.9077 13.6234 21.7827 15.3702 21.1455C17.1169 20.5083 18.6453 19.3854 19.7756 17.9091C20.9058 16.4328 21.5909 14.6643 21.7503 12.8119C21.7587 12.7133 21.7476 12.614 21.7176 12.5198C21.6875 12.4256 21.6391 12.3382 21.5752 12.2627C21.5112 12.1873 21.4329 12.1252 21.3449 12.0801C21.2568 12.035 21.1608 12.0078 21.0621 12ZM12.0003 5.24998C13.3353 5.24998 14.6403 5.64586 15.7504 6.38756C16.8604 7.12926 17.7256 8.18347 18.2365 9.41687C18.7473 10.6503 18.881 12.0075 18.6206 13.3168C18.3601 14.6262 17.7172 15.8289 16.7732 16.773C15.8292 17.717 14.6265 18.3598 13.3171 18.6203C12.0078 18.8807 10.6505 18.7471 9.41715 18.2362C8.18375 17.7253 7.12954 16.8601 6.38784 15.7501C5.64614 14.6401 5.25026 13.335 5.25026 12C5.25225 10.2104 5.96404 8.49465 7.22948 7.22921C8.49492 5.96377 10.2107 5.25197 12.0003 5.24998ZM11.2503 12C11.2503 12.1989 11.3293 12.3897 11.4699 12.5303C11.6106 12.671 11.8013 12.75 12.0003 12.75H16.5003C16.6992 12.75 16.8899 12.671 17.0306 12.5303C17.1712 12.3897 17.2503 12.1989 17.2503 12C17.2503 11.8011 17.1712 11.6103 17.0306 11.4697C16.8899 11.329 16.6992 11.25 16.5003 11.25H12.7503V7.49998C12.7503 7.30107 12.6712 7.11031 12.5306 6.96965C12.3899 6.829 12.1992 6.74998 12.0003 6.74998C11.8013 6.74998 11.6106 6.829 11.4699 6.96965C11.3293 7.11031 11.2503 7.30107 11.2503 7.49998V12ZM15.0003 4.49998C15.2228 4.49998 15.4403 4.434 15.6253 4.31039C15.8103 4.18677 15.9545 4.01107 16.0396 3.8055C16.1248 3.59994 16.1471 3.37374 16.1036 3.15551C16.0602 2.93728 15.9531 2.73682 15.7958 2.57949C15.6384 2.42216 15.438 2.31501 15.2197 2.2716C15.0015 2.22819 14.7753 2.25047 14.5697 2.33562C14.3642 2.42077 14.1885 2.56496 14.0649 2.74997C13.9412 2.93497 13.8753 3.15248 13.8753 3.37498C13.8753 3.67335 13.9938 3.9595 14.2048 4.17048C14.4157 4.38146 14.7019 4.49998 15.0003 4.49998Z" fill="black"/>
</svg>
