<svg width="24" height="24" viewBox="0 0 24 24" fill="none" xmlns="http://www.w3.org/2000/svg">
<path d="M5.05474 3.24563C4.98887 3.17138 4.90893 3.11095 4.81954 3.06783C4.73015 3.02471 4.63309 2.99976 4.53398 2.99443C4.43488 2.9891 4.3357 3.00349 4.2422 3.03677C4.14869 3.07005 4.06273 3.12156 3.98928 3.18831C3.91583 3.25506 3.85636 3.33572 3.81432 3.42562C3.77227 3.51552 3.74849 3.61288 3.74434 3.71204C3.7402 3.8112 3.75578 3.9102 3.79018 4.00329C3.82458 4.09639 3.87711 4.18173 3.94474 4.25438L7.62349 8.30156L7.61786 8.31281C6.80208 8.19384 5.97053 8.24425 5.1751 8.46091C4.37967 8.67758 3.63742 9.05584 2.99467 9.5721C2.35192 10.0884 1.82245 10.7315 1.4393 11.4615C1.05616 12.1915 0.827554 12.9926 0.767757 13.8148C0.707961 14.637 0.818253 15.4628 1.09175 16.2405C1.36525 17.0182 1.79609 17.7312 2.35739 18.3351C2.91868 18.9389 3.59839 19.4206 4.35411 19.75C5.10982 20.0795 5.92533 20.2497 6.74974 20.25H14.9997C16.0194 20.2519 17.0305 20.0634 17.981 19.6941L18.9447 20.7544C19.0106 20.8286 19.0905 20.8891 19.1799 20.9322C19.2693 20.9753 19.3664 21.0002 19.4655 21.0056C19.5646 21.0109 19.6638 20.9965 19.7573 20.9632C19.8508 20.93 19.9367 20.8784 20.0102 20.8117C20.0836 20.7449 20.1431 20.6643 20.1852 20.5744C20.2272 20.4845 20.251 20.3871 20.2551 20.288C20.2593 20.1888 20.2437 20.0898 20.2093 19.9967C20.1749 19.9036 20.1224 19.8183 20.0547 19.7456L5.05474 3.24563Z" fill="black"/>
<path d="M14.9998 3.74998C13.2417 3.74548 11.5288 4.30691 10.1145 5.35123C10.0298 5.41346 9.95912 5.49279 9.90707 5.58408C9.85501 5.67537 9.82273 5.77657 9.8123 5.88114C9.80187 5.98571 9.81353 6.0913 9.84652 6.19107C9.87952 6.29084 9.93311 6.38256 10.0038 6.46029L20.0398 17.4994C20.1101 17.5767 20.1957 17.6385 20.2913 17.6808C20.3869 17.7231 20.4902 17.745 20.5948 17.745C20.6999 17.7446 20.8039 17.7222 20.8998 17.6791C20.9958 17.6359 21.0816 17.5731 21.1516 17.4947C22.2118 16.3073 22.9059 14.8385 23.1501 13.2656C23.3942 11.6926 23.1782 10.0825 22.5279 8.62962C21.8776 7.1767 20.8208 5.94293 19.4851 5.0771C18.1493 4.21128 16.5916 3.75038 14.9998 3.74998Z" fill="black"/>
</svg>
