<svg width="24" height="24" viewBox="0 0 24 24" fill="none" xmlns="http://www.w3.org/2000/svg">
<path d="M14.6253 6.75001C13.9836 6.74962 13.3447 6.83571 12.7259 7.00595C12.4817 6.60742 12.185 6.24353 11.8438 5.92407L12.7353 4.65189C12.7918 4.57118 12.8319 4.48014 12.8532 4.38396C12.8745 4.28777 12.8767 4.18833 12.8596 4.09131C12.8425 3.99429 12.8064 3.90158 12.7535 3.81849C12.7006 3.7354 12.6318 3.66355 12.5511 3.60704C12.4704 3.55053 12.3794 3.51047 12.2832 3.48915C12.187 3.46782 12.0875 3.46565 11.9905 3.48276C11.8935 3.49986 11.8008 3.53591 11.7177 3.58884C11.6346 3.64178 11.5628 3.71056 11.5063 3.79126L10.6147 5.06251C9.88153 4.69233 9.07163 4.49965 8.25031 4.50001C8.195 4.50001 8.14156 4.50001 8.08719 4.50001L7.81625 2.97282C7.80203 2.87331 7.76795 2.77768 7.71604 2.6916C7.66413 2.60552 7.59544 2.53075 7.51406 2.47174C7.43269 2.41274 7.34028 2.37069 7.24233 2.3481C7.14437 2.32551 7.04288 2.32284 6.94388 2.34026C6.84488 2.35767 6.75039 2.3948 6.66602 2.44946C6.58166 2.50411 6.50914 2.57516 6.45278 2.6584C6.39642 2.74163 6.35736 2.83534 6.33793 2.93397C6.31851 3.03259 6.3191 3.13412 6.33969 3.23251L6.60969 4.76438C5.77789 5.0395 5.02801 5.51805 4.42812 6.15657L3.15125 5.26313C3.07061 5.20524 2.97928 5.16392 2.88256 5.14159C2.78583 5.11925 2.68564 5.11634 2.58778 5.13303C2.48992 5.14971 2.39635 5.18565 2.31248 5.23878C2.22862 5.2919 2.15614 5.36114 2.09924 5.44248C2.04234 5.52383 2.00216 5.61566 1.98102 5.71266C1.95988 5.80965 1.95821 5.90987 1.9761 6.00752C1.99399 6.10516 2.03109 6.19829 2.08524 6.28149C2.13939 6.36469 2.20952 6.43631 2.29156 6.4922L3.56281 7.3847C3.19132 8.11771 2.99857 8.92824 3.00031 9.75001C3.00031 9.80345 3.00031 9.85782 3.00031 9.91126L1.47312 10.1813C1.28827 10.2136 1.12228 10.3141 1.00791 10.4629C0.893543 10.6117 0.839109 10.798 0.855357 10.9849C0.871604 11.1719 0.957351 11.346 1.09567 11.4728C1.23399 11.5996 1.41483 11.67 1.6025 11.67C1.64618 11.67 1.68977 11.6662 1.73281 11.6588L3.26281 11.3888C3.39724 11.798 3.58177 12.1891 3.81219 12.5531C3.0948 13.2195 2.59469 14.0864 2.37697 15.041C2.15925 15.9956 2.23402 16.9936 2.59154 17.9051C2.94905 18.8166 3.57275 19.5993 4.38141 20.1513C5.19007 20.7034 6.14621 20.9991 7.12531 21H14.6253C16.515 21 18.3273 20.2493 19.6634 18.9131C20.9996 17.5769 21.7503 15.7647 21.7503 13.875C21.7503 11.9853 20.9996 10.1731 19.6634 8.83687C18.3273 7.50068 16.515 6.75001 14.6253 6.75001ZM7.96156 11.3213C6.97563 11.1511 5.96122 11.2875 5.05531 11.7122C4.55402 10.8842 4.3923 9.89447 4.60396 8.94999C4.81562 8.00551 5.38428 7.17945 6.19098 6.64459C6.99769 6.10974 7.97996 5.90751 8.93233 6.08022C9.8847 6.25293 10.7334 6.78719 11.3009 7.57126C9.77102 8.37639 8.58467 9.70862 7.96156 11.3213Z" fill="black"/>
</svg>
