<svg width="24" height="24" viewBox="0 0 24 24" fill="none" xmlns="http://www.w3.org/2000/svg">
<path d="M15.7501 21C15.7501 21.1989 15.6711 21.3897 15.5304 21.5303C15.3898 21.671 15.199 21.75 15.0001 21.75H9.75008C9.55117 21.75 9.36041 21.671 9.21975 21.5303C9.0791 21.3897 9.00008 21.1989 9.00008 21C9.00008 20.8011 9.0791 20.6103 9.21975 20.4697C9.36041 20.329 9.55117 20.25 9.75008 20.25H15.0001C15.199 20.25 15.3898 20.329 15.5304 20.4697C15.6711 20.6103 15.7501 20.8011 15.7501 21ZM12.0001 18C12.0001 17.8011 11.9211 17.6103 11.7804 17.4697C11.6398 17.329 11.449 17.25 11.2501 17.25H6.75008C6.55117 17.25 6.36041 17.329 6.21975 17.4697C6.0791 17.6103 6.00008 17.8011 6.00008 18C6.00008 18.1989 6.0791 18.3897 6.21975 18.5303C6.36041 18.671 6.55117 18.75 6.75008 18.75H11.2501C11.449 18.75 11.6398 18.671 11.7804 18.5303C11.9211 18.3897 12.0001 18.1989 12.0001 18ZM17.2501 17.25H15.0001C14.8012 17.25 14.6104 17.329 14.4698 17.4697C14.3291 17.6103 14.2501 17.8011 14.2501 18C14.2501 18.1989 14.3291 18.3897 14.4698 18.5303C14.6104 18.671 14.8012 18.75 15.0001 18.75H17.2501C17.449 18.75 17.6398 18.671 17.7804 18.5303C17.9211 18.3897 18.0001 18.1989 18.0001 18C18.0001 17.8011 17.9211 17.6103 17.7804 17.4697C17.6398 17.329 17.449 17.25 17.2501 17.25ZM21.7379 8.20783C21.6315 6.38734 20.831 4.67697 19.5015 3.42889C18.1719 2.1808 16.4143 1.49003 14.5908 1.4988C12.7672 1.50757 11.0164 2.21522 9.69889 3.47603C8.38138 4.73685 7.59745 6.45484 7.50852 8.27627C7.49758 8.47064 7.41313 8.65358 7.27228 8.78798C7.13144 8.92238 6.94476 8.99818 6.75008 9.00002H6.69383C6.49585 8.98232 6.31258 8.88808 6.18301 8.73733C6.05345 8.58658 5.98782 8.39123 6.00008 8.19283C6.02614 7.67137 6.09925 7.15332 6.21852 6.64502C6.23391 6.58119 6.23227 6.51445 6.21377 6.45146C6.19527 6.38846 6.16056 6.33143 6.1131 6.28606C6.06565 6.2407 6.00711 6.20858 5.94335 6.19293C5.87959 6.17729 5.81284 6.17865 5.74977 6.19689C4.73454 6.49684 3.84427 7.11856 3.21306 7.9684C2.58186 8.81824 2.24389 9.85017 2.25008 10.9088C2.26883 13.6003 4.51133 15.75 7.20383 15.75H14.6251C15.5956 15.7489 16.5556 15.5498 17.4465 15.1648C18.3374 14.7799 19.1403 14.2171 19.8062 13.5111C20.472 12.805 20.9868 11.9705 21.3189 11.0587C21.6511 10.1468 21.7936 9.17672 21.7379 8.20783Z" fill="black"/>
</svg>
