<svg width="24" height="24" viewBox="0 0 24 24" fill="none" xmlns="http://www.w3.org/2000/svg">
<path d="M15.3748 6.75001C14.9867 6.74979 14.5992 6.78114 14.2161 6.84376C14.0798 5.43597 13.5044 4.10665 12.5712 3.04387C11.6379 1.98109 10.3941 1.23865 9.01577 0.921569C8.89199 0.89313 8.763 0.896594 8.64092 0.931638C8.51883 0.966681 8.40765 1.03215 8.31779 1.12192C8.22793 1.21169 8.16234 1.3228 8.12717 1.44485C8.092 1.5669 8.0884 1.69588 8.11671 1.81969C8.20524 2.20689 8.24989 2.60282 8.24984 3.00001C8.24835 4.39194 7.69475 5.72643 6.7105 6.71067C5.72626 7.69492 4.39177 8.24852 2.99984 8.25001C2.60265 8.25006 2.20672 8.20541 1.81952 8.11688C1.69564 8.08838 1.56655 8.09183 1.44436 8.12692C1.32218 8.162 1.21092 8.22757 1.12104 8.31746C1.03115 8.40734 0.965585 8.5186 0.9305 8.64079C0.895414 8.76297 0.89196 8.89206 0.920461 9.01594C1.12195 9.88476 1.4931 10.7052 2.0126 11.4301C2.53209 12.1551 3.1897 12.7703 3.94765 13.2403C3.41459 13.9665 3.09317 14.8262 3.01908 15.724C2.94498 16.6218 3.1211 17.5226 3.52789 18.3264C3.93468 19.1302 4.55624 19.8055 5.32356 20.2774C6.09089 20.7494 6.97399 20.9995 7.87484 21H15.3748C17.2645 21 19.0768 20.2493 20.413 18.9131C21.7492 17.5769 22.4998 15.7647 22.4998 13.875C22.4998 11.9853 21.7492 10.1731 20.413 8.83687C19.0768 7.50067 17.2645 6.75001 15.3748 6.75001ZM2.75327 9.75001C2.83484 9.75001 2.91734 9.75001 2.99984 9.75001C4.78944 9.74802 6.50517 9.03622 7.77061 7.77078C9.03605 6.50534 9.74785 4.78961 9.74984 3.00001C9.74984 2.91657 9.74984 2.83313 9.74984 2.74969C10.6141 3.1543 11.3508 3.78824 11.8798 4.58251C12.4087 5.37678 12.7097 6.30094 12.7498 7.25438C11.8341 7.61874 11.0035 8.16816 10.3098 8.86826C9.61616 9.56836 9.07445 10.4041 8.71859 11.3231C8.43997 11.2745 8.15767 11.25 7.87484 11.25C6.86664 11.2498 5.88349 11.5641 5.06234 12.1491C4.05363 11.6199 3.2435 10.7782 2.75327 9.75001Z" fill="black"/>
</svg>
