<svg width="24" height="24" viewBox="0 0 24 24" fill="none" xmlns="http://www.w3.org/2000/svg">
<path d="M22.5003 13.5C22.5 14.4289 22.2532 15.341 21.7851 16.1434C21.3171 16.9457 20.6446 17.6095 19.8362 18.067C19.0278 18.5246 18.1125 18.7594 17.1837 18.7476C16.2549 18.7359 15.3459 18.4779 14.5494 18H14.1331L14.9684 20.7844C15.002 20.8963 15.009 21.0146 14.9888 21.1298C14.9685 21.2449 14.9217 21.3538 14.8519 21.4476C14.7821 21.5414 14.6914 21.6176 14.5869 21.6701C14.4825 21.7226 14.3672 21.75 14.2503 21.75H9.75029C9.63338 21.75 9.5181 21.7226 9.41364 21.6701C9.30919 21.6176 9.21845 21.5414 9.14869 21.4476C9.07892 21.3538 9.03205 21.2449 9.01182 21.1298C8.99159 21.0146 8.99856 20.8963 9.03217 20.7844L9.86748 18H9.45123C8.75754 18.4169 7.97688 18.6677 7.17021 18.7329C6.36354 18.7981 5.55272 18.676 4.80107 18.376C4.04942 18.076 3.37729 17.6063 2.8372 17.0036C2.29711 16.4009 1.90367 15.6815 1.68761 14.9016C1.47156 14.1216 1.43874 13.3023 1.59172 12.5076C1.7447 11.7129 2.07933 10.9643 2.56949 10.3203C3.05964 9.67634 3.69204 9.1544 4.41729 8.79525C5.14254 8.43611 5.94099 8.2495 6.75029 8.25C6.82342 8.25 6.89561 8.25 6.96873 8.25C6.73536 7.46646 6.6882 6.63924 6.83102 5.83425C6.97384 5.02927 7.30268 4.26876 7.79136 3.61332C8.28003 2.95789 8.91503 2.42563 9.64575 2.05897C10.3765 1.69231 11.1827 1.50137 12.0003 1.50137C12.8179 1.50137 13.6241 1.69231 14.3548 2.05897C15.0856 2.42563 15.7206 2.95789 16.2092 3.61332C16.6979 4.26876 17.0267 5.02927 17.1696 5.83425C17.3124 6.63924 17.2652 7.46646 17.0319 8.25C17.104 8.25 17.1772 8.25 17.2503 8.25C18.6422 8.25149 19.9767 8.80509 20.961 9.78933C21.9452 10.7736 22.4988 12.1081 22.5003 13.5Z" fill="black"/>
</svg>
