<svg width="24" height="24" viewBox="0 0 24 24" fill="none" xmlns="http://www.w3.org/2000/svg">
<path d="M21.5522 6.77344C21.4152 6.53422 21.2147 6.33758 20.9728 6.20531L12.72 1.6875C12.4994 1.56621 12.2517 1.50261 12 1.50261C11.7483 1.50261 11.5006 1.56621 11.28 1.6875L3.03 6.20437C2.78814 6.33665 2.58762 6.53328 2.45062 6.7725C2.32004 6.99891 2.25088 7.25551 2.25 7.51687V16.4831C2.25061 16.7517 2.32331 17.0152 2.46052 17.246C2.59772 17.4769 2.7944 17.6667 3.03 17.7956L11.28 22.3116C11.5004 22.4334 11.7482 22.4972 12 22.4972C12.2518 22.4972 12.4996 22.4334 12.72 22.3116L20.97 17.7956C21.2056 17.6667 21.4023 17.4769 21.5395 17.246C21.6767 17.0152 21.7494 16.7517 21.75 16.4831V7.51687C21.7498 7.25608 21.6816 6.99984 21.5522 6.77344ZM11.25 20.5884L8.25 18.9459V14.25C8.2497 14.1157 8.21334 13.984 8.14474 13.8685C8.07614 13.7531 7.9778 13.6582 7.86 13.5937L3.75 11.3437V8.34375L11.25 12.45V20.5884ZM12 11.145L4.56187 7.0725L7.79437 5.30343L11.6381 7.40812C11.7485 7.46852 11.8723 7.50017 11.9981 7.50017C12.1239 7.50017 12.2477 7.46852 12.3581 7.40812L16.2019 5.30343L19.4344 7.0725L12 11.145ZM20.25 11.3419L16.14 13.5919C16.0222 13.6563 15.9239 13.7512 15.8553 13.8667C15.7867 13.9821 15.7503 14.1138 15.75 14.2481V18.9441L12.75 20.5866V12.4444L20.25 8.33812V11.3419Z" fill="black"/>
</svg>
