<svg width="24" height="24" viewBox="0 0 24 24" fill="none" xmlns="http://www.w3.org/2000/svg">
<path d="M22.1053 8.34375L12.3553 3.09375C12.2461 3.03499 12.124 3.00424 12 3.00424C11.876 3.00424 11.7539 3.03499 11.6447 3.09375L1.89469 8.34375C1.77601 8.40759 1.67673 8.50222 1.60727 8.6177C1.53782 8.73318 1.50076 8.86524 1.5 9V15C1.50076 15.1348 1.53782 15.2668 1.60727 15.3823C1.67673 15.4978 1.77601 15.5924 1.89469 15.6562L10.6969 20.4C10.754 20.4308 10.8182 20.4463 10.8831 20.4449C10.948 20.4435 11.0114 20.4253 11.0671 20.392C11.1229 20.3588 11.169 20.3116 11.2011 20.2552C11.2331 20.1987 11.25 20.1349 11.25 20.07V14.6981L6.23906 12L3 13.7447V10.2553L6.23906 12L7.82156 11.1478L3.83156 9L11.25 5.00531V9.30187L7.82156 11.1478L12 13.3978L16.1784 11.1478L17.7609 12L21 10.2553V13.7447L17.7609 12L12.75 14.6981V20.07C12.75 20.1349 12.7669 20.1987 12.7989 20.2552C12.831 20.3116 12.8771 20.3588 12.9329 20.392C12.9886 20.4253 13.052 20.4435 13.1169 20.4449C13.1818 20.4463 13.246 20.4308 13.3031 20.4L22.1053 15.6562C22.224 15.5924 22.3233 15.4978 22.3927 15.3823C22.4622 15.2668 22.4992 15.1348 22.5 15V9C22.4992 8.86524 22.4622 8.73318 22.3927 8.6177C22.3233 8.50222 22.224 8.40759 22.1053 8.34375ZM16.1784 11.1562L12.75 9.30187V5.00531L20.1684 9L16.1784 11.1562Z" fill="black"/>
</svg>
