<svg width="24" height="24" viewBox="0 0 24 24" fill="none" xmlns="http://www.w3.org/2000/svg">
<path d="M9.375 8.09812V9.375H8.09812C7.76112 9.37937 7.43491 9.2562 7.1849 9.03018C6.93488 8.80416 6.77954 8.49199 6.75 8.15625C6.736 7.96799 6.76277 7.77893 6.82848 7.60197C6.8942 7.425 6.99732 7.26429 7.13081 7.13081C7.26429 6.99732 7.425 6.8942 7.60197 6.82848C7.77893 6.76277 7.96799 6.736 8.15625 6.75C8.49199 6.77954 8.80416 6.93488 9.03018 7.1849C9.2562 7.43491 9.37937 7.76112 9.375 8.09812ZM6.75 15.8438C6.736 16.032 6.76277 16.2211 6.82848 16.398C6.8942 16.575 6.99732 16.7357 7.13081 16.8692C7.26429 17.0027 7.425 17.1058 7.60197 17.1715C7.77893 17.2372 7.96799 17.264 8.15625 17.25C8.49134 17.2205 8.80296 17.0657 9.02889 16.8165C9.25482 16.5673 9.37842 16.242 9.375 15.9056V14.625H8.09812C7.76112 14.6206 7.43491 14.7438 7.1849 14.9698C6.93488 15.1958 6.77954 15.508 6.75 15.8438ZM17.25 8.15625C17.264 7.96799 17.2372 7.77893 17.1715 7.60197C17.1058 7.425 17.0027 7.26429 16.8692 7.13081C16.7357 6.99732 16.575 6.8942 16.398 6.82848C16.2211 6.76277 16.032 6.736 15.8438 6.75C15.5087 6.77949 15.197 6.9343 14.9711 7.18352C14.7452 7.43274 14.6216 7.75801 14.625 8.09437V9.375H15.9019C16.2389 9.37937 16.5651 9.2562 16.8151 9.03018C17.0651 8.80416 17.2205 8.49199 17.25 8.15625ZM21 6V18C21 18.7956 20.6839 19.5587 20.1213 20.1213C19.5587 20.6839 18.7956 21 18 21H6C5.20435 21 4.44129 20.6839 3.87868 20.1213C3.31607 19.5587 3 18.7956 3 18V6C3 5.20435 3.31607 4.44129 3.87868 3.87868C4.44129 3.31607 5.20435 3 6 3H18C18.7956 3 19.5587 3.31607 20.1213 3.87868C20.6839 4.44129 21 5.20435 21 6ZM14.625 13.125V10.875H15.8794C17.4159 10.875 18.7116 9.6675 18.7491 8.13281C18.7587 7.75168 18.6908 7.37257 18.5494 7.01851C18.408 6.66445 18.1961 6.34284 17.9265 6.07321C17.657 5.80358 17.3354 5.59157 16.9814 5.45005C16.6274 5.30854 16.2483 5.24047 15.8672 5.25C14.3325 5.28844 13.125 6.58406 13.125 8.12063V9.375H10.875V8.12063C10.875 6.58406 9.6675 5.28844 8.13281 5.25C7.7516 5.24034 7.37241 5.30831 7.01829 5.44977C6.66416 5.59123 6.3425 5.80322 6.07286 6.07286C5.80322 6.3425 5.59123 6.66416 5.44977 7.01829C5.30831 7.37241 5.24034 7.7516 5.25 8.13281C5.28844 9.6675 6.58406 10.875 8.12063 10.875H9.375V13.125H8.12063C6.58406 13.125 5.28844 14.3325 5.25 15.8672C5.24034 16.2484 5.30831 16.6276 5.44977 16.9817C5.59123 17.3358 5.80322 17.6575 6.07286 17.9271C6.3425 18.1968 6.66416 18.4088 7.01829 18.5502C7.37241 18.6917 7.7516 18.7597 8.13281 18.75C9.6675 18.7125 10.875 17.4169 10.875 15.8803V14.625H13.125V15.8794C13.125 17.4159 14.3325 18.7116 15.8672 18.7491C16.2483 18.7587 16.6274 18.6908 16.9815 18.5494C17.3355 18.408 17.6572 18.1961 17.9268 17.9265C18.1964 17.657 18.4084 17.3354 18.5499 16.9814C18.6915 16.6274 18.7595 16.2483 18.75 15.8672C18.7125 14.3325 17.4169 13.125 15.8803 13.125H14.625ZM10.875 13.125H13.125V10.875H10.875V13.125ZM14.625 15.9375C14.625 16.1971 14.702 16.4508 14.8462 16.6667C14.9904 16.8825 15.1954 17.0508 15.4352 17.1501C15.6751 17.2494 15.939 17.2754 16.1936 17.2248C16.4482 17.1741 16.682 17.0491 16.8656 16.8656C17.0491 16.682 17.1741 16.4482 17.2248 16.1936C17.2754 15.939 17.2494 15.6751 17.1501 15.4352C17.0508 15.1954 16.8825 14.9904 16.6667 14.8462C16.4508 14.702 16.1971 14.625 15.9375 14.625H14.625V15.9375Z" fill="black"/>
</svg>
