<svg width="24" height="24" viewBox="0 0 24 24" fill="none" xmlns="http://www.w3.org/2000/svg">
<path d="M20.167 11.5912C20.2153 11.5033 20.2454 11.4065 20.2557 11.3067C20.2659 11.2068 20.256 11.106 20.2265 11.01C20.197 10.9141 20.1486 10.8251 20.0841 10.7482C20.0196 10.6713 19.9403 10.6081 19.851 10.5625C19.7616 10.5168 19.664 10.4895 19.5639 10.4822C19.4638 10.4749 19.3633 10.4878 19.2682 10.5201C19.1732 10.5524 19.0856 10.6035 19.0107 10.6702C18.9358 10.737 18.875 10.8181 18.832 10.9088C18.1386 12.2445 17.0576 13.3392 15.7307 14.0494L14.0207 10.2009C14.5358 9.81486 14.9298 9.28951 15.1561 8.68686C15.3825 8.08421 15.4317 7.4294 15.2981 6.79967C15.1645 6.16995 14.8535 5.59158 14.4019 5.13278C13.9504 4.67399 13.377 4.35391 12.7495 4.21031V2.25C12.7495 2.05109 12.6705 1.86032 12.5298 1.71967C12.3892 1.57902 12.1984 1.5 11.9995 1.5C11.8006 1.5 11.6098 1.57902 11.4691 1.71967C11.3285 1.86032 11.2495 2.05109 11.2495 2.25V4.21031C10.6219 4.35391 10.0486 4.67399 9.597 5.13278C9.14542 5.59158 8.83448 6.16995 8.70085 6.79967C8.56722 7.4294 8.61647 8.08421 8.8428 8.68686C9.06913 9.28951 9.4631 9.81486 9.97822 10.2009L5.31416 20.6953C5.27361 20.7854 5.25125 20.8826 5.24837 20.9813C5.24549 21.0801 5.26214 21.1784 5.29738 21.2707C5.33261 21.363 5.38573 21.4474 5.45368 21.5191C5.52164 21.5908 5.60309 21.6484 5.69336 21.6885C5.78362 21.7287 5.88093 21.7506 5.97969 21.753C6.07844 21.7554 6.17671 21.7383 6.26883 21.7026C6.36095 21.667 6.44512 21.6134 6.5165 21.5451C6.58789 21.4769 6.64507 21.3951 6.68478 21.3047L9.04166 16.0022C9.99258 16.3333 10.9926 16.5016 11.9995 16.5C13.0069 16.4988 14.0075 16.3339 14.962 16.0116L17.3142 21.3047C17.3956 21.4855 17.5453 21.6267 17.7305 21.6975C17.9158 21.7682 18.1215 21.7627 18.3027 21.6821C18.4839 21.6016 18.6259 21.4525 18.6975 21.2676C18.7691 21.0826 18.7645 20.8769 18.6848 20.6953L16.341 15.4219C17.98 14.5689 19.316 13.2312 20.167 11.5912ZM11.9995 15C11.2032 15.001 10.4119 14.8744 9.65572 14.625L11.3507 10.8112C11.7803 10.8963 12.2224 10.8963 12.652 10.8112L14.3526 14.6362C13.5915 14.8772 12.7978 14.9999 11.9995 15Z" fill="black"/>
</svg>
