<svg width="24" height="24" viewBox="0 0 24 24" fill="none" xmlns="http://www.w3.org/2000/svg">
<path d="M19.4424 11.5369C19.3857 11.6739 19.2896 11.7911 19.1663 11.8735C19.0429 11.9559 18.8979 12 18.7496 12H5.24961C5.10119 12.0001 4.95607 11.9562 4.83263 11.8738C4.70918 11.7914 4.61296 11.6742 4.55615 11.5371C4.49933 11.4 4.48448 11.2491 4.51347 11.1035C4.54245 10.958 4.61398 10.8243 4.71899 10.7194L11.469 3.96937C11.5386 3.89964 11.6214 3.84432 11.7124 3.80658C11.8035 3.76883 11.9011 3.7494 11.9996 3.7494C12.0982 3.7494 12.1958 3.76883 12.2868 3.80658C12.3779 3.84432 12.4606 3.89964 12.5302 3.96937L19.2802 10.7194C19.3851 10.8243 19.4565 10.958 19.4853 11.1035C19.5142 11.249 19.4993 11.3998 19.4424 11.5369Z" fill="black"/>
</svg>
