<svg width="24" height="24" viewBox="0 0 24 24" fill="none" xmlns="http://www.w3.org/2000/svg">
<path d="M14.2496 9V4.5C14.2495 4.35157 14.2934 4.20645 14.3758 4.08301C14.4582 3.95956 14.5754 3.86334 14.7125 3.80653C14.8496 3.74971 15.0005 3.73486 15.1461 3.76385C15.2917 3.79284 15.4253 3.86436 15.5302 3.96937L20.0302 8.46937C20.1353 8.57426 20.2068 8.70795 20.2358 8.85352C20.2647 8.99908 20.2499 9.14997 20.1931 9.28709C20.1363 9.42421 20.04 9.54138 19.9166 9.62379C19.7932 9.70619 19.648 9.75011 19.4996 9.75H14.9996C14.8007 9.75 14.6099 9.67098 14.4693 9.53033C14.3286 9.38967 14.2496 9.19891 14.2496 9ZM8.99961 14.25H4.49961C4.35119 14.2499 4.20607 14.2938 4.08263 14.3762C3.95918 14.4586 3.86296 14.5758 3.80615 14.7129C3.74933 14.85 3.73448 15.0009 3.76347 15.1465C3.79245 15.292 3.86398 15.4257 3.96899 15.5306L8.46899 20.0306C8.57388 20.1356 8.70757 20.2072 8.85313 20.2361C8.9987 20.2651 9.14959 20.2503 9.28671 20.1935C9.42382 20.1366 9.541 20.0404 9.6234 19.917C9.70581 19.7935 9.74973 19.6484 9.74961 19.5V15C9.74961 14.8011 9.6706 14.6103 9.52994 14.4697C9.38929 14.329 9.19853 14.25 8.99961 14.25ZM9.28649 3.80718C9.14946 3.75033 8.99865 3.7354 8.85314 3.76427C8.70762 3.79314 8.57394 3.86452 8.46899 3.96937L3.96899 8.46937C3.86398 8.57426 3.79245 8.70795 3.76347 8.85352C3.73448 8.99908 3.74933 9.14997 3.80615 9.28709C3.86296 9.42421 3.95918 9.54138 4.08263 9.62379C4.20607 9.70619 4.35119 9.75011 4.49961 9.75H8.99961C9.19853 9.75 9.38929 9.67098 9.52994 9.53033C9.6706 9.38967 9.74961 9.19891 9.74961 9V4.5C9.74958 4.35166 9.70557 4.20667 9.62313 4.08335C9.5407 3.96003 9.42354 3.86392 9.28649 3.80718ZM19.4996 14.25H14.9996C14.8007 14.25 14.6099 14.329 14.4693 14.4697C14.3286 14.6103 14.2496 14.8011 14.2496 15V19.5C14.2495 19.6484 14.2934 19.7935 14.3758 19.917C14.4582 20.0404 14.5754 20.1366 14.7125 20.1935C14.8496 20.2503 15.0005 20.2651 15.1461 20.2361C15.2917 20.2072 15.4253 20.1356 15.5302 20.0306L20.0302 15.5306C20.1353 15.4257 20.2068 15.292 20.2358 15.1465C20.2647 15.0009 20.2499 14.85 20.1931 14.7129C20.1363 14.5758 20.04 14.4586 19.9166 14.3762C19.7932 14.2938 19.648 14.2499 19.4996 14.25Z" fill="black"/>
</svg>
