<svg width="24" height="24" viewBox="0 0 24 24" fill="none" xmlns="http://www.w3.org/2000/svg">
<path d="M22.8598 7.14281C22.6906 6.9953 22.4813 6.90139 22.2587 6.87301C22.036 6.84463 21.8099 6.88307 21.6091 6.98344L16.9019 9.32719L12.9719 2.79938C12.8709 2.63187 12.7283 2.49331 12.558 2.39712C12.3877 2.30094 12.1954 2.2504 11.9998 2.2504C11.8041 2.2504 11.6118 2.30094 11.4415 2.39712C11.2712 2.49331 11.1286 2.63187 11.0276 2.79938L7.09756 9.33L2.39225 6.98625C2.19195 6.88677 1.96672 6.84867 1.74484 6.87673C1.52296 6.90478 1.31431 6.99775 1.14507 7.14395C0.975832 7.29016 0.853545 7.4831 0.793556 7.69855C0.733568 7.914 0.73855 8.14237 0.807877 8.355L4.27663 18.9825C4.3115 19.0893 4.36991 19.1868 4.44755 19.268C4.52518 19.3492 4.62005 19.4119 4.72516 19.4515C4.83027 19.4911 4.94292 19.5065 5.05482 19.4968C5.16671 19.487 5.27498 19.4522 5.37163 19.395C5.39506 19.3809 7.79225 18 11.9998 18C16.2073 18 18.6044 19.3809 18.626 19.3941C18.7227 19.4518 18.8311 19.4871 18.9433 19.4972C19.0555 19.5073 19.1685 19.492 19.274 19.4525C19.3794 19.413 19.4746 19.3502 19.5525 19.2688C19.6304 19.1875 19.6889 19.0896 19.7238 18.9825L23.1926 8.35781C23.2639 8.14512 23.2703 7.91603 23.2111 7.69967C23.1518 7.48331 23.0295 7.28947 22.8598 7.14281ZM16.4848 14.7C16.4541 14.8735 16.3634 15.0307 16.2285 15.144C16.0936 15.2573 15.9231 15.3195 15.7469 15.3197C15.703 15.3196 15.659 15.3159 15.6157 15.3084C13.2201 14.8972 10.7719 14.8972 8.37631 15.3084C8.2793 15.3256 8.17987 15.3234 8.08369 15.3021C7.98751 15.2808 7.89647 15.2407 7.81577 15.1842C7.65279 15.0701 7.54181 14.8959 7.50725 14.7C7.47269 14.5041 7.51738 14.3024 7.63148 14.1395C7.74559 13.9765 7.91976 13.8655 8.11569 13.8309C10.6837 13.3897 13.3083 13.3897 15.8763 13.8309C15.9737 13.8476 16.0668 13.8833 16.1503 13.9361C16.2338 13.9888 16.3061 14.0575 16.363 14.1383C16.4199 14.219 16.4602 14.3102 16.4818 14.4066C16.5033 14.503 16.5056 14.6027 16.4885 14.7H16.4848Z" fill="black"/>
</svg>
