<svg width="24" height="24" viewBox="0 0 24 24" fill="none" xmlns="http://www.w3.org/2000/svg">
<path d="M23.1914 8.35783L19.7227 18.9825C19.6878 19.0896 19.6292 19.1875 19.5514 19.2688C19.4735 19.3502 19.3783 19.413 19.2728 19.4525C19.1674 19.4921 19.0543 19.5073 18.9422 19.4972C18.83 19.4871 18.7215 19.4518 18.6249 19.3941C18.6033 19.381 16.2061 18 11.9986 18C7.79111 18 5.39392 19.381 5.37048 19.395C5.27383 19.4522 5.16557 19.487 5.05367 19.4968C4.94178 19.5066 4.82912 19.4911 4.72402 19.4515C4.61891 19.4119 4.52404 19.3492 4.4464 19.268C4.36877 19.1868 4.31036 19.0893 4.27548 18.9825L0.80861 8.35502C0.738757 8.14227 0.733374 7.91362 0.793138 7.69783C0.852902 7.48203 0.975145 7.28873 1.14449 7.14223C1.31383 6.99573 1.52272 6.90259 1.74487 6.8745C1.96702 6.84641 2.19251 6.88465 2.39298 6.98439L7.0983 9.32814L11.0283 2.79752C11.1293 2.63001 11.2719 2.49145 11.4422 2.39526C11.6126 2.29908 11.8049 2.24854 12.0005 2.24854C12.1961 2.24854 12.3884 2.29908 12.5587 2.39526C12.7291 2.49145 12.8716 2.63001 12.9727 2.79752L16.9027 9.32814L21.6099 6.98439C21.8106 6.8845 22.0364 6.84632 22.2588 6.87467C22.4811 6.90303 22.6901 6.99664 22.8594 7.14369C23.0286 7.29075 23.1504 7.48465 23.2095 7.70091C23.2686 7.91717 23.2623 8.14609 23.1914 8.35877V8.35783Z" fill="black"/>
</svg>
