<svg width="24" height="24" viewBox="0 0 24 24" fill="none" xmlns="http://www.w3.org/2000/svg">
<path d="M16.7428 8.45813L12 11.1966L7.25719 8.45813C7.20014 8.42522 7.15276 8.37788 7.11982 8.32085C7.08688 8.26383 7.06954 8.19914 7.06954 8.13328C7.06954 8.06743 7.08688 8.00273 7.11982 7.94571C7.15276 7.88868 7.20014 7.84134 7.25719 7.80844L11.415 5.4075C11.5929 5.30481 11.7946 5.25075 12 5.25075C12.2054 5.25075 12.4071 5.30481 12.585 5.4075L16.7428 7.80844C16.7999 7.84134 16.8472 7.88868 16.8802 7.94571C16.9131 8.00273 16.9305 8.06743 16.9305 8.13328C16.9305 8.19914 16.9131 8.26383 16.8802 8.32085C16.8472 8.37788 16.7999 8.42522 16.7428 8.45813ZM6 10.1137V14.7591C5.99954 14.972 6.05486 15.1813 6.16046 15.3662C6.26606 15.5511 6.41825 15.705 6.60187 15.8128L10.6875 18.1725C10.7445 18.2054 10.8091 18.2227 10.8749 18.2227C10.9407 18.2228 11.0053 18.2055 11.0623 18.1726C11.1193 18.1397 11.1667 18.0924 11.1996 18.0355C11.2326 17.9785 11.2499 17.9139 11.25 17.8481V12.4959L6.5625 9.78937C6.50552 9.75648 6.44089 9.73915 6.3751 9.73913C6.3093 9.73912 6.24466 9.75641 6.18767 9.78928C6.13067 9.82215 6.08333 9.86943 6.05038 9.92638C6.01744 9.98334 6.00007 10.048 6 10.1137ZM18 14.7591V10.1137C17.9999 10.048 17.9826 9.98334 17.9496 9.92638C17.9167 9.86943 17.8693 9.82215 17.8123 9.78928C17.7553 9.75641 17.6907 9.73912 17.6249 9.73913C17.5591 9.73915 17.4945 9.75648 17.4375 9.78937L12.75 12.4959V17.8481C12.7501 17.9139 12.7674 17.9785 12.8004 18.0355C12.8333 18.0924 12.8807 18.1397 12.9377 18.1726C12.9947 18.2055 13.0593 18.2228 13.1251 18.2227C13.1909 18.2227 13.2555 18.2054 13.3125 18.1725L17.3972 15.8128C17.581 15.7052 17.7334 15.5512 17.8391 15.3663C17.9449 15.1814 18.0004 14.9721 18 14.7591ZM21 3.75H17.25C17.0511 3.75 16.8603 3.82902 16.7197 3.96967C16.579 4.11032 16.5 4.30109 16.5 4.5C16.5 4.69891 16.579 4.88968 16.7197 5.03033C16.8603 5.17098 17.0511 5.25 17.25 5.25H20.25V8.25C20.25 8.44891 20.329 8.63968 20.4697 8.78033C20.6103 8.92098 20.8011 9 21 9C21.1989 9 21.3897 8.92098 21.5303 8.78033C21.671 8.63968 21.75 8.44891 21.75 8.25V4.5C21.75 4.30109 21.671 4.11032 21.5303 3.96967C21.3897 3.82902 21.1989 3.75 21 3.75ZM6.75 18.75H3.75V15.75C3.75 15.5511 3.67098 15.3603 3.53033 15.2197C3.38968 15.079 3.19891 15 3 15C2.80109 15 2.61032 15.079 2.46967 15.2197C2.32902 15.3603 2.25 15.5511 2.25 15.75V19.5C2.25 19.6989 2.32902 19.8897 2.46967 20.0303C2.61032 20.171 2.80109 20.25 3 20.25H6.75C6.94891 20.25 7.13968 20.171 7.28033 20.0303C7.42098 19.8897 7.5 19.6989 7.5 19.5C7.5 19.3011 7.42098 19.1103 7.28033 18.9697C7.13968 18.829 6.94891 18.75 6.75 18.75ZM21 15C20.8011 15 20.6103 15.079 20.4697 15.2197C20.329 15.3603 20.25 15.5511 20.25 15.75V18.75H17.25C17.0511 18.75 16.8603 18.829 16.7197 18.9697C16.579 19.1103 16.5 19.3011 16.5 19.5C16.5 19.6989 16.579 19.8897 16.7197 20.0303C16.8603 20.171 17.0511 20.25 17.25 20.25H21C21.1989 20.25 21.3897 20.171 21.5303 20.0303C21.671 19.8897 21.75 19.6989 21.75 19.5V15.75C21.75 15.5511 21.671 15.3603 21.5303 15.2197C21.3897 15.079 21.1989 15 21 15ZM3 9C3.19891 9 3.38968 8.92098 3.53033 8.78033C3.67098 8.63968 3.75 8.44891 3.75 8.25V5.25H6.75C6.94891 5.25 7.13968 5.17098 7.28033 5.03033C7.42098 4.88968 7.5 4.69891 7.5 4.5C7.5 4.30109 7.42098 4.11032 7.28033 3.96967C7.13968 3.82902 6.94891 3.75 6.75 3.75H3C2.80109 3.75 2.61032 3.82902 2.46967 3.96967C2.32902 4.11032 2.25 4.30109 2.25 4.5V8.25C2.25 8.44891 2.32902 8.63968 2.46967 8.78033C2.61032 8.92098 2.80109 9 3 9Z" fill="black"/>
</svg>
