<svg width="24" height="24" viewBox="0 0 24 24" fill="none" xmlns="http://www.w3.org/2000/svg">
<path d="M12 10.3856L12.6056 12H11.3944L12 10.3856ZM8.625 15.1144L9.23063 13.5H8.01938L8.625 15.1144ZM21.75 12C21.75 13.9284 21.1782 15.8134 20.1068 17.4168C19.0355 19.0202 17.5127 20.2699 15.7312 21.0078C13.9496 21.7458 11.9892 21.9389 10.0979 21.5627C8.20656 21.1865 6.46928 20.2579 5.10571 18.8943C3.74215 17.5307 2.81355 15.7934 2.43735 13.9021C2.06114 12.0108 2.25422 10.0504 2.99218 8.26884C3.73013 6.48726 4.97982 4.96451 6.58319 3.89317C8.18657 2.82183 10.0716 2.25 12 2.25C14.585 2.25273 17.0634 3.28084 18.8913 5.10872C20.7192 6.93661 21.7473 9.41498 21.75 12ZM20.25 12.75C20.25 12.5511 20.171 12.3603 20.0303 12.2197C19.8897 12.079 19.6989 12 19.5 12H18.1444L19.4569 8.51344C19.5267 8.32696 19.5197 8.12036 19.4372 7.93909C19.3548 7.75783 19.2037 7.61674 19.0172 7.54688C18.8307 7.47701 18.6241 7.48408 18.4428 7.56654C18.2616 7.64899 18.1205 7.80008 18.0506 7.98656L16.5506 12H14.2069L12.7069 7.98656C12.6536 7.84303 12.5577 7.71924 12.432 7.63182C12.3063 7.54441 12.1569 7.49755 12.0038 7.49755C11.8507 7.49755 11.7012 7.54441 11.5755 7.63182C11.4498 7.71924 11.3539 7.84303 11.3006 7.98656L9.79313 12H7.45688L5.95219 7.98656C5.88232 7.80008 5.74124 7.64899 5.55997 7.56654C5.37871 7.48408 5.17211 7.47701 4.98563 7.54688C4.79915 7.61674 4.64806 7.75783 4.5656 7.93909C4.48315 8.12036 4.47607 8.32696 4.54594 8.51344L5.85844 12H4.5C4.30109 12 4.11033 12.079 3.96967 12.2197C3.82902 12.3603 3.75 12.5511 3.75 12.75C3.75 12.9489 3.82902 13.1397 3.96967 13.2803C4.11033 13.421 4.30109 13.5 4.5 13.5H6.41813L7.92282 17.5134C7.97609 17.657 8.07202 17.7808 8.19771 17.8682C8.32341 17.9556 8.47284 18.0024 8.62594 18.0024C8.77904 18.0024 8.92848 17.9556 9.05417 17.8682C9.17986 17.7808 9.27579 17.657 9.32907 17.5134L10.8319 13.5H13.1681L14.6681 17.5134C14.7214 17.657 14.8173 17.7808 14.943 17.8682C15.0687 17.9556 15.2182 18.0024 15.3713 18.0024C15.5244 18.0024 15.6738 17.9556 15.7995 17.8682C15.9252 17.7808 16.0211 17.657 16.0744 17.5134L17.5744 13.5H19.5C19.6989 13.5 19.8897 13.421 20.0303 13.2803C20.171 13.1397 20.25 12.9489 20.25 12.75ZM15.375 15.1144L15.9806 13.5H14.7694L15.375 15.1144Z" fill="black"/>
</svg>
