<svg width="24" height="24" viewBox="0 0 24 24" fill="none" xmlns="http://www.w3.org/2000/svg">
<path d="M12 2.25C10.0716 2.25 8.18657 2.82183 6.58319 3.89317C4.97982 4.96451 3.73013 6.48726 2.99218 8.26884C2.25422 10.0504 2.06114 12.0108 2.43735 13.9021C2.81355 15.7934 3.74215 17.5307 5.10571 18.8943C6.46928 20.2579 8.20656 21.1865 10.0979 21.5627C11.9892 21.9389 13.9496 21.7458 15.7312 21.0078C17.5127 20.2699 19.0355 19.0202 20.1068 17.4168C21.1782 15.8134 21.75 13.9284 21.75 12C21.7473 9.41498 20.7192 6.93661 18.8913 5.10872C17.0634 3.28084 14.585 2.25273 12 2.25ZM13.875 18H12.75V18.75C12.75 18.9489 12.671 19.1397 12.5303 19.2803C12.3897 19.421 12.1989 19.5 12 19.5C11.8011 19.5 11.6103 19.421 11.4697 19.2803C11.329 19.1397 11.25 18.9489 11.25 18.75V18H10.5C9.6049 18 8.74645 17.6444 8.11352 17.0115C7.48058 16.3785 7.125 15.5201 7.125 14.625C7.125 14.4261 7.20402 14.2353 7.34467 14.0947C7.48533 13.954 7.67609 13.875 7.875 13.875C8.07392 13.875 8.26468 13.954 8.40533 14.0947C8.54599 14.2353 8.625 14.4261 8.625 14.625C8.625 15.1223 8.82255 15.5992 9.17418 15.9508C9.52581 16.3025 10.0027 16.5 10.5 16.5H13.875C14.3723 16.5 14.8492 16.3025 15.2008 15.9508C15.5525 15.5992 15.75 15.1223 15.75 14.625C15.75 14.1277 15.5525 13.6508 15.2008 13.2992C14.8492 12.9475 14.3723 12.75 13.875 12.75H10.875C9.9799 12.75 9.12145 12.3944 8.48852 11.7615C7.85558 11.1285 7.5 10.2701 7.5 9.375C7.5 8.47989 7.85558 7.62145 8.48852 6.98851C9.12145 6.35558 9.9799 6 10.875 6H11.25V5.25C11.25 5.05109 11.329 4.86032 11.4697 4.71967C11.6103 4.57902 11.8011 4.5 12 4.5C12.1989 4.5 12.3897 4.57902 12.5303 4.71967C12.671 4.86032 12.75 5.05109 12.75 5.25V6H13.125C14.0201 6 14.8786 6.35558 15.5115 6.98851C16.1444 7.62145 16.5 8.47989 16.5 9.375C16.5 9.57391 16.421 9.76468 16.2803 9.90533C16.1397 10.046 15.9489 10.125 15.75 10.125C15.5511 10.125 15.3603 10.046 15.2197 9.90533C15.079 9.76468 15 9.57391 15 9.375C15 8.87772 14.8025 8.40081 14.4508 8.04917C14.0992 7.69754 13.6223 7.5 13.125 7.5H10.875C10.3777 7.5 9.90081 7.69754 9.54918 8.04917C9.19755 8.40081 9 8.87772 9 9.375C9 9.87228 9.19755 10.3492 9.54918 10.7008C9.90081 11.0525 10.3777 11.25 10.875 11.25H13.875C14.7701 11.25 15.6286 11.6056 16.2615 12.2385C16.8944 12.8715 17.25 13.7299 17.25 14.625C17.25 15.5201 16.8944 16.3785 16.2615 17.0115C15.6286 17.6444 14.7701 18 13.875 18Z" fill="black"/>
</svg>
