<svg width="24" height="24" viewBox="0 0 24 24" fill="none" xmlns="http://www.w3.org/2000/svg">
<path d="M8.25 8.77781L10.3697 11.25H8.25V8.77781ZM15.75 15.2222V12.75H13.6303L15.75 15.2222ZM21.75 12C21.75 13.9284 21.1782 15.8134 20.1068 17.4168C19.0355 19.0202 17.5127 20.2699 15.7312 21.0078C13.9496 21.7458 11.9892 21.9389 10.0979 21.5627C8.20656 21.1865 6.46928 20.2579 5.10571 18.8943C3.74215 17.5307 2.81355 15.7934 2.43735 13.9021C2.06114 12.0108 2.25422 10.0504 2.99218 8.26884C3.73013 6.48726 4.97982 4.96451 6.58319 3.89317C8.18657 2.82183 10.0716 2.25 12 2.25C14.585 2.25273 17.0634 3.28084 18.8913 5.10872C20.7192 6.93661 21.7473 9.41498 21.75 12ZM18.75 12C18.75 11.8011 18.671 11.6103 18.5303 11.4697C18.3897 11.329 18.1989 11.25 18 11.25H17.25V6.75C17.25 6.55109 17.171 6.36032 17.0303 6.21967C16.8897 6.07902 16.6989 6 16.5 6C16.3011 6 16.1103 6.07902 15.9697 6.21967C15.829 6.36032 15.75 6.55109 15.75 6.75V11.25H12.345L8.06907 6.26156C7.96928 6.14533 7.8363 6.06245 7.68801 6.02405C7.53972 5.98565 7.38322 5.99358 7.23957 6.04677C7.09591 6.09996 6.97199 6.19587 6.88447 6.32159C6.79695 6.44731 6.75002 6.59682 6.75 6.75V11.25H6C5.80109 11.25 5.61033 11.329 5.46967 11.4697C5.32902 11.6103 5.25 11.8011 5.25 12C5.25 12.1989 5.32902 12.3897 5.46967 12.5303C5.61033 12.671 5.80109 12.75 6 12.75H6.75V17.25C6.75 17.4489 6.82902 17.6397 6.96967 17.7803C7.11033 17.921 7.30109 18 7.5 18C7.69892 18 7.88968 17.921 8.03033 17.7803C8.17099 17.6397 8.25 17.4489 8.25 17.25V12.75H11.655L15.9309 17.7384C16.0013 17.8205 16.0886 17.8863 16.1869 17.9315C16.2851 17.9766 16.3919 18 16.5 18C16.6989 18 16.8897 17.921 17.0303 17.7803C17.171 17.6397 17.25 17.4489 17.25 17.25V12.75H18C18.1989 12.75 18.3897 12.671 18.5303 12.5303C18.671 12.3897 18.75 12.1989 18.75 12Z" fill="black"/>
</svg>
