<svg width="24" height="24" viewBox="0 0 24 24" fill="none" xmlns="http://www.w3.org/2000/svg">
<path d="M20.8394 11.5369L12.5894 1.03689C12.5193 0.947591 12.4297 0.875398 12.3276 0.825756C12.2254 0.776114 12.1133 0.75032 11.9998 0.75032C11.8862 0.75032 11.7741 0.776114 11.6719 0.825756C11.5698 0.875398 11.4802 0.947591 11.4101 1.03689L3.16007 11.5369C3.05637 11.669 3 11.8321 3 12C3 12.168 3.05637 12.331 3.16007 12.4631L11.4101 22.9631C11.4802 23.0524 11.5698 23.1246 11.6719 23.1743C11.7741 23.2239 11.8862 23.2497 11.9998 23.2497C12.1133 23.2497 12.2254 23.2239 12.3276 23.1743C12.4297 23.1246 12.5193 23.0524 12.5894 22.9631L20.8394 12.4631C20.9432 12.331 20.9995 12.168 20.9995 12C20.9995 11.8321 20.9432 11.669 20.8394 11.5369ZM12.7498 14.5856V3.66845L19.0704 11.7122L12.7498 14.5856ZM11.2498 14.5856L4.92913 11.7122L11.2498 3.66845V14.5856ZM11.2498 16.2328V20.3316L6.2407 13.9566L11.2498 16.2328Z" fill="black"/>
</svg>
