<svg width="24" height="24" viewBox="0 0 24 24" fill="none" xmlns="http://www.w3.org/2000/svg">
<path d="M12 2.25C10.0716 2.25 8.18657 2.82183 6.58319 3.89317C4.97982 4.96451 3.73013 6.48726 2.99218 8.26884C2.25422 10.0504 2.06114 12.0108 2.43735 13.9021C2.81355 15.7934 3.74215 17.5307 5.10571 18.8943C6.46928 20.2579 8.20656 21.1865 10.0979 21.5627C11.9892 21.9389 13.9496 21.7458 15.7312 21.0078C17.5127 20.2699 19.0355 19.0202 20.1068 17.4168C21.1782 15.8134 21.75 13.9284 21.75 12C21.7473 9.41498 20.7192 6.93661 18.8913 5.10872C17.0634 3.28084 14.585 2.25273 12 2.25ZM7.5 6.75H16.5C16.6989 6.75 16.8897 6.82902 17.0303 6.96967C17.171 7.11032 17.25 7.30109 17.25 7.5C17.25 7.69891 17.171 7.88968 17.0303 8.03033C16.8897 8.17098 16.6989 8.25 16.5 8.25H7.5C7.30109 8.25 7.11033 8.17098 6.96967 8.03033C6.82902 7.88968 6.75 7.69891 6.75 7.5C6.75 7.30109 6.82902 7.11032 6.96967 6.96967C7.11033 6.82902 7.30109 6.75 7.5 6.75ZM18.75 16.5C18.75 16.6989 18.671 16.8897 18.5303 17.0303C18.3897 17.171 18.1989 17.25 18 17.25H15.75C14.9544 17.25 14.1913 16.9339 13.6287 16.3713C13.0661 15.8087 12.75 15.0456 12.75 14.25V12H11.2013C11.0326 13.3017 10.4437 14.5127 9.52407 15.4493C8.60445 16.3858 7.40432 16.9967 6.10594 17.1891C6.07057 17.1944 6.03483 17.1969 5.99907 17.1966C5.8094 17.1964 5.62686 17.1243 5.48819 16.9949C5.34952 16.8655 5.26502 16.6884 5.25171 16.4992C5.2384 16.31 5.29727 16.1228 5.41646 15.9753C5.53564 15.8277 5.7063 15.7308 5.89407 15.7041C6.83541 15.5642 7.70863 15.1309 8.38935 14.4658C9.07007 13.8007 9.52359 12.9378 9.68532 12H6.75C6.55109 12 6.36033 11.921 6.21967 11.7803C6.07902 11.6397 6 11.4489 6 11.25C6 11.0511 6.07902 10.8603 6.21967 10.7197C6.36033 10.579 6.55109 10.5 6.75 10.5H17.25C17.4489 10.5 17.6397 10.579 17.7803 10.7197C17.921 10.8603 18 11.0511 18 11.25C18 11.4489 17.921 11.6397 17.7803 11.7803C17.6397 11.921 17.4489 12 17.25 12H14.25V14.25C14.25 14.6478 14.408 15.0294 14.6893 15.3107C14.9706 15.592 15.3522 15.75 15.75 15.75H17.25V15C17.25 14.8011 17.329 14.6103 17.4697 14.4697C17.6103 14.329 17.8011 14.25 18 14.25C18.1989 14.25 18.3897 14.329 18.5303 14.4697C18.671 14.6103 18.75 14.8011 18.75 15V16.5Z" fill="black"/>
</svg>
