<svg width="24" height="24" viewBox="0 0 24 24" fill="none" xmlns="http://www.w3.org/2000/svg">
<path d="M12 2.25C10.0716 2.25 8.18657 2.82183 6.58319 3.89317C4.97982 4.96451 3.73013 6.48726 2.99218 8.26884C2.25422 10.0504 2.06114 12.0108 2.43735 13.9021C2.81355 15.7934 3.74215 17.5307 5.10571 18.8943C6.46928 20.2579 8.20656 21.1865 10.0979 21.5627C11.9892 21.9389 13.9496 21.7458 15.7312 21.0078C17.5127 20.2699 19.0355 19.0202 20.1068 17.4168C21.1782 15.8134 21.75 13.9284 21.75 12C21.7473 9.41498 20.7192 6.93661 18.8913 5.10872C17.0634 3.28084 14.585 2.25273 12 2.25ZM15.75 18H7.5C7.30109 18 7.11033 17.921 6.96967 17.7803C6.82902 17.6397 6.75 17.4489 6.75 17.25C6.75 17.0511 6.82902 16.8603 6.96967 16.7197C7.11033 16.579 7.30109 16.5 7.5 16.5H7.875C8.37229 16.5 8.8492 16.3025 9.20083 15.9508C9.55246 15.5992 9.75 15.1223 9.75 14.625V12.75H7.5C7.30109 12.75 7.11033 12.671 6.96967 12.5303C6.82902 12.3897 6.75 12.1989 6.75 12C6.75 11.8011 6.82902 11.6103 6.96967 11.4697C7.11033 11.329 7.30109 11.25 7.5 11.25H9.75V9C9.75002 8.34175 9.92331 7.69509 10.2524 7.12503C10.5816 6.55498 11.055 6.0816 11.625 5.75248C12.1951 5.42336 12.8418 5.25009 13.5 5.2501C14.1583 5.2501 14.8049 5.42337 15.375 5.7525C15.463 5.80029 15.5406 5.86523 15.6031 5.94348C15.6656 6.02173 15.7118 6.11171 15.739 6.20811C15.7661 6.3045 15.7737 6.40536 15.7613 6.50474C15.7489 6.60412 15.7166 6.7 15.6665 6.78673C15.6165 6.87345 15.5495 6.94927 15.4696 7.0097C15.3898 7.07012 15.2986 7.11395 15.2015 7.13857C15.1044 7.1632 15.0034 7.16813 14.9044 7.15308C14.8054 7.13803 14.7104 7.1033 14.625 7.05094C14.2829 6.85344 13.8949 6.74947 13.4999 6.74949C13.1049 6.74952 12.7168 6.85353 12.3748 7.05106C12.0327 7.2486 11.7487 7.53271 11.5513 7.87482C11.3538 8.21694 11.2499 8.605 11.25 9V11.25H13.5C13.6989 11.25 13.8897 11.329 14.0303 11.4697C14.171 11.6103 14.25 11.8011 14.25 12C14.25 12.1989 14.171 12.3897 14.0303 12.5303C13.8897 12.671 13.6989 12.75 13.5 12.75H11.25V14.625C11.2508 15.2928 11.0524 15.9456 10.68 16.5H15.75C15.9489 16.5 16.1397 16.579 16.2803 16.7197C16.421 16.8603 16.5 17.0511 16.5 17.25C16.5 17.4489 16.421 17.6397 16.2803 17.7803C16.1397 17.921 15.9489 18 15.75 18Z" fill="black"/>
</svg>
