<svg width="24" height="24" viewBox="0 0 24 24" fill="none" xmlns="http://www.w3.org/2000/svg">
<path d="M12 2.25C10.0716 2.25 8.18657 2.82183 6.58319 3.89317C4.97982 4.96451 3.73013 6.48726 2.99218 8.26884C2.25422 10.0504 2.06114 12.0108 2.43735 13.9021C2.81355 15.7934 3.74215 17.5307 5.10571 18.8943C6.46928 20.2579 8.20656 21.1865 10.0979 21.5627C11.9892 21.9389 13.9496 21.7458 15.7312 21.0078C17.5127 20.2699 19.0355 19.0202 20.1068 17.4168C21.1782 15.8134 21.75 13.9284 21.75 12C21.7473 9.41498 20.7192 6.93661 18.8913 5.10872C17.0634 3.28084 14.585 2.25273 12 2.25ZM14.7422 8.25H16.5C16.6989 8.25 16.8897 8.32902 17.0303 8.46967C17.171 8.61032 17.25 8.80109 17.25 9C17.25 9.19891 17.171 9.38968 17.0303 9.53033C16.8897 9.67098 16.6989 9.75 16.5 9.75H15C14.9988 10.9431 14.5243 12.087 13.6806 12.9306C12.837 13.7743 11.6931 14.2488 10.5 14.25H10.2459L14.7459 18.1875C14.8818 18.322 14.9612 18.5033 14.9679 18.6944C14.9745 18.8854 14.908 19.0718 14.7818 19.2155C14.6557 19.3591 14.4794 19.4491 14.2891 19.4672C14.0987 19.4852 13.9087 19.4299 13.7578 19.3125L7.75782 14.0625C7.64381 13.962 7.56304 13.8291 7.52622 13.6817C7.4894 13.5342 7.49826 13.379 7.55164 13.2366C7.60501 13.0943 7.70038 12.9716 7.82509 12.8847C7.94981 12.7977 8.09799 12.7508 8.25 12.75H10.5C11.2957 12.75 12.0587 12.4339 12.6213 11.8713C13.1839 11.3087 13.5 10.5456 13.5 9.75H8.25C8.05109 9.75 7.86033 9.67098 7.71967 9.53033C7.57902 9.38968 7.5 9.19891 7.5 9C7.5 8.80109 7.57902 8.61032 7.71967 8.46967C7.86033 8.32902 8.05109 8.25 8.25 8.25H13.0959C12.8328 7.79426 12.4544 7.41574 11.9988 7.15246C11.5431 6.88917 11.0263 6.75038 10.5 6.75H8.25C8.05109 6.75 7.86033 6.67098 7.71967 6.53033C7.57902 6.38968 7.5 6.19891 7.5 6C7.5 5.80109 7.57902 5.61032 7.71967 5.46967C7.86033 5.32902 8.05109 5.25 8.25 5.25H16.5C16.6989 5.25 16.8897 5.32902 17.0303 5.46967C17.171 5.61032 17.25 5.80109 17.25 6C17.25 6.19891 17.171 6.38968 17.0303 6.53033C16.8897 6.67098 16.6989 6.75 16.5 6.75H13.8506C14.2425 7.18725 14.5454 7.69677 14.7422 8.25Z" fill="black"/>
</svg>
