<svg width="24" height="24" viewBox="0 0 24 24" fill="none" xmlns="http://www.w3.org/2000/svg">
<path d="M12 2.25C10.0716 2.25 8.18657 2.82183 6.58319 3.89317C4.97982 4.96451 3.73013 6.48726 2.99218 8.26884C2.25422 10.0504 2.06114 12.0108 2.43735 13.9021C2.81355 15.7934 3.74215 17.5307 5.10571 18.8943C6.46928 20.2579 8.20656 21.1865 10.0979 21.5627C11.9892 21.9389 13.9496 21.7458 15.7312 21.0078C17.5127 20.2699 19.0355 19.0202 20.1068 17.4168C21.1782 15.8134 21.75 13.9284 21.75 12C21.7473 9.41498 20.7192 6.93661 18.8913 5.10872C17.0634 3.28084 14.585 2.25273 12 2.25ZM17.8125 7.24406L13.6528 12H15C15.1989 12 15.3897 12.079 15.5303 12.2197C15.671 12.3603 15.75 12.5511 15.75 12.75C15.75 12.9489 15.671 13.1397 15.5303 13.2803C15.3897 13.421 15.1989 13.5 15 13.5H12.75V15H15C15.1989 15 15.3897 15.079 15.5303 15.2197C15.671 15.3603 15.75 15.5511 15.75 15.75C15.75 15.9489 15.671 16.1397 15.5303 16.2803C15.3897 16.421 15.1989 16.5 15 16.5H12.75V18C12.75 18.1989 12.671 18.3897 12.5303 18.5303C12.3897 18.671 12.1989 18.75 12 18.75C11.8011 18.75 11.6103 18.671 11.4697 18.5303C11.329 18.3897 11.25 18.1989 11.25 18V16.5H9C8.80109 16.5 8.61033 16.421 8.46967 16.2803C8.32902 16.1397 8.25 15.9489 8.25 15.75C8.25 15.5511 8.32902 15.3603 8.46967 15.2197C8.61033 15.079 8.80109 15 9 15H11.25V13.5H9C8.80109 13.5 8.61033 13.421 8.46967 13.2803C8.32902 13.1397 8.25 12.9489 8.25 12.75C8.25 12.5511 8.32902 12.3603 8.46967 12.2197C8.61033 12.079 8.80109 12 9 12H10.3472L6.1875 7.24406C6.07012 7.09316 6.0148 6.90313 6.03283 6.71281C6.05087 6.52248 6.14091 6.34623 6.28455 6.22007C6.42818 6.0939 6.61458 6.02736 6.80564 6.03402C6.99671 6.04069 7.17801 6.12007 7.3125 6.25594L12 11.6109L16.6875 6.25594C16.7503 6.17523 16.8289 6.10821 16.9185 6.059C17.0082 6.00979 17.1069 5.97943 17.2087 5.96978C17.3105 5.96013 17.4132 5.9714 17.5105 6.0029C17.6078 6.0344 17.6976 6.08545 17.7744 6.15293C17.8513 6.22041 17.9135 6.30289 17.9573 6.3953C18.001 6.4877 18.0255 6.58809 18.029 6.69028C18.0326 6.79247 18.0152 6.89431 17.978 6.98954C17.9408 7.08478 17.8844 7.17139 17.8125 7.24406Z" fill="black"/>
</svg>
