<svg width="24" height="24" viewBox="0 0 24 24" fill="none" xmlns="http://www.w3.org/2000/svg">
<path d="M8.14706 6.92062C8.00144 6.77506 7.88593 6.60223 7.80712 6.41202C7.72831 6.2218 7.68774 6.01793 7.68774 5.81203C7.68774 5.60613 7.72831 5.40226 7.80712 5.21204C7.88593 5.02182 8.00144 4.849 8.14706 4.70344L10.8911 1.95844C11.1855 1.66475 11.5844 1.49982 12.0002 1.49982C12.416 1.49982 12.8149 1.66475 13.1092 1.95844L15.8533 4.70344C15.9989 4.849 16.1144 5.02182 16.1932 5.21204C16.2721 5.40226 16.3126 5.60613 16.3126 5.81203C16.3126 6.01793 16.2721 6.2218 16.1932 6.41202C16.1144 6.60223 15.9989 6.77506 15.8533 6.92062L13.1092 9.66562C12.8149 9.95931 12.416 10.1242 12.0002 10.1242C11.5844 10.1242 11.1855 9.95931 10.8911 9.66562L8.14706 6.92062ZM22.0417 10.8909L19.2967 8.14594C19.0025 7.85231 18.6038 7.6874 18.1882 7.6874C17.7725 7.6874 17.3738 7.85231 17.0796 8.14594L14.3346 10.8909C14.0409 11.1853 13.8759 11.5842 13.8759 12C13.8759 12.4158 14.0409 12.8147 14.3346 13.1091L17.0796 15.8541C17.3738 16.1477 17.7725 16.3126 18.1882 16.3126C18.6038 16.3126 19.0025 16.1477 19.2967 15.8541L22.0417 13.1091C22.3354 12.8147 22.5004 12.4158 22.5004 12C22.5004 11.5842 22.3354 11.1853 22.0417 10.8909ZM9.66674 10.8909L6.92081 8.14594C6.62658 7.85231 6.22789 7.6874 5.81221 7.6874C5.39654 7.6874 4.99784 7.85231 4.70362 8.14594L1.95862 10.8909C1.66493 11.1853 1.5 11.5842 1.5 12C1.5 12.4158 1.66493 12.8147 1.95862 13.1091L4.70362 15.8541C4.99784 16.1477 5.39654 16.3126 5.81221 16.3126C6.22789 16.3126 6.62658 16.1477 6.92081 15.8541L9.66581 13.1091C9.95949 12.8147 10.1244 12.4158 10.1244 12C10.1244 11.5842 9.95949 11.1853 9.66581 10.8909H9.66674ZM13.1102 14.3344C12.8158 14.0407 12.4169 13.8758 12.0011 13.8758C11.5853 13.8758 11.1864 14.0407 10.8921 14.3344L8.14706 17.0794C8.00144 17.2249 7.88593 17.3978 7.80712 17.588C7.72831 17.7782 7.68774 17.9821 7.68774 18.188C7.68774 18.3939 7.72831 18.5977 7.80712 18.788C7.88593 18.9782 8.00144 19.151 8.14706 19.2966L10.8911 22.0416C11.1855 22.3352 11.5844 22.5002 12.0002 22.5002C12.416 22.5002 12.8149 22.3352 13.1092 22.0416L15.8533 19.2966C15.9989 19.151 16.1144 18.9782 16.1932 18.788C16.2721 18.5977 16.3126 18.3939 16.3126 18.188C16.3126 17.9821 16.2721 17.7782 16.1932 17.588C16.1144 17.3978 15.9989 17.2249 15.8533 17.0794L13.1102 14.3344Z" fill="black"/>
</svg>
