<svg width="24" height="24" viewBox="0 0 24 24" fill="none" xmlns="http://www.w3.org/2000/svg">
<path d="M22.5005 12C22.5011 12.1964 22.4627 12.3911 22.3875 12.5726C22.3124 12.7541 22.202 12.9189 22.0627 13.0575L13.058 22.0631C12.777 22.3425 12.3968 22.4993 12.0005 22.4993C11.6042 22.4993 11.2241 22.3425 10.943 22.0631L1.94302 13.0575C1.66365 12.7764 1.50684 12.3963 1.50684 12C1.50684 11.6037 1.66365 11.2235 1.94302 10.9425L10.9477 1.93686C11.2288 1.65748 11.6089 1.50067 12.0052 1.50067C12.4015 1.50067 12.7817 1.65748 13.0627 1.93686L22.0674 10.9425C22.2058 11.0814 22.3153 11.2464 22.3897 11.4279C22.464 11.6094 22.5017 11.8039 22.5005 12Z" fill="black"/>
</svg>
