<svg width="24" height="24" viewBox="0 0 24 24" fill="none" xmlns="http://www.w3.org/2000/svg">
<path d="M17.653 4.06033C17.6335 4.04367 17.6131 4.02803 17.592 4.01345C17.5705 3.99845 17.548 3.98439 17.5255 3.97127C15.4383 2.46261 12.8385 1.84232 10.2951 2.24617C7.7517 2.65003 5.4719 4.04514 3.95477 6.1261C2.43765 8.20705 1.8068 10.8043 2.20032 13.3494C2.59383 15.8944 3.97966 18.1798 6.05444 19.7054C8.12921 21.231 10.7239 21.8724 13.2705 21.4892C15.8171 21.106 18.1082 19.7295 19.6422 17.661C21.1762 15.5924 21.8281 13.0003 21.4553 10.4522C21.0825 7.90404 19.7153 5.6074 17.653 4.06502V4.06033ZM11.9998 14.25C11.5548 14.25 11.1198 14.1181 10.7498 13.8708C10.3798 13.6236 10.0914 13.2722 9.9211 12.8611C9.7508 12.4499 9.70624 11.9975 9.79306 11.5611C9.87988 11.1246 10.0942 10.7237 10.4088 10.409C10.7235 10.0944 11.1244 9.88007 11.5609 9.79325C11.9973 9.70643 12.4497 9.75099 12.8609 9.92129C13.272 10.0916 13.6234 10.38 13.8706 10.75C14.1179 11.12 14.2498 11.555 14.2498 12C14.2498 12.5968 14.0128 13.169 13.5908 13.591C13.1689 14.013 12.5966 14.25 11.9998 14.25ZM20.2498 12C20.2498 12.2316 20.2395 12.4613 20.2208 12.6881L15.7498 11.8988C15.7246 10.9742 15.3571 10.0919 14.7186 9.42283L17.323 5.70377C18.2401 6.47664 18.9772 7.4406 19.4828 8.52818C19.9883 9.61575 20.2501 10.8007 20.2498 12Z" fill="black"/>
</svg>
