<svg width="24" height="24" viewBox="0 0 24 24" fill="none" xmlns="http://www.w3.org/2000/svg">
<path d="M18.7501 19.1719V21.75C18.7501 21.9489 18.6711 22.1397 18.5304 22.2803C18.3898 22.421 18.199 22.5 18.0001 22.5C17.8012 22.5 17.6104 22.421 17.4698 22.2803C17.3291 22.1397 17.2501 21.9489 17.2501 21.75V19.1719C17.2538 18.0567 16.945 16.9628 16.3587 16.0142C15.7725 15.0656 14.9322 14.3002 13.9332 13.8047L9.39571 11.5369C8.14699 10.9175 7.09674 9.96077 6.36402 8.77503C5.6313 7.58929 5.24541 6.22199 5.25008 4.82812V2.25C5.25008 2.05109 5.3291 1.86032 5.46975 1.71967C5.61041 1.57902 5.80117 1.5 6.00008 1.5C6.199 1.5 6.38976 1.57902 6.53041 1.71967C6.67107 1.86032 6.75008 2.05109 6.75008 2.25V4.82812C6.74641 5.94327 7.05519 7.03715 7.64143 7.98577C8.22767 8.9344 9.06793 9.69983 10.067 10.1953L14.6045 12.4631C15.8532 13.0825 16.9034 14.0392 17.6361 15.225C18.3689 16.4107 18.7548 17.778 18.7501 19.1719ZM15.2982 18H7.78133C7.67852 18.0002 7.57675 17.9793 7.48236 17.9385C7.38797 17.8978 7.30297 17.8381 7.23263 17.7631C7.1623 17.6881 7.10813 17.5994 7.07351 17.5026C7.03888 17.4058 7.02452 17.3029 7.03133 17.2003C7.04833 17.0076 7.13743 16.8284 7.28083 16.6986C7.42422 16.5688 7.61134 16.4978 7.80477 16.5H14.0345C14.1094 16.4999 14.1826 16.4774 14.2446 16.4353C14.3066 16.3932 14.3546 16.3335 14.3823 16.2638C14.4101 16.1942 14.4163 16.1179 14.4003 16.0447C14.3842 15.9715 14.3466 15.9047 14.2923 15.8531C13.9828 15.5712 13.6358 15.3336 13.261 15.1472L9.09383 13.0603C8.97041 12.9987 8.83239 12.9723 8.69494 12.984C8.55749 12.9958 8.42595 13.0452 8.31477 13.1269C7.36676 13.8246 6.59564 14.735 6.06338 15.7848C5.53111 16.8347 5.25256 17.9948 5.25008 19.1719V21.7247C5.24722 21.9185 5.31786 22.1062 5.44779 22.25C5.57771 22.3939 5.75729 22.4832 5.9504 22.5C6.05299 22.5068 6.15588 22.4925 6.25269 22.4578C6.3495 22.4232 6.43815 22.369 6.51315 22.2987C6.58814 22.2284 6.64787 22.1434 6.68863 22.049C6.72939 21.9546 6.75031 21.8528 6.75008 21.75V20.25H15.0001C15.199 20.25 15.3898 20.171 15.5304 20.0303C15.6711 19.8897 15.7501 19.6989 15.7501 19.5V19.1719C15.7501 18.8786 15.7218 18.586 15.6657 18.2981C15.648 18.2138 15.6019 18.1381 15.5349 18.0838C15.468 18.0295 15.3844 17.9999 15.2982 18ZM17.9504 1.5C17.7573 1.5168 17.5777 1.60611 17.4478 1.74995C17.3179 1.89379 17.2472 2.0815 17.2501 2.27531V3.75H9.00008C8.80117 3.75 8.61041 3.82902 8.46975 3.96967C8.3291 4.11032 8.25008 4.30109 8.25008 4.5V4.82812C8.25011 5.12141 8.27837 5.41401 8.33446 5.70187C8.35213 5.78623 8.39831 5.86193 8.46525 5.91622C8.53218 5.97052 8.61577 6.00011 8.70196 6H16.1954C16.3888 5.99784 16.5759 6.06876 16.7193 6.1986C16.8627 6.32844 16.9518 6.50762 16.9688 6.70031C16.9756 6.8029 16.9613 6.9058 16.9267 7.00261C16.892 7.09941 16.8379 7.18807 16.7675 7.26306C16.6972 7.33806 16.6122 7.39779 16.5178 7.43855C16.4234 7.47931 16.3216 7.50023 16.2188 7.5H9.96571C9.89076 7.50009 9.81756 7.52264 9.75555 7.56474C9.69354 7.60683 9.64557 7.66654 9.61782 7.73616C9.59008 7.80579 9.58383 7.88212 9.59988 7.95533C9.61594 8.02854 9.65356 8.09526 9.7079 8.14688C10.0173 8.42878 10.3644 8.66636 10.7391 8.85281L14.9063 10.9397C15.0296 11.0019 15.1678 11.0286 15.3055 11.0166C15.4431 11.0047 15.5746 10.9547 15.6854 10.8722C16.6333 10.1746 17.4043 9.26435 17.9366 8.21465C18.4688 7.16495 18.7475 6.00505 18.7501 4.82812V2.25C18.7503 2.14718 18.7294 2.04542 18.6886 1.95103C18.6479 1.85664 18.5881 1.77163 18.5131 1.7013C18.4382 1.63096 18.3495 1.5768 18.2527 1.54217C18.1559 1.50754 18.053 1.49319 17.9504 1.5Z" fill="black"/>
</svg>
