<svg width="24" height="24" viewBox="0 0 24 24" fill="none" xmlns="http://www.w3.org/2000/svg">
<path d="M22.4722 11.7188L20.9328 3.46878C20.8952 3.26768 20.8169 3.07641 20.7026 2.90671C20.5883 2.73702 20.4405 2.59249 20.2683 2.48203C20.0961 2.37156 19.9032 2.29749 19.7013 2.26436C19.4994 2.23124 19.2929 2.23976 19.0944 2.28941L19.0653 2.29784L14.1416 3.75003H9.8572L4.93345 2.30253L4.90439 2.29409C4.70592 2.24445 4.49939 2.23592 4.29751 2.26905C4.09562 2.30217 3.90265 2.37625 3.73045 2.48671C3.55825 2.59718 3.41047 2.74171 3.2962 2.9114C3.18192 3.08109 3.10357 3.27237 3.06595 3.47347L1.52658 11.7188C1.46075 12.049 1.50961 12.3918 1.66509 12.6905C1.82056 12.9891 2.07333 13.2258 2.38158 13.3613C2.57899 13.4518 2.79346 13.4991 3.01064 13.5C3.27058 13.4999 3.52572 13.43 3.74939 13.2975V17.25C3.74939 18.2446 4.14448 19.1984 4.84774 19.9017C5.551 20.6049 6.50483 21 7.49939 21H16.4994C17.494 21 18.4478 20.6049 19.151 19.9017C19.8543 19.1984 20.2494 18.2446 20.2494 17.25V13.2985C20.4728 13.4307 20.7276 13.5006 20.9872 13.501C21.2046 13.5003 21.4194 13.4534 21.6172 13.3632C21.9258 13.2276 22.1789 12.9906 22.3344 12.6916C22.4899 12.3925 22.5385 12.0493 22.4722 11.7188ZM16.4994 19.5H12.7494V18.3103L14.03 17.0307C14.1707 16.8899 14.2498 16.6991 14.2498 16.5C14.2498 16.301 14.1707 16.1101 14.03 15.9694C13.8893 15.8287 13.6984 15.7496 13.4994 15.7496C13.3004 15.7496 13.1095 15.8287 12.9688 15.9694L11.9994 16.9397L11.03 15.9694C10.8893 15.8287 10.6984 15.7496 10.4994 15.7496C10.3004 15.7496 10.1095 15.8287 9.96877 15.9694C9.82803 16.1101 9.74897 16.301 9.74897 16.5C9.74897 16.6991 9.82803 16.8899 9.96877 17.0307L11.2494 18.3103V19.5H7.49939C6.90265 19.5 6.33036 19.263 5.9084 18.841C5.48644 18.4191 5.24939 17.8468 5.24939 17.25V11.5416L10.1178 5.25003H13.881L18.7494 11.5416V17.25C18.7494 17.8468 18.5123 18.4191 18.0904 18.841C17.6684 19.263 17.0961 19.5 16.4994 19.5ZM9.74939 13.125C9.74939 13.3475 9.68341 13.565 9.55979 13.75C9.43618 13.9351 9.26048 14.0792 9.05491 14.1644C8.84934 14.2495 8.62314 14.2718 8.40491 14.2284C8.18668 14.185 7.98623 14.0779 7.82889 13.9205C7.67156 13.7632 7.56441 13.5627 7.52101 13.3445C7.4776 13.1263 7.49988 12.9001 7.58503 12.6945C7.67017 12.4889 7.81437 12.3132 7.99937 12.1896C8.18438 12.066 8.40189 12 8.62439 12C8.92276 12 9.20891 12.1186 9.41989 12.3295C9.63086 12.5405 9.74939 12.8267 9.74939 13.125ZM16.4994 13.125C16.4994 13.3475 16.4334 13.565 16.3098 13.75C16.1862 13.9351 16.0105 14.0792 15.8049 14.1644C15.5993 14.2495 15.3731 14.2718 15.1549 14.2284C14.9367 14.185 14.7362 14.0779 14.5789 13.9205C14.4216 13.7632 14.3144 13.5627 14.271 13.3445C14.2276 13.1263 14.2499 12.9001 14.335 12.6945C14.4202 12.4889 14.5644 12.3132 14.7494 12.1896C14.9344 12.066 15.1519 12 15.3744 12C15.6728 12 15.9589 12.1186 16.1699 12.3295C16.3809 12.5405 16.4994 12.8267 16.4994 13.125Z" fill="black"/>
</svg>
