<svg width="24" height="24" viewBox="0 0 24 24" fill="none" xmlns="http://www.w3.org/2000/svg">
<g clip-path="url(#clip0_639_9379)">
<path d="M6.21142 7.52156C6.10801 7.35248 6.04086 7.16375 6.01423 6.96734C5.98761 6.77094 6.00208 6.57114 6.05673 6.38062C6.09391 6.22246 6.15729 6.07163 6.24423 5.93437L8.24955 3.06563V0.75C8.24932 0.647184 8.27024 0.54542 8.311 0.451029C8.35176 0.356637 8.41149 0.271634 8.48648 0.201299C8.56148 0.130965 8.65013 0.0768006 8.74694 0.0421716C8.84375 0.00754254 8.94664 -0.00681186 9.04923 -6.2515e-08C9.24242 0.0165885 9.42213 0.10583 9.5521 0.24972C9.68207 0.39361 9.75263 0.581438 9.74955 0.775312V3.03937L10.2417 3.65625C10.456 3.92496 10.7292 4.14081 11.0401 4.28711C11.3511 4.43341 11.6916 4.50625 12.0352 4.5C12.3745 4.4904 12.7076 4.40622 13.0107 4.25343C13.3139 4.10064 13.5797 3.883 13.7892 3.61594L14.2495 3.03937V0.75C14.2493 0.647184 14.2702 0.54542 14.311 0.451029C14.3518 0.356637 14.4115 0.271634 14.4865 0.201299C14.5615 0.130965 14.6501 0.0768006 14.7469 0.0421716C14.8437 0.00754254 14.9466 -0.00681186 15.0492 -6.2515e-08C15.2424 0.0165885 15.4221 0.10583 15.5521 0.24972C15.6821 0.39361 15.7526 0.581438 15.7495 0.775312V3.06563L17.7577 5.93437C17.8446 6.07163 17.908 6.22246 17.9452 6.38062C17.9998 6.57114 18.0143 6.77094 17.9877 6.96734C17.961 7.16375 17.8939 7.35248 17.7905 7.52156C17.7867 7.52697 17.7833 7.53261 17.7802 7.53844L16.4808 9.57656C16.4467 9.63008 16.3995 9.67407 16.3438 9.7044C16.288 9.73474 16.2255 9.75043 16.162 9.75H7.83705C7.77406 9.74995 7.71209 9.73404 7.65688 9.70372C7.60166 9.67341 7.55497 9.62968 7.52111 9.57656L6.22174 7.53844C6.21864 7.53261 6.2152 7.52697 6.21142 7.52156ZM20.1333 19.6678C20.1294 19.6569 20.1247 19.6462 20.1192 19.6359L16.283 11.4656C16.2527 11.401 16.2045 11.3464 16.1442 11.3082C16.084 11.27 16.014 11.2498 15.9427 11.25H8.05642C7.98506 11.2498 7.91513 11.27 7.85485 11.3082C7.79457 11.3464 7.74644 11.401 7.71611 11.4656L3.87986 19.6359C3.87439 19.6462 3.86969 19.6569 3.8658 19.6678C3.78401 19.865 3.74475 20.0772 3.75056 20.2906C3.75638 20.504 3.80715 20.7138 3.89955 20.9062C4.02272 21.1594 4.21464 21.3728 4.45338 21.522C4.69211 21.6712 4.96802 21.7502 5.24955 21.75H18.7495C19.0309 21.75 19.3066 21.6709 19.5452 21.5217C19.7837 21.3725 19.9755 21.1593 20.0986 20.9062C20.1912 20.7139 20.2421 20.5041 20.2481 20.2907C20.254 20.0773 20.2149 19.8651 20.1333 19.6678Z" fill="black"/>
</g>
<defs>
<clipPath id="clip0_639_9379">
<rect width="24" height="24" fill="white"/>
</clipPath>
</defs>
</svg>
