<svg width="24" height="24" viewBox="0 0 24 24" fill="none" xmlns="http://www.w3.org/2000/svg">
<path d="M8.74305 3.45561C8.68256 3.41819 8.63396 3.36434 8.60292 3.30035C8.57188 3.23636 8.55968 3.16486 8.56774 3.0942C8.5758 3.02353 8.60379 2.95662 8.64844 2.90126C8.69309 2.8459 8.75257 2.80438 8.81992 2.78154C10.1877 2.31025 11.6433 2.14944 13.081 2.31079C14.5187 2.47214 15.9025 2.9516 17.1318 3.71436C17.1763 3.74244 17.2145 3.7796 17.2437 3.8234C17.2729 3.86721 17.2926 3.91668 17.3015 3.96859C17.3103 4.02051 17.3081 4.0737 17.295 4.12472C17.282 4.17573 17.2583 4.22341 17.2255 4.26467C16.1401 5.65177 14.8089 6.82755 13.2984 7.73342C12.0782 6.01991 10.5298 4.56584 8.74305 3.45561ZM11.9596 8.43748C10.5904 6.56914 8.78904 5.06019 6.70961 4.03967C6.65007 4.01075 6.58385 3.99836 6.51788 4.00381C6.45191 4.00925 6.38861 4.03232 6.33461 4.07061C4.65122 5.27473 3.39283 6.98147 2.74024 8.94561C2.72384 8.99583 2.71824 9.04895 2.72381 9.10149C2.72937 9.15402 2.74598 9.20479 2.77253 9.25046C2.79908 9.29614 2.83499 9.33568 2.87789 9.36651C2.9208 9.39734 2.96973 9.41876 3.02149 9.42936C4.00001 9.64028 4.99799 9.74775 5.99899 9.74998C8.05766 9.7511 10.0918 9.30319 11.9596 8.43748ZM21.6909 10.9397C21.4525 8.76516 20.4884 6.73438 18.9543 5.17498C18.9169 5.13698 18.8718 5.1074 18.8221 5.0882C18.7723 5.069 18.7191 5.06063 18.6658 5.06365C18.6126 5.06667 18.5606 5.081 18.5134 5.10569C18.4661 5.13039 18.4247 5.16488 18.3918 5.20686C17.2053 6.71846 15.7539 8.00182 14.1084 8.99436C14.6224 9.88495 15.0479 10.8238 15.3787 11.7975C16.7218 11.4334 18.1074 11.2493 19.499 11.25C20.0941 11.25 20.6888 11.2835 21.2802 11.3503C21.3353 11.3558 21.3908 11.349 21.443 11.3305C21.4951 11.312 21.5425 11.2822 21.5817 11.2432C21.621 11.2042 21.6511 11.1571 21.67 11.1051C21.6888 11.0531 21.696 10.9976 21.6909 10.9425V10.9397ZM15.793 13.2365C16.0709 14.4186 16.2109 15.6288 16.2102 16.8431C16.2097 18.0054 16.0804 19.164 15.8249 20.2978C15.8086 20.3672 15.8124 20.4399 15.8359 20.5073C15.8594 20.5746 15.9017 20.6339 15.9577 20.6781C16.0137 20.7222 16.0811 20.7495 16.1521 20.7568C16.2231 20.764 16.2946 20.7508 16.3584 20.7187C17.7803 20.0054 19.0066 18.9559 19.9308 17.6611C20.855 16.3663 21.4492 14.8656 21.6618 13.289C21.6682 13.2399 21.6648 13.1899 21.6518 13.1421C21.6388 13.0942 21.6165 13.0494 21.586 13.0103C21.5556 12.9712 21.5177 12.9384 21.4746 12.914C21.4314 12.8896 21.3838 12.874 21.3346 12.8681C19.4807 12.6295 17.5979 12.7569 15.793 13.2431V13.2365ZM13.9518 12.2569C13.6495 11.3704 13.2604 10.5159 12.7902 9.70592C10.6711 10.724 8.34995 11.2517 5.99899 11.25C4.90005 11.25 3.8041 11.1354 2.72899 10.9078C2.67711 10.8968 2.62351 10.897 2.57171 10.9083C2.51991 10.9196 2.4711 10.9418 2.42849 10.9733C2.38587 11.0048 2.35043 11.045 2.3245 11.0913C2.29857 11.1375 2.28274 11.1887 2.27805 11.2415C2.25867 11.4915 2.24867 11.7444 2.24805 12C2.24756 13.335 2.52199 14.6559 3.05425 15.8803C3.58651 17.1046 4.3652 18.2063 5.3418 19.1165C5.38299 19.1543 5.4321 19.1824 5.48554 19.1987C5.53898 19.215 5.59539 19.2192 5.65066 19.211C5.70592 19.2027 5.75864 19.1822 5.80495 19.1509C5.85127 19.1197 5.89002 19.0785 5.91836 19.0303C7.74819 15.9254 10.5819 13.5372 13.9518 12.2597V12.2569ZM7.09492 19.9922C7.07028 20.0352 7.05441 20.0827 7.04824 20.1319C7.04207 20.1811 7.04572 20.231 7.05897 20.2788C7.07222 20.3266 7.09482 20.3712 7.12545 20.4102C7.15608 20.4492 7.19414 20.4817 7.23742 20.5059C9.19804 21.6052 11.4785 21.9924 13.6921 21.6019C13.758 21.5904 13.8195 21.5612 13.87 21.5174C13.9205 21.4736 13.9582 21.417 13.979 21.3534C14.4625 19.8998 14.7094 18.3779 14.7102 16.8459C14.7104 15.7905 14.5928 14.7384 14.3596 13.709C11.2877 14.9059 8.72212 17.1249 7.09492 19.9922Z" fill="black"/>
</svg>
