<svg width="24" height="24" viewBox="0 0 24 24" fill="none" xmlns="http://www.w3.org/2000/svg">
<path d="M17.6255 11.25L12.0005 7.50001L17.2092 4.03126C17.3325 3.94903 17.4773 3.90515 17.6255 3.90515C17.7737 3.90515 17.9185 3.94903 18.0417 4.03126L22.313 6.87564C22.4159 6.9441 22.5002 7.03692 22.5586 7.14585C22.6169 7.25478 22.6475 7.37644 22.6475 7.50001C22.6475 7.62359 22.6169 7.74525 22.5586 7.85417C22.5002 7.9631 22.4159 8.05593 22.313 8.12439L17.6255 11.25ZM6.79175 4.03126C6.6685 3.94903 6.52366 3.90515 6.3755 3.90515C6.22734 3.90515 6.08249 3.94903 5.95925 4.03126L1.688 6.87564C1.58512 6.9441 1.50076 7.03692 1.4424 7.14585C1.38405 7.25478 1.35352 7.37644 1.35352 7.50001C1.35352 7.62359 1.38405 7.74525 1.4424 7.85417C1.50076 7.9631 1.58512 8.05593 1.688 8.12439L6.3755 11.25L12.0005 7.50001L6.79175 4.03126ZM22.313 14.3756L17.6255 11.25L12.0005 15L17.2092 18.4688C17.3325 18.551 17.4773 18.5949 17.6255 18.5949C17.7737 18.5949 17.9185 18.551 18.0417 18.4688L22.313 15.6244C22.4159 15.5559 22.5002 15.4631 22.5586 15.3542C22.6169 15.2452 22.6475 15.1236 22.6475 15C22.6475 14.8764 22.6169 14.7548 22.5586 14.6459C22.5002 14.5369 22.4159 14.4441 22.313 14.3756ZM1.688 14.3756C1.58512 14.4441 1.50076 14.5369 1.4424 14.6459C1.38405 14.7548 1.35352 14.8764 1.35352 15C1.35352 15.1236 1.38405 15.2452 1.4424 15.3542C1.50076 15.4631 1.58512 15.5559 1.688 15.6244L5.95925 18.4688C6.08249 18.551 6.22734 18.5949 6.3755 18.5949C6.52366 18.5949 6.6685 18.551 6.79175 18.4688L12.0005 15L6.3755 11.25L1.688 14.3756ZM15.8077 19.3397L12.2105 16.9416C12.1489 16.9005 12.0765 16.8785 12.0024 16.8785C11.9283 16.8785 11.8559 16.9005 11.7942 16.9416L8.19518 19.3397C8.14394 19.374 8.10194 19.4203 8.07289 19.4747C8.04384 19.5291 8.02865 19.5898 8.02865 19.6514C8.02865 19.7131 8.04384 19.7738 8.07289 19.8281C8.10194 19.8825 8.14394 19.9289 8.19518 19.9631L11.5842 22.2188C11.7075 22.301 11.8523 22.3449 12.0005 22.3449C12.1487 22.3449 12.2935 22.301 12.4167 22.2188L15.8058 19.9594C15.8563 19.925 15.8976 19.8788 15.9261 19.8248C15.9547 19.7708 15.9696 19.7106 15.9696 19.6495C15.9696 19.5885 15.9547 19.5283 15.9261 19.4743C15.8976 19.4203 15.8563 19.3741 15.8058 19.3397H15.8077Z" fill="black"/>
</svg>
