<svg width="24" height="24" viewBox="0 0 24 24" fill="none" xmlns="http://www.w3.org/2000/svg">
<path d="M16.3125 4.47657C15.1545 3.13916 13.8511 1.93487 12.4266 0.885941C12.3005 0.797601 12.1502 0.750214 11.9963 0.750214C11.8423 0.750214 11.692 0.797601 11.5659 0.885941C10.144 1.9353 8.84317 3.13958 7.6875 4.47657C5.11031 7.43625 3.75 10.5563 3.75 13.5C3.75 15.688 4.61919 17.7865 6.16637 19.3336C7.71354 20.8808 9.81196 21.75 12 21.75C14.188 21.75 16.2865 20.8808 17.8336 19.3336C19.3808 17.7865 20.25 15.688 20.25 13.5C20.25 10.5563 18.8897 7.43625 16.3125 4.47657ZM12 2.4375C13.3275 3.47813 17.3306 6.91313 18.4537 11.25H5.54625C6.66937 6.915 10.6725 3.48 12 2.4375Z" fill="black"/>
</svg>
