<svg width="24" height="24" viewBox="0 0 24 24" fill="none" xmlns="http://www.w3.org/2000/svg">
<path d="M20.0544 19.7456C20.122 19.8182 20.1745 19.9036 20.2089 19.9967C20.2433 20.0898 20.2589 20.1888 20.2548 20.2879C20.2506 20.3871 20.2269 20.4845 20.1848 20.5744C20.1428 20.6643 20.0833 20.7449 20.0098 20.8117C19.9364 20.8784 19.8504 20.9299 19.7569 20.9632C19.6634 20.9965 19.5643 21.0109 19.4651 21.0055C19.366 21.0002 19.269 20.9753 19.1796 20.9321C19.0902 20.889 19.0103 20.8286 18.9444 20.7543L17.9806 19.694C18.3759 19.3867 18.7467 19.0491 19.0897 18.6843L20.0544 19.7456ZM6.01814 4.30591L5.05439 3.2456C4.98853 3.17135 4.90858 3.11092 4.81919 3.0678C4.7298 3.02468 4.63274 2.99973 4.53363 2.9944C4.43453 2.98907 4.33535 3.00346 4.24185 3.03674C4.14835 3.07002 4.06238 3.12153 3.98893 3.18828C3.91548 3.25503 3.85601 3.33569 3.81397 3.42559C3.77192 3.5155 3.74814 3.61285 3.74399 3.71201C3.73985 3.81117 3.75543 3.91017 3.78983 4.00327C3.82423 4.09636 3.87676 4.1817 3.94439 4.25435L4.90908 5.3156C5.25208 4.95084 5.62288 4.61326 6.01814 4.30591ZM19.0897 18.6843L6.01814 4.30591C7.95589 2.79723 10.3918 2.07585 12.8386 2.2861C15.2854 2.49635 17.5626 3.62272 19.2146 5.43985C20.8666 7.25699 21.7715 9.63088 21.7483 12.0866C21.7252 14.5423 20.7757 16.8987 19.0897 18.6843ZM14.9056 9.74997C14.7838 9.27777 14.5487 8.84239 14.2207 8.48153C13.8927 8.12068 13.4816 7.84523 13.0231 7.67904C12.8407 7.62712 12.6454 7.64625 12.4765 7.73258C12.3076 7.8189 12.1777 7.96601 12.1129 8.14427C12.0482 8.32254 12.0533 8.51873 12.1274 8.69333C12.2015 8.86794 12.339 9.00799 12.5122 9.08529C12.7403 9.16849 12.9447 9.3058 13.108 9.48542C13.2713 9.66504 13.3885 9.88161 13.4497 10.1165C13.4912 10.2774 13.585 10.42 13.7164 10.5218C13.8477 10.6236 14.0092 10.6789 14.1753 10.679C14.2386 10.6792 14.3017 10.671 14.3628 10.6547C14.5542 10.6057 14.7186 10.4833 14.8202 10.3139C14.9218 10.1445 14.9525 9.94186 14.9056 9.74997ZM17.9994 10.5C17.9997 9.53524 17.7674 8.58467 17.3221 7.72884C16.8768 6.87301 16.2318 6.13717 15.4416 5.58371C14.6514 5.03024 13.7394 4.67548 12.783 4.54949C11.8265 4.4235 10.8537 4.53001 9.9472 4.85997C9.77286 4.93671 9.63425 5.07691 9.55951 5.25212C9.48476 5.42733 9.47948 5.62441 9.54474 5.80336C9.61 5.98232 9.74091 6.12974 9.91089 6.2157C10.0809 6.30166 10.2772 6.31973 10.46 6.26622C11.1402 6.01859 11.8702 5.93872 12.5878 6.03337C13.3055 6.12803 13.9898 6.39443 14.5825 6.80997C15.1753 7.2255 15.659 7.7779 15.9927 8.42028C16.3264 9.06267 16.5002 9.77608 16.4994 10.5C16.4994 10.6989 16.5784 10.8897 16.7191 11.0303C16.8597 11.171 17.0505 11.25 17.2494 11.25C17.4483 11.25 17.6391 11.171 17.7797 11.0303C17.9204 10.8897 17.9994 10.6989 17.9994 10.5ZM13.8744 15.75C13.3771 15.75 12.9002 15.5524 12.5486 15.2008C12.1969 14.8492 11.9994 14.3723 11.9994 13.875C11.9982 13.6528 12.0298 13.4317 12.0931 13.2187L10.176 11.1093C10.0517 11.1992 9.9027 11.2483 9.74939 11.25C9.55048 11.25 9.35971 11.171 9.21906 11.0303C9.07841 10.8897 8.99939 10.6989 8.99939 10.5C8.9994 10.2933 9.02076 10.0872 9.06314 9.88497L7.91095 8.61747C7.63827 9.2075 7.49781 9.84998 7.49939 10.5C7.49939 11.6156 8.12845 12.4218 8.79501 13.275C9.45126 14.1112 10.1244 14.9765 10.1244 16.125C10.1243 16.4943 10.2332 16.8554 10.4375 17.163C10.6418 17.4706 10.9324 17.7111 11.2729 17.8542C11.6133 17.9973 11.9885 18.0366 12.3512 17.9673C12.714 17.898 13.0482 17.7232 13.3119 17.4647C13.3812 17.3914 13.4646 17.3328 13.5571 17.2925C13.6496 17.2522 13.7493 17.231 13.8501 17.2301C13.951 17.2292 14.051 17.2487 14.1442 17.2874C14.2374 17.326 14.3218 17.3831 14.3924 17.4552C14.463 17.5272 14.5184 17.6128 14.5551 17.7067C14.5919 17.8007 14.6093 17.9011 14.6064 18.0019C14.6035 18.1028 14.5802 18.202 14.538 18.2936C14.4959 18.3853 14.4356 18.4675 14.361 18.5353C13.8863 19.0002 13.2849 19.3147 12.6322 19.4393C11.9795 19.5639 11.3046 19.493 10.692 19.2356C10.0795 18.9783 9.55649 18.5458 9.18867 17.9924C8.82085 17.4391 8.62455 16.7894 8.62439 16.125C8.62439 15.4931 8.15564 14.8931 7.61283 14.1984C6.89376 13.2778 5.99939 12.1322 5.99939 10.5C5.99817 9.42177 6.2898 8.36348 6.84314 7.4381L4.90908 5.3156C3.22313 7.10126 2.27359 9.45766 2.25043 11.9134C2.22728 14.3691 3.13221 16.743 4.78419 18.5601C6.43616 20.3772 8.71334 21.5036 11.1601 21.7138C13.6069 21.9241 16.0429 21.2027 17.9806 19.694L14.3431 15.6909C14.19 15.7305 14.0325 15.7503 13.8744 15.75Z" fill="black"/>
</svg>
