<svg width="24" height="24" viewBox="0 0 24 24" fill="none" xmlns="http://www.w3.org/2000/svg">
<path d="M21 16.5V18.75C21 19.1478 20.842 19.5294 20.5607 19.8107C20.2794 20.092 19.8978 20.25 19.5 20.25H4.5C4.10218 20.25 3.72064 20.092 3.43934 19.8107C3.15804 19.5294 3 19.1478 3 18.75V16.5C3 16.1022 3.15804 15.7206 3.43934 15.4393C3.72064 15.158 4.10218 15 4.5 15H19.5C19.8978 15 20.2794 15.158 20.5607 15.4393C20.842 15.7206 21 16.1022 21 16.5ZM4.5225 13.5H19.4775C19.7748 13.5014 20.066 13.4155 20.3148 13.2528C20.5637 13.0901 20.7592 12.8579 20.8772 12.585C20.9937 12.3189 21.0284 12.0241 20.9766 11.7382C20.9248 11.4523 20.789 11.1883 20.5866 10.98L13.6744 3.71344C13.4578 3.48783 13.1978 3.30833 12.91 3.18571C12.6223 3.06309 12.3128 2.99988 12 2.99988C11.6872 2.99988 11.3777 3.06309 11.09 3.18571C10.8022 3.30833 10.5422 3.48783 10.3256 3.71344L3.41344 10.98C3.21096 11.1883 3.07517 11.4523 3.02341 11.7382C2.97164 12.0241 3.00625 12.3189 3.12281 12.585C3.24078 12.8579 3.43633 13.0901 3.68518 13.2528C3.93403 13.4155 4.2252 13.5014 4.5225 13.5Z" fill="black"/>
</svg>
