<svg width="24" height="24" viewBox="0 0 24 24" fill="none" xmlns="http://www.w3.org/2000/svg">
<path d="M21.75 19.5C21.75 19.6989 21.671 19.8897 21.5303 20.0303C21.3897 20.171 21.1989 20.25 21 20.25H3C2.80109 20.25 2.61032 20.171 2.46967 20.0303C2.32902 19.8897 2.25 19.6989 2.25 19.5C2.25 19.3011 2.32902 19.1103 2.46967 18.9697C2.61032 18.829 2.80109 18.75 3 18.75H21C21.1989 18.75 21.3897 18.829 21.5303 18.9697C21.671 19.1103 21.75 19.3011 21.75 19.5ZM3.75844 15.75H20.2416C20.5264 15.7494 20.8052 15.6683 21.0458 15.5159C21.2864 15.3636 21.479 15.1463 21.6014 14.8891C21.7237 14.632 21.7708 14.3454 21.7372 14.0626C21.7037 13.7798 21.5907 13.5123 21.4116 13.291L13.7569 3.83814C13.545 3.57636 13.2773 3.36525 12.9733 3.22022C12.6693 3.0752 12.3368 2.99994 12 2.99994C11.6632 2.99994 11.3307 3.0752 11.0267 3.22022C10.7227 3.36525 10.455 3.57636 10.2431 3.83814L2.58844 13.291C2.40925 13.5123 2.29634 13.7798 2.26275 14.0626C2.22917 14.3454 2.27627 14.632 2.39863 14.8891C2.52099 15.1463 2.7136 15.3636 2.95422 15.5159C3.19484 15.6683 3.47365 15.7494 3.75844 15.75Z" fill="black"/>
</svg>
