<svg width="24" height="24" viewBox="0 0 24 24" fill="none" xmlns="http://www.w3.org/2000/svg">
<path d="M24 10.5V16.5C24 16.6989 23.921 16.8897 23.7803 17.0303C23.6397 17.171 23.4489 17.25 23.25 17.25C23.0511 17.25 22.8603 17.171 22.7197 17.0303C22.579 16.8897 22.5 16.6989 22.5 16.5V14.25H21V15.75C21 16.1478 20.842 16.5294 20.5607 16.8107C20.2794 17.092 19.8978 17.25 19.5 17.25H18.3103L15 20.5603C14.8612 20.7002 14.696 20.8111 14.514 20.8866C14.332 20.9621 14.1367 21.0006 13.9397 21H7.81031C7.61326 21.0006 7.41804 20.9621 7.23602 20.8866C7.05399 20.8111 6.88878 20.7002 6.75 20.5603L3.43969 17.25C3.29979 17.1112 3.18888 16.946 3.1134 16.764C3.03792 16.582 2.99937 16.3867 3 16.1897V14.25H1.5V16.5C1.5 16.6989 1.42098 16.8897 1.28033 17.0303C1.13968 17.171 0.948912 17.25 0.75 17.25C0.551088 17.25 0.360322 17.171 0.21967 17.0303C0.0790176 16.8897 0 16.6989 0 16.5V10.5C0 10.3011 0.0790176 10.1103 0.21967 9.96967C0.360322 9.82902 0.551088 9.75 0.75 9.75C0.948912 9.75 1.13968 9.82902 1.28033 9.96967C1.42098 10.1103 1.5 10.3011 1.5 10.5V12.75H3V7.5C3 7.10218 3.15804 6.72064 3.43934 6.43934C3.72064 6.15804 4.10218 6 4.5 6H10.5V4.5H8.25C8.05109 4.5 7.86032 4.42098 7.71967 4.28033C7.57902 4.13968 7.5 3.94891 7.5 3.75C7.5 3.55109 7.57902 3.36032 7.71967 3.21967C7.86032 3.07902 8.05109 3 8.25 3H14.25C14.4489 3 14.6397 3.07902 14.7803 3.21967C14.921 3.36032 15 3.55109 15 3.75C15 3.94891 14.921 4.13968 14.7803 4.28033C14.6397 4.42098 14.4489 4.5 14.25 4.5H12V6H13.9397C14.1367 5.99937 14.332 6.03792 14.514 6.1134C14.696 6.18888 14.8612 6.29979 15 6.43969L18.3103 9.75H19.5C19.8978 9.75 20.2794 9.90804 20.5607 10.1893C20.842 10.4706 21 10.8522 21 11.25V12.75H22.5V10.5C22.5 10.3011 22.579 10.1103 22.7197 9.96967C22.8603 9.82902 23.0511 9.75 23.25 9.75C23.4489 9.75 23.6397 9.82902 23.7803 9.96967C23.921 10.1103 24 10.3011 24 10.5Z" fill="black"/>
</svg>
