<svg width="24" height="24" viewBox="0 0 24 24" fill="none" xmlns="http://www.w3.org/2000/svg">
<path d="M22.4991 15C22.498 16.869 21.799 18.6703 20.5392 20.0509C19.2793 21.4315 17.5494 22.292 15.6883 22.4637C13.8272 22.6355 11.969 22.1061 10.4778 20.9794C8.98654 19.8527 7.96975 18.2098 7.62659 16.3725C8.82364 16.5952 10.0569 16.523 11.2198 16.1623C12.3828 15.8016 13.4404 15.1632 14.3013 14.3023C15.1623 13.4413 15.8007 12.3837 16.1614 11.2207C16.5221 10.0578 16.5942 8.82455 16.3716 7.6275C18.0929 7.94791 19.6479 8.86045 20.767 10.207C21.8861 11.5535 22.4989 13.2491 22.4991 15ZM14.9991 7.5C15.4595 7.50044 15.9189 7.54311 16.3716 7.6275C16.1218 6.28445 15.5099 5.03512 14.602 4.01439C13.6941 2.99366 12.5246 2.24029 11.2198 1.83561C9.91506 1.43092 8.52453 1.39028 7.19836 1.71809C5.87218 2.0459 4.66072 2.72969 3.69475 3.69566C2.72877 4.66163 2.04498 5.87309 1.71717 7.19927C1.38937 8.52545 1.43 9.91597 1.83469 11.2207C2.23938 12.5255 2.99275 13.695 4.01348 14.6029C5.03421 15.5108 6.28353 16.1227 7.62659 16.3725C7.42508 15.29 7.46441 14.1764 7.74178 13.1108C8.01916 12.0451 8.52777 11.0537 9.23149 10.2068C9.93521 9.35988 10.8168 8.67832 11.8136 8.21051C12.8104 7.74271 13.898 7.50013 14.9991 7.5Z" fill="black"/>
</svg>
