<svg width="24" height="24" viewBox="0 0 24 24" fill="none" xmlns="http://www.w3.org/2000/svg">
<path d="M12.75 9.00001H11.25V4.06032L8.78063 6.53064C8.63989 6.67137 8.44902 6.75043 8.25 6.75043C8.05098 6.75043 7.86011 6.67137 7.71937 6.53064C7.57864 6.3899 7.49958 6.19903 7.49958 6.00001C7.49958 5.80099 7.57864 5.61012 7.71937 5.46939L11.4694 1.71939C11.539 1.64965 11.6217 1.59433 11.7128 1.55659C11.8038 1.51885 11.9014 1.49942 12 1.49942C12.0986 1.49942 12.1962 1.51885 12.2872 1.55659C12.3783 1.59433 12.461 1.64965 12.5306 1.71939L16.2806 5.46939C16.3503 5.53907 16.4056 5.62179 16.4433 5.71284C16.481 5.80388 16.5004 5.90146 16.5004 6.00001C16.5004 6.09856 16.481 6.19614 16.4433 6.28718C16.4056 6.37823 16.3503 6.46095 16.2806 6.53064C16.2109 6.60032 16.1282 6.65559 16.0372 6.69331C15.9461 6.73102 15.8485 6.75043 15.75 6.75043C15.6515 6.75043 15.5539 6.73102 15.4628 6.69331C15.3718 6.65559 15.2891 6.60032 15.2194 6.53064L12.75 4.06032V9.00001ZM18.75 9.00001H12.75V12.75C12.75 12.9489 12.671 13.1397 12.5303 13.2803C12.3897 13.421 12.1989 13.5 12 13.5C11.8011 13.5 11.6103 13.421 11.4697 13.2803C11.329 13.1397 11.25 12.9489 11.25 12.75V9.00001H5.25C4.85218 9.00001 4.47064 9.15805 4.18934 9.43935C3.90804 9.72065 3.75 10.1022 3.75 10.5V19.5C3.75 19.8978 3.90804 20.2794 4.18934 20.5607C4.47064 20.842 4.85218 21 5.25 21H18.75C19.1478 21 19.5294 20.842 19.8107 20.5607C20.092 20.2794 20.25 19.8978 20.25 19.5V10.5C20.25 10.1022 20.092 9.72065 19.8107 9.43935C19.5294 9.15805 19.1478 9.00001 18.75 9.00001Z" fill="black"/>
</svg>
