<svg width="24" height="24" viewBox="0 0 24 24" fill="none" xmlns="http://www.w3.org/2000/svg">
<path d="M21.6505 15.375C21.7499 15.5477 21.7767 15.7528 21.7249 15.9452C21.6732 16.1377 21.5471 16.3016 21.3744 16.4011C21.2889 16.4503 21.1945 16.4823 21.0967 16.495C20.9988 16.5078 20.8994 16.5012 20.8041 16.4756C20.6117 16.4238 20.4477 16.2977 20.3483 16.125L18.567 13.0125C17.5323 13.7124 16.3909 14.2399 15.1873 14.5744L15.7377 17.8762C15.7539 17.9735 15.7508 18.0729 15.7286 18.1689C15.7064 18.2649 15.6654 18.3556 15.6082 18.4358C15.5509 18.516 15.4783 18.5841 15.3947 18.6363C15.3111 18.6884 15.218 18.7235 15.1208 18.7397C15.0808 18.7462 15.0404 18.7497 14.9998 18.75C14.8224 18.7497 14.6508 18.6866 14.5156 18.5717C14.3803 18.4569 14.2901 18.2978 14.2611 18.1228L13.7202 14.8809C12.5794 15.0397 11.4222 15.0397 10.2814 14.8809L9.74047 18.1228C9.71136 18.2982 9.62092 18.4575 9.48527 18.5723C9.34963 18.6872 9.17759 18.7502 8.99984 18.75C8.95838 18.7498 8.91701 18.7464 8.87609 18.7397C8.77887 18.7235 8.68579 18.6884 8.60216 18.6363C8.51853 18.5841 8.446 18.516 8.38871 18.4358C8.33142 18.3556 8.2905 18.2649 8.26828 18.1689C8.24606 18.0729 8.24298 17.9735 8.25922 17.8762L8.81234 14.5744C7.60824 14.2391 6.46653 13.7107 5.43172 13.0097L3.65609 16.125C3.55664 16.2983 3.39241 16.425 3.19954 16.4772C3.00667 16.5294 2.80096 16.5029 2.62765 16.4034C2.45435 16.304 2.32766 16.1398 2.27544 15.9469C2.22322 15.754 2.24976 15.5483 2.34922 15.375L4.22422 12.0938C3.56538 11.525 2.95975 10.8974 2.41484 10.2188C2.30692 10.0853 2.24805 9.91883 2.24805 9.74719C2.24805 9.57554 2.30692 9.4091 2.41484 9.27563C4.17734 7.09875 7.27015 4.5 11.9998 4.5C16.7295 4.5 19.8223 7.09875 21.583 9.28125C21.6909 9.41472 21.7498 9.58117 21.7498 9.75281C21.7498 9.92446 21.6909 10.0909 21.583 10.2244C21.0381 10.903 20.4324 11.5306 19.7736 12.0994L21.6505 15.375Z" fill="black"/>
</svg>
