<svg width="24" height="24" viewBox="0 0 24 24" fill="none" xmlns="http://www.w3.org/2000/svg">
<path d="M21.0002 6.30935C20.9951 5.85798 20.899 5.41228 20.7176 4.99893C20.5362 4.58558 20.2733 4.21308 19.9446 3.90373C18.6321 2.65873 16.5021 2.7056 15.1989 4.00966L13.0127 6.20623C12.5849 5.81636 12.0234 5.60632 11.4448 5.61977C10.8662 5.63321 10.315 5.8691 9.90582 6.27841L9.43707 6.74716C9.2976 6.88647 9.18696 7.05191 9.11148 7.234C9.03599 7.4161 8.99714 7.61129 8.99714 7.80841C8.99714 8.00554 9.03599 8.20073 9.11148 8.38282C9.18696 8.56492 9.2976 8.73035 9.43707 8.86966L9.62457 9.06279L4.84332 13.844C4.3831 14.3007 4.04997 14.8695 3.87684 15.4943C3.70371 16.119 3.69657 16.7782 3.85613 17.4065L3.10613 19.1325C3.00153 19.3696 2.97125 19.6329 3.01928 19.8877C3.06731 20.1424 3.1914 20.3766 3.37519 20.5594C3.58778 20.7733 3.86023 20.9179 4.15662 20.974C4.45301 21.03 4.75944 20.995 5.0355 20.8734L6.678 20.1562C7.29509 20.2959 7.93752 20.2766 8.54516 20.1004C9.1528 19.9241 9.70579 19.5966 10.1524 19.1484L14.9336 14.3672L15.1268 14.5603C15.408 14.8414 15.7894 14.9993 16.1871 14.9993C16.5847 14.9993 16.9661 14.8414 17.2474 14.5603L17.7161 14.0915C18.1261 13.6818 18.3622 13.1297 18.3751 12.5502C18.3881 11.9706 18.1768 11.4085 17.7855 10.9809L20.0121 8.7431C20.3322 8.42488 20.5847 8.04527 20.7545 7.62706C20.9243 7.20885 21.0079 6.76065 21.0002 6.30935ZM9.09394 18.0937C8.80532 18.3829 8.4434 18.5881 8.047 18.6872C7.65061 18.7863 7.23471 18.7756 6.84394 18.6562C6.67261 18.6034 6.48802 18.6137 6.32363 18.6853L4.62675 19.4269L5.34394 17.7572C5.41836 17.5866 5.42671 17.3945 5.36738 17.2181C5.23147 16.821 5.20994 16.3936 5.30526 15.9848C5.40057 15.576 5.60889 15.2023 5.90644 14.9062L10.6877 10.125L13.8696 13.3125L9.09394 18.0937Z" fill="black"/>
</svg>
