<svg width="24" height="24" viewBox="0 0 24 24" fill="none" xmlns="http://www.w3.org/2000/svg">
<path d="M21.0004 6.30935C20.9954 5.85798 20.8992 5.41228 20.7179 4.99893C20.5365 4.58558 20.2735 4.21308 19.9448 3.90373C18.6323 2.65873 16.5023 2.7056 15.1992 4.00966L13.0129 6.20623C12.5852 5.81636 12.0237 5.60632 11.445 5.61977C10.8664 5.63321 10.3153 5.8691 9.90607 6.27841L9.43732 6.74716C9.29786 6.88647 9.18722 7.05191 9.11173 7.234C9.03624 7.4161 8.99739 7.61129 8.99739 7.80841C8.99739 8.00554 9.03624 8.20073 9.11173 8.38283C9.18722 8.56492 9.29786 8.73036 9.43732 8.86966L9.62482 9.06279L4.84357 13.844C4.38335 14.3007 4.05022 14.8695 3.87709 15.4943C3.70396 16.119 3.69683 16.7782 3.85638 17.4065L3.10638 19.1325C3.0016 19.3695 2.97122 19.6327 3.01926 19.8873C3.06731 20.1419 3.19151 20.3759 3.37545 20.5584C3.58779 20.7728 3.86019 20.9177 4.15665 20.9739C4.4531 21.0302 4.75965 20.9951 5.03576 20.8734L6.67919 20.1562C7.29615 20.2956 7.93836 20.2763 8.54581 20.1C9.15326 19.9238 9.70609 19.5964 10.1526 19.1484L14.9339 14.3672L15.127 14.5603C15.4083 14.8414 15.7897 14.9993 16.1873 14.9993C16.585 14.9993 16.9664 14.8414 17.2476 14.5603L17.7164 14.0915C18.1264 13.6818 18.3625 13.1297 18.3754 12.5502C18.3883 11.9706 18.1771 11.4085 17.7858 10.9809L20.0123 8.7431C20.3324 8.42488 20.5849 8.04527 20.7547 7.62706C20.9245 7.20885 21.0081 6.76065 21.0004 6.30935ZM12.9379 14.25H6.56951L10.6945 10.125L13.8764 13.3125L12.9379 14.25Z" fill="black"/>
</svg>
