<svg width="24" height="24" viewBox="0 0 24 24" fill="none" xmlns="http://www.w3.org/2000/svg">
<path d="M21 6.75H20.9203C20.8494 6.53547 20.731 6.33974 20.5738 6.1774C20.4167 6.01507 20.2249 5.89033 20.0128 5.8125L12.5128 3.09375C12.1815 2.97372 11.8185 2.97372 11.4872 3.09375L3.98719 5.82093C3.77508 5.89877 3.5833 6.02351 3.42616 6.18584C3.26902 6.34818 3.15058 6.54391 3.07969 6.75843H3C2.20581 6.75843 1.44402 7.07334 0.881657 7.63413C0.31929 8.19491 0.00223366 8.95581 0 9.75L0 12C0 12.7956 0.316071 13.5587 0.87868 14.1213C1.44129 14.6839 2.20435 15 3 15H3.48094C4.09406 16.3537 5.28656 17.5425 7.01531 18.5025C8.98406 19.5975 11.0953 20.0962 11.6953 20.2181C11.8962 20.2606 12.1038 20.2606 12.3047 20.2181C12.9047 20.0925 15.0141 19.5975 16.9847 18.5025C18.7134 17.5425 19.9059 16.3537 20.5191 15H21C21.7956 15 22.5587 14.6839 23.1213 14.1213C23.6839 13.5587 24 12.7956 24 12V9.75C24 8.95435 23.6839 8.19128 23.1213 7.62868C22.5587 7.06607 21.7956 6.75 21 6.75ZM3 13.5C2.60218 13.5 2.22064 13.342 1.93934 13.0607C1.65804 12.7794 1.5 12.3978 1.5 12V9.75C1.5 9.35217 1.65804 8.97064 1.93934 8.68934C2.22064 8.40803 2.60218 8.25 3 8.25V12.7641C3.00043 13.0102 3.01703 13.256 3.04969 13.5H3ZM15.75 13.5H8.25C8.05109 13.5 7.86032 13.421 7.71967 13.2803C7.57902 13.1397 7.5 12.9489 7.5 12.75C7.5 12.5511 7.57902 12.3603 7.71967 12.2197C7.86032 12.079 8.05109 12 8.25 12H15.75C15.9489 12 16.1397 12.079 16.2803 12.2197C16.421 12.3603 16.5 12.5511 16.5 12.75C16.5 12.9489 16.421 13.1397 16.2803 13.2803C16.1397 13.421 15.9489 13.5 15.75 13.5ZM15.75 10.5H8.25C8.05109 10.5 7.86032 10.421 7.71967 10.2803C7.57902 10.1397 7.5 9.94891 7.5 9.75C7.5 9.55108 7.57902 9.36032 7.71967 9.21967C7.86032 9.07901 8.05109 9 8.25 9H15.75C15.9489 9 16.1397 9.07901 16.2803 9.21967C16.421 9.36032 16.5 9.55108 16.5 9.75C16.5 9.94891 16.421 10.1397 16.2803 10.2803C16.1397 10.421 15.9489 10.5 15.75 10.5ZM22.5 12C22.5 12.3978 22.342 12.7794 22.0607 13.0607C21.7794 13.342 21.3978 13.5 21 13.5H20.9503C20.983 13.256 20.9996 13.0102 21 12.7641V8.25C21.3978 8.25 21.7794 8.40803 22.0607 8.68934C22.342 8.97064 22.5 9.35217 22.5 9.75V12Z" fill="black"/>
</svg>
