<svg width="24" height="24" viewBox="0 0 24 24" fill="none" xmlns="http://www.w3.org/2000/svg">
<path d="M21.8437 12.6562C21.6166 11.8079 21.1939 11.0245 20.6097 10.3688C20.0254 9.71307 19.2957 9.20328 18.4791 8.88024C17.6624 8.5572 16.7814 8.42987 15.9067 8.50846C15.032 8.58704 14.1878 8.86936 13.4418 9.33279L14.9784 3.19779C15.0165 3.04537 15.0058 2.88482 14.9477 2.73881C14.8897 2.5928 14.7873 2.46871 14.6549 2.38404C14.017 1.98125 13.3046 1.71089 12.5601 1.58904C11.8156 1.4672 11.0542 1.49637 10.3212 1.67481C9.58819 1.85325 8.89857 2.17731 8.29336 2.62772C7.68816 3.07813 7.17974 3.64568 6.79836 4.2966C6.41698 4.94751 6.17043 5.6685 6.07339 6.41664C5.97635 7.16479 6.0308 7.92482 6.23349 8.65149C6.43618 9.37817 6.78298 10.0566 7.25325 10.6466C7.72351 11.2365 8.30764 11.7257 8.97087 12.0853L2.8893 13.8225C2.73822 13.8655 2.60445 13.9549 2.50689 14.078C2.40933 14.2012 2.3529 14.3518 2.34555 14.5087C2.28783 15.7893 2.66921 17.0511 3.42654 18.0853C4.18386 19.1195 5.27171 19.8641 6.50993 20.1956C6.98751 20.3238 7.47981 20.3891 7.9743 20.3897C8.72782 20.3877 9.47328 20.2345 10.1665 19.9392C10.8598 19.6438 11.4867 19.2124 12.0102 18.6704C12.5336 18.1284 12.943 17.4868 13.2141 16.7837C13.4851 16.0806 13.6123 15.3303 13.5881 14.5772L18.1331 18.9759C18.2461 19.0853 18.3906 19.1563 18.5462 19.179C18.7019 19.2017 18.8607 19.175 19.0002 19.1025C20.1374 18.5124 21.0392 17.5519 21.5562 16.3797C22.0733 15.2075 22.1747 13.8939 21.8437 12.6562ZM12.2287 13.8609C11.8606 13.9062 11.4874 13.8413 11.1562 13.6744C10.825 13.5075 10.5507 13.2462 10.3681 12.9235C10.1854 12.6007 10.1026 12.2311 10.13 11.8612C10.1574 11.4914 10.2939 11.138 10.5222 10.8458C10.7505 10.5535 11.0603 10.3355 11.4125 10.2193C11.7646 10.1031 12.1434 10.094 12.5007 10.1931C12.8581 10.2921 13.1781 10.4949 13.4202 10.7758C13.6623 11.0568 13.8156 11.4032 13.8609 11.7712C13.9215 12.2648 13.7836 12.7622 13.4775 13.1541C13.1714 13.546 12.7222 13.8002 12.2287 13.8609Z" fill="black"/>
</svg>
