<svg width="24" height="24" viewBox="0 0 24 24" fill="none" xmlns="http://www.w3.org/2000/svg">
<path d="M12 2.25C10.0716 2.25 8.18657 2.82183 6.58319 3.89317C4.97982 4.96451 3.73013 6.48726 2.99218 8.26884C2.25422 10.0504 2.06114 12.0108 2.43735 13.9021C2.81355 15.7934 3.74215 17.5307 5.10571 18.8943C6.46928 20.2579 8.20656 21.1865 10.0979 21.5627C11.9892 21.9389 13.9496 21.7458 15.7312 21.0078C17.5127 20.2699 19.0355 19.0202 20.1068 17.4168C21.1782 15.8134 21.75 13.9284 21.75 12C21.7473 9.41498 20.7192 6.93661 18.8913 5.10872C17.0634 3.28084 14.585 2.25273 12 2.25ZM17.6803 12.6141L13.9303 15.2391C13.8179 15.3178 13.6861 15.3642 13.5492 15.3732C13.4123 15.3822 13.2756 15.3535 13.1539 15.2901C13.0321 15.2268 12.9301 15.1313 12.8589 15.014C12.7877 14.8968 12.75 14.7622 12.75 14.625V12C12.75 12.1205 12.7209 12.2392 12.6653 12.3461C12.6096 12.453 12.529 12.5449 12.4303 12.6141L8.68032 15.2391C8.56794 15.3178 8.43613 15.3642 8.29923 15.3732C8.16232 15.3822 8.02557 15.3535 7.90386 15.2901C7.78214 15.2268 7.68013 15.1313 7.60892 15.014C7.53772 14.8968 7.50004 14.7622 7.5 14.625V9.375C7.50004 9.2378 7.53772 9.10324 7.60892 8.98596C7.68013 8.86869 7.78214 8.77319 7.90386 8.70987C8.02557 8.64654 8.16232 8.61782 8.29923 8.62683C8.43613 8.63583 8.56794 8.68222 8.68032 8.76094L12.4303 11.3859C12.529 11.4551 12.6096 11.547 12.6653 11.6539C12.7209 11.7608 12.75 11.8795 12.75 12V9.375C12.75 9.2378 12.7877 9.10324 12.8589 8.98596C12.9301 8.86869 13.0321 8.77319 13.1539 8.70987C13.2756 8.64654 13.4123 8.61782 13.5492 8.62683C13.6861 8.63583 13.8179 8.68222 13.9303 8.76094L17.6803 11.3859C17.779 11.4551 17.8595 11.547 17.9151 11.6539C17.9707 11.7608 17.9997 11.8795 17.9997 12C17.9997 12.1205 17.9707 12.2392 17.9151 12.3461C17.8595 12.453 17.779 12.5449 17.6803 12.6141Z" fill="black"/>
</svg>
