<svg width="24" height="24" viewBox="0 0 24 24" fill="none" xmlns="http://www.w3.org/2000/svg">
<path d="M23.25 12C23.2504 12.2495 23.1876 12.4951 23.0674 12.7138C22.9472 12.9325 22.7736 13.1171 22.5628 13.2506L14.295 18.5156C14.07 18.6595 13.8105 18.7403 13.5437 18.7496C13.2768 18.7589 13.0123 18.6964 12.7778 18.5687C12.5434 18.4409 12.3475 18.2525 12.2107 18.0232C12.0738 17.7939 12.0011 17.532 12 17.265V13.7681L4.545 18.5156C4.32002 18.6595 4.06054 18.7403 3.79367 18.7496C3.5268 18.7589 3.26232 18.6964 3.02784 18.5687C2.79336 18.4409 2.59748 18.2525 2.46066 18.0232C2.32383 17.7939 2.25108 17.532 2.25 17.265V6.735C2.25108 6.46796 2.32383 6.20612 2.46066 5.9768C2.59748 5.74748 2.79336 5.5591 3.02784 5.43132C3.26232 5.30355 3.5268 5.24106 3.79367 5.25039C4.06054 5.25972 4.32002 5.34053 4.545 5.48437L12 10.2319V6.735C12.0011 6.46796 12.0738 6.20612 12.2107 5.9768C12.3475 5.74748 12.5434 5.5591 12.7778 5.43132C13.0123 5.30355 13.2768 5.24106 13.5437 5.25039C13.8105 5.25972 14.07 5.34053 14.295 5.48437L22.5628 10.7494C22.7736 10.8828 22.9472 11.0675 23.0674 11.2862C23.1876 11.5049 23.2504 11.7505 23.25 12Z" fill="black"/>
</svg>
