<svg width="24" height="24" viewBox="0 0 24 24" fill="none" xmlns="http://www.w3.org/2000/svg">
<path d="M19.8604 12.6384L14.2551 18.3075C14.1178 18.4464 13.9543 18.5568 13.7741 18.6321C13.5938 18.7074 13.4004 18.7462 13.2051 18.7462H7.06167L4.28104 21.5306C4.21136 21.6003 4.12863 21.6556 4.03759 21.6933C3.94654 21.731 3.84896 21.7504 3.75042 21.7504C3.65187 21.7504 3.55429 21.731 3.46324 21.6933C3.3722 21.6556 3.28947 21.6003 3.21979 21.5306C3.15011 21.4609 3.09483 21.3782 3.05712 21.2872C3.01941 21.1961 3 21.0985 3 21C3 20.9015 3.01941 20.8039 3.05712 20.7128C3.09483 20.6218 3.15011 20.5391 3.21979 20.4694L5.3376 18.3525L11.691 12H19.5942C19.6681 12.0001 19.7403 12.0221 19.8018 12.0631C19.8632 12.1042 19.9112 12.1624 19.9396 12.2307C19.9681 12.2989 19.9757 12.374 19.9617 12.4465C19.9476 12.5191 19.9123 12.5858 19.8604 12.6384ZM20.316 2.86594C19.1653 1.9189 17.7032 1.43406 16.2146 1.5058C14.7259 1.57755 13.3173 2.20075 12.2629 3.25406L11.3629 4.14281C11.292 4.21228 11.2516 4.30701 11.2504 4.40625V10.3125L16.4067 5.15625C16.5485 5.02153 16.7373 4.94754 16.9328 4.95004C17.1284 4.95255 17.3153 5.03135 17.4536 5.16965C17.5919 5.30795 17.6707 5.49481 17.6732 5.69038C17.6757 5.88595 17.6017 6.07476 17.467 6.21656L13.192 10.5H21.4776C21.5465 10.5001 21.614 10.4813 21.6729 10.4456C21.7318 10.4099 21.7797 10.3586 21.8114 10.2975C22.454 9.07557 22.6562 7.66958 22.3838 6.31609C22.1115 4.9626 21.3813 3.74422 20.316 2.86594ZM5.89073 15.6778L9.75042 11.8181V6.63375C9.75029 6.55984 9.72833 6.48762 9.68729 6.42615C9.64626 6.36469 9.58797 6.31672 9.51976 6.28827C9.45154 6.25982 9.37645 6.25217 9.3039 6.26626C9.23135 6.28036 9.16458 6.31558 9.11198 6.3675L5.6901 9.75C5.55038 9.88891 5.43958 10.0541 5.36411 10.2361C5.28864 10.4181 5.24999 10.6133 5.25042 10.8103V15.4125C5.25036 15.4867 5.27232 15.5593 5.31352 15.621C5.35472 15.6827 5.41331 15.7308 5.48187 15.7592C5.55043 15.7876 5.62588 15.7951 5.69866 15.7806C5.77144 15.7661 5.83828 15.7303 5.89073 15.6778Z" fill="black"/>
</svg>
