<svg width="24" height="24" viewBox="0 0 24 24" fill="none" xmlns="http://www.w3.org/2000/svg">
<path d="M4.49991 11.25H19.4999C19.6988 11.25 19.8896 11.171 20.0302 11.0303C20.1709 10.8897 20.2499 10.6989 20.2499 10.5V8.25C20.25 8.15148 20.2307 8.05391 20.193 7.96286C20.1554 7.87182 20.1002 7.78908 20.0305 7.71938L14.7805 2.46938C14.7108 2.39975 14.6281 2.34454 14.537 2.3069C14.446 2.26926 14.3484 2.24992 14.2499 2.25H5.24991C4.85208 2.25 4.47055 2.40804 4.18925 2.68934C3.90794 2.97064 3.74991 3.35218 3.74991 3.75V10.5C3.74991 10.6989 3.82892 10.8897 3.96958 11.0303C4.11023 11.171 4.30099 11.25 4.49991 11.25ZM14.2499 4.125L18.3749 8.25H14.2499V4.125ZM14.6249 19.5C14.6249 19.6989 14.5459 19.8897 14.4052 20.0303C14.2646 20.171 14.0738 20.25 13.8749 20.25H11.2499C11.051 20.25 10.8602 20.171 10.7196 20.0303C10.5789 19.8897 10.4999 19.6989 10.4999 19.5V14.25C10.4999 14.0511 10.5789 13.8603 10.7196 13.7197C10.8602 13.579 11.051 13.5 11.2499 13.5C11.4488 13.5 11.6396 13.579 11.7802 13.7197C11.9209 13.8603 11.9999 14.0511 11.9999 14.25V18.75H13.8749C14.0738 18.75 14.2646 18.829 14.4052 18.9697C14.5459 19.1103 14.6249 19.3011 14.6249 19.5ZM8.86022 14.6859L7.29647 16.875L8.86022 19.0641C8.96546 19.226 9.00418 19.4223 8.96833 19.612C8.93247 19.8018 8.8248 19.9704 8.66774 20.0828C8.51068 20.1951 8.31632 20.2426 8.12515 20.2152C7.93398 20.1879 7.76073 20.0878 7.64147 19.9359L6.37491 18.165L5.11022 19.9359C5.05501 20.0209 4.98316 20.0938 4.89902 20.1502C4.81487 20.2066 4.72016 20.2454 4.62061 20.2642C4.52107 20.283 4.41874 20.2814 4.31981 20.2596C4.22088 20.2378 4.12739 20.1962 4.04499 20.1372C3.9626 20.0783 3.893 20.0032 3.84039 19.9167C3.78779 19.8301 3.75327 19.7337 3.73893 19.6334C3.72458 19.5332 3.7307 19.431 3.75692 19.3331C3.78313 19.2353 3.8289 19.1437 3.89147 19.0641L5.45334 16.875L3.88959 14.6859C3.82703 14.6063 3.78126 14.5147 3.75504 14.4169C3.72882 14.319 3.7227 14.2168 3.73705 14.1166C3.7514 14.0163 3.78592 13.9199 3.83852 13.8333C3.89112 13.7468 3.96072 13.6717 4.04312 13.6128C4.12552 13.5538 4.219 13.5122 4.31793 13.4904C4.41686 13.4686 4.51919 13.467 4.61874 13.4858C4.71829 13.5046 4.81299 13.5434 4.89714 13.5998C4.98129 13.6562 5.05314 13.7291 5.10834 13.8141L6.37491 15.585L7.63959 13.8141C7.75885 13.6622 7.93211 13.5621 8.12328 13.5348C8.31445 13.5074 8.5088 13.5549 8.66586 13.6672C8.82293 13.7796 8.9306 13.9482 8.96645 14.138C9.00231 14.3277 8.96358 14.524 8.85834 14.6859H8.86022ZM20.2302 18.4041C20.2012 18.6909 20.1089 18.9676 19.9601 19.2145C19.8113 19.4614 19.6096 19.6722 19.3696 19.8319C18.883 20.1562 18.2755 20.25 17.7299 20.25C17.2492 20.248 16.7707 20.185 16.3058 20.0625C16.1143 20.0089 15.9518 19.8814 15.8542 19.7081C15.7567 19.5347 15.732 19.3297 15.7855 19.1381C15.8391 18.9465 15.9666 18.7841 16.14 18.6865C16.3133 18.5889 16.5183 18.5642 16.7099 18.6178C17.1205 18.7312 18.1105 18.8719 18.5418 18.585C18.6252 18.5288 18.7143 18.4425 18.7433 18.2166C18.7752 17.9662 18.6758 17.8322 17.5452 17.505C16.6687 17.2519 15.2015 16.8272 15.389 15.3375C15.4179 15.0569 15.5081 14.7861 15.653 14.5441C15.798 14.3021 15.9943 14.0948 16.228 13.9369C17.338 13.1869 19.108 13.6266 19.3058 13.6781C19.4983 13.7287 19.6628 13.8537 19.7631 14.0256C19.8634 14.1974 19.8913 14.4021 19.8407 14.5945C19.7901 14.787 19.6651 14.9514 19.4933 15.0517C19.3214 15.1521 19.1167 15.18 18.9243 15.1294C18.5043 15.0197 17.4974 14.8894 17.0662 15.1819C17.0096 15.22 16.9631 15.2712 16.9305 15.331C16.8978 15.3909 16.8801 15.4578 16.8787 15.5259C16.8683 15.6103 16.8665 15.6272 16.9837 15.7041C17.2002 15.8437 17.5883 15.9553 17.9633 16.0641C18.8887 16.3284 20.4374 16.7812 20.2302 18.4041Z" fill="black"/>
</svg>
