<svg width="24" height="24" viewBox="0 0 24 24" fill="none" xmlns="http://www.w3.org/2000/svg">
<path d="M20.25 10.5V8.25C20.2501 8.15148 20.2307 8.05391 20.1931 7.96286C20.1555 7.87182 20.1003 7.78908 20.0306 7.71938L14.7806 2.46938C14.7109 2.39975 14.6282 2.34454 14.5371 2.3069C14.4461 2.26926 14.3485 2.24992 14.25 2.25H5.25C4.85218 2.25 4.47064 2.40804 4.18934 2.68934C3.90804 2.97064 3.75 3.35218 3.75 3.75V10.5C3.75 10.6989 3.82902 10.8897 3.96967 11.0303C4.11032 11.171 4.30109 11.25 4.5 11.25H19.5C19.6989 11.25 19.8897 11.171 20.0303 11.0303C20.171 10.8897 20.25 10.6989 20.25 10.5ZM14.25 8.25V4.125L18.375 8.25H14.25ZM12 14.25C12 14.4489 11.921 14.6397 11.7803 14.7803C11.6397 14.921 11.4489 15 11.25 15H10.5V19.5C10.5 19.6989 10.421 19.8897 10.2803 20.0303C10.1397 20.171 9.94891 20.25 9.75 20.25C9.55109 20.25 9.36032 20.171 9.21967 20.0303C9.07902 19.8897 9 19.6989 9 19.5V15H8.25C8.05109 15 7.86032 14.921 7.71967 14.7803C7.57902 14.6397 7.5 14.4489 7.5 14.25C7.5 14.0511 7.57902 13.8603 7.71967 13.7197C7.86032 13.579 8.05109 13.5 8.25 13.5H11.25C11.4489 13.5 11.6397 13.579 11.7803 13.7197C11.921 13.8603 12 14.0511 12 14.25ZM6.75 14.25V19.5C6.75 19.6989 6.67098 19.8897 6.53033 20.0303C6.38968 20.171 6.19891 20.25 6 20.25C5.80109 20.25 5.61032 20.171 5.46967 20.0303C5.32902 19.8897 5.25 19.6989 5.25 19.5V17.625H3.75V19.5C3.75 19.6989 3.67098 19.8897 3.53033 20.0303C3.38968 20.171 3.19891 20.25 3 20.25C2.80109 20.25 2.61032 20.171 2.46967 20.0303C2.32902 19.8897 2.25 19.6989 2.25 19.5V14.25C2.25 14.0511 2.32902 13.8603 2.46967 13.7197C2.61032 13.579 2.80109 13.5 3 13.5C3.19891 13.5 3.38968 13.579 3.53033 13.7197C3.67098 13.8603 3.75 14.0511 3.75 14.25V16.125H5.25V14.25C5.25 14.0511 5.32902 13.8603 5.46967 13.7197C5.61032 13.579 5.80109 13.5 6 13.5C6.19891 13.5 6.38968 13.579 6.53033 13.7197C6.67098 13.8603 6.75 14.0511 6.75 14.25ZM23.25 19.5C23.25 19.6989 23.171 19.8897 23.0303 20.0303C22.8897 20.171 22.6989 20.25 22.5 20.25H20.625C20.4261 20.25 20.2353 20.171 20.0947 20.0303C19.954 19.8897 19.875 19.6989 19.875 19.5V14.25C19.875 14.0511 19.954 13.8603 20.0947 13.7197C20.2353 13.579 20.4261 13.5 20.625 13.5C20.8239 13.5 21.0147 13.579 21.1553 13.7197C21.296 13.8603 21.375 14.0511 21.375 14.25V18.75H22.5C22.6989 18.75 22.8897 18.829 23.0303 18.9697C23.171 19.1103 23.25 19.3011 23.25 19.5ZM18.75 14.25V19.5C18.75 19.6989 18.671 19.8897 18.5303 20.0303C18.3897 20.171 18.1989 20.25 18 20.25C17.8011 20.25 17.6103 20.171 17.4697 20.0303C17.329 19.8897 17.25 19.6989 17.25 19.5V16.9575L16.3931 18.3862C16.3265 18.4973 16.2322 18.5892 16.1195 18.653C16.0068 18.7168 15.8795 18.7504 15.75 18.7504C15.6205 18.7504 15.4932 18.7168 15.3805 18.653C15.2678 18.5892 15.1735 18.4973 15.1069 18.3862L14.25 16.9575V19.5C14.25 19.6989 14.171 19.8897 14.0303 20.0303C13.8897 20.171 13.6989 20.25 13.5 20.25C13.3011 20.25 13.1103 20.171 12.9697 20.0303C12.829 19.8897 12.75 19.6989 12.75 19.5V14.25C12.7499 14.0859 12.8036 13.9264 12.9029 13.7958C13.0022 13.6652 13.1415 13.5707 13.2996 13.5269C13.4577 13.483 13.6258 13.4923 13.7782 13.5531C13.9305 13.614 14.0587 13.7231 14.1431 13.8638L15.75 16.5422L17.3569 13.8638C17.4413 13.7231 17.5695 13.614 17.7218 13.5531C17.8742 13.4923 18.0423 13.483 18.2004 13.5269C18.3585 13.5707 18.4978 13.6652 18.5971 13.7958C18.6964 13.9264 18.7501 14.0859 18.75 14.25Z" fill="black"/>
</svg>
