<svg width="24" height="24" viewBox="0 0 24 24" fill="none" xmlns="http://www.w3.org/2000/svg">
<path d="M20.0297 7.71937L14.7797 2.46937C14.6391 2.32899 14.4486 2.25009 14.25 2.25H5.25C4.85218 2.25 4.47064 2.40804 4.18934 2.68934C3.90804 2.97064 3.75 3.35218 3.75 3.75V10.5C3.75 10.6989 3.82902 10.8897 3.96967 11.0303C4.11032 11.171 4.30109 11.25 4.5 11.25H19.5C19.6989 11.25 19.8897 11.171 20.0303 11.0303C20.171 10.8897 20.25 10.6989 20.25 10.5V8.25C20.25 8.15141 20.2305 8.0538 20.1927 7.96275C20.1549 7.8717 20.0995 7.789 20.0297 7.71937ZM14.25 8.25V4.125L18.375 8.25H14.25ZM4.5 16.875C4.5 17.9062 5.17313 18.75 6 18.75C6.18098 18.7459 6.35925 18.7051 6.52396 18.63C6.68867 18.5549 6.83638 18.4471 6.95813 18.3131C7.0963 18.1724 7.28436 18.0917 7.48157 18.0887C7.67878 18.0856 7.86926 18.1603 8.01178 18.2966C8.15429 18.433 8.23736 18.62 8.24299 18.8171C8.24862 19.0143 8.17637 19.2057 8.04187 19.35C7.78073 19.6311 7.46492 19.8559 7.11381 20.0107C6.7627 20.1655 6.38369 20.2469 6 20.25C4.34625 20.25 3 18.7359 3 16.875C3 15.0141 4.34625 13.5 6 13.5C6.38369 13.5031 6.7627 13.5845 7.11381 13.7393C7.46492 13.8941 7.78073 14.1189 8.04187 14.4C8.17637 14.5443 8.24862 14.7357 8.24299 14.9329C8.23736 15.13 8.15429 15.317 8.01178 15.4533C7.86926 15.5897 7.67878 15.6644 7.48157 15.6613C7.28436 15.6583 7.0963 15.5776 6.95813 15.4369C6.83663 15.3026 6.68896 15.1946 6.5242 15.1194C6.35943 15.0443 6.18105 15.0037 6 15C5.17313 15 4.5 15.8437 4.5 16.875ZM14.2322 18.4041C14.203 18.6909 14.1105 18.9677 13.9616 19.2146C13.8126 19.4615 13.6108 19.6723 13.3706 19.8319C12.8841 20.1562 12.2812 20.25 11.7309 20.25C11.2503 20.2473 10.7719 20.1843 10.3069 20.0625C10.1153 20.0089 9.95285 19.8814 9.85527 19.7081C9.7577 19.5347 9.73298 19.3297 9.78656 19.1381C9.84014 18.9465 9.96764 18.7841 10.141 18.6865C10.3143 18.5889 10.5194 18.5642 10.7109 18.6178C11.1216 18.7303 12.1125 18.8709 12.5438 18.5841C12.6263 18.5287 12.7153 18.4416 12.7444 18.2156C12.7762 17.9653 12.6769 17.8312 11.5463 17.5041C10.6697 17.2509 9.2025 16.8262 9.39 15.3375C9.41937 15.0563 9.51017 14.7851 9.65597 14.5429C9.80178 14.3007 9.99902 14.0935 10.2338 13.9359C11.3447 13.1859 13.1138 13.6256 13.3125 13.6772C13.5049 13.7278 13.6694 13.8528 13.7697 14.0246C13.87 14.1965 13.8979 14.4011 13.8473 14.5936C13.7967 14.786 13.6718 14.9505 13.4999 15.0508C13.3281 15.1511 13.1234 15.179 12.9309 15.1284C12.51 15.0187 11.5031 14.8884 11.0719 15.1809C11.0155 15.2192 10.9691 15.2704 10.9365 15.3303C10.9039 15.3901 10.886 15.4569 10.8844 15.525C10.8741 15.6094 10.8722 15.6272 10.9894 15.7031C11.2059 15.8428 11.5941 15.9544 11.9691 16.0631C12.8897 16.3284 14.4375 16.7812 14.2322 18.4041ZM20.2059 14.5022L18.3309 19.7522C18.279 19.8979 18.1832 20.024 18.0567 20.1132C17.9302 20.2024 17.7793 20.2502 17.6245 20.2502C17.4698 20.2502 17.3188 20.2024 17.1924 20.1132C17.0659 20.024 16.9701 19.8979 16.9181 19.7522L15.0431 14.5022C14.9762 14.3148 14.9865 14.1086 15.0717 13.9288C15.1569 13.749 15.31 13.6105 15.4973 13.5436C15.6847 13.4767 15.8909 13.487 16.0707 13.5722C16.2505 13.6574 16.3891 13.8105 16.4559 13.9978L17.625 17.2697L18.7931 13.9978C18.86 13.8105 18.9986 13.6574 19.1783 13.5722C19.3581 13.487 19.5644 13.4767 19.7517 13.5436C19.9391 13.6105 20.0922 13.749 20.1774 13.9288C20.2625 14.1086 20.2728 14.3148 20.2059 14.5022Z" fill="black"/>
</svg>
