<svg width="24" height="24" viewBox="0 0 24 24" fill="none" xmlns="http://www.w3.org/2000/svg">
<path d="M20.0302 7.71937L14.7802 2.46938C14.7105 2.39975 14.6278 2.34454 14.5367 2.3069C14.4457 2.26926 14.3481 2.24992 14.2496 2.25H5.2496C4.85178 2.25 4.47025 2.40804 4.18894 2.68934C3.90764 2.97064 3.7496 3.35218 3.7496 3.75V10.5C3.7496 10.6989 3.82862 10.8897 3.96927 11.0303C4.10993 11.171 4.30069 11.25 4.4996 11.25H19.4996C19.6985 11.25 19.8893 11.171 20.0299 11.0303C20.1706 10.8897 20.2496 10.6989 20.2496 10.5V8.25C20.2497 8.15148 20.2303 8.05391 20.1927 7.96286C20.1551 7.87182 20.0999 7.78908 20.0302 7.71937ZM14.2496 8.25V4.125L18.3746 8.25H14.2496ZM8.20648 14.5022L6.33148 19.7522C6.27949 19.8979 6.1837 20.024 6.05723 20.1132C5.93076 20.2024 5.77981 20.2502 5.62507 20.2502C5.47033 20.2502 5.31938 20.2024 5.19291 20.1132C5.06645 20.024 4.97065 19.8979 4.91867 19.7522L3.04367 14.5022C3.01055 14.4094 2.99603 14.311 3.00093 14.2127C3.00583 14.1143 3.03007 14.0178 3.07224 13.9288C3.11442 13.8398 3.17372 13.76 3.24675 13.6939C3.31978 13.6278 3.40512 13.5767 3.49788 13.5436C3.59065 13.5105 3.68903 13.496 3.78741 13.5009C3.88579 13.5058 3.98224 13.53 4.07125 13.5722C4.16027 13.6143 4.2401 13.6736 4.3062 13.7467C4.3723 13.8197 4.42336 13.905 4.45648 13.9978L5.6246 17.2697L6.79367 13.9978C6.86055 13.8105 6.99912 13.6574 7.17889 13.5722C7.35866 13.487 7.56491 13.4767 7.75226 13.5436C7.93961 13.6105 8.09272 13.749 8.1779 13.9288C8.26308 14.1086 8.27336 14.3148 8.20648 14.5022ZM17.2496 15V16.125H18.7496C18.9485 16.125 19.1393 16.204 19.2799 16.3447C19.4206 16.4853 19.4996 16.6761 19.4996 16.875C19.4996 17.0739 19.4206 17.2647 19.2799 17.4053C19.1393 17.546 18.9485 17.625 18.7496 17.625H17.2496V18.75H19.4996C19.6985 18.75 19.8893 18.829 20.0299 18.9697C20.1706 19.1103 20.2496 19.3011 20.2496 19.5C20.2496 19.6989 20.1706 19.8897 20.0299 20.0303C19.8893 20.171 19.6985 20.25 19.4996 20.25H16.4996C16.3007 20.25 16.1099 20.171 15.9693 20.0303C15.8286 19.8897 15.7496 19.6989 15.7496 19.5V14.25C15.7496 14.0511 15.8286 13.8603 15.9693 13.7197C16.1099 13.579 16.3007 13.5 16.4996 13.5H19.4996C19.6985 13.5 19.8893 13.579 20.0299 13.7197C20.1706 13.8603 20.2496 14.0511 20.2496 14.25C20.2496 14.4489 20.1706 14.6397 20.0299 14.7803C19.8893 14.921 19.6985 15 19.4996 15H17.2496ZM14.2496 14.25V17.8125C14.2496 18.459 13.9928 19.079 13.5357 19.5361C13.0786 19.9932 12.4586 20.25 11.8121 20.25C11.1656 20.25 10.5457 19.9932 10.0885 19.5361C9.63141 19.079 9.3746 18.459 9.3746 17.8125V14.25C9.3746 14.0511 9.45362 13.8603 9.59427 13.7197C9.73493 13.579 9.92569 13.5 10.1246 13.5C10.3235 13.5 10.5143 13.579 10.6549 13.7197C10.7956 13.8603 10.8746 14.0511 10.8746 14.25V17.8125C10.8746 18.0611 10.9734 18.2996 11.1492 18.4754C11.325 18.6512 11.5635 18.75 11.8121 18.75C12.0607 18.75 12.2992 18.6512 12.475 18.4754C12.6508 18.2996 12.7496 18.0611 12.7496 17.8125V14.25C12.7496 14.0511 12.8286 13.8603 12.9693 13.7197C13.1099 13.579 13.3007 13.5 13.4996 13.5C13.6985 13.5 13.8893 13.579 14.0299 13.7197C14.1706 13.8603 14.2496 14.0511 14.2496 14.25Z" fill="black"/>
</svg>
