<svg width="24" height="24" viewBox="0 0 24 24" fill="none" xmlns="http://www.w3.org/2000/svg">
<path d="M20.0302 7.71937L14.7802 2.46938C14.7105 2.39975 14.6278 2.34454 14.5367 2.3069C14.4457 2.26926 14.3481 2.24992 14.2496 2.25H5.24961C4.85179 2.25 4.47026 2.40804 4.18895 2.68934C3.90765 2.97064 3.74961 3.35218 3.74961 3.75V10.5C3.74961 10.6989 3.82863 10.8897 3.96928 11.0303C4.10993 11.171 4.3007 11.25 4.49961 11.25H19.4996C19.6985 11.25 19.8893 11.171 20.0299 11.0303C20.1706 10.8897 20.2496 10.6989 20.2496 10.5V8.25C20.2497 8.15148 20.2304 8.05391 20.1927 7.96286C20.1551 7.87182 20.0999 7.78908 20.0302 7.71937ZM14.2496 8.25V4.125L18.3746 8.25H14.2496ZM8.23274 18.4041C8.2035 18.6909 8.11108 18.9677 7.96211 19.2146C7.81314 19.4615 7.61133 19.6723 7.37117 19.8319C6.88461 20.1562 6.28086 20.25 5.73149 20.25C5.25239 20.247 4.77556 20.184 4.31211 20.0625C4.12281 20.0071 3.96298 19.8793 3.86722 19.7068C3.77146 19.5344 3.7475 19.3311 3.80051 19.1412C3.85353 18.9512 3.97926 18.7897 4.15047 18.6917C4.32168 18.5938 4.52458 18.5672 4.71524 18.6178C5.12586 18.7303 6.1168 18.8709 6.54805 18.5841C6.63055 18.5287 6.71961 18.4416 6.74867 18.2156C6.78149 17.9653 6.68211 17.8312 5.55055 17.5041C4.67399 17.2509 3.2068 16.8262 3.3943 15.3375C3.42348 15.0563 3.5142 14.7849 3.66002 14.5427C3.80584 14.3005 4.00318 14.0933 4.23805 13.9359C5.34805 13.1859 7.11805 13.6256 7.31586 13.6772C7.50831 13.7278 7.67277 13.8528 7.77308 14.0246C7.87338 14.1965 7.9013 14.4011 7.85071 14.5936C7.80011 14.786 7.67513 14.9505 7.50327 15.0508C7.33141 15.1511 7.12675 15.179 6.9343 15.1284C6.5143 15.0187 5.50649 14.8884 5.07524 15.1809C5.01871 15.2191 4.97217 15.2702 4.93954 15.3301C4.90691 15.39 4.88914 15.4568 4.88774 15.525C4.87742 15.6094 4.87461 15.6272 4.99274 15.7031C5.2093 15.8428 5.59649 15.9544 5.97242 16.0631C6.89024 16.3284 8.44274 16.7812 8.23274 18.4041ZM14.2065 14.5022L12.3315 19.7522C12.2795 19.8979 12.1837 20.024 12.0572 20.1132C11.9308 20.2024 11.7798 20.2502 11.6251 20.2502C11.4703 20.2502 11.3194 20.2024 11.1929 20.1132C11.0665 20.024 10.9707 19.8979 10.9187 19.7522L9.04367 14.5022C9.00692 14.4087 8.98933 14.3087 8.99195 14.2083C8.99457 14.1079 9.01734 14.009 9.05891 13.9175C9.10048 13.826 9.16001 13.7439 9.23396 13.6758C9.30791 13.6078 9.39477 13.5554 9.48938 13.5216C9.584 13.4878 9.68444 13.4733 9.78475 13.4791C9.88505 13.4848 9.98318 13.5107 10.0733 13.5551C10.1634 13.5996 10.2437 13.6616 10.3094 13.7377C10.375 13.8137 10.4247 13.9022 10.4555 13.9978L11.6246 17.2697L12.7927 13.9978C12.8596 13.8105 12.9982 13.6574 13.178 13.5722C13.3577 13.487 13.564 13.4767 13.7513 13.5436C13.9387 13.6105 14.0918 13.749 14.177 13.9288C14.2622 14.1086 14.2724 14.3148 14.2055 14.5022H14.2065ZM20.2496 17.25V18.8316C20.2496 19.0247 20.175 19.2104 20.0415 19.35C19.7803 19.6311 19.4645 19.8559 19.1134 20.0107C18.7623 20.1655 18.3833 20.2469 17.9996 20.25C16.3459 20.25 14.9996 18.7359 14.9996 16.875C14.9996 15.0141 16.3459 13.5 17.9996 13.5C18.551 13.5017 19.0893 13.6689 19.5446 13.98C19.7059 14.0928 19.8163 14.2644 19.8522 14.4578C19.8881 14.6513 19.8465 14.8511 19.7365 15.0142C19.6264 15.1773 19.4566 15.2906 19.2638 15.3297C19.0709 15.3688 18.8704 15.3305 18.7055 15.2231C18.4983 15.0788 18.2521 15.001 17.9996 15C17.1727 15 16.4996 15.8437 16.4996 16.875C16.4996 17.9062 17.1727 18.75 17.9996 18.75C18.2705 18.7485 18.5336 18.6594 18.7496 18.4959V18C18.5507 18 18.3599 17.921 18.2193 17.7803C18.0786 17.6397 17.9996 17.4489 17.9996 17.25C17.9996 17.0511 18.0786 16.8603 18.2193 16.7197C18.3599 16.579 18.5507 16.5 18.7496 16.5H19.4996C19.6985 16.5 19.8893 16.579 20.0299 16.7197C20.1706 16.8603 20.2496 17.0511 20.2496 17.25Z" fill="black"/>
</svg>
