<svg width="24" height="24" viewBox="0 0 24 24" fill="none" xmlns="http://www.w3.org/2000/svg">
<path d="M4.5 11.25H19.5C19.6989 11.25 19.8897 11.171 20.0303 11.0303C20.171 10.8897 20.25 10.6989 20.25 10.5V8.25C20.2501 8.15148 20.2307 8.05391 20.1931 7.96286C20.1555 7.87182 20.1003 7.78908 20.0306 7.71938L14.7806 2.46938C14.7109 2.39975 14.6282 2.34454 14.5371 2.3069C14.4461 2.26926 14.3485 2.24992 14.25 2.25H5.25C4.85218 2.25 4.47064 2.40804 4.18934 2.68934C3.90804 2.97064 3.75 3.35218 3.75 3.75V10.5C3.75 10.6989 3.82902 10.8897 3.96967 11.0303C4.11032 11.171 4.30109 11.25 4.5 11.25ZM14.25 4.125L18.375 8.25H14.25V4.125ZM21 14.25C21 14.4489 20.921 14.6397 20.7803 14.7803C20.6397 14.921 20.4489 15 20.25 15H18V16.5H19.5C19.6989 16.5 19.8897 16.579 20.0303 16.7197C20.171 16.8603 20.25 17.0511 20.25 17.25C20.25 17.4489 20.171 17.6397 20.0303 17.7803C19.8897 17.921 19.6989 18 19.5 18H18V19.5C18 19.6989 17.921 19.8897 17.7803 20.0303C17.6397 20.171 17.4489 20.25 17.25 20.25C17.0511 20.25 16.8603 20.171 16.7197 20.0303C16.579 19.8897 16.5 19.6989 16.5 19.5V14.25C16.5 14.0511 16.579 13.8603 16.7197 13.7197C16.8603 13.579 17.0511 13.5 17.25 13.5H20.25C20.4489 13.5 20.6397 13.579 20.7803 13.7197C20.921 13.8603 21 14.0511 21 14.25ZM6 13.5H4.5C4.30109 13.5 4.11032 13.579 3.96967 13.7197C3.82902 13.8603 3.75 14.0511 3.75 14.25V19.5C3.75 19.6989 3.82902 19.8897 3.96967 20.0303C4.11032 20.171 4.30109 20.25 4.5 20.25C4.69891 20.25 4.88968 20.171 5.03033 20.0303C5.17098 19.8897 5.25 19.6989 5.25 19.5V18.75H6C6.69619 18.75 7.36387 18.4734 7.85616 17.9812C8.34844 17.4889 8.625 16.8212 8.625 16.125C8.625 15.4288 8.34844 14.7611 7.85616 14.2688C7.36387 13.7766 6.69619 13.5 6 13.5ZM6 17.25H5.25V15H6C6.29837 15 6.58452 15.1185 6.7955 15.3295C7.00647 15.5405 7.125 15.8266 7.125 16.125C7.125 16.4234 7.00647 16.7095 6.7955 16.9205C6.58452 17.1315 6.29837 17.25 6 17.25ZM12 13.5H10.5C10.3011 13.5 10.1103 13.579 9.96967 13.7197C9.82902 13.8603 9.75 14.0511 9.75 14.25V19.5C9.75 19.6989 9.82902 19.8897 9.96967 20.0303C10.1103 20.171 10.3011 20.25 10.5 20.25H12C12.8951 20.25 13.7535 19.8944 14.3865 19.2615C15.0194 18.6285 15.375 17.7701 15.375 16.875C15.375 15.9799 15.0194 15.1215 14.3865 14.4885C13.7535 13.8556 12.8951 13.5 12 13.5ZM12 18.75H11.25V15H12C12.4973 15 12.9742 15.1975 13.3258 15.5492C13.6775 15.9008 13.875 16.3777 13.875 16.875C13.875 17.3723 13.6775 17.8492 13.3258 18.2008C12.9742 18.5525 12.4973 18.75 12 18.75Z" fill="black"/>
</svg>
