<svg width="24" height="24" viewBox="0 0 24 24" fill="none" xmlns="http://www.w3.org/2000/svg">
<path d="M20.0306 7.71938L14.7806 2.46938C14.7109 2.39975 14.6282 2.34454 14.5371 2.3069C14.4461 2.26926 14.3485 2.24992 14.25 2.25H5.25C4.85218 2.25 4.47064 2.40804 4.18934 2.68934C3.90804 2.97064 3.75 3.35218 3.75 3.75V10.5C3.75 10.6989 3.82902 10.8897 3.96967 11.0303C4.11032 11.171 4.30109 11.25 4.5 11.25H19.5C19.6989 11.25 19.8897 11.171 20.0303 11.0303C20.171 10.8897 20.25 10.6989 20.25 10.5V8.25C20.2501 8.15148 20.2307 8.05391 20.1931 7.96286C20.1555 7.87182 20.1003 7.78908 20.0306 7.71938ZM14.25 8.25V4.125L18.375 8.25H14.25ZM20.1103 14.6859L18.5466 16.875L20.1103 19.0641C20.2156 19.226 20.2543 19.4223 20.2184 19.612C20.1826 19.8018 20.0749 19.9704 19.9178 20.0828C19.7608 20.1951 19.5664 20.2426 19.3752 20.2152C19.1841 20.1879 19.0108 20.0878 18.8916 19.9359L17.625 18.165L16.3603 19.9359C16.3051 20.0209 16.2333 20.0938 16.1491 20.1502C16.065 20.2066 15.9703 20.2454 15.8707 20.2642C15.7712 20.283 15.6688 20.2814 15.5699 20.2596C15.471 20.2378 15.3775 20.1962 15.2951 20.1372C15.2127 20.0783 15.1431 20.0032 15.0905 19.9167C15.0379 19.8301 15.0034 19.7337 14.989 19.6334C14.9747 19.5332 14.9808 19.431 15.007 19.3331C15.0332 19.2353 15.079 19.1437 15.1416 19.0641L16.7034 16.875L15.1397 14.6859C15.0344 14.524 14.9957 14.3277 15.0316 14.138C15.0674 13.9482 15.1751 13.7796 15.3322 13.6672C15.4892 13.5549 15.6836 13.5074 15.8748 13.5348C16.0659 13.5621 16.2392 13.6622 16.3584 13.8141L17.625 15.585L18.8897 13.8141C19.0089 13.6622 19.1822 13.5621 19.3734 13.5348C19.5645 13.5074 19.7589 13.5549 19.916 13.6672C20.073 13.7796 20.1807 13.9482 20.2165 14.138C20.2524 14.3277 20.2137 14.524 20.1084 14.6859H20.1103ZM13.8572 18.4041C13.828 18.6909 13.7355 18.9677 13.5866 19.2146C13.4376 19.4615 13.2358 19.6723 12.9956 19.8319C12.5091 20.1562 11.9062 20.25 11.3559 20.25C10.8771 20.2477 10.4005 20.1847 9.9375 20.0625C9.84152 20.037 9.75155 19.9928 9.67282 19.9323C9.59408 19.8718 9.52815 19.7962 9.47884 19.71C9.42952 19.6238 9.39782 19.5287 9.38556 19.4302C9.3733 19.3316 9.38073 19.2316 9.40742 19.136C9.43411 19.0404 9.47952 18.951 9.54103 18.873C9.60254 18.795 9.67892 18.7301 9.76573 18.6819C9.85254 18.6337 9.94806 18.6032 10.0468 18.5922C10.1454 18.5812 10.2453 18.5899 10.3406 18.6178C10.7513 18.7312 11.7469 18.8719 12.1734 18.585C12.2559 18.5288 12.345 18.4425 12.3741 18.2166C12.4059 17.9662 12.3066 17.8322 11.1759 17.505C10.2994 17.2519 8.83219 16.8272 9.01969 15.3375C9.04919 15.0565 9.14005 14.7854 9.28585 14.5434C9.43165 14.3014 9.62882 14.0943 9.86344 13.9369C10.9744 13.1869 12.7434 13.6266 12.9422 13.6781C13.1346 13.7287 13.2991 13.8537 13.3994 14.0256C13.4997 14.1974 13.5276 14.4021 13.477 14.5945C13.4264 14.787 13.3015 14.9514 13.1296 15.0517C12.9577 15.1521 12.7531 15.18 12.5606 15.1294C12.1397 15.0197 11.1328 14.8894 10.7016 15.1819C10.645 15.22 10.5985 15.2712 10.5659 15.331C10.5332 15.3909 10.5155 15.4578 10.5141 15.5259C10.5028 15.6103 10.5009 15.6272 10.6181 15.7041C10.8347 15.8437 11.2228 15.9553 11.5978 16.0641C12.5147 16.3284 14.0625 16.7812 13.8572 18.4041ZM8.25 14.25C8.25 14.4489 8.17098 14.6397 8.03033 14.7803C7.88968 14.921 7.69891 15 7.5 15H6.375V19.5C6.375 19.6989 6.29598 19.8897 6.15533 20.0303C6.01468 20.171 5.82391 20.25 5.625 20.25C5.42609 20.25 5.23532 20.171 5.09467 20.0303C4.95402 19.8897 4.875 19.6989 4.875 19.5V15H3.75C3.55109 15 3.36032 14.921 3.21967 14.7803C3.07902 14.6397 3 14.4489 3 14.25C3 14.0511 3.07902 13.8603 3.21967 13.7197C3.36032 13.579 3.55109 13.5 3.75 13.5H7.5C7.69891 13.5 7.88968 13.579 8.03033 13.7197C8.17098 13.8603 8.25 14.0511 8.25 14.25Z" fill="black"/>
</svg>
