<svg width="24" height="24" viewBox="0 0 24 24" fill="none" xmlns="http://www.w3.org/2000/svg">
<path d="M20.2491 9.75H9.57004L19.6866 7.07906C19.7824 7.05383 19.8722 7.00988 19.9509 6.94976C20.0295 6.88963 20.0955 6.81452 20.1451 6.72876C20.1946 6.64299 20.2266 6.54827 20.2393 6.45006C20.252 6.35186 20.2451 6.2521 20.2191 6.15656L19.4541 3.34406C19.3488 2.96567 19.0987 2.644 18.7579 2.4487C18.4172 2.2534 18.0132 2.2002 17.6335 2.30062L3.35629 6.06937C3.16619 6.11872 2.98784 6.20549 2.8317 6.32462C2.67555 6.44374 2.54473 6.59282 2.44691 6.76312C2.34854 6.93134 2.28499 7.11761 2.26003 7.31087C2.23506 7.50413 2.2492 7.70043 2.3016 7.88812L2.9991 10.4587C2.9991 10.4719 2.9991 10.4859 2.9991 10.5V18.75C2.9991 19.1478 3.15713 19.5294 3.43844 19.8107C3.71974 20.092 4.10127 20.25 4.4991 20.25H19.4991C19.8969 20.25 20.2785 20.092 20.5598 19.8107C20.8411 19.5294 20.9991 19.1478 20.9991 18.75V10.5C20.9991 10.3011 20.9201 10.1103 20.7794 9.96967C20.6388 9.82902 20.448 9.75 20.2491 9.75ZM12.7903 5.13L15.4275 6.65625L9.90566 8.11406L7.26941 6.58781L12.7903 5.13ZM19.4991 18.75H4.4991V11.25H19.4991V18.75Z" fill="black"/>
</svg>
