<svg width="24" height="24" viewBox="0 0 24 24" fill="none" xmlns="http://www.w3.org/2000/svg">
<path d="M11.8505 2.25C6.62953 2.32969 2.36297 6.56906 2.24953 11.7891C2.20997 13.5448 2.64772 15.2783 3.5161 16.8047C3.55015 16.8644 3.59999 16.9137 3.66015 16.947C3.7203 16.9803 3.78847 16.9965 3.85718 16.9937C3.9259 16.9909 3.99252 16.9692 4.04976 16.9311C4.10699 16.893 4.15265 16.8398 4.18172 16.7775C4.88611 15.2834 5.25079 13.6518 5.24953 12C5.24887 10.3684 5.83976 8.79198 6.91266 7.56281C7.03394 7.41837 7.20399 7.32341 7.39059 7.29594C7.57719 7.26847 7.76739 7.31039 7.92516 7.41375C8.01307 7.47389 8.08716 7.55207 8.1425 7.64308C8.19784 7.73409 8.23316 7.83585 8.24611 7.94157C8.25906 8.0473 8.24934 8.15457 8.2176 8.25624C8.18586 8.35792 8.13283 8.45167 8.06203 8.53125C7.2165 9.48896 6.74977 10.7225 6.74953 12C6.75235 14.2503 6.15564 16.4608 5.02078 18.4041C4.97871 18.4755 4.96149 18.5589 4.97184 18.6412C4.98219 18.7234 5.01951 18.7999 5.07797 18.8588C5.45018 19.2361 5.85244 19.5825 6.28078 19.8947C6.32316 19.9258 6.37159 19.9476 6.42294 19.9587C6.47428 19.9699 6.5274 19.9701 6.57884 19.9594C6.63029 19.9487 6.67891 19.9273 6.72156 19.8966C6.76421 19.8659 6.79993 19.8266 6.82641 19.7812C7.2285 19.1218 7.57892 18.4323 7.87453 17.7188C7.91208 17.6276 7.96721 17.5448 8.03677 17.475C8.10632 17.4052 8.18894 17.3498 8.27992 17.3119C8.37089 17.2741 8.46843 17.2545 8.56697 17.2543C8.66551 17.2542 8.76312 17.2734 8.85422 17.3109C8.94532 17.3485 9.02814 17.4036 9.09794 17.4732C9.16774 17.5427 9.22316 17.6253 9.26103 17.7163C9.2989 17.8073 9.31848 17.9048 9.31865 18.0034C9.31882 18.1019 9.29958 18.1995 9.26203 18.2906C8.94711 19.0529 8.57577 19.7905 8.1511 20.4975C8.12356 20.5436 8.10626 20.5951 8.10036 20.6485C8.09446 20.7019 8.1001 20.756 8.1169 20.807C8.1337 20.858 8.16127 20.9048 8.19774 20.9443C8.23421 20.9837 8.27873 21.0149 8.32828 21.0356C9.08016 21.3423 9.86757 21.5533 10.672 21.6638C10.7471 21.6748 10.8238 21.6628 10.892 21.6293C10.9601 21.5958 11.0164 21.5425 11.0536 21.4763C12.4278 19.0075 13.2459 16.2683 13.4508 13.4503C13.4549 13.3499 13.4792 13.2514 13.5221 13.1606C13.5651 13.0697 13.6259 12.9885 13.7008 12.9216C13.7758 12.8547 13.8635 12.8036 13.9586 12.7712C14.0537 12.7388 14.1543 12.7259 14.2545 12.7332C14.3548 12.7405 14.4525 12.7678 14.5419 12.8136C14.6313 12.8594 14.7107 12.9227 14.7752 12.9997C14.8397 13.0768 14.888 13.166 14.9174 13.262C14.9468 13.3581 14.9565 13.4591 14.9461 13.5591C14.7553 16.1875 14.0688 18.7561 12.923 21.1294C12.893 21.1901 12.88 21.2577 12.8854 21.3252C12.8908 21.3927 12.9144 21.4574 12.9536 21.5126C12.9928 21.5678 13.0462 21.6113 13.1082 21.6386C13.1701 21.6659 13.2383 21.6758 13.3055 21.6675C13.9634 21.5791 14.6105 21.4236 15.2367 21.2034C15.286 21.1859 15.331 21.1582 15.369 21.1222C15.4069 21.0862 15.4369 21.0427 15.457 20.9944C16.6262 18.1968 17.2352 15.197 17.2495 12.165C17.2702 9.2925 15.0558 6.85219 12.187 6.75281C11.6819 6.73531 11.1768 6.78992 10.687 6.915C10.5881 6.9404 10.485 6.94532 10.3841 6.92947C10.2832 6.91362 10.1866 6.87733 10.1003 6.82282C10.0139 6.7683 9.93955 6.69672 9.88182 6.61247C9.82409 6.52821 9.78418 6.43305 9.76453 6.33281C9.73185 6.13853 9.77473 5.93911 9.88438 5.77543C9.99402 5.61175 10.1621 5.49621 10.3542 5.4525C11.3498 5.20323 12.389 5.18409 13.3931 5.39653C14.3971 5.60898 15.3396 6.04742 16.1489 6.67857C16.9581 7.30972 17.6129 8.11697 18.0636 9.03903C18.5142 9.9611 18.7488 10.9737 18.7495 12C18.7518 14.3679 18.4152 16.724 17.7502 18.9966C17.7269 19.0745 17.7297 19.1579 17.758 19.2341C17.7863 19.3104 17.8386 19.3753 17.9071 19.4193C17.9755 19.4632 18.0564 19.4836 18.1375 19.4776C18.2186 19.4715 18.2956 19.4392 18.3567 19.3856C19.8736 18.0788 20.9514 16.3366 21.4436 14.3958C21.9358 12.4551 21.8186 10.4099 21.1079 8.53805C20.3971 6.66623 19.1274 5.05861 17.4711 3.9336C15.8149 2.8086 13.8525 2.22078 11.8505 2.25ZM11.9995 9C12.4216 9.00035 12.8388 9.08961 13.2241 9.26197C13.6093 9.43432 13.9539 9.6859 14.2355 10.0003C14.3053 10.0783 14.3579 10.1701 14.3901 10.2697C14.4223 10.3694 14.4333 10.4746 14.4223 10.5787C14.4114 10.6828 14.3787 10.7835 14.3265 10.8743C14.2743 10.965 14.2037 11.0438 14.1192 11.1056C13.9633 11.213 13.7733 11.2596 13.5854 11.2364C13.3974 11.2133 13.2245 11.122 13.0992 10.98C12.9034 10.7689 12.6509 10.6186 12.3719 10.5471C12.093 10.4757 11.7993 10.486 11.5261 10.5769C11.2219 10.6828 10.9587 10.8816 10.7737 11.1452C10.5886 11.4088 10.4911 11.7239 10.4948 12.0459C10.4922 13.0843 10.3921 14.1201 10.1958 15.1397C10.1636 15.3097 10.0735 15.4634 9.94092 15.5746C9.80833 15.6859 9.64134 15.7478 9.46828 15.75C9.42109 15.7502 9.37399 15.7458 9.32766 15.7369C9.13086 15.6921 8.95915 15.5726 8.84878 15.4037C8.7384 15.2347 8.698 15.0294 8.7361 14.8313C8.91274 13.8979 9.00094 12.9499 8.99953 12C8.99953 11.2044 9.3156 10.4413 9.87821 9.87868C10.4408 9.31607 11.2039 9 11.9995 9Z" fill="black"/>
</svg>
