<svg width="24" height="24" viewBox="0 0 24 24" fill="none" xmlns="http://www.w3.org/2000/svg">
<path d="M16.5 13.125C16.5 13.3475 16.434 13.565 16.3104 13.75C16.1868 13.935 16.0111 14.0792 15.8055 14.1644C15.6 14.2495 15.3738 14.2718 15.1555 14.2284C14.9373 14.185 14.7368 14.0778 14.5795 13.9205C14.4222 13.7632 14.315 13.5627 14.2716 13.3445C14.2282 13.1262 14.2505 12.9 14.3356 12.6945C14.4208 12.4889 14.565 12.3132 14.75 12.1896C14.935 12.066 15.1525 12 15.375 12C15.6734 12 15.9595 12.1185 16.1705 12.3295C16.3815 12.5405 16.5 12.8266 16.5 13.125ZM8.62501 12C8.4025 12 8.18499 12.066 7.99999 12.1896C7.81498 12.3132 7.67079 12.4889 7.58564 12.6945C7.50049 12.9 7.47821 13.1262 7.52162 13.3445C7.56503 13.5627 7.67218 13.7632 7.82951 13.9205C7.98684 14.0778 8.1873 14.185 8.40553 14.2284C8.62376 14.2718 8.84996 14.2495 9.05552 14.1644C9.26109 14.0792 9.43679 13.935 9.56041 13.75C9.68403 13.565 9.75001 13.3475 9.75001 13.125C9.75001 12.8266 9.63148 12.5405 9.4205 12.3295C9.20952 12.1185 8.92337 12 8.62501 12ZM22.5 5.99999V13.5C22.498 15.2896 21.7862 17.0053 20.5208 18.2708C19.2553 19.5362 17.5396 20.248 15.75 20.25H8.25001C6.4604 20.248 4.74467 19.5362 3.47923 18.2708C2.21379 17.0053 1.50199 15.2896 1.50001 13.5V5.99999C1.49857 5.26878 1.76423 4.56222 2.24708 4.01309C2.72992 3.46397 3.39669 3.1101 4.12208 3.01799C4.84747 2.92587 5.58153 3.10186 6.18629 3.51287C6.79106 3.92389 7.22489 4.54163 7.40626 5.24999H16.5938C16.7751 4.54163 17.209 3.92389 17.8137 3.51287C18.4185 3.10186 19.1525 2.92587 19.8779 3.01799C20.6033 3.1101 21.2701 3.46397 21.7529 4.01309C22.2358 4.56222 22.5014 5.26878 22.5 5.99999ZM18.75 12.75C18.75 11.9543 18.4339 11.1913 17.8713 10.6287C17.3087 10.0661 16.5457 9.74999 15.75 9.74999H8.25001C7.45436 9.74999 6.69129 10.0661 6.12868 10.6287C5.56608 11.1913 5.25001 11.9543 5.25001 12.75V13.5C5.25001 14.2956 5.56608 15.0587 6.12868 15.6213C6.69129 16.1839 7.45436 16.5 8.25001 16.5H15.75C16.5457 16.5 17.3087 16.1839 17.8713 15.6213C18.4339 15.0587 18.75 14.2956 18.75 13.5V12.75Z" fill="black"/>
</svg>
