<svg width="24" height="24" viewBox="0 0 24 24" fill="none" xmlns="http://www.w3.org/2000/svg">
<g clip-path="url(#clip0_639_9225)">
<path d="M20.4656 4.53189L14.7769 2.82564L17.5894 1.41939C17.767 1.32988 17.9018 1.17346 17.9642 0.984549C18.0265 0.795635 18.0112 0.5897 17.9217 0.412047C17.8322 0.234393 17.6758 0.0995735 17.4869 0.0372469C17.298 -0.0250796 17.092 -0.0098078 16.9144 0.0797028L12.5625 2.2547C10.6067 2.30552 8.74795 3.11784 7.38213 4.51868C6.0163 5.91953 5.25129 7.79822 5.25 9.7547V19.5C5.25 19.6989 5.32902 19.8897 5.46967 20.0303C5.61032 20.171 5.80109 20.25 6 20.25C6.19891 20.25 6.38968 20.171 6.53033 20.0303C6.67098 19.8897 6.75 19.6989 6.75 19.5V16.5H8.25V21.75C8.25 22.1478 8.40804 22.5294 8.68934 22.8107C8.97064 23.092 9.35218 23.25 9.75 23.25H15.75C16.1478 23.25 16.5294 23.092 16.8107 22.8107C17.092 22.5294 17.25 22.1478 17.25 21.75V9.75002C17.2485 8.68707 16.8713 7.65886 16.1851 6.84709C15.4989 6.03531 14.5479 5.49221 13.5 5.31377V4.00783L20.0344 5.96814C20.1294 5.9991 20.2297 6.01074 20.3293 6.0024C20.4289 5.99405 20.5258 5.96587 20.6144 5.91953C20.703 5.87319 20.7814 5.80961 20.845 5.73253C20.9086 5.65545 20.9562 5.56643 20.985 5.4707C21.0137 5.37497 21.023 5.27445 21.0124 5.17507C21.0017 5.07568 20.9713 4.97943 20.9229 4.89197C20.8745 4.8045 20.8092 4.72759 20.7306 4.66576C20.6521 4.60392 20.562 4.55841 20.4656 4.53189ZM6.75 15V9.75002C6.75182 8.2893 7.28587 6.87929 8.2522 5.78389C9.21853 4.68848 10.5509 3.98275 12 3.79877V5.31377C10.9521 5.49221 10.0011 6.03531 9.31488 6.84709C8.62867 7.65886 8.2515 8.68707 8.25 9.75002V15H6.75ZM15.75 9.75002V15H9.75V9.75002C9.75 8.95437 10.0661 8.1913 10.6287 7.6287C11.1913 7.06609 11.9544 6.75002 12.75 6.75002C13.5456 6.75002 14.3087 7.06609 14.8713 7.6287C15.4339 8.1913 15.75 8.95437 15.75 9.75002Z" fill="black"/>
</g>
<defs>
<clipPath id="clip0_639_9225">
<rect width="24" height="24" fill="white"/>
</clipPath>
</defs>
</svg>
