<svg width="24" height="24" viewBox="0 0 24 24" fill="none" xmlns="http://www.w3.org/2000/svg">
<path d="M15.7502 7.12503C15.7502 7.34754 15.6842 7.56504 15.5606 7.75005C15.4369 7.93505 15.2612 8.07925 15.0557 8.1644C14.8501 8.24955 14.6239 8.27182 14.4057 8.22842C14.1875 8.18501 13.987 8.07786 13.8297 7.92053C13.6723 7.76319 13.5652 7.56274 13.5218 7.34451C13.4784 7.12628 13.5006 6.90008 13.5858 6.69451C13.6709 6.48895 13.8151 6.31325 14.0001 6.18963C14.1852 6.06601 14.4027 6.00003 14.6252 6.00003C14.9235 6.00003 15.2097 6.11856 15.4207 6.32954C15.6316 6.54052 15.7502 6.82666 15.7502 7.12503ZM18.707 15.6347C16.1702 18.166 12.1989 19.23 6.86454 18.8175C7.01391 19.9325 7.22329 21.1066 7.49266 22.3397C7.53502 22.534 7.49848 22.7372 7.39106 22.9046C7.28364 23.0719 7.11415 23.1898 6.91985 23.2322C6.86692 23.2441 6.81284 23.2501 6.7586 23.25C6.58778 23.2497 6.42219 23.1911 6.28922 23.0839C6.15624 22.9766 6.06386 22.8272 6.02735 22.6603C5.72047 21.2585 5.48954 19.926 5.33454 18.6628C4.07204 18.5072 2.74047 18.2763 1.33985 17.97C1.1464 17.9267 0.977994 17.8085 0.871443 17.6413C0.764893 17.4741 0.728867 17.2715 0.771243 17.0779C0.813619 16.8842 0.930949 16.7152 1.09758 16.6078C1.26421 16.5004 1.46659 16.4633 1.66047 16.5047C2.89235 16.7735 4.06547 16.9828 5.17985 17.1328C4.76829 11.7994 5.8361 7.82909 8.36735 5.29316C12.4689 1.17941 18.978 2.33441 20.2408 2.60816C20.5228 2.66961 20.7812 2.81078 20.9853 3.01488C21.1894 3.21897 21.3306 3.47739 21.392 3.75941C21.6658 5.02222 22.8217 11.5313 18.707 15.6347ZM19.9258 4.07722C18.408 3.76342 16.8521 3.6756 15.3086 3.81659C13.4111 4.00409 11.8023 4.55066 10.5039 5.45347C10.5555 7.57067 11.4193 9.58696 12.9165 11.0848C14.4137 12.5827 16.4295 13.4475 18.5467 13.5C19.4486 12.2016 19.9989 10.5938 20.1836 8.69534C20.324 7.15165 20.2372 5.5957 19.9258 4.07722Z" fill="black"/>
</svg>
