<svg width="24" height="24" viewBox="0 0 24 24" fill="none" xmlns="http://www.w3.org/2000/svg">
<g clip-path="url(#clip0_639_9215)">
<path d="M15.7561 7.11936C15.7561 7.34186 15.6902 7.55937 15.5665 7.74437C15.4429 7.92938 15.2672 8.07357 15.0617 8.15872C14.8561 8.24387 14.6299 8.26615 14.4117 8.22274C14.1934 8.17933 13.993 8.07218 13.8356 7.91485C13.6783 7.75752 13.5712 7.55706 13.5278 7.33883C13.4843 7.1206 13.5066 6.8944 13.5918 6.68884C13.6769 6.48327 13.8211 6.30757 14.0061 6.18395C14.1911 6.06034 14.4086 5.99436 14.6311 5.99436C14.9295 5.99436 15.2157 6.11288 15.4266 6.32386C15.6376 6.53484 15.7561 6.82099 15.7561 7.11936ZM19.4939 14.7131C17.5477 17.1853 14.4455 18.5325 10.268 18.7228L8.20551 23.5434C8.14777 23.6792 8.05123 23.795 7.92799 23.8762C7.80475 23.9574 7.66029 24.0005 7.5127 24H7.46489C7.31034 23.9903 7.16257 23.933 7.04188 23.836C6.92119 23.739 6.83349 23.607 6.79083 23.4581L5.40239 18.5972L0.544263 17.2059C0.394986 17.164 0.262373 17.0768 0.164676 16.9564C0.0669791 16.836 0.00900081 16.6883 -0.00127909 16.5336C-0.011559 16.3789 0.0263648 16.2248 0.107273 16.0925C0.188181 15.9602 0.308096 15.8563 0.450513 15.795L5.27208 13.7325C5.45958 9.55404 6.81051 6.45186 9.28364 4.50654C13.3346 1.31904 19.1189 2.36623 20.2374 2.60811C20.5192 2.66899 20.7774 2.80977 20.9813 3.01361C21.1851 3.21745 21.3259 3.47571 21.3868 3.75748C21.6343 4.87498 22.6824 10.665 19.4939 14.7187V14.7131ZM19.9252 4.07342C18.9211 3.85592 13.7377 2.91186 10.2155 5.68404C9.77146 6.03451 9.36802 6.43355 9.0127 6.87373C8.97672 7.3638 9.04818 7.85581 9.22209 8.3154C9.39601 8.77498 9.66818 9.19104 10.0196 9.5345C10.371 9.87797 10.7932 10.1406 11.2566 10.3039C11.7201 10.4673 12.2136 10.5275 12.7027 10.4803C12.8127 10.4699 12.9236 10.4838 13.0275 10.5212C13.1314 10.5586 13.2258 10.6185 13.3039 10.6966C13.382 10.7747 13.4419 10.8691 13.4793 10.973C13.5167 11.0769 13.5306 11.1878 13.5202 11.2978C13.473 11.7871 13.5332 12.2808 13.6967 12.7444C13.8601 13.2079 14.1229 13.6302 14.4666 13.9817C14.8103 14.3331 15.2266 14.6052 15.6864 14.779C16.1462 14.9528 16.6384 15.0241 17.1286 14.9878C17.5675 14.633 17.9653 14.2302 18.3146 13.7869C21.0868 10.2647 20.1427 5.07936 19.9252 4.07529V4.07342Z" fill="black"/>
</g>
<defs>
<clipPath id="clip0_639_9215">
<rect width="24" height="24" fill="white"/>
</clipPath>
</defs>
</svg>
