<svg width="24" height="24" viewBox="0 0 24 24" fill="none" xmlns="http://www.w3.org/2000/svg">
<path d="M21.6776 5.5725L14.1776 21.3225C14.1367 21.4138 14.0781 21.4961 14.005 21.5644C13.9319 21.6327 13.8459 21.6857 13.7521 21.7203C13.6582 21.7548 13.5584 21.7703 13.4584 21.7657C13.3585 21.7611 13.2605 21.7366 13.1702 21.6936C13.0799 21.6505 12.9991 21.5899 12.9326 21.5152C12.8661 21.4405 12.8152 21.3532 12.7829 21.2585C12.7507 21.1638 12.7376 21.0637 12.7447 20.9639C12.7517 20.8641 12.7786 20.7667 12.8238 20.6775L15.5276 15H3.00068C2.85481 15.0001 2.71209 14.9576 2.58998 14.8779C2.46787 14.7981 2.37167 14.6844 2.31317 14.5508C2.25467 14.4172 2.2364 14.2694 2.2606 14.1256C2.2848 13.9817 2.35042 13.8481 2.44943 13.7409L6.43943 9.41906L2.49349 5.80313C2.38198 5.70101 2.30393 5.56758 2.2696 5.42032C2.23526 5.27307 2.24623 5.11888 2.30107 4.97797C2.35591 4.83706 2.45207 4.71602 2.57691 4.63073C2.70176 4.54543 2.84947 4.49986 3.00068 4.5H21.0007C21.1273 4.50004 21.2518 4.53213 21.3627 4.59328C21.4735 4.65443 21.5671 4.74265 21.6347 4.84971C21.7022 4.95678 21.7416 5.07921 21.7491 5.20559C21.7566 5.33197 21.732 5.4582 21.6776 5.5725Z" fill="black"/>
</svg>
