<svg width="24" height="24" viewBox="0 0 24 24" fill="none" xmlns="http://www.w3.org/2000/svg">
<path d="M20.5612 3.8203C20.4303 3.76085 20.2851 3.74029 20.1428 3.76107C20.0005 3.78184 19.8672 3.84308 19.7587 3.93749C17.1337 6.20811 14.91 5.10749 12.3328 3.83155C9.66281 2.50874 6.63562 1.01155 3.25875 3.93749C3.17806 4.00742 3.11324 4.09378 3.06862 4.19079C3.024 4.28779 3.0006 4.39321 3 4.49999V20.25C3 20.4489 3.07902 20.6397 3.21967 20.7803C3.36032 20.921 3.55109 21 3.75 21C3.94891 21 4.13968 20.921 4.28033 20.7803C4.42098 20.6397 4.5 20.4489 4.5 20.25V16.1034C7.01156 14.1197 9.17531 15.1894 11.6672 16.4231C13.2047 17.1834 14.8603 18.0028 16.6359 18.0028C17.9419 18.0028 19.3116 17.5575 20.7441 16.3153C20.8247 16.2454 20.8896 16.159 20.9342 16.062C20.9788 15.965 21.0022 15.8596 21.0028 15.7528V4.49999C21.0021 4.3563 20.96 4.21585 20.8818 4.09536C20.8035 3.97486 20.6922 3.87939 20.5612 3.8203ZM4.5 14.2912V9.92624C6.07969 8.86874 7.56 8.83967 9 9.23811V13.7137C7.58156 13.3565 6.08156 13.379 4.5 14.2912ZM19.5 15.3984C17.9184 16.6472 16.4747 16.6847 15 16.2337V11.7647C12.9731 11.2022 11.0269 9.79592 9 9.23811V4.01905C9.86719 4.28436 10.7447 4.71749 11.6672 5.17405C12.7228 5.69624 13.8337 6.24561 15 6.53905V11.7647C16.4391 12.1631 17.9194 12.134 19.5 11.0756V15.3984Z" fill="black"/>
</svg>
