<svg width="24" height="24" viewBox="0 0 24 24" fill="none" xmlns="http://www.w3.org/2000/svg">
<path d="M19.5 3.00001H17.625C17.5256 3.00001 17.4302 3.03952 17.3598 3.10984C17.2895 3.18017 17.25 3.27555 17.25 3.37501V7.50001C17.25 7.89783 17.092 8.27936 16.8107 8.56067C16.5294 8.84197 16.1478 9.00001 15.75 9.00001H8.27532C8.08145 9.00309 7.89362 8.93253 7.74973 8.80256C7.60584 8.67259 7.5166 8.49288 7.50001 8.2997C7.4932 8.1971 7.50755 8.09421 7.54218 7.9974C7.57681 7.90059 7.63097 7.81194 7.70131 7.73694C7.77164 7.66195 7.85664 7.60222 7.95104 7.56146C8.04543 7.5207 8.14719 7.49978 8.25001 7.50001H15.375C15.4745 7.50001 15.5698 7.4605 15.6402 7.39017C15.7105 7.31985 15.75 7.22446 15.75 7.12501V3.37501C15.75 3.27555 15.7105 3.18017 15.6402 3.10984C15.5698 3.03952 15.4745 3.00001 15.375 3.00001H8.56032C8.36326 2.99938 8.16805 3.03792 7.98602 3.11341C7.804 3.18889 7.63879 3.2998 7.50001 3.43969L3.43969 7.50001C3.2998 7.63879 3.18889 7.804 3.11341 7.98602C3.03792 8.16805 2.99938 8.36326 3.00001 8.56032V19.5C3.00001 19.8978 3.15804 20.2794 3.43935 20.5607C3.72065 20.842 4.10218 21 4.50001 21H19.5C19.8978 21 20.2794 20.842 20.5607 20.5607C20.842 20.2794 21 19.8978 21 19.5V4.50001C21 4.10218 20.842 3.72065 20.5607 3.43935C20.2794 3.15804 19.8978 3.00001 19.5 3.00001ZM12 17.25C11.4067 17.25 10.8266 17.0741 10.3333 16.7444C9.83995 16.4148 9.45543 15.9462 9.22837 15.3981C9.00131 14.8499 8.9419 14.2467 9.05765 13.6647C9.17341 13.0828 9.45913 12.5482 9.87869 12.1287C10.2982 11.7091 10.8328 11.4234 11.4147 11.3077C11.9967 11.1919 12.5999 11.2513 13.1481 11.4784C13.6962 11.7054 14.1648 12.0899 14.4944 12.5833C14.8241 13.0766 15 13.6567 15 14.25C15 15.0457 14.6839 15.8087 14.1213 16.3713C13.5587 16.9339 12.7957 17.25 12 17.25Z" fill="black"/>
</svg>
