<svg width="24" height="24" viewBox="0 0 24 24" fill="none" xmlns="http://www.w3.org/2000/svg">
<path d="M23.0311 8.03061L20.0311 11.0306C19.8903 11.1713 19.6995 11.2504 19.5004 11.2504C19.3014 11.2504 19.1105 11.1713 18.9698 11.0306C18.8291 10.8899 18.75 10.699 18.75 10.5C18.75 10.301 18.8291 10.1101 18.9698 9.96936L20.6901 8.24999H18.0004C17.8448 8.24999 14.1239 8.32218 13.4901 12.1228C13.0317 14.8687 11.4145 16.125 10.1376 16.6875C9.3246 17.0448 8.44839 17.236 7.56044 17.25H7.40669C7.22415 17.957 6.79002 18.5731 6.18568 18.9829C5.58135 19.3927 4.8483 19.5681 4.12394 19.4761C3.39958 19.3841 2.73364 19.031 2.25095 18.4832C1.76826 17.9353 1.50195 17.2302 1.50195 16.5C1.50195 15.7698 1.76826 15.0647 2.25095 14.5168C2.73364 13.9689 3.39958 13.6159 4.12394 13.5239C4.8483 13.4319 5.58135 13.6072 6.18568 14.017C6.79002 14.4268 7.22415 15.043 7.40669 15.75H7.53138C7.68325 15.75 11.3536 15.8259 12.0117 11.8762C12.4523 9.22874 14.0629 7.96874 15.3426 7.38093C16.1784 6.9977 17.0816 6.78329 18.0004 6.74999H20.6901L18.9698 5.03061C18.8291 4.88988 18.75 4.69901 18.75 4.49999C18.75 4.30097 18.8291 4.1101 18.9698 3.96936C19.1105 3.82863 19.3014 3.74957 19.5004 3.74957C19.6995 3.74957 19.8903 3.82863 20.0311 3.96936L23.0311 6.96936C23.1008 7.03902 23.1561 7.12174 23.1939 7.21278C23.2316 7.30383 23.251 7.40143 23.251 7.49999C23.251 7.59855 23.2316 7.69615 23.1939 7.7872C23.1561 7.87824 23.1008 7.96096 23.0311 8.03061Z" fill="black"/>
</svg>
