<svg width="24" height="24" viewBox="0 0 24 24" fill="none" xmlns="http://www.w3.org/2000/svg">
<path d="M20.25 6.75H12.2494L9.64875 4.8C9.38962 4.60565 9.07454 4.50041 8.75062 4.5H3.75C3.35218 4.5 2.97064 4.65804 2.68934 4.93934C2.40804 5.22064 2.25 5.60218 2.25 6V18.75C2.25 19.1478 2.40804 19.5294 2.68934 19.8107C2.97064 20.092 3.35218 20.25 3.75 20.25H20.25C20.6478 20.25 21.0294 20.092 21.3107 19.8107C21.592 19.5294 21.75 19.1478 21.75 18.75V8.25C21.75 7.85218 21.592 7.47064 21.3107 7.18934C21.0294 6.90804 20.6478 6.75 20.25 6.75ZM3.75 9V6H8.75062L10.7503 7.5L8.74969 9H3.75ZM14.25 15H9.75C9.55109 15 9.36032 14.921 9.21967 14.7803C9.07902 14.6397 9 14.4489 9 14.25C9 14.0511 9.07902 13.8603 9.21967 13.7197C9.36032 13.579 9.55109 13.5 9.75 13.5H14.25C14.4489 13.5 14.6397 13.579 14.7803 13.7197C14.921 13.8603 15 14.0511 15 14.25C15 14.4489 14.921 14.6397 14.7803 14.7803C14.6397 14.921 14.4489 15 14.25 15Z" fill="black"/>
</svg>
