<svg width="24" height="24" viewBox="0 0 24 24" fill="none" xmlns="http://www.w3.org/2000/svg">
<path d="M21.4741 5.05215C21.367 4.42098 21.0663 3.83873 20.6137 3.38605C20.161 2.93337 19.5787 2.63266 18.9476 2.52558C15.9119 2.0109 10.1922 1.77558 5.98474 5.98496C1.77724 10.1943 2.01068 15.9131 2.52537 18.9478C2.63273 19.5796 2.93413 20.1623 3.38772 20.6151C3.84131 21.0678 4.4246 21.3681 5.05662 21.4743C6.11988 21.6557 7.19644 21.7479 8.27506 21.75C11.2835 21.75 15.0297 21 18.0147 18.015C22.2232 13.8075 21.9888 8.08683 21.4741 5.05215ZM5.30224 19.9968C4.9777 19.9416 4.67832 19.7869 4.44554 19.5542C4.21276 19.3214 4.05807 19.022 4.00287 18.6975C3.74555 17.2467 3.67905 15.7686 3.80506 14.3006L9.69912 20.1946C8.23114 20.3207 6.75298 20.2542 5.30224 19.9968ZM15.5285 9.53152L14.1841 10.875L14.7785 11.4693C14.8526 11.5379 14.9121 11.6207 14.9534 11.7129C14.9948 11.805 15.0171 11.9045 15.019 12.0055C15.0209 12.1064 15.0025 12.2067 14.9647 12.3003C14.9269 12.394 14.8707 12.479 14.7992 12.5504C14.7278 12.6218 14.6427 12.678 14.549 12.7156C14.4554 12.7533 14.355 12.7717 14.2541 12.7697C14.1531 12.7677 14.0536 12.7453 13.9616 12.7039C13.8695 12.6625 13.7867 12.6029 13.7182 12.5287L13.1247 11.9353L11.9351 13.125L12.5294 13.7193C12.6036 13.7878 12.6632 13.8706 12.7046 13.9627C12.746 14.0548 12.7684 14.1543 12.7704 14.2552C12.7724 14.3562 12.7541 14.4565 12.7164 14.5502C12.6787 14.6439 12.6225 14.729 12.5511 14.8004C12.4798 14.8718 12.3947 14.9281 12.3011 14.9659C12.2074 15.0036 12.1071 15.0221 12.0062 15.0201C11.9052 15.0182 11.8057 14.9959 11.7136 14.9546C11.6215 14.9133 11.5386 14.8538 11.4701 14.7796L10.8747 14.1843L9.53037 15.5287C9.46142 15.6013 9.37864 15.6593 9.2869 15.6994C9.19517 15.7395 9.09634 15.7608 8.99624 15.7621C8.89614 15.7634 8.79679 15.7446 8.70406 15.7069C8.61133 15.6691 8.52709 15.6132 8.45631 15.5425C8.38552 15.4717 8.32962 15.3874 8.2919 15.2947C8.25419 15.202 8.23542 15.1026 8.2367 15.0025C8.23798 14.9024 8.25929 14.8036 8.29937 14.7119C8.33944 14.6201 8.39748 14.5373 8.47006 14.4684L9.81537 13.125L9.22099 12.5306C9.08949 12.3882 9.01821 12.2004 9.02209 12.0067C9.02598 11.8129 9.10474 11.6281 9.24185 11.4911C9.37896 11.3542 9.56378 11.2756 9.75756 11.2718C9.95135 11.2681 10.139 11.3396 10.2813 11.4712L10.8757 12.0656L12.0644 10.875L11.4701 10.2806C11.3384 10.1383 11.267 9.95062 11.2707 9.75684C11.2744 9.56306 11.353 9.37824 11.49 9.24113C11.627 9.10402 11.8117 9.02526 12.0055 9.02137C12.1993 9.01749 12.3871 9.08877 12.5294 9.22027L13.1247 9.81558L14.4691 8.47121C14.5381 8.39863 14.6209 8.3406 14.7126 8.30052C14.8043 8.26044 14.9032 8.23913 15.0033 8.23785C15.1034 8.23657 15.2027 8.25534 15.2954 8.29306C15.3882 8.33077 15.4724 8.38667 15.5432 8.45746C15.614 8.52824 15.6699 8.61249 15.7076 8.70522C15.7453 8.79795 15.7641 8.89729 15.7628 8.99739C15.7615 9.09749 15.7402 9.19632 15.7001 9.28805C15.66 9.37979 15.602 9.46257 15.5294 9.53152H15.5285ZM20.1944 9.69933L14.3004 3.80527C14.7466 3.76402 15.2116 3.74058 15.6982 3.74058C16.7038 3.74413 17.7073 3.83194 18.6982 4.00308C19.0226 4.05846 19.3217 4.21323 19.5543 4.446C19.7869 4.67877 19.9415 4.97804 19.9966 5.30246C20.2539 6.7532 20.3204 8.23135 20.1944 9.69933Z" fill="black"/>
</svg>
