<svg width="24" height="24" viewBox="0 0 24 24" fill="none" xmlns="http://www.w3.org/2000/svg">
<path d="M18.7498 9.75H13.9685L19.2438 14.4375C19.358 14.5382 19.4388 14.6711 19.4756 14.8188C19.5123 14.9665 19.5033 15.1218 19.4497 15.2642C19.3961 15.4066 19.3004 15.5294 19.1754 15.6161C19.0504 15.7029 18.902 15.7496 18.7498 15.75H12.7498V21.75C12.7499 21.8984 12.706 22.0435 12.6236 22.167C12.5412 22.2904 12.424 22.3867 12.2869 22.4435C12.1498 22.5003 11.9989 22.5151 11.8533 22.4861C11.7077 22.4572 11.574 22.3856 11.4692 22.2806L4.71916 15.5306C4.64953 15.4609 4.59432 15.3782 4.55668 15.2871C4.51904 15.1961 4.49971 15.0985 4.49978 15V9C4.49978 8.80109 4.5788 8.61032 4.71945 8.46967C4.86011 8.32902 5.05087 8.25 5.24978 8.25H10.031L4.75197 3.5625C4.6376 3.46164 4.5567 3.32831 4.52004 3.1803C4.48338 3.03228 4.49272 2.8766 4.54679 2.73402C4.60087 2.59145 4.69712 2.46874 4.82272 2.38226C4.94832 2.29579 5.09729 2.24965 5.24978 2.25H18.7498C18.9487 2.25 19.1395 2.32902 19.2801 2.46967C19.4208 2.61032 19.4998 2.80109 19.4998 3V9C19.4998 9.19891 19.4208 9.38968 19.2801 9.53033C19.1395 9.67098 18.9487 9.75 18.7498 9.75Z" fill="black"/>
</svg>
