<svg width="24" height="24" viewBox="0 0 24 24" fill="none" xmlns="http://www.w3.org/2000/svg">
<path d="M23.1982 16.2891C23.1986 16.2847 23.1986 16.2803 23.1982 16.2759L21.6616 8.385C21.6616 8.37938 21.6616 8.37375 21.6616 8.36813C21.4244 7.07255 20.7407 5.90107 19.7293 5.05735C18.7179 4.21364 17.4428 3.75105 16.1257 3.75H7.86537C6.54457 3.74949 5.26589 4.21471 4.25421 5.06384C3.24252 5.91297 2.56264 7.09162 2.33412 8.3925L0.805061 16.2759C0.80461 16.2803 0.80461 16.2847 0.805061 16.2891C0.680601 16.9958 0.784631 17.7238 1.10205 18.3673C1.41946 19.0109 1.93374 19.5365 2.57022 19.8679C3.20669 20.1993 3.93223 20.3193 4.6415 20.2103C5.35076 20.1013 6.00682 19.7691 6.51444 19.2619L6.54725 19.2272L10.2682 15H13.7369L17.4597 19.2272C17.4701 19.2394 17.4813 19.2506 17.4926 19.2619C18.1252 19.8932 18.982 20.2484 19.8757 20.25C20.3683 20.2497 20.8549 20.1415 21.3013 19.9331C21.7477 19.7247 22.143 19.4211 22.4596 19.0436C22.7761 18.6661 23.0062 18.2239 23.1336 17.7481C23.2611 17.2722 23.2828 16.7742 23.1972 16.2891H23.1982ZM9.75069 10.5H9.00069V11.25C9.00069 11.4489 8.92167 11.6397 8.78102 11.7803C8.64036 11.921 8.4496 12 8.25069 12C8.05177 12 7.86101 11.921 7.72036 11.7803C7.5797 11.6397 7.50069 11.4489 7.50069 11.25V10.5H6.75069C6.55177 10.5 6.36101 10.421 6.22036 10.2803C6.0797 10.1397 6.00069 9.94891 6.00069 9.75C6.00069 9.55109 6.0797 9.36032 6.22036 9.21967C6.36101 9.07902 6.55177 9 6.75069 9H7.50069V8.25C7.50069 8.05109 7.5797 7.86032 7.72036 7.71967C7.86101 7.57902 8.05177 7.5 8.25069 7.5C8.4496 7.5 8.64036 7.57902 8.78102 7.71967C8.92167 7.86032 9.00069 8.05109 9.00069 8.25V9H9.75069C9.9496 9 10.1404 9.07902 10.281 9.21967C10.4217 9.36032 10.5007 9.55109 10.5007 9.75C10.5007 9.94891 10.4217 10.1397 10.281 10.2803C10.1404 10.421 9.9496 10.5 9.75069 10.5ZM13.5007 9.75C13.5007 9.55109 13.5797 9.36032 13.7204 9.21967C13.861 9.07902 14.0518 9 14.2507 9H16.5007C16.6996 9 16.8904 9.07902 17.031 9.21967C17.1717 9.36032 17.2507 9.55109 17.2507 9.75C17.2507 9.94891 17.1717 10.1397 17.031 10.2803C16.8904 10.421 16.6996 10.5 16.5007 10.5H14.2507C14.0518 10.5 13.861 10.421 13.7204 10.2803C13.5797 10.1397 13.5007 9.94891 13.5007 9.75ZM21.4104 17.9503C21.2699 18.1526 21.0907 18.3249 20.8831 18.4574C20.6755 18.5898 20.4436 18.6797 20.201 18.7219C19.9075 18.7732 19.606 18.7542 19.3213 18.6663C19.0366 18.5785 18.7768 18.4243 18.5632 18.2166L15.7319 15H16.1257C17.0832 15.0001 18.0249 14.7558 18.8616 14.2902C19.6983 13.8246 20.4023 13.1531 20.9069 12.3394L21.7263 16.5581C21.768 16.7995 21.7616 17.0468 21.7074 17.2858C21.6532 17.5247 21.5522 17.7505 21.4104 17.9503Z" fill="black"/>
</svg>
