<svg width="24" height="24" viewBox="0 0 24 24" fill="none" xmlns="http://www.w3.org/2000/svg">
<path d="M22.5 15V17.25C22.5 17.6479 22.342 18.0294 22.0607 18.3107C21.7794 18.592 21.3978 18.75 21 18.75H10.8684C10.7993 18.7501 10.7314 18.731 10.6724 18.6949C10.6134 18.6588 10.5656 18.6071 10.5341 18.5455C10.5027 18.4839 10.4889 18.4147 10.4943 18.3458C10.4997 18.2768 10.524 18.2107 10.5647 18.1547L16.3378 10.2188C16.4575 10.0598 16.5109 9.86073 16.487 9.66322C16.463 9.46571 16.3635 9.28515 16.2094 9.1594C16.1301 9.09786 16.0392 9.05287 15.9421 9.0271C15.8451 9.00133 15.7439 8.9953 15.6445 9.00938C15.5451 9.02345 15.4495 9.05735 15.3634 9.10904C15.2774 9.16074 15.2026 9.22919 15.1434 9.31034L8.39344 18.5972C8.35806 18.6453 8.31169 18.6843 8.25821 18.7109C8.20472 18.7375 8.14566 18.7509 8.08594 18.75H3C2.60218 18.75 2.22064 18.592 1.93934 18.3107C1.65804 18.0294 1.5 17.6479 1.5 17.25V15.106C1.5 14.9382 1.5 14.7713 1.51219 14.6063C1.517 14.5101 1.55863 14.4195 1.62844 14.3532C1.69825 14.2868 1.7909 14.2499 1.88719 14.25H4.5C4.60282 14.2503 4.70458 14.2293 4.79897 14.1886C4.89336 14.1478 4.97837 14.0881 5.0487 14.0131C5.11904 13.9381 5.1732 13.8494 5.20783 13.7526C5.24246 13.6558 5.25681 13.5529 5.25 13.4503C5.23341 13.2572 5.14417 13.0774 5.00028 12.9475C4.85639 12.8175 4.66856 12.7469 4.47469 12.75H2.2425C2.18529 12.75 2.12885 12.7369 2.0775 12.7116C2.02615 12.6864 1.98125 12.6498 1.94623 12.6046C1.91121 12.5593 1.88701 12.5067 1.87548 12.4506C1.86395 12.3946 1.86539 12.3367 1.87969 12.2813C3.00469 8.17128 6.53531 5.05034 10.8347 4.56753C10.8872 4.56185 10.9403 4.56733 10.9906 4.58362C11.0409 4.5999 11.0871 4.62662 11.1263 4.66203C11.1655 4.69743 11.1968 4.74072 11.2181 4.78906C11.2394 4.8374 11.2503 4.8897 11.25 4.94253V7.50003C11.2498 7.60285 11.2707 7.70461 11.3115 7.799C11.3522 7.89339 11.4119 7.9784 11.4869 8.04873C11.5619 8.11907 11.6506 8.17323 11.7474 8.20786C11.8442 8.24249 11.9471 8.25684 12.0497 8.25003C12.2429 8.23344 12.4226 8.1442 12.5526 8.00031C12.6825 7.85642 12.7531 7.66859 12.75 7.47472V4.93784C12.7497 4.88501 12.7606 4.83272 12.7819 4.78438C12.8032 4.73604 12.8345 4.69275 12.8737 4.65734C12.9129 4.62194 12.9591 4.59521 13.0094 4.57893C13.0597 4.56264 13.1128 4.55716 13.1653 4.56284C15.2643 4.79871 17.2436 5.66114 18.8456 7.03782C20.4475 8.41449 21.5977 10.2416 22.1466 12.2813C22.1609 12.3367 22.1623 12.3948 22.1507 12.4509C22.1391 12.507 22.1149 12.5597 22.0797 12.6049C22.0446 12.6502 21.9996 12.6868 21.9481 12.712C21.8966 12.7371 21.8401 12.7501 21.7828 12.75H19.5253C19.3318 12.7474 19.1444 12.8182 19.0009 12.9481C18.8574 13.078 18.7684 13.2575 18.7519 13.4503C18.7451 13.5529 18.7594 13.6558 18.794 13.7526C18.8287 13.8494 18.8828 13.9381 18.9532 14.0131C19.0235 14.0881 19.1085 14.1478 19.2029 14.1886C19.2973 14.2293 19.3991 14.2503 19.5019 14.25H22.1194C22.2166 14.25 22.31 14.2877 22.38 14.3552C22.45 14.4227 22.491 14.5147 22.4944 14.6119C22.5 14.7403 22.5 14.8697 22.5 15Z" fill="black"/>
</svg>
