<svg width="24" height="24" viewBox="0 0 24 24" fill="none" xmlns="http://www.w3.org/2000/svg">
<path d="M4.93988 9.31034C4.80055 9.17105 4.69003 9.00568 4.61463 8.82367C4.53923 8.64165 4.50042 8.44657 4.50042 8.24956C4.50042 8.05255 4.53923 7.85747 4.61463 7.67546C4.69003 7.49345 4.80055 7.32807 4.93988 7.18878L10.9399 1.18878C11.2212 0.907443 11.6028 0.74939 12.0007 0.74939C12.3985 0.74939 12.7801 0.907443 13.0614 1.18878C13.3428 1.47012 13.5008 1.85169 13.5008 2.24956C13.5008 2.64743 13.3428 3.02901 13.0614 3.31034L7.06144 9.31034C6.92215 9.44967 6.75677 9.56019 6.57476 9.63559C6.39275 9.71099 6.19767 9.7498 6.00066 9.7498C5.80365 9.7498 5.60856 9.71099 5.42655 9.63559C5.24454 9.56019 5.07917 9.44967 4.93988 9.31034ZM22.8114 10.9388C22.6721 10.7995 22.5068 10.6889 22.3248 10.6135C22.1428 10.5381 21.9477 10.4993 21.7507 10.4993C21.5536 10.4993 21.3586 10.5381 21.1766 10.6135C20.9945 10.6889 20.8292 10.7995 20.6899 10.9388L14.6899 16.9388C14.4088 17.2201 14.2509 17.6014 14.2509 17.9991C14.2509 18.3967 14.4088 18.7781 14.6899 19.0594C14.8292 19.1987 14.9945 19.3092 15.1766 19.3847C15.3586 19.4601 15.5536 19.4989 15.7507 19.4989C15.9477 19.4989 16.1428 19.4601 16.3248 19.3847C16.5068 19.3092 16.6721 19.1987 16.8114 19.0594L22.8114 13.0594C23.0925 12.7781 23.2504 12.3967 23.2504 11.9991C23.2504 11.6014 23.0925 11.2201 22.8114 10.9388ZM19.2808 9.2194L14.7808 4.7194C14.6402 4.57886 14.4495 4.49991 14.2507 4.49991C14.0518 4.49991 13.8611 4.57886 13.7205 4.7194L8.4705 9.9694C8.32996 10.11 8.25101 10.3007 8.25101 10.4996C8.25101 10.6984 8.32996 10.8891 8.4705 11.0297L9.65644 12.2194L2.68988 19.1897C2.42045 19.4733 2.27246 19.8509 2.27747 20.2421C2.28247 20.6332 2.44008 21.0069 2.71668 21.2835C2.99329 21.5601 3.367 21.7177 3.75814 21.7228C4.14928 21.7278 4.52691 21.5798 4.8105 21.3103L11.7808 14.3438L12.9705 15.5335C13.1111 15.674 13.3018 15.753 13.5007 15.753C13.6995 15.753 13.8902 15.674 14.0308 15.5335L19.2808 10.2835C19.351 10.2138 19.4066 10.1309 19.4446 10.0396C19.4826 9.94825 19.5022 9.85033 19.5022 9.75144C19.5022 9.65254 19.4826 9.55462 19.4446 9.46331C19.4066 9.372 19.351 9.28911 19.2808 9.2194Z" fill="black"/>
</svg>
