<svg width="24" height="24" viewBox="0 0 24 24" fill="none" xmlns="http://www.w3.org/2000/svg">
<path d="M20.2496 12.2025C20.2533 12.0675 20.2533 11.9325 20.2496 11.7975L21.6483 10.05C21.7216 9.95823 21.7724 9.85053 21.7965 9.73557C21.8206 9.62061 21.8174 9.50159 21.7871 9.38811C21.5573 8.52631 21.2144 7.69878 20.7671 6.92717C20.7084 6.82622 20.6271 6.74034 20.5294 6.67638C20.4318 6.61242 20.3205 6.57213 20.2046 6.55873L17.9808 6.31123C17.8883 6.21373 17.7946 6.11998 17.6996 6.02998L17.4371 3.80061C17.4236 3.68456 17.3831 3.57326 17.319 3.4756C17.2549 3.37794 17.1688 3.29662 17.0677 3.23811C16.2961 2.79115 15.4686 2.44878 14.6067 2.21998C14.4933 2.18966 14.3742 2.18642 14.2593 2.21052C14.1443 2.23462 14.0366 2.28539 13.9449 2.35873L12.2021 3.74998C12.0671 3.74998 11.9321 3.74998 11.7971 3.74998L10.0496 2.35404C9.9578 2.2807 9.85011 2.22994 9.73514 2.20584C9.62018 2.18174 9.50116 2.18498 9.38768 2.21529C8.52588 2.44501 7.69836 2.788 6.92674 3.23529C6.82579 3.29391 6.73992 3.37529 6.67595 3.47294C6.61199 3.57059 6.5717 3.68183 6.5583 3.79779L6.3108 6.02529C6.2133 6.11842 6.11955 6.21217 6.02955 6.30654L3.80018 6.56248C3.68413 6.57598 3.57284 6.61641 3.47518 6.68054C3.37752 6.74467 3.29619 6.83073 3.23768 6.93186C2.79082 7.70357 2.44815 8.53108 2.21862 9.3928C2.18843 9.50635 2.18534 9.62541 2.2096 9.74038C2.23387 9.85534 2.2848 9.963 2.3583 10.0547L3.74955 11.7975C3.74955 11.9325 3.74955 12.0675 3.74955 12.2025L2.35362 13.95C2.28027 14.0417 2.22951 14.1494 2.20541 14.2644C2.18131 14.3794 2.18455 14.4984 2.21487 14.6119C2.44458 15.4737 2.78757 16.3012 3.23487 17.0728C3.29349 17.1737 3.37486 17.2596 3.47251 17.3236C3.57017 17.3875 3.6814 17.4278 3.79737 17.4412L6.02112 17.6887C6.11424 17.7862 6.20799 17.88 6.30237 17.97L6.56206 20.1994C6.57556 20.3154 6.61598 20.4267 6.68011 20.5244C6.74424 20.622 6.8303 20.7033 6.93143 20.7619C7.70315 21.2087 8.53066 21.5514 9.39237 21.7809C9.50592 21.8111 9.62498 21.8142 9.73995 21.7899C9.85491 21.7657 9.96257 21.7147 10.0542 21.6412L11.7971 20.25C11.9321 20.2537 12.0671 20.2537 12.2021 20.25L13.9496 21.6487C14.0413 21.7221 14.149 21.7728 14.264 21.7969C14.3789 21.821 14.4979 21.8178 14.6114 21.7875C15.4734 21.5582 16.3009 21.2152 17.0724 20.7675C17.1733 20.7089 17.2592 20.6275 17.3232 20.5298C17.3871 20.4322 17.4274 20.3209 17.4408 20.205L17.6883 17.9812C17.7858 17.8887 17.8796 17.795 17.9696 17.7L20.1989 17.4375C20.315 17.424 20.4263 17.3836 20.5239 17.3194C20.6216 17.2553 20.7029 17.1692 20.7614 17.0681C21.2083 16.2964 21.551 15.4689 21.7805 14.6072C21.8107 14.4936 21.8138 14.3746 21.7895 14.2596C21.7652 14.1446 21.7143 14.037 21.6408 13.9453L20.2496 12.2025ZM11.9996 15.75C11.2579 15.75 10.5329 15.53 9.91617 15.118C9.29948 14.7059 8.81884 14.1203 8.53501 13.435C8.25118 12.7498 8.17692 11.9958 8.32161 11.2684C8.4663 10.541 8.82346 9.87278 9.3479 9.34833C9.87235 8.82388 10.5405 8.46673 11.268 8.32204C11.9954 8.17734 12.7494 8.25161 13.4346 8.53543C14.1198 8.81926 14.7055 9.29991 15.1176 9.91659C15.5296 10.5333 15.7496 11.2583 15.7496 12C15.7496 12.9945 15.3545 13.9484 14.6512 14.6516C13.9479 15.3549 12.9941 15.75 11.9996 15.75Z" fill="black"/>
</svg>
