<svg width="24" height="24" viewBox="0 0 24 24" fill="none" xmlns="http://www.w3.org/2000/svg">
<path d="M19.4986 10.5C18.8335 10.5006 18.1874 10.7219 17.6615 11.129C17.1356 11.5362 16.7596 12.1063 16.5924 12.75H14.2486C13.6667 12.7486 13.093 12.6125 12.5725 12.3522C12.052 12.092 11.5989 11.7147 11.2486 11.25L8.78208 7.96125C9.41969 7.65873 9.93023 7.14111 10.2239 6.49939C10.5177 5.85768 10.5757 5.13296 10.388 4.45267C10.2002 3.77237 9.7786 3.18005 9.1973 2.77985C8.61601 2.37965 7.91223 2.19719 7.20972 2.26456C6.50721 2.33193 5.85094 2.64481 5.35629 3.14819C4.86165 3.65157 4.5603 4.31322 4.50524 5.0168C4.45018 5.72038 4.64493 6.42086 5.05524 6.99506C5.46556 7.56926 6.06517 7.98042 6.74865 8.15625V15.8438C6.04165 16.0263 5.4255 16.4604 5.0157 17.0648C4.60589 17.6691 4.43055 18.4021 4.52256 19.1265C4.61456 19.8509 4.96759 20.5168 5.51547 20.9995C6.06335 21.4822 6.76847 21.7485 7.49865 21.7485C8.22883 21.7485 8.93394 21.4822 9.48182 20.9995C10.0297 20.5168 10.3827 19.8509 10.4747 19.1265C10.5667 18.4021 10.3914 17.6691 9.9816 17.0648C9.57179 16.4604 8.95564 16.0263 8.24865 15.8438V9.75L10.0486 12.15C10.539 12.8006 11.1734 13.3288 11.9021 13.6932C12.6308 14.0575 13.4339 14.2481 14.2486 14.25H16.5924C16.7327 14.7932 17.0224 15.2862 17.4288 15.673C17.8352 16.0598 18.3419 16.3249 18.8914 16.4382C19.4409 16.5515 20.0111 16.5084 20.5373 16.3139C21.0636 16.1194 21.5247 15.7812 21.8684 15.3377C22.2121 14.8943 22.4245 14.3633 22.4816 13.8052C22.5386 13.2471 22.4381 12.6841 22.1913 12.1803C21.9445 11.6765 21.5613 11.2519 21.0854 10.9549C20.6094 10.6579 20.0597 10.5003 19.4986 10.5ZM8.99865 18.75C8.99865 19.0467 8.91067 19.3367 8.74585 19.5834C8.58103 19.83 8.34676 20.0223 8.07267 20.1358C7.79858 20.2494 7.49698 20.2791 7.20601 20.2212C6.91504 20.1633 6.64777 20.0204 6.43799 19.8107C6.22821 19.6009 6.08535 19.3336 6.02747 19.0426C5.96959 18.7517 5.9993 18.4501 6.11283 18.176C6.22636 17.9019 6.41862 17.6676 6.66529 17.5028C6.91197 17.338 7.20197 17.25 7.49865 17.25C7.89647 17.25 8.278 17.408 8.55931 17.6893C8.84061 17.9706 8.99865 18.3522 8.99865 18.75ZM19.4986 15C19.1008 15 18.7193 14.842 18.438 14.5607C18.1567 14.2794 17.9986 13.8978 17.9986 13.5C17.9986 13.2033 18.0866 12.9133 18.2514 12.6666C18.4163 12.42 18.6505 12.2277 18.9246 12.1142C19.1987 12.0007 19.5003 11.9709 19.7913 12.0288C20.0823 12.0867 20.3495 12.2296 20.5593 12.4393C20.7691 12.6491 20.9119 12.9164 20.9698 13.2074C21.0277 13.4983 20.998 13.7999 20.8845 14.074C20.7709 14.3481 20.5787 14.5824 20.332 14.7472C20.0853 14.912 19.7953 15 19.4986 15Z" fill="black"/>
</svg>
