<svg width="24" height="24" viewBox="0 0 24 24" fill="none" xmlns="http://www.w3.org/2000/svg">
<path d="M11.25 15V19.5C11.25 19.6989 11.171 19.8897 11.0303 20.0303C10.8897 20.171 10.6989 20.25 10.5 20.25H6.00001C5.8011 20.25 5.61033 20.171 5.46968 20.0303C5.32903 19.8897 5.25001 19.6989 5.25001 19.5C5.25001 19.3011 5.32903 19.1103 5.46968 18.9697C5.61033 18.829 5.8011 18.75 6.00001 18.75H8.6897L6.03751 16.0988C5.54864 15.6122 5.16105 15.0336 4.89715 14.3964C4.63324 13.7592 4.49826 13.076 4.50001 12.3863V8.90626C3.79301 8.72372 3.17687 8.28959 2.76706 7.68526C2.35725 7.08092 2.18191 6.34787 2.27392 5.62351C2.36592 4.89915 2.71895 4.23321 3.26683 3.75052C3.81471 3.26783 4.51983 3.00153 5.25001 3.00153C5.98019 3.00153 6.6853 3.26783 7.23318 3.75052C7.78106 4.23321 8.13409 4.89915 8.2261 5.62351C8.3181 6.34787 8.14277 7.08092 7.73296 7.68526C7.32315 8.28959 6.707 8.72372 6.00001 8.90626V12.3872C5.99875 12.8797 6.09521 13.3675 6.28382 13.8225C6.47242 14.2774 6.74942 14.6904 7.09876 15.0375L9.75001 17.6897V15C9.75001 14.8011 9.82903 14.6103 9.96968 14.4697C10.1103 14.329 10.3011 14.25 10.5 14.25C10.6989 14.25 10.8897 14.329 11.0303 14.4697C11.171 14.6103 11.25 14.8011 11.25 15ZM19.5 15.0938V11.6138C19.5018 10.9241 19.3668 10.2408 19.1029 9.60361C18.839 8.96639 18.4514 8.38779 17.9625 7.90126L15.3103 5.25001H18C18.1989 5.25001 18.3897 5.171 18.5303 5.03034C18.671 4.88969 18.75 4.69893 18.75 4.50001C18.75 4.3011 18.671 4.11034 18.5303 3.96968C18.3897 3.82903 18.1989 3.75001 18 3.75001H13.5C13.3011 3.75001 13.1103 3.82903 12.9697 3.96968C12.829 4.11034 12.75 4.3011 12.75 4.50001V9.00001C12.75 9.19893 12.829 9.38969 12.9697 9.53034C13.1103 9.67099 13.3011 9.75001 13.5 9.75001C13.6989 9.75001 13.8897 9.67099 14.0303 9.53034C14.171 9.38969 14.25 9.19893 14.25 9.00001V6.31033L16.9013 8.96251C17.2507 9.30975 17.5278 9.7229 17.7164 10.178C17.905 10.6331 18.0014 11.1211 18 11.6138V15.0938C17.293 15.2763 16.6769 15.7104 16.2671 16.3148C15.8572 16.9191 15.6819 17.6522 15.7739 18.3765C15.8659 19.1009 16.219 19.7668 16.7668 20.2495C17.3147 20.7322 18.0198 20.9985 18.75 20.9985C19.4802 20.9985 20.1853 20.7322 20.7332 20.2495C21.2811 19.7668 21.6341 19.1009 21.7261 18.3765C21.8181 17.6522 21.6428 16.9191 21.233 16.3148C20.8232 15.7104 20.207 15.2763 19.5 15.0938Z" fill="black"/>
</svg>
