<svg width="24" height="24" viewBox="0 0 24 24" fill="none" xmlns="http://www.w3.org/2000/svg">
<path d="M21 6.00001C20.9997 5.43898 20.8421 4.88926 20.5451 4.4133C20.2481 3.93733 19.8236 3.55419 19.3197 3.30739C18.8159 3.06059 18.2529 2.96002 17.6948 3.01709C17.1367 3.07417 16.6057 3.28661 16.1623 3.63028C15.7188 3.97396 15.3806 4.4351 15.1861 4.96133C14.9916 5.48756 14.9485 6.0578 15.0618 6.60728C15.1751 7.15676 15.4402 7.66346 15.827 8.06985C16.2138 8.47623 16.7068 8.76601 17.25 8.90626V9.75001C17.25 10.1478 17.092 10.5294 16.8107 10.8107C16.5294 11.092 16.1478 11.25 15.75 11.25H9.00001C8.47303 11.2494 7.95536 11.3888 7.50001 11.6541V8.90626C8.207 8.72372 8.82315 8.28959 9.23296 7.68526C9.64277 7.08092 9.8181 6.34788 9.7261 5.62351C9.63409 4.89915 9.28106 4.23321 8.73318 3.75052C8.1853 3.26783 7.48019 3.00153 6.75001 3.00153C6.01983 3.00153 5.31471 3.26783 4.76683 3.75052C4.21895 4.23321 3.86592 4.89915 3.77392 5.62351C3.68191 6.34788 3.85725 7.08092 4.26706 7.68526C4.67687 8.28959 5.29301 8.72372 6.00001 8.90626V15.0938C5.29301 15.2763 4.67687 15.7104 4.26706 16.3148C3.85725 16.9191 3.68191 17.6522 3.77392 18.3765C3.86592 19.1009 4.21895 19.7668 4.76683 20.2495C5.31471 20.7322 6.01983 20.9985 6.75001 20.9985C7.48019 20.9985 8.1853 20.7322 8.73318 20.2495C9.28106 19.7668 9.63409 19.1009 9.7261 18.3765C9.8181 17.6522 9.64277 16.9191 9.23296 16.3148C8.82315 15.7104 8.207 15.2763 7.50001 15.0938V14.25C7.50001 13.8522 7.65804 13.4707 7.93935 13.1894C8.22065 12.9081 8.60218 12.75 9.00001 12.75H15.75C16.5457 12.75 17.3087 12.4339 17.8713 11.8713C18.4339 11.3087 18.75 10.5457 18.75 9.75001V8.90626C19.3937 8.73906 19.9638 8.36305 20.371 7.83714C20.7782 7.31122 20.9994 6.66512 21 6.00001ZM5.25001 6.00001C5.25001 5.70334 5.33798 5.41333 5.5028 5.16666C5.66762 4.91999 5.90189 4.72773 6.17598 4.6142C6.45007 4.50066 6.75167 4.47096 7.04264 4.52884C7.33361 4.58671 7.60089 4.72958 7.81067 4.93935C8.02045 5.14913 8.16331 5.41641 8.22119 5.70738C8.27906 5.99835 8.24936 6.29995 8.13583 6.57404C8.02229 6.84813 7.83004 7.0824 7.58336 7.24722C7.33669 7.41204 7.04668 7.50001 6.75001 7.50001C6.35218 7.50001 5.97065 7.34198 5.68935 7.06067C5.40804 6.77937 5.25001 6.39784 5.25001 6.00001ZM8.25001 18C8.25001 18.2967 8.16203 18.5867 7.99721 18.8334C7.83239 19.08 7.59812 19.2723 7.32403 19.3858C7.04994 19.4994 6.74834 19.5291 6.45737 19.4712C6.1664 19.4133 5.89913 19.2705 5.68935 19.0607C5.47957 18.8509 5.33671 18.5836 5.27883 18.2927C5.22095 18.0017 5.25066 17.7001 5.36419 17.426C5.47772 17.1519 5.66998 16.9176 5.91665 16.7528C6.16333 16.588 6.45334 16.5 6.75001 16.5C7.14783 16.5 7.52936 16.6581 7.81067 16.9394C8.09197 17.2207 8.25001 17.6022 8.25001 18Z" fill="black"/>
</svg>
