<svg width="24" height="24" viewBox="0 0 24 24" fill="none" xmlns="http://www.w3.org/2000/svg">
<path d="M21.5768 10.9781L19.7112 3.84374C19.6518 3.61203 19.5198 3.40543 19.3344 3.25423C19.1491 3.10302 18.9202 3.01516 18.6813 3.00353C18.4423 2.99189 18.206 3.05709 18.0068 3.18957C17.8077 3.32205 17.6562 3.51484 17.5746 3.73968L15.9171 8.24999H8.08334L6.42584 3.7378C6.34406 3.513 6.19241 3.3203 5.99313 3.18797C5.79384 3.05563 5.5574 2.99063 5.31847 3.00247C5.07955 3.01432 4.8507 3.1024 4.66548 3.2538C4.48026 3.40519 4.34842 3.61195 4.28928 3.84374L2.42365 10.9781C2.14811 12.0281 2.19776 13.1369 2.56604 14.1581C2.93431 15.1792 3.60387 16.0645 4.48615 16.6969L11.3552 21.5494C11.5436 21.6824 11.7686 21.7538 11.9993 21.7538C12.2299 21.7538 12.4549 21.6824 12.6433 21.5494L19.5124 16.6969C20.395 16.0647 21.065 15.1795 21.4336 14.1584C21.8022 13.1373 21.8521 12.0283 21.5768 10.9781ZM3.81397 11.6344L10.6999 16.5L8.7574 17.8734L5.3524 15.4687C4.75821 15.042 4.29792 14.4548 4.02546 13.7759C3.75299 13.0969 3.67963 12.3544 3.81397 11.6353V11.6344ZM12.0002 20.1656L10.0568 18.7922L12.0002 17.4187L13.9437 18.7912L12.0002 20.1656ZM18.648 15.4687L15.243 17.8744L13.3005 16.5L20.1865 11.6344C20.321 12.3536 20.2477 13.0963 19.9752 13.7754C19.7028 14.4545 19.2424 15.0419 18.648 15.4687Z" fill="black"/>
</svg>
