<svg width="24" height="24" viewBox="0 0 24 24" fill="none" xmlns="http://www.w3.org/2000/svg">
<path d="M19.5124 16.6931L12.6433 21.5456C12.4549 21.6787 12.2299 21.7501 11.9993 21.7501C11.7686 21.7501 11.5436 21.6787 11.3552 21.5456L4.48615 16.6931C3.60387 16.0607 2.93431 15.1754 2.56604 14.1543C2.19776 13.1332 2.14811 12.0243 2.42365 10.9744L4.28834 3.84374C4.34771 3.61203 4.47974 3.40543 4.66508 3.25423C4.85042 3.10302 5.07932 3.01516 5.31823 3.00353C5.55714 2.99189 5.7935 3.05709 5.99266 3.18957C6.19181 3.32205 6.3433 3.51484 6.4249 3.73968L8.0824 8.24999H15.9162L17.5737 3.7378C17.6554 3.513 17.8071 3.3203 18.0064 3.18797C18.2057 3.05563 18.4421 2.99063 18.681 3.00247C18.9199 3.01432 19.1488 3.1024 19.334 3.2538C19.5192 3.40519 19.6511 3.61195 19.7102 3.84374L21.5758 10.98C21.85 12.0292 21.7996 13.137 21.4312 14.157C21.0628 15.1769 20.3938 16.0612 19.5124 16.6931Z" fill="black"/>
</svg>
