<svg width="24" height="24" viewBox="0 0 24 24" fill="none" xmlns="http://www.w3.org/2000/svg">
<path d="M4.49985 9C4.49985 7.51664 4.93972 6.06659 5.76383 4.83322C6.58794 3.59985 7.75928 2.63856 9.12972 2.0709C10.5002 1.50324 12.0082 1.35472 13.463 1.64411C14.9179 1.9335 16.2543 2.6478 17.3031 3.6967C18.352 4.74559 19.0663 6.08196 19.3557 7.53682C19.6451 8.99168 19.4966 10.4997 18.9289 11.8701C18.3613 13.2406 17.4 14.4119 16.1666 15.236C14.9333 16.0601 13.4832 16.5 11.9998 16.5C10.0114 16.4978 8.10505 15.7069 6.69901 14.3008C5.29298 12.8948 4.50208 10.9884 4.49985 9ZM18.2305 15.495C16.5322 17.1299 14.2603 18.0333 11.9031 18.0109C9.54584 17.9885 7.29149 17.0421 5.6246 15.3752C3.95771 13.7084 3.01136 11.454 2.98897 9.09678C2.96658 6.73955 3.86993 4.46763 5.50485 2.76937C5.57485 2.6987 5.6301 2.61481 5.66736 2.52258C5.70463 2.43035 5.72318 2.33163 5.72194 2.23216C5.72069 2.1327 5.69967 2.03447 5.66009 1.94321C5.62052 1.85195 5.56319 1.76947 5.49143 1.70057C5.41968 1.63168 5.33494 1.57775 5.24214 1.54192C5.14934 1.50609 5.05035 1.48908 4.95091 1.49187C4.85148 1.49467 4.75359 1.51722 4.66296 1.55821C4.57232 1.5992 4.49074 1.6578 4.42297 1.73062C3.04236 3.16974 2.10013 4.97227 1.70653 6.92733C1.31294 8.88238 1.48425 10.9091 2.20042 12.7703C2.9166 14.6316 4.14802 16.2504 5.7506 17.4374C7.35319 18.6243 9.26066 19.3303 11.2498 19.4728V21H8.99985C8.80094 21 8.61017 21.079 8.46952 21.2197C8.32887 21.3603 8.24985 21.5511 8.24985 21.75C8.24985 21.9489 8.32887 22.1397 8.46952 22.2803C8.61017 22.421 8.80094 22.5 8.99985 22.5H14.9998C15.1988 22.5 15.3895 22.421 15.5302 22.2803C15.6708 22.1397 15.7498 21.9489 15.7498 21.75C15.7498 21.5511 15.6708 21.3603 15.5302 21.2197C15.3895 21.079 15.1988 21 14.9998 21H12.7498V19.4737C15.196 19.3048 17.5044 18.2791 19.2692 16.5769C19.342 16.5091 19.4007 16.4275 19.4416 16.3369C19.4826 16.2463 19.5052 16.1484 19.508 16.0489C19.5108 15.9495 19.4938 15.8505 19.4579 15.7577C19.4221 15.6649 19.3682 15.5802 19.2993 15.5084C19.2304 15.4367 19.1479 15.3793 19.0566 15.3398C18.9654 15.3002 18.8671 15.2792 18.7677 15.2779C18.6682 15.2767 18.5695 15.2952 18.4773 15.3325C18.385 15.3697 18.3011 15.425 18.2305 15.495Z" fill="black"/>
</svg>
