<svg width="24" height="24" viewBox="0 0 24 24" fill="none" xmlns="http://www.w3.org/2000/svg">
<path d="M15 9.75V10.5C15 11.2956 14.6839 12.0587 14.1213 12.6213C13.5587 13.1839 12.7957 13.5 12 13.5C11.2044 13.5 10.4413 13.1839 9.87868 12.6213C9.31607 12.0587 9 11.2956 9 10.5V9.75C9 8.95435 9.31607 8.19129 9.87868 7.62868C10.4413 7.06607 11.2044 6.75 12 6.75C12.7957 6.75 13.5587 7.06607 14.1213 7.62868C14.6839 8.19129 15 8.95435 15 9.75ZM21.75 12C21.75 13.9284 21.1782 15.8134 20.1068 17.4168C19.0355 19.0202 17.5127 20.2699 15.7312 21.0078C13.9496 21.7458 11.9892 21.9389 10.0979 21.5627C8.20656 21.1865 6.46928 20.2579 5.10571 18.8943C3.74215 17.5307 2.81355 15.7934 2.43735 13.9021C2.06114 12.0108 2.25422 10.0504 2.99218 8.26884C3.73013 6.48726 4.97982 4.96451 6.58319 3.89317C8.18657 2.82183 10.0716 2.25 12 2.25C14.585 2.25273 17.0634 3.28084 18.8913 5.10872C20.7192 6.93661 21.7473 9.41498 21.75 12ZM16.5 6C16.5 5.80109 16.421 5.61032 16.2803 5.46967C16.1397 5.32902 15.9489 5.25 15.75 5.25C15.5511 5.25 15.3603 5.32902 15.2197 5.46967C15.079 5.61032 15 5.80109 15 6V6.39937C14.3527 5.82044 13.5518 5.44116 12.6938 5.30728C11.8358 5.1734 10.9573 5.29063 10.1645 5.64485C9.3716 5.99906 8.69816 6.57512 8.22538 7.30354C7.7526 8.03195 7.50068 8.8816 7.5 9.75V10.5C7.50068 11.3684 7.7526 12.218 8.22538 12.9465C8.69816 13.6749 9.3716 14.2509 10.1645 14.6052C10.9573 14.9594 11.8358 15.0766 12.6938 14.9427C13.5518 14.8088 14.3527 14.4296 15 13.8506V15C15 15.6296 14.8019 16.2433 14.4337 16.7541C14.0656 17.2649 13.546 17.6469 12.9487 17.8461C12.3514 18.0452 11.7065 18.0513 11.1055 17.8635C10.5045 17.6758 9.97779 17.3037 9.6 16.8C9.54091 16.7212 9.46687 16.6548 9.38212 16.6046C9.29738 16.5545 9.20357 16.5215 9.10607 16.5075C9.00857 16.4936 8.90928 16.499 8.81387 16.5235C8.71846 16.5479 8.6288 16.5909 8.55 16.65C8.47121 16.7091 8.40483 16.7831 8.35465 16.8679C8.30447 16.9526 8.27147 17.0464 8.25754 17.1439C8.24361 17.2414 8.24903 17.3407 8.27347 17.4361C8.29791 17.5315 8.34091 17.6212 8.4 17.7C8.96669 18.4556 9.75674 19.0137 10.6583 19.2953C11.5598 19.5769 12.527 19.5677 13.423 19.2691C14.319 18.9704 15.0984 18.3974 15.6506 17.6312C16.2028 16.865 16.5 15.9445 16.5 15V6Z" fill="black"/>
</svg>
