<svg width="24" height="24" viewBox="0 0 24 24" fill="none" xmlns="http://www.w3.org/2000/svg">
<g clip-path="url(#clip0_639_9919)">
<path d="M22.8105 10.9387L13.0605 1.18871C12.9212 1.04924 12.7557 0.938606 12.5736 0.86312C12.3915 0.787633 12.1964 0.748779 11.9992 0.748779C11.8021 0.748779 11.6069 0.787633 11.4248 0.86312C11.2427 0.938606 11.0773 1.04924 10.938 1.18871L1.18798 10.9387C1.04851 11.078 0.937874 11.2435 0.862387 11.4255C0.786901 11.6076 0.748047 11.8028 0.748047 12C0.748047 12.1971 0.786901 12.3923 0.862387 12.5744C0.937874 12.7565 1.04851 12.9219 1.18798 13.0612L10.938 22.8112C11.0773 22.9507 11.2427 23.0613 11.4248 23.1368C11.6069 23.2123 11.8021 23.2511 11.9992 23.2511C12.1964 23.2511 12.3915 23.2123 12.5736 23.1368C12.7557 23.0613 12.9212 22.9507 13.0605 22.8112L22.8105 13.0612C22.9499 12.9219 23.0606 12.7565 23.1361 12.5744C23.2116 12.3923 23.2504 12.1971 23.2504 12C23.2504 11.8028 23.2116 11.6076 23.1361 11.4255C23.0606 11.2435 22.9499 11.078 22.8105 10.9387ZM5.24923 12.75C5.24923 12.9489 5.17021 13.1396 5.02956 13.2803C4.88891 13.4209 4.69814 13.5 4.49923 13.5C4.30031 13.5 4.10955 13.4209 3.9689 13.2803C3.82825 13.1396 3.74923 12.9489 3.74923 12.75V11.25C3.74923 11.051 3.82825 10.8603 3.9689 10.7196C4.10955 10.579 4.30031 10.5 4.49923 10.5C4.69814 10.5 4.88891 10.579 5.02956 10.7196C5.17021 10.8603 5.24923 11.051 5.24923 11.25V12.75ZM8.99923 16.5C8.99923 16.6989 8.92021 16.8896 8.77956 17.0303C8.63891 17.1709 8.44814 17.25 8.24923 17.25C8.05032 17.25 7.85955 17.1709 7.7189 17.0303C7.57825 16.8896 7.49923 16.6989 7.49923 16.5V15C7.49923 14.801 7.57825 14.6103 7.7189 14.4696C7.85955 14.329 8.05032 14.25 8.24923 14.25C8.44814 14.25 8.63891 14.329 8.77956 14.4696C8.92021 14.6103 8.99923 14.801 8.99923 15V16.5ZM8.99923 12C8.99923 12.1989 8.92021 12.3896 8.77956 12.5303C8.63891 12.6709 8.44814 12.75 8.24923 12.75C8.05032 12.75 7.85955 12.6709 7.7189 12.5303C7.57825 12.3896 7.49923 12.1989 7.49923 12V7.49996C7.49923 7.30105 7.57825 7.11028 7.7189 6.96963C7.85955 6.82898 8.05032 6.74996 8.24923 6.74996C8.44814 6.74996 8.63891 6.82898 8.77956 6.96963C8.92021 7.11028 8.99923 7.30105 8.99923 7.49996V12ZM12.7492 20.25C12.7492 20.4489 12.6702 20.6396 12.5296 20.7803C12.3889 20.9209 12.1981 21 11.9992 21C11.8003 21 11.6096 20.9209 11.4689 20.7803C11.3282 20.6396 11.2492 20.4489 11.2492 20.25V18.75C11.2492 18.551 11.3282 18.3603 11.4689 18.2196C11.6096 18.079 11.8003 18 11.9992 18C12.1981 18 12.3889 18.079 12.5296 18.2196C12.6702 18.3603 12.7492 18.551 12.7492 18.75V20.25ZM12.7492 15.75C12.7492 15.9489 12.6702 16.1396 12.5296 16.2803C12.3889 16.4209 12.1981 16.5 11.9992 16.5C11.8003 16.5 11.6096 16.4209 11.4689 16.2803C11.3282 16.1396 11.2492 15.9489 11.2492 15.75V8.24996C11.2492 8.05105 11.3282 7.86028 11.4689 7.71963C11.6096 7.57898 11.8003 7.49996 11.9992 7.49996C12.1981 7.49996 12.3889 7.57898 12.5296 7.71963C12.6702 7.86028 12.7492 8.05105 12.7492 8.24996V15.75ZM12.7492 5.24996C12.7492 5.44887 12.6702 5.63964 12.5296 5.78029C12.3889 5.92094 12.1981 5.99996 11.9992 5.99996C11.8003 5.99996 11.6096 5.92094 11.4689 5.78029C11.3282 5.63964 11.2492 5.44887 11.2492 5.24996V3.74996C11.2492 3.55105 11.3282 3.36028 11.4689 3.21963C11.6096 3.07898 11.8003 2.99996 11.9992 2.99996C12.1981 2.99996 12.3889 3.07898 12.5296 3.21963C12.6702 3.36028 12.7492 3.55105 12.7492 3.74996V5.24996ZM16.4992 16.5C16.4992 16.6989 16.4202 16.8896 16.2796 17.0303C16.1389 17.1709 15.9481 17.25 15.7492 17.25C15.5503 17.25 15.3595 17.1709 15.2189 17.0303C15.0782 16.8896 14.9992 16.6989 14.9992 16.5V12C14.9992 11.801 15.0782 11.6103 15.2189 11.4696C15.3595 11.329 15.5503 11.25 15.7492 11.25C15.9481 11.25 16.1389 11.329 16.2796 11.4696C16.4202 11.6103 16.4992 11.801 16.4992 12V16.5ZM16.4992 8.99996C16.4992 9.19887 16.4202 9.38964 16.2796 9.53029C16.1389 9.67094 15.9481 9.74996 15.7492 9.74996C15.5503 9.74996 15.3595 9.67094 15.2189 9.53029C15.0782 9.38964 14.9992 9.19887 14.9992 8.99996V7.49996C14.9992 7.30105 15.0782 7.11028 15.2189 6.96963C15.3595 6.82898 15.5503 6.74996 15.7492 6.74996C15.9481 6.74996 16.1389 6.82898 16.2796 6.96963C16.4202 7.11028 16.4992 7.30105 16.4992 7.49996V8.99996ZM20.2492 12.75C20.2492 12.9489 20.1702 13.1396 20.0296 13.2803C19.8889 13.4209 19.6981 13.5 19.4992 13.5C19.3003 13.5 19.1096 13.4209 18.9689 13.2803C18.8282 13.1396 18.7492 12.9489 18.7492 12.75V11.25C18.7492 11.051 18.8282 10.8603 18.9689 10.7196C19.1096 10.579 19.3003 10.5 19.4992 10.5C19.6981 10.5 19.8889 10.579 20.0296 10.7196C20.1702 10.8603 20.2492 11.051 20.2492 11.25V12.75Z" fill="black"/>
</g>
<defs>
<clipPath id="clip0_639_9919">
<rect width="24" height="24" fill="white"/>
</clipPath>
</defs>
</svg>
