<svg width="24" height="24" viewBox="0 0 24 24" fill="none" xmlns="http://www.w3.org/2000/svg">
<path d="M22.2746 14.2294L15.8555 3.70501C15.7213 3.48869 15.5339 3.31034 15.3112 3.18693C15.0885 3.06353 14.8379 2.99918 14.5834 3.00001H9.41491C9.16044 2.99916 8.91 3.06351 8.68746 3.18692C8.46492 3.31034 8.2777 3.4887 8.14366 3.70501L8.13898 3.71157L1.72835 14.2219C1.58456 14.4517 1.50575 14.7162 1.5003 14.9873C1.49486 15.2584 1.56297 15.5258 1.69741 15.7613L4.25866 20.2444C4.38987 20.4739 4.57941 20.6647 4.80809 20.7974C5.03677 20.9301 5.29646 21 5.56085 21H18.4374C18.7018 21 18.9615 20.9301 19.1902 20.7974C19.4189 20.6647 19.6084 20.4739 19.7396 20.2444L22.3009 15.7613C22.4354 15.5274 22.5041 15.2615 22.4994 14.9917C22.4948 14.7219 22.4171 14.4585 22.2746 14.2294ZM20.5309 14.25H16.1734L12.8743 8.7497L15.0071 5.1947L20.5309 14.25ZM8.67429 15.75H15.3249L17.5749 19.5H6.42429L8.67429 15.75ZM9.57429 14.25L11.9996 10.2075L14.4249 14.25H9.57429ZM8.99116 5.1947L11.1249 8.7497L7.82491 14.25H3.46835L8.99116 5.1947Z" fill="black"/>
</svg>
