<svg width="24" height="24" viewBox="0 0 24 24" fill="none" xmlns="http://www.w3.org/2000/svg">
<path d="M21 4.5H3C2.60218 4.5 2.22064 4.65804 1.93934 4.93934C1.65804 5.22064 1.5 5.60218 1.5 6V18C1.5 18.3978 1.65804 18.7794 1.93934 19.0607C2.22064 19.342 2.60218 19.5 3 19.5H8.68969C8.88674 19.5006 9.08196 19.4621 9.26398 19.3866C9.44601 19.3111 9.61122 19.2002 9.75 19.0603L11.7347 17.0756C11.7695 17.0408 11.8109 17.0131 11.8564 16.9942C11.9019 16.9754 11.9507 16.9656 12 16.9656C12.0493 16.9656 12.0981 16.9754 12.1436 16.9942C12.1891 17.0131 12.2305 17.0408 12.2653 17.0756L14.25 19.0613C14.389 19.2008 14.5542 19.3115 14.7362 19.3868C14.9182 19.4621 15.1133 19.5006 15.3103 19.5H21C21.3978 19.5 21.7794 19.342 22.0607 19.0607C22.342 18.7794 22.5 18.3978 22.5 18V6C22.5 5.60218 22.342 5.22064 22.0607 4.93934C21.7794 4.65804 21.3978 4.5 21 4.5ZM7.5 14.25C7.05499 14.25 6.61998 14.118 6.24997 13.8708C5.87996 13.6236 5.59157 13.2722 5.42127 12.861C5.25097 12.4499 5.20642 11.9975 5.29323 11.561C5.38005 11.1246 5.59434 10.7237 5.90901 10.409C6.22368 10.0943 6.62459 9.88005 7.06105 9.79323C7.4975 9.70642 7.9499 9.75097 8.36104 9.92127C8.77217 10.0916 9.12357 10.38 9.37081 10.75C9.61804 11.12 9.75 11.555 9.75 12C9.75 12.5967 9.51295 13.169 9.09099 13.591C8.66903 14.0129 8.09674 14.25 7.5 14.25ZM16.5 14.25C16.055 14.25 15.62 14.118 15.25 13.8708C14.88 13.6236 14.5916 13.2722 14.4213 12.861C14.251 12.4499 14.2064 11.9975 14.2932 11.561C14.38 11.1246 14.5943 10.7237 14.909 10.409C15.2237 10.0943 15.6246 9.88005 16.061 9.79323C16.4975 9.70642 16.9499 9.75097 17.361 9.92127C17.7722 10.0916 18.1236 10.38 18.3708 10.75C18.618 11.12 18.75 11.555 18.75 12C18.75 12.5967 18.5129 13.169 18.091 13.591C17.669 14.0129 17.0967 14.25 16.5 14.25Z" fill="black"/>
</svg>
