<svg width="24" height="24" viewBox="0 0 24 24" fill="none" xmlns="http://www.w3.org/2000/svg">
<path d="M19.5 5.24998C18.4787 5.25007 17.4663 5.44083 16.515 5.81248C15.1725 3.02811 12.4603 1.64436 12.3366 1.58155C12.2324 1.52941 12.1175 1.50226 12.0009 1.50226C11.8844 1.50226 11.7695 1.52941 11.6653 1.58155C11.5406 1.64155 8.82844 3.0253 7.48594 5.81248C6.53433 5.44072 5.52165 5.24995 4.5 5.24998C4.30109 5.24998 4.11032 5.329 3.96967 5.46965C3.82902 5.61031 3.75 5.80107 3.75 5.99998V13.5C3.75245 15.4839 4.46878 17.4007 5.76807 18.9001C7.06736 20.3994 8.86281 21.381 10.8263 21.6656C10.8794 21.6726 10.9335 21.6681 10.9848 21.6524C11.036 21.6367 11.0834 21.6102 11.1235 21.5746C11.1637 21.5391 11.1958 21.4953 11.2176 21.4463C11.2394 21.3973 11.2505 21.3442 11.25 21.2906V16.5253C11.2476 16.3318 11.3185 16.1446 11.4483 16.0011C11.5782 15.8577 11.7575 15.7686 11.9503 15.7519C12.0529 15.745 12.1558 15.7594 12.2526 15.794C12.3494 15.8287 12.4381 15.8828 12.5131 15.9532C12.5881 16.0235 12.6478 16.1085 12.6885 16.2029C12.7293 16.2973 12.7502 16.399 12.75 16.5019V21.2962C12.7495 21.3499 12.7606 21.403 12.7824 21.452C12.8042 21.501 12.8363 21.5447 12.8765 21.5802C12.9166 21.6158 12.964 21.6423 13.0152 21.658C13.0665 21.6737 13.1206 21.6782 13.1737 21.6712C15.1381 21.3865 16.9344 20.404 18.2338 18.9036C19.5332 17.4031 20.2489 15.4849 20.25 13.5V5.99998C20.25 5.80107 20.171 5.61031 20.0303 5.46965C19.8897 5.329 19.6989 5.24998 19.5 5.24998ZM11.25 14.0119C10.5622 13.0315 9.66922 12.2127 8.63309 11.6122C7.59697 11.0118 6.44254 10.6441 5.25 10.5347V6.79123C6.89935 6.97771 8.42243 7.76454 9.52895 9.00177C10.6355 10.239 11.2481 11.8401 11.25 13.5V14.0119ZM12 10.065C11.3173 8.58422 10.214 7.3371 8.8275 6.47905C9.69094 4.67811 11.3025 3.54186 12 3.11342C12.6984 3.5428 14.3091 4.67905 15.1725 6.47905C13.786 7.3371 12.6827 8.58422 12 10.065ZM18.75 10.5337C17.5575 10.6431 16.403 11.0108 15.3669 11.6113C14.3308 12.2118 13.4378 13.0306 12.75 14.0109V13.5C12.7519 11.8401 13.3645 10.239 14.471 9.00177C15.5776 7.76454 17.1006 6.97771 18.75 6.79123V10.5337Z" fill="black"/>
</svg>
