<svg width="24" height="24" viewBox="0 0 24 24" fill="none" xmlns="http://www.w3.org/2000/svg">
<path d="M5.05519 3.24562C4.98932 3.17137 4.90938 3.11094 4.81999 3.06782C4.7306 3.0247 4.63354 2.99975 4.53443 2.99442C4.43533 2.98909 4.33615 3.00348 4.24265 3.03676C4.14915 3.07004 4.06318 3.12155 3.98973 3.1883C3.91628 3.25505 3.85681 3.33571 3.81477 3.42561C3.77272 3.51551 3.74894 3.61287 3.74479 3.71203C3.74065 3.81119 3.75623 3.91019 3.79063 4.00329C3.82503 4.09638 3.87756 4.18172 3.94519 4.25437L4.85738 5.25843C4.73863 5.25281 4.61956 5.24999 4.50019 5.24999C4.30128 5.24999 4.11051 5.32901 3.96986 5.46966C3.82921 5.61031 3.75019 5.80108 3.75019 5.99999V13.5C3.75027 15.1203 4.22747 16.7047 5.12225 18.0555C6.01702 19.4063 7.28976 20.4637 8.78166 21.0959C10.2736 21.728 11.9186 21.9068 13.5114 21.61C15.1043 21.3132 16.5745 20.5539 17.7386 19.4269L18.9452 20.7544C19.0111 20.8286 19.091 20.889 19.1804 20.9322C19.2698 20.9753 19.3668 21.0002 19.4659 21.0056C19.5651 21.0109 19.6642 20.9965 19.7577 20.9632C19.8512 20.9299 19.9372 20.8784 20.0106 20.8117C20.0841 20.7449 20.1436 20.6643 20.1856 20.5744C20.2277 20.4845 20.2514 20.3871 20.2556 20.288C20.2597 20.1888 20.2441 20.0898 20.2097 19.9967C20.1753 19.9036 20.1228 19.8183 20.0552 19.7456L5.05519 3.24562ZM12.0002 15.3159C11.3943 13.9962 10.4513 12.8595 9.26636 12.0201C8.08138 11.1808 6.69616 10.6684 5.25019 10.5347V6.79124C5.66927 6.83802 6.08299 6.92434 6.48581 7.04906L12.7774 13.9687C12.4765 14.3924 12.2163 14.8434 12.0002 15.3159ZM20.2502 5.99999V13.5C20.2506 14.2412 20.1513 14.979 19.9549 15.6937C19.9193 15.8232 19.8497 15.9407 19.7532 16.034C19.6567 16.1274 19.537 16.1931 19.4064 16.2244C19.3493 16.2382 19.2908 16.2451 19.2321 16.245C19.1275 16.245 19.0242 16.2231 18.9286 16.1808C18.833 16.1385 18.7474 16.0767 18.6771 15.9994L15.5533 12.5625C15.4758 12.4771 15.419 12.3749 15.3873 12.2639C15.3557 12.153 15.3501 12.0362 15.371 11.9227C15.3918 11.8093 15.4386 11.7021 15.5076 11.6097C15.5766 11.5172 15.6661 11.4419 15.7689 11.3897C16.6984 10.9152 17.7106 10.6243 18.7502 10.5328V6.79218C17.8155 6.89846 16.9132 7.19806 16.1005 7.67192C15.2879 8.14579 14.5827 8.78356 14.0299 9.54468C13.9721 9.6247 13.8991 9.69256 13.8151 9.74437C13.731 9.79619 13.6376 9.83094 13.5402 9.84665C13.4427 9.86237 13.3431 9.85873 13.247 9.83595C13.151 9.81318 13.0604 9.7717 12.9803 9.7139C12.9003 9.6561 12.8325 9.5831 12.7807 9.49907C12.7288 9.41505 12.6941 9.32164 12.6784 9.22418C12.6627 9.12672 12.6663 9.02712 12.6891 8.93107C12.7119 8.83502 12.7533 8.74439 12.8111 8.66437C13.4468 7.78886 14.2482 7.04669 15.1699 6.47999C14.3083 4.66874 12.6986 3.53812 12.0002 3.11249C11.1768 3.61856 10.4367 4.24916 9.80644 4.98187C9.67616 5.12726 9.49433 5.21612 9.29957 5.22958C9.10482 5.24304 8.91249 5.18003 8.76345 5.05394C8.61442 4.92785 8.52042 4.74862 8.50143 4.55433C8.48244 4.36003 8.53995 4.16599 8.66175 4.01343C9.50278 3.02278 10.5199 2.19635 11.6618 1.57593C11.7659 1.52379 11.8809 1.49664 11.9974 1.49664C12.1139 1.49664 12.2288 1.52379 12.333 1.57593C12.4568 1.63781 15.1708 3.02249 16.5133 5.80874C17.4657 5.43897 18.4785 5.2495 19.5002 5.24999C19.6991 5.24999 19.8899 5.32901 20.0305 5.46966C20.1712 5.61031 20.2502 5.80108 20.2502 5.99999Z" fill="black"/>
</svg>
