<svg width="24" height="24" viewBox="0 0 24 24" fill="none" xmlns="http://www.w3.org/2000/svg">
<g clip-path="url(#clip0_639_9713)">
<path d="M23.0311 3.96937L20.0311 0.969367C19.904 0.842458 19.7356 0.765367 19.5565 0.752109C19.3774 0.73885 19.1995 0.790304 19.0551 0.897117C18.9107 1.00393 18.8095 1.15901 18.7697 1.33416C18.73 1.50931 18.7545 1.6929 18.8386 1.85155L13.1743 7.51499C11.0377 6.40312 8.64519 6.49593 7.19581 7.94437C6.81332 8.32849 6.51371 8.78701 6.3155 9.29155C6.25463 9.42834 6.15533 9.54449 6.02967 9.62588C5.90401 9.70727 5.7574 9.75039 5.60769 9.74999C4.23988 9.79593 3.05206 10.2862 2.17175 11.1666C1.03925 12.3019 0.563001 13.9312 0.819876 15.7566C1.06925 17.5031 1.97581 19.2328 3.3755 20.625C4.77519 22.0172 6.50113 22.9275 8.2505 23.1769C8.56399 23.2237 8.88041 23.2481 9.19738 23.25C10.6336 23.25 11.9002 22.7597 12.8311 21.8287C13.7114 20.9484 14.2018 19.7606 14.2477 18.3928C14.2475 18.2428 14.2911 18.096 14.373 17.9703C14.4549 17.8446 14.5716 17.7454 14.7089 17.685C15.2135 17.4869 15.6721 17.1873 16.0561 16.8047C17.5046 15.3553 17.5974 12.9609 16.4855 10.8262L22.1489 5.16187C22.3076 5.24604 22.4912 5.27048 22.6663 5.23075C22.8415 5.19102 22.9966 5.08976 23.1034 4.94538C23.2102 4.80099 23.2616 4.62307 23.2484 4.44396C23.2351 4.26485 23.158 4.09645 23.0311 3.96937ZM8.78113 19.2797C8.64049 19.4202 8.4498 19.4992 8.25097 19.4992C8.05214 19.4992 7.86145 19.4202 7.72081 19.2797L4.72081 16.2797C4.58021 16.1389 4.50126 15.9481 4.50135 15.7492C4.50144 15.5503 4.58055 15.3595 4.72128 15.2189C4.86201 15.0783 5.05283 14.9993 5.25177 14.9994C5.4507 14.9995 5.64146 15.0786 5.78206 15.2194L8.78206 18.2194C8.92249 18.3601 9.00127 18.5509 9.00109 18.7497C9.00092 18.9485 8.9218 19.1392 8.78113 19.2797ZM12.7318 14.9803C12.3647 15.3475 11.897 15.5976 11.3877 15.699C10.8785 15.8004 10.3506 15.7485 9.87092 15.5498C9.3912 15.3512 8.98117 15.0147 8.69269 14.583C8.4042 14.1513 8.25022 13.6437 8.25022 13.1245C8.25022 12.6053 8.4042 12.0977 8.69269 11.666C8.98117 11.2343 9.3912 10.8979 9.87092 10.6992C10.3506 10.5006 10.8785 10.4487 11.3877 10.55C11.897 10.6514 12.3647 10.9015 12.7318 11.2687C13.2238 11.761 13.5002 12.4285 13.5002 13.1245C13.5002 13.8205 13.2238 14.4881 12.7318 14.9803ZM15.6436 9.5428C15.467 9.3245 15.2793 9.11548 15.0811 8.91655C14.8821 8.71816 14.6727 8.53039 14.4539 8.35405L16.5005 6.3103L17.6902 7.49999L15.6436 9.5428ZM18.7505 6.43874L17.5618 5.24999L19.8755 2.9353L21.0652 4.12499L18.7505 6.43874Z" fill="black"/>
</g>
<defs>
<clipPath id="clip0_639_9713">
<rect width="24" height="24" fill="white"/>
</clipPath>
</defs>
</svg>
