<svg width="24" height="24" viewBox="0 0 24 24" fill="none" xmlns="http://www.w3.org/2000/svg">
<g clip-path="url(#clip0_639_9683)">
<path d="M23.5638 10.5L17.2395 4.13254C15.5504 2.44685 13.2616 1.50012 10.8752 1.50012C8.48893 1.50012 6.20009 2.44685 4.51102 4.13254L4.50259 4.14098L3.21165 5.47504C3.07792 5.61875 3.00587 5.80917 3.01096 6.00541C3.01605 6.20165 3.09788 6.38807 3.23889 6.52466C3.37989 6.66124 3.56882 6.7371 3.76512 6.73594C3.96143 6.73479 4.14945 6.65671 4.28884 6.51848L5.57602 5.1891C6.09389 4.67134 6.68486 4.2323 7.33009 3.88598L11.6895 8.25004L2.68946 17.25C2.55014 17.3893 2.43962 17.5547 2.36421 17.7367C2.28881 17.9187 2.25 18.1138 2.25 18.3108C2.25 18.5078 2.28881 18.7029 2.36421 18.8849C2.43962 19.0669 2.55014 19.2323 2.68946 19.3716L4.62915 21.3113C4.76844 21.4506 4.93381 21.5611 5.11583 21.6365C5.29784 21.7119 5.49292 21.7508 5.68993 21.7508C5.88694 21.7508 6.08202 21.7119 6.26403 21.6365C6.44604 21.5611 6.61142 21.4506 6.75071 21.3113L15.7507 12.3113L18.7507 15.3113C18.89 15.4506 19.0554 15.5611 19.2374 15.6365C19.4194 15.7119 19.6145 15.7508 19.8115 15.7508C20.0085 15.7508 20.2036 15.7119 20.3856 15.6365C20.5676 15.5611 20.733 15.4506 20.8723 15.3113L23.562 12.6216C23.7014 12.4824 23.8121 12.3172 23.8876 12.1352C23.9632 11.9533 24.0022 11.7582 24.0024 11.5612C24.0025 11.3642 23.9639 11.1691 23.8887 10.987C23.8134 10.8049 23.703 10.6395 23.5638 10.5ZM15.2201 10.7185L13.1257 12.8129L11.186 10.875L13.2813 8.77973C13.3511 8.71007 13.4064 8.62736 13.4441 8.53631C13.4819 8.44526 13.5013 8.34767 13.5013 8.2491C13.5013 8.15054 13.4819 8.05295 13.4441 7.9619C13.4064 7.87085 13.3511 7.78813 13.2813 7.71848L8.84321 3.28129C10.1255 2.92016 11.4808 2.90707 12.7697 3.24337C14.0587 3.57966 15.2349 4.2532 16.1773 5.19473L20.3229 9.36754L17.6257 12.0619L16.2813 10.7175C16.2117 10.6478 16.129 10.5925 16.0379 10.5547C15.9469 10.517 15.8493 10.4976 15.7507 10.4976C15.6521 10.4976 15.5546 10.517 15.4635 10.5547C15.3725 10.5925 15.2897 10.6478 15.2201 10.7175V10.7185ZM19.8138 14.2491L18.6888 13.1241L21.3757 10.4297L22.5007 11.5547L19.8138 14.2491Z" fill="black"/>
</g>
<defs>
<clipPath id="clip0_639_9683">
<rect width="24" height="24" fill="white"/>
</clipPath>
</defs>
</svg>
