<svg width="24" height="24" viewBox="0 0 24 24" fill="none" xmlns="http://www.w3.org/2000/svg">
<path d="M21.75 11.25V12C21.75 13.2833 21.4967 14.554 21.0045 15.7392C20.5124 16.9244 19.7911 18.0008 18.882 18.9066C17.973 19.8124 16.8941 20.5299 15.7071 21.0178C14.5202 21.5058 13.2486 21.7546 11.9653 21.75C6.90281 21.7322 2.77781 17.8069 2.29781 12.8644C2.29261 12.8 2.30412 12.7354 2.33124 12.6768C2.35836 12.6181 2.40016 12.5675 2.45259 12.5298C2.50503 12.4921 2.56632 12.4685 2.63052 12.4614C2.69473 12.4544 2.75967 12.464 2.81906 12.4894C3.49364 12.7726 4.24207 12.8285 4.95124 12.6487C5.66042 12.4689 6.29181 12.0632 6.75 11.4928C7.05022 11.8662 7.42664 12.1712 7.85413 12.3875C8.28163 12.6037 8.75034 12.7263 9.22898 12.747C9.70762 12.7677 10.1852 12.686 10.6297 12.5074C11.0743 12.3288 11.4756 12.0574 11.8069 11.7113C12.1105 12.2045 12.5233 12.6215 13.0134 12.93C12.465 13.3496 12.0206 13.89 11.7148 14.5091C11.409 15.1282 11.2499 15.8095 11.25 16.5C11.2496 16.604 11.2709 16.707 11.3125 16.8023C11.354 16.8977 11.415 16.9833 11.4914 17.0539C11.5678 17.1244 11.6581 17.1783 11.7565 17.212C11.8548 17.2458 11.9592 17.2587 12.0628 17.25C12.2531 17.2295 12.429 17.1388 12.5561 16.9956C12.6831 16.8525 12.7523 16.6671 12.75 16.4757C12.7564 15.6842 13.0753 14.9274 13.6373 14.3701C14.1992 13.8127 14.9586 13.5 15.75 13.5C15.8528 13.5003 15.9546 13.4793 16.049 13.4386C16.1434 13.3978 16.2284 13.3381 16.2987 13.2631C16.369 13.1881 16.4232 13.0994 16.4578 13.0026C16.4925 12.9058 16.5068 12.8029 16.5 12.7003C16.4832 12.5076 16.3942 12.3283 16.2507 12.1984C16.1073 12.0685 15.9201 11.9976 15.7266 12H15C14.4033 12 13.831 11.763 13.409 11.341C12.9871 10.9191 12.75 10.3468 12.75 9.75003V8.25003H18.75C19.5456 8.25003 20.3087 8.5661 20.8713 9.12871C21.4339 9.69132 21.75 10.4544 21.75 11.25ZM4.19344 11.25C5.20969 11.2125 6 10.3472 6 9.33003V7.17378C6 6.15284 5.20969 5.28753 4.19344 5.25003C3.94151 5.24083 3.69032 5.28252 3.45487 5.37262C3.21943 5.46272 3.00457 5.59937 2.82315 5.77441C2.64172 5.94944 2.49746 6.15927 2.39898 6.39133C2.3005 6.62339 2.24983 6.87293 2.25 7.12503V9.37503C2.24983 9.62712 2.3005 9.87666 2.39898 10.1087C2.49746 10.3408 2.64172 10.5506 2.82315 10.7256C3.00457 10.9007 3.21943 11.0373 3.45487 11.1274C3.69032 11.2175 3.94151 11.2592 4.19344 11.25ZM9.44344 11.25C10.4597 11.2135 11.25 10.3482 11.25 9.33097V4.92472C11.25 3.90753 10.4597 3.04222 9.44344 3.00565C9.19198 2.99647 8.94125 3.03799 8.70618 3.12774C8.47111 3.2175 8.25651 3.35365 8.07517 3.52808C7.89382 3.70251 7.74944 3.91167 7.65063 4.14307C7.55181 4.37448 7.50059 4.62341 7.5 4.87503V9.37503C7.49983 9.62712 7.5505 9.87666 7.64898 10.1087C7.74746 10.3408 7.89172 10.5506 8.07315 10.7256C8.25457 10.9007 8.46943 11.0373 8.70487 11.1274C8.94032 11.2175 9.19151 11.2592 9.44344 11.25ZM16.5 4.87503C16.5002 4.62293 16.4495 4.37339 16.351 4.14133C16.2525 3.90927 16.1083 3.69944 15.9269 3.52441C15.7454 3.34937 15.5306 3.21272 15.2951 3.12262C15.0597 3.03252 14.8085 2.99083 14.5566 3.00003C13.5403 3.03753 12.75 3.90284 12.75 4.92003V6.75003H16.125C16.2245 6.75003 16.3198 6.71052 16.3902 6.64019C16.4605 6.56987 16.5 6.47448 16.5 6.37503V4.87503Z" fill="black"/>
</svg>
