<svg width="24" height="24" viewBox="0 0 24 24" fill="none" xmlns="http://www.w3.org/2000/svg">
<path d="M22.0615 16.875L18.664 13.4766L15.2459 2.19937C15.1487 1.87825 14.9739 1.58605 14.7368 1.34865C14.4998 1.11125 14.2079 0.935969 13.8869 0.838344C13.5659 0.740719 13.2258 0.723759 12.8967 0.788967C12.5677 0.854175 12.2597 0.999538 12.0002 1.21218C11.7408 0.999538 11.4328 0.854175 11.1037 0.788967C10.7747 0.723759 10.4346 0.740719 10.1136 0.838344C9.79263 0.935969 9.50069 1.11125 9.26364 1.34865C9.0266 1.58605 8.85176 1.87825 8.75462 2.19937L5.33649 13.4775L1.93899 16.875C1.6579 17.1563 1.5 17.5377 1.5 17.9353C1.5 18.333 1.6579 18.7143 1.93899 18.9956L5.00368 22.0603C5.14297 22.1996 5.30835 22.3102 5.49036 22.3856C5.67237 22.461 5.86745 22.4998 6.06446 22.4998C6.26147 22.4998 6.45655 22.461 6.63857 22.3856C6.82058 22.3102 6.98595 22.1996 7.12524 22.0603L11.6515 17.5312C11.777 17.4055 11.8935 17.2711 12.0002 17.1291C12.107 17.2711 12.2235 17.4055 12.349 17.5312L16.8752 22.0612C17.0145 22.2006 17.1799 22.3111 17.3619 22.3865C17.5439 22.4619 17.739 22.5007 17.936 22.5007C18.133 22.5007 18.3281 22.4619 18.5101 22.3865C18.6921 22.3111 18.8575 22.2006 18.9968 22.0612L22.0615 18.9966C22.2008 18.8573 22.3113 18.6919 22.3867 18.5099C22.4621 18.3279 22.501 18.1328 22.501 17.9358C22.501 17.7388 22.4621 17.5437 22.3867 17.3617C22.3113 17.1797 22.2008 17.0143 22.0615 16.875ZM11.2502 14.8828C11.2517 15.1787 11.1945 15.4719 11.0819 15.7455C10.9692 16.019 10.8034 16.2675 10.594 16.4766L8.31399 18.75L5.25024 15.6862L6.52993 14.4056C6.61726 14.3183 6.68167 14.2107 6.71743 14.0925L10.1862 2.63437C10.2214 2.50687 10.302 2.39664 10.4128 2.32445C10.5236 2.25226 10.657 2.22311 10.7879 2.24247C10.9187 2.26184 11.038 2.32839 11.1231 2.42959C11.2083 2.53079 11.2535 2.65964 11.2502 2.79187V14.8828ZM15.6977 18.7622L13.4065 16.4737C13.1971 16.2647 13.0313 16.0162 12.9186 15.7426C12.806 15.4691 12.7487 15.1759 12.7502 14.88V2.78624C12.7503 2.65635 12.797 2.53079 12.8818 2.43243C12.9667 2.33408 13.084 2.26948 13.2125 2.25039C13.341 2.23131 13.4721 2.25901 13.5818 2.32845C13.6916 2.3979 13.7728 2.50447 13.8106 2.62874L17.2793 14.0869C17.3151 14.2051 17.3795 14.3126 17.4668 14.4L18.8252 15.7584L15.6977 18.7622Z" fill="black"/>
</svg>
