<svg width="24" height="24" viewBox="0 0 24 24" fill="none" xmlns="http://www.w3.org/2000/svg">
<path d="M15.7496 2.25V0.75C15.7496 0.551088 15.8286 0.360322 15.9692 0.21967C16.1099 0.0790176 16.3006 0 16.4996 0C16.6985 0 16.8892 0.0790176 17.0299 0.21967C17.1705 0.360322 17.2496 0.551088 17.2496 0.75V2.25C17.2496 2.44891 17.1705 2.63968 17.0299 2.78033C16.8892 2.92098 16.6985 3 16.4996 3C16.3006 3 16.1099 2.92098 15.9692 2.78033C15.8286 2.63968 15.7496 2.44891 15.7496 2.25ZM19.1086 3.84375C19.1927 3.89512 19.2861 3.92941 19.3834 3.94468C19.4808 3.95995 19.5801 3.95589 19.6759 3.93273C19.7717 3.90957 19.8619 3.86777 19.9416 3.80971C20.0212 3.75166 20.0886 3.67848 20.1399 3.59437L20.8899 2.36531C20.9421 2.28121 20.9771 2.1876 20.9929 2.0899C21.0088 1.99219 21.0051 1.89231 20.9822 1.79603C20.9592 1.69974 20.9175 1.60895 20.8593 1.52888C20.8011 1.44882 20.7276 1.38106 20.6431 1.32953C20.5586 1.27799 20.4647 1.2437 20.3669 1.22862C20.269 1.21354 20.1692 1.21797 20.0731 1.24166C19.977 1.26535 19.8865 1.30783 19.8069 1.36665C19.7273 1.42547 19.6601 1.49947 19.6092 1.58437L18.8592 2.8125C18.8078 2.89652 18.7735 2.98985 18.7581 3.08715C18.7428 3.18445 18.7468 3.28382 18.7699 3.37958C18.7929 3.47535 18.8346 3.56563 18.8926 3.64527C18.9506 3.72491 19.0237 3.79236 19.1077 3.84375H19.1086ZM23.5561 5.02406C23.4951 4.83493 23.3615 4.67775 23.1847 4.58704C23.0078 4.49634 22.8022 4.47953 22.613 4.54031L21.2067 4.995C21.0363 5.04951 20.8909 5.16319 20.7969 5.31552C20.7029 5.46784 20.6665 5.64876 20.6942 5.82559C20.7219 6.00242 20.812 6.1635 20.9481 6.27973C21.0842 6.39596 21.2574 6.45968 21.4364 6.45937C21.5147 6.45915 21.5925 6.44682 21.6671 6.42281L23.0733 5.96812C23.1673 5.93774 23.2544 5.88908 23.3296 5.82494C23.4047 5.7608 23.4665 5.68244 23.5112 5.59437C23.556 5.50629 23.5829 5.41024 23.5905 5.31172C23.598 5.21321 23.586 5.11418 23.5552 5.02031L23.5561 5.02406ZM20.7436 8.76844C21.5727 10.1949 21.9065 11.8556 21.6928 13.4916C21.4791 15.1276 20.73 16.6469 19.5624 17.8125C19.1573 19.2282 18.3444 20.4933 17.2252 21.4501C16.1059 22.4069 14.7298 23.013 13.2683 23.193C11.8069 23.3729 10.3248 23.1187 9.00685 22.462C7.68892 21.8052 6.59346 20.7751 5.85706 19.5L2.57581 13.8159C2.37547 13.4684 2.26398 13.0769 2.25123 12.676C2.23848 12.275 2.32487 11.8772 2.50273 11.5177C2.68059 11.1581 2.94443 10.8481 3.27084 10.6149C3.59725 10.3818 3.97615 10.2328 4.37393 10.1812L3.99893 9.53062C3.80169 9.18892 3.69035 8.80444 3.67446 8.41022C3.65858 8.016 3.73862 7.62381 3.90773 7.26734C4.07683 6.91087 4.32994 6.60078 4.64531 6.36371C4.96068 6.12663 5.32889 5.96965 5.71831 5.90625C5.52295 5.36866 5.52287 4.77949 5.71808 4.24184C5.91329 3.7042 6.29136 3.25233 6.78612 2.96531C7.23974 2.70351 7.76562 2.59478 8.28587 2.65523C8.80611 2.71568 9.29305 2.9421 9.67456 3.30094C9.90846 2.9633 10.2239 2.69025 10.5915 2.50713C10.9592 2.32401 11.3672 2.23678 11.7776 2.25352C12.188 2.27026 12.5875 2.39044 12.939 2.60289C13.2905 2.81534 13.5827 3.11318 13.7883 3.46875L14.9133 5.41781C15.1569 5.09906 15.4754 4.84537 15.8406 4.67924C16.2058 4.51311 16.6063 4.43967 17.0066 4.46546C17.407 4.49124 17.7948 4.61543 18.1356 4.82703C18.4764 5.03862 18.7598 5.33108 18.9605 5.67844L20.7436 8.76844ZM18.1486 17.3072C18.3549 16.5456 18.408 15.7507 18.305 14.9685C18.202 14.1863 17.9449 13.4322 17.5486 12.75L15.7674 9.66469C15.6475 9.45443 15.451 9.29866 15.2189 9.22999C14.9868 9.16131 14.7372 9.18505 14.5222 9.29623C14.3073 9.40741 14.1436 9.59742 14.0655 9.8265C13.9874 10.0556 14.001 10.306 14.1033 10.5253L15.1739 12.375C15.2232 12.4603 15.2551 12.5545 15.268 12.6522C15.2808 12.7498 15.2743 12.8491 15.2488 12.9442C15.2233 13.0394 15.1793 13.1286 15.1193 13.2067C15.0593 13.2849 14.9846 13.3504 14.8992 13.3997C14.8139 13.4489 14.7197 13.4809 14.6221 13.4937C14.5244 13.5066 14.4252 13.5001 14.33 13.4746C14.2349 13.4491 14.1457 13.4051 14.0675 13.3451C13.9894 13.2851 13.9238 13.2103 13.8746 13.125L10.5933 7.45594C10.4646 7.25209 10.2623 7.10568 10.0284 7.04711C9.79454 6.98854 9.5471 7.02232 9.33748 7.14142C9.12787 7.26053 8.9722 7.45581 8.90281 7.68669C8.83342 7.91758 8.85565 8.16632 8.96487 8.38125L11.273 12.375C11.3254 12.4604 11.3601 12.5554 11.3751 12.6544C11.3902 12.7534 11.3853 12.8544 11.3606 12.9515C11.336 13.0486 11.2922 13.1398 11.2318 13.2196C11.1713 13.2995 11.0955 13.3665 11.0088 13.4165C10.9221 13.4666 10.8262 13.4989 10.7268 13.5113C10.6274 13.5237 10.5266 13.5161 10.4302 13.489C10.3338 13.4618 10.2438 13.4156 10.1655 13.3531C10.0873 13.2906 10.0224 13.213 9.97456 13.125L6.92112 7.84312C6.86001 7.73564 6.77825 7.64131 6.68053 7.56556C6.58282 7.48981 6.47109 7.43413 6.35177 7.40174C6.23245 7.36935 6.1079 7.36087 5.9853 7.37681C5.86269 7.39275 5.74445 7.43278 5.63738 7.4946C5.5303 7.55642 5.43652 7.6388 5.36141 7.73702C5.28631 7.83523 5.23138 7.94733 5.19978 8.06686C5.16818 8.18639 5.16053 8.31099 5.17728 8.43349C5.19403 8.55599 5.23484 8.67396 5.29737 8.78062L6.79737 11.3794L8.67237 14.6269C8.72162 14.7122 8.75358 14.8064 8.76642 14.904C8.77927 15.0017 8.77275 15.101 8.74725 15.1961C8.72174 15.2913 8.67774 15.3805 8.61776 15.4586C8.55778 15.5367 8.483 15.6023 8.39768 15.6516C8.31237 15.7008 8.21818 15.7328 8.12051 15.7456C8.02284 15.7585 7.9236 15.7519 7.82845 15.7264C7.7333 15.7009 7.6441 15.6569 7.56596 15.597C7.48781 15.537 7.42224 15.4622 7.373 15.3769L5.498 12.1294C5.37279 11.9158 5.1682 11.7604 4.92886 11.6972C4.68952 11.6339 4.43486 11.6678 4.22047 11.7916C4.00607 11.9154 3.84934 12.119 3.78448 12.3579C3.71962 12.5968 3.75189 12.8517 3.87425 13.0669L7.1555 18.7509C7.74881 19.7788 8.63363 20.6076 9.69803 21.1325C10.7624 21.6575 11.9586 21.855 13.1352 21.7C14.3119 21.5451 15.4162 21.0447 16.3084 20.2621C17.2006 19.4795 17.8407 18.4498 18.1477 17.3034L18.1486 17.3072Z" fill="black"/>
</svg>
