<svg width="24" height="24" viewBox="0 0 24 24" fill="none" xmlns="http://www.w3.org/2000/svg">
<path d="M19.4996 12V16.7747C19.4996 19.1737 18.7046 20.5181 18.6709 20.5856C18.6085 20.7102 18.5127 20.815 18.3942 20.8882C18.2756 20.9614 18.139 21.0001 17.9996 21H5.24965C5.1189 21 4.99042 20.9658 4.87695 20.9009C4.76348 20.8359 4.66896 20.7424 4.60277 20.6297L1.70121 15C1.5996 14.8241 1.53476 14.6295 1.51063 14.4278C1.48649 14.2261 1.50357 14.0217 1.56081 13.8268C1.61805 13.6319 1.71427 13.4507 1.84364 13.2941C1.973 13.1376 2.13282 13.0089 2.3134 12.9159C3.03152 12.5409 3.91652 12.8372 4.31965 13.5366L6.2884 16.9528C6.34315 17.0512 6.42577 17.1311 6.52585 17.1827C6.62593 17.2342 6.73902 17.255 6.8509 17.2425H6.86215C7.0423 17.2115 7.20548 17.1172 7.32234 16.9766C7.4392 16.8361 7.50207 16.6584 7.49965 16.4756V5.24999C7.49941 5.04678 7.54047 4.84565 7.62032 4.65879C7.70018 4.47193 7.81717 4.30324 7.9642 4.16297C8.11122 4.02269 8.28521 3.91376 8.47562 3.84276C8.66602 3.77177 8.86886 3.74021 9.07184 3.74999C9.87902 3.78749 10.4996 4.48311 10.4996 5.2903V12C10.4994 12.1028 10.5203 12.2046 10.5611 12.299C10.6019 12.3934 10.6616 12.4784 10.7366 12.5487C10.8116 12.619 10.9002 12.6732 10.997 12.7078C11.0939 12.7424 11.1967 12.7568 11.2993 12.75C11.4922 12.7334 11.6716 12.6444 11.8016 12.501C11.9315 12.3575 12.0023 12.1701 11.9996 11.9766V10.5C11.9994 10.2968 12.0405 10.0956 12.1203 9.90879C12.2002 9.72193 12.3172 9.55324 12.4642 9.41297C12.6112 9.27269 12.7852 9.16376 12.9756 9.09276C13.166 9.02177 13.3689 8.99021 13.5718 8.99999C14.379 9.03749 14.9996 9.73312 14.9996 10.5403V12.75C14.9994 12.8528 15.0203 12.9546 15.0611 13.049C15.1019 13.1434 15.1616 13.2284 15.2366 13.2987C15.3116 13.369 15.4002 13.4232 15.497 13.4578C15.5939 13.4924 15.6967 13.5068 15.7993 13.5C15.9921 13.4832 16.1714 13.3942 16.3013 13.2507C16.4312 13.1073 16.502 12.92 16.4996 12.7266V12.0441C16.4996 11.2369 17.1203 10.5441 17.9275 10.5037C18.1301 10.494 18.3326 10.5254 18.5228 10.5962C18.713 10.6669 18.8868 10.7756 19.0337 10.9154C19.1807 11.0553 19.2978 11.2235 19.3779 11.41C19.4579 11.5964 19.4994 11.7971 19.4996 12ZM22.4996 4.49999H17.56L19.2803 2.78061C19.35 2.71093 19.4052 2.62821 19.4429 2.53716C19.4807 2.44612 19.5001 2.34854 19.5001 2.24999C19.5001 2.15144 19.4807 2.05386 19.4429 1.96282C19.4052 1.87177 19.35 1.78905 19.2803 1.71936C19.2106 1.64968 19.1279 1.59441 19.0368 1.55669C18.9458 1.51898 18.8482 1.49957 18.7496 1.49957C18.6511 1.49957 18.5535 1.51898 18.4625 1.55669C18.3714 1.59441 18.2887 1.64968 18.219 1.71936L15.219 4.71936C15.1493 4.78902 15.094 4.87174 15.0562 4.96278C15.0185 5.05383 14.9991 5.15143 14.9991 5.24999C14.9991 5.34855 15.0185 5.44615 15.0562 5.5372C15.094 5.62824 15.1493 5.71096 15.219 5.78061L18.219 8.78061C18.2887 8.8503 18.3714 8.90557 18.4625 8.94328C18.5535 8.981 18.6511 9.00041 18.7496 9.00041C18.8482 9.00041 18.9458 8.981 19.0368 8.94328C19.1279 8.90557 19.2106 8.8503 19.2803 8.78061C19.35 8.71093 19.4052 8.62821 19.4429 8.53716C19.4807 8.44612 19.5001 8.34854 19.5001 8.24999C19.5001 8.15144 19.4807 8.05386 19.4429 7.96282C19.4052 7.87177 19.35 7.78905 19.2803 7.71936L17.56 5.99999H22.4996C22.6986 5.99999 22.8893 5.92097 23.03 5.78032C23.1706 5.63967 23.2496 5.4489 23.2496 5.24999C23.2496 5.05108 23.1706 4.86031 23.03 4.71966C22.8893 4.57901 22.6986 4.49999 22.4996 4.49999Z" fill="black"/>
</svg>
