<svg width="24" height="24" viewBox="0 0 24 24" fill="none" xmlns="http://www.w3.org/2000/svg">
<path d="M17.2751 2.80596C17.3006 2.71078 17.3446 2.62155 17.4045 2.54336C17.4645 2.46518 17.5392 2.39957 17.6246 2.35029C17.7099 2.30102 17.8041 2.26903 17.9018 2.25617C17.9995 2.24331 18.0987 2.24982 18.1939 2.27534C19.6845 2.67565 20.9126 3.59815 21.6495 4.87503C21.749 5.04733 21.7759 5.25209 21.7244 5.44426C21.6729 5.63643 21.5471 5.80026 21.3748 5.89971C21.2025 5.99917 20.9978 6.0261 20.8056 5.97459C20.6134 5.92308 20.4496 5.79733 20.3501 5.62503C19.8139 4.69503 18.9101 4.02003 17.8058 3.72471C17.7106 3.69926 17.6213 3.65529 17.5432 3.59533C17.465 3.53538 17.3994 3.4606 17.3501 3.37528C17.3008 3.28996 17.2688 3.19577 17.256 3.09808C17.2431 3.00039 17.2496 2.90113 17.2751 2.80596ZM7.46045 21.1613C6.58107 20.4675 5.84607 19.5825 5.14951 18.375C5.10026 18.2897 5.0347 18.2149 4.95655 18.1549C4.8784 18.095 4.78921 18.051 4.69406 18.0255C4.59891 18 4.49966 17.9934 4.40199 18.0063C4.30432 18.0191 4.21014 18.0511 4.12482 18.1003C4.03951 18.1496 3.96472 18.2152 3.90474 18.2933C3.84477 18.3714 3.80077 18.4606 3.77526 18.5558C3.74975 18.6509 3.74324 18.7502 3.75608 18.8479C3.76893 18.9455 3.80089 19.0397 3.85014 19.125C4.64607 20.5032 5.49732 21.5241 6.53139 22.3388C6.68778 22.4591 6.88529 22.5129 7.08111 22.4886C7.27693 22.4643 7.45528 22.3638 7.57751 22.2089C7.69974 22.054 7.75599 21.8572 7.73408 21.6611C7.71216 21.465 7.61385 21.2854 7.46045 21.1613ZM18.3926 5.4769C18.2955 5.30375 18.1649 5.15161 18.0085 5.0293C17.8521 4.907 17.673 4.81695 17.4816 4.76439C17.2901 4.71183 17.0901 4.6978 16.8932 4.72312C16.6963 4.74843 16.5064 4.81259 16.3344 4.91187C16.1625 5.01115 16.012 5.14357 15.8916 5.30146C15.7712 5.45935 15.6834 5.63956 15.6332 5.83166C15.583 6.02375 15.5714 6.22389 15.5992 6.42048C15.6269 6.61707 15.6934 6.8062 15.7948 6.9769L17.2948 9.57471C17.3441 9.66003 17.3761 9.75421 17.3889 9.85188C17.4018 9.94956 17.3953 10.0488 17.3698 10.144C17.3442 10.2391 17.3002 10.3283 17.2403 10.4065C17.1803 10.4846 17.1055 10.5502 17.0201 10.5994C16.3312 10.9973 15.8285 11.6525 15.6226 12.421C15.4168 13.1894 15.5246 14.0082 15.9223 14.6972C16.0218 14.8695 16.0487 15.0743 15.9972 15.2664C15.9457 15.4586 15.8199 15.6224 15.6476 15.7219C15.4753 15.8214 15.2706 15.8483 15.0784 15.7968C14.8862 15.7453 14.7224 15.6195 14.6229 15.4472C14.0925 14.5255 13.905 13.446 14.0937 12.3994C14.2825 11.3529 14.8352 10.4068 15.6542 9.72846L11.8714 3.18003C11.6725 2.83541 11.3448 2.58393 10.9605 2.4809C10.5761 2.37787 10.1666 2.43174 9.82201 2.63065C9.4774 2.82956 9.22591 3.15723 9.12288 3.54156C9.01986 3.92589 9.07372 4.33541 9.27264 4.68003L12.2726 9.87659C12.3659 10.0484 12.3884 10.2498 12.3354 10.438C12.2824 10.6261 12.158 10.7862 11.9887 10.8839C11.8194 10.9817 11.6186 11.0095 11.4291 10.9615C11.2396 10.9134 11.0764 10.7932 10.9742 10.6266L7.2242 4.13065C7.02529 3.78604 6.69762 3.53455 6.31329 3.43153C5.92896 3.3285 5.51944 3.38236 5.17482 3.58128C4.83021 3.78019 4.57872 4.10785 4.4757 4.49219C4.37267 4.87652 4.42654 5.28604 4.62545 5.63065L8.75045 12.7753C8.80281 12.8607 8.83754 12.9557 8.85259 13.0547C8.86764 13.1537 8.86271 13.2548 8.83808 13.3519C8.81346 13.4489 8.76964 13.5401 8.70921 13.62C8.64878 13.6998 8.57296 13.7668 8.48624 13.8169C8.39951 13.867 8.30363 13.8992 8.20425 13.9116C8.10488 13.9241 8.00401 13.9165 7.90762 13.8893C7.81122 13.8621 7.72124 13.8159 7.64299 13.7534C7.56474 13.6909 7.4998 13.6134 7.45201 13.5253L4.82701 8.9794C4.72852 8.80877 4.59738 8.6592 4.44109 8.53924C4.2848 8.41929 4.1064 8.33129 3.9161 8.28028C3.7258 8.22926 3.52731 8.21623 3.33198 8.24192C3.13664 8.26762 2.94827 8.33154 2.77764 8.43003C2.607 8.52852 2.45743 8.65965 2.33748 8.81595C2.21752 8.97224 2.12952 9.15063 2.07851 9.34093C2.02749 9.53124 2.01446 9.72972 2.04016 9.92506C2.06585 10.1204 2.12977 10.3088 2.22826 10.4794L6.35326 17.6241C7.44981 19.514 9.25128 20.8917 11.3624 21.4549C13.4735 22.0181 15.7218 21.7209 17.6141 20.6284C19.5063 19.5359 20.8879 17.7374 21.4557 15.6275C22.0234 13.5176 21.731 11.2687 20.6426 9.37409L18.3926 5.4769Z" fill="black"/>
</svg>
