<svg width="24" height="24" viewBox="0 0 24 24" fill="none" xmlns="http://www.w3.org/2000/svg">
<path d="M19.4996 12V16.7747C19.4996 19.1737 18.7046 20.5181 18.6709 20.5856C18.6085 20.7102 18.5127 20.815 18.3942 20.8882C18.2756 20.9614 18.139 21.0001 17.9996 21H5.24965C5.1189 21 4.99042 20.9658 4.87695 20.9009C4.76348 20.8359 4.66896 20.7424 4.60277 20.6297L1.70121 15C1.5996 14.8241 1.53476 14.6295 1.51063 14.4278C1.48649 14.2261 1.50357 14.0217 1.56081 13.8268C1.61805 13.6319 1.71427 13.4507 1.84364 13.2941C1.973 13.1376 2.13282 13.0089 2.3134 12.9159C3.03152 12.5409 3.91652 12.8372 4.31965 13.5366L6.2884 16.9528C6.34315 17.0512 6.42577 17.1311 6.52585 17.1827C6.62593 17.2342 6.73902 17.255 6.8509 17.2425H6.86215C7.0423 17.2115 7.20548 17.1172 7.32234 16.9766C7.4392 16.8361 7.50207 16.6584 7.49965 16.4756V5.24999C7.49941 5.04678 7.54047 4.84565 7.62032 4.65879C7.70018 4.47193 7.81717 4.30324 7.96419 4.16297C8.11122 4.02269 8.28521 3.91376 8.47562 3.84276C8.66602 3.77177 8.86886 3.74021 9.07183 3.74999C9.87902 3.78749 10.4996 4.48311 10.4996 5.2903V12C10.4994 12.1028 10.5203 12.2046 10.5611 12.299C10.6019 12.3934 10.6616 12.4784 10.7366 12.5487C10.8116 12.619 10.9002 12.6732 10.997 12.7078C11.0938 12.7424 11.1967 12.7568 11.2993 12.75C11.4922 12.7334 11.6716 12.6444 11.8016 12.501C11.9315 12.3575 12.0023 12.1701 11.9996 11.9766V10.5C11.9994 10.2968 12.0405 10.0956 12.1203 9.90879C12.2002 9.72193 12.3172 9.55324 12.4642 9.41297C12.6112 9.27269 12.7852 9.16376 12.9756 9.09276C13.166 9.02177 13.3689 8.99021 13.5718 8.99999C14.379 9.03749 14.9996 9.73312 14.9996 10.5403V12.75C14.9994 12.8528 15.0203 12.9546 15.0611 13.049C15.1019 13.1434 15.1616 13.2284 15.2366 13.2987C15.3116 13.369 15.4002 13.4232 15.497 13.4578C15.5938 13.4924 15.6967 13.5068 15.7993 13.5C15.9921 13.4832 16.1714 13.3942 16.3013 13.2507C16.4312 13.1073 16.502 12.92 16.4996 12.7266V12.0441C16.4996 11.2369 17.1203 10.5441 17.9275 10.5037C18.1301 10.494 18.3326 10.5254 18.5228 10.5962C18.713 10.6669 18.8868 10.7756 19.0337 10.9154C19.1807 11.0553 19.2978 11.2235 19.3779 11.41C19.4579 11.5964 19.4994 11.7971 19.4996 12ZM23.0303 4.71936L20.0303 1.71936C19.8895 1.57863 19.6987 1.49957 19.4996 1.49957C19.3006 1.49957 19.1098 1.57863 18.969 1.71936C18.8283 1.8601 18.7492 2.05097 18.7492 2.24999C18.7492 2.44901 18.8283 2.63988 18.969 2.78061L20.6893 4.49999H15.7496C15.5507 4.49999 15.36 4.57901 15.2193 4.71966C15.0787 4.86031 14.9996 5.05108 14.9996 5.24999C14.9996 5.4489 15.0787 5.63967 15.2193 5.78032C15.36 5.92097 15.5507 5.99999 15.7496 5.99999H20.6893L18.969 7.71936C18.8283 7.8601 18.7492 8.05097 18.7492 8.24999C18.7492 8.44901 18.8283 8.63988 18.969 8.78061C19.1098 8.92135 19.3006 9.00041 19.4996 9.00041C19.6987 9.00041 19.8895 8.92135 20.0303 8.78061L23.0303 5.78061C23.1 5.71096 23.1553 5.62824 23.1931 5.5372C23.2308 5.44615 23.2502 5.34855 23.2502 5.24999C23.2502 5.15143 23.2308 5.05383 23.1931 4.96278C23.1553 4.87174 23.1 4.78902 23.0303 4.71936Z" fill="black"/>
</svg>
