<svg width="24" height="24" viewBox="0 0 24 24" fill="none" xmlns="http://www.w3.org/2000/svg">
<path d="M20.2496 6.00003V14.5247C20.2496 18.856 16.795 22.4513 12.4684 22.4991C11.4183 22.5133 10.3761 22.3165 9.40343 21.9205C8.43077 21.5245 7.54748 20.9374 6.8059 20.1938C4.76121 18.031 2.45121 12.75 2.45121 12.75C2.3496 12.5742 2.28476 12.3795 2.26063 12.1778C2.23649 11.9762 2.25357 11.7717 2.31081 11.5768C2.36805 11.382 2.46427 11.2008 2.59364 11.0442C2.723 10.8876 2.88282 10.7589 3.0634 10.666C3.78152 10.291 4.66652 10.5872 5.06965 11.2866L7.0384 14.7028C7.09315 14.8012 7.17577 14.8812 7.27585 14.9327C7.37593 14.9843 7.48902 15.0051 7.6009 14.9925H7.61215C7.7923 14.9615 7.95548 14.8673 8.07234 14.7267C8.1892 14.5861 8.25207 14.4084 8.24965 14.2257V4.50003C8.24941 4.29682 8.29047 4.09569 8.37032 3.90883C8.45018 3.72197 8.56717 3.55328 8.7142 3.41301C8.86122 3.27273 9.03521 3.1638 9.22562 3.0928C9.41602 3.02181 9.61886 2.99025 9.82184 3.00003C10.629 3.03753 11.2496 3.73315 11.2496 4.54034V10.5C11.2494 10.6028 11.2703 10.7046 11.3111 10.799C11.3519 10.8934 11.4116 10.9784 11.4866 11.0487C11.5616 11.1191 11.6502 11.1732 11.747 11.2079C11.8439 11.2425 11.9467 11.2568 12.0493 11.25C12.2422 11.2335 12.4216 11.1445 12.5516 11.001C12.6815 10.8575 12.7523 10.6701 12.7496 10.4766V3.00003C12.7494 2.79682 12.7905 2.59569 12.8703 2.40883C12.9502 2.22197 13.0672 2.05328 13.2142 1.91301C13.3612 1.77273 13.5352 1.6638 13.7256 1.5928C13.916 1.52181 14.1189 1.49025 14.3218 1.50003C15.129 1.53753 15.7496 2.23315 15.7496 3.04034V11.25C15.7494 11.3528 15.7703 11.4546 15.8111 11.549C15.8519 11.6434 15.9116 11.7284 15.9866 11.7987C16.0616 11.8691 16.1502 11.9232 16.247 11.9579C16.3439 11.9925 16.4467 12.0068 16.5493 12C16.7422 11.9835 16.9216 11.8945 17.0516 11.751C17.1815 11.6075 17.2523 11.4201 17.2496 11.2266V6.04222C17.2496 5.23503 17.8703 4.54222 18.6775 4.5019C18.8803 4.49213 19.083 4.52364 19.2732 4.59452C19.4635 4.66539 19.6374 4.77416 19.7844 4.91424C19.9314 5.05431 20.0485 5.22277 20.1284 5.40941C20.2084 5.59605 20.2496 5.79698 20.2496 6.00003Z" fill="black"/>
</svg>
