<svg width="24" height="24" viewBox="0 0 24 24" fill="none" xmlns="http://www.w3.org/2000/svg">
<path d="M5.25073 6C5.25073 4.80653 5.72483 3.66193 6.56875 2.81802C7.41266 1.97411 8.55725 1.5 9.75073 1.5C10.9442 1.5 12.0888 1.97411 12.9327 2.81802C13.7766 3.66193 14.2507 4.80653 14.2507 6C14.2507 6.19891 14.1717 6.38968 14.0311 6.53033C13.8904 6.67098 13.6996 6.75 13.5007 6.75C13.3018 6.75 13.111 6.67098 12.9704 6.53033C12.8297 6.38968 12.7507 6.19891 12.7507 6C12.7507 5.20435 12.4347 4.44129 11.872 3.87868C11.3094 3.31607 10.5464 3 9.75073 3C8.95508 3 8.19202 3.31607 7.62941 3.87868C7.0668 4.44129 6.75073 5.20435 6.75073 6C6.75073 6.19891 6.67171 6.38968 6.53106 6.53033C6.3904 6.67098 6.19964 6.75 6.00073 6.75C5.80181 6.75 5.61105 6.67098 5.4704 6.53033C5.32974 6.38968 5.25073 6.19891 5.25073 6ZM18.6785 11.25C17.8714 11.2875 17.2507 11.9831 17.2507 12.7903V13.4728C17.2533 13.6664 17.1826 13.8537 17.0526 13.9972C16.9227 14.1407 16.7433 14.2297 16.5504 14.2463C16.4478 14.2531 16.3449 14.2387 16.2481 14.2041C16.1513 14.1694 16.0627 14.1153 15.9877 14.045C15.9127 13.9746 15.8529 13.8896 15.8122 13.7952C15.7714 13.7008 15.7505 13.5991 15.7507 13.4963V11.2922C15.7507 10.485 15.1301 9.79219 14.3229 9.75187C14.1201 9.7421 13.9174 9.77361 13.7271 9.84449C13.5369 9.91536 13.363 10.0241 13.216 10.1642C13.069 10.3043 12.9519 10.4727 12.872 10.6594C12.792 10.846 12.7507 11.047 12.7507 11.25V12.7247C12.7533 12.9182 12.6826 13.1056 12.5526 13.2491C12.4227 13.3926 12.2433 13.4816 12.0504 13.4981C11.9478 13.5049 11.8449 13.4906 11.7481 13.456C11.6513 13.4213 11.5627 13.3672 11.4877 13.2968C11.4127 13.2265 11.3529 13.1415 11.3122 13.0471C11.2714 12.9527 11.2505 12.8509 11.2507 12.7481V6.04219C11.2507 5.235 10.6301 4.54219 9.82291 4.50187C9.6201 4.4921 9.41741 4.52361 9.22714 4.59449C9.03686 4.66536 8.86295 4.77413 8.71595 4.91421C8.56895 5.05428 8.45193 5.22274 8.37196 5.40938C8.29199 5.59602 8.25074 5.79695 8.25073 6V17.2256C8.25301 17.407 8.19099 17.5833 8.07567 17.7234C7.96035 17.8634 7.79918 17.9581 7.62073 17.9906H7.60948C7.4976 18.0032 7.38451 17.9824 7.28443 17.9308C7.18434 17.8793 7.10173 17.7993 7.04698 17.7009L5.07823 14.2847C4.6751 13.5853 3.7901 13.2937 3.07198 13.6641C2.89051 13.7564 2.72973 13.8846 2.59943 14.041C2.46913 14.1975 2.37204 14.3788 2.31406 14.5739C2.25609 14.7691 2.23844 14.974 2.26221 15.1762C2.28597 15.3784 2.35064 15.5736 2.45229 15.75L5.35854 21.3797C5.42433 21.4918 5.5181 21.5848 5.63068 21.6497C5.74326 21.7146 5.87077 21.7492 6.00073 21.75H18.7507C18.8901 21.7501 19.0267 21.7114 19.1452 21.6382C19.2638 21.565 19.3596 21.4602 19.422 21.3356C19.4557 21.2681 20.2507 19.9237 20.2507 17.5247V12.75C20.251 12.5468 20.2099 12.3457 20.13 12.1588C20.0502 11.9719 19.9332 11.8033 19.7862 11.663C19.6392 11.5227 19.4652 11.4138 19.2748 11.3428C19.0844 11.2718 18.8815 11.2402 18.6785 11.25Z" fill="black"/>
</svg>
