<svg width="24" height="24" viewBox="0 0 24 24" fill="none" xmlns="http://www.w3.org/2000/svg">
<path d="M20.2496 9.75003V14.5247C20.2496 18.856 16.795 22.4513 12.4684 22.4991C11.4183 22.5133 10.3761 22.3165 9.40343 21.9205C8.43077 21.5245 7.54748 20.9374 6.8059 20.1938C4.76121 18.031 2.45121 12.75 2.45121 12.75C2.3496 12.5742 2.28476 12.3795 2.26063 12.1778C2.23649 11.9762 2.25357 11.7717 2.31081 11.5768C2.36805 11.382 2.46427 11.2008 2.59364 11.0442C2.723 10.8876 2.88282 10.7589 3.0634 10.666C3.78152 10.291 4.66652 10.5872 5.06965 11.2866L7.0384 14.7028C7.09315 14.8012 7.17577 14.8812 7.27585 14.9327C7.37593 14.9843 7.48902 15.0051 7.6009 14.9925H7.61215C7.7923 14.9615 7.95548 14.8673 8.07234 14.7267C8.1892 14.5861 8.25207 14.4084 8.24965 14.2257V3.00003C8.24941 2.79682 8.29047 2.59569 8.37032 2.40883C8.45018 2.22197 8.56717 2.05328 8.7142 1.91301C8.86122 1.77273 9.03521 1.6638 9.22562 1.5928C9.41602 1.52181 9.61886 1.49025 9.82184 1.50003C10.629 1.53753 11.2496 2.23315 11.2496 3.04034V9.75003C11.2494 9.85285 11.2703 9.95461 11.3111 10.049C11.3519 10.1434 11.4116 10.2284 11.4866 10.2987C11.5616 10.3691 11.6502 10.4232 11.747 10.4579C11.8439 10.4925 11.9467 10.5068 12.0493 10.5C12.2422 10.4835 12.4216 10.3945 12.5516 10.251C12.6815 10.1075 12.7523 9.92014 12.7496 9.72659V8.25003C12.7494 8.04682 12.7905 7.84569 12.8703 7.65883C12.9502 7.47197 13.0672 7.30328 13.2142 7.16301C13.3612 7.02273 13.5352 6.9138 13.7256 6.8428C13.916 6.77181 14.1189 6.74025 14.3218 6.75003C15.129 6.78753 15.7496 7.48315 15.7496 8.29034V10.5C15.7494 10.6028 15.7703 10.7046 15.8111 10.799C15.8519 10.8934 15.9116 10.9784 15.9866 11.0487C16.0616 11.1191 16.1502 11.1732 16.247 11.2079C16.3439 11.2425 16.4467 11.2568 16.5493 11.25C16.7422 11.2335 16.9216 11.1445 17.0516 11.001C17.1815 10.8575 17.2523 10.6701 17.2496 10.4766V9.79409C17.2496 8.9869 17.8703 8.29409 18.6775 8.25378C18.8801 8.24401 19.0826 8.27546 19.2728 8.34623C19.463 8.41699 19.6368 8.52559 19.7837 8.66546C19.9307 8.80534 20.0478 8.97357 20.1279 9.15999C20.2079 9.34641 20.2494 9.54714 20.2496 9.75003Z" fill="black"/>
</svg>
