<svg width="24" height="24" viewBox="0 0 24 24" fill="none" xmlns="http://www.w3.org/2000/svg">
<path d="M21.75 12.75V18C21.75 18.5967 21.5129 19.169 21.091 19.591C20.669 20.0129 20.0967 20.25 19.5 20.25H18C17.4033 20.25 16.831 20.0129 16.409 19.591C15.9871 19.169 15.75 18.5967 15.75 18V14.25C15.75 13.6533 15.9871 13.081 16.409 12.659C16.831 12.237 17.4033 12 18 12H20.2172C20.037 9.95821 19.1008 8.05732 17.592 6.66993C16.0832 5.28253 14.1106 4.50865 12.0609 4.5H12C9.94173 4.49989 7.95776 5.26918 6.43759 6.65683C4.91742 8.04448 3.97087 9.95025 3.78375 12H6C6.59674 12 7.16903 12.237 7.59099 12.659C8.01295 13.081 8.25 13.6533 8.25 14.25V18C8.25 18.5967 8.01295 19.169 7.59099 19.591C7.16903 20.0129 6.59674 20.25 6 20.25H4.5C3.90326 20.25 3.33097 20.0129 2.90901 19.591C2.48705 19.169 2.25 18.5967 2.25 18V12.75C2.2521 10.8186 2.82715 8.93134 3.90235 7.32696C4.97755 5.72258 6.50456 4.47325 8.29012 3.7371C10.0757 3.00096 12.0395 2.8111 13.933 3.19156C15.8265 3.57201 17.5646 4.50567 18.9272 5.87437C19.8268 6.77841 20.5393 7.85108 21.0237 9.03092C21.5081 10.2108 21.7549 11.4746 21.75 12.75Z" fill="black"/>
</svg>
