<svg width="24" height="24" viewBox="0 0 24 24" fill="none" xmlns="http://www.w3.org/2000/svg">
<path d="M22.4997 9.18748C22.5013 9.90171 22.3613 10.6092 22.0878 11.2689C21.8142 11.9287 21.4125 12.5277 20.906 13.0312L12.5341 21.5269C12.4643 21.5977 12.3811 21.654 12.2894 21.6924C12.1977 21.7308 12.0992 21.7506 11.9997 21.7506C11.9003 21.7506 11.8018 21.7308 11.7101 21.6924C11.6183 21.654 11.5352 21.5977 11.4654 21.5269L3.0935 13.0312C2.07283 12.0118 1.49893 10.6287 1.49805 9.18611C1.49717 7.74354 2.06938 6.35971 3.08881 5.33904C4.10823 4.31837 5.49137 3.74447 6.93393 3.74359C8.3765 3.74271 9.76033 4.31493 10.781 5.33435L11.9997 6.47342L13.2269 5.3306C13.9886 4.57272 14.9577 4.05748 16.012 3.84994C17.0662 3.64241 18.1584 3.75187 19.1505 4.16452C20.1426 4.57716 20.9902 5.27449 21.5863 6.16847C22.1824 7.06244 22.5002 8.11299 22.4997 9.18748Z" fill="black"/>
</svg>
