<svg width="24" height="24" viewBox="0 0 24 24" fill="none" xmlns="http://www.w3.org/2000/svg">
<path d="M22.4822 9.3281C21.9956 15.6487 12.7603 20.6934 12.3572 20.91C12.248 20.9687 12.1259 20.9995 12.0019 20.9995C11.8779 20.9995 11.7558 20.9687 11.6466 20.91C11.2313 20.6878 1.5 15.375 1.5 8.81248C1.49974 7.75954 1.7855 6.72631 2.32675 5.82314C2.86801 4.91998 3.64443 4.1808 4.5731 3.68455C5.50176 3.18831 6.54778 2.95365 7.59943 3.00562C8.65108 3.0576 9.66886 3.39427 10.5441 3.97966C10.5904 4.01042 10.6294 4.05111 10.6581 4.09878C10.6868 4.14646 10.7045 4.19992 10.71 4.2553C10.7155 4.31068 10.7086 4.36659 10.6898 4.41896C10.6709 4.47133 10.6407 4.51886 10.6012 4.5581L9.34875 5.81248C9.2082 5.95311 9.12925 6.14381 9.12925 6.34263C9.12925 6.54146 9.2082 6.73215 9.34875 6.87279L12.3984 9.92248L10.4062 11.9062C10.3337 11.9752 10.2756 12.058 10.2356 12.1497C10.1955 12.2414 10.1742 12.3403 10.1729 12.4404C10.1716 12.5405 10.1904 12.6398 10.2281 12.7325C10.2658 12.8253 10.3217 12.9095 10.3925 12.9803C10.4633 13.0511 10.5475 13.107 10.6403 13.1447C10.733 13.1824 10.8323 13.2012 10.9324 13.1999C11.0325 13.1986 11.1314 13.1773 11.2231 13.1372C11.3148 13.0972 11.3976 13.0391 11.4666 12.9665L13.9866 10.4475C14.1271 10.3068 14.2061 10.1161 14.2061 9.91732C14.2061 9.71849 14.1271 9.5278 13.9866 9.38716L10.9406 6.34029L12.5784 4.70248C13.1215 4.15668 13.7681 3.72491 14.4803 3.43254C15.1926 3.14018 15.9561 2.99311 16.7259 2.99998C20.1309 3.02154 22.7428 5.93341 22.4822 9.3281Z" fill="black"/>
</svg>
