<svg width="24" height="24" viewBox="0 0 24 24" fill="none" xmlns="http://www.w3.org/2000/svg">
<path d="M21.75 7.51687V16.4831C21.7494 16.7517 21.6767 17.0152 21.5395 17.246C21.4023 17.4769 21.2056 17.6667 20.97 17.7956L12.72 22.3116C12.4996 22.4334 12.2518 22.4972 12 22.4972C11.7482 22.4972 11.5004 22.4334 11.28 22.3116L3.03 17.7956C2.7944 17.6667 2.59772 17.4769 2.46052 17.246C2.32331 17.0152 2.25061 16.7517 2.25 16.4831V7.51687C2.25061 7.2483 2.32331 6.98483 2.46052 6.75396C2.59772 6.52308 2.7944 6.33328 3.03 6.20437L11.28 1.68843C11.5004 1.56663 11.7482 1.50275 12 1.50275C12.2518 1.50275 12.4996 1.56663 12.72 1.68843L20.97 6.20437C21.2056 6.33328 21.4023 6.52308 21.5395 6.75396C21.6767 6.98483 21.7494 7.2483 21.75 7.51687Z" fill="black"/>
</svg>
