<svg width="24" height="24" viewBox="0 0 24 24" fill="none" xmlns="http://www.w3.org/2000/svg">
<g clip-path="url(#clip0_639_9396)">
<path d="M8.25 16.1419V18.75C8.25 19.1478 8.09196 19.5294 7.81066 19.8107C7.52936 20.092 7.14782 20.25 6.75 20.25H3.75C3.35218 20.25 2.97064 20.092 2.68934 19.8107C2.40804 19.5294 2.25 19.1478 2.25 18.75V14.625C2.25 14.5256 2.28951 14.4302 2.35984 14.3599C2.43016 14.2895 2.52554 14.25 2.625 14.25H3C4.81713 14.2478 6.59171 14.7998 8.08687 15.8325C8.13757 15.8665 8.17901 15.9126 8.20749 15.9666C8.23596 16.0206 8.25057 16.0809 8.25 16.1419ZM21.6562 15.3919L16.875 14.3156L6.53063 3.9694C6.4291 3.8676 6.30044 3.79713 6.15999 3.76638C6.01954 3.73563 5.87322 3.7459 5.73844 3.79596C5.62294 3.84119 5.5198 3.91316 5.4375 4.00596C3.38063 6.25783 2.25 9.09377 2.25 12V12.375C2.25 12.4745 2.28951 12.5699 2.35984 12.6402C2.43016 12.7105 2.52554 12.75 2.625 12.75H3C4.84415 12.7474 6.65592 13.2346 8.25 14.1619C8.4825 14.2978 8.71031 14.4431 8.93438 14.595C10.6369 15.7634 11.9587 17.4061 12.7359 19.3191C12.8482 19.5962 13.0411 19.8331 13.2897 19.9991C13.5383 20.1651 13.8311 20.2525 14.13 20.25H22.5C22.8978 20.25 23.2794 20.092 23.5607 19.8107C23.842 19.5294 24 19.1478 24 18.75V18.3066C24.0017 17.626 23.77 16.9655 23.3434 16.4352C22.9169 15.9049 22.3213 15.537 21.6562 15.3928V15.3919Z" fill="black"/>
</g>
<defs>
<clipPath id="clip0_639_9396">
<rect width="24" height="24" fill="white"/>
</clipPath>
</defs>
</svg>
