<svg width="24" height="24" viewBox="0 0 24 24" fill="none" xmlns="http://www.w3.org/2000/svg">
<path d="M22.3738 11.5837L17.0956 3.6675C16.9586 3.46215 16.7731 3.29379 16.5554 3.17735C16.3377 3.06091 16.0947 2.99999 15.8478 3H8.15565C7.90879 2.99999 7.66575 3.06091 7.44808 3.17735C7.23041 3.29379 7.04484 3.46215 6.90783 3.6675L1.62971 11.5837C1.57031 11.6729 1.53071 11.7738 1.51357 11.8795C1.49643 11.9853 1.50214 12.0935 1.53033 12.1969L3.6294 19.8947C3.71578 20.2114 3.90371 20.4911 4.16433 20.6908C4.42496 20.8904 4.74389 20.9991 5.07221 21H7.4994C7.89722 21 8.27875 20.842 8.56006 20.5607C8.84136 20.2794 8.9994 19.8978 8.9994 19.5V18H14.9994V19.5C14.9994 19.8978 15.1574 20.2794 15.4387 20.5607C15.72 20.842 16.1016 21 16.4994 21H18.9266C19.2557 21.0001 19.5757 20.8919 19.8373 20.6922C20.0989 20.4924 20.2875 20.2122 20.3741 19.8947L22.4731 12.1969C22.5013 12.0935 22.5071 11.9853 22.4899 11.8795C22.4728 11.7738 22.4332 11.6729 22.3738 11.5837ZM7.4994 19.5H5.07221L3.06315 12.1322L5.9994 7.72687V16.5C5.9994 16.8978 6.15743 17.2794 6.43874 17.5607C6.72004 17.842 7.10157 18 7.4994 18V19.5ZM11.2494 12.75C11.2494 12.9489 11.1704 13.1397 11.0297 13.2803C10.8891 13.421 10.6983 13.5 10.4994 13.5C10.3005 13.5 10.1097 13.421 9.96907 13.2803C9.82841 13.1397 9.7494 12.9489 9.7494 12.75V8.89313C9.7494 8.69421 9.82841 8.50345 9.96907 8.36279C10.1097 8.22214 10.3005 8.14313 10.4994 8.14313C10.6983 8.14313 10.8891 8.22214 11.0297 8.36279C11.1704 8.50345 11.2494 8.69421 11.2494 8.89313V12.75ZM14.2494 12C14.2494 12.1989 14.1704 12.3897 14.0297 12.5303C13.8891 12.671 13.6983 12.75 13.4994 12.75C13.3005 12.75 13.1097 12.671 12.9691 12.5303C12.8284 12.3897 12.7494 12.1989 12.7494 12V8.89313C12.7494 8.69421 12.8284 8.50345 12.9691 8.36279C13.1097 8.22214 13.3005 8.14313 13.4994 8.14313C13.6983 8.14313 13.8891 8.22214 14.0297 8.36279C14.1704 8.50345 14.2494 8.69421 14.2494 8.89313V12ZM11.9994 7.38656L7.81908 4.99781L8.15565 4.5H15.8525L16.1844 4.99781L11.9994 7.38656ZM18.9266 19.5H16.4994V18C16.8972 18 17.2788 17.842 17.5601 17.5607C17.8414 17.2794 17.9994 16.8978 17.9994 16.5V7.72687L20.9356 12.1331L18.9266 19.5Z" fill="black"/>
</svg>
