<svg width="24" height="24" viewBox="0 0 24 24" fill="none" xmlns="http://www.w3.org/2000/svg">
<path d="M18.9417 5.15623C18.0372 4.23279 16.957 3.49986 15.7647 3.00071C14.5723 2.50156 13.2921 2.2463 11.9995 2.24998H11.2495C11.0506 2.24998 10.8598 2.329 10.7192 2.46965C10.5785 2.6103 10.4995 2.80107 10.4995 2.99998V5.58092L1.10671 11.3615C1.0225 11.4134 0.949387 11.4814 0.891565 11.5616C0.833743 11.6418 0.792357 11.7327 0.76979 11.829C0.747223 11.9253 0.743919 12.0251 0.760069 12.1226C0.77622 12.2202 0.811505 12.3136 0.863895 12.3975L2.15577 14.46L2.18389 14.5003C2.51089 14.9569 2.96006 15.3119 3.47979 15.5247C3.99952 15.7375 4.56873 15.7993 5.12202 15.7031C6.42796 15.4819 8.74265 15.09 10.8783 16.0115L8.38452 19.44C7.69983 19.1146 7.06527 18.6928 6.50014 18.1875C6.35096 18.0548 6.15519 17.9869 5.9559 17.9986C5.75662 18.0103 5.57014 18.1006 5.43749 18.2498C5.30484 18.399 5.23689 18.5948 5.24858 18.7941C5.26027 18.9933 5.35065 19.1798 5.49983 19.3125C7.28916 20.8986 9.60192 21.7668 11.993 21.75H12.1964C14.1022 21.7123 15.9551 21.1169 17.526 20.0373C19.0969 18.9577 20.317 17.4413 21.0352 15.6757C21.7534 13.91 21.9383 11.9726 21.5671 10.1029C21.1959 8.23332 20.2847 6.51351 18.9464 5.15623H18.9417ZM11.6245 10.5C11.402 10.5 11.1845 10.434 10.9995 10.3104C10.8145 10.1868 10.6703 10.0111 10.5852 9.8055C10.5 9.59993 10.4777 9.37373 10.5211 9.1555C10.5645 8.93727 10.6717 8.73682 10.829 8.57948C10.9864 8.42215 11.1868 8.315 11.405 8.2716C11.6233 8.22819 11.8495 8.25047 12.055 8.33561C12.2606 8.42076 12.4363 8.56496 12.5599 8.74996C12.6835 8.93497 12.7495 9.15247 12.7495 9.37498C12.7495 9.67335 12.631 9.9595 12.42 10.1705C12.209 10.3815 11.9229 10.5 11.6245 10.5Z" fill="black"/>
</svg>
