<svg width="24" height="24" viewBox="0 0 24 24" fill="none" xmlns="http://www.w3.org/2000/svg">
<path d="M19.5007 8.37844V8.25C19.5007 6.26088 18.7105 4.35322 17.304 2.9467C15.8975 1.54018 13.9898 0.75 12.0007 0.75C10.0116 0.75 8.10391 1.54018 6.69739 2.9467C5.29087 4.35322 4.50069 6.26088 4.50069 8.25V8.37844C4.00011 8.55524 3.57817 8.90335 3.30947 9.36122C3.04078 9.81909 2.94264 10.3572 3.0324 10.8805C3.12217 11.4037 3.39407 11.8783 3.80001 12.2205C4.20596 12.5626 4.7198 12.7502 5.25069 12.75H5.56569L11.3491 22.875C11.4147 22.99 11.5095 23.0856 11.6239 23.1521C11.7383 23.2185 11.8683 23.2536 12.0007 23.2536C12.133 23.2536 12.263 23.2185 12.3775 23.1521C12.4919 23.0856 12.5867 22.99 12.6523 22.875L18.4357 12.75H18.7507C19.2816 12.7502 19.7954 12.5626 20.2014 12.2205C20.6073 11.8783 20.8792 11.4037 20.969 10.8805C21.0587 10.3572 20.9606 9.81909 20.6919 9.36122C20.4232 8.90335 20.0013 8.55524 19.5007 8.37844ZM12.0007 20.9888L7.2935 12.75H9.101L12.9044 19.4063L12.0007 20.9888ZM13.7688 17.895L10.8288 12.75H12.6373L14.6726 16.3125L13.7688 17.895ZM15.536 14.8013L14.3641 12.75H16.7079L15.536 14.8013Z" fill="black"/>
</svg>
