<svg width="24" height="24" viewBox="0 0 24 24" fill="none" xmlns="http://www.w3.org/2000/svg">
<path d="M16.3701 7.6284C16.1206 6.28507 15.509 5.0354 14.6012 4.0143C13.6934 2.99321 12.5239 2.2395 11.219 1.83455C9.9141 1.4296 8.52337 1.3888 7.19697 1.71655C5.87057 2.0443 4.65891 2.72815 3.69279 3.69426C2.72668 4.66037 2.04283 5.87204 1.71508 7.19843C1.38733 8.52483 1.42813 9.91556 1.83308 11.2205C2.23803 12.5254 2.99175 13.6949 4.01284 14.6027C5.03393 15.5105 6.28361 16.1221 7.62694 16.3715C7.87636 17.7149 8.488 18.9645 9.3958 19.9856C10.3036 21.0067 11.4731 21.7604 12.778 22.1654C14.0829 22.5703 15.4736 22.6111 16.8 22.2834C18.1264 21.9556 19.3381 21.2718 20.3042 20.3057C21.2703 19.3396 21.9542 18.1279 22.2819 16.8015C22.6097 15.4751 22.5689 14.0844 22.1639 12.7795C21.759 11.4746 21.0053 10.3051 19.9842 9.39727C18.9631 8.48946 17.7134 7.87782 16.3701 7.6284ZM2.9985 8.99996C2.99562 7.53754 3.52696 6.12441 4.49264 5.02617C5.45833 3.92792 6.79188 3.22018 8.24265 3.03595C9.69343 2.85173 11.1615 3.2037 12.3711 4.02573C13.5806 4.84776 14.4483 6.08324 14.811 7.49996C12.888 7.5505 11.0577 8.33729 9.69792 9.69797C8.3381 11.0587 7.55249 12.8894 7.50319 14.8125C6.21476 14.4791 5.07342 13.7275 4.25817 12.6755C3.44292 11.6236 2.99987 10.3308 2.9985 8.99996ZM14.9985 21C13.6683 20.9989 12.376 20.5565 11.3241 19.7421C10.2723 18.9278 9.52027 17.7875 9.186 16.5C11.1098 16.4506 12.9413 15.6643 14.3021 14.3035C15.6629 12.9427 16.4491 11.1113 16.4985 9.18746C17.9152 9.55019 19.1507 10.4179 19.9727 11.6274C20.7948 12.8369 21.1467 14.305 20.9625 15.7558C20.7783 17.2066 20.0705 18.5401 18.9723 19.5058C17.8741 20.4715 16.4609 21.0028 14.9985 21Z" fill="black"/>
</svg>
