<svg width="24" height="24" viewBox="0 0 24 24" fill="none" xmlns="http://www.w3.org/2000/svg">
<path d="M23.2497 9.70031C23.2331 9.50712 23.1439 9.32742 23 9.19745C22.8561 9.06748 22.6683 8.99692 22.4744 9H21.6063L20.7353 4.93594C20.6622 4.60084 20.4769 4.30071 20.2102 4.0851C19.9434 3.86948 19.6111 3.75128 19.2681 3.75H4.73126C4.38827 3.75128 4.05597 3.86948 3.78922 4.0851C3.52248 4.30071 3.33723 4.60084 3.26407 4.93594L2.39313 9H1.52501C1.33113 8.99692 1.1433 9.06748 0.999415 9.19745C0.855525 9.32742 0.766283 9.50712 0.749695 9.70031C0.742883 9.8029 0.757237 9.9058 0.791866 10.0026C0.826495 10.0994 0.880659 10.1881 0.950994 10.2631C1.02133 10.3381 1.10633 10.3978 1.20072 10.4385C1.29512 10.4793 1.39688 10.5002 1.49969 10.5H2.24969V19.5C2.24969 19.8978 2.40773 20.2794 2.68903 20.5607C2.97034 20.842 3.35187 21 3.74969 21H5.99969C6.39752 21 6.77905 20.842 7.06035 20.5607C7.34166 20.2794 7.49969 19.8978 7.49969 19.5V17.25H9.37469C9.47415 17.25 9.56953 17.2105 9.63986 17.1402C9.71019 17.0698 9.74969 16.9745 9.74969 16.875V12.7753C9.74709 12.5818 9.81786 12.3944 9.94779 12.2509C10.0777 12.1074 10.2571 12.0184 10.45 12.0019C10.5526 11.9951 10.6555 12.0094 10.7523 12.044C10.8491 12.0787 10.9378 12.1328 11.0128 12.2032C11.0878 12.2735 11.1475 12.3585 11.1882 12.4529C11.229 12.5473 11.2499 12.6491 11.2497 12.7519V16.8769C11.2497 16.9763 11.2892 17.0717 11.3595 17.142C11.4299 17.2124 11.5252 17.2519 11.6247 17.2519H12.3747C12.4742 17.2519 12.5695 17.2124 12.6399 17.142C12.7102 17.0717 12.7497 16.9763 12.7497 16.8769V12.7753C12.7471 12.5818 12.8179 12.3944 12.9478 12.2509C13.0777 12.1074 13.2571 12.0184 13.45 12.0019C13.5526 11.9951 13.6555 12.0094 13.7523 12.044C13.8491 12.0787 13.9378 12.1328 14.0128 12.2032C14.0878 12.2735 14.1475 12.3585 14.1882 12.4529C14.229 12.5473 14.2499 12.6491 14.2497 12.7519V16.8769C14.2497 16.9763 14.2892 17.0717 14.3595 17.142C14.4299 17.2124 14.5252 17.2519 14.6247 17.2519H16.4997V19.5019C16.4997 19.8997 16.6577 20.2812 16.939 20.5625C17.2203 20.8438 17.6019 21.0019 17.9997 21.0019H20.2497C20.6475 21.0019 21.0291 20.8438 21.3104 20.5625C21.5917 20.2812 21.7497 19.8997 21.7497 19.5019V10.5H22.4997C22.6025 10.5002 22.7043 10.4793 22.7987 10.4385C22.8931 10.3978 22.9781 10.3381 23.0484 10.2631C23.1187 10.1881 23.1729 10.0994 23.2075 10.0026C23.2422 9.9058 23.2565 9.8029 23.2497 9.70031ZM6.37469 14.25C6.15219 14.25 5.93468 14.184 5.74968 14.0604C5.56467 13.9368 5.42048 13.7611 5.33533 13.5555C5.25018 13.35 5.2279 13.1238 5.27131 12.9055C5.31472 12.6873 5.42187 12.4868 5.5792 12.3295C5.73653 12.1722 5.93699 12.065 6.15522 12.0216C6.37345 11.9782 6.59965 12.0005 6.80521 12.0856C7.01078 12.1708 7.18648 12.315 7.3101 12.5C7.43371 12.685 7.49969 12.9025 7.49969 13.125C7.49969 13.4234 7.38117 13.7095 7.17019 13.9205C6.95921 14.1315 6.67306 14.25 6.37469 14.25ZM17.6247 14.25C17.4022 14.25 17.1847 14.184 16.9997 14.0604C16.8147 13.9368 16.6705 13.7611 16.5853 13.5555C16.5002 13.35 16.4779 13.1238 16.5213 12.9055C16.5647 12.6873 16.6719 12.4868 16.8292 12.3295C16.9865 12.1722 17.187 12.065 17.4052 12.0216C17.6234 11.9782 17.8496 12.0005 18.0552 12.0856C18.2608 12.1708 18.4365 12.315 18.5601 12.5C18.6837 12.685 18.7497 12.9025 18.7497 13.125C18.7497 13.4234 18.6312 13.7095 18.4202 13.9205C18.2092 14.1315 17.9231 14.25 17.6247 14.25Z" fill="black"/>
</svg>
