<svg width="24" height="24" viewBox="0 0 24 24" fill="none" xmlns="http://www.w3.org/2000/svg">
<path d="M21.7319 3.01779C21.4876 2.77345 21.1975 2.57975 20.8781 2.4478C20.5588 2.31585 20.2165 2.24823 19.871 2.24884C19.5255 2.24945 19.1835 2.31827 18.8646 2.45135C18.5457 2.58443 18.2563 2.77916 18.0128 3.02435L1.71253 19.7437C1.61914 19.839 1.55284 19.9574 1.52047 20.0868C1.4881 20.2162 1.49082 20.3519 1.52836 20.4799C1.5659 20.6079 1.6369 20.7236 1.73404 20.815C1.83117 20.9064 1.95093 20.9703 2.08097 21C3.15691 21.2493 4.25777 21.3751 5.36222 21.375C8.49535 21.375 11.6322 20.355 14.5807 18.3553C17.5572 16.3369 19.2822 14.0569 19.3544 13.9603C19.4628 13.8159 19.5155 13.6372 19.5028 13.457C19.49 13.2769 19.4127 13.1074 19.285 12.9797L17.5282 11.2209L21.7469 6.72092C22.2326 6.22608 22.5034 5.55962 22.5006 4.86627C22.4978 4.17292 22.2216 3.50868 21.7319 3.01779ZM17.7391 13.559C16.5504 14.92 15.1922 16.1229 13.6975 17.1384C10.466 19.3181 7.13503 20.204 3.77503 19.7784L13.7407 9.55967L17.7391 13.559Z" fill="black"/>
</svg>
