<svg width="24" height="24" viewBox="0 0 24 24" fill="none" xmlns="http://www.w3.org/2000/svg">
<path d="M20.2053 19.9931L15.4231 6.84375L16.2753 4.5H17.2503C17.4492 4.5 17.64 4.42098 17.7807 4.28033C17.9213 4.13968 18.0003 3.94891 18.0003 3.75C18.0003 3.55109 17.9213 3.36032 17.7807 3.21967C17.64 3.07902 17.4492 3 17.2503 3H8.25033C8.05141 3 7.86065 3.07902 7.72 3.21967C7.57934 3.36032 7.50033 3.55109 7.50033 3.75C7.50033 3.94891 7.57934 4.13968 7.72 4.28033C7.86065 4.42098 8.05141 4.5 8.25033 4.5H8.6797L3.04533 19.9931C3.01157 20.0858 2.99641 20.1841 3.00072 20.2826C3.00502 20.3812 3.0287 20.4778 3.07041 20.5672C3.11212 20.6565 3.17104 20.7368 3.24379 20.8033C3.31654 20.8698 3.4017 20.9214 3.49439 20.955C3.5765 20.9845 3.66307 20.9997 3.75033 21C3.90435 21 4.05464 20.9526 4.18077 20.8642C4.30691 20.7758 4.40277 20.6507 4.45533 20.5059L5.36658 18H9.77283L9.0472 19.9931C9.01344 20.0858 8.99829 20.1841 9.00259 20.2826C9.0069 20.3812 9.03058 20.4778 9.07229 20.5672C9.114 20.6565 9.17291 20.7368 9.24566 20.8033C9.31841 20.8698 9.40357 20.9214 9.49626 20.955C9.57778 20.9843 9.6637 20.9995 9.75033 21C9.90435 21 10.0546 20.9526 10.1808 20.8642C10.3069 20.7758 10.4028 20.6507 10.4553 20.5059L12.1878 15.75H17.0628L18.7925 20.5059C18.8452 20.6512 18.9415 20.7766 19.0682 20.865C19.1949 20.9534 19.3458 21.0006 19.5003 21C19.5876 20.9997 19.6742 20.9845 19.7563 20.955C19.849 20.9214 19.9341 20.8698 20.0069 20.8033C20.0796 20.7368 20.1385 20.6565 20.1802 20.5672C20.2219 20.4778 20.2456 20.3812 20.2499 20.2826C20.2542 20.1841 20.2391 20.0858 20.2053 19.9931ZM10.1591 6H13.1591C13.358 6 13.5488 6.07902 13.6894 6.21967C13.8301 6.36032 13.9091 6.55109 13.9091 6.75C13.9091 6.94891 13.8301 7.13968 13.6894 7.28033C13.5488 7.42098 13.358 7.5 13.1591 7.5H10.1591C9.96016 7.5 9.7694 7.42098 9.62875 7.28033C9.48809 7.13968 9.40908 6.94891 9.40908 6.75C9.40908 6.55109 9.48809 6.36032 9.62875 6.21967C9.7694 6.07902 9.96016 6 10.1591 6ZM10.4319 15H7.43189C7.23298 15 7.04221 14.921 6.90156 14.7803C6.76091 14.6397 6.68189 14.4489 6.68189 14.25C6.68189 14.0511 6.76091 13.8603 6.90156 13.7197C7.04221 13.579 7.23298 13.5 7.43189 13.5H10.4319C10.6308 13.5 10.8216 13.579 10.9622 13.7197C11.1029 13.8603 11.1819 14.0511 11.1819 14.25C11.1819 14.4489 11.1029 14.6397 10.9622 14.7803C10.8216 14.921 10.6308 15 10.4319 15ZM11.796 11.25H8.79595C8.59704 11.25 8.40627 11.171 8.26562 11.0303C8.12497 10.8897 8.04595 10.6989 8.04595 10.5C8.04595 10.3011 8.12497 10.1103 8.26562 9.96967C8.40627 9.82902 8.59704 9.75 8.79595 9.75H11.796C11.9949 9.75 12.1856 9.82902 12.3263 9.96967C12.4669 10.1103 12.546 10.3011 12.546 10.5C12.546 10.6989 12.4669 10.8897 12.3263 11.0303C12.1856 11.171 11.9949 11.25 11.796 11.25ZM12.7335 14.25L14.6253 9.03844L16.52 14.25H12.7335Z" fill="black"/>
</svg>
