<svg width="24" height="24" viewBox="0 0 24 24" fill="none" xmlns="http://www.w3.org/2000/svg">
<path d="M20.9475 3.75655C20.9367 3.57307 20.859 3.39991 20.7291 3.26994C20.5991 3.13998 20.4259 3.06226 20.2425 3.05155C13.1053 2.63249 7.3884 4.78124 4.9509 8.81249C4.10599 10.1915 3.68964 11.7903 3.75465 13.4062C3.79708 14.4396 4.00733 15.4591 4.37715 16.425C4.39888 16.4844 4.4353 16.5374 4.48302 16.579C4.53074 16.6205 4.5882 16.6494 4.65006 16.6627C4.71191 16.6761 4.77615 16.6736 4.83679 16.6555C4.89742 16.6374 4.95248 16.6042 4.99684 16.559L12.9656 8.46842C13.0353 8.39874 13.118 8.34347 13.209 8.30575C13.3001 8.26804 13.3977 8.24863 13.4962 8.24863C13.5948 8.24863 13.6923 8.26804 13.7834 8.30575C13.8744 8.34347 13.9572 8.39874 14.0268 8.46842C14.0965 8.53811 14.1518 8.62083 14.1895 8.71188C14.2272 8.80292 14.2466 8.9005 14.2466 8.99905C14.2466 9.0976 14.2272 9.19518 14.1895 9.28622C14.1518 9.37727 14.0965 9.45999 14.0268 9.52967L5.3184 18.3694L3.98809 19.6997C3.84973 19.8344 3.76714 20.0162 3.75672 20.209C3.74629 20.4018 3.80881 20.5915 3.93184 20.7403C3.99921 20.8183 4.08195 20.8816 4.17488 20.9262C4.26781 20.9708 4.36894 20.9958 4.47196 20.9996C4.57498 21.0034 4.67767 20.9859 4.77362 20.9482C4.86958 20.9105 4.95673 20.8535 5.02965 20.7806L6.60371 19.2065C7.92934 19.8478 9.26715 20.1975 10.5937 20.2444C10.6981 20.2481 10.8021 20.25 10.9059 20.25C12.4166 20.2539 13.8986 19.8377 15.1865 19.0481C19.2178 16.6106 21.3675 10.8947 20.9475 3.75655Z" fill="black"/>
</svg>
