<svg width="24" height="24" viewBox="0 0 24 24" fill="none" xmlns="http://www.w3.org/2000/svg">
<path d="M20.0491 11.7618L9.54911 23.0118C9.43784 23.1306 9.29097 23.2099 9.13065 23.2379C8.97034 23.2658 8.80528 23.2409 8.66039 23.1668C8.5155 23.0927 8.39863 22.9735 8.32743 22.8272C8.25623 22.6808 8.23455 22.5153 8.26568 22.3556L9.64005 15.4809L4.23724 13.4521C4.12121 13.4087 4.01773 13.3373 3.93606 13.2441C3.85439 13.151 3.79706 13.039 3.76921 12.9183C3.74135 12.7976 3.74383 12.6719 3.77642 12.5524C3.80902 12.4328 3.87071 12.3233 3.95599 12.2334L14.456 0.983396C14.5673 0.864649 14.7141 0.785313 14.8744 0.757362C15.0348 0.729411 15.1998 0.754362 15.3447 0.828448C15.4896 0.902534 15.6065 1.02174 15.6777 1.16807C15.7489 1.3144 15.7705 1.47992 15.7394 1.63965L14.3613 8.52183L19.7641 10.5478C19.8793 10.5915 19.9819 10.6629 20.063 10.7556C20.144 10.8484 20.2009 10.9597 20.2287 11.0797C20.2565 11.1998 20.2544 11.3248 20.2224 11.4437C20.1904 11.5627 20.1296 11.6719 20.0454 11.7618H20.0491Z" fill="black"/>
</svg>
