<svg width="24" height="24" viewBox="0 0 24 24" fill="none" xmlns="http://www.w3.org/2000/svg">
<path d="M20.0552 19.7457C20.1228 19.8183 20.1753 19.9036 20.2097 19.9967C20.2441 20.0898 20.2597 20.1888 20.2556 20.288C20.2514 20.3872 20.2277 20.4845 20.1856 20.5744C20.1436 20.6643 20.0841 20.745 20.0106 20.8117C19.9372 20.8785 19.8512 20.93 19.7577 20.9633C19.6642 20.9965 19.5651 21.0109 19.4659 21.0056C19.3668 21.0003 19.2698 20.9753 19.1804 20.9322C19.091 20.8891 19.0111 20.8286 18.9452 20.7544L15.348 16.7982L9.54863 23.0119C9.43736 23.1307 9.29048 23.21 9.13016 23.2379C8.96985 23.2659 8.80479 23.2409 8.6599 23.1669C8.51501 23.0928 8.39815 22.9736 8.32694 22.8272C8.25574 22.6809 8.23407 22.5154 8.26519 22.3557L9.63956 15.481L4.23675 13.4522C4.12072 13.4088 4.01724 13.3373 3.93557 13.2442C3.8539 13.151 3.79658 13.0391 3.76872 12.9184C3.74086 12.7977 3.74334 12.672 3.77594 12.5524C3.80853 12.4329 3.87022 12.3233 3.9555 12.2335L7.62863 8.29597L3.94519 4.2544C3.87756 4.18176 3.82503 4.09642 3.79063 4.00332C3.75623 3.91022 3.74065 3.81123 3.74479 3.71206C3.74894 3.6129 3.77272 3.51555 3.81477 3.42565C3.85681 3.33575 3.91628 3.25508 3.98973 3.18833C4.06318 3.12158 4.14915 3.07008 4.24265 3.0368C4.33615 3.00352 4.43533 2.98912 4.53443 2.99446C4.63354 2.99979 4.7306 3.02474 4.81999 3.06786C4.90938 3.11098 4.98932 3.17141 5.05519 3.24565L20.0552 19.7457ZM16.8546 13.995C16.9242 14.0717 17.009 14.1331 17.1035 14.1754C17.1981 14.2176 17.3004 14.2399 17.4039 14.2407H17.4096C17.5125 14.2406 17.6143 14.2193 17.7087 14.1782C17.803 14.137 17.8879 14.0769 17.958 14.0016L20.0486 11.7619C20.1329 11.672 20.1937 11.5628 20.2256 11.4438C20.2576 11.3248 20.2598 11.1998 20.232 11.0798C20.2042 10.9598 20.1473 10.8485 20.0662 10.7557C19.9852 10.6629 19.8826 10.5915 19.7674 10.5478L14.3608 8.5219L15.7352 1.64721C15.7663 1.48748 15.7446 1.32197 15.6734 1.17564C15.6022 1.0293 15.4854 0.910102 15.3405 0.836016C15.1956 0.76193 15.0305 0.73698 14.8702 0.764931C14.7099 0.792882 14.563 0.872217 14.4518 0.990965L10.1505 5.5969C10.0221 5.73455 9.95007 5.91548 9.94886 6.10375C9.94764 6.29202 10.0173 6.47386 10.1439 6.61315L16.8546 13.995Z" fill="black"/>
</svg>
