<svg width="24" height="24" viewBox="0 0 24 24" fill="none" xmlns="http://www.w3.org/2000/svg">
<path d="M16.301 11.1169L7.37597 20.7591C7.26357 20.8814 7.11373 20.963 6.94996 20.991C6.7862 21.0189 6.61778 20.9918 6.47115 20.9137C6.32451 20.8356 6.20795 20.711 6.13977 20.5595C6.07158 20.408 6.05563 20.2382 6.09441 20.0766L7.37597 14.6804L2.68847 12.5766C2.57995 12.5278 2.4846 12.4539 2.4103 12.3609C2.336 12.268 2.28487 12.1587 2.26115 12.0421C2.23743 11.9255 2.24179 11.805 2.27387 11.6904C2.30595 11.5758 2.36484 11.4705 2.44566 11.3832L11.3707 1.74099C11.4825 1.61615 11.6328 1.53235 11.7978 1.50296C11.9628 1.47357 12.1329 1.50028 12.2809 1.57882C12.4289 1.65737 12.5464 1.78323 12.6145 1.93632C12.6827 2.08942 12.6976 2.26093 12.6569 2.42349L11.3735 7.81974L16.061 9.92255C16.1696 9.97131 16.2652 10.0453 16.3396 10.1383C16.414 10.2313 16.4652 10.3407 16.4889 10.4574C16.5127 10.5741 16.5082 10.6949 16.476 10.8095C16.4438 10.9242 16.3848 11.0296 16.3038 11.1169H16.301ZM22.0863 20.9204C21.9822 20.9729 21.8672 21.0002 21.7507 21C21.6113 21.0001 21.4747 20.9614 21.3561 20.8882C21.2376 20.8151 21.1418 20.7103 21.0794 20.5857L20.1616 18.75H16.5888L15.671 20.5857C15.582 20.7636 15.4259 20.8988 15.2372 20.9617C15.0484 21.0245 14.8425 21.0098 14.6646 20.9208C14.4867 20.8318 14.3514 20.6758 14.2885 20.487C14.2257 20.2983 14.2404 20.0923 14.3294 19.9144L17.7044 13.1644C17.7667 13.0399 17.8625 12.9351 17.9809 12.8619C18.0994 12.7887 18.2359 12.7499 18.3752 12.7499C18.5145 12.7499 18.651 12.7887 18.7694 12.8619C18.8879 12.9351 18.9837 13.0399 19.046 13.1644L22.421 19.9144C22.5099 20.0922 22.5246 20.298 22.4618 20.4867C22.3991 20.6753 22.264 20.8313 22.0863 20.9204ZM19.4116 17.25L18.3757 15.1772L17.3388 17.25H19.4116Z" fill="black"/>
</svg>
