<svg width="24" height="24" viewBox="0 0 24 24" fill="none" xmlns="http://www.w3.org/2000/svg">
<path d="M20.1231 8.12061C19.6522 8.59016 19.0388 8.89032 18.3791 8.97412C17.7194 9.05792 17.0505 8.92063 16.4772 8.58373L8.58434 16.4765C8.86927 16.9599 9.01296 17.5134 8.99908 18.0743C8.9852 18.6352 8.81431 19.181 8.50582 19.6496C8.19733 20.1182 7.76361 20.491 7.2539 20.7255C6.7442 20.96 6.17895 21.0469 5.62235 20.9762C5.06575 20.9056 4.54011 20.6803 4.10514 20.3259C3.67016 19.9715 3.34327 19.5023 3.16161 18.9714C2.97995 18.4406 2.95078 17.8695 3.07743 17.3229C3.20408 16.7763 3.48147 16.2762 3.87809 15.8794C4.34894 15.4097 4.96227 15.1094 5.62203 15.0256C6.28178 14.9418 6.95071 15.0792 7.52403 15.4162L15.4168 7.52342C15.1319 7.0401 14.9882 6.48656 15.0021 5.92567C15.016 5.36478 15.1869 4.81902 15.4954 4.35038C15.8038 3.88174 16.2376 3.509 16.7473 3.27449C17.257 3.03999 17.8222 2.95312 18.3788 3.02374C18.9354 3.09437 19.4611 3.31967 19.896 3.67405C20.331 4.02843 20.6579 4.49768 20.8396 5.02852C21.0212 5.55936 21.0504 6.1305 20.9237 6.67708C20.7971 7.22366 20.5197 7.72377 20.1231 8.12061Z" fill="black"/>
</svg>
