<svg width="24" height="24" viewBox="0 0 24 24" fill="none" xmlns="http://www.w3.org/2000/svg">
<path d="M22.3715 7.37066C22.0931 7.64992 21.7623 7.87138 21.398 8.0223C21.0338 8.17322 20.6433 8.25061 20.249 8.25004C20.0077 8.24991 19.7672 8.22095 19.5327 8.16379L17.0362 12.8007C17.0643 12.8269 17.0924 12.8532 17.1196 12.8804C17.5163 13.2771 17.7938 13.7772 17.9205 14.3237C18.0472 14.8703 18.0182 15.4414 17.8366 15.9723C17.655 16.5031 17.3283 16.9724 16.8933 17.3269C16.4584 17.6814 15.9329 17.9068 15.3763 17.9775C14.8197 18.0482 14.2544 17.9615 13.7447 17.7271C13.235 17.4927 12.8012 17.12 12.4926 16.6515C12.184 16.1829 12.013 15.6372 11.999 15.0763C11.985 14.5154 12.1285 13.9619 12.4134 13.4785L10.5215 11.5866C10.06 11.8578 9.53428 12.0005 8.99899 12C8.75738 12.0002 8.51662 11.9716 8.2818 11.9147L5.78524 16.5497C5.81336 16.576 5.84242 16.6022 5.86961 16.6294C6.2891 17.049 6.57475 17.5835 6.69045 18.1655C6.80615 18.7474 6.7467 19.3506 6.51962 19.8987C6.29254 20.4468 5.90802 20.9153 5.41469 21.2449C4.92135 21.5746 4.34136 21.7505 3.74805 21.7505C3.15473 21.7505 2.57474 21.5746 2.08141 21.2449C1.58808 20.9153 1.20356 20.4468 0.976475 19.8987C0.749392 19.3506 0.689942 18.7474 0.805642 18.1655C0.921342 17.5835 1.207 17.049 1.62649 16.6294C1.9915 16.2646 2.44445 16.0001 2.94158 15.8615C3.4387 15.7228 3.96317 15.7148 4.4643 15.8382L6.96086 11.2013C6.93274 11.175 6.90461 11.1488 6.87742 11.1216C6.59878 10.843 6.37774 10.5123 6.22693 10.1482C6.07612 9.78422 5.9985 9.39406 5.9985 9.00004C5.9985 8.60601 6.07612 8.21585 6.22693 7.85183C6.37774 7.48781 6.59878 7.15706 6.87742 6.87848C7.39355 6.36089 8.08088 6.04954 8.81034 6.00291C9.53979 5.95627 10.2612 6.17756 10.839 6.62521C11.4168 7.07286 11.8114 7.71606 11.9485 8.43403C12.0856 9.152 11.9559 9.89533 11.5837 10.5244L13.4755 12.4163C14.1515 12.0202 14.955 11.9025 15.7162 12.0882L18.2127 7.45129C18.1846 7.42504 18.1555 7.39879 18.1284 7.3716C17.8497 7.09302 17.6287 6.76227 17.4779 6.39825C17.3271 6.03422 17.2494 5.64406 17.2494 5.25004C17.2494 4.85601 17.3271 4.46585 17.4779 4.10183C17.6287 3.73781 17.8497 3.40706 18.1284 3.12847C18.691 2.5658 19.4542 2.24969 20.2499 2.24969C21.0457 2.24969 21.8088 2.5658 22.3715 3.12847C22.9342 3.69115 23.2503 4.4543 23.2503 5.25004C23.2503 6.04578 22.9342 6.80893 22.3715 7.3716V7.37066Z" fill="black"/>
</svg>
