<svg width="24" height="24" viewBox="0 0 24 24" fill="none" xmlns="http://www.w3.org/2000/svg">
<path d="M15.1147 20.4131C15.1533 20.4695 15.1758 20.5354 15.1797 20.6036C15.1836 20.6719 15.1687 20.7399 15.1368 20.8003C15.1048 20.8607 15.057 20.9113 14.9984 20.9464C14.9398 20.9816 14.8727 21.0002 14.8044 21H9.19719C9.12884 21.0002 9.06175 20.9816 9.00316 20.9464C8.94458 20.9113 8.89673 20.8607 8.86478 20.8003C8.83283 20.7399 8.818 20.6719 8.8219 20.6036C8.82579 20.5354 8.84826 20.4695 8.88688 20.4131C9.22981 19.9021 9.69324 19.4833 10.2363 19.1937C10.7794 18.9041 11.3853 18.7526 12.0008 18.7526C12.6162 18.7526 13.2222 18.9041 13.7653 19.1937C14.3083 19.4833 14.7718 19.9021 15.1147 20.4131ZM21.5769 20.7291C21.5025 20.8157 21.4099 20.885 21.3057 20.9318C21.2015 20.9786 21.0883 21.0019 20.9741 21H17.3028C17.2256 20.9999 17.1504 20.976 17.0873 20.9315C17.0242 20.8871 16.9764 20.8242 16.9503 20.7516C16.5883 19.7281 15.918 18.8421 15.0316 18.2154C14.1452 17.5887 13.0863 17.2522 12.0008 17.2522C10.9152 17.2522 9.85636 17.5887 8.96996 18.2154C8.08357 18.8421 7.41323 19.7281 7.05125 20.7516C7.02521 20.8242 6.97737 20.8871 6.91429 20.9315C6.8512 20.976 6.77593 20.9999 6.69875 21H3.02188C2.90743 21.0019 2.79401 20.9782 2.68988 20.9307C2.58575 20.8832 2.49355 20.813 2.42 20.7253C2.31105 20.5924 2.25104 20.4261 2.25001 20.2543C2.24899 20.0824 2.30701 19.9154 2.41438 19.7812C2.42 19.7747 3.13063 18.8644 3.83188 17.0887C4.47875 15.45 5.25032 12.7162 5.25032 9C5.25032 7.20979 5.96147 5.4929 7.22735 4.22703C8.49322 2.96116 10.2101 2.25 12.0003 2.25C13.7905 2.25 15.5074 2.96116 16.7733 4.22703C18.0392 5.4929 18.7503 7.20979 18.7503 9C18.7503 12.7162 19.5219 15.45 20.1688 17.0887C20.87 18.8644 21.5806 19.7747 21.5872 19.7831C21.6944 19.918 21.7519 20.0857 21.75 20.2579C21.7481 20.4302 21.687 20.5966 21.5769 20.7291ZM8.25032 10.125C8.25032 10.3475 8.3163 10.565 8.43991 10.75C8.56353 10.935 8.73923 11.0792 8.9448 11.1644C9.15036 11.2495 9.37656 11.2718 9.59479 11.2284C9.81302 11.185 10.0135 11.0778 10.1708 10.9205C10.3281 10.7632 10.4353 10.5627 10.4787 10.3445C10.5221 10.1262 10.4998 9.90005 10.4147 9.69448C10.3295 9.48891 10.1853 9.31321 10.0003 9.1896C9.81533 9.06598 9.59782 9 9.37532 9C9.07695 9 8.7908 9.11853 8.57982 9.3295C8.36884 9.54048 8.25032 9.82663 8.25032 10.125ZM15.6716 13.1644C15.5826 12.9865 15.4267 12.8512 15.2381 12.7883C15.0495 12.7253 14.8435 12.7399 14.6656 12.8287L12.0003 14.1619L9.33594 12.8287C9.15792 12.7399 8.95187 12.7253 8.76313 12.7884C8.57439 12.8514 8.41842 12.9868 8.32954 13.1648C8.24065 13.3429 8.22612 13.5489 8.28915 13.7377C8.35218 13.9264 8.4876 14.0824 8.66563 14.1713L11.6656 15.6713C11.7697 15.7232 11.8844 15.7503 12.0008 15.7503C12.1171 15.7503 12.2319 15.7232 12.3359 15.6713L15.3359 14.1713C15.4241 14.1272 15.5028 14.0662 15.5674 13.9918C15.632 13.9174 15.6813 13.8309 15.7125 13.7374C15.7436 13.6439 15.7561 13.5451 15.7491 13.4468C15.742 13.3485 15.7157 13.2525 15.6716 13.1644ZM15.7503 10.125C15.7503 9.9025 15.6843 9.68499 15.5607 9.49998C15.4371 9.31498 15.2614 9.17078 15.0558 9.08564C14.8503 9.00049 14.6241 8.97821 14.4058 9.02162C14.1876 9.06502 13.9872 9.17217 13.8298 9.3295C13.6725 9.48684 13.5653 9.68729 13.5219 9.90552C13.4785 10.1238 13.5008 10.35 13.586 10.5555C13.6711 10.7611 13.8153 10.9368 14.0003 11.0604C14.1853 11.184 14.4028 11.25 14.6253 11.25C14.9237 11.25 15.2098 11.1315 15.4208 10.9205C15.6318 10.7095 15.7503 10.4234 15.7503 10.125Z" fill="black"/>
</svg>
