<svg width="24" height="24" viewBox="0 0 24 24" fill="none" xmlns="http://www.w3.org/2000/svg">
<path d="M21 11.25V12.75C21 12.9489 20.921 13.1397 20.7804 13.2803C20.6397 13.421 20.449 13.5 20.25 13.5H9.75004C9.55113 13.5 9.36036 13.421 9.21971 13.2803C9.07906 13.1397 9.00004 12.9489 9.00004 12.75V11.25C9.00004 11.0511 9.07906 10.8603 9.21971 10.7197C9.36036 10.579 9.55113 10.5 9.75004 10.5H20.25C20.449 10.5 20.6397 10.579 20.7804 10.7197C20.921 10.8603 21 11.0511 21 11.25ZM20.25 4.49999H9.75004C9.55113 4.49999 9.36036 4.57901 9.21971 4.71966C9.07906 4.86031 9.00004 5.05108 9.00004 5.24999V6.74999C9.00004 6.9489 9.07906 7.13967 9.21971 7.28032C9.36036 7.42097 9.55113 7.49999 9.75004 7.49999H20.25C20.449 7.49999 20.6397 7.42097 20.7804 7.28032C20.921 7.13967 21 6.9489 21 6.74999V5.24999C21 5.05108 20.921 4.86031 20.7804 4.71966C20.6397 4.57901 20.449 4.49999 20.25 4.49999ZM20.25 16.5H9.75004C9.55113 16.5 9.36036 16.579 9.21971 16.7197C9.07906 16.8603 9.00004 17.0511 9.00004 17.25V18.75C9.00004 18.9489 9.07906 19.1397 9.21971 19.2803C9.36036 19.421 9.55113 19.5 9.75004 19.5H20.25C20.449 19.5 20.6397 19.421 20.7804 19.2803C20.921 19.1397 21 18.9489 21 18.75V17.25C21 17.0511 20.921 16.8603 20.7804 16.7197C20.6397 16.579 20.449 16.5 20.25 16.5ZM4.08567 5.17124L4.50004 4.96311V9.74999C4.50004 9.9489 4.57906 10.1397 4.71971 10.2803C4.86036 10.421 5.05113 10.5 5.25004 10.5C5.44895 10.5 5.63972 10.421 5.78037 10.2803C5.92102 10.1397 6.00004 9.9489 6.00004 9.74999V3.74999C6.00013 3.62208 5.96751 3.49627 5.90527 3.38453C5.84304 3.27278 5.75326 3.17881 5.64447 3.11154C5.53567 3.04427 5.41149 3.00595 5.28371 3.00021C5.15593 2.99447 5.0288 3.0215 4.91442 3.07874L3.41442 3.82874C3.23639 3.91775 3.10102 4.07384 3.03807 4.26267C3.00691 4.35616 2.99446 4.45488 3.00145 4.55319C3.00844 4.6515 3.03472 4.74746 3.07879 4.83561C3.12287 4.92376 3.18387 5.00237 3.25833 5.06694C3.33278 5.13151 3.41922 5.18079 3.51272 5.21196C3.70154 5.2749 3.90764 5.26025 4.08567 5.17124ZM7.47848 14.6925C7.43701 14.3954 7.3359 14.1099 7.18123 13.8529C7.02657 13.5959 6.82154 13.3729 6.57848 13.1972C6.09164 12.8437 5.48696 12.6921 4.89094 12.7742C4.29492 12.8564 3.75376 13.1658 3.38067 13.6378C3.23807 13.8209 3.12513 14.0253 3.04598 14.2434C3.00465 14.3373 2.98302 14.4387 2.98243 14.5413C2.98185 14.6439 3.00232 14.7455 3.04257 14.8399C3.08283 14.9342 3.14202 15.0193 3.21648 15.0899C3.29094 15.1605 3.37909 15.215 3.47547 15.2502C3.57186 15.2853 3.67443 15.3003 3.77684 15.2943C3.87925 15.2882 3.97933 15.2612 4.07088 15.2149C4.16244 15.1686 4.24352 15.104 4.30911 15.0251C4.3747 14.9462 4.42341 14.8547 4.45223 14.7562C4.47848 14.6843 4.5158 14.6169 4.56285 14.5566C4.69516 14.3917 4.88592 14.2842 5.09547 14.2564C5.30501 14.2287 5.51719 14.2828 5.68785 14.4075C5.76995 14.4656 5.83938 14.5397 5.89192 14.6255C5.94446 14.7112 5.97901 14.8067 5.99348 14.9062C6.00671 15.0018 6.00049 15.0991 5.9752 15.1922C5.94991 15.2853 5.90606 15.3724 5.84629 15.4481C5.84356 15.4514 5.84105 15.4548 5.83879 15.4584L3.1491 19.0509C3.06576 19.1624 3.01508 19.2949 3.00275 19.4336C2.99043 19.5722 3.01693 19.7116 3.0793 19.836C3.14167 19.9605 3.23745 20.0651 3.35591 20.1382C3.47437 20.2113 3.61084 20.25 3.75004 20.25H6.75004C6.94895 20.25 7.13972 20.171 7.28037 20.0303C7.42102 19.8897 7.50004 19.6989 7.50004 19.5C7.50004 19.3011 7.42102 19.1103 7.28037 18.9697C7.13972 18.829 6.94895 18.75 6.75004 18.75H5.25004L7.03879 16.3566C7.22015 16.123 7.35255 15.8552 7.4281 15.5693C7.50364 15.2834 7.52078 14.9852 7.47848 14.6925Z" fill="black"/>
</svg>
