<svg width="24" height="24" viewBox="0 0 24 24" fill="none" xmlns="http://www.w3.org/2000/svg">
<path d="M21 5.25V6.75C21 6.94891 20.921 7.13968 20.7803 7.28033C20.6397 7.42098 20.4489 7.5 20.25 7.5H9C8.80109 7.5 8.61032 7.42098 8.46967 7.28033C8.32902 7.13968 8.25 6.94891 8.25 6.75V5.25C8.25 5.05109 8.32902 4.86032 8.46967 4.71967C8.61032 4.57902 8.80109 4.5 9 4.5H20.25C20.4489 4.5 20.6397 4.57902 20.7803 4.71967C20.921 4.86032 21 5.05109 21 5.25ZM5.25 4.5H3.75C3.55109 4.5 3.36032 4.57902 3.21967 4.71967C3.07902 4.86032 3 5.05109 3 5.25V6.75C3 6.94891 3.07902 7.13968 3.21967 7.28033C3.36032 7.42098 3.55109 7.5 3.75 7.5H5.25C5.44891 7.5 5.63968 7.42098 5.78033 7.28033C5.92098 7.13968 6 6.94891 6 6.75V5.25C6 5.05109 5.92098 4.86032 5.78033 4.71967C5.63968 4.57902 5.44891 4.5 5.25 4.5ZM20.25 10.5H9C8.80109 10.5 8.61032 10.579 8.46967 10.7197C8.32902 10.8603 8.25 11.0511 8.25 11.25V12.75C8.25 12.9489 8.32902 13.1397 8.46967 13.2803C8.61032 13.421 8.80109 13.5 9 13.5H20.25C20.4489 13.5 20.6397 13.421 20.7803 13.2803C20.921 13.1397 21 12.9489 21 12.75V11.25C21 11.0511 20.921 10.8603 20.7803 10.7197C20.6397 10.579 20.4489 10.5 20.25 10.5ZM5.25 10.5H3.75C3.55109 10.5 3.36032 10.579 3.21967 10.7197C3.07902 10.8603 3 11.0511 3 11.25V12.75C3 12.9489 3.07902 13.1397 3.21967 13.2803C3.36032 13.421 3.55109 13.5 3.75 13.5H5.25C5.44891 13.5 5.63968 13.421 5.78033 13.2803C5.92098 13.1397 6 12.9489 6 12.75V11.25C6 11.0511 5.92098 10.8603 5.78033 10.7197C5.63968 10.579 5.44891 10.5 5.25 10.5ZM20.25 16.5H9C8.80109 16.5 8.61032 16.579 8.46967 16.7197C8.32902 16.8603 8.25 17.0511 8.25 17.25V18.75C8.25 18.9489 8.32902 19.1397 8.46967 19.2803C8.61032 19.421 8.80109 19.5 9 19.5H20.25C20.4489 19.5 20.6397 19.421 20.7803 19.2803C20.921 19.1397 21 18.9489 21 18.75V17.25C21 17.0511 20.921 16.8603 20.7803 16.7197C20.6397 16.579 20.4489 16.5 20.25 16.5ZM5.25 16.5H3.75C3.55109 16.5 3.36032 16.579 3.21967 16.7197C3.07902 16.8603 3 17.0511 3 17.25V18.75C3 18.9489 3.07902 19.1397 3.21967 19.2803C3.36032 19.421 3.55109 19.5 3.75 19.5H5.25C5.44891 19.5 5.63968 19.421 5.78033 19.2803C5.92098 19.1397 6 18.9489 6 18.75V17.25C6 17.0511 5.92098 16.8603 5.78033 16.7197C5.63968 16.579 5.44891 16.5 5.25 16.5Z" fill="black"/>
</svg>
