<svg width="24" height="24" viewBox="0 0 24 24" fill="none" xmlns="http://www.w3.org/2000/svg">
<path d="M8.78104 9.96936C8.85077 10.039 8.90609 10.1217 8.94384 10.2128C8.98158 10.3038 9.00101 10.4014 9.00101 10.5C9.00101 10.5986 8.98158 10.6961 8.94384 10.7872C8.90609 10.8782 8.85077 10.961 8.78104 11.0306L5.78104 14.0306C5.71139 14.1003 5.62867 14.1557 5.53762 14.1934C5.44657 14.2312 5.34898 14.2506 5.25042 14.2506C5.15186 14.2506 5.05426 14.2312 4.96321 14.1934C4.87216 14.1557 4.78945 14.1003 4.71979 14.0306L3.21979 12.5306C3.15011 12.4609 3.09483 12.3782 3.05712 12.2872C3.01941 12.1961 3 12.0985 3 12C3 11.801 3.07906 11.6101 3.21979 11.4694C3.36052 11.3286 3.55139 11.2496 3.75042 11.2496C3.94944 11.2496 4.14031 11.3286 4.28104 11.4694L5.25042 12.4397L7.71979 9.96936C7.78945 9.89963 7.87216 9.84431 7.96321 9.80657C8.05426 9.76883 8.15186 9.7494 8.25042 9.7494C8.34898 9.7494 8.44657 9.76883 8.53762 9.80657C8.62867 9.84431 8.71139 9.89963 8.78104 9.96936ZM7.71979 3.96936L5.25042 6.43968L4.28104 5.46936C4.14031 5.32863 3.94944 5.24957 3.75042 5.24957C3.55139 5.24957 3.36052 5.32863 3.21979 5.46936C3.07906 5.6101 3 5.80097 3 5.99999C3 6.19901 3.07906 6.38988 3.21979 6.53062L4.71979 8.03061C4.78945 8.10035 4.87216 8.15567 4.96321 8.19341C5.05426 8.23115 5.15186 8.25058 5.25042 8.25058C5.34898 8.25058 5.44657 8.23115 5.53762 8.19341C5.62867 8.15567 5.71139 8.10035 5.78104 8.03061L8.78104 5.03061C8.92177 4.88988 9.00083 4.69901 9.00083 4.49999C9.00083 4.30097 8.92177 4.1101 8.78104 3.96936C8.64031 3.82863 8.44944 3.74957 8.25042 3.74957C8.05139 3.74957 7.86052 3.82863 7.71979 3.96936ZM7.71979 15.9694L5.25042 18.4397L4.28104 17.4694C4.21136 17.3997 4.12863 17.3444 4.03759 17.3067C3.94654 17.269 3.84896 17.2496 3.75042 17.2496C3.65187 17.2496 3.55429 17.269 3.46324 17.3067C3.3722 17.3444 3.28947 17.3997 3.21979 17.4694C3.15011 17.539 3.09483 17.6218 3.05712 17.7128C3.01941 17.8039 3 17.9014 3 18C3 18.0985 3.01941 18.1961 3.05712 18.2872C3.09483 18.3782 3.15011 18.4609 3.21979 18.5306L4.71979 20.0306C4.78945 20.1003 4.87216 20.1557 4.96321 20.1934C5.05426 20.2312 5.15186 20.2506 5.25042 20.2506C5.34898 20.2506 5.44657 20.2312 5.53762 20.1934C5.62867 20.1557 5.71139 20.1003 5.78104 20.0306L8.78104 17.0306C8.92177 16.8899 9.00083 16.699 9.00083 16.5C9.00083 16.301 8.92177 16.1101 8.78104 15.9694C8.64031 15.8286 8.44944 15.7496 8.25042 15.7496C8.05139 15.7496 7.86052 15.8286 7.71979 15.9694ZM20.2504 4.49999H12.0004C11.8015 4.49999 11.6107 4.57901 11.4701 4.71966C11.3294 4.86031 11.2504 5.05108 11.2504 5.24999V6.74999C11.2504 6.9489 11.3294 7.13967 11.4701 7.28032C11.6107 7.42097 11.8015 7.49999 12.0004 7.49999H20.2504C20.4493 7.49999 20.6401 7.42097 20.7807 7.28032C20.9214 7.13967 21.0004 6.9489 21.0004 6.74999V5.24999C21.0004 5.05108 20.9214 4.86031 20.7807 4.71966C20.6401 4.57901 20.4493 4.49999 20.2504 4.49999ZM20.2504 16.5H12.0004C11.8015 16.5 11.6107 16.579 11.4701 16.7197C11.3294 16.8603 11.2504 17.0511 11.2504 17.25V18.75C11.2504 18.9489 11.3294 19.1397 11.4701 19.2803C11.6107 19.421 11.8015 19.5 12.0004 19.5H20.2504C20.4493 19.5 20.6401 19.421 20.7807 19.2803C20.9214 19.1397 21.0004 18.9489 21.0004 18.75V17.25C21.0004 17.0511 20.9214 16.8603 20.7807 16.7197C20.6401 16.579 20.4493 16.5 20.2504 16.5ZM20.2504 10.5H12.0004C11.8015 10.5 11.6107 10.579 11.4701 10.7197C11.3294 10.8603 11.2504 11.0511 11.2504 11.25V12.75C11.2504 12.9489 11.3294 13.1397 11.4701 13.2803C11.6107 13.421 11.8015 13.5 12.0004 13.5H20.2504C20.4493 13.5 20.6401 13.421 20.7807 13.2803C20.9214 13.1397 21.0004 12.9489 21.0004 12.75V11.25C21.0004 11.0511 20.9214 10.8603 20.7807 10.7197C20.6401 10.579 20.4493 10.5 20.2504 10.5Z" fill="black"/>
</svg>
