<svg width="24" height="24" viewBox="0 0 24 24" fill="none" xmlns="http://www.w3.org/2000/svg">
<path d="M19.4055 4.7109C18.6428 3.93255 17.7327 3.31402 16.7283 2.89148C15.7238 2.46893 14.6452 2.25085 13.5555 2.24997H13.5246C12.4398 2.24718 11.3653 2.45961 10.3632 2.87495C9.36116 3.29029 8.45144 3.9003 7.68674 4.66965L1.93143 10.5C1.6528 10.7818 1.497 11.1623 1.49805 11.5586C1.49911 11.9549 1.65693 12.3347 1.93706 12.615L4.62393 15.3018C4.76301 15.4416 4.92841 15.5524 5.11056 15.6279C5.29271 15.7033 5.48801 15.742 5.68518 15.7415H5.69362C5.89221 15.7405 6.08862 15.7 6.27144 15.6224C6.45426 15.5448 6.61985 15.4317 6.75862 15.2897L12.468 9.43965C12.7468 9.16365 13.1222 9.0072 13.5145 9.00352C13.9068 8.99984 14.285 9.14924 14.5689 9.41997C14.7093 9.55628 14.8208 9.71936 14.897 9.89956C14.9731 10.0798 15.0124 10.2734 15.0124 10.469C15.0143 10.6772 14.9751 10.8838 14.8971 11.0768C14.819 11.2699 14.7037 11.4456 14.5577 11.594L8.71799 17.2387C8.57536 17.3772 8.46169 17.5427 8.38357 17.7255C8.30546 17.9083 8.26447 18.1049 8.26299 18.3037C8.26151 18.5025 8.29956 18.6996 8.37494 18.8836C8.45031 19.0675 8.56151 19.2347 8.70206 19.3753L11.3889 22.0622C11.669 22.3405 12.0473 22.4977 12.4423 22.4998C12.8372 22.5019 13.2171 22.3488 13.5002 22.0734L19.2939 16.4062C22.5236 13.1718 22.5733 7.92747 19.4055 4.7109ZM5.68518 14.2397L2.99924 11.5537L5.75737 8.75903L8.42737 11.429L5.68518 14.2397ZM12.4483 21L9.75956 18.314L12.5842 15.5831L15.2552 18.2531L12.4483 21Z" fill="black"/>
</svg>
