<svg width="24" height="24" viewBox="0 0 24 24" fill="none" xmlns="http://www.w3.org/2000/svg">
<path d="M21.5311 20.4694L16.838 15.7762C18.2009 14.1416 18.8812 12.0445 18.7372 9.92113C18.5933 7.79774 17.6363 5.81159 16.0652 4.37586C14.4942 2.94013 12.4301 2.16536 10.3024 2.21275C8.17464 2.26013 6.14709 3.12601 4.64152 4.63025C3.13595 6.13449 2.26828 8.16128 2.21901 10.289C2.16975 12.4167 2.94269 14.4814 4.37703 16.0537C5.81137 17.626 7.79668 18.5848 9.91994 18.7306C12.0432 18.8764 14.1409 18.198 15.7767 16.8366L20.4699 21.5306C20.5395 21.6003 20.6223 21.6556 20.7133 21.6933C20.8044 21.731 20.9019 21.7504 21.0005 21.7504C21.099 21.7504 21.1966 21.731 21.2877 21.6933C21.3787 21.6556 21.4614 21.6003 21.5311 21.5306C21.6008 21.4609 21.6561 21.3782 21.6938 21.2872C21.7315 21.1961 21.7509 21.0985 21.7509 21C21.7509 20.9015 21.7315 20.8039 21.6938 20.7128C21.6561 20.6218 21.6008 20.5391 21.5311 20.4694ZM13.5005 11.25H7.50049C7.30157 11.25 7.11081 11.171 6.97016 11.0303C6.8295 10.8897 6.75049 10.6989 6.75049 10.5C6.75049 10.3011 6.8295 10.1103 6.97016 9.96967C7.11081 9.82902 7.30157 9.75 7.50049 9.75H13.5005C13.6994 9.75 13.8902 9.82902 14.0308 9.96967C14.1715 10.1103 14.2505 10.3011 14.2505 10.5C14.2505 10.6989 14.1715 10.8897 14.0308 11.0303C13.8902 11.171 13.6994 11.25 13.5005 11.25Z" fill="black"/>
</svg>
