<svg width="24" height="24" viewBox="0 0 24 24" fill="none" xmlns="http://www.w3.org/2000/svg">
<path d="M18.8945 5.10562C17.066 3.27712 14.586 2.24988 12.0001 2.24988C9.41423 2.24988 6.93425 3.27712 5.10574 5.10562C3.27724 6.93412 2.25 9.4141 2.25 12C2.25 14.5859 3.27724 17.0659 5.10574 18.8944C6.93425 20.7229 9.41423 21.7501 12.0001 21.7501C14.586 21.7501 17.066 20.7229 18.8945 18.8944C20.723 17.0659 21.7502 14.5859 21.7502 12C21.7502 9.4141 20.723 6.93412 18.8945 5.10562ZM8.25012 19.3472V16.5H15.7501V19.3472C14.5881 19.937 13.3033 20.2444 12.0001 20.2444C10.697 20.2444 9.41217 19.937 8.25012 19.3472ZM9.75012 12.75H14.2501V15H9.75012V12.75ZM17.8332 17.8341C17.6457 18.0216 17.4507 18.1969 17.2501 18.3628V16.5C17.2501 16.1022 17.0921 15.7206 16.8108 15.4393C16.5295 15.158 16.1479 15 15.7501 15V12.75C15.7497 12.3892 15.6192 12.0406 15.3826 11.7682C15.146 11.4958 14.8192 11.3178 14.462 11.2669L13.4626 6.87187C13.3871 6.54047 13.2013 6.24455 12.9355 6.03258C12.6698 5.82062 12.34 5.70518 12.0001 5.70518C11.6602 5.70518 11.3304 5.82062 11.0647 6.03258C10.799 6.24455 10.6131 6.54047 10.5376 6.87187L9.53824 11.2669C9.18106 11.3178 8.85421 11.4958 8.61762 11.7682C8.38103 12.0406 8.25056 12.3892 8.25012 12.75V15C7.85229 15 7.47076 15.158 7.18946 15.4393C6.90815 15.7206 6.75012 16.1022 6.75012 16.5V18.3628C6.54949 18.1969 6.35449 18.0216 6.16699 17.8341C5.01307 16.6803 4.22719 15.2103 3.90874 13.6099C3.5903 12.0096 3.75359 10.3507 4.37798 8.84311C5.00236 7.33554 6.05978 6.04698 7.41651 5.1404C8.77325 4.23381 10.3684 3.74992 12.0001 3.74992C13.6319 3.74992 15.227 4.23381 16.5837 5.1404C17.9405 6.04698 18.9979 7.33554 19.6223 8.84311C20.2466 10.3507 20.4099 12.0096 20.0915 13.6099C19.773 15.2103 18.9872 16.6803 17.8332 17.8341Z" fill="black"/>
</svg>
