<svg width="24" height="24" viewBox="0 0 24 24" fill="none" xmlns="http://www.w3.org/2000/svg">
<path d="M19.4062 3H4.59375C4.17106 3 3.76568 3.16791 3.4668 3.4668C3.16791 3.76568 3 4.17106 3 4.59375V9.20719C3.0004 9.51345 3.08903 9.81312 3.25529 10.0703C3.42155 10.3275 3.6584 10.5314 3.9375 10.6575L9.80625 13.3247C8.93728 13.811 8.25414 14.5717 7.86383 15.4878C7.47353 16.4039 7.3981 17.4236 7.64937 18.3871C7.90063 19.3507 8.4644 20.2037 9.25236 20.8125C10.0403 21.4214 11.008 21.7516 12.0037 21.7516C12.9995 21.7516 13.9672 21.4214 14.7551 20.8125C15.5431 20.2037 16.1069 19.3507 16.3581 18.3871C16.6094 17.4236 16.534 16.4039 16.1437 15.4878C15.7534 14.5717 15.0702 13.811 14.2013 13.3247L20.0625 10.6575C20.3416 10.5314 20.5784 10.3275 20.7447 10.0703C20.911 9.81312 20.9996 9.51345 21 9.20719V4.59375C21 4.17106 20.8321 3.76568 20.5332 3.4668C20.2343 3.16791 19.8289 3 19.4062 3ZM9 4.5H15V11.3128L12 12.6759L9 11.3128V4.5ZM12 20.25C11.4067 20.25 10.8266 20.0741 10.3333 19.7444C9.83994 19.4148 9.45542 18.9462 9.22836 18.398C9.0013 17.8499 8.94189 17.2467 9.05764 16.6647C9.1734 16.0828 9.45912 15.5482 9.87868 15.1287C10.2982 14.7091 10.8328 14.4234 11.4147 14.3076C11.9967 14.1919 12.5999 14.2513 13.1481 14.4784C13.6962 14.7054 14.1648 15.0899 14.4944 15.5833C14.8241 16.0766 15 16.6567 15 17.25C15 18.0456 14.6839 18.8087 14.1213 19.3713C13.5587 19.9339 12.7956 20.25 12 20.25Z" fill="black"/>
</svg>
