<svg width="24" height="24" viewBox="0 0 24 24" fill="none" xmlns="http://www.w3.org/2000/svg">
<path d="M12 2.25C10.0716 2.25 8.18657 2.82183 6.58319 3.89317C4.97982 4.96451 3.73013 6.48726 2.99218 8.26884C2.25422 10.0504 2.06114 12.0108 2.43735 13.9021C2.81355 15.7934 3.74215 17.5307 5.10571 18.8943C6.46928 20.2579 8.20656 21.1865 10.0979 21.5627C11.9892 21.9389 13.9496 21.7458 15.7312 21.0078C17.5127 20.2699 19.0355 19.0202 20.1068 17.4168C21.1782 15.8134 21.75 13.9284 21.75 12C21.7473 9.41498 20.7192 6.93661 18.8913 5.10872C17.0634 3.28084 14.585 2.25273 12 2.25ZM18.8653 15.9619C18.3375 16.8056 17.5219 17.25 16.5066 17.25C14.5631 17.25 13.2431 14.8772 11.8453 12.3647C10.8253 10.5309 9.55594 8.25 8.49469 8.25C7.32938 8.25 6 10.9575 6 13.3322C6 14.1066 6.14063 14.7384 6.40688 15.1659C6.65625 15.5625 7.00125 15.75 7.49344 15.75C8.06344 15.75 8.76094 15.0938 9.62532 13.7334C9.73496 13.5722 9.9031 13.46 10.0941 13.4206C10.2851 13.3812 10.4839 13.4178 10.6484 13.5225C10.8129 13.6272 10.9301 13.7919 10.9752 13.9816C11.0203 14.1714 10.9897 14.3712 10.89 14.5387C9.36 16.9416 8.27063 17.25 7.49344 17.25C6.47813 17.25 5.6625 16.8047 5.13469 15.9619C4.71938 15.2981 4.5 14.3887 4.5 13.3369C4.51654 11.8643 4.86926 10.4149 5.53125 9.09937C6.31313 7.58437 7.36594 6.75 8.49469 6.75C10.4381 6.75 11.7581 9.12281 13.1559 11.6353C14.1759 13.4681 15.4453 15.75 16.5066 15.75C16.9988 15.75 17.3438 15.5625 17.5931 15.1659C17.8594 14.7413 18 14.1066 18 13.3322C18 10.9575 16.6706 8.25 15.5053 8.25C15.1866 8.25 14.8163 8.46656 14.4047 8.895C14.3364 8.96604 14.2548 9.02293 14.1646 9.06244C14.0743 9.10194 13.9772 9.12328 13.8787 9.12524C13.7802 9.1272 13.6822 9.10974 13.5905 9.07385C13.4987 9.03797 13.4149 8.98436 13.3439 8.91609C13.2729 8.84783 13.216 8.76624 13.1765 8.67598C13.137 8.58573 13.1156 8.48857 13.1137 8.39007C13.1117 8.29157 13.1292 8.19365 13.1651 8.10189C13.2009 8.01014 13.2545 7.92635 13.3228 7.85531C14.0381 7.11188 14.7516 6.75 15.5053 6.75C16.6303 6.75 17.6869 7.58437 18.4697 9.09937C19.131 10.4135 19.4837 11.8612 19.5009 13.3322C19.5 14.3888 19.2806 15.2981 18.8653 15.9619Z" fill="black"/>
</svg>
