<svg width="24" height="24" viewBox="0 0 24 24" fill="none" xmlns="http://www.w3.org/2000/svg">
<path d="M8.25 13.5C7.95333 13.5 7.66332 13.412 7.41665 13.2472C7.16997 13.0824 6.97771 12.8481 6.86418 12.574C6.75065 12.2999 6.72094 11.9983 6.77882 11.7074C6.8367 11.4164 6.97956 11.1491 7.18934 10.9393C7.39912 10.7296 7.66639 10.5867 7.95736 10.5288C8.24834 10.4709 8.54994 10.5006 8.82403 10.6142C9.09811 10.7277 9.33238 10.92 9.4972 11.1666C9.66203 11.4133 9.75 11.7033 9.75 12C9.75 12.3978 9.59196 12.7794 9.31066 13.0607C9.02936 13.342 8.64782 13.5 8.25 13.5ZM21.75 11.25V19.5C21.7499 19.7037 21.7083 19.9053 21.6277 20.0925C21.5471 20.2796 21.4292 20.4484 21.2812 20.5884C21.2599 20.61 21.2374 20.6303 21.2137 20.6494C20.944 20.8763 20.6026 21.0005 20.25 21H8.25C7.85218 21 7.47064 20.842 7.18934 20.5607C6.90804 20.2794 6.75 19.8978 6.75 19.5V18H3.75C3.35218 18 2.97064 17.842 2.68934 17.5607C2.40804 17.2794 2.25 16.8978 2.25 16.5V7.5C2.25 7.10218 2.40804 6.72064 2.68934 6.43934C2.97064 6.15804 3.35218 6 3.75 6H9V4.5C9 4.10218 9.15804 3.72064 9.43934 3.43934C9.72064 3.15804 10.1022 3 10.5 3H18C18.3978 3 18.7794 3.15804 19.0607 3.43934C19.342 3.72064 19.5 4.10218 19.5 4.5V9.75H20.25C20.5912 9.75035 20.9221 9.86746 21.1875 10.0819L21.195 10.0884L21.2081 10.0988C21.2328 10.1183 21.256 10.1396 21.2775 10.1625C21.4263 10.3019 21.545 10.4703 21.6263 10.6573C21.7076 10.8444 21.7497 11.0461 21.75 11.25ZM10.5 6H12.75C13.1478 6 13.5294 6.15804 13.8107 6.43934C14.092 6.72064 14.25 7.10218 14.25 7.5V14.4497L18 11.7413V4.5H10.5V6ZM8.25 15C8.84334 15 9.42336 14.8241 9.91671 14.4944C10.4101 14.1648 10.7946 13.6962 11.0216 13.1481C11.2487 12.5999 11.3081 11.9967 11.1924 11.4147C11.0766 10.8328 10.7909 10.2982 10.3713 9.87868C9.95176 9.45912 9.41721 9.1734 8.83527 9.05764C8.25333 8.94189 7.65013 9.0013 7.10195 9.22836C6.55377 9.45542 6.08524 9.83994 5.75559 10.3333C5.42595 10.8266 5.25 11.4067 5.25 12C5.25 12.7956 5.56607 13.5587 6.12868 14.1213C6.69129 14.6839 7.45435 15 8.25 15ZM18.6806 19.5L14.25 16.3003V16.5C14.25 16.8978 14.092 17.2794 13.8107 17.5607C13.5294 17.842 13.1478 18 12.75 18H8.25V19.5H18.6806ZM20.25 11.9672L15.5306 15.375L20.25 18.7828V11.9672Z" fill="black"/>
</svg>
