<svg width="24" height="24" viewBox="0 0 24 24" fill="none" xmlns="http://www.w3.org/2000/svg">
<path d="M20.0046 20.805C19.8574 20.9388 19.6631 21.0086 19.4644 20.9991C19.2657 20.9896 19.079 20.9016 18.9452 20.7544L16.4646 18.0263C15.379 18.8317 14.0953 19.3278 12.7502 19.4616V21.75C12.7502 21.9489 12.6712 22.1397 12.5305 22.2804C12.3899 22.421 12.1991 22.5 12.0002 22.5C11.8013 22.5 11.6105 22.421 11.4699 22.2804C11.3292 22.1397 11.2502 21.9489 11.2502 21.75V19.4625C9.4011 19.2744 7.68747 18.4073 6.44067 17.0288C5.19387 15.6504 4.50247 13.8587 4.50019 12C4.50019 11.8011 4.57921 11.6104 4.71986 11.4697C4.86051 11.3291 5.05128 11.25 5.25019 11.25C5.4491 11.25 5.63987 11.3291 5.78052 11.4697C5.92117 11.6104 6.00019 11.8011 6.00019 12C6.00034 13.0984 6.30198 14.1756 6.87224 15.1144C7.44251 16.0531 8.2595 16.8173 9.23418 17.3236C10.2089 17.83 11.3038 18.059 12.3998 17.9859C13.4957 17.9127 14.5505 17.5402 15.4493 16.9088L14.4293 15.7838C13.7496 16.2196 12.9653 16.4645 12.1585 16.4929C11.3517 16.5213 10.552 16.3321 9.84348 15.9452C9.13491 15.5583 8.54349 14.9879 8.13121 14.2937C7.71892 13.5996 7.50097 12.8074 7.50019 12V8.16472L3.94519 4.25441C3.87756 4.18177 3.82503 4.09643 3.79063 4.00333C3.75623 3.91023 3.74065 3.81124 3.74479 3.71207C3.74894 3.61291 3.77272 3.51556 3.81477 3.42566C3.85681 3.33576 3.91628 3.25509 3.98973 3.18834C4.06318 3.12159 4.14915 3.07009 4.24265 3.03681C4.33615 3.00353 4.43533 2.98913 4.53443 2.99447C4.63354 2.9998 4.7306 3.02475 4.81999 3.06787C4.90938 3.11099 4.98932 3.17142 5.05519 3.24566L20.0552 19.7457C20.1889 19.8929 20.2588 20.0872 20.2493 20.2858C20.2398 20.4845 20.1517 20.6713 20.0046 20.805ZM15.1952 12.1697C15.297 12.2817 15.4303 12.3603 15.5777 12.3952C15.725 12.43 15.8794 12.4194 16.0206 12.3648C16.1618 12.3103 16.2831 12.2142 16.3687 12.0894C16.4544 11.9646 16.5002 11.8167 16.5002 11.6653V6.00004C16.5002 5.02085 16.1808 4.06839 15.5904 3.28716C15.0001 2.50594 14.1711 1.93858 13.2291 1.67118C12.2871 1.40377 11.2836 1.45091 10.3709 1.80544C9.45814 2.15997 8.68594 2.80254 8.17144 3.63566C8.0852 3.77376 8.04624 3.93617 8.06045 4.09836C8.07465 4.26056 8.14125 4.41372 8.25019 4.53472L15.1952 12.1697ZM18.0171 15.1538C18.1088 15.1896 18.2068 15.2069 18.3053 15.2048C18.4037 15.2028 18.5009 15.1813 18.591 15.1417C18.6812 15.1021 18.7627 15.0451 18.8309 14.974C18.8991 14.9029 18.9526 14.819 18.9883 14.7272C19.3279 13.8581 19.5015 12.9331 19.5002 12C19.5002 11.8011 19.4212 11.6104 19.2805 11.4697C19.1399 11.3291 18.9491 11.25 18.7502 11.25C18.5513 11.25 18.3605 11.3291 18.2199 11.4697C18.0792 11.6104 18.0002 11.8011 18.0002 12C18.0014 12.7464 17.8628 13.4863 17.5914 14.1816C17.5555 14.2734 17.538 14.3713 17.5399 14.4699C17.5419 14.5684 17.5632 14.6656 17.6027 14.7559C17.6423 14.8462 17.6992 14.9278 17.7703 14.9961C17.8414 15.0644 17.9252 15.1179 18.0171 15.1538Z" fill="black"/>
</svg>
