<svg width="24" height="24" viewBox="0 0 24 24" fill="none" xmlns="http://www.w3.org/2000/svg">
<path d="M10.787 4.34627C10.7482 4.30749 10.7014 4.27769 10.6499 4.25896C10.5984 4.24022 10.5434 4.23301 10.4887 4.23784C10.4341 4.24267 10.3812 4.25941 10.3338 4.28689C10.2864 4.31437 10.2455 4.35192 10.2142 4.39689C9.42308 5.52596 8.99915 6.87139 9.0001 8.25002C9.00078 8.54536 9.02051 8.84034 9.05916 9.13314L2.5426 18.0206C2.3293 18.3091 2.22698 18.6647 2.25435 19.0225C2.28173 19.3802 2.43696 19.7161 2.69166 19.9688L4.03135 21.3085C4.28402 21.5632 4.61993 21.7184 4.97765 21.7458C5.33537 21.7731 5.69099 21.6708 5.97947 21.4575L14.8679 14.9391C15.1604 14.9783 15.455 14.9987 15.7501 15C17.1282 15.0013 18.4733 14.5781 19.6023 13.7878C19.6473 13.7565 19.6848 13.7156 19.7123 13.6682C19.7398 13.6207 19.7565 13.5679 19.7613 13.5132C19.7662 13.4586 19.759 13.4036 19.7402 13.3521C19.7215 13.3006 19.6917 13.2538 19.6529 13.215L10.787 4.34627ZM11.0317 14.0288L9.53166 15.5288C9.46271 15.6013 9.37993 15.6594 9.28819 15.6995C9.19646 15.7395 9.09763 15.7608 8.99753 15.7621C8.89743 15.7634 8.79809 15.7446 8.70536 15.7069C8.61262 15.6692 8.52838 15.6133 8.4576 15.5425C8.38681 15.4717 8.33091 15.3875 8.29319 15.2948C8.25548 15.202 8.23671 15.1027 8.23799 15.0026C8.23927 14.9025 8.26058 14.8037 8.30066 14.7119C8.34073 14.6202 8.39877 14.5374 8.47135 14.4685L9.97135 12.9685C10.1131 12.8337 10.302 12.7597 10.4975 12.7622C10.6931 12.7648 10.88 12.8436 11.0183 12.9819C11.1566 13.1202 11.2354 13.307 11.2379 13.5026C11.2404 13.6982 11.1664 13.887 11.0317 14.0288ZM21.2879 12.1013C21.2566 12.1464 21.2157 12.1841 21.1682 12.2117C21.1206 12.2392 21.0676 12.256 21.0129 12.2609C20.9581 12.2657 20.903 12.2584 20.8514 12.2396C20.7998 12.2208 20.7529 12.1908 20.7142 12.1519L11.8482 3.28595C11.8093 3.24719 11.7793 3.20034 11.7605 3.14872C11.7417 3.0971 11.7344 3.04197 11.7392 2.98723C11.7441 2.93249 11.7609 2.87949 11.7884 2.83196C11.816 2.78444 11.8537 2.74355 11.8988 2.7122C13.1975 1.80606 14.7735 1.38582 16.3509 1.52512C17.9283 1.66441 19.4063 2.35437 20.526 3.47408C21.6457 4.59379 22.3357 6.07183 22.475 7.6492C22.6143 9.22657 22.1941 10.8027 21.2879 12.1013Z" fill="black"/>
</svg>
