<svg width="24" height="24" viewBox="0 0 24 24" fill="none" xmlns="http://www.w3.org/2000/svg">
<path d="M19.9613 2.40845C19.8714 2.33845 19.7668 2.28983 19.6554 2.26627C19.5439 2.24272 19.4286 2.24485 19.3181 2.27252L7.31813 5.27252C7.15587 5.31307 7.01183 5.4067 6.90889 5.53851C6.80596 5.67033 6.75003 5.83277 6.75 6.00002V16.32C6.12435 15.902 5.37694 15.705 4.62652 15.7604C3.8761 15.8158 3.16571 16.1204 2.60823 16.6258C2.05075 17.1312 1.67814 17.8084 1.54961 18.5498C1.42108 19.2912 1.54399 20.0543 1.89883 20.7178C2.25366 21.3813 2.82007 21.9073 3.50805 22.212C4.19603 22.5168 4.96612 22.5829 5.69598 22.3999C6.42584 22.2168 7.0736 21.7952 7.53635 21.2018C7.99909 20.6085 8.25028 19.8775 8.25 19.125V6.58595L18.75 3.96095V13.32C18.1243 12.902 17.3769 12.705 16.6265 12.7604C15.8761 12.8158 15.1657 13.1204 14.6082 13.6258C14.0507 14.1312 13.6781 14.8084 13.5496 15.5498C13.4211 16.2912 13.544 17.0543 13.8988 17.7178C14.2537 18.3813 14.8201 18.9073 15.508 19.212C16.196 19.5168 16.9661 19.5829 17.696 19.3999C18.4258 19.2168 19.0736 18.7952 19.5363 18.2018C19.9991 17.6085 20.2503 16.8775 20.25 16.125V3.00002C20.25 2.88595 20.224 2.77337 20.174 2.67086C20.124 2.56835 20.0512 2.47861 19.9613 2.40845Z" fill="black"/>
</svg>
