<svg width="24" height="24" viewBox="0 0 24 24" fill="none" xmlns="http://www.w3.org/2000/svg">
<path d="M19.9613 2.41034C19.8719 2.33948 19.7673 2.29025 19.6557 2.26651C19.5442 2.24276 19.4286 2.24514 19.3181 2.27346L7.31813 5.27346C7.15603 5.31398 7.0121 5.40747 6.90918 5.53909C6.80626 5.67071 6.75024 5.83294 6.75 6.00002V16.3219C6.12428 15.9038 5.37678 15.7069 4.62628 15.7623C3.87579 15.8178 3.16535 16.1225 2.60788 16.628C2.05041 17.1335 1.67788 17.8108 1.54949 18.5523C1.4211 19.2938 1.54421 20.057 1.89927 20.7205C2.25433 21.384 2.82096 21.9098 3.50912 22.2144C4.19728 22.519 4.96749 22.5848 5.69735 22.4014C6.42721 22.2181 7.07485 21.796 7.53736 21.2024C7.99986 20.6088 8.2507 19.8776 8.25 19.125V10.336L18.75 7.71096V13.3219C18.1243 12.9038 17.3768 12.7069 16.6263 12.7623C15.8758 12.8178 15.1654 13.1225 14.6079 13.628C14.0504 14.1335 13.6779 14.8108 13.5495 15.5523C13.4211 16.2938 13.5442 17.057 13.8993 17.7205C14.2543 18.384 14.821 18.9098 15.5091 19.2144C16.1973 19.519 16.9675 19.5848 17.6973 19.4014C18.4272 19.2181 19.0749 18.796 19.5374 18.2024C19.9999 17.6088 20.2507 16.8776 20.25 16.125V3.00002C20.2497 2.88627 20.2236 2.77407 20.1736 2.6719C20.1236 2.56974 20.051 2.48029 19.9613 2.41034Z" fill="black"/>
</svg>
