<svg width="24" height="24" viewBox="0 0 24 24" fill="none" xmlns="http://www.w3.org/2000/svg">
<path d="M21.75 5.25C21.75 5.44891 21.671 5.63968 21.5303 5.78033C21.3897 5.92098 21.1989 6 21 6H19.5V7.5C19.5 7.69891 19.421 7.88968 19.2803 8.03033C19.1397 8.17098 18.9489 8.25 18.75 8.25C18.5511 8.25 18.3603 8.17098 18.2197 8.03033C18.079 7.88968 18 7.69891 18 7.5V6H16.5C16.3011 6 16.1103 5.92098 15.9697 5.78033C15.829 5.63968 15.75 5.44891 15.75 5.25C15.75 5.05109 15.829 4.86032 15.9697 4.71967C16.1103 4.57902 16.3011 4.5 16.5 4.5H18V3C18 2.80109 18.079 2.61032 18.2197 2.46967C18.3603 2.32902 18.5511 2.25 18.75 2.25C18.9489 2.25 19.1397 2.32902 19.2803 2.46967C19.421 2.61032 19.5 2.80109 19.5 3V4.5H21C21.1989 4.5 21.3897 4.57902 21.5303 4.71967C21.671 4.86032 21.75 5.05109 21.75 5.25ZM19.5 10.5C19.3011 10.5 19.1103 10.579 18.9697 10.7197C18.829 10.8603 18.75 11.0511 18.75 11.25V13.32C18.1243 12.902 17.3769 12.705 16.6265 12.7604C15.8761 12.8158 15.1657 13.1204 14.6082 13.6258C14.0507 14.1312 13.6781 14.8083 13.5496 15.5497C13.4211 16.2911 13.544 17.0542 13.8988 17.7178C14.2537 18.3813 14.8201 18.9073 15.508 19.212C16.196 19.5168 16.9661 19.5829 17.696 19.3999C18.4258 19.2168 19.0736 18.7951 19.5363 18.2018C19.9991 17.6084 20.2503 16.8775 20.25 16.125V11.25C20.25 11.0511 20.171 10.8603 20.0303 10.7197C19.8897 10.579 19.6989 10.5 19.5 10.5ZM14.3981 9.49969C14.543 9.40009 14.6482 9.25279 14.6955 9.08349C14.7428 8.9142 14.7291 8.73368 14.6569 8.57344C14.6299 8.51327 14.5953 8.45685 14.5538 8.40563C13.7638 7.35924 13.3958 6.05431 13.5225 4.74937C13.5397 4.5518 13.4779 4.35547 13.3507 4.20332C13.2235 4.05117 13.0412 3.95559 12.8438 3.9375C12.7617 3.93041 12.679 3.93706 12.5991 3.95719L7.31813 5.2725C7.15587 5.31306 7.01183 5.40668 6.90889 5.5385C6.80596 5.67031 6.75003 5.83275 6.75 6V16.32C6.12435 15.902 5.37694 15.705 4.62652 15.7604C3.8761 15.8158 3.16571 16.1204 2.60823 16.6258C2.05075 17.1312 1.67814 17.8083 1.54961 18.5497C1.42108 19.2911 1.54399 20.0542 1.89883 20.7178C2.25366 21.3813 2.82007 21.9073 3.50805 22.212C4.19603 22.5168 4.96612 22.5829 5.69598 22.3999C6.42584 22.2168 7.0736 21.7951 7.53635 21.2018C7.99909 20.6084 8.25028 19.8775 8.25 19.125V11.0859L14.1394 9.61312C14.232 9.59192 14.3198 9.55343 14.3981 9.49969Z" fill="black"/>
</svg>
