<svg width="24" height="24" viewBox="0 0 24 24" fill="none" xmlns="http://www.w3.org/2000/svg">
<path d="M19.7156 5.28185L12.2156 3.03185C12.1037 2.99824 11.9854 2.99127 11.8702 3.0115C11.7551 3.03173 11.6462 3.0786 11.5524 3.14837C11.4586 3.21813 11.3824 3.30887 11.3299 3.41332C11.2774 3.51778 11.25 3.63306 11.25 3.74997V13.8993C10.4819 13.2123 9.5013 12.8098 8.47206 12.7589C7.44282 12.7081 6.4273 13.012 5.59523 13.62C4.76317 14.2279 4.16496 15.103 3.9006 16.099C3.63624 17.095 3.72173 18.1516 4.14279 19.0922C4.56386 20.0327 5.29498 20.8002 6.21396 21.2665C7.13295 21.7327 8.18412 21.8695 9.1918 21.6538C10.1995 21.4381 11.1026 20.8831 11.7502 20.0816C12.3979 19.28 12.7508 18.2805 12.75 17.25V4.75779L19.2844 6.7181C19.3794 6.74905 19.4797 6.7607 19.5793 6.75235C19.6789 6.74401 19.7758 6.71583 19.8644 6.66949C19.953 6.62314 20.0314 6.55956 20.095 6.48249C20.1586 6.40541 20.2062 6.31639 20.235 6.22066C20.2637 6.12492 20.273 6.02441 20.2624 5.92503C20.2517 5.82564 20.2213 5.72939 20.1729 5.64192C20.1245 5.55446 20.0592 5.47755 19.9806 5.41571C19.9021 5.35388 19.812 5.30837 19.7156 5.28185Z" fill="black"/>
</svg>
