<svg width="24" height="24" viewBox="0 0 24 24" fill="none" xmlns="http://www.w3.org/2000/svg">
<path d="M22.5005 10.6481C22.4982 10.965 22.3941 11.2728 22.2035 11.526C22.0129 11.7793 21.7459 11.9645 21.442 12.0544L14.2645 14.2631L12.0558 21.4406C11.9658 21.7444 11.7805 22.0113 11.5273 22.2019C11.2741 22.3925 10.9664 22.4966 10.6495 22.4991H10.6214C10.3107 22.502 10.0069 22.4069 9.75328 22.2273C9.49966 22.0477 9.30907 21.7928 9.20859 21.4987L3.09421 5.00718C3.09224 5.00232 3.09067 4.9973 3.08953 4.99218C2.99812 4.72671 2.98306 4.44091 3.04605 4.16731C3.10904 3.8937 3.24756 3.64326 3.44585 3.44449C3.64413 3.24572 3.89423 3.10658 4.16768 3.04292C4.44113 2.97925 4.72696 2.99361 4.99265 3.08436L5.00765 3.08905L21.5002 9.20717C21.7988 9.30925 22.0569 9.50415 22.2369 9.76339C22.4169 10.0226 22.5092 10.3326 22.5005 10.6481Z" fill="black"/>
</svg>
