<svg width="24" height="24" viewBox="0 0 24 24" fill="none" xmlns="http://www.w3.org/2000/svg">
<path d="M19.9019 4.09874C19.1987 3.39573 18.245 3.00079 17.2506 3.00079C16.2563 3.00079 15.3026 3.39573 14.5994 4.09874L12.3494 6.34874C12.2397 6.45829 12.1667 6.59912 12.1403 6.75187C11.3153 11.5575 3.37563 19.5684 3.22188 19.7184C3.08115 19.859 3.00204 20.0498 3.00195 20.2487C3.00187 20.4477 3.08081 20.6385 3.22141 20.7792C3.36202 20.9199 3.55277 20.9991 3.75171 20.9991C3.95064 20.9992 4.14146 20.9203 4.28219 20.7797C4.36282 20.6981 12.4225 12.6881 17.2497 11.8594C17.4024 11.833 17.5433 11.76 17.6528 11.6503L19.9028 9.40031C20.6058 8.69708 21.0008 7.74342 21.0008 6.74905C21.0008 5.75469 20.6058 4.80103 19.9028 4.09781L19.9019 4.09874ZM17.7813 7.28062L16.2813 8.78062C16.1405 8.92135 15.9497 9.00041 15.7506 9.00041C15.5516 9.00041 15.3607 8.92135 15.22 8.78062C15.0793 8.63989 15.0002 8.44902 15.0002 8.24999C15.0002 8.05097 15.0793 7.8601 15.22 7.71937L16.72 6.21937C16.8607 6.07864 17.0516 5.99958 17.2506 5.99958C17.4497 5.99958 17.6405 6.07864 17.7813 6.21937C17.922 6.3601 18.001 6.55097 18.0011 6.74999C18.0011 6.94902 17.922 7.13989 17.7813 7.28062Z" fill="black"/>
</svg>
