<svg width="24" height="24" viewBox="0 0 24 24" fill="none" xmlns="http://www.w3.org/2000/svg">
<path d="M18.75 2.25H5.25C4.85218 2.25 4.47064 2.40804 4.18934 2.68934C3.90804 2.97064 3.75 3.35218 3.75 3.75V20.25C3.75 20.6478 3.90804 21.0294 4.18934 21.3107C4.47064 21.592 4.85218 21.75 5.25 21.75H18.75C19.1478 21.75 19.5294 21.592 19.8107 21.3107C20.092 21.0294 20.25 20.6478 20.25 20.25V3.75C20.25 3.35218 20.092 2.97064 19.8107 2.68934C19.5294 2.40804 19.1478 2.25 18.75 2.25ZM15.75 14.25H15V17.25C15 17.4489 14.921 17.6397 14.7803 17.7803C14.6397 17.921 14.4489 18 14.25 18C14.0511 18 13.8603 17.921 13.7197 17.7803C13.579 17.6397 13.5 17.4489 13.5 17.25V14.25H8.25C8.12708 14.2502 8.00599 14.2202 7.89739 14.1626C7.78879 14.1051 7.696 14.0217 7.6272 13.9198C7.5584 13.8179 7.51569 13.7007 7.50282 13.5785C7.48996 13.4562 7.50734 13.3327 7.55344 13.2188L10.5534 5.71875C10.628 5.53401 10.773 5.38647 10.9563 5.30858C11.1397 5.2307 11.3465 5.22885 11.5312 5.30344C11.716 5.37803 11.8635 5.52295 11.9414 5.70633C12.0193 5.8897 12.0212 6.09651 11.9466 6.28125L9.35812 12.75H13.5V9.75C13.5 9.55109 13.579 9.36032 13.7197 9.21967C13.8603 9.07902 14.0511 9 14.25 9C14.4489 9 14.6397 9.07902 14.7803 9.21967C14.921 9.36032 15 9.55109 15 9.75V12.75H15.75C15.9489 12.75 16.1397 12.829 16.2803 12.9697C16.421 13.1103 16.5 13.3011 16.5 13.5C16.5 13.6989 16.421 13.8897 16.2803 14.0303C16.1397 14.171 15.9489 14.25 15.75 14.25Z" fill="black"/>
</svg>
