<svg width="24" height="24" viewBox="0 0 24 24" fill="none" xmlns="http://www.w3.org/2000/svg">
<path d="M21.6247 2.37752C21.3461 2.09887 21.0153 1.87783 20.6513 1.72702C20.2873 1.57622 19.8971 1.4986 19.5031 1.4986C19.1091 1.4986 18.7189 1.57622 18.3549 1.72702C17.9909 1.87783 17.6601 2.09887 17.3815 2.37752C17.3722 2.38689 17.3628 2.39627 17.3543 2.40658L12.2065 8.14221L11.3459 7.27877C11.137 7.06971 10.8889 6.90387 10.6158 6.79073C10.3427 6.67758 10.0501 6.61934 9.7545 6.61934C9.45892 6.61934 9.16625 6.67758 8.89319 6.79073C8.62013 6.90387 8.37204 7.06971 8.16309 7.27877L0.973402 14.4694C0.832856 14.61 0.753906 14.8007 0.753906 14.9995C0.753906 15.1984 0.832856 15.3891 0.973402 15.5297L8.4734 23.0297C8.61404 23.1703 8.80473 23.2492 9.00356 23.2492C9.20239 23.2492 9.39308 23.1703 9.53371 23.0297L16.7234 15.8438C16.9325 15.6348 17.0983 15.3867 17.2114 15.1137C17.3246 14.8406 17.3828 14.5479 17.3828 14.2524C17.3828 13.9568 17.3246 13.6641 17.2114 13.3911C17.0983 13.118 16.9325 12.8699 16.7234 12.661L15.86 11.7985L21.5956 6.65064C21.606 6.642 21.6157 6.6326 21.6247 6.62252C21.9036 6.3439 22.1249 6.01303 22.2758 5.64884C22.4268 5.28465 22.5045 4.89426 22.5045 4.50002C22.5045 4.10577 22.4268 3.71539 22.2758 3.3512C22.1249 2.987 21.9036 2.65614 21.6247 2.37752ZM9.00215 21.4397L7.4384 19.875L9.53278 17.7797C9.66749 17.6379 9.74149 17.4491 9.73898 17.2535C9.73648 17.058 9.65767 16.8711 9.51937 16.7328C9.38107 16.5945 9.19422 16.5157 8.99865 16.5132C8.80307 16.5107 8.61426 16.5847 8.47246 16.7194L6.37715 18.8138L5.1884 17.625L7.28278 15.5297C7.41749 15.3879 7.49149 15.1991 7.48898 15.0035C7.48648 14.808 7.40767 14.6211 7.26937 14.4828C7.13107 14.3445 6.94422 14.2657 6.74865 14.2632C6.55307 14.2607 6.36426 14.3347 6.22246 14.4694L4.12715 16.5638L2.56246 15L6.75215 10.8103L13.1918 17.25L9.00215 21.4397Z" fill="black"/>
</svg>
