<svg width="24" height="24" viewBox="0 0 24 24" fill="none" xmlns="http://www.w3.org/2000/svg">
<path d="M23.9988 19.125C23.9988 19.8212 23.7222 20.4889 23.23 20.9812C22.7377 21.4734 22.07 21.75 21.3738 21.75C20.6776 21.75 20.0099 21.4734 19.5176 20.9812C19.0254 20.4889 18.7488 19.8212 18.7488 19.125C18.7488 16.9153 20.8169 15.2353 20.9051 15.1641C21.0381 15.0576 21.2034 14.9995 21.3738 14.9995C21.5442 14.9995 21.7095 15.0576 21.8426 15.1641C21.9307 15.2353 23.9988 16.9153 23.9988 19.125ZM12.4197 11.6709C12.5767 11.5134 12.6834 11.313 12.7265 11.0949C12.7696 10.8767 12.7471 10.6507 12.6619 10.4454C12.5766 10.2401 12.4324 10.0646 12.2475 9.94115C12.0626 9.81771 11.8452 9.75182 11.6229 9.75182C11.4005 9.75182 11.1832 9.81771 10.9983 9.94115C10.8133 10.0646 10.6691 10.2401 10.5839 10.4454C10.4986 10.6507 10.4761 10.8767 10.5192 11.0949C10.5623 11.313 10.669 11.5134 10.826 11.6709C10.9305 11.7758 11.0547 11.859 11.1914 11.9158C11.3282 11.9726 11.4748 12.0018 11.6229 12.0018C11.7709 12.0018 11.9175 11.9726 12.0543 11.9158C12.191 11.859 12.3152 11.7758 12.4197 11.6709ZM21.5294 11.0466L11.4522 0.969374C11.3116 0.828828 11.1209 0.749878 10.9221 0.749878C10.7233 0.749878 10.5326 0.828828 10.3919 0.969374L6.58474 4.78125L10.3751 8.57062C10.9296 8.27052 11.5736 8.18004 12.1893 8.31573C12.8051 8.45142 13.3514 8.80421 13.7285 9.30959C14.1055 9.81498 14.288 10.4392 14.2426 11.0681C14.1973 11.697 13.9271 12.2885 13.4814 12.7346C13.0358 13.1806 12.4445 13.4513 11.8156 13.4973C11.1868 13.5432 10.5624 13.3612 10.0567 12.9846C9.55096 12.608 9.19768 12.062 9.06145 11.4464C8.92521 10.8308 9.01513 10.1867 9.31474 9.63187L5.52443 5.83687L1.40505 9.95344C0.983126 10.3754 0.746094 10.9477 0.746094 11.5444C0.746094 12.1411 0.983126 12.7134 1.40505 13.1353L9.36349 21.0938C9.78544 21.5157 10.3577 21.7527 10.9544 21.7527C11.5511 21.7527 12.1234 21.5157 12.5454 21.0938L21.5294 12.1097C21.5994 12.04 21.655 11.9572 21.6929 11.8659C21.7308 11.7747 21.7503 11.6769 21.7503 11.5781C21.7503 11.4793 21.7308 11.3815 21.6929 11.2903C21.655 11.1991 21.5994 11.1163 21.5294 11.0466ZM4.27943 2.46937C4.1387 2.32864 3.94782 2.24958 3.7488 2.24958C3.54978 2.24958 3.35891 2.32864 3.21818 2.46937C3.07745 2.6101 2.99838 2.80098 2.99838 3C2.99838 3.19902 3.07745 3.38989 3.21818 3.53062L5.52443 5.83687L6.58474 4.78125L4.27943 2.46937Z" fill="black"/>
</svg>
