<svg width="24" height="24" viewBox="0 0 24 24" fill="none" xmlns="http://www.w3.org/2000/svg">
<path d="M21.6948 4.15687C21.6948 4.15687 21.6948 4.16625 21.6948 4.17094L16.2386 22.1653C16.156 22.4576 15.986 22.7176 15.7514 22.9105C15.5168 23.1034 15.2288 23.2199 14.9261 23.2444C14.883 23.2481 14.8398 23.25 14.7967 23.25C14.513 23.2509 14.235 23.1706 13.9955 23.0186C13.7559 22.8666 13.5649 22.6492 13.4448 22.3922L10.097 15.3244C10.064 15.2545 10.0534 15.176 10.0666 15.0998C10.0799 15.0236 10.1164 14.9534 10.1711 14.8988L15.5392 9.52969C15.6739 9.38789 15.7479 9.19908 15.7454 9.00351C15.7429 8.80794 15.6641 8.62108 15.5258 8.48278C15.3875 8.34448 15.2007 8.26567 15.0051 8.26317C14.8095 8.26067 14.6207 8.33466 14.4789 8.46937L9.10234 13.8375C9.0477 13.8922 8.97746 13.9287 8.90127 13.942C8.82507 13.9552 8.74664 13.9446 8.67672 13.9116L1.64547 10.5806C1.36932 10.4541 1.13693 10.2485 0.977716 9.98982C0.818504 9.73114 0.739634 9.43103 0.751093 9.1275C0.766363 8.81553 0.879304 8.51626 1.07395 8.27198C1.2686 8.02771 1.5351 7.85079 1.83578 7.76625L19.8302 2.31H19.8442C20.1004 2.23802 20.3712 2.2355 20.6287 2.30269C20.8862 2.36988 21.1211 2.50437 21.3095 2.69235C21.4979 2.88034 21.6328 3.11506 21.7006 3.37242C21.7683 3.62978 21.7663 3.90053 21.6948 4.15687Z" fill="black"/>
</svg>
