<svg width="24" height="24" viewBox="0 0 24 24" fill="none" xmlns="http://www.w3.org/2000/svg">
<path d="M22.1429 20.4656C21.9475 20.6995 21.685 20.8676 21.391 20.9475C21.0969 21.0273 20.7854 21.0148 20.4986 20.9119L13.0033 18.3469C12.9291 18.3216 12.8647 18.2738 12.8192 18.21C12.7736 18.1463 12.7491 18.0699 12.7492 17.9916V11.25C12.7494 11.1472 12.7285 11.0454 12.6877 10.951C12.647 10.8566 12.5873 10.7716 12.5123 10.7013C12.4373 10.631 12.3486 10.5768 12.2518 10.5422C12.155 10.5075 12.0521 10.4932 11.9495 10.5C11.7566 10.517 11.5773 10.6062 11.4475 10.7498C11.3176 10.8934 11.2468 11.0808 11.2492 11.2744V17.9841C11.2493 18.0623 11.225 18.1386 11.1796 18.2023C11.1342 18.266 11.07 18.314 10.9961 18.3394L3.49607 20.9119C3.20857 21.0126 2.89721 21.0235 2.60341 20.9429C2.30961 20.8624 2.0473 20.6943 1.85137 20.461C1.65545 20.2277 1.5352 19.9403 1.50662 19.637C1.47804 19.3337 1.54248 19.0289 1.69138 18.7631L10.6867 3.01219C10.8172 2.78023 11.007 2.58716 11.2368 2.4528C11.4665 2.31843 11.7279 2.24762 11.994 2.24762C12.2602 2.24762 12.5215 2.31843 12.7513 2.4528C12.981 2.58716 13.1709 2.78023 13.3014 3.01219L22.3023 18.7584C22.4548 19.0248 22.5214 19.3317 22.4929 19.6373C22.4643 19.9428 22.3421 20.2321 22.1429 20.4656Z" fill="black"/>
</svg>
