<svg width="24" height="24" viewBox="0 0 24 24" fill="none" xmlns="http://www.w3.org/2000/svg">
<path d="M21.75 18H18.75V15.75H21C21.114 15.75 21.2264 15.724 21.3288 15.674C21.4313 15.624 21.5209 15.5513 21.5911 15.4615C21.6612 15.3717 21.7099 15.267 21.7336 15.1556C21.7572 15.0441 21.7551 14.9287 21.7275 14.8181L18.7275 2.8181C18.6869 2.65593 18.5932 2.51199 18.4614 2.40914C18.3296 2.30629 18.1672 2.25043 18 2.25043C17.8328 2.25043 17.6704 2.30629 17.5386 2.40914C17.4068 2.51199 17.3131 2.65593 17.2725 2.8181L14.2725 14.8181C14.2449 14.9287 14.2428 15.0441 14.2664 15.1556C14.2901 15.267 14.3388 15.3717 14.4089 15.4615C14.4791 15.5513 14.5687 15.624 14.6712 15.674C14.7736 15.724 14.886 15.75 15 15.75H17.25V18H11.25V16.5H12C12.1989 16.5 12.3897 16.421 12.5303 16.2803C12.671 16.1397 12.75 15.9489 12.75 15.75C12.75 15.5511 12.671 15.3603 12.5303 15.2196C12.3897 15.079 12.1989 15 12 15H11.25V13.5H12C12.1989 13.5 12.3897 13.421 12.5303 13.2803C12.671 13.1397 12.75 12.9489 12.75 12.75C12.75 12.5511 12.671 12.3603 12.5303 12.2196C12.3897 12.079 12.1989 12 12 12H3.75C3.55109 12 3.36032 12.079 3.21967 12.2196C3.07902 12.3603 3 12.5511 3 12.75C3 12.9489 3.07902 13.1397 3.21967 13.2803C3.36032 13.421 3.55109 13.5 3.75 13.5H4.5V15H3.75C3.55109 15 3.36032 15.079 3.21967 15.2196C3.07902 15.3603 3 15.5511 3 15.75C3 15.9489 3.07902 16.1397 3.21967 16.2803C3.36032 16.421 3.55109 16.5 3.75 16.5H4.5V18H2.25C2.05109 18 1.86032 18.079 1.71967 18.2196C1.57902 18.3603 1.5 18.5511 1.5 18.75C1.5 18.9489 1.57902 19.1397 1.71967 19.2803C1.86032 19.421 2.05109 19.5 2.25 19.5H21.75C21.9489 19.5 22.1397 19.421 22.2803 19.2803C22.421 19.1397 22.5 18.9489 22.5 18.75C22.5 18.5511 22.421 18.3603 22.2803 18.2196C22.1397 18.079 21.9489 18 21.75 18ZM9.75 18H6V16.5H9.75V18ZM9.75 15H6V13.5H9.75V15ZM10.875 8.99997C11.3942 8.99997 11.9017 8.84602 12.3334 8.55758C12.7651 8.26914 13.1015 7.85917 13.3002 7.37952C13.4989 6.89986 13.5508 6.37206 13.4496 5.86286C13.3483 5.35366 13.0983 4.88593 12.7312 4.51882C12.364 4.15171 11.8963 3.9017 11.3871 3.80041C10.8779 3.69913 10.3501 3.75111 9.87046 3.94979C9.3908 4.14847 8.98083 4.48492 8.69239 4.9166C8.40395 5.34828 8.25 5.8558 8.25 6.37497C8.25 7.07117 8.52656 7.73885 9.01884 8.23113C9.51113 8.72341 10.1788 8.99997 10.875 8.99997ZM10.875 5.24997C11.0975 5.24997 11.315 5.31595 11.5 5.43957C11.685 5.56319 11.8292 5.73889 11.9144 5.94445C11.9995 6.15002 12.0218 6.37622 11.9784 6.59445C11.935 6.81268 11.8278 7.01313 11.6705 7.17047C11.5132 7.3278 11.3127 7.43495 11.0945 7.47836C10.8762 7.52177 10.65 7.49949 10.4445 7.41434C10.2389 7.32919 10.0632 7.185 9.9396 6.99999C9.81598 6.81498 9.75 6.59748 9.75 6.37497C9.75 6.07661 9.86853 5.79046 10.0795 5.57948C10.2905 5.3685 10.5766 5.24997 10.875 5.24997Z" fill="black"/>
</svg>
