<svg width="24" height="24" viewBox="0 0 24 24" fill="none" xmlns="http://www.w3.org/2000/svg">
<path d="M22.5 9.75C22.5 10.9367 22.1481 12.0967 21.4888 13.0834C20.8295 14.0701 19.8925 14.8392 18.7961 15.2933C17.6997 15.7474 16.4933 15.8662 15.3295 15.6347C14.1656 15.4032 13.0965 14.8318 12.2574 13.9926C11.4182 13.1535 10.8468 12.0844 10.6153 10.9205C10.3838 9.75666 10.5026 8.55026 10.9567 7.4539C11.4108 6.35754 12.1799 5.42047 13.1666 4.76118C14.1533 4.10189 15.3133 3.75 16.5 3.75C18.0908 3.75174 19.6159 4.38444 20.7407 5.50928C21.8656 6.63412 22.4983 8.15923 22.5 9.75ZM7.5 3.75H6C5.60218 3.75 5.22064 3.90804 4.93934 4.18934C4.65804 4.47064 4.5 4.85218 4.5 5.25V19.5C4.5 19.8978 4.65804 20.2794 4.93934 20.5607C5.22064 20.842 5.60218 21 6 21H7.5C7.89782 21 8.27936 20.842 8.56066 20.5607C8.84196 20.2794 9 19.8978 9 19.5V5.25C9 4.85218 8.84196 4.47064 8.56066 4.18934C8.27936 3.90804 7.89782 3.75 7.5 3.75Z" fill="black"/>
</svg>
