<svg width="24" height="24" viewBox="0 0 24 24" fill="none" xmlns="http://www.w3.org/2000/svg">
<path d="M22.0609 8.37723L15.6221 1.93848C15.4828 1.79916 15.3175 1.68864 15.1355 1.61324C14.9534 1.53783 14.7584 1.49902 14.5614 1.49902C14.3643 1.49902 14.1693 1.53783 13.9872 1.61324C13.8052 1.68864 13.6399 1.79916 13.5006 1.93848L10.8343 4.60473L5.39682 6.64473C5.14974 6.73667 4.93126 6.8921 4.76338 7.09537C4.5955 7.29863 4.48416 7.54255 4.44057 7.80255L2.49338 19.4838C2.48033 19.5621 2.49248 19.6426 2.52807 19.7135C2.56367 19.7845 2.62087 19.8424 2.69145 19.8788C2.76203 19.9151 2.84234 19.9282 2.9208 19.916C2.99927 19.9038 3.07184 19.8671 3.12807 19.811L8.47182 14.4672C8.30251 14.115 8.22849 13.7245 8.25713 13.3347C8.29199 12.8552 8.47953 12.3995 8.79227 12.0343C9.105 11.6691 9.52648 11.4138 9.99494 11.3056C10.4634 11.1974 10.9542 11.2421 11.3954 11.4332C11.8365 11.6242 12.2049 11.9516 12.4465 12.3673C12.6881 12.7829 12.7902 13.2651 12.7378 13.743C12.6854 14.2209 12.4814 14.6695 12.1555 15.023C11.8296 15.3764 11.399 15.6163 10.927 15.7072C10.4549 15.7982 9.96604 15.7356 9.53213 15.5285L4.18838 20.8722C4.13231 20.9285 4.09554 21.001 4.08336 21.0795C4.07118 21.158 4.08422 21.2383 4.12061 21.3089C4.15699 21.3794 4.21484 21.4366 4.28582 21.4722C4.3568 21.5078 4.43725 21.52 4.51557 21.5069L16.1978 19.5597C16.4573 19.5165 16.701 19.4057 16.9042 19.2385C17.1074 19.0713 17.2631 18.8536 17.3556 18.6072L19.3965 13.1632L22.0609 10.4997C22.2002 10.3604 22.3107 10.1951 22.3861 10.0131C22.4615 9.83105 22.5003 9.63596 22.5003 9.43895C22.5003 9.24194 22.4615 9.04686 22.3861 8.86485C22.3107 8.68284 22.2002 8.51746 22.0609 8.37817V8.37723ZM18.7506 11.6885L12.3118 5.24973L14.5618 2.99973L21.0006 9.43848L18.7506 11.6885Z" fill="black"/>
</svg>
