<svg width="24" height="24" viewBox="0 0 24 24" fill="none" xmlns="http://www.w3.org/2000/svg">
<path d="M20.0559 19.7456C20.1236 19.8183 20.1761 19.9036 20.2105 19.9967C20.2449 20.0898 20.2605 20.1888 20.2563 20.288C20.2522 20.3871 20.2284 20.4845 20.1864 20.5744C20.1443 20.6643 20.0849 20.745 20.0114 20.8117C19.938 20.8785 19.852 20.93 19.7585 20.9632C19.665 20.9965 19.5658 21.0109 19.4667 21.0056C19.3676 21.0003 19.2705 20.9753 19.1811 20.9322C19.0918 20.8891 19.0118 20.8286 18.9459 20.7544L14.475 15.8363L9.75001 20.5603C9.61122 20.7002 9.44602 20.8111 9.26399 20.8866C9.08196 20.9621 8.88675 21.0006 8.68969 21H4.50001C4.10218 21 3.72065 20.842 3.43935 20.5607C3.15804 20.2794 3.00001 19.8978 3.00001 19.5V15.3103C2.99941 15.1134 3.03788 14.9182 3.11319 14.7362C3.1885 14.5542 3.29916 14.389 3.43876 14.25L8.46376 9.22502L3.94501 4.25627C3.81099 4.10907 3.74093 3.91467 3.75025 3.71582C3.75957 3.51697 3.8475 3.32997 3.99469 3.19596C4.14189 3.06194 4.33629 2.99188 4.53514 3.0012C4.73399 3.01052 4.92099 3.09845 5.05501 3.24564L20.0559 19.7456ZM21.3113 9.00002L17.1563 13.1569C17.0866 13.2265 17.0038 13.2817 16.9128 13.3194C16.8217 13.357 16.7242 13.3763 16.6256 13.3763H16.6078C16.5063 13.3738 16.4064 13.3508 16.314 13.3086C16.2217 13.2663 16.1389 13.2058 16.0706 13.1306L11.0691 7.63127C10.9404 7.48888 10.8713 7.30261 10.8758 7.11079C10.8803 6.91896 10.9582 6.73617 11.0934 6.60002L15 2.68971C15.1393 2.55038 15.3047 2.43986 15.4867 2.36446C15.6687 2.28905 15.8638 2.25024 16.0608 2.25024C16.2578 2.25024 16.4529 2.28905 16.6349 2.36446C16.8169 2.43986 16.9823 2.55038 17.1216 2.68971L21.3113 6.87845C21.4506 7.01775 21.5611 7.18312 21.6365 7.36513C21.7119 7.54714 21.7507 7.74222 21.7507 7.93924C21.7507 8.13625 21.7119 8.33133 21.6365 8.51334C21.5611 8.69535 21.4506 8.86072 21.3113 9.00002ZM20.25 7.9397L16.0613 3.75002L13.8113 6.00002L18 10.1897L20.25 7.9397Z" fill="black"/>
</svg>
