<svg width="24" height="24" viewBox="0 0 24 24" fill="none" xmlns="http://www.w3.org/2000/svg">
<path d="M5.48368 12.6309L2.12556 10.2188C1.86748 10.0336 1.67485 9.77127 1.57541 9.46961C1.47596 9.16794 1.47485 8.8425 1.57222 8.54016C1.6696 8.23782 1.86043 7.9742 2.11724 7.78726C2.37404 7.60034 2.68355 7.49975 3.00118 7.5H7.14868L5.48368 12.6309ZM4.984 19.0312C4.88289 19.3325 4.88165 19.6583 4.98045 19.9603C5.07925 20.2622 5.27283 20.5243 5.53243 20.7075C5.78686 20.8965 6.09536 20.9985 6.41228 20.9985C6.7292 20.9985 7.0377 20.8965 7.29212 20.7075L10.7168 18.2438L6.27681 15.0488L4.984 19.0312ZM13.429 1.80563C13.3355 1.50025 13.1467 1.23288 12.8901 1.04275C12.6335 0.852612 12.3227 0.749733 12.0034 0.749209C11.684 0.748684 11.3729 0.850542 11.1157 1.03983C10.8585 1.22912 10.6688 1.49587 10.5743 1.80094L9.21212 6H14.7902L13.429 1.80563ZM15.2768 7.5H8.72556L6.76243 13.5506L12.0012 17.3203L17.2399 13.5506L15.2768 7.5ZM22.4243 8.53688C22.3299 8.23414 22.1405 7.96984 21.8842 7.7831C21.6279 7.59636 21.3183 7.4971 21.0012 7.5H16.8537L18.5187 12.6319L21.8796 10.2131C22.1389 10.0295 22.3319 9.76702 22.4301 9.46484C22.5282 9.16266 22.5262 8.83688 22.4243 8.53594V8.53688ZM17.7256 15.0497L13.2856 18.2438L16.7102 20.7075C16.9665 20.8935 17.275 20.9936 17.5916 20.9936C17.9082 20.9936 18.2167 20.8933 18.4728 20.7073C18.729 20.5213 18.9198 20.2589 19.0178 19.9579C19.1157 19.6568 19.116 19.3324 19.0184 19.0312L17.7256 15.0497Z" fill="black"/>
</svg>
