<svg width="24" height="24" viewBox="0 0 24 24" fill="none" xmlns="http://www.w3.org/2000/svg">
<path d="M15.6806 3.78937C15.5145 2.93448 15.0565 2.16388 14.3849 1.60944C13.7133 1.055 12.8699 0.75119 11.9991 0.75C11.8002 0.75 11.6094 0.829018 11.4687 0.96967C11.3281 1.11032 11.2491 1.30109 11.2491 1.5C11.2491 1.69891 11.3281 1.88968 11.4687 2.03033C11.6094 2.17098 11.8002 2.25 11.9991 2.25C12.4755 2.25 12.9396 2.40124 13.3246 2.68193C13.7096 2.96262 13.9955 3.35826 14.1413 3.81187C12.7141 4.01961 11.4093 4.73382 10.4652 5.82406C9.52107 6.9143 9.00068 8.3078 8.99907 9.75C8.99907 14.1328 6.585 17.0625 1.82438 18.4688C1.49874 18.5637 1.21489 18.7662 1.01914 19.0432C0.823393 19.3202 0.727306 19.6553 0.746561 19.994C0.765815 20.3326 0.899274 20.6547 1.12516 20.9078C1.35105 21.1608 1.65602 21.3298 1.99032 21.3872C3.3994 21.6308 4.8269 21.7522 6.25688 21.75C10.08 21.75 14.3344 20.8922 17.2753 18.4256C19.7466 16.3537 20.9991 13.4344 20.9991 9.75C20.9975 8.27722 20.4549 6.85634 19.4744 5.75741C18.4938 4.65848 17.1437 3.9581 15.6806 3.78937ZM17.9991 8.90625L15.3347 7.57781C15.2305 7.52567 15.1156 7.49853 14.9991 7.49853C14.8826 7.49853 14.7676 7.52567 14.6634 7.57781L11.9991 8.90625L10.7456 8.28C11.0513 7.39513 11.6252 6.62761 12.3876 6.08434C13.15 5.54107 14.0629 5.2491 14.9991 5.2491C15.9352 5.2491 16.8481 5.54107 17.6105 6.08434C18.3729 6.62761 18.9469 7.39513 19.2525 8.28L17.9991 8.90625Z" fill="black"/>
</svg>
