<svg width="24" height="24" viewBox="0 0 24 24" fill="none" xmlns="http://www.w3.org/2000/svg">
<path d="M21 11.25H3V7.22721C3.00005 6.87593 3.12339 6.53581 3.34851 6.26615C3.57363 5.99648 3.88625 5.81438 4.23187 5.75159L19.2319 3.0244C19.448 2.98514 19.6701 2.99382 19.8825 3.04984C20.095 3.10587 20.2925 3.20786 20.4611 3.34861C20.6298 3.48937 20.7655 3.66545 20.8586 3.86441C20.9517 4.06337 21 4.28035 21 4.50003V11.25ZM3 16.7728C3.00005 17.1241 3.12339 17.4642 3.34851 17.7339C3.57363 18.0036 3.88625 18.1857 4.23187 18.2485L19.2319 20.9757C19.3204 20.9916 19.4101 20.9997 19.5 21C19.8978 21 20.2794 20.842 20.5607 20.5607C20.842 20.2794 21 19.8979 21 19.5V12.75H3V16.7728ZM22.5 11.25H21V12.75H22.5C22.6989 12.75 22.8897 12.671 23.0303 12.5304C23.171 12.3897 23.25 12.1989 23.25 12C23.25 11.8011 23.171 11.6103 23.0303 11.4697C22.8897 11.329 22.6989 11.25 22.5 11.25ZM1.5 11.25C1.30109 11.25 1.11032 11.329 0.96967 11.4697C0.829018 11.6103 0.75 11.8011 0.75 12C0.75 12.1989 0.829018 12.3897 0.96967 12.5304C1.11032 12.671 1.30109 12.75 1.5 12.75H3V11.25H1.5Z" fill="black"/>
</svg>
