<svg width="24" height="24" viewBox="0 0 24 24" fill="none" xmlns="http://www.w3.org/2000/svg">
<path d="M9.37679 3.375C9.37679 2.85582 9.53074 2.34831 9.81918 1.91663C10.1076 1.48495 10.5176 1.1485 10.9972 0.949817C11.4769 0.751137 12.0047 0.699154 12.5139 0.80044C13.0231 0.901726 13.4908 1.15173 13.8579 1.51885C14.2251 1.88596 14.4751 2.35369 14.5763 2.86289C14.6776 3.37209 14.6257 3.89989 14.427 4.37954C14.2283 4.8592 13.8918 5.26917 13.4602 5.55761C13.0285 5.84605 12.521 6 12.0018 6C11.3056 6 10.6379 5.72344 10.1456 5.23116C9.65335 4.73887 9.37679 4.07119 9.37679 3.375ZM20.1974 13.1981L15.9552 8.38875C15.7089 8.10943 15.4059 7.88572 15.0665 7.73249C14.7271 7.57925 14.3589 7.5 13.9865 7.5H10.0171C9.64468 7.5 9.27651 7.57925 8.93707 7.73249C8.59763 7.88572 8.29468 8.10943 8.04835 8.38875L3.80616 13.1981C3.5307 13.48 3.37723 13.8589 3.37892 14.253C3.38061 14.6471 3.53733 15.0247 3.8152 15.3042C4.09307 15.5836 4.46977 15.7425 4.86385 15.7465C5.25793 15.7504 5.63774 15.5991 5.92116 15.3253L8.34554 13.3781L6.49866 20.3981C6.33798 20.7588 6.32602 21.1684 6.46538 21.5378C6.60474 21.9073 6.88417 22.2069 7.24305 22.3717C7.60192 22.5364 8.01129 22.553 8.38232 22.4179C8.75335 22.2827 9.05611 22.0067 9.22491 21.6497L12.0018 16.875L14.7749 21.6562C14.9437 22.0132 15.2465 22.2893 15.6175 22.4244C15.9885 22.5596 16.3979 22.543 16.7568 22.3783C17.1157 22.2135 17.3951 21.9139 17.5344 21.5444C17.6738 21.1749 17.6618 20.7654 17.5012 20.4047L15.658 13.3781L18.0862 15.3253C18.3696 15.5991 18.7494 15.7504 19.1435 15.7465C19.5376 15.7425 19.9143 15.5836 20.1921 15.3042C20.47 15.0247 20.6267 14.6471 20.6284 14.253C20.6301 13.8589 20.4766 13.48 20.2012 13.1981H20.1974Z" fill="black"/>
</svg>
