<svg width="24" height="24" viewBox="0 0 24 24" fill="none" xmlns="http://www.w3.org/2000/svg">
<path d="M21.7388 16.4138C21.5716 17.6841 20.9477 18.8502 19.9837 19.6942C19.0196 20.5382 17.7813 21.0023 16.5 21.0001C9.05626 21.0001 3.00001 14.9438 3.00001 7.50005C2.99771 6.21876 3.4619 4.98045 4.30588 4.01639C5.14986 3.05234 6.31592 2.42847 7.58626 2.2613C7.9075 2.22208 8.2328 2.2878 8.51362 2.44865C8.79444 2.60951 9.0157 2.85687 9.14438 3.1538L11.1244 7.57412C11.124 7.57786 11.124 7.58163 11.1244 7.58537C11.2229 7.81267 11.2636 8.06083 11.2428 8.30769C11.222 8.55455 11.1404 8.79242 11.0053 9.00005C10.9884 9.02537 10.9706 9.0488 10.9519 9.07224L9.00001 11.386C9.7022 12.8129 11.1947 14.2922 12.6403 14.9963L14.9222 13.0547C14.9446 13.0359 14.9681 13.0184 14.9925 13.0022C15.2001 12.8637 15.4389 12.7792 15.6874 12.7562C15.9359 12.7333 16.1862 12.7728 16.4156 12.871L16.4269 12.8766L20.8425 14.8557C21.1401 14.9837 21.3883 15.2048 21.5499 15.4856C21.7114 15.7665 21.7777 16.0921 21.7388 16.4138ZM14.25 7.50005H16.5V9.75005C16.5 9.94897 16.579 10.1397 16.7197 10.2804C16.8603 10.421 17.0511 10.5001 17.25 10.5001C17.4489 10.5001 17.6397 10.421 17.7803 10.2804C17.921 10.1397 18 9.94897 18 9.75005V7.50005H20.25C20.4489 7.50005 20.6397 7.42104 20.7803 7.28038C20.921 7.13973 21 6.94897 21 6.75005C21 6.55114 20.921 6.36038 20.7803 6.21972C20.6397 6.07907 20.4489 6.00005 20.25 6.00005H18V3.75005C18 3.55114 17.921 3.36038 17.7803 3.21972C17.6397 3.07907 17.4489 3.00005 17.25 3.00005C17.0511 3.00005 16.8603 3.07907 16.7197 3.21972C16.579 3.36038 16.5 3.55114 16.5 3.75005V6.00005H14.25C14.0511 6.00005 13.8603 6.07907 13.7197 6.21972C13.579 6.36038 13.5 6.55114 13.5 6.75005C13.5 6.94897 13.579 7.13973 13.7197 7.28038C13.8603 7.42104 14.0511 7.50005 14.25 7.50005Z" fill="black"/>
</svg>
