<svg width="24" height="24" viewBox="0 0 24 24" fill="none" xmlns="http://www.w3.org/2000/svg">
<path d="M20.0542 19.7457C20.1218 19.8183 20.1743 19.9037 20.2087 19.9968C20.2431 20.0899 20.2587 20.1889 20.2546 20.288C20.2504 20.3872 20.2266 20.4845 20.1846 20.5744C20.1425 20.6643 20.0831 20.745 20.0096 20.8118C19.9362 20.8785 19.8502 20.93 19.7567 20.9633C19.6632 20.9966 19.564 21.011 19.4649 21.0056C19.3658 21.0003 19.2688 20.9754 19.1794 20.9322C19.09 20.8891 19.01 20.8287 18.9442 20.7544L10.4589 11.4198C10.1872 11.479 9.91923 11.5541 9.65635 11.6448L9.10323 14.4113C9.0543 14.656 8.94509 14.8847 8.78547 15.0766C8.62586 15.2684 8.42091 15.4174 8.18917 15.5101L8.16198 15.5204L3.56823 17.1488C3.26803 17.265 2.93843 17.2814 2.62814 17.1959C2.31784 17.1103 2.04331 16.9271 1.84511 16.6735C0.229793 14.5913 0.41073 11.8285 2.28479 9.95444C3.50172 8.73606 4.9446 7.76672 6.53261 7.10069L3.94604 4.25444C3.87842 4.18179 3.82588 4.09645 3.79148 4.00336C3.75709 3.91026 3.74151 3.81126 3.74565 3.7121C3.74979 3.61294 3.77358 3.51559 3.81562 3.42568C3.85766 3.33578 3.91714 3.25512 3.99058 3.18837C4.06403 3.12162 4.15 3.07011 4.2435 3.03683C4.337 3.00355 4.43618 2.98916 4.53529 2.99449C4.63439 2.99982 4.73145 3.02477 4.82084 3.06789C4.91023 3.11101 4.99018 3.17144 5.05604 3.24569L20.0542 19.7457ZM21.7117 9.95444C19.006 7.24788 15.196 5.81444 11.2595 6.01694C11.1177 6.02439 10.981 6.07191 10.8652 6.15398C10.7494 6.23605 10.6592 6.34931 10.6052 6.48058C10.5512 6.61185 10.5356 6.75575 10.5601 6.89556C10.5847 7.03537 10.6484 7.16534 10.7439 7.27038L19.2573 16.636C19.3403 16.7275 19.4447 16.797 19.561 16.8385L20.4282 17.146C20.7284 17.2621 21.058 17.2786 21.3683 17.193C21.6786 17.1074 21.9532 16.9243 22.1514 16.6707C23.7667 14.5913 23.5857 11.8285 21.7117 9.95444Z" fill="black"/>
</svg>
