<svg width="24" height="24" viewBox="0 0 24 24" fill="none" xmlns="http://www.w3.org/2000/svg">
<path d="M22.1515 15.1725C21.9532 15.4259 21.6786 15.6089 21.3683 15.6943C21.058 15.7797 20.7285 15.7631 20.4284 15.6468L15.8346 14.0165L15.8074 14.0062C15.5777 13.9143 15.3743 13.767 15.2153 13.5774C15.0563 13.3878 14.9467 13.1619 14.8962 12.9197L14.314 10.1306C12.8036 9.61593 11.1647 9.61956 9.65651 10.1409L9.10339 12.9084C9.0546 13.1533 8.94545 13.3821 8.78583 13.5742C8.62621 13.7662 8.42118 13.9154 8.18932 14.0081L8.16214 14.0184L3.56839 15.6468C3.39787 15.714 3.21635 15.749 3.03307 15.75C2.80493 15.7504 2.5797 15.6988 2.37451 15.599C2.16933 15.4993 1.9896 15.354 1.84901 15.1743C0.233699 13.0912 0.414636 10.3265 2.2887 8.45153C7.55276 3.18559 16.4449 3.18559 21.7118 8.45153C23.5859 10.3247 23.7668 13.0893 22.1515 15.1725ZM20.2503 18H3.75026C3.55135 18 3.36058 18.079 3.21993 18.2196C3.07928 18.3603 3.00026 18.5511 3.00026 18.75C3.00026 18.9489 3.07928 19.1396 3.21993 19.2803C3.36058 19.4209 3.55135 19.5 3.75026 19.5H20.2503C20.4492 19.5 20.6399 19.4209 20.7806 19.2803C20.9212 19.1396 21.0003 18.9489 21.0003 18.75C21.0003 18.5511 20.9212 18.3603 20.7806 18.2196C20.6399 18.079 20.4492 18 20.2503 18Z" fill="black"/>
</svg>
