<svg width="24" height="24" viewBox="0 0 24 24" fill="none" xmlns="http://www.w3.org/2000/svg">
<path d="M14.4694 9.53068C14.3997 9.46103 14.3443 9.37831 14.3066 9.28726C14.2688 9.19621 14.2494 9.09862 14.2494 9.00005C14.2494 8.90149 14.2688 8.8039 14.3066 8.71285C14.3443 8.6218 14.3997 8.53908 14.4694 8.46943L17.6897 5.25005H15.75C15.5511 5.25005 15.3603 5.17104 15.2197 5.03038C15.079 4.88973 15 4.69897 15 4.50005C15 4.30114 15.079 4.11038 15.2197 3.96972C15.3603 3.82907 15.5511 3.75005 15.75 3.75005H19.5C19.6989 3.75005 19.8897 3.82907 20.0303 3.96972C20.171 4.11038 20.25 4.30114 20.25 4.50005V8.25005C20.25 8.44897 20.171 8.63973 20.0303 8.78038C19.8897 8.92104 19.6989 9.00005 19.5 9.00005C19.3011 9.00005 19.1103 8.92104 18.9697 8.78038C18.829 8.63973 18.75 8.44897 18.75 8.25005V6.31037L15.5306 9.53068C15.461 9.60041 15.3783 9.65573 15.2872 9.69347C15.1962 9.73122 15.0986 9.75064 15 9.75064C14.9014 9.75064 14.8039 9.73122 14.7128 9.69347C14.6218 9.65573 14.539 9.60041 14.4694 9.53068ZM20.8444 14.8557L16.4278 12.8766L16.4156 12.871C16.1864 12.7729 15.9362 12.7336 15.6879 12.7565C15.4396 12.7794 15.2009 12.8639 14.9934 13.0022C14.969 13.0184 14.9455 13.0359 14.9231 13.0547L12.6441 15.0001C11.1984 14.2979 9.70595 12.8166 9.00376 11.3897L10.9519 9.07318C10.9706 9.04974 10.9884 9.0263 11.0053 9.00099C11.1407 8.79409 11.2229 8.55692 11.2445 8.31059C11.2661 8.06427 11.2264 7.81642 11.1291 7.58912V7.57787L9.14438 3.1538C9.0157 2.85687 8.79444 2.60951 8.51362 2.44865C8.2328 2.2878 7.9075 2.22208 7.58626 2.2613C6.31592 2.42847 5.14986 3.05234 4.30588 4.01639C3.4619 4.98045 2.99771 6.21876 3.00001 7.50005C3.00001 14.9438 9.05626 21.0001 16.5 21.0001C17.7813 21.0023 19.0196 20.5382 19.9837 19.6942C20.9477 18.8502 21.5716 17.6841 21.7388 16.4138C21.7781 16.0927 21.7125 15.7674 21.5518 15.4866C21.3911 15.2058 21.144 14.9845 20.8472 14.8557H20.8444Z" fill="black"/>
</svg>
