<svg width="24" height="24" viewBox="0 0 24 24" fill="none" xmlns="http://www.w3.org/2000/svg">
<path d="M14.4694 8.46943L16.1897 6.75005L14.4694 5.03068C14.3287 4.88995 14.2496 4.69908 14.2496 4.50005C14.2496 4.30103 14.3287 4.11016 14.4694 3.96943C14.6101 3.8287 14.801 3.74964 15 3.74964C15.199 3.74964 15.3899 3.8287 15.5306 3.96943L17.25 5.68974L18.9694 3.96943C19.1101 3.8287 19.301 3.74964 19.5 3.74964C19.699 3.74964 19.8899 3.8287 20.0306 3.96943C20.1714 4.11016 20.2504 4.30103 20.2504 4.50005C20.2504 4.69908 20.1714 4.88995 20.0306 5.03068L18.3113 6.75005L20.0306 8.46943C20.1003 8.53911 20.1556 8.62184 20.1933 8.71288C20.231 8.80393 20.2504 8.90151 20.2504 9.00005C20.2504 9.0986 20.231 9.19618 20.1933 9.28723C20.1556 9.37827 20.1003 9.461 20.0306 9.53068C19.961 9.60036 19.8782 9.65564 19.7872 9.69335C19.6961 9.73106 19.5986 9.75047 19.5 9.75047C19.4015 9.75047 19.3039 9.73106 19.2128 9.69335C19.1218 9.65564 19.0391 9.60036 18.9694 9.53068L17.25 7.81037L15.5306 9.53068C15.3899 9.67141 15.199 9.75047 15 9.75047C14.801 9.75047 14.6101 9.67141 14.4694 9.53068C14.3287 9.38995 14.2496 9.19908 14.2496 9.00005C14.2496 8.80103 14.3287 8.61016 14.4694 8.46943ZM20.8444 14.8557L16.4278 12.8766L16.4156 12.871C16.1864 12.7729 15.9362 12.7336 15.6879 12.7565C15.4396 12.7794 15.2009 12.8639 14.9934 13.0022C14.969 13.0184 14.9455 13.0359 14.9231 13.0547L12.6441 15.0001C11.1984 14.2979 9.70595 12.8166 9.00376 11.3897L10.9519 9.07318C10.9706 9.04974 10.9884 9.0263 11.0053 9.00099C11.1407 8.79409 11.2229 8.55692 11.2445 8.31059C11.2661 8.06427 11.2264 7.81642 11.1291 7.58912V7.57787L9.14438 3.1538C9.0157 2.85687 8.79444 2.60951 8.51362 2.44865C8.2328 2.2878 7.9075 2.22208 7.58626 2.2613C6.31592 2.42847 5.14986 3.05234 4.30588 4.01639C3.4619 4.98045 2.99771 6.21876 3.00001 7.50005C3.00001 14.9438 9.05626 21.0001 16.5 21.0001C17.7813 21.0023 19.0196 20.5382 19.9837 19.6942C20.9477 18.8502 21.5716 17.6841 21.7388 16.4138C21.7781 16.0927 21.7125 15.7674 21.5518 15.4866C21.3911 15.2058 21.144 14.9845 20.8472 14.8557H20.8444Z" fill="black"/>
</svg>
