<svg width="24" height="24" viewBox="0 0 24 24" fill="none" xmlns="http://www.w3.org/2000/svg">
<path d="M21.1875 8.25745C21.15 8.1637 21.1106 8.06995 21.0703 7.9762C20.4654 6.58123 19.4865 5.38072 18.2419 4.50745H20.25C20.4489 4.50745 20.6397 4.42843 20.7803 4.28778C20.921 4.14712 21 3.95636 21 3.75745C21 3.55853 20.921 3.36777 20.7803 3.22712C20.6397 3.08646 20.4489 3.00745 20.25 3.00745H10.5C8.42634 3.01008 6.42951 3.79247 4.90601 5.19925C3.38252 6.60603 2.4438 8.53432 2.27625 10.6012C1.6284 10.7622 1.05277 11.1348 0.640489 11.6598C0.228203 12.1848 0.00281392 12.8324 0 13.4999C0 13.6989 0.0790176 13.8896 0.21967 14.0303C0.360322 14.1709 0.551088 14.2499 0.75 14.2499C0.948912 14.2499 1.13968 14.1709 1.28033 14.0303C1.42098 13.8896 1.5 13.6989 1.5 13.4999C1.50017 13.2265 1.57512 12.9582 1.71673 12.7242C1.85834 12.4903 2.06122 12.2994 2.30344 12.1724C2.49012 13.8551 3.19176 15.4391 4.3125 16.7081L5.49 20.0043C5.5941 20.2959 5.78586 20.5481 6.03898 20.7263C6.29209 20.9046 6.59416 21.0002 6.90375 20.9999H8.09625C8.40568 21 8.70754 20.9043 8.96047 20.7261C9.2134 20.5478 9.40502 20.2957 9.50906 20.0043L9.68906 19.4999H15.0609L15.2409 20.0043C15.345 20.2957 15.5366 20.5478 15.7895 20.7261C16.0425 20.9043 16.3443 21 16.6537 20.9999H17.8463C18.1557 21 18.4575 20.9043 18.7105 20.7261C18.9634 20.5478 19.155 20.2957 19.2591 20.0043L20.7787 15.7499H21C21.5967 15.7499 22.169 15.5129 22.591 15.0909C23.0129 14.669 23.25 14.0967 23.25 13.4999V10.4999C23.2501 9.93561 23.0381 9.39185 22.6561 8.97648C22.274 8.56112 21.7499 8.30447 21.1875 8.25745ZM14.25 6.74995H10.5C10.3011 6.74995 10.1103 6.67093 9.96967 6.53028C9.82902 6.38962 9.75 6.19886 9.75 5.99995C9.75 5.80103 9.82902 5.61027 9.96967 5.46962C10.1103 5.32896 10.3011 5.24995 10.5 5.24995H14.25C14.4489 5.24995 14.6397 5.32896 14.7803 5.46962C14.921 5.61027 15 5.80103 15 5.99995C15 6.19886 14.921 6.38962 14.7803 6.53028C14.6397 6.67093 14.4489 6.74995 14.25 6.74995ZM16.875 11.9999C16.6525 11.9999 16.435 11.934 16.25 11.8103C16.065 11.6867 15.9208 11.511 15.8356 11.3055C15.7505 11.0999 15.7282 10.8737 15.7716 10.6555C15.815 10.4372 15.9222 10.2368 16.0795 10.0795C16.2368 9.92212 16.4373 9.81497 16.6555 9.77156C16.8738 9.72815 17.1 9.75043 17.3055 9.83558C17.5111 9.92073 17.6868 10.0649 17.8104 10.2499C17.934 10.4349 18 10.6524 18 10.8749C18 11.1733 17.8815 11.4595 17.6705 11.6704C17.4595 11.8814 17.1734 11.9999 16.875 11.9999Z" fill="black"/>
</svg>
