<svg width="24" height="24" viewBox="0 0 24 24" fill="none" xmlns="http://www.w3.org/2000/svg">
<path d="M20.2887 3.71249C19.3521 2.77606 18.082 2.25 16.7576 2.25C15.4332 2.25 14.163 2.77606 13.2265 3.71249L3.71086 13.2272C2.79406 14.1676 2.28469 15.4313 2.29307 16.7446C2.30146 18.0579 2.82693 19.315 3.75566 20.2436C4.68438 21.1722 5.94157 21.6975 7.25488 21.7057C8.56818 21.7139 9.83184 21.2044 10.7721 20.2875L20.2887 10.7728C21.2234 9.83572 21.7483 8.56619 21.7483 7.24264C21.7483 5.91909 21.2234 4.64956 20.2887 3.71249ZM19.2274 9.71248L14.4696 14.4694L9.52992 9.53061L14.2877 4.7728C14.9454 4.13035 15.8298 3.77307 16.7491 3.77844C17.6685 3.78381 18.5486 4.1514 19.1987 4.80149C19.8488 5.45158 20.2164 6.33175 20.2218 7.25109C20.2271 8.17044 19.8699 9.05484 19.2274 9.71248ZM17.7809 7.71936C17.8506 7.78901 17.9059 7.87173 17.9436 7.96278C17.9814 8.05383 18.0008 8.15142 18.0008 8.24998C18.0008 8.34855 17.9814 8.44614 17.9436 8.53719C17.9059 8.62824 17.8506 8.71096 17.7809 8.78061L15.5309 11.0306C15.4612 11.1002 15.3785 11.1554 15.2874 11.1931C15.1964 11.2308 15.0989 11.2501 15.0004 11.2501C14.9019 11.25 14.8043 11.2306 14.7133 11.1928C14.6224 11.1551 14.5397 11.0998 14.4701 11.0301C14.4005 10.9605 14.3452 10.8777 14.3076 10.7867C14.2699 10.6957 14.2506 10.5982 14.2506 10.4997C14.2507 10.4012 14.2701 10.3036 14.3078 10.2126C14.3456 10.1216 14.4009 10.039 14.4705 9.96936L16.7205 7.71936C16.8612 7.57881 17.0519 7.49986 17.2507 7.49986C17.4495 7.49986 17.6402 7.57881 17.7809 7.71936Z" fill="black"/>
</svg>
