<svg width="24" height="24" viewBox="0 0 24 24" fill="none" xmlns="http://www.w3.org/2000/svg">
<path d="M21.7506 12.0656C21.7149 17.3615 17.3949 21.6965 12.0999 21.749C11.2807 21.7577 10.4637 21.6632 9.66807 21.4678C9.62021 21.4558 9.57517 21.4346 9.53554 21.4052C9.49591 21.3758 9.46246 21.3389 9.43712 21.2966C9.41178 21.2543 9.39504 21.2073 9.38785 21.1585C9.38067 21.1097 9.38319 21.06 9.39526 21.0122L10.2053 17.7731C10.9953 18.169 11.8669 18.3751 12.7506 18.375C16.2193 18.375 19.0037 15.239 18.7328 11.4975C18.6593 10.5263 18.3765 9.5826 17.9039 8.73107C17.4312 7.87953 16.7799 7.14035 15.9947 6.56428C15.2094 5.98821 14.3088 5.58888 13.3546 5.39372C12.4005 5.19856 11.4154 5.21219 10.467 5.43367C9.5186 5.65514 8.62937 6.07922 7.86034 6.67679C7.09131 7.27437 6.4607 8.03128 6.0118 8.89556C5.5629 9.75984 5.30634 10.711 5.25974 11.6838C5.21314 12.6566 5.3776 13.628 5.74182 14.5312C5.77966 14.6254 5.83624 14.711 5.90813 14.7827C5.98002 14.8544 6.06572 14.9108 6.16004 14.9484C6.25436 14.986 6.35534 15.0041 6.45685 15.0015C6.55836 14.9989 6.65828 14.9757 6.75057 14.9334C6.92659 14.8481 7.0634 14.6988 7.13309 14.516C7.20278 14.3333 7.20009 14.1308 7.12557 13.95C6.84526 13.247 6.72023 12.4918 6.75906 11.736C6.79789 10.9802 6.99966 10.2417 7.35054 9.57121C7.70141 8.90069 8.19311 8.31395 8.79192 7.8512C9.39074 7.38844 10.0825 7.06063 10.8199 6.8902C11.5572 6.71978 12.3227 6.71078 13.0638 6.86382C13.805 7.01686 14.5043 7.32832 15.1138 7.77686C15.7233 8.22541 16.2287 8.80043 16.5952 9.46251C16.9618 10.1246 17.1809 10.8581 17.2374 11.6128C17.4381 14.475 15.3503 16.875 12.7506 16.875C11.986 16.8746 11.236 16.6659 10.5812 16.2712L11.9781 10.6818C12.0225 10.4902 11.9899 10.2888 11.8872 10.1211C11.7846 9.95328 11.6202 9.83253 11.4294 9.78483C11.2385 9.73712 11.0366 9.76629 10.8671 9.86603C10.6976 9.96578 10.574 10.1281 10.5231 10.3181L8.00495 20.3915C7.99128 20.4464 7.96538 20.4974 7.92919 20.5409C7.89301 20.5843 7.84747 20.619 7.79599 20.6423C7.74451 20.6657 7.68841 20.6771 7.6319 20.6757C7.57538 20.6743 7.51991 20.6602 7.46964 20.6343C5.8791 19.7997 4.55004 18.542 3.62908 16.9998C2.70813 15.4577 2.23108 13.6911 2.25057 11.895C2.30682 6.61121 6.62589 2.29871 11.9068 2.24996C13.2006 2.23749 14.484 2.48266 15.682 2.97117C16.8801 3.45969 17.969 4.18178 18.8852 5.09536C19.8014 6.00895 20.5266 7.09575 21.0186 8.29244C21.5105 9.48913 21.7593 10.7718 21.7506 12.0656Z" fill="black"/>
</svg>
