<svg width="24" height="24" viewBox="0 0 24 24" fill="none" xmlns="http://www.w3.org/2000/svg">
<path d="M21.531 20.4694L16.9916 15.9309C17.0948 15.9 17.1969 15.8672 17.2982 15.8306C18.6991 15.3203 19.8401 14.2748 20.4705 12.9236C21.1009 11.5725 21.1691 10.0264 20.6601 8.625C20.592 8.43819 20.4526 8.28605 20.2724 8.20202C20.0922 8.11799 19.886 8.10894 19.6991 8.17687L15.5554 9.68437C15.5854 9.62625 15.6154 9.56812 15.6426 9.50812C16.1129 8.50017 16.2739 7.37539 16.1052 6.27597C15.9364 5.17654 15.4455 4.15183 14.6945 3.33136C13.9434 2.5109 12.966 1.93151 11.8857 1.66645C10.8055 1.40138 9.67089 1.46254 8.62539 1.84219C8.53255 1.87552 8.4472 1.92683 8.37423 1.99319C8.30125 2.05955 8.24208 2.13966 8.20011 2.22892C8.15813 2.31818 8.13418 2.41484 8.12961 2.51337C8.12505 2.6119 8.13997 2.71037 8.17351 2.80312L9.68195 6.94875C9.62289 6.91875 9.56476 6.88781 9.50476 6.855C8.49659 6.38521 7.37178 6.22486 6.2725 6.3942C5.17321 6.56354 4.14881 7.05497 3.32876 7.80639C2.50871 8.55781 1.92984 9.53547 1.66531 10.6158C1.40078 11.6961 1.46247 12.8306 1.84257 13.8759C1.91063 14.0627 2.05009 14.2149 2.23028 14.2989C2.41047 14.3829 2.61665 14.392 2.80351 14.3241L6.94726 12.8156C6.91726 12.8747 6.88726 12.9328 6.86007 12.9928C6.39029 14.001 6.22993 15.1258 6.39927 16.2251C6.56861 17.3244 7.06005 18.3488 7.81147 19.1688C8.56288 19.9889 9.54055 20.5677 10.6209 20.8323C11.7012 21.0968 12.8357 21.0351 13.881 20.655C14.0678 20.5869 14.22 20.4475 14.304 20.2673C14.388 20.0871 14.3971 19.8809 14.3291 19.6941L12.8216 15.5522C12.8798 15.5812 12.9379 15.6103 12.9979 15.6375C13.6596 15.9474 14.3755 16.1251 15.1054 16.1606L20.4698 21.5259C20.6105 21.6667 20.8014 21.7457 21.0004 21.7457C21.1994 21.7457 21.3903 21.6667 21.531 21.5259C21.6717 21.3852 21.7508 21.1943 21.7508 20.9953C21.7508 20.7963 21.6717 20.6054 21.531 20.4647V20.4694ZM10.2191 19.1128C9.53753 18.7953 8.95568 18.2975 8.53648 17.6733C8.11727 17.0491 7.87666 16.3222 7.84066 15.5711C7.80466 14.82 7.97463 14.0734 8.3322 13.412C8.68977 12.7505 9.22134 12.1994 9.86945 11.8181L12.6444 19.4428C11.8213 19.5831 10.9749 19.468 10.2191 19.1128ZM14.2879 8.87062C13.9361 9.6304 13.3604 10.2644 12.6379 10.6875L9.86195 3.05906C10.6035 2.93451 11.3649 3.01501 12.064 3.29184C12.7631 3.56868 13.3732 4.03132 13.8284 4.62977C14.2836 5.22821 14.5666 5.93969 14.6467 6.6873C14.7269 7.43491 14.6012 8.19021 14.2832 8.87156L14.2879 8.87062Z" fill="black"/>
</svg>
