<svg width="24" height="24" viewBox="0 0 24 24" fill="none" xmlns="http://www.w3.org/2000/svg">
<path d="M19.258 14.1627C18.3588 14.7093 17.3261 14.9968 16.2739 14.9934C15.3924 14.9864 14.5208 14.8061 13.7089 14.4627C13.0831 15.3462 12.7482 16.4026 12.7508 17.4852V20.2499C12.751 20.3528 12.7301 20.4545 12.6893 20.5489C12.6486 20.6433 12.5888 20.7283 12.5138 20.7986C12.4388 20.869 12.3502 20.9231 12.2534 20.9578C12.1566 20.9924 12.0537 21.0067 11.9511 20.9999C11.7583 20.9832 11.579 20.8941 11.4491 20.7507C11.3192 20.6072 11.2484 20.42 11.2508 20.2265V19.0602L7.63014 15.4396C7.09192 15.6404 6.52271 15.7454 5.94827 15.7499C5.15746 15.7519 4.38146 15.5355 3.70577 15.1246C1.66295 13.8834 0.563267 11.0268 0.77608 7.48025C0.786795 7.29677 0.864511 7.12361 0.994474 6.99364C1.12444 6.86368 1.2976 6.78596 1.48108 6.77525C5.02764 6.56619 7.8842 7.66212 9.12171 9.70494C9.60791 10.5056 9.82017 11.4429 9.72639 12.3749C9.72056 12.4472 9.69394 12.5161 9.64974 12.5735C9.60554 12.6309 9.54566 12.6743 9.47733 12.6984C9.40901 12.7225 9.33517 12.7263 9.26474 12.7093C9.1943 12.6923 9.1303 12.6553 9.08045 12.6027L7.28046 10.7184C7.13866 10.5837 6.94985 10.5097 6.75427 10.5122C6.5587 10.5147 6.37185 10.5935 6.23355 10.7318C6.09524 10.8701 6.01644 11.0569 6.01394 11.2525C6.01143 11.4481 6.08543 11.6369 6.22014 11.7787L11.2714 16.9584C11.277 16.8852 11.2836 16.8121 11.2911 16.7399C11.4551 15.3494 12.0687 14.0504 13.0386 13.0406L17.7814 8.02869C17.9221 7.88808 18.0012 7.69733 18.0013 7.49839C18.0014 7.29946 17.9225 7.10863 17.7819 6.9679C17.6413 6.82717 17.4505 6.74806 17.2516 6.74798C17.0526 6.74789 16.8618 6.82683 16.7211 6.96744L12.1273 11.8256C12.0813 11.8743 12.0232 11.9098 11.9588 11.9284C11.8945 11.947 11.8263 11.948 11.7614 11.9314C11.6966 11.9147 11.6373 11.881 11.5899 11.8337C11.5425 11.7864 11.5085 11.7273 11.4917 11.6624C11.0473 10.0237 11.2433 8.39244 12.0917 6.99181C13.7661 4.22806 17.6623 2.74869 22.5148 3.03369C22.6983 3.0444 22.8715 3.12212 23.0014 3.25208C23.1314 3.38204 23.2091 3.5552 23.2198 3.73869C23.5011 8.59212 22.0217 12.4884 19.258 14.1627Z" fill="black"/>
</svg>
