<svg width="24" height="24" viewBox="0 0 24 24" fill="none" xmlns="http://www.w3.org/2000/svg">
<path d="M3 6C3 5.80109 3.07902 5.61032 3.21967 5.46967C3.36032 5.32902 3.55109 5.25 3.75 5.25H20.25C20.4489 5.25 20.6397 5.32902 20.7803 5.46967C20.921 5.61032 21 5.80109 21 6C21 6.19891 20.921 6.38968 20.7803 6.53033C20.6397 6.67098 20.4489 6.75 20.25 6.75H3.75C3.55109 6.75 3.36032 6.67098 3.21967 6.53033C3.07902 6.38968 3 6.19891 3 6ZM3.75 12.75H15C15.1989 12.75 15.3897 12.671 15.5303 12.5303C15.671 12.3897 15.75 12.1989 15.75 12C15.75 11.8011 15.671 11.6103 15.5303 11.4697C15.3897 11.329 15.1989 11.25 15 11.25H3.75C3.55109 11.25 3.36032 11.329 3.21967 11.4697C3.07902 11.6103 3 11.8011 3 12C3 12.1989 3.07902 12.3897 3.21967 12.5303C3.36032 12.671 3.55109 12.75 3.75 12.75ZM10.5 17.25H3.75C3.55109 17.25 3.36032 17.329 3.21967 17.4697C3.07902 17.6103 3 17.8011 3 18C3 18.1989 3.07902 18.3897 3.21967 18.5303C3.36032 18.671 3.55109 18.75 3.75 18.75H10.5C10.6989 18.75 10.8897 18.671 11.0303 18.5303C11.171 18.3897 11.25 18.1989 11.25 18C11.25 17.8011 11.171 17.6103 11.0303 17.4697C10.8897 17.329 10.6989 17.25 10.5 17.25ZM22.7156 10.9069L18.9656 9.78187C18.8537 9.74826 18.7354 9.74129 18.6202 9.76153C18.5051 9.78176 18.3962 9.82863 18.3024 9.89839C18.2086 9.96816 18.1324 10.0589 18.0799 10.1633C18.0274 10.2678 18 10.3831 18 10.5V15.4041C17.428 15.0738 16.763 14.9416 16.1082 15.0278C15.4533 15.1141 14.8453 15.4141 14.3783 15.8812C13.9113 16.3483 13.6116 16.9565 13.5256 17.6114C13.4395 18.2662 13.572 18.9312 13.9025 19.5031C14.2329 20.075 14.7429 20.5218 15.3532 20.7743C15.9635 21.0268 16.6401 21.0708 17.278 20.8995C17.9159 20.7282 18.4794 20.3512 18.8812 19.8269C19.283 19.3027 19.5005 18.6605 19.5 18V11.5078L22.2844 12.3431C22.3794 12.3741 22.4797 12.3857 22.5793 12.3774C22.6789 12.369 22.7758 12.3409 22.8644 12.2945C22.953 12.2482 23.0314 12.1846 23.095 12.1075C23.1586 12.0304 23.2062 11.9414 23.235 11.8457C23.2637 11.75 23.273 11.6494 23.2624 11.5501C23.2517 11.4507 23.2213 11.3544 23.1729 11.267C23.1245 11.1795 23.0592 11.1026 22.9806 11.0407C22.9021 10.9789 22.812 10.9334 22.7156 10.9069Z" fill="black"/>
</svg>
