<svg width="24" height="24" viewBox="0 0 24 24" fill="none" xmlns="http://www.w3.org/2000/svg">
<path d="M12 2.25C10.0716 2.25 8.18657 2.82183 6.58319 3.89317C4.97982 4.96451 3.73013 6.48726 2.99218 8.26884C2.25422 10.0504 2.06114 12.0108 2.43735 13.9021C2.81355 15.7934 3.74215 17.5307 5.10571 18.8943C6.46928 20.2579 8.20656 21.1865 10.0979 21.5627C11.9892 21.9389 13.9496 21.7458 15.7312 21.0078C17.5127 20.2699 19.0355 19.0202 20.1068 17.4168C21.1782 15.8134 21.75 13.9284 21.75 12C21.7468 9.41513 20.7185 6.93705 18.8907 5.10927C17.063 3.28149 14.5849 2.25323 12 2.25ZM15.4163 12.6244L10.9163 15.6244C10.7928 15.7062 10.6481 15.7499 10.5 15.75C10.3011 15.75 10.1103 15.671 9.96967 15.5303C9.82902 15.3897 9.75 15.1989 9.75 15V9C9.74992 8.86419 9.78671 8.7309 9.85645 8.61436C9.9262 8.49782 10.0263 8.40241 10.146 8.33831C10.2657 8.27421 10.4006 8.24382 10.5363 8.25039C10.672 8.25696 10.8033 8.30025 10.9163 8.37562L15.4163 11.3756C15.5191 11.4441 15.6035 11.5369 15.6618 11.6458C15.7202 11.7548 15.7507 11.8764 15.7507 12C15.7507 12.1236 15.7202 12.2452 15.6618 12.3542C15.6035 12.4631 15.5191 12.5559 15.4163 12.6244Z" fill="black"/>
</svg>
