<svg width="24" height="24" viewBox="0 0 24 24" fill="none" xmlns="http://www.w3.org/2000/svg">
<path d="M14.031 14.0306L12.3107 15.75L14.031 17.4694C14.1007 17.539 14.156 17.6218 14.1937 17.7128C14.2314 17.8039 14.2508 17.9014 14.2508 18C14.2508 18.0985 14.2314 18.1961 14.1937 18.2872C14.156 18.3782 14.1007 18.4609 14.031 18.5306C13.9614 18.6003 13.8786 18.6556 13.7876 18.6933C13.6965 18.731 13.599 18.7504 13.5004 18.7504C13.4019 18.7504 13.3043 18.731 13.2132 18.6933C13.1222 18.6556 13.0395 18.6003 12.9698 18.5306L12.3754 17.9353L10.1901 20.1215C9.62675 20.6829 8.86385 20.9981 8.06854 20.9981C7.27323 20.9981 6.51034 20.6829 5.94698 20.1215L5.44354 19.6172L2.78104 22.2806C2.71136 22.3503 2.62863 22.4056 2.53759 22.4433C2.44654 22.481 2.34896 22.5004 2.25042 22.5004C2.15187 22.5004 2.05429 22.481 1.96324 22.4433C1.8722 22.4056 1.78947 22.3503 1.71979 22.2806C1.65011 22.2109 1.59483 22.1282 1.55712 22.0372C1.51941 21.9461 1.5 21.8485 1.5 21.75C1.5 21.6514 1.51941 21.5539 1.55712 21.4628C1.59483 21.3718 1.65011 21.289 1.71979 21.2194L4.38323 18.5569L3.87885 18.0534C3.60021 17.7748 3.37917 17.4441 3.22836 17.0801C3.07755 16.716 2.99993 16.3259 2.99993 15.9319C2.99993 15.5378 3.07755 15.1477 3.22836 14.7836C3.37917 14.4196 3.60021 14.0889 3.87885 13.8103L6.0651 11.625L5.46979 11.0306C5.32906 10.8899 5.25 10.699 5.25 10.5C5.25 10.301 5.32906 10.1101 5.46979 9.96935C5.61052 9.82862 5.80139 9.74956 6.00042 9.74956C6.19944 9.74956 6.39031 9.82862 6.53104 9.96935L8.25042 11.6897L9.96979 9.96935C10.1105 9.82862 10.3014 9.74956 10.5004 9.74956C10.6994 9.74956 10.8903 9.82862 11.031 9.96935C11.1718 10.1101 11.2508 10.301 11.2508 10.5C11.2508 10.699 11.1718 10.8899 11.031 11.0306L9.31073 12.75L11.2504 14.6897L12.9698 12.9694C13.1105 12.8286 13.3014 12.7496 13.5004 12.7496C13.6994 12.7496 13.8903 12.8286 14.031 12.9694C14.1718 13.1101 14.2508 13.301 14.2508 13.5C14.2508 13.699 14.1718 13.8899 14.031 14.0306ZM22.281 1.71935C22.2114 1.64962 22.1287 1.5943 22.0376 1.55656C21.9466 1.51882 21.849 1.49939 21.7504 1.49939C21.6519 1.49939 21.5543 1.51882 21.4632 1.55656C21.3722 1.5943 21.2894 1.64962 21.2198 1.71935L18.5573 4.38279L18.0539 3.87842C17.4906 3.31681 16.7277 3.00143 15.9323 3.00143C15.1369 3.00143 14.374 3.31681 13.8107 3.87842L11.6254 6.06467L11.031 5.46935C10.8903 5.32862 10.6994 5.24956 10.5004 5.24956C10.3014 5.24956 10.1105 5.32862 9.96979 5.46935C9.82906 5.61009 9.75 5.80096 9.75 5.99998C9.75 6.199 9.82906 6.38987 9.96979 6.53061L17.4698 14.0306C17.5395 14.1003 17.6222 14.1556 17.7132 14.1933C17.8043 14.231 17.9019 14.2504 18.0004 14.2504C18.099 14.2504 18.1965 14.231 18.2876 14.1933C18.3786 14.1556 18.4614 14.1003 18.531 14.0306C18.6007 13.9609 18.656 13.8782 18.6937 13.7872C18.7314 13.6961 18.7508 13.5985 18.7508 13.5C18.7508 13.4014 18.7314 13.3039 18.6937 13.2128C18.656 13.1218 18.6007 13.039 18.531 12.9694L17.9357 12.375L20.122 10.1897C20.4006 9.91108 20.6217 9.58033 20.7725 9.21631C20.9233 8.85229 21.0009 8.46213 21.0009 8.0681C21.0009 7.67408 20.9233 7.28392 20.7725 6.9199C20.6217 6.55587 20.4006 6.22513 20.122 5.94654L19.6176 5.4431L22.281 2.7806C22.3508 2.71095 22.4061 2.62823 22.4438 2.53718C22.4816 2.44614 22.501 2.34854 22.501 2.24998C22.501 2.15142 22.4816 2.05382 22.4438 1.96277C22.4061 1.87173 22.3508 1.78901 22.281 1.71935Z" fill="black"/>
</svg>
