<svg width="24" height="24" viewBox="0 0 24 24" fill="none" xmlns="http://www.w3.org/2000/svg">
<path d="M22.281 1.71935C22.2114 1.64962 22.1287 1.5943 22.0376 1.55656C21.9466 1.51882 21.849 1.49939 21.7504 1.49939C21.6519 1.49939 21.5543 1.51882 21.4632 1.55656C21.3722 1.5943 21.2894 1.64962 21.2198 1.71935L16.3073 6.63279L15.8039 6.12842C15.2406 5.56681 14.4777 5.25143 13.6823 5.25143C12.8869 5.25143 12.124 5.56681 11.5607 6.12842L9.37542 8.31467L8.78104 7.71935C8.64031 7.57862 8.44944 7.49956 8.25042 7.49956C8.05139 7.49956 7.86052 7.57862 7.71979 7.71935C7.57906 7.86009 7.5 8.05096 7.5 8.24998C7.5 8.449 7.57906 8.63987 7.71979 8.78061L8.3151 9.37498L6.12885 11.5603C5.85021 11.8389 5.62917 12.1696 5.47836 12.5336C5.32755 12.8977 5.24993 13.2878 5.24993 13.6819C5.24993 14.0759 5.32755 14.466 5.47836 14.8301C5.62917 15.1941 5.85021 15.5248 6.12885 15.8034L6.63323 16.3069L1.71979 21.2194C1.65011 21.289 1.59483 21.3718 1.55712 21.4628C1.51941 21.5539 1.5 21.6514 1.5 21.75C1.5 21.8485 1.51941 21.9461 1.55712 22.0372C1.59483 22.1282 1.65011 22.2109 1.71979 22.2806C1.86052 22.4213 2.05139 22.5004 2.25042 22.5004C2.34896 22.5004 2.44654 22.481 2.53759 22.4433C2.62863 22.4056 2.71136 22.3503 2.78104 22.2806L7.69354 17.3672L8.19698 17.8715C8.76034 18.4329 9.52323 18.7481 10.3185 18.7481C11.1139 18.7481 11.8767 18.4329 12.4401 17.8715L14.6254 15.6853L15.2198 16.2806C15.2895 16.3503 15.3722 16.4056 15.4632 16.4433C15.5543 16.481 15.6519 16.5004 15.7504 16.5004C15.849 16.5004 15.9465 16.481 16.0376 16.4433C16.1286 16.4056 16.2114 16.3503 16.281 16.2806C16.3507 16.2109 16.406 16.1282 16.4437 16.0372C16.4814 15.9461 16.5008 15.8485 16.5008 15.75C16.5008 15.6514 16.4814 15.5539 16.4437 15.4628C16.406 15.3718 16.3507 15.289 16.281 15.2194L15.6857 14.625L17.872 12.4397C18.1506 12.1611 18.3717 11.8303 18.5225 11.4663C18.6733 11.1023 18.7509 10.7121 18.7509 10.3181C18.7509 9.92408 18.6733 9.53392 18.5225 9.1699C18.3717 8.80587 18.1506 8.47513 17.872 8.19654L17.3676 7.6931L22.281 2.7806C22.3508 2.71095 22.4061 2.62823 22.4438 2.53718C22.4816 2.44614 22.501 2.34854 22.501 2.24998C22.501 2.15142 22.4816 2.05382 22.4438 1.96277C22.4061 1.87173 22.3508 1.78901 22.281 1.71935ZM16.8107 11.3756L14.6254 13.5647L10.4357 9.37498L12.622 7.18967C12.9033 6.90858 13.2846 6.75068 13.6823 6.75068C14.0799 6.75068 14.4613 6.90858 14.7426 7.18967L16.8107 9.25217C16.9501 9.39146 17.0606 9.55683 17.136 9.73884C17.2114 9.92085 17.2502 10.1159 17.2502 10.3129C17.2502 10.51 17.2114 10.705 17.136 10.8871C17.0606 11.0691 16.9501 11.2344 16.8107 11.3737V11.3756ZM8.28885 3.23717C8.22595 3.04845 8.24059 2.84247 8.32955 2.66455C8.41851 2.48662 8.57451 2.35132 8.76323 2.28842C8.95195 2.22551 9.15793 2.24015 9.33585 2.32911C9.51378 2.41807 9.64907 2.57407 9.71198 2.76279L10.462 5.01279C10.4931 5.10624 10.5056 5.2049 10.4986 5.30315C10.4916 5.4014 10.4653 5.49731 10.4213 5.58541C10.3772 5.67351 10.3163 5.75207 10.2419 5.81661C10.1674 5.88115 10.081 5.93039 9.9876 5.96154C9.79889 6.02445 9.59291 6.00981 9.41498 5.92085C9.32688 5.8768 9.24832 5.81583 9.18379 5.74142C9.11925 5.667 9.07 5.58061 9.03885 5.48717L8.28885 3.23717ZM2.28885 8.76279C2.32 8.66934 2.36924 8.58295 2.43378 8.50853C2.49831 8.43412 2.57687 8.37314 2.66497 8.32909C2.75307 8.28504 2.84899 8.25878 2.94724 8.2518C3.0455 8.24482 3.14416 8.25726 3.2376 8.28842L5.4876 9.03842C5.58105 9.06957 5.66744 9.11881 5.74185 9.18335C5.81626 9.24789 5.87723 9.32645 5.92128 9.41455C5.96533 9.50265 5.9916 9.59856 5.99858 9.69681C6.00557 9.79506 5.99313 9.89372 5.96198 9.98717C5.93083 10.0806 5.88158 10.167 5.81705 10.2414C5.75251 10.3158 5.67395 10.3768 5.58585 10.4208C5.49775 10.4649 5.40184 10.4912 5.30359 10.4981C5.20534 10.5051 5.10667 10.4927 5.01323 10.4615L2.76323 9.71154C2.66978 9.6804 2.58338 9.63116 2.50897 9.56662C2.43455 9.50209 2.37358 9.42352 2.32953 9.33542C2.28548 9.24732 2.25921 9.15141 2.25224 9.05315C2.24526 8.9549 2.2577 8.85624 2.28885 8.76279ZM21.712 15.2372C21.6808 15.3306 21.6316 15.417 21.5671 15.4914C21.5025 15.5658 21.424 15.6268 21.3359 15.6709C21.2478 15.7149 21.1518 15.7412 21.0536 15.7482C20.9553 15.7551 20.8567 15.7427 20.7632 15.7115L18.5132 14.9615C18.3245 14.8986 18.1685 14.7633 18.0796 14.5854C17.9906 14.4075 17.976 14.2015 18.0389 14.0128C18.1018 13.8241 18.2371 13.6681 18.415 13.5791C18.5929 13.4901 18.7989 13.4755 18.9876 13.5384L21.2376 14.2884C21.3311 14.3196 21.4175 14.3688 21.4919 14.4333C21.5663 14.4979 21.6273 14.5764 21.6713 14.6645C21.7154 14.7526 21.7416 14.8486 21.7486 14.9468C21.7556 15.0451 21.7431 15.1437 21.712 15.2372ZM15.712 20.7628C15.7749 20.9515 15.7602 21.1575 15.6713 21.3354C15.5823 21.5133 15.4263 21.6486 15.2376 21.7115C15.0489 21.7744 14.8429 21.7598 14.665 21.6708C14.4871 21.5819 14.3518 21.4259 14.2889 21.2372L13.5389 18.9872C13.4759 18.7984 13.4906 18.5925 13.5796 18.4145C13.6685 18.2366 13.8245 18.1013 14.0132 18.0384C14.2019 17.9755 14.4079 17.9901 14.5859 18.0791C14.7638 18.1681 14.8991 18.3241 14.962 18.5128L15.712 20.7628Z" fill="black"/>
</svg>
