<svg width="24" height="24" viewBox="0 0 24 24" fill="none" xmlns="http://www.w3.org/2000/svg">
<path d="M22.281 7.28068L19.0607 10.5001L21.531 12.9694C21.6007 13.0391 21.656 13.1218 21.6937 13.2129C21.7314 13.3039 21.7508 13.4015 21.7508 13.5001C21.7508 13.5986 21.7314 13.6962 21.6937 13.7872C21.656 13.8783 21.6007 13.961 21.531 14.0307C21.4614 14.1004 21.3786 14.1556 21.2876 14.1933C21.1965 14.2311 21.099 14.2505 21.0004 14.2505C20.9019 14.2505 20.8043 14.2311 20.7132 14.1933C20.6222 14.1556 20.5395 14.1004 20.4698 14.0307L19.8754 13.4354L14.9067 18.4041C14.5584 18.7524 14.145 19.0286 13.6901 19.2171C13.2351 19.4055 12.7474 19.5025 12.2549 19.5025C11.7625 19.5025 11.2748 19.4055 10.8198 19.2171C10.3649 19.0286 9.95145 18.7524 9.60323 18.4041L8.13323 16.9285L3.53104 21.5307C3.46136 21.6004 3.37863 21.6556 3.28759 21.6933C3.19654 21.7311 3.09896 21.7505 3.00042 21.7505C2.90187 21.7505 2.80429 21.7311 2.71324 21.6933C2.6222 21.6556 2.53947 21.6004 2.46979 21.5307C2.40011 21.461 2.34483 21.3783 2.30712 21.2872C2.26941 21.1962 2.25 21.0986 2.25 21.0001C2.25 20.9015 2.26941 20.8039 2.30712 20.7129C2.34483 20.6218 2.40011 20.5391 2.46979 20.4694L7.07198 15.8672L5.59917 14.3944C5.25093 14.0462 4.97469 13.6328 4.78622 13.1778C4.59775 12.7228 4.50075 12.2352 4.50075 11.7427C4.50075 11.2502 4.59775 10.7626 4.78622 10.3076C4.97469 9.85262 5.25093 9.43921 5.59917 9.09099L10.5679 4.12224L9.9726 3.52786C9.83187 3.38713 9.75281 3.19626 9.75281 2.99724C9.75281 2.79822 9.83187 2.60734 9.9726 2.46661C10.1133 2.32588 10.3042 2.24682 10.5032 2.24682C10.7023 2.24682 10.8931 2.32588 11.0339 2.46661L13.5004 4.93974L16.7198 1.71943C16.8605 1.5787 17.0514 1.49963 17.2504 1.49963C17.4494 1.49963 17.6403 1.5787 17.781 1.71943C17.9218 1.86016 18.0008 2.05103 18.0008 2.25005C18.0008 2.44907 17.9218 2.63995 17.781 2.78068L14.5607 6.00005L18.0004 9.43974L21.2198 6.21943C21.3605 6.07869 21.5514 5.99963 21.7504 5.99963C21.9494 5.99963 22.1403 6.07869 22.281 6.21943C22.4218 6.36016 22.5008 6.55103 22.5008 6.75005C22.5008 6.94907 22.4218 7.13995 22.281 7.28068Z" fill="black"/>
</svg>
