<svg width="24" height="24" viewBox="0 0 24 24" fill="none" xmlns="http://www.w3.org/2000/svg">
<path d="M21.624 4.6275C21.3454 4.34885 21.0146 4.12781 20.6506 3.977C20.2866 3.82619 19.8964 3.74857 19.5024 3.74857C19.1084 3.74857 18.7182 3.82619 18.3542 3.977C17.9902 4.12781 17.6594 4.34885 17.3808 4.6275C17.192 4.81621 17.0293 5.02935 16.8971 5.26125L14.2515 4.53937C14.2596 3.94252 14.0896 3.3568 13.763 2.85713C13.4365 2.35746 12.9683 1.96656 12.4184 1.73444C11.8685 1.50231 11.2618 1.4395 10.676 1.55406C10.0902 1.66861 9.55186 1.95532 9.12989 2.3775C8.67934 2.82912 8.38416 3.41239 8.28708 4.04289C8.19 4.6734 8.29606 5.31845 8.58989 5.88468L5.40802 8.74875C4.83072 8.36719 4.13942 8.19658 3.45089 8.26576C2.76236 8.33494 2.11881 8.63966 1.62895 9.12843C1.08124 9.672 0.764037 10.4057 0.743275 11.1771C0.722513 11.9485 0.999786 12.6982 1.51747 13.2704C2.03515 13.8427 2.75343 14.1934 3.52303 14.2498C4.29263 14.3062 5.05435 14.0638 5.64989 13.5731L12.2124 18.3881C12.0024 18.914 11.9455 19.4887 12.0483 20.0455C12.1512 20.6024 12.4096 21.1188 12.7936 21.535C13.1776 21.9513 13.6716 22.2503 14.2184 22.3975C14.7652 22.5448 15.3425 22.5342 15.8836 22.3671C16.4247 22.2001 16.9075 21.8832 17.2761 21.4533C17.6446 21.0234 17.884 20.4979 17.9665 19.9376C18.0489 19.3773 17.9712 18.8052 17.7421 18.2873C17.513 17.7694 17.1421 17.3269 16.6721 17.0109L19.2399 9.73687C19.3261 9.74437 19.4124 9.74812 19.4986 9.74812C20.0919 9.74803 20.6717 9.57207 21.165 9.24248C21.6582 8.91289 22.0427 8.44446 22.2697 7.89642C22.4968 7.34837 22.5563 6.74531 22.4407 6.16346C22.3251 5.58161 22.0395 5.0471 21.6202 4.6275H21.624ZM15.2611 16.5141C14.4834 16.4463 13.7099 16.6844 13.1049 17.1778L6.54239 12.3628C6.70143 11.9616 6.77251 11.531 6.75084 11.1C6.72917 10.6689 6.61524 10.2476 6.41677 9.86437L9.59958 7.00031C9.94199 7.22726 10.3274 7.38146 10.7318 7.45337C11.1363 7.52528 11.5512 7.51336 11.9508 7.41834C12.3505 7.32333 12.7264 7.14725 13.0552 6.90101C13.384 6.65478 13.6588 6.34364 13.8624 5.98687L16.5015 6.70875C16.4943 7.20745 16.6116 7.70007 16.8427 8.14203C17.0739 8.584 17.4115 8.96137 17.8252 9.24L15.2611 16.5141Z" fill="black"/>
</svg>
