<svg width="24" height="24" viewBox="0 0 24 24" fill="none" xmlns="http://www.w3.org/2000/svg">
<path d="M20.0044 20.8049C19.8572 20.9387 19.6629 21.0085 19.4642 20.999C19.2655 20.9895 19.0788 20.9015 18.945 20.7543L15.7594 17.2499H12.75V22.4999C12.75 22.6989 12.671 22.8896 12.5303 23.0303C12.3897 23.1709 12.1989 23.2499 12 23.2499C11.8011 23.2499 11.6103 23.1709 11.4697 23.0303C11.329 22.8896 11.25 22.6989 11.25 22.4999V17.2499H3.75C3.55109 17.2499 3.36032 17.1709 3.21967 17.0303C3.07902 16.8896 3 16.6989 3 16.4999C3 16.301 3.07902 16.1103 3.21967 15.9696C3.36032 15.829 3.55109 15.7499 3.75 15.7499H4.62094L6.21 6.74994L3.945 4.25432C3.87738 4.18167 3.82484 4.09633 3.79044 4.00323C3.75604 3.91014 3.74046 3.81114 3.74461 3.71198C3.74875 3.61282 3.77253 3.51546 3.81458 3.42556C3.85662 3.33566 3.91609 3.255 3.98954 3.18825C4.06299 3.1215 4.14896 3.06999 4.24246 3.03671C4.33596 3.00343 4.43514 2.98904 4.53424 2.99437C4.63335 2.9997 4.73041 3.02465 4.8198 3.06777C4.90919 3.11089 4.98914 3.17132 5.055 3.24557L20.055 19.7456C20.1888 19.8928 20.2586 20.0871 20.2491 20.2857C20.2396 20.4844 20.1516 20.6712 20.0044 20.8049ZM17.8594 15.1003C17.9688 15.2202 18.1142 15.3013 18.2737 15.3316C18.4332 15.3618 18.5982 15.3395 18.7439 15.268C18.8896 15.1964 19.0082 15.0795 19.0818 14.9348C19.1555 14.7902 19.1801 14.6255 19.1522 14.4656L17.3944 4.49994H18C18.1989 4.49994 18.3897 4.42092 18.5303 4.28027C18.671 4.13962 18.75 3.94885 18.75 3.74994C18.75 3.55103 18.671 3.36026 18.5303 3.21961C18.3897 3.07896 18.1989 2.99994 18 2.99994H8.55469C8.40941 2.99995 8.26726 3.04216 8.14552 3.12143C8.02378 3.2007 7.92768 3.31363 7.8689 3.44648C7.81011 3.57933 7.79118 3.7264 7.8144 3.86981C7.83762 4.01322 7.90199 4.1468 7.99969 4.25432L17.8594 15.1003Z" fill="black"/>
</svg>
