<svg width="24" height="24" viewBox="0 0 24 24" fill="none" xmlns="http://www.w3.org/2000/svg">
<path d="M20.0579 19.7456C20.1255 19.8183 20.1781 19.9036 20.2125 19.9967C20.2469 20.0898 20.2624 20.1888 20.2583 20.288C20.2541 20.3871 20.2304 20.4845 20.1883 20.5744C20.1463 20.6643 20.0868 20.745 20.0134 20.8117C19.9399 20.8785 19.8539 20.93 19.7604 20.9632C19.6669 20.9965 19.5678 21.0109 19.4687 21.0056C19.3696 21.0003 19.2725 20.9753 19.1831 20.9322C19.0937 20.8891 19.0138 20.8286 18.9479 20.7544L16.9004 18.5044C16.6228 19.1824 16.2578 19.8212 15.8148 20.4047C15.686 20.5768 15.5216 20.7191 15.3328 20.8219C15.1439 20.9246 14.9352 20.9854 14.7207 21C14.6851 21 14.6504 21 14.6148 21C14.4177 21 14.2225 20.9612 14.0404 20.8858C13.8583 20.8103 13.6929 20.6997 13.5535 20.5603L9.02915 16.0313L5.03259 20.0306C4.89185 20.1714 4.70098 20.2504 4.50196 20.2504C4.30294 20.2504 4.11207 20.1714 3.97134 20.0306C3.8306 19.8899 3.75154 19.699 3.75154 19.5C3.75154 19.301 3.8306 19.1101 3.97134 18.9694L7.97071 14.9728L3.44259 10.4447C3.29375 10.2957 3.17796 10.117 3.10276 9.92024C3.02757 9.7235 2.99465 9.51313 3.00614 9.30283C3.01764 9.09252 3.0733 8.88699 3.16949 8.69962C3.26569 8.51225 3.40026 8.34724 3.56446 8.21533C4.36215 7.55264 5.30588 7.08897 6.3179 6.86252L3.94696 4.25439C3.87934 4.18175 3.8268 4.09641 3.7924 4.00331C3.758 3.91021 3.74242 3.81122 3.74657 3.71205C3.75071 3.61289 3.77449 3.51554 3.81654 3.42564C3.85858 3.33574 3.91805 3.25507 3.9915 3.18832C4.06495 3.12157 4.15092 3.07007 4.24442 3.03679C4.33792 3.00351 4.4371 2.98911 4.5362 2.99445C4.63531 2.99978 4.73237 3.02473 4.82176 3.06785C4.91115 3.11097 4.9911 3.1714 5.05696 3.24564L17.0926 16.4841L20.0579 19.7456ZM22.0632 7.62845L16.3735 1.93971C16.2342 1.80038 16.0689 1.68986 15.8868 1.61446C15.7048 1.53905 15.5098 1.50024 15.3127 1.50024C15.1157 1.50024 14.9206 1.53905 14.7386 1.61446C14.5566 1.68986 14.3913 1.80038 14.252 1.93971L10.3866 5.81814C10.2516 5.95441 10.1739 6.13727 10.1695 6.3291C10.1651 6.52092 10.2345 6.70713 10.3632 6.84939L16.7916 13.921C16.86 13.9962 16.943 14.0568 17.0355 14.0991C17.128 14.1413 17.2281 14.1643 17.3298 14.1666H17.3457C17.4443 14.1665 17.5419 14.1471 17.633 14.1092C17.724 14.0714 17.8067 14.0161 17.8763 13.9463L22.0632 9.75002C22.2025 9.61072 22.3131 9.44535 22.3885 9.26334C22.4639 9.08133 22.5027 8.88625 22.5027 8.68924C22.5027 8.49222 22.4639 8.29714 22.3885 8.11513C22.3131 7.93312 22.2025 7.76775 22.0632 7.62845Z" fill="black"/>
</svg>
