<svg width="24" height="24" viewBox="0 0 24 24" fill="none" xmlns="http://www.w3.org/2000/svg">
<path d="M22.0641 9.74994L17.0513 14.7796C17.4788 15.9674 17.656 17.9568 15.8148 20.4046C15.686 20.5767 15.5216 20.719 15.3328 20.8218C15.1439 20.9245 14.9352 20.9853 14.7207 20.9999C14.6851 20.9999 14.6504 20.9999 14.6148 20.9999C14.4177 21 14.2225 20.9612 14.0404 20.8857C13.8583 20.8103 13.6929 20.6997 13.5535 20.5602L9.02915 16.0312L5.03259 20.0306C4.89185 20.1713 4.70098 20.2504 4.50196 20.2504C4.30294 20.2504 4.11207 20.1713 3.97134 20.0306C3.8306 19.8898 3.75154 19.699 3.75154 19.4999C3.75154 19.3009 3.8306 19.11 3.97134 18.9693L7.97071 14.9727L3.44259 10.4446C3.29375 10.2956 3.17796 10.1169 3.10276 9.92016C3.02757 9.72342 2.99465 9.51305 3.00614 9.30274C3.01764 9.09244 3.0733 8.88691 3.16949 8.69954C3.26569 8.51217 3.40026 8.34716 3.56446 8.21525C5.94759 6.29244 8.22852 6.67025 9.22696 6.98337L14.252 1.94056C14.3913 1.80124 14.5566 1.69072 14.7386 1.61531C14.9206 1.53991 15.1157 1.5011 15.3127 1.5011C15.5098 1.5011 15.7048 1.53991 15.8868 1.61531C16.0689 1.69072 16.2342 1.80124 16.3735 1.94056L22.0632 7.62931C22.3444 7.91046 22.5025 8.29177 22.5027 8.68943C22.5028 9.08708 22.3451 9.46853 22.0641 9.74994Z" fill="black"/>
</svg>
