<svg width="24" height="24" viewBox="0 0 24 24" fill="none" xmlns="http://www.w3.org/2000/svg">
<path d="M20.25 6.75002H8.11031L18.2156 3.71909C18.4062 3.6619 18.5663 3.53135 18.6606 3.35615C18.7549 3.18095 18.7758 2.97545 18.7186 2.78487C18.6614 2.59428 18.5309 2.43423 18.3557 2.3399C18.1805 2.24558 17.975 2.22471 17.7844 2.2819L2.78438 6.7819C2.62994 6.82825 2.49456 6.92314 2.39831 7.0525C2.30205 7.18185 2.25005 7.33879 2.25 7.50002V18.75C2.25 19.1478 2.40804 19.5294 2.68934 19.8107C2.97064 20.092 3.35218 20.25 3.75 20.25H20.25C20.6478 20.25 21.0294 20.092 21.3107 19.8107C21.592 19.5294 21.75 19.1478 21.75 18.75V8.25002C21.75 7.8522 21.592 7.47067 21.3107 7.18936C21.0294 6.90806 20.6478 6.75002 20.25 6.75002ZM9 17.25H5.25C5.05109 17.25 4.86032 17.171 4.71967 17.0304C4.57902 16.8897 4.5 16.6989 4.5 16.5C4.5 16.3011 4.57902 16.1103 4.71967 15.9697C4.86032 15.829 5.05109 15.75 5.25 15.75H9C9.19891 15.75 9.38968 15.829 9.53033 15.9697C9.67098 16.1103 9.75 16.3011 9.75 16.5C9.75 16.6989 9.67098 16.8897 9.53033 17.0304C9.38968 17.171 9.19891 17.25 9 17.25ZM9 14.25H5.25C5.05109 14.25 4.86032 14.171 4.71967 14.0304C4.57902 13.8897 4.5 13.6989 4.5 13.5C4.5 13.3011 4.57902 13.1103 4.71967 12.9697C4.86032 12.829 5.05109 12.75 5.25 12.75H9C9.19891 12.75 9.38968 12.829 9.53033 12.9697C9.67098 13.1103 9.75 13.3011 9.75 13.5C9.75 13.6989 9.67098 13.8897 9.53033 14.0304C9.38968 14.171 9.19891 14.25 9 14.25ZM9 11.25H5.25C5.05109 11.25 4.86032 11.171 4.71967 11.0304C4.57902 10.8897 4.5 10.6989 4.5 10.5C4.5 10.3011 4.57902 10.1103 4.71967 9.96969C4.86032 9.82904 5.05109 9.75002 5.25 9.75002H9C9.19891 9.75002 9.38968 9.82904 9.53033 9.96969C9.67098 10.1103 9.75 10.3011 9.75 10.5C9.75 10.6989 9.67098 10.8897 9.53033 11.0304C9.38968 11.171 9.19891 11.25 9 11.25ZM15.75 16.125C15.2308 16.125 14.7233 15.9711 14.2916 15.6826C13.8599 15.3942 13.5235 14.9842 13.3248 14.5046C13.1261 14.0249 13.0742 13.4971 13.1754 12.9879C13.2767 12.4787 13.5267 12.011 13.8938 11.6439C14.261 11.2768 14.7287 11.0267 15.2379 10.9255C15.7471 10.8242 16.2749 10.8762 16.7545 11.0748C17.2342 11.2735 17.6442 11.61 17.9326 12.0417C18.221 12.4733 18.375 12.9808 18.375 13.5C18.375 14.1962 18.0984 14.8639 17.6062 15.3562C17.1139 15.8485 16.4462 16.125 15.75 16.125Z" fill="black"/>
</svg>
