<svg width="24" height="24" viewBox="0 0 24 24" fill="none" xmlns="http://www.w3.org/2000/svg">
<path d="M10.8745 12C10.8745 11.7774 10.9405 11.5599 11.0641 11.3749C11.1877 11.1899 11.3634 11.0457 11.569 10.9606C11.7745 10.8754 12.0007 10.8532 12.219 10.8966C12.4372 10.94 12.6376 11.0471 12.795 11.2045C12.9523 11.3618 13.0595 11.5622 13.1029 11.7805C13.1463 11.9987 13.124 12.2249 13.0389 12.4305C12.9537 12.636 12.8095 12.8117 12.6245 12.9354C12.4395 13.059 12.222 13.125 11.9995 13.125C11.7011 13.125 11.415 13.0064 11.204 12.7954C10.993 12.5845 10.8745 12.2983 10.8745 12ZM9.15511 12.5296C9.2955 12.3891 9.3744 12.1986 9.37449 12C9.37551 11.5425 9.49559 11.0932 9.72293 10.6962C9.95026 10.2992 10.277 9.96828 10.6711 9.73589C10.8404 9.63557 10.9635 9.47269 11.0139 9.28239C11.0642 9.0921 11.0377 8.88964 10.9401 8.7187L8.5073 4.49995C8.40306 4.31918 8.26225 4.16215 8.09387 4.0389C7.9255 3.91564 7.73325 3.82888 7.52943 3.78414C7.32562 3.73941 7.11471 3.73769 6.91019 3.7791C6.70567 3.82051 6.51204 3.90414 6.34168 4.02464C5.18842 4.83767 4.2257 5.89171 3.52024 7.11374C2.81477 8.33576 2.38341 9.69655 2.25605 11.1018C2.23727 11.3117 2.26232 11.5231 2.32962 11.7228C2.39692 11.9224 2.505 12.1059 2.64699 12.2615C2.78696 12.4148 2.95722 12.5373 3.147 12.6214C3.33677 12.7055 3.54193 12.7492 3.74949 12.75H8.62449C8.72307 12.7499 8.82068 12.7304 8.91173 12.6926C9.00278 12.6548 9.08549 12.5994 9.15511 12.5296ZM14.3367 14.5481C14.2371 14.3759 14.0732 14.2503 13.881 14.199C13.6889 14.1477 13.4842 14.1748 13.312 14.2743C12.9128 14.5043 12.4602 14.6253 11.9995 14.6253C11.5388 14.6253 11.0862 14.5043 10.687 14.2743C10.6017 14.2251 10.5075 14.1931 10.4098 14.1802C10.3121 14.1674 10.2129 14.1739 10.1177 14.1994C10.0226 14.2249 9.93338 14.2689 9.85524 14.3289C9.77709 14.3889 9.71153 14.4637 9.6623 14.549L7.24168 18.7415C7.13745 18.9219 7.07193 19.122 7.04929 19.329C7.02665 19.5361 7.04739 19.7456 7.11019 19.9442C7.17298 20.1428 7.27646 20.3262 7.41402 20.4826C7.55158 20.6391 7.72021 20.7651 7.90918 20.8528C9.19177 21.4439 10.5872 21.75 11.9995 21.75C13.4117 21.75 14.8072 21.4439 16.0898 20.8528C16.2788 20.7651 16.4474 20.6391 16.585 20.4826C16.7225 20.3262 16.826 20.1428 16.8888 19.9442C16.9516 19.7456 16.9723 19.5361 16.9497 19.329C16.927 19.122 16.8615 18.9219 16.7573 18.7415L14.3367 14.5481ZM21.7429 11.1018C21.6156 9.69655 21.1842 8.33576 20.4787 7.11374C19.7733 5.89171 18.8106 4.83767 17.6573 4.02464C17.4869 3.90414 17.2933 3.82051 17.0888 3.7791C16.8843 3.73769 16.6734 3.73941 16.4695 3.78414C16.2657 3.82888 16.0735 3.91564 15.9051 4.0389C15.7367 4.16215 15.5959 4.31918 15.4917 4.49995L13.0589 8.7187C12.9598 8.89007 12.9325 9.09365 12.9829 9.28507C13.0333 9.47649 13.1573 9.64023 13.3279 9.74058C13.7027 9.95959 14.0173 10.2681 14.2435 10.6385C14.4698 11.0089 14.6007 11.4297 14.6245 11.8631C14.6245 11.9081 14.6245 11.9568 14.6245 11.9981C14.6245 12.0966 14.6439 12.1941 14.6816 12.2851C14.7193 12.3761 14.7745 12.4588 14.8442 12.5284C14.9138 12.5981 14.9965 12.6533 15.0875 12.691C15.1785 12.7287 15.276 12.7481 15.3745 12.7481H20.2495C20.4571 12.7474 20.6622 12.7036 20.852 12.6195C21.0418 12.5354 21.212 12.4129 21.352 12.2596C21.4937 12.1042 21.6017 11.9211 21.669 11.7218C21.7363 11.5225 21.7614 11.3114 21.7429 11.1018Z" fill="black"/>
</svg>
