<svg width="24" height="24" viewBox="0 0 24 24" fill="none" xmlns="http://www.w3.org/2000/svg">
<path d="M23.25 15C23.2488 16.1931 22.7743 17.337 21.9306 18.1806C21.087 19.0243 19.9431 19.4988 18.75 19.5H14.25C12.5953 19.5 11.25 18.1172 11.25 16.4166C11.25 14.716 12.5953 13.3331 14.25 13.3331C14.3546 13.3331 14.4591 13.3388 14.5631 13.35C14.9472 12.375 15.6595 11.5646 16.5771 11.0587C17.4948 10.5527 18.5602 10.3828 19.5897 10.5783C20.6192 10.7739 21.5482 11.3226 22.2164 12.1298C22.8846 12.937 23.2502 13.9521 23.25 15ZM10.5 6.75002C12.6489 6.7457 14.7139 7.58414 16.2516 9.08533C16.3951 9.21902 16.5853 9.29116 16.7814 9.28629C16.9774 9.28142 17.1638 9.19994 17.3005 9.0593C17.4372 8.91866 17.5134 8.73005 17.5127 8.53391C17.5121 8.33778 17.4346 8.14971 17.2969 8.01002C15.9227 6.67387 14.1852 5.77238 12.3015 5.41824C10.4178 5.0641 8.4715 5.27302 6.70589 6.01888C4.94028 6.76474 3.43366 8.01445 2.37436 9.61181C1.31506 11.2092 0.750069 13.0833 0.75 15V16.5C0.75 16.6989 0.829018 16.8897 0.96967 17.0304C1.11032 17.171 1.30109 17.25 1.5 17.25C1.69891 17.25 1.88968 17.171 2.03033 17.0304C2.17098 16.8897 2.25 16.6989 2.25 16.5V15C2.25248 12.8127 3.12247 10.7158 4.66911 9.16913C6.21575 7.62249 8.31273 6.7525 10.5 6.75002ZM10.5 9.75002C11.6175 9.74695 12.7064 10.1032 13.6059 10.7663C13.6842 10.8336 13.7755 10.8841 13.8742 10.9146C13.9728 10.945 14.0767 10.9548 14.1793 10.9432C14.2819 10.9317 14.381 10.899 14.4704 10.8474C14.5598 10.7958 14.6376 10.7262 14.6989 10.6431C14.7602 10.56 14.8037 10.4652 14.8266 10.3645C14.8495 10.2638 14.8514 10.1595 14.8322 10.058C14.8129 9.9566 14.7729 9.86023 14.7147 9.77496C14.6564 9.6897 14.5812 9.61737 14.4938 9.56252C13.4882 8.82457 12.2979 8.37964 11.0549 8.2771C9.81188 8.17457 8.56475 8.41844 7.45191 8.98166C6.33907 9.54487 5.40404 10.4054 4.75058 11.4678C4.09712 12.5301 3.75078 13.7528 3.75 15V16.5C3.75 16.6989 3.82902 16.8897 3.96967 17.0304C4.11032 17.171 4.30109 17.25 4.5 17.25C4.69891 17.25 4.88968 17.171 5.03033 17.0304C5.17098 16.8897 5.25 16.6989 5.25 16.5V15C5.25149 13.6081 5.80509 12.2736 6.78933 11.2894C7.77358 10.3051 9.10807 9.75151 10.5 9.75002ZM11.9259 12.2541C11.9487 12.1582 11.9523 12.0589 11.9366 11.9616C11.9209 11.8644 11.8862 11.7712 11.8345 11.6873C11.7828 11.6035 11.7151 11.5307 11.6352 11.473C11.5553 11.4153 11.4649 11.374 11.3691 11.3513C10.818 11.22 10.2445 11.2153 9.69135 11.3374C9.13824 11.4596 8.61999 11.7054 8.1755 12.0565C7.73102 12.4076 7.37185 12.8549 7.12496 13.3647C6.87807 13.8745 6.74987 14.4336 6.75 15V16.5C6.75 16.6989 6.82902 16.8897 6.96967 17.0304C7.11032 17.171 7.30109 17.25 7.5 17.25C7.69891 17.25 7.88968 17.171 8.03033 17.0304C8.17098 16.8897 8.25 16.6989 8.25 16.5V15C8.24993 14.6601 8.32687 14.3246 8.47506 14.0186C8.62325 13.7127 8.83883 13.4444 9.10561 13.2337C9.37239 13.023 9.68343 12.8756 10.0154 12.8023C10.3473 12.7291 10.6915 12.7321 11.0222 12.811C11.1181 12.8338 11.2176 12.8375 11.3149 12.8219C11.4123 12.8063 11.5056 12.7716 11.5895 12.7199C11.6735 12.6682 11.7464 12.6004 11.8041 12.5205C11.8618 12.4406 11.9032 12.35 11.9259 12.2541Z" fill="black"/>
</svg>
