<svg width="24" height="24" viewBox="0 0 24 24" fill="none" xmlns="http://www.w3.org/2000/svg">
<path d="M19.7598 3.67993L7.54889 1.52368C7.15717 1.45475 6.7541 1.54422 6.42833 1.77242C6.10256 2.00061 5.88076 2.34885 5.81171 2.74056L3.02264 18.5843C2.98853 18.7784 2.993 18.9773 3.03579 19.1697C3.07859 19.3621 3.15887 19.5441 3.27206 19.7054C3.38524 19.8668 3.5291 20.0042 3.69543 20.1099C3.86175 20.2156 4.04727 20.2875 4.24139 20.3215L16.4523 22.4777C16.6465 22.512 16.8455 22.5076 17.038 22.4649C17.2305 22.4222 17.4126 22.3419 17.5741 22.2287C17.7355 22.1155 17.873 21.9716 17.9788 21.8052C18.0846 21.6388 18.1565 21.4532 18.1905 21.259L20.9795 5.41524C21.0478 5.02339 20.9577 4.62045 20.729 4.29502C20.5003 3.9696 20.1517 3.74835 19.7598 3.67993ZM12.7023 12.334C12.6717 12.5075 12.581 12.6647 12.4461 12.778C12.3112 12.8913 12.1407 12.9535 11.9645 12.9537C11.9205 12.9537 11.8766 12.9499 11.8333 12.9424L7.94264 12.2552C7.75774 12.2098 7.59706 12.0957 7.49319 11.9361C7.38932 11.7765 7.35004 11.5834 7.38332 11.3959C7.41659 11.2084 7.51993 11.0406 7.67237 10.9265C7.82481 10.8124 8.01495 10.7606 8.20421 10.7815L12.093 11.4649C12.1901 11.4819 12.2829 11.5179 12.3661 11.5708C12.4493 11.6236 12.5212 11.6924 12.5778 11.7731C12.6344 11.8538 12.6745 11.9449 12.6959 12.0412C12.7173 12.1374 12.7195 12.2369 12.7023 12.334ZM17.1086 10.0671C17.078 10.2405 16.9874 10.3975 16.8527 10.5108C16.718 10.6241 16.5477 10.6864 16.3717 10.6868C16.3274 10.6869 16.2831 10.6828 16.2395 10.6746L8.45827 9.30118C8.26234 9.2665 8.08821 9.1554 7.9742 8.99233C7.86018 8.82926 7.81561 8.62758 7.8503 8.43165C7.88498 8.23572 7.99608 8.0616 8.15915 7.94758C8.32222 7.83356 8.5239 7.789 8.71983 7.82368L16.5011 9.19806C16.5983 9.21493 16.6912 9.25082 16.7745 9.30365C16.8578 9.35649 16.9298 9.42524 16.9865 9.50597C17.0432 9.5867 17.0834 9.67782 17.1049 9.77411C17.1263 9.8704 17.1285 9.96997 17.1114 10.0671H17.1086ZM17.6289 7.11212C17.5983 7.28562 17.5076 7.44281 17.3727 7.55612C17.2378 7.66942 17.0673 7.73162 16.8911 7.73181C16.8471 7.73175 16.8032 7.72798 16.7598 7.72056L8.97858 6.34618C8.87935 6.33158 8.78406 6.29722 8.69835 6.24514C8.61263 6.19307 8.53824 6.12432 8.47955 6.04299C8.42087 5.96165 8.3791 5.86937 8.35671 5.7716C8.33432 5.67384 8.33177 5.57258 8.3492 5.47381C8.36664 5.37504 8.4037 5.28077 8.45821 5.19658C8.51271 5.11239 8.58355 5.03998 8.66654 4.98365C8.74952 4.92732 8.84295 4.8882 8.94132 4.86862C9.03968 4.84903 9.14098 4.84937 9.23921 4.86962L17.0205 6.24306C17.1177 6.25983 17.2107 6.29563 17.2941 6.34842C17.3776 6.40121 17.4497 6.46994 17.5065 6.55068C17.5633 6.63142 17.6036 6.72258 17.6251 6.81892C17.6466 6.91527 17.6488 7.0149 17.6317 7.11212H17.6289Z" fill="black"/>
</svg>
