<svg width="24" height="24" viewBox="0 0 24 24" fill="none" xmlns="http://www.w3.org/2000/svg">
<path d="M23.2502 9.75006C23.2501 9.17517 23.0848 8.61242 22.7739 8.1288C22.4631 7.64517 22.0199 7.26104 21.497 7.02211C20.9741 6.78319 20.3936 6.69953 19.8245 6.78111C19.2554 6.86268 18.7218 7.10605 18.2871 7.48224C16.7168 6.64787 14.8408 6.14349 12.8815 6.02631L13.368 3.10412L15.0293 3.35912C15.1135 3.88315 15.3804 4.36052 15.7826 4.70685C16.1848 5.05317 16.6965 5.24617 17.2272 5.25171C17.758 5.25725 18.2736 5.07499 18.6829 4.73714C19.0923 4.39928 19.369 3.9276 19.4642 3.40544C19.5594 2.88328 19.467 2.34427 19.2032 1.88368C18.9394 1.4231 18.5213 1.07058 18.0228 0.888451C17.5243 0.706317 16.9774 0.70629 16.4788 0.888375C15.9803 1.07046 15.5621 1.42293 15.2983 1.88349L12.8608 1.50849C12.6658 1.47843 12.4668 1.52642 12.307 1.64206C12.1471 1.7577 12.0392 1.93169 12.0068 2.12631L11.3627 6.01506C9.3152 6.10318 7.34833 6.61318 5.71333 7.48224C5.11624 6.97784 4.34586 6.72639 3.56617 6.78141C2.78649 6.83642 2.05906 7.19357 1.53872 7.77683C1.01838 8.36009 0.746224 9.12339 0.780178 9.90428C0.814132 10.6852 1.15151 11.422 1.72051 11.9579C1.57469 12.459 1.50052 12.9782 1.5002 13.5001C1.5002 15.556 2.6252 17.4704 4.67926 18.8897C6.6452 20.2501 9.24489 21.0001 12.0002 21.0001C14.7555 21.0001 17.3552 20.2501 19.3211 18.8897C21.3752 17.4704 22.5002 15.556 22.5002 13.5001C22.4999 12.9782 22.4257 12.459 22.2799 11.9579C22.5849 11.6764 22.8284 11.3351 22.9954 10.9552C23.1624 10.5753 23.2491 10.165 23.2502 9.75006ZM17.2502 2.25006C17.3985 2.25006 17.5435 2.29404 17.6669 2.37645C17.7902 2.45887 17.8863 2.576 17.9431 2.71304C17.9999 2.85009 18.0147 3.00089 17.9858 3.14637C17.9569 3.29186 17.8854 3.4255 17.7805 3.53039C17.6756 3.63528 17.542 3.70671 17.3965 3.73565C17.251 3.76458 17.1002 3.74973 16.9632 3.69297C16.8261 3.6362 16.709 3.54007 16.6266 3.41673C16.5442 3.2934 16.5002 3.14839 16.5002 3.00006C16.5002 2.80114 16.5792 2.61038 16.7199 2.46973C16.8605 2.32907 17.0513 2.25006 17.2502 2.25006ZM6.7502 12.0001C6.7502 11.7034 6.83818 11.4134 7.003 11.1667C7.16782 10.92 7.40209 10.7278 7.67618 10.6142C7.95027 10.5007 8.25187 10.471 8.54284 10.5289C8.83381 10.5868 9.10108 10.7296 9.31086 10.9394C9.52064 11.1492 9.6635 11.4164 9.72138 11.7074C9.77926 11.9984 9.74955 12.3 9.63602 12.5741C9.52249 12.8482 9.33023 13.0824 9.08356 13.2473C8.83688 13.4121 8.54687 13.5001 8.2502 13.5001C7.85238 13.5001 7.47085 13.342 7.18954 13.0607C6.90824 12.7794 6.7502 12.3979 6.7502 12.0001ZM15.3518 17.1629C14.3197 17.7113 13.1689 17.9981 12.0002 17.9981C10.8315 17.9981 9.68066 17.7113 8.64864 17.1629C8.5616 17.1167 8.4845 17.0538 8.42175 16.9779C8.35901 16.9019 8.31183 16.8143 8.28293 16.7201C8.25403 16.6259 8.24396 16.527 8.25331 16.4289C8.26265 16.3308 8.29122 16.2355 8.33739 16.1485C8.38356 16.0615 8.44642 15.9844 8.52238 15.9216C8.59834 15.8589 8.68592 15.8117 8.78012 15.7828C8.87431 15.7539 8.97327 15.7438 9.07136 15.7532C9.16944 15.7625 9.26472 15.7911 9.35176 15.8372C10.1672 16.2708 11.0767 16.4975 12.0002 16.4975C12.9237 16.4975 13.8332 16.2708 14.6486 15.8372C14.7357 15.7911 14.831 15.7625 14.929 15.7532C15.0271 15.7438 15.1261 15.7539 15.2203 15.7828C15.3145 15.8117 15.4021 15.8589 15.478 15.9216C15.554 15.9844 15.6168 16.0615 15.663 16.1485C15.7092 16.2355 15.7378 16.3308 15.7471 16.4289C15.7564 16.527 15.7464 16.6259 15.7175 16.7201C15.6886 16.8143 15.6414 16.9019 15.5787 16.9779C15.5159 17.0538 15.4388 17.1167 15.3518 17.1629ZM15.7502 13.5001C15.4535 13.5001 15.1635 13.4121 14.9168 13.2473C14.6702 13.0824 14.4779 12.8482 14.3644 12.5741C14.2509 12.3 14.2211 11.9984 14.279 11.7074C14.3369 11.4164 14.4798 11.1492 14.6895 10.9394C14.8993 10.7296 15.1666 10.5868 15.4576 10.5289C15.7485 10.471 16.0501 10.5007 16.3242 10.6142C16.5983 10.7278 16.8326 10.92 16.9974 11.1667C17.1622 11.4134 17.2502 11.7034 17.2502 12.0001C17.2502 12.3979 17.0922 12.7794 16.8109 13.0607C16.5296 13.342 16.148 13.5001 15.7502 13.5001Z" fill="black"/>
</svg>
