<svg width="24" height="24" viewBox="0 0 24 24" fill="none" xmlns="http://www.w3.org/2000/svg">
<path d="M2.25059 12C2.25258 10.2104 2.96437 8.49464 4.22981 7.2292C5.49525 5.96376 7.21099 5.25197 9.00059 5.24998H18.0006V3.74998C18.0005 3.60156 18.0444 3.45644 18.1268 3.33299C18.2092 3.20955 18.3264 3.11333 18.4635 3.05651C18.6006 2.9997 18.7515 2.98485 18.8971 3.01383C19.0426 3.04282 19.1763 3.11435 19.2812 3.21936L21.5312 5.46936C21.6009 5.53901 21.6563 5.62173 21.694 5.71278C21.7318 5.80382 21.7512 5.90142 21.7512 5.99998C21.7512 6.09854 21.7318 6.19614 21.694 6.28719C21.6563 6.37823 21.6009 6.46095 21.5312 6.53061L19.2812 8.78061C19.1763 8.88561 19.0426 8.95714 18.8971 8.98613C18.7515 9.01512 18.6006 9.00026 18.4635 8.94345C18.3264 8.88663 18.2092 8.79041 18.1268 8.66697C18.0444 8.54352 18.0005 8.3984 18.0006 8.24998V6.74998H9.00059C7.60866 6.75147 6.27417 7.30507 5.28992 8.28931C4.30568 9.27356 3.75208 10.6081 3.75059 12C3.75059 12.1989 3.67157 12.3897 3.53092 12.5303C3.39027 12.671 3.1995 12.75 3.00059 12.75C2.80168 12.75 2.61091 12.671 2.47026 12.5303C2.32961 12.3897 2.25059 12.1989 2.25059 12ZM21.0006 11.25C20.8017 11.25 20.6109 11.329 20.4703 11.4697C20.3296 11.6103 20.2506 11.8011 20.2506 12C20.2491 13.3919 19.6955 14.7264 18.7113 15.7106C17.727 16.6949 16.3925 17.2485 15.0006 17.25H6.00059V15.75C6.00071 15.6016 5.95678 15.4564 5.87438 15.333C5.79198 15.2095 5.6748 15.1133 5.53768 15.0565C5.40056 14.9997 5.24967 14.9848 5.10411 15.0138C4.95855 15.0428 4.82486 15.1143 4.71996 15.2194L2.46996 17.4694C2.40023 17.539 2.34491 17.6217 2.30717 17.7128C2.26943 17.8038 2.25 17.9014 2.25 18C2.25 18.0985 2.26943 18.1961 2.30717 18.2872C2.34491 18.3782 2.40023 18.461 2.46996 18.5306L4.71996 20.7806C4.82486 20.8856 4.95855 20.9571 5.10411 20.9861C5.24967 21.0151 5.40056 21.0003 5.53768 20.9434C5.6748 20.8866 5.79198 20.7904 5.87438 20.667C5.95678 20.5435 6.00071 20.3984 6.00059 20.25V18.75H15.0006C16.7902 18.748 18.5059 18.0362 19.7714 16.7708C21.0368 15.5053 21.7486 13.7896 21.7506 12C21.7506 11.8011 21.6716 11.6103 21.5309 11.4697C21.3903 11.329 21.1995 11.25 21.0006 11.25ZM12.7506 15C12.9495 15 13.1403 14.921 13.2809 14.7803C13.4216 14.6397 13.5006 14.4489 13.5006 14.25V9.74998C13.5007 9.62207 13.4681 9.49627 13.4058 9.38452C13.3436 9.27277 13.2538 9.1788 13.145 9.11153C13.0362 9.04427 12.912 9.00594 12.7843 9.0002C12.6565 8.99446 12.5294 9.02149 12.415 9.07873L10.915 9.82873C10.7371 9.91774 10.6018 10.0738 10.539 10.2625C10.4761 10.4513 10.4908 10.6572 10.5798 10.8351C10.6688 11.013 10.8249 11.1483 11.0136 11.2111C11.2023 11.274 11.4083 11.2593 11.5862 11.1703L12.0006 10.9631V14.25C12.0006 14.4489 12.0796 14.6397 12.2203 14.7803C12.3609 14.921 12.5517 15 12.7506 15Z" fill="black"/>
</svg>
