<svg width="24" height="24" viewBox="0 0 24 24" fill="none" xmlns="http://www.w3.org/2000/svg">
<path d="M12 2.25C10.0716 2.25 8.18657 2.82183 6.58319 3.89317C4.97982 4.96451 3.73013 6.48726 2.99218 8.26884C2.25422 10.0504 2.06114 12.0108 2.43735 13.9021C2.81355 15.7934 3.74215 17.5307 5.10571 18.8943C6.46928 20.2579 8.20656 21.1865 10.0979 21.5627C11.9892 21.9389 13.9496 21.7458 15.7312 21.0078C17.5127 20.2699 19.0355 19.0202 20.1068 17.4168C21.1782 15.8134 21.75 13.9284 21.75 12C21.7473 9.41498 20.7192 6.93661 18.8913 5.10872C17.0634 3.28084 14.585 2.25273 12 2.25ZM16.5 14.625C16.5 14.7622 16.4623 14.8968 16.3911 15.014C16.3199 15.1313 16.2179 15.2268 16.0962 15.2901C15.9744 15.3535 15.8377 15.3822 15.7008 15.3732C15.5639 15.3642 15.4321 15.3178 15.3197 15.2391L11.5697 12.6141C11.471 12.5449 11.3904 12.453 11.3348 12.3461C11.2791 12.2392 11.25 12.1205 11.25 12V14.625C11.25 14.7622 11.2123 14.8968 11.1411 15.014C11.0699 15.1313 10.9679 15.2268 10.8462 15.2901C10.7244 15.3535 10.5877 15.3822 10.4508 15.3732C10.3139 15.3642 10.1821 15.3178 10.0697 15.2391L6.31969 12.6141C6.22105 12.5449 6.14052 12.453 6.08493 12.3461C6.02933 12.2392 6.0003 12.1205 6.0003 12C6.0003 11.8795 6.02933 11.7608 6.08493 11.6539C6.14052 11.547 6.22105 11.4551 6.31969 11.3859L10.0697 8.76094C10.1821 8.68222 10.3139 8.63583 10.4508 8.62683C10.5877 8.61782 10.7244 8.64654 10.8462 8.70987C10.9679 8.77319 11.0699 8.86869 11.1411 8.98596C11.2123 9.10324 11.25 9.2378 11.25 9.375V12C11.25 11.8795 11.2791 11.7608 11.3348 11.6539C11.3904 11.547 11.471 11.4551 11.5697 11.3859L15.3197 8.76094C15.4321 8.68222 15.5639 8.63583 15.7008 8.62683C15.8377 8.61782 15.9744 8.64654 16.0962 8.70987C16.2179 8.77319 16.3199 8.86869 16.3911 8.98596C16.4623 9.10324 16.5 9.2378 16.5 9.375V14.625Z" fill="black"/>
</svg>
