<svg width="24" height="24" viewBox="0 0 24 24" fill="none" xmlns="http://www.w3.org/2000/svg">
<path d="M22.4049 17.6325L16.2812 6.74997H21.7187C21.9134 6.75426 22.1024 6.68424 22.2472 6.55415C22.3921 6.42406 22.482 6.24367 22.4987 6.04966C22.5055 5.94707 22.4911 5.84418 22.4565 5.74737C22.4219 5.65056 22.3677 5.5619 22.2974 5.48691C22.2271 5.41192 22.142 5.35218 22.0477 5.31142C21.9533 5.27067 21.8515 5.24975 21.7487 5.24997H2.274C2.08012 5.24689 1.89229 5.31745 1.7484 5.44742C1.60451 5.57739 1.51527 5.7571 1.49868 5.95029C1.49187 6.05288 1.50623 6.15577 1.54086 6.25258C1.57549 6.34939 1.62965 6.43805 1.69998 6.51304C1.77032 6.58803 1.85532 6.64777 1.94971 6.68853C2.04411 6.72928 2.14587 6.7502 2.24868 6.74997H7.71619L1.59243 17.6325C1.51383 17.7722 1.48206 17.9335 1.5018 18.0926C1.52154 18.2517 1.59175 18.4003 1.70212 18.5165C1.77517 18.5915 1.8627 18.6509 1.9594 18.691C2.05609 18.7312 2.15994 18.7512 2.26462 18.75H10.8737C10.9731 18.75 11.0685 18.7105 11.1389 18.6401C11.2092 18.5698 11.2487 18.4744 11.2487 18.375V16.5253C11.2461 16.3317 11.3169 16.1444 11.4468 16.0009C11.5767 15.8574 11.7561 15.7684 11.949 15.7519C12.0516 15.745 12.1545 15.7594 12.2513 15.794C12.3481 15.8287 12.4368 15.8828 12.5117 15.9531C12.5867 16.0235 12.6465 16.1085 12.6872 16.2029C12.728 16.2973 12.7489 16.399 12.7487 16.5019V18.3769C12.7487 18.4763 12.7882 18.5717 12.8585 18.642C12.9288 18.7123 13.0242 18.7519 13.1237 18.7519H21.7271C21.8318 18.7531 21.9356 18.733 22.0323 18.6929C22.129 18.6528 22.2166 18.5934 22.2896 18.5184C22.4013 18.4026 22.4728 18.254 22.4936 18.0945C22.5144 17.935 22.4833 17.773 22.4049 17.6325ZM12.7487 13.125C12.7487 13.3239 12.6697 13.5147 12.529 13.6553C12.3884 13.796 12.1976 13.875 11.9987 13.875C11.7998 13.875 11.609 13.796 11.4684 13.6553C11.3277 13.5147 11.2487 13.3239 11.2487 13.125V11.625C11.2487 11.4261 11.3277 11.2353 11.4684 11.0946C11.609 10.954 11.7998 10.875 11.9987 10.875C12.1976 10.875 12.3884 10.954 12.529 11.0946C12.6697 11.2353 12.7487 11.4261 12.7487 11.625V13.125ZM12.7487 8.24997C12.7487 8.44889 12.6697 8.63965 12.529 8.7803C12.3884 8.92096 12.1976 8.99997 11.9987 8.99997C11.7998 8.99997 11.609 8.92096 11.4684 8.7803C11.3277 8.63965 11.2487 8.44889 11.2487 8.24997V7.49997C11.2487 7.30106 11.3277 7.1103 11.4684 6.96964C11.609 6.82899 11.7998 6.74997 11.9987 6.74997C12.1976 6.74997 12.3884 6.82899 12.529 6.96964C12.6697 7.1103 12.7487 7.30106 12.7487 7.49997V8.24997Z" fill="black"/>
</svg>
