<svg width="24" height="24" viewBox="0 0 24 24" fill="none" xmlns="http://www.w3.org/2000/svg">
<path d="M9.72916 17.4319C9.6926 17.5772 8.77854 21 3.75072 21C3.55181 21 3.36104 20.921 3.22039 20.7804C3.07974 20.6397 3.00072 20.449 3.00072 20.25C3.00072 15.2222 6.42353 14.3082 6.56885 14.2716C6.76192 14.2234 6.96624 14.2538 7.13687 14.3562C7.3075 14.4586 7.43046 14.6246 7.47869 14.8177C7.52693 15.0108 7.49649 15.2151 7.39408 15.3857C7.29167 15.5563 7.12567 15.6793 6.9326 15.7275C6.84822 15.751 4.83072 16.3407 4.53635 19.4644C7.6601 19.17 8.25072 17.1563 8.2751 17.0625C8.32483 16.8697 8.44911 16.7046 8.62062 16.6034C8.79213 16.5022 8.99681 16.4733 9.18963 16.523C9.38245 16.5727 9.54762 16.697 9.6488 16.8685C9.74998 17.04 9.77889 17.2447 9.72916 17.4375V17.4319ZM18.4479 11.1132L18.0007 11.5604V17.0288C18.0018 17.2265 17.9636 17.4225 17.8883 17.6054C17.813 17.7882 17.7021 17.9542 17.562 18.0938L14.3445 21.3094C14.2057 21.4492 14.0407 21.56 13.8588 21.6357C13.677 21.7113 13.482 21.7502 13.2851 21.75C13.1226 21.75 12.9611 21.7237 12.807 21.6722C12.5423 21.5847 12.3074 21.4249 12.1288 21.2108C11.9502 20.9968 11.8351 20.737 11.7963 20.461L11.2929 16.8525L7.14822 12.7079L3.54166 12.2044C3.26523 12.1656 3.0051 12.0505 2.79054 11.872C2.57598 11.6934 2.41549 11.4586 2.32713 11.1938C2.23877 10.929 2.22605 10.6448 2.2904 10.3732C2.35474 10.1016 2.4936 9.8533 2.69135 9.65629L5.90697 6.43879C6.04655 6.29872 6.21258 6.18779 6.39541 6.11247C6.57825 6.03714 6.77423 5.99893 6.97197 6.00004H12.4404L12.8876 5.55286C15.3888 3.05254 18.402 2.94473 19.5823 3.01504C19.948 3.03727 20.2929 3.19256 20.552 3.45162C20.811 3.71068 20.9663 4.0556 20.9885 4.42129C21.057 5.59786 20.9492 8.61192 18.4488 11.1132H18.4479ZM10.9404 7.50004H6.97197L3.75072 10.7194L7.23354 11.205L10.9404 7.50004ZM16.5007 13.0604L12.7948 16.7663L13.2823 20.25L16.5007 17.0288V13.0604Z" fill="black"/>
</svg>
