<svg width="24" height="24" viewBox="0 0 24 24" fill="none" xmlns="http://www.w3.org/2000/svg">
<path d="M18.75 1.5C18.5511 1.5 18.3603 1.57902 18.2197 1.71967C18.079 1.86032 18 2.05109 18 2.25V3.75H15V2.25C15 2.05109 14.921 1.86032 14.7803 1.71967C14.6397 1.57902 14.4489 1.5 14.25 1.5C14.0511 1.5 13.8603 1.57902 13.7197 1.71967C13.579 1.86032 13.5 2.05109 13.5 2.25V3.75H10.5V2.25C10.5 2.05109 10.421 1.86032 10.2803 1.71967C10.1397 1.57902 9.94891 1.5 9.75 1.5C9.55109 1.5 9.36032 1.57902 9.21967 1.71967C9.07902 1.86032 9 2.05109 9 2.25V3.75H6V2.25C6 2.05109 5.92098 1.86032 5.78033 1.71967C5.63968 1.57902 5.44891 1.5 5.25 1.5C5.05109 1.5 4.86032 1.57902 4.71967 1.71967C4.57902 1.86032 4.5 2.05109 4.5 2.25V21.75C4.5 21.9489 4.57902 22.1397 4.71967 22.2803C4.86032 22.421 5.05109 22.5 5.25 22.5C5.44891 22.5 5.63968 22.421 5.78033 22.2803C5.92098 22.1397 6 21.9489 6 21.75V20.25H9V21.75C9 21.9489 9.07902 22.1397 9.21967 22.2803C9.36032 22.421 9.55109 22.5 9.75 22.5C9.94891 22.5 10.1397 22.421 10.2803 22.2803C10.421 22.1397 10.5 21.9489 10.5 21.75V20.25H13.5V21.75C13.5 21.9489 13.579 22.1397 13.7197 22.2803C13.8603 22.421 14.0511 22.5 14.25 22.5C14.4489 22.5 14.6397 22.421 14.7803 22.2803C14.921 22.1397 15 21.9489 15 21.75V20.25H18V21.75C18 21.9489 18.079 22.1397 18.2197 22.2803C18.3603 22.421 18.5511 22.5 18.75 22.5C18.9489 22.5 19.1397 22.421 19.2803 22.2803C19.421 22.1397 19.5 21.9489 19.5 21.75V2.25C19.5 2.05109 19.421 1.86032 19.2803 1.71967C19.1397 1.57902 18.9489 1.5 18.75 1.5ZM6 5.25H18V18.75H6V5.25ZM11.3569 16.1362L9.10687 12.3862C9.03679 12.2696 8.99977 12.1361 8.99977 12C8.99977 11.8639 9.03679 11.7304 9.10687 11.6137L11.3569 7.86375C11.4235 7.75269 11.5178 7.66078 11.6305 7.59697C11.7432 7.53315 11.8705 7.49961 12 7.49961C12.1295 7.49961 12.2568 7.53315 12.3695 7.59697C12.4822 7.66078 12.5765 7.75269 12.6431 7.86375L14.8931 11.6137C14.9632 11.7304 15.0002 11.8639 15.0002 12C15.0002 12.1361 14.9632 12.2696 14.8931 12.3862L12.6431 16.1362C12.5765 16.2473 12.4822 16.3392 12.3695 16.403C12.2568 16.4668 12.1295 16.5004 12 16.5004C11.8705 16.5004 11.7432 16.4668 11.6305 16.403C11.5178 16.3392 11.4235 16.2473 11.3569 16.1362Z" fill="black"/>
</svg>
