<svg width="24" height="24" viewBox="0 0 24 24" fill="none" xmlns="http://www.w3.org/2000/svg">
<path d="M14.7863 10.606C14.7305 10.5246 14.6914 10.4331 14.6711 10.3366C14.6507 10.2401 14.6497 10.1405 14.6679 10.0436C14.6861 9.94668 14.7232 9.85431 14.7771 9.77176C14.8311 9.68921 14.9008 9.6181 14.9822 9.56252L21.3253 5.22189C21.4896 5.12025 21.6868 5.08592 21.8758 5.12607C22.0648 5.16622 22.231 5.27775 22.3398 5.43741C22.4485 5.59708 22.4915 5.79256 22.4597 5.98312C22.4279 6.17369 22.3238 6.34463 22.1691 6.46033L15.825 10.801C15.7437 10.8566 15.6522 10.8956 15.5558 10.9158C15.4594 10.9361 15.36 10.9371 15.2632 10.9189C15.1664 10.9007 15.0741 10.8636 14.9916 10.8098C14.9092 10.7559 14.8381 10.6863 14.7825 10.605L14.7863 10.606ZM22.3678 18.5813C22.3123 18.6626 22.2412 18.7322 22.1587 18.786C22.0763 18.8399 21.984 18.877 21.8872 18.8952C21.7904 18.9134 21.6909 18.9123 21.5945 18.8921C21.4981 18.8718 21.4067 18.8328 21.3253 18.7772L12.7491 12.9085L8.76284 15.6356C9.06654 16.4079 9.07505 17.2651 8.78676 18.0432C8.49847 18.8214 7.93358 19.4661 7.20002 19.8541C6.46646 20.2421 5.61565 20.3463 4.81015 20.1467C4.00466 19.9471 3.30094 19.4577 2.83344 18.772C2.36595 18.0864 2.16746 17.2525 2.2759 16.4298C2.38433 15.607 2.79209 14.8531 3.42127 14.3119C4.05044 13.7708 4.85692 13.4805 5.68663 13.4964C6.51634 13.5123 7.31111 13.8333 7.91909 14.3981L11.4207 12L7.91628 9.60189C7.3083 10.1667 6.51353 10.4878 5.68382 10.5037C4.85411 10.5196 4.04763 10.2292 3.41845 9.6881C2.78928 9.14698 2.38152 8.39302 2.27309 7.57028C2.16465 6.74753 2.36314 5.91367 2.83063 5.22802C3.29812 4.54236 4.00184 4.05298 4.80734 3.85337C5.61284 3.65376 6.46364 3.75791 7.1972 4.14593C7.93077 4.53395 8.49566 5.17863 8.78395 5.95681C9.07224 6.73499 9.06372 7.5921 8.76003 8.36439L22.1663 17.5388C22.2481 17.5939 22.3181 17.6646 22.3725 17.7469C22.4269 17.8292 22.4646 17.9214 22.4833 18.0182C22.502 18.115 22.5015 18.2146 22.4816 18.3112C22.4618 18.4079 22.4232 18.4996 22.3678 18.5813ZM6.74909 16.875C6.74909 16.6525 6.68311 16.435 6.55949 16.25C6.43588 16.065 6.26018 15.9208 6.05461 15.8357C5.84904 15.7505 5.62284 15.7282 5.40461 15.7716C5.18638 15.815 4.98593 15.9222 4.82859 16.0795C4.67126 16.2369 4.56412 16.4373 4.52071 16.6555C4.4773 16.8738 4.49958 17.1 4.58473 17.3055C4.66987 17.5111 4.81407 17.6868 4.99907 17.8104C5.18408 17.934 5.40159 18 5.62409 18C5.92246 18 6.20861 17.8815 6.41959 17.6705C6.63056 17.4595 6.74909 17.1734 6.74909 16.875ZM6.74909 7.12502C6.74909 6.90251 6.68311 6.68501 6.55949 6.5C6.43588 6.315 6.26018 6.1708 6.05461 6.08565C5.84904 6.00051 5.62284 5.97823 5.40461 6.02164C5.18638 6.06504 4.98593 6.17219 4.82859 6.32952C4.67126 6.48686 4.56412 6.68731 4.52071 6.90554C4.4773 7.12377 4.49958 7.34997 4.58473 7.55554C4.66987 7.7611 4.81407 7.93681 4.99907 8.06042C5.18408 8.18404 5.40159 8.25002 5.62409 8.25002C5.92246 8.25002 6.20861 8.13149 6.41959 7.92051C6.63056 7.70954 6.74909 7.42339 6.74909 7.12502Z" fill="black"/>
</svg>
