<svg width="24" height="24" viewBox="0 0 24 24" fill="none" xmlns="http://www.w3.org/2000/svg">
<path d="M19.8747 18.75C19.8748 19.2426 19.767 19.7293 19.559 20.1758C19.3509 20.6223 19.0477 21.0179 18.6705 21.3347C18.2933 21.6516 17.8513 21.882 17.3756 22.0098C16.8999 22.1377 16.4019 22.1598 15.9167 22.0747C15.4315 21.9897 14.9708 21.7994 14.567 21.5173C14.1631 21.2352 13.826 20.8681 13.5791 20.4418C13.3322 20.0156 13.1817 19.5404 13.138 19.0497C13.0943 18.5591 13.1586 18.0648 13.3263 17.6016L8.35752 14.4094C7.88296 14.8749 7.28152 15.1899 6.62863 15.3149C5.97574 15.4398 5.30048 15.3692 4.68757 15.1119C4.07466 14.8545 3.5514 14.4219 3.18342 13.8683C2.81544 13.3147 2.61914 12.6648 2.61914 12C2.61914 11.3353 2.81544 10.6854 3.18342 10.1318C3.5514 9.57816 4.07466 9.14555 4.68757 8.88821C5.30048 8.63087 5.97574 8.56025 6.62863 8.68522C7.28152 8.81019 7.88296 9.12518 8.35752 9.59067L13.3263 6.40317C13.0417 5.62134 13.0553 4.76208 13.3642 3.98959C13.6732 3.2171 14.256 2.58553 15.0012 2.21557C15.7464 1.84562 16.6018 1.76321 17.404 1.98409C18.2061 2.20498 18.8987 2.71367 19.3495 3.41297C19.8003 4.11227 19.9776 4.95314 19.8476 5.77491C19.7175 6.59668 19.2893 7.34173 18.6446 7.86769C18 8.39366 17.1841 8.66366 16.353 8.6261C15.5218 8.58855 14.7337 8.24607 14.1391 7.66411L9.17033 10.8563C9.43887 11.5984 9.43887 12.4111 9.17033 13.1532L14.1391 16.3454C14.6135 15.8811 15.2143 15.567 15.8662 15.4424C16.5182 15.3178 17.1925 15.3882 17.8046 15.6449C18.4168 15.9016 18.9397 16.333 19.3079 16.8853C19.6761 17.4376 19.8733 18.0863 19.8747 18.75Z" fill="black"/>
</svg>
