<svg width="24" height="24" viewBox="0 0 24 24" fill="none" xmlns="http://www.w3.org/2000/svg">
<path d="M19.5 3.75H4.5C4.10218 3.75 3.72064 3.90804 3.43934 4.18934C3.15804 4.47064 3 4.85218 3 5.25V10.7597C3 19.1606 10.1081 21.9478 11.5312 22.4212C11.8352 22.5246 12.1648 22.5246 12.4688 22.4212C13.8938 21.9478 21 19.1606 21 10.7597V5.25C21 4.85218 20.842 4.47064 20.5607 4.18934C20.2794 3.90804 19.8978 3.75 19.5 3.75ZM19.5 10.7616C19.5 12.4153 19.185 13.8206 18.6825 15.0122L12.4303 10.6359C12.3042 10.5476 12.154 10.5002 12 10.5002C11.846 10.5002 11.6958 10.5476 11.5697 10.6359L5.3175 15.0122C4.815 13.8206 4.5 12.4153 4.5 10.7616V5.25H19.5V10.7616Z" fill="black"/>
</svg>
