<svg width="24" height="24" viewBox="0 0 24 24" fill="none" xmlns="http://www.w3.org/2000/svg">
<path d="M20.055 19.7447C20.1213 19.8175 20.1726 19.9028 20.2059 19.9955C20.2393 20.0882 20.2541 20.1866 20.2494 20.285C20.2448 20.3834 20.2208 20.4799 20.1788 20.5691C20.1368 20.6582 20.0777 20.7382 20.0048 20.8045C19.932 20.8708 19.8467 20.9221 19.754 20.9555C19.6613 20.9888 19.563 21.0036 19.4645 20.9989C19.3661 20.9943 19.2696 20.9703 19.1804 20.9283C19.0913 20.8863 19.0113 20.8272 18.945 20.7543L17.5847 19.2543C16.1333 20.6741 14.3864 21.7561 12.4688 22.4231C12.1649 22.5271 11.8351 22.5271 11.5312 22.4231C10.1062 21.9543 3 19.1643 3 10.7625V5.24997C3.00006 4.98197 3.07191 4.71888 3.2081 4.48806C3.34428 4.25724 3.53982 4.06712 3.77437 3.93747C3.73241 3.77527 3.74597 3.60368 3.81289 3.45008C3.87981 3.29648 3.99624 3.1697 4.1436 3.08998C4.29097 3.01026 4.46078 2.98217 4.62597 3.01021C4.79115 3.03824 4.94219 3.12078 5.055 3.24466L20.055 19.7447ZM19.5 3.74997H9.23625C9.09097 3.74999 8.94883 3.79219 8.82708 3.87146C8.70534 3.95074 8.60924 4.06366 8.55046 4.19651C8.49168 4.32937 8.47274 4.47643 8.49596 4.61984C8.51918 4.76325 8.58355 4.89683 8.68125 5.00435L18.7209 16.0472C18.7909 16.1247 18.8764 16.1866 18.9718 16.2289C19.0673 16.2712 19.1706 16.293 19.275 16.2928C19.3146 16.2929 19.3541 16.2898 19.3931 16.2834C19.5153 16.2634 19.6306 16.2134 19.7287 16.138C19.8268 16.0626 19.9048 15.9641 19.9556 15.8512C20.6466 14.3175 20.9963 12.6056 20.9963 10.7615V5.24997C20.9963 4.8528 20.8387 4.47183 20.5582 4.19064C20.2777 3.90944 19.8972 3.75097 19.5 3.74997Z" fill="black"/>
</svg>
