<svg width="24" height="24" viewBox="0 0 24 24" fill="none" xmlns="http://www.w3.org/2000/svg">
<path d="M18.8438 4.5H16.8141L15.5306 3.21938C15.4609 3.14975 15.3782 3.09454 15.2871 3.0569C15.1961 3.01926 15.0985 2.99992 15 3H9C8.90148 2.99992 8.80391 3.01926 8.71286 3.0569C8.62182 3.09454 8.53908 3.14975 8.46937 3.21938L7.18594 4.5H5.15625C4.78329 4.5 4.4256 4.64816 4.16188 4.91188C3.89816 5.1756 3.75 5.53329 3.75 5.90625V20.3438C3.75 20.7167 3.89816 21.0744 4.16188 21.3381C4.4256 21.6018 4.78329 21.75 5.15625 21.75H10.875C10.9745 21.75 11.0698 21.7105 11.1402 21.6402C11.2105 21.5698 11.25 21.4745 11.25 21.375V10.5253C11.2476 10.3318 11.3185 10.1446 11.4483 10.0011C11.5782 9.8577 11.7575 9.76866 11.9503 9.75187C12.0529 9.74506 12.1558 9.75942 12.2526 9.79405C12.3494 9.82868 12.4381 9.88284 12.5131 9.95317C12.5881 10.0235 12.6478 10.1085 12.6885 10.2029C12.7293 10.2973 12.7502 10.3991 12.75 10.5019V21.375C12.75 21.4745 12.7895 21.5698 12.8598 21.6402C12.9302 21.7105 13.0255 21.75 13.125 21.75H18.8438C19.2167 21.75 19.5744 21.6018 19.8381 21.3381C20.1018 21.0744 20.25 20.7167 20.25 20.3438V5.90625C20.25 5.53329 20.1018 5.1756 19.8381 4.91188C19.5744 4.64816 19.2167 4.5 18.8438 4.5ZM8.11312 10.7888C8.05829 10.8338 7.99179 10.8624 7.92136 10.8712C7.85092 10.88 7.77944 10.8686 7.71522 10.8383C7.65101 10.8081 7.5967 10.7602 7.5586 10.7003C7.5205 10.6405 7.50018 10.571 7.5 10.5V6.31031L8.92875 4.88156L11.1291 8.1825L8.11312 10.7888ZM16.5 10.5C16.5002 10.5714 16.48 10.6413 16.4418 10.7016C16.4036 10.7619 16.349 10.81 16.2844 10.8403C16.2209 10.8709 16.15 10.8827 16.08 10.8742C16.0101 10.8657 15.944 10.8374 15.8897 10.7925L12.8709 8.18438L15.0712 4.88344L16.5 6.31031V10.5Z" fill="black"/>
</svg>
