<svg width="24" height="24" viewBox="0 0 24 24" fill="none" xmlns="http://www.w3.org/2000/svg">
<path d="M22.0682 7.88156L19.4292 10.1316L20.2195 13.4812C20.2752 13.716 20.2604 13.962 20.177 14.1885C20.0937 14.4149 19.9454 14.6118 19.7507 14.7544C19.5539 14.8989 19.3188 14.9823 19.0748 14.9939C18.8309 15.0056 18.5889 14.9451 18.3792 14.82L15.3792 13.0387L12.3792 14.82C12.1694 14.9451 11.9274 15.0056 11.6835 14.9939C11.4395 14.9823 11.2045 14.8989 11.0076 14.7544C10.8131 14.6117 10.6648 14.4148 10.5815 14.1884C10.4981 13.962 10.4833 13.716 10.5389 13.4812L11.3292 10.1316L8.68917 7.88156C8.50443 7.72387 8.37047 7.51504 8.30416 7.28138C8.23785 7.04772 8.24215 6.79966 8.31651 6.56843C8.39088 6.3372 8.532 6.13315 8.72209 5.98195C8.91219 5.83076 9.14276 5.73918 9.38479 5.71875L12.8751 5.42343L14.2364 2.25C14.3324 2.02752 14.4915 1.83804 14.694 1.70491C14.8965 1.57179 15.1336 1.50085 15.3759 1.50085C15.6182 1.50085 15.8553 1.57179 16.0577 1.70491C16.2602 1.83804 16.4193 2.02752 16.5154 2.25L17.8767 5.42531L21.366 5.71875C21.6086 5.73778 21.8401 5.82835 22.0312 5.97899C22.2223 6.12963 22.3645 6.33357 22.4397 6.56501C22.5148 6.79645 22.5197 7.04498 22.4535 7.27917C22.3874 7.51335 22.2533 7.72267 22.0682 7.88062V7.88156ZM8.03104 10.7194C7.96139 10.6496 7.87867 10.5943 7.78762 10.5566C7.69657 10.5188 7.59898 10.4994 7.50042 10.4994C7.40186 10.4994 7.30426 10.5188 7.21321 10.5566C7.12216 10.5943 7.03945 10.6496 6.96979 10.7194L1.71979 15.9694C1.57906 16.1101 1.5 16.301 1.5 16.5C1.5 16.699 1.57906 16.8899 1.71979 17.0306C1.86052 17.1714 2.05139 17.2504 2.25042 17.2504C2.44944 17.2504 2.64031 17.1714 2.78104 17.0306L8.03104 11.7806C8.10077 11.711 8.15609 11.6283 8.19384 11.5372C8.23158 11.4462 8.25101 11.3486 8.25101 11.25C8.25101 11.1514 8.23158 11.0538 8.19384 10.9628C8.15609 10.8717 8.10077 10.789 8.03104 10.7194ZM9.53104 15.9694C9.46139 15.8996 9.37867 15.8443 9.28762 15.8066C9.19657 15.7688 9.09898 15.7494 9.00042 15.7494C8.90186 15.7494 8.80426 15.7688 8.71321 15.8066C8.62216 15.8443 8.53945 15.8996 8.46979 15.9694L3.21979 21.2194C3.15011 21.2891 3.09483 21.3718 3.05712 21.4628C3.01941 21.5539 3 21.6514 3 21.75C3 21.8485 3.01941 21.9461 3.05712 22.0372C3.09483 22.1282 3.15011 22.2109 3.21979 22.2806C3.36052 22.4214 3.55139 22.5004 3.75042 22.5004C3.84896 22.5004 3.94654 22.481 4.03759 22.4433C4.12863 22.4056 4.21136 22.3503 4.28104 22.2806L9.53104 17.0306C9.60077 16.961 9.65609 16.8783 9.69384 16.7872C9.73158 16.6962 9.75101 16.5986 9.75101 16.5C9.75101 16.4014 9.73158 16.3038 9.69384 16.2128C9.65609 16.1217 9.60077 16.039 9.53104 15.9694ZM15.2207 15.9694L9.97073 21.2194C9.83 21.3601 9.75094 21.551 9.75094 21.75C9.75094 21.949 9.83 22.1399 9.97073 22.2806C10.1115 22.4214 10.3023 22.5004 10.5014 22.5004C10.7004 22.5004 10.8912 22.4214 11.032 22.2806L16.282 17.0306C16.4227 16.89 16.5018 16.6993 16.5019 16.5003C16.502 16.3014 16.4231 16.1106 16.2824 15.9698C16.1418 15.8291 15.9511 15.75 15.7522 15.7499C15.5532 15.7498 15.3624 15.8288 15.2217 15.9694H15.2207Z" fill="black"/>
</svg>
