<svg width="24" height="24" viewBox="0 0 24 24" fill="none" xmlns="http://www.w3.org/2000/svg">
<path d="M6 22.125C6 22.3475 5.93402 22.565 5.8104 22.75C5.68679 22.935 5.51109 23.0792 5.30552 23.1644C5.09995 23.2495 4.87375 23.2718 4.65552 23.2284C4.4373 23.185 4.23684 23.0778 4.0795 22.9205C3.92217 22.7632 3.81503 22.5627 3.77162 22.3445C3.72821 22.1263 3.75049 21.9001 3.83564 21.6945C3.92078 21.4889 4.06498 21.3132 4.24998 21.1896C4.43499 21.066 4.6525 21 4.875 21C5.17337 21 5.45952 21.1185 5.6705 21.3295C5.88147 21.5405 6 21.8266 6 22.125ZM7.875 18C7.6525 18 7.43499 18.066 7.24998 18.1896C7.06498 18.3132 6.92078 18.4889 6.83564 18.6945C6.75049 18.9001 6.72821 19.1263 6.77162 19.3445C6.81503 19.5627 6.92217 19.7632 7.07951 19.9205C7.23684 20.0778 7.43729 20.185 7.65552 20.2284C7.87375 20.2718 8.09995 20.2495 8.30552 20.1644C8.51109 20.0792 8.68679 19.935 8.8104 19.75C8.93402 19.565 9 19.3475 9 19.125C9 18.8266 8.88147 18.5405 8.6705 18.3295C8.45952 18.1185 8.17337 18 7.875 18ZM1.875 18C1.6525 18 1.43499 18.066 1.24998 18.1896C1.06498 18.3132 0.920785 18.4889 0.835636 18.6945C0.750487 18.9001 0.728209 19.1263 0.771617 19.3445C0.815025 19.5627 0.922171 19.7632 1.07951 19.9205C1.23684 20.0778 1.4373 20.185 1.65552 20.2284C1.87375 20.2718 2.09995 20.2495 2.30552 20.1644C2.51109 20.0792 2.68679 19.935 2.8104 19.75C2.93402 19.565 3 19.3475 3 19.125C3 18.8266 2.88147 18.5405 2.6705 18.3295C2.45952 18.1185 2.17337 18 1.875 18ZM4.875 15C4.6525 15 4.43499 15.066 4.24998 15.1896C4.06498 15.3132 3.92078 15.4889 3.83564 15.6945C3.75049 15.9001 3.72821 16.1263 3.77162 16.3445C3.81503 16.5627 3.92217 16.7632 4.0795 16.9205C4.23684 17.0778 4.4373 17.185 4.65552 17.2284C4.87375 17.2718 5.09995 17.2495 5.30552 17.1644C5.51109 17.0792 5.68679 16.935 5.8104 16.75C5.93402 16.565 6 16.3475 6 16.125C6 15.8266 5.88147 15.5405 5.6705 15.3295C5.45952 15.1185 5.17337 15 4.875 15ZM23.25 3.00001H20.5603C20.3633 2.99938 20.168 3.03792 19.986 3.11341C19.804 3.18889 19.6388 3.2998 19.5 3.43969L16.8881 6.05063L5.00438 8.08032C4.73239 8.12549 4.47812 8.24474 4.26949 8.42499C4.06086 8.60523 3.90594 8.83949 3.82176 9.10203C3.73757 9.36457 3.72737 9.64523 3.79228 9.91319C3.85719 10.1811 3.99469 10.426 4.18969 10.6209L13.3772 19.8084C13.5719 20.0031 13.8165 20.1405 14.0842 20.2054C14.3518 20.2703 14.6321 20.2602 14.8944 20.1764C15.1567 20.0925 15.3909 19.9381 15.5712 19.73C15.7516 19.5219 15.8712 19.2681 15.9169 18.9966L17.9494 7.11188L20.5603 4.50001H23.25C23.4489 4.50001 23.6397 4.42099 23.7803 4.28034C23.921 4.13969 24 3.94892 24 3.75001C24 3.5511 23.921 3.36033 23.7803 3.21968C23.6397 3.07903 23.4489 3.00001 23.25 3.00001Z" fill="black"/>
</svg>
