<svg width="24" height="24" viewBox="0 0 24 24" fill="none" xmlns="http://www.w3.org/2000/svg">
<path d="M22.2806 16.7194C22.3504 16.789 22.4057 16.8717 22.4434 16.9628C22.4812 17.0538 22.5006 17.1514 22.5006 17.25C22.5006 17.3485 22.4812 17.4461 22.4434 17.5372C22.4057 17.6282 22.3504 17.711 22.2806 17.7806L20.0306 20.0306C19.9257 20.1356 19.792 20.2071 19.6465 20.2361C19.5009 20.2651 19.35 20.2503 19.2129 20.1934C19.0758 20.1366 18.9586 20.0404 18.8762 19.917C18.7938 19.7935 18.7499 19.6484 18.75 19.5V18H16.1362C15.8978 17.9997 15.6629 17.9426 15.4509 17.8333C15.239 17.7241 15.0561 17.5659 14.9175 17.3719L7.86375 7.49998H3C2.80109 7.49998 2.61032 7.42096 2.46967 7.28031C2.32902 7.13966 2.25 6.94889 2.25 6.74998C2.25 6.55107 2.32902 6.3603 2.46967 6.21965C2.61032 6.079 2.80109 5.99998 3 5.99998H7.86375C8.1022 6.00027 8.33714 6.05741 8.54909 6.16664C8.76105 6.27588 8.9439 6.43407 9.0825 6.62811L16.1362 16.5H18.75V15C18.7499 14.8516 18.7938 14.7064 18.8762 14.583C18.9586 14.4595 19.0758 14.3633 19.2129 14.3065C19.35 14.2497 19.5009 14.2348 19.6465 14.2638C19.792 14.2928 19.9257 14.3643 20.0306 14.4694L22.2806 16.7194ZM13.4062 10.0312C13.4864 10.0885 13.577 10.1294 13.673 10.1516C13.7689 10.1738 13.8683 10.1769 13.9655 10.1607C14.0626 10.1445 14.1557 10.1094 14.2392 10.0572C14.3228 10.0051 14.3953 9.93701 14.4525 9.85686L16.14 7.50186H18.75V8.99998C18.7499 9.1484 18.7938 9.29352 18.8762 9.41697C18.9586 9.54041 19.0758 9.63663 19.2129 9.69345C19.35 9.75026 19.5009 9.76512 19.6465 9.73613C19.792 9.70714 19.9257 9.63561 20.0306 9.53061L22.2806 7.28061C22.3504 7.21095 22.4057 7.12823 22.4434 7.03719C22.4812 6.94614 22.5006 6.84854 22.5006 6.74998C22.5006 6.65142 22.4812 6.55382 22.4434 6.46278C22.4057 6.37173 22.3504 6.28901 22.2806 6.21936L20.0306 3.96936C19.9257 3.86435 19.792 3.79282 19.6465 3.76383C19.5009 3.73485 19.35 3.7497 19.2129 3.80651C19.0758 3.86333 18.9586 3.95955 18.8762 4.08299C18.7938 4.20644 18.7499 4.35156 18.75 4.49998V5.99998H16.1362C15.8978 6.00027 15.6629 6.05741 15.4509 6.16664C15.239 6.27588 15.0561 6.43407 14.9175 6.62811L13.2328 8.98311C13.1752 9.06326 13.134 9.15399 13.1116 9.2501C13.0891 9.3462 13.0858 9.4458 13.102 9.54317C13.1181 9.64054 13.1532 9.73378 13.2055 9.81753C13.2577 9.90128 13.3259 9.9739 13.4062 10.0312ZM10.5938 13.9687C10.5136 13.9115 10.423 13.8706 10.327 13.8484C10.2311 13.8261 10.1317 13.823 10.0345 13.8392C9.93736 13.8554 9.84434 13.8906 9.76078 13.9427C9.67722 13.9949 9.60475 14.063 9.5475 14.1431L7.86375 16.5H3C2.80109 16.5 2.61032 16.579 2.46967 16.7197C2.32902 16.8603 2.25 17.0511 2.25 17.25C2.25 17.4489 2.32902 17.6397 2.46967 17.7803C2.61032 17.921 2.80109 18 3 18H7.86375C8.1022 17.9997 8.33714 17.9426 8.54909 17.8333C8.76105 17.7241 8.9439 17.5659 9.0825 17.3719L10.7653 15.0169C10.823 14.9368 10.8643 14.8462 10.8869 14.7501C10.9095 14.6541 10.913 14.5546 10.897 14.4572C10.8811 14.3598 10.8461 14.2666 10.794 14.1827C10.742 14.0989 10.6739 14.0262 10.5938 13.9687Z" fill="black"/>
</svg>
