<svg width="24" height="24" viewBox="0 0 24 24" fill="none" xmlns="http://www.w3.org/2000/svg">
<path d="M20.2504 4.50005V8.25005C20.2505 8.39847 20.2066 8.54359 20.1242 8.66704C20.0418 8.79048 19.9246 8.8867 19.7875 8.94352C19.6504 9.00033 19.4995 9.01519 19.3539 8.9862C19.2084 8.95721 19.0747 8.88568 18.9698 8.78068L17.6254 7.43536L14.6517 10.4063C14.5082 10.5292 14.3236 10.5934 14.1349 10.5861C13.9461 10.5788 13.7671 10.5005 13.6335 10.367C13.4999 10.2334 13.4217 10.0543 13.4144 9.86559C13.4071 9.67683 13.4713 9.49228 13.5942 9.3488L16.5651 6.37505L15.2198 5.03068C15.1148 4.92578 15.0433 4.79209 15.0143 4.64653C14.9853 4.50097 15.0001 4.35008 15.057 4.21296C15.1138 4.07584 15.21 3.95866 15.3334 3.87626C15.4569 3.79386 15.602 3.74993 15.7504 3.75005H19.5004C19.6993 3.75005 19.8901 3.82907 20.0307 3.96972C20.1714 4.11037 20.2504 4.30114 20.2504 4.50005ZM19.7873 15.0572C19.6503 15.0004 19.4995 14.9855 19.3539 15.0143C19.2084 15.0432 19.0747 15.1146 18.9698 15.2194L17.6254 16.5647L5.03104 3.96943C4.89031 3.8287 4.69944 3.74963 4.50042 3.74963C4.30139 3.74963 4.11052 3.8287 3.96979 3.96943C3.82906 4.11016 3.75 4.30103 3.75 4.50005C3.75 4.69907 3.82906 4.88995 3.96979 5.03068L16.5651 17.6251L15.2198 18.9694C15.1148 19.0743 15.0433 19.208 15.0143 19.3536C14.9853 19.4991 15.0001 19.65 15.057 19.7871C15.1138 19.9243 15.21 20.0414 15.3334 20.1238C15.4569 20.2062 15.602 20.2502 15.7504 20.2501H19.5004C19.6993 20.2501 19.8901 20.171 20.0307 20.0304C20.1714 19.8897 20.2504 19.699 20.2504 19.5001V15.7501C20.2504 15.6017 20.2064 15.4567 20.1239 15.3334C20.0415 15.2101 19.9243 15.114 19.7873 15.0572ZM9.34917 13.5938L3.96979 18.9694C3.82906 19.1102 3.75 19.301 3.75 19.5001C3.75 19.6991 3.82906 19.8899 3.96979 20.0307C4.11052 20.1714 4.30139 20.2505 4.50042 20.2505C4.69944 20.2505 4.89031 20.1714 5.03104 20.0307L10.4067 14.6513C10.5295 14.5078 10.5937 14.3233 10.5865 14.1345C10.5792 13.9458 10.5009 13.7667 10.3673 13.6331C10.2338 13.4996 10.0547 13.4213 9.86596 13.414C9.6772 13.4067 9.49264 13.4709 9.34917 13.5938Z" fill="black"/>
</svg>
