<svg width="24" height="24" viewBox="0 0 24 24" fill="none" xmlns="http://www.w3.org/2000/svg">
<path d="M21.7507 15.75H5.98757C6.23695 15.2587 6.48726 14.7534 6.73757 14.2397C8.1382 14.3944 9.7957 13.4147 11.6819 11.3128C11.7382 11.4684 11.801 11.6287 11.8694 11.7909C12.4798 13.2206 13.2673 14.0353 14.2132 14.2144C15.1826 14.4019 16.1426 13.9116 17.1269 12.7313C17.7663 13.4878 19.0788 14.25 21.7507 14.25C21.9496 14.25 22.1404 14.171 22.281 14.0303C22.4217 13.8897 22.5007 13.6989 22.5007 13.5C22.5007 13.3011 22.4217 13.1103 22.281 12.9697C22.1404 12.829 21.9496 12.75 21.7507 12.75C18.8791 12.75 18.0429 11.7572 18.0007 11.2294C17.9961 11.0549 17.9309 10.8875 17.8161 10.756C17.7014 10.6245 17.5444 10.5371 17.3722 10.5089C17.1999 10.4807 17.0233 10.5134 16.8726 10.6014C16.7219 10.6895 16.6066 10.8274 16.5466 10.9913C15.4057 12.7022 14.7298 12.7856 14.4841 12.7406C13.7032 12.5934 12.9766 10.7784 12.7319 9.59906C12.6999 9.45011 12.6233 9.31445 12.5123 9.21012C12.4013 9.1058 12.2611 9.03775 12.1104 9.01506C11.9598 8.99236 11.8058 9.01607 11.669 9.08305C11.5321 9.15003 11.4189 9.2571 11.3444 9.39C9.4882 11.6981 8.2432 12.4838 7.46226 12.6844C8.2582 10.9144 8.85257 9.36094 9.2332 8.05313C9.87257 5.85563 9.91945 4.31906 9.37476 3.35625C9.09351 2.85375 8.50382 2.25469 7.3207 2.25H7.29726C5.79726 2.26031 4.61601 3.68437 4.05164 6.15937C3.71507 7.63219 3.65976 9.27094 3.89882 10.6594C4.13789 12.0478 4.6357 13.0509 5.35664 13.6491C5.00789 14.3737 4.6507 15.0816 4.30382 15.7519H2.2507C2.05179 15.7519 1.86102 15.8309 1.72037 15.9715C1.57972 16.1122 1.5007 16.303 1.5007 16.5019C1.5007 16.7008 1.57972 16.8916 1.72037 17.0322C1.86102 17.1729 2.05179 17.2519 2.2507 17.2519H3.50789C2.44664 19.2206 1.62164 20.5931 1.60851 20.6156C1.55504 20.7001 1.51899 20.7944 1.50249 20.893C1.48598 20.9915 1.48934 21.0924 1.51239 21.1897C1.53543 21.287 1.57768 21.3786 1.63666 21.4594C1.69564 21.5401 1.77016 21.6082 1.85583 21.6596C1.94151 21.7111 2.03661 21.745 2.13556 21.7592C2.2345 21.7734 2.33528 21.7677 2.43199 21.7424C2.52869 21.7171 2.61937 21.6727 2.69868 21.6119C2.77799 21.5511 2.84434 21.475 2.89382 21.3881C2.90789 21.3638 3.95039 19.6266 5.20945 17.2519H21.7507C21.9496 17.2519 22.1404 17.1729 22.281 17.0322C22.4217 16.8916 22.5007 16.7008 22.5007 16.5019C22.5007 16.303 22.4217 16.1122 22.281 15.9715C22.1404 15.8309 21.9496 15.7519 21.7507 15.7519V15.75ZM18.0007 11.25V11.2303C18.0013 11.2369 18.0013 11.2435 18.0007 11.25Z" fill="black"/>
</svg>
