<svg width="24" height="24" viewBox="0 0 24 24" fill="none" xmlns="http://www.w3.org/2000/svg">
<path d="M20.0306 7.71938L14.7806 2.46938C14.7109 2.39975 14.6282 2.34454 14.5371 2.3069C14.4461 2.26926 14.3485 2.24992 14.25 2.25H5.25C4.85218 2.25 4.47064 2.40804 4.18934 2.68934C3.90804 2.97064 3.75 3.35218 3.75 3.75V20.25C3.75 20.6478 3.90804 21.0294 4.18934 21.3107C4.47064 21.592 4.85218 21.75 5.25 21.75H18.75C19.1478 21.75 19.5294 21.592 19.8107 21.3107C20.092 21.0294 20.25 20.6478 20.25 20.25V8.25C20.2501 8.15148 20.2307 8.05391 20.1931 7.96286C20.1555 7.87182 20.1003 7.78908 20.0306 7.71938ZM18.75 20.25H5.25V3.75H13.9397L18.75 8.56031V20.25ZM17.25 11.25V18C17.25 18.1989 17.171 18.3897 17.0303 18.5303C16.8897 18.671 16.6989 18.75 16.5 18.75H14.625C14.5255 18.75 14.4302 18.7105 14.3598 18.6402C14.2895 18.5698 14.25 18.4745 14.25 18.375V14.25C14.2502 14.1472 14.2293 14.0454 14.1885 13.951C14.1478 13.8566 14.0881 13.7716 14.0131 13.7013C13.9381 13.631 13.8494 13.5768 13.7526 13.5422C13.6558 13.5075 13.5529 13.4932 13.4503 13.5C13.2575 13.5166 13.078 13.6055 12.9481 13.749C12.8182 13.8925 12.7474 14.0799 12.75 14.2734V18.375C12.75 18.4745 12.7105 18.5698 12.6402 18.6402C12.5698 18.7105 12.4745 18.75 12.375 18.75H11.625C11.5255 18.75 11.4302 18.7105 11.3598 18.6402C11.2895 18.5698 11.25 18.4745 11.25 18.375V14.25C11.2502 14.1472 11.2293 14.0454 11.1885 13.951C11.1478 13.8566 11.0881 13.7716 11.0131 13.7013C10.9381 13.631 10.8494 13.5768 10.7526 13.5422C10.6558 13.5075 10.5529 13.4932 10.4503 13.5C10.2575 13.5166 10.078 13.6055 9.94809 13.749C9.81817 13.8925 9.74739 14.0799 9.75 14.2734V18.375C9.75 18.4745 9.71049 18.5698 9.64017 18.6402C9.56984 18.7105 9.47446 18.75 9.375 18.75H7.5C7.30109 18.75 7.11032 18.671 6.96967 18.5303C6.82902 18.3897 6.75 18.1989 6.75 18V11.25C6.75 11.0511 6.82902 10.8603 6.96967 10.7197C7.11032 10.579 7.30109 10.5 7.5 10.5H16.5C16.6989 10.5 16.8897 10.579 17.0303 10.7197C17.171 10.8603 17.25 11.0511 17.25 11.25Z" fill="black"/>
</svg>
