<svg width="24" height="24" viewBox="0 0 24 24" fill="none" xmlns="http://www.w3.org/2000/svg">
<path d="M23.0647 9.25594L17.8147 3.25594C17.7445 3.17577 17.658 3.11147 17.5611 3.06734C17.4641 3.02321 17.3588 3.00025 17.2522 3H6.75222C6.64566 3.00025 6.54037 3.02321 6.44338 3.06734C6.34639 3.11147 6.25991 3.17577 6.18972 3.25594L0.939717 9.25594C0.817239 9.39577 0.751056 9.57611 0.754 9.76197C0.756945 9.94784 0.828809 10.126 0.955655 10.2619L11.4557 21.5119C11.5258 21.5871 11.6107 21.6471 11.7051 21.6881C11.7994 21.7291 11.9012 21.7503 12.0041 21.7503C12.107 21.7503 12.2088 21.7291 12.3031 21.6881C12.3975 21.6471 12.4824 21.5871 12.5525 21.5119L23.0525 10.2619C23.1789 10.1255 23.25 9.94712 23.2523 9.76125C23.2545 9.57539 23.1877 9.39531 23.0647 9.25594ZM20.8494 9H16.8772L13.5022 4.5H16.9119L20.8494 9ZM6.99409 10.5L9.81878 17.5622L3.22815 10.5H6.99409ZM17.0103 10.5H20.7763L14.1857 17.5622L17.0103 10.5ZM7.09253 4.5H10.5022L7.12722 9H3.15503L7.09253 4.5Z" fill="black"/>
</svg>
