<svg width="24" height="24" viewBox="0 0 24 24" fill="none" xmlns="http://www.w3.org/2000/svg">
<path d="M20.7315 12C21.2843 11.5068 21.6351 10.8264 21.7162 10.0899C21.7973 9.35349 21.603 8.61308 21.1707 8.01134C20.7385 7.40959 20.0988 6.98908 19.375 6.83081C18.6513 6.67253 17.8945 6.7877 17.2505 7.15411V5.25004C17.2498 4.64097 17.0638 4.04653 16.7171 3.54575C16.3704 3.04498 15.8795 2.6616 15.3096 2.44658C14.7398 2.23156 14.1179 2.19509 13.5269 2.34201C12.9358 2.48894 12.4034 2.8123 12.0005 3.26911C11.5073 2.71627 10.8269 2.36553 10.0904 2.28443C9.35398 2.20333 8.61357 2.39761 8.01183 2.82986C7.41008 3.2621 6.98957 3.90173 6.8313 4.62553C6.67302 5.34933 6.78818 6.10609 7.1546 6.75004H5.25053C4.64146 6.75073 4.04702 6.93679 3.54624 7.28349C3.04547 7.63019 2.66209 8.1211 2.44707 8.69096C2.23205 9.26082 2.19557 9.88263 2.3425 10.4737C2.48943 11.0648 2.81279 11.5972 3.2696 12C2.71676 12.4933 2.36601 13.1737 2.28491 13.9101C2.20381 14.6466 2.3981 15.387 2.83035 15.9888C3.26259 16.5905 3.90222 17.011 4.62602 17.1693C5.34981 17.3276 6.10658 17.2124 6.75053 16.846V18.75C6.75122 19.3591 6.93728 19.9536 7.28398 20.4543C7.63068 20.9551 8.12159 21.3385 8.69145 21.5535C9.26131 21.7685 9.88312 21.805 10.4742 21.6581C11.0653 21.5112 11.5977 21.1878 12.0005 20.731C12.4938 21.2838 13.1742 21.6346 13.9106 21.7157C14.6471 21.7968 15.3875 21.6025 15.9892 21.1702C16.591 20.738 17.0115 20.0984 17.1698 19.3746C17.328 18.6508 17.2129 17.894 16.8465 17.25H18.7505C19.3596 17.2494 19.9541 17.0633 20.4548 16.7166C20.9556 16.3699 21.339 15.879 21.554 15.3091C21.769 14.7393 21.8055 14.1175 21.6586 13.5264C21.5116 12.9353 21.1883 12.4029 20.7315 12ZM8.25053 5.25004C8.25053 4.85222 8.40857 4.47069 8.68987 4.18938C8.97118 3.90808 9.35271 3.75004 9.75053 3.75004C10.1484 3.75004 10.5299 3.90808 10.8112 4.18938C11.0925 4.47069 11.2505 4.85222 11.2505 5.25004V6.75004H9.75053C9.35271 6.75004 8.97118 6.59201 8.68987 6.3107C8.40857 6.0294 8.25053 5.64787 8.25053 5.25004ZM3.75053 9.75004C3.75053 9.35222 3.90857 8.97069 4.18987 8.68938C4.47118 8.40808 4.85271 8.25004 5.25053 8.25004H9.75053C10.1484 8.25004 10.5299 8.40808 10.8112 8.68938C11.0925 8.97069 11.2505 9.35222 11.2505 9.75004V11.25H5.25053C4.85271 11.25 4.47118 11.092 4.18987 10.8107C3.90857 10.5294 3.75053 10.1479 3.75053 9.75004ZM15.7505 18.75C15.7505 19.1479 15.5925 19.5294 15.3112 19.8107C15.0299 20.092 14.6484 20.25 14.2505 20.25C13.8527 20.25 13.4712 20.092 13.1899 19.8107C12.9086 19.5294 12.7505 19.1479 12.7505 18.75V17.25H14.2505C14.6484 17.25 15.0299 17.4081 15.3112 17.6894C15.5925 17.9707 15.7505 18.3522 15.7505 18.75ZM18.7505 15.75H14.2505C13.8527 15.75 13.4712 15.592 13.1899 15.3107C12.9086 15.0294 12.7505 14.6479 12.7505 14.25V12.75H18.7505C19.1484 12.75 19.5299 12.9081 19.8112 13.1894C20.0925 13.4707 20.2505 13.8522 20.2505 14.25C20.2505 14.6479 20.0925 15.0294 19.8112 15.3107C19.5299 15.592 19.1484 15.75 18.7505 15.75Z" fill="black"/>
</svg>
