<svg width="24" height="24" viewBox="0 0 24 24" fill="none" xmlns="http://www.w3.org/2000/svg">
<path d="M12 2.25C10.0716 2.25 8.18657 2.82183 6.58319 3.89317C4.97982 4.96451 3.73013 6.48726 2.99218 8.26884C2.25422 10.0504 2.06114 12.0108 2.43735 13.9021C2.81355 15.7934 3.74215 17.5307 5.10571 18.8943C6.46928 20.2579 8.20656 21.1865 10.0979 21.5627C11.9892 21.9389 13.9496 21.7458 15.7312 21.0078C17.5127 20.2699 19.0355 19.0202 20.1068 17.4168C21.1782 15.8134 21.75 13.9284 21.75 12C21.7473 9.41498 20.7192 6.93661 18.8913 5.10872C17.0634 3.28084 14.585 2.25273 12 2.25ZM15.375 9C15.5975 9 15.815 9.06598 16 9.1896C16.185 9.31321 16.3292 9.48891 16.4144 9.69448C16.4995 9.90005 16.5218 10.1262 16.4784 10.3445C16.435 10.5627 16.3278 10.7632 16.1705 10.9205C16.0132 11.0778 15.8127 11.185 15.5945 11.2284C15.3763 11.2718 15.1501 11.2495 14.9445 11.1644C14.7389 11.0792 14.5632 10.935 14.4396 10.75C14.316 10.565 14.25 10.3475 14.25 10.125C14.25 9.82663 14.3685 9.54048 14.5795 9.3295C14.7905 9.11853 15.0766 9 15.375 9ZM8.625 9C8.84751 9 9.06502 9.06598 9.25002 9.1896C9.43503 9.31321 9.57922 9.48891 9.66437 9.69448C9.74952 9.90005 9.7718 10.1262 9.72839 10.3445C9.68498 10.5627 9.57783 10.7632 9.4205 10.9205C9.26317 11.0778 9.06271 11.185 8.84448 11.2284C8.62625 11.2718 8.40005 11.2495 8.19449 11.1644C7.98892 11.0792 7.81322 10.935 7.6896 10.75C7.56598 10.565 7.5 10.3475 7.5 10.125C7.5 9.82663 7.61853 9.54048 7.82951 9.3295C8.04049 9.11853 8.32664 9 8.625 9ZM17.0306 16.2806C16.961 16.3504 16.8783 16.4057 16.7872 16.4434C16.6962 16.4812 16.5986 16.5006 16.5 16.5006C16.4014 16.5006 16.3038 16.4812 16.2128 16.4434C16.1218 16.4057 16.039 16.3504 15.9694 16.2806L15 15.3103L14.0306 16.2806C13.961 16.3504 13.8783 16.4057 13.7872 16.4434C13.6962 16.4812 13.5986 16.5006 13.5 16.5006C13.4014 16.5006 13.3038 16.4812 13.2128 16.4434C13.1218 16.4057 13.039 16.3504 12.9694 16.2806L12 15.3103L11.0306 16.2806C10.961 16.3504 10.8783 16.4057 10.7872 16.4434C10.6962 16.4812 10.5986 16.5006 10.5 16.5006C10.4014 16.5006 10.3038 16.4812 10.2128 16.4434C10.1218 16.4057 10.039 16.3504 9.96938 16.2806L9 15.3103L8.03063 16.2806C7.8899 16.4214 7.69903 16.5004 7.5 16.5004C7.30098 16.5004 7.11011 16.4214 6.96938 16.2806C6.82865 16.1399 6.74959 15.949 6.74959 15.75C6.74959 15.551 6.82865 15.3601 6.96938 15.2194L8.46938 13.7194C8.53903 13.6496 8.62175 13.5943 8.7128 13.5566C8.80385 13.5188 8.90144 13.4994 9 13.4994C9.09857 13.4994 9.19616 13.5188 9.28721 13.5566C9.37826 13.5943 9.46097 13.6496 9.53063 13.7194L10.5 14.6897L11.4694 13.7194C11.539 13.6496 11.6218 13.5943 11.7128 13.5566C11.8038 13.5188 11.9014 13.4994 12 13.4994C12.0986 13.4994 12.1962 13.5188 12.2872 13.5566C12.3783 13.5943 12.461 13.6496 12.5306 13.7194L13.5 14.6897L14.4694 13.7194C14.539 13.6496 14.6218 13.5943 14.7128 13.5566C14.8038 13.5188 14.9014 13.4994 15 13.4994C15.0986 13.4994 15.1962 13.5188 15.2872 13.5566C15.3783 13.5943 15.461 13.6496 15.5306 13.7194L17.0306 15.2194C17.1004 15.289 17.1557 15.3717 17.1934 15.4628C17.2312 15.5538 17.2506 15.6514 17.2506 15.75C17.2506 15.8486 17.2312 15.9462 17.1934 16.0372C17.1557 16.1283 17.1004 16.211 17.0306 16.2806Z" fill="black"/>
</svg>
