<svg width="24" height="24" viewBox="0 0 24 24" fill="none" xmlns="http://www.w3.org/2000/svg">
<g clip-path="url(#clip0_639_8798)">
<path d="M24 18.7884C23.9921 19.1802 23.8304 19.5532 23.5497 19.8267C23.269 20.1002 22.8919 20.2522 22.5 20.2499H13.8103C13.4148 20.2507 13.0352 20.0946 12.7547 19.8159L2.69813 10.0706L2.68969 10.0621C2.4086 9.78085 2.2507 9.39947 2.2507 9.00182C2.2507 8.60416 2.4086 8.22278 2.68969 7.9415L8.68969 1.93026L8.70375 1.91713C8.98619 1.64503 9.36444 1.49513 9.7566 1.49986C10.1488 1.5046 10.5233 1.6636 10.7991 1.94244L11.5688 2.71869C11.8321 2.98237 11.9878 3.33461 12.0056 3.70682C12.1116 5.84713 13.5909 7.29369 15.8672 7.48119C16.2417 7.51333 16.5909 7.68382 16.8465 7.95941C17.1022 8.235 17.246 8.59593 17.25 8.97182V10.1249C17.25 10.2244 17.2105 10.3198 17.1402 10.3901C17.0698 10.4604 16.9745 10.4999 16.875 10.4999H14.25C14.1472 10.4997 14.0454 10.5206 13.951 10.5614C13.8566 10.6022 13.7716 10.6619 13.7013 10.7369C13.631 10.8119 13.5768 10.9005 13.5422 10.9973C13.5075 11.0941 13.4932 11.197 13.5 11.2996C13.5168 11.4924 13.6058 11.6717 13.7493 11.8016C13.8927 11.9315 14.0799 12.0023 14.2734 11.9999H16.8984C16.991 11.9994 17.0805 12.033 17.1497 12.0945C17.219 12.1559 17.263 12.2408 17.2734 12.3328C17.2983 12.5611 17.3499 12.7858 17.4272 13.0021C17.4466 13.0585 17.4522 13.1187 17.4437 13.1777C17.4352 13.2367 17.4127 13.2928 17.3781 13.3414C17.3436 13.3899 17.2979 13.4296 17.245 13.457C17.1921 13.4844 17.1334 13.4988 17.0737 13.499H15C14.8972 13.4988 14.7954 13.5197 14.701 13.5605C14.6066 13.6012 14.5216 13.6609 14.4513 13.7359C14.381 13.8109 14.3268 13.8996 14.2922 13.9964C14.2575 14.0932 14.2432 14.1961 14.25 14.2987C14.2666 14.4916 14.3555 14.671 14.499 14.8009C14.6425 14.9308 14.8299 15.0016 15.0234 14.999H20.25C20.7458 14.999 21.2367 15.0973 21.6942 15.2882C22.1518 15.4791 22.5669 15.7588 22.9157 16.1112C23.2644 16.4636 23.5398 16.8817 23.7259 17.3412C23.9121 17.8007 24.0052 18.2926 24 18.7884ZM6.75 16.4999C6.75 16.301 6.67098 16.1103 6.53033 15.9696C6.38968 15.829 6.19891 15.7499 6 15.7499H3C2.80109 15.7499 2.61032 15.829 2.46967 15.9696C2.32902 16.1103 2.25 16.301 2.25 16.4999C2.25 16.6989 2.32902 16.8896 2.46967 17.0303C2.61032 17.1709 2.80109 17.2499 3 17.2499H6C6.19891 17.2499 6.38968 17.1709 6.53033 17.0303C6.67098 16.8896 6.75 16.6989 6.75 16.4999ZM9 18.7499H4.5C4.30109 18.7499 4.11032 18.829 3.96967 18.9696C3.82902 19.1103 3.75 19.301 3.75 19.4999C3.75 19.6989 3.82902 19.8896 3.96967 20.0303C4.11032 20.1709 4.30109 20.2499 4.5 20.2499H9C9.19891 20.2499 9.38968 20.1709 9.53033 20.0303C9.67098 19.8896 9.75 19.6989 9.75 19.4999C9.75 19.301 9.67098 19.1103 9.53033 18.9696C9.38968 18.829 9.19891 18.7499 9 18.7499Z" fill="black"/>
</g>
<defs>
<clipPath id="clip0_639_8798">
<rect width="24" height="24" fill="white"/>
</clipPath>
</defs>
</svg>
