<svg width="24" height="24" viewBox="0 0 24 24" fill="none" xmlns="http://www.w3.org/2000/svg">
<path d="M12 12C12 12.1989 11.921 12.3897 11.7803 12.5303C11.6397 12.671 11.4489 12.75 11.25 12.75H4.5C4.30109 12.75 4.11032 12.671 3.96967 12.5303C3.82902 12.3897 3.75 12.1989 3.75 12C3.75 11.8011 3.82902 11.6103 3.96967 11.4697C4.11032 11.329 4.30109 11.25 4.5 11.25H11.25C11.4489 11.25 11.6397 11.329 11.7803 11.4697C11.921 11.6103 12 11.8011 12 12ZM4.5 6.75H17.25C17.4489 6.75 17.6397 6.67098 17.7803 6.53033C17.921 6.38968 18 6.19891 18 6C18 5.80109 17.921 5.61032 17.7803 5.46967C17.6397 5.32902 17.4489 5.25 17.25 5.25H4.5C4.30109 5.25 4.11032 5.32902 3.96967 5.46967C3.82902 5.61032 3.75 5.80109 3.75 6C3.75 6.19891 3.82902 6.38968 3.96967 6.53033C4.11032 6.67098 4.30109 6.75 4.5 6.75ZM9.75 17.25H4.5C4.30109 17.25 4.11032 17.329 3.96967 17.4697C3.82902 17.6103 3.75 17.8011 3.75 18C3.75 18.1989 3.82902 18.3897 3.96967 18.5303C4.11032 18.671 4.30109 18.75 4.5 18.75H9.75C9.94891 18.75 10.1397 18.671 10.2803 18.5303C10.421 18.3897 10.5 18.1989 10.5 18C10.5 17.8011 10.421 17.6103 10.2803 17.4697C10.1397 17.329 9.94891 17.25 9.75 17.25ZM21.6928 15.4631C21.6361 15.3261 21.54 15.2089 21.4166 15.1265C21.2933 15.044 21.1483 15 21 15H18V10.5C18 10.3011 17.921 10.1103 17.7803 9.96967C17.6397 9.82902 17.4489 9.75 17.25 9.75C17.0511 9.75 16.8603 9.82902 16.7197 9.96967C16.579 10.1103 16.5 10.3011 16.5 10.5V15H13.5C13.3516 14.9999 13.2065 15.0438 13.083 15.1262C12.9596 15.2086 12.8633 15.3258 12.8065 15.4629C12.7497 15.6 12.7349 15.7509 12.7639 15.8965C12.7928 16.042 12.8644 16.1757 12.9694 16.2806L16.7194 20.0306C16.789 20.1004 16.8717 20.1557 16.9628 20.1934C17.0538 20.2312 17.1514 20.2506 17.25 20.2506C17.3486 20.2506 17.4462 20.2312 17.5372 20.1934C17.6283 20.1557 17.711 20.1004 17.7806 20.0306L21.5306 16.2806C21.6355 16.1757 21.7069 16.042 21.7357 15.8965C21.7646 15.751 21.7497 15.6002 21.6928 15.4631Z" fill="black"/>
</svg>
