<svg width="24" height="24" viewBox="0 0 24 24" fill="none" xmlns="http://www.w3.org/2000/svg">
<path d="M3.75 12C3.75 11.8011 3.82902 11.6103 3.96967 11.4696C4.11032 11.329 4.30109 11.25 4.5 11.25H11.25C11.4489 11.25 11.6397 11.329 11.7803 11.4696C11.921 11.6103 12 11.8011 12 12C12 12.1989 11.921 12.3897 11.7803 12.5303C11.6397 12.671 11.4489 12.75 11.25 12.75H4.5C4.30109 12.75 4.11032 12.671 3.96967 12.5303C3.82902 12.3897 3.75 12.1989 3.75 12ZM4.5 6.74998H9.75C9.94891 6.74998 10.1397 6.67096 10.2803 6.53031C10.421 6.38966 10.5 6.19889 10.5 5.99998C10.5 5.80107 10.421 5.6103 10.2803 5.46965C10.1397 5.329 9.94891 5.24998 9.75 5.24998H4.5C4.30109 5.24998 4.11032 5.329 3.96967 5.46965C3.82902 5.6103 3.75 5.80107 3.75 5.99998C3.75 6.19889 3.82902 6.38966 3.96967 6.53031C4.11032 6.67096 4.30109 6.74998 4.5 6.74998ZM17.25 17.25H4.5C4.30109 17.25 4.11032 17.329 3.96967 17.4696C3.82902 17.6103 3.75 17.8011 3.75 18C3.75 18.1989 3.82902 18.3897 3.96967 18.5303C4.11032 18.671 4.30109 18.75 4.5 18.75H17.25C17.4489 18.75 17.6397 18.671 17.7803 18.5303C17.921 18.3897 18 18.1989 18 18C18 17.8011 17.921 17.6103 17.7803 17.4696C17.6397 17.329 17.4489 17.25 17.25 17.25ZM21.5306 7.71935L17.7806 3.96935C17.711 3.89962 17.6283 3.8443 17.5372 3.80656C17.4462 3.76882 17.3486 3.74939 17.25 3.74939C17.1514 3.74939 17.0538 3.76882 16.9628 3.80656C16.8717 3.8443 16.789 3.89962 16.7194 3.96935L12.9694 7.71935C12.8644 7.82425 12.7928 7.95794 12.7639 8.1035C12.7349 8.24906 12.7497 8.39996 12.8065 8.53707C12.8633 8.67419 12.9596 8.79137 13.083 8.87377C13.2065 8.95617 13.3516 9.0001 13.5 8.99998H16.5V13.5C16.5 13.6989 16.579 13.8897 16.7197 14.0303C16.8603 14.171 17.0511 14.25 17.25 14.25C17.4489 14.25 17.6397 14.171 17.7803 14.0303C17.921 13.8897 18 13.6989 18 13.5V8.99998H21C21.1484 9.0001 21.2935 8.95617 21.417 8.87377C21.5404 8.79137 21.6367 8.67419 21.6935 8.53707C21.7503 8.39996 21.7651 8.24906 21.7361 8.1035C21.7072 7.95794 21.6356 7.82425 21.5306 7.71935Z" fill="black"/>
</svg>
