<svg width="24" height="24" viewBox="0 0 24 24" fill="none" xmlns="http://www.w3.org/2000/svg">
<path d="M14.58 2.32595C14.4538 2.2643 14.3127 2.23935 14.173 2.25393C14.0333 2.26852 13.9005 2.32206 13.7897 2.40845L7.24219 7.50001H3C2.60218 7.50001 2.22064 7.65804 1.93934 7.93935C1.65804 8.22065 1.5 8.60218 1.5 9.00001V15C1.5 15.3978 1.65804 15.7794 1.93934 16.0607C2.22064 16.342 2.60218 16.5 3 16.5H7.24219L13.7897 21.5916C13.921 21.6945 14.0831 21.7503 14.25 21.75C14.4489 21.75 14.6397 21.671 14.7803 21.5303C14.921 21.3897 15 21.1989 15 21V3.00001C15.0001 2.8596 14.9608 2.72199 14.8865 2.60282C14.8123 2.48365 14.7061 2.38772 14.58 2.32595Z" fill="black"/>
<path d="M21.3107 12.0001L23.031 10.2807C23.1718 10.1399 23.2508 9.94907 23.2508 9.75005C23.2508 9.55103 23.1718 9.36016 23.031 9.21943C22.8903 9.0787 22.6994 8.99963 22.5004 8.99963C22.3014 8.99963 22.1105 9.07869 21.9698 9.21943L20.2504 10.9397L18.531 9.21943C18.3903 9.07869 18.1994 8.99963 18.0004 8.99963C17.8014 8.99963 17.6105 9.07869 17.4698 9.21943C17.3291 9.36016 17.25 9.55103 17.25 9.75005C17.25 9.94907 17.3291 10.1399 17.4698 10.2807L19.1901 12.0001L17.4698 13.7194C17.3291 13.8602 17.25 14.051 17.25 14.2501C17.25 14.4491 17.3291 14.6399 17.4698 14.7807C17.6105 14.9214 17.8014 15.0005 18.0004 15.0005C18.1994 15.0005 18.3903 14.9214 18.531 14.7807L20.2504 13.0604L21.9698 14.7807C22.1105 14.9214 22.3014 15.0005 22.5004 15.0005C22.6994 15.0005 22.8903 14.9214 23.031 14.7807C23.1718 14.6399 23.2508 14.4491 23.2508 14.2501C23.2508 14.051 23.1718 13.8602 23.031 13.7194L21.3107 12.0001Z" fill="black"/>
</svg>
