<svg width="24" height="24" viewBox="0 0 24 24" fill="none" xmlns="http://www.w3.org/2000/svg">
<path d="M19.5 12C19.5007 12.9136 19.1672 13.7959 18.5625 14.4807C18.43 14.6263 18.2456 14.7139 18.049 14.7247C17.8524 14.7355 17.6595 14.6686 17.5118 14.5384C17.3642 14.4082 17.2736 14.2252 17.2597 14.0288C17.2458 13.8325 17.3097 13.6385 17.4375 13.4888C17.7992 13.078 17.9988 12.5493 17.9988 12.0019C17.9988 11.4545 17.7992 10.9259 17.4375 10.515C17.3097 10.3653 17.2458 10.1714 17.2597 9.97501C17.2736 9.77863 17.3642 9.5956 17.5118 9.46541C17.6595 9.33521 17.8524 9.2683 18.049 9.27911C18.2456 9.28992 18.43 9.37758 18.5625 9.52317C19.1658 10.2073 19.4991 11.0879 19.5 12ZM15 3.00005V21C14.9999 21.1404 14.9604 21.2779 14.8861 21.3969C14.8117 21.5159 14.7054 21.6117 14.5793 21.6733C14.4533 21.7349 14.3124 21.7599 14.1728 21.7455C14.0332 21.7311 13.9005 21.6777 13.7897 21.5916L7.24219 16.5H3C2.60218 16.5 2.22064 16.342 1.93934 16.0607C1.65804 15.7794 1.5 15.3979 1.5 15V9.00005C1.5 8.60222 1.65804 8.22069 1.93934 7.93939C2.22064 7.65808 2.60218 7.50005 3 7.50005H7.24219L13.7897 2.40849C13.9005 2.32235 14.0332 2.26903 14.1728 2.25459C14.3124 2.24015 14.4533 2.26516 14.5793 2.32679C14.7054 2.38842 14.8117 2.48418 14.8861 2.6032C14.9604 2.72222 14.9999 2.85971 15 3.00005ZM6.75 9.00005H3V15H6.75V9.00005Z" fill="black"/>
</svg>
