<svg width="24" height="24" viewBox="0 0 24 24" fill="none" xmlns="http://www.w3.org/2000/svg">
<path d="M14.5791 2.32591C14.4529 2.26445 14.3121 2.2396 14.1726 2.25419C14.033 2.26877 13.9004 2.3222 13.7897 2.40841L7.24219 7.49997H3C2.60218 7.49997 2.22064 7.65801 1.93934 7.93931C1.65804 8.22061 1.5 8.60215 1.5 8.99997V15C1.5 15.3978 1.65804 15.7793 1.93934 16.0606C2.22064 16.3419 2.60218 16.5 3 16.5H7.24219L13.7897 21.5915C13.9005 21.6777 14.0332 21.731 14.1728 21.7454C14.3124 21.7599 14.4533 21.7349 14.5793 21.6732C14.7054 21.6116 14.8117 21.5158 14.8861 21.3968C14.9604 21.2778 14.9999 21.1403 15 21V2.99997C15 2.85947 14.9606 2.72178 14.8861 2.6026C14.8117 2.48343 14.7053 2.38755 14.5791 2.32591ZM3 8.99997H6.75V15H3V8.99997Z" fill="black"/>
<path d="M21.3107 12.0001L23.031 10.2807C23.1718 10.1399 23.2508 9.94907 23.2508 9.75005C23.2508 9.55103 23.1718 9.36016 23.031 9.21943C22.8903 9.0787 22.6994 8.99963 22.5004 8.99963C22.3014 8.99963 22.1105 9.07869 21.9698 9.21943L20.2504 10.9397L18.531 9.21943C18.3903 9.07869 18.1994 8.99963 18.0004 8.99963C17.8014 8.99963 17.6105 9.07869 17.4698 9.21943C17.3291 9.36016 17.25 9.55103 17.25 9.75005C17.25 9.94907 17.3291 10.1399 17.4698 10.2807L19.1901 12.0001L17.4698 13.7194C17.3291 13.8602 17.25 14.051 17.25 14.2501C17.25 14.4491 17.3291 14.6399 17.4698 14.7807C17.6105 14.9214 17.8014 15.0005 18.0004 15.0005C18.1994 15.0005 18.3903 14.9214 18.531 14.7807L20.2504 13.0604L21.9698 14.7807C22.1105 14.9214 22.3014 15.0005 22.5004 15.0005C22.6994 15.0005 22.8903 14.9214 23.031 14.7807C23.1718 14.6399 23.2508 14.4491 23.2508 14.2501C23.2508 14.051 23.1718 13.8602 23.031 13.7194L21.3107 12.0001Z" fill="black"/>
</svg>
