<svg width="24" height="24" viewBox="0 0 24 24" fill="none" xmlns="http://www.w3.org/2000/svg">
<path d="M5.055 3.24563C4.98914 3.17139 4.90919 3.11096 4.8198 3.06784C4.73041 3.02472 4.63335 2.99977 4.53424 2.99444C4.43514 2.9891 4.33596 3.0035 4.24246 3.03678C4.14896 3.07006 4.06299 3.12156 3.98954 3.18831C3.91609 3.25506 3.85662 3.33572 3.81458 3.42563C3.77253 3.51553 3.74875 3.61288 3.74461 3.71204C3.74046 3.81121 3.75604 3.9102 3.79044 4.0033C3.82484 4.0964 3.87738 4.18174 3.945 4.25438L6.89531 7.50001H3C2.60218 7.50001 2.22064 7.65804 1.93934 7.93935C1.65804 8.22065 1.5 8.60218 1.5 9.00001V15C1.5 15.3978 1.65804 15.7794 1.93934 16.0607C2.22064 16.342 2.60218 16.5 3 16.5H7.24219L13.7897 21.5916C13.9005 21.6777 14.0332 21.731 14.1728 21.7455C14.3124 21.7599 14.4533 21.7349 14.5793 21.6733C14.7054 21.6116 14.8117 21.5159 14.8861 21.3969C14.9604 21.2778 14.9999 21.1403 15 21V16.4147L18.945 20.7544C19.0109 20.8286 19.0908 20.8891 19.1802 20.9322C19.2696 20.9753 19.3667 21.0002 19.4658 21.0056C19.5649 21.0109 19.664 20.9965 19.7575 20.9632C19.851 20.93 19.937 20.8785 20.0105 20.8117C20.0839 20.745 20.1434 20.6643 20.1854 20.5744C20.2275 20.4845 20.2513 20.3871 20.2554 20.288C20.2595 20.1888 20.244 20.0898 20.2096 19.9967C20.1752 19.9036 20.1226 19.8183 20.055 19.7456L5.055 3.24563ZM3 9.00001H6.75V15H3V9.00001ZM17.4375 13.4878C17.7992 13.077 17.9988 12.5483 17.9988 12.0009C17.9988 11.4535 17.7992 10.9249 17.4375 10.5141C17.3686 10.4408 17.3151 10.3545 17.2803 10.2602C17.2454 10.1658 17.2299 10.0655 17.2346 9.965C17.2393 9.86455 17.2642 9.76608 17.3077 9.67543C17.3512 9.58478 17.4126 9.50382 17.488 9.43735C17.5635 9.37088 17.6515 9.32027 17.747 9.28852C17.8424 9.25677 17.9432 9.24453 18.0434 9.25253C18.1437 9.26053 18.2413 9.28861 18.3305 9.3351C18.4196 9.38159 18.4985 9.44553 18.5625 9.52313C19.1657 10.208 19.4986 11.0893 19.4986 12.0019C19.4986 12.9145 19.1657 13.7958 18.5625 14.4806C18.4308 14.6298 18.2453 14.7206 18.0467 14.733C17.8482 14.7454 17.6528 14.6784 17.5036 14.5467C17.3544 14.4151 17.2636 14.2295 17.2512 14.031C17.2388 13.8324 17.3058 13.637 17.4375 13.4878ZM9.95906 6.41063C9.88945 6.33421 9.83639 6.24422 9.8032 6.14632C9.77002 6.04841 9.75744 5.94471 9.76624 5.84171C9.77505 5.73871 9.80505 5.63864 9.85436 5.54779C9.90368 5.45694 9.97124 5.37726 10.0528 5.31376L13.7888 2.40751C13.8996 2.32105 14.0325 2.26749 14.1723 2.25293C14.3122 2.23838 14.4533 2.26341 14.5796 2.32519C14.7058 2.38696 14.8122 2.48298 14.8866 2.6023C14.9609 2.72162 15.0002 2.85943 15 3.00001V10.0153C15 10.1667 14.9542 10.3145 14.8686 10.4394C14.783 10.5642 14.6616 10.6602 14.5204 10.7148C14.3792 10.7694 14.2248 10.7799 14.0775 10.7451C13.9301 10.7103 13.7968 10.6317 13.695 10.5197L9.95906 6.41063ZM23.25 12C23.2511 13.8452 22.5711 15.6259 21.3403 17.0006C21.2067 17.1452 21.0216 17.2314 20.825 17.2408C20.6284 17.2501 20.436 17.1817 20.2893 17.0504C20.1426 16.9191 20.0535 16.7354 20.041 16.539C20.0286 16.3425 20.0939 16.1491 20.2228 16.0003C21.2066 14.9003 21.7505 13.4763 21.7505 12.0005C21.7505 10.5247 21.2066 9.10066 20.2228 8.00063C20.1553 7.92756 20.103 7.84179 20.0689 7.7483C20.0349 7.65482 20.0197 7.55549 20.0245 7.45611C20.0292 7.35673 20.0536 7.25927 20.0963 7.16942C20.1391 7.07958 20.1993 6.99913 20.2734 6.93277C20.3475 6.86641 20.4341 6.81547 20.5281 6.7829C20.6222 6.75034 20.7217 6.7368 20.821 6.74309C20.9203 6.74938 21.0173 6.77536 21.1065 6.81952C21.1957 6.86368 21.2751 6.92514 21.3403 7.00032C22.5714 8.37452 23.2515 10.155 23.25 12Z" fill="black"/>
</svg>
