<svg width="24" height="24" viewBox="0 0 24 24" fill="none" xmlns="http://www.w3.org/2000/svg">
<path d="M15 3.00005V21C14.9999 21.1404 14.9604 21.2779 14.8861 21.3969C14.8117 21.5159 14.7054 21.6117 14.5793 21.6733C14.4533 21.7349 14.3124 21.7599 14.1728 21.7455C14.0332 21.7311 13.9005 21.6777 13.7897 21.5916L7.24219 16.5H3C2.60218 16.5 2.22064 16.342 1.93934 16.0607C1.65804 15.7794 1.5 15.3979 1.5 15V9.00005C1.5 8.60222 1.65804 8.22069 1.93934 7.93939C2.22064 7.65808 2.60218 7.50005 3 7.50005H7.24219L13.7897 2.40849C13.9005 2.32235 14.0332 2.26903 14.1728 2.25459C14.3124 2.24015 14.4533 2.26516 14.5793 2.32679C14.7054 2.38842 14.8117 2.48418 14.8861 2.6032C14.9604 2.72222 14.9999 2.85971 15 3.00005ZM18 9.00005C17.8011 9.00005 17.6103 9.07907 17.4697 9.21972C17.329 9.36037 17.25 9.55114 17.25 9.75005V14.25C17.25 14.449 17.329 14.6397 17.4697 14.7804C17.6103 14.921 17.8011 15 18 15C18.1989 15 18.3897 14.921 18.5303 14.7804C18.671 14.6397 18.75 14.449 18.75 14.25V9.75005C18.75 9.55114 18.671 9.36037 18.5303 9.21972C18.3897 9.07907 18.1989 9.00005 18 9.00005Z" fill="black"/>
</svg>
