<svg width="24" height="24" viewBox="0 0 24 24" fill="none" xmlns="http://www.w3.org/2000/svg">
<path d="M17.25 14.25V9.75005C17.25 9.55114 17.329 9.36037 17.4697 9.21972C17.6103 9.07907 17.8011 9.00005 18 9.00005C18.1989 9.00005 18.3897 9.07907 18.5303 9.21972C18.671 9.36037 18.75 9.55114 18.75 9.75005V14.25C18.75 14.449 18.671 14.6397 18.5303 14.7804C18.3897 14.921 18.1989 15 18 15C17.8011 15 17.6103 14.921 17.4697 14.7804C17.329 14.6397 17.25 14.449 17.25 14.25ZM21 7.50005C20.8011 7.50005 20.6103 7.57907 20.4697 7.71972C20.329 7.86037 20.25 8.05114 20.25 8.25005V15.75C20.25 15.949 20.329 16.1397 20.4697 16.2804C20.6103 16.421 20.8011 16.5 21 16.5C21.1989 16.5 21.3897 16.421 21.5303 16.2804C21.671 16.1397 21.75 15.949 21.75 15.75V8.25005C21.75 8.05114 21.671 7.86037 21.5303 7.71972C21.3897 7.57907 21.1989 7.50005 21 7.50005ZM5.055 3.24567C4.98914 3.17143 4.90919 3.111 4.8198 3.06788C4.73041 3.02476 4.63335 2.99981 4.53424 2.99448C4.43514 2.98914 4.33596 3.00354 4.24246 3.03682C4.14896 3.0701 4.06299 3.1216 3.98954 3.18835C3.91609 3.2551 3.85662 3.33577 3.81458 3.42567C3.77253 3.51557 3.74875 3.61292 3.74461 3.71209C3.74046 3.81125 3.75604 3.91024 3.79044 4.00334C3.82484 4.09644 3.87738 4.18178 3.945 4.25442L6.89531 7.50005H3C2.60218 7.50005 2.22064 7.65808 1.93934 7.93939C1.65804 8.22069 1.5 8.60222 1.5 9.00005V15C1.5 15.3979 1.65804 15.7794 1.93934 16.0607C2.22064 16.342 2.60218 16.5 3 16.5H7.24219L13.7897 21.5916C13.9005 21.6777 14.0332 21.7311 14.1728 21.7455C14.3124 21.7599 14.4533 21.7349 14.5793 21.6733C14.7054 21.6117 14.8117 21.5159 14.8861 21.3969C14.9604 21.2779 14.9999 21.1404 15 21V16.4147L18.945 20.7544C19.0109 20.8287 19.0908 20.8891 19.1802 20.9322C19.2696 20.9753 19.3667 21.0003 19.4658 21.0056C19.5649 21.011 19.664 20.9966 19.7575 20.9633C19.851 20.93 19.937 20.8785 20.0105 20.8117C20.0839 20.745 20.1434 20.6643 20.1854 20.5744C20.2275 20.4845 20.2513 20.3872 20.2554 20.288C20.2595 20.1888 20.244 20.0899 20.2096 19.9968C20.1752 19.9037 20.1226 19.8183 20.055 19.7457L5.055 3.24567ZM13.695 10.5197C13.7968 10.6318 13.9301 10.7103 14.0775 10.7452C14.2248 10.78 14.3792 10.7694 14.5204 10.7148C14.6616 10.6603 14.783 10.5643 14.8686 10.4394C14.9542 10.3146 15 10.1667 15 10.0154V3.00005C14.9999 2.85971 14.9604 2.72222 14.8861 2.6032C14.8117 2.48418 14.7054 2.38842 14.5793 2.32679C14.4533 2.26516 14.3124 2.24015 14.1728 2.25459C14.0332 2.26903 13.9005 2.32235 13.7897 2.40849L10.0538 5.31474C9.97218 5.37824 9.90461 5.45791 9.8553 5.54877C9.80598 5.63962 9.77598 5.73969 9.76718 5.84269C9.75838 5.94568 9.77096 6.04939 9.80414 6.1473C9.83732 6.2452 9.89039 6.33519 9.96 6.41161L13.695 10.5197Z" fill="black"/>
</svg>
