<svg width="24" height="24" viewBox="0 0 24 24" fill="none" xmlns="http://www.w3.org/2000/svg">
<path d="M21.7482 12.375C21.7499 14.8138 20.8343 17.1641 19.1832 18.9591C18.8776 19.2919 18.347 18.9037 18.5804 18.5175C19.428 17.1174 19.8751 15.5116 19.8732 13.875C19.8707 11.8866 19.0798 9.98042 17.6738 8.57444C16.2678 7.16845 14.3616 6.37748 12.3732 6.375C10.7825 6.37673 9.25734 7.00943 8.1325 8.13427C7.00766 9.25912 6.37496 10.7842 6.37322 12.375C6.37446 13.5681 6.84896 14.712 7.69261 15.5556C8.53625 16.3993 9.68013 16.8738 10.8732 16.875C11.6689 16.875 12.4319 16.5589 12.9945 15.9963C13.5571 15.4337 13.8732 14.6706 13.8732 13.875C13.8746 13.8494 13.8746 13.8237 13.8732 13.7981C13.8543 13.4244 13.6965 13.0712 13.4306 12.8079C13.1647 12.5446 12.8099 12.3902 12.436 12.375C12.2372 12.3634 12.0416 12.4291 11.8901 12.5584C11.7386 12.6877 11.643 12.8706 11.6232 13.0687C11.6155 13.1719 11.6291 13.2755 11.6633 13.3731C11.6975 13.4707 11.7515 13.5601 11.822 13.6358C11.8924 13.7115 11.9777 13.7719 12.0726 13.813C12.1675 13.8542 12.2698 13.8753 12.3732 13.875C12.3732 14.2728 12.2152 14.6544 11.9339 14.9357C11.6526 15.217 11.271 15.375 10.8732 15.375C10.0776 15.375 9.31451 15.0589 8.7519 14.4963C8.18929 13.9337 7.87322 13.1706 7.87322 12.375C7.87446 11.1819 8.34896 10.038 9.19261 9.19439C10.0363 8.35074 11.1801 7.87624 12.3732 7.875C13.964 7.87673 15.4891 8.50943 16.6139 9.63427C17.7388 10.7591 18.3715 12.2842 18.3732 13.875C18.3707 15.8634 17.5798 17.7696 16.1738 19.1756C14.7678 20.5815 12.8616 21.3725 10.8732 21.375C3.92072 21.375 2.17603 14.9484 2.24822 12.1116C2.38884 6.91218 6.64884 2.70375 11.8492 2.625C13.1416 2.60675 14.4248 2.84538 15.6244 3.32705C16.8239 3.80871 17.9157 4.52382 18.8367 5.43087C19.7576 6.33791 20.4892 7.41883 20.989 8.61089C21.4888 9.80294 21.7469 11.0824 21.7482 12.375Z" fill="black"/>
</svg>
