<svg width="24" height="24" viewBox="0 0 24 24" fill="none" xmlns="http://www.w3.org/2000/svg">
<path d="M20.25 14.25C20.25 14.4489 20.171 14.6397 20.0303 14.7803C19.8897 14.921 19.6989 15 19.5 15H12.75V18H15C15.1484 17.9999 15.2935 18.0438 15.417 18.1262C15.5404 18.2086 15.6367 18.3258 15.6935 18.4629C15.7503 18.6 15.7651 18.7509 15.7361 18.8965C15.7072 19.042 15.6356 19.1757 15.5306 19.2806L12.5306 22.2806C12.461 22.3503 12.3783 22.4057 12.2872 22.4434C12.1962 22.4811 12.0986 22.5006 12 22.5006C11.9014 22.5006 11.8038 22.4811 11.7128 22.4434C11.6217 22.4057 11.539 22.3503 11.4694 22.2806L8.46937 19.2806C8.36437 19.1757 8.29284 19.042 8.26385 18.8965C8.23487 18.7509 8.24972 18.6 8.30653 18.4629C8.36335 18.3258 8.45957 18.2086 8.58301 18.1262C8.70646 18.0438 8.85158 17.9999 9 18H11.25V15H4.5C4.30109 15 4.11032 14.921 3.96967 14.7803C3.82902 14.6397 3.75 14.4489 3.75 14.25C3.75 14.0511 3.82902 13.8603 3.96967 13.7196C4.11032 13.579 4.30109 13.5 4.5 13.5H19.5C19.6989 13.5 19.8897 13.579 20.0303 13.7196C20.171 13.8603 20.25 14.0511 20.25 14.25ZM4.5 10.5H19.5C19.6989 10.5 19.8897 10.421 20.0303 10.2803C20.171 10.1397 20.25 9.94889 20.25 9.74998C20.25 9.55107 20.171 9.3603 20.0303 9.21965C19.8897 9.079 19.6989 8.99998 19.5 8.99998H12.75V5.99998H15C15.1484 6.0001 15.2935 5.95617 15.417 5.87377C15.5404 5.79137 15.6367 5.67419 15.6935 5.53707C15.7503 5.39996 15.7651 5.24906 15.7361 5.1035C15.7072 4.95794 15.6356 4.82425 15.5306 4.71935L12.5306 1.71935C12.461 1.64962 12.3783 1.5943 12.2872 1.55656C12.1962 1.51882 12.0986 1.49939 12 1.49939C11.9014 1.49939 11.8038 1.51882 11.7128 1.55656C11.6217 1.5943 11.539 1.64962 11.4694 1.71935L8.46937 4.71935C8.36437 4.82425 8.29284 4.95794 8.26385 5.1035C8.23487 5.24906 8.24972 5.39996 8.30653 5.53707C8.36335 5.67419 8.45957 5.79137 8.58301 5.87377C8.70646 5.95617 8.85158 6.0001 9 5.99998H11.25V8.99998H4.5C4.30109 8.99998 4.11032 9.079 3.96967 9.21965C3.82902 9.3603 3.75 9.55107 3.75 9.74998C3.75 9.94889 3.82902 10.1397 3.96967 10.2803C4.11032 10.421 4.30109 10.5 4.5 10.5Z" fill="black"/>
</svg>
