<svg width="24" height="24" viewBox="0 0 24 24" fill="none" xmlns="http://www.w3.org/2000/svg">
<path d="M1.12466 10.4063L11.6247 16.4063C11.738 16.471 11.8663 16.5051 11.9968 16.5051C12.1274 16.5051 12.2557 16.471 12.369 16.4063L22.869 10.4063C22.984 10.3407 23.0796 10.2459 23.1461 10.1315C23.2126 10.017 23.2476 9.88705 23.2476 9.7547C23.2476 9.62235 23.2126 9.49236 23.1461 9.37792C23.0796 9.26349 22.984 9.16868 22.869 9.10314L12.369 3.10314C12.2557 3.03835 12.1274 3.00427 11.9968 3.00427C11.8663 3.00427 11.738 3.03835 11.6247 3.10314L1.12466 9.10314C1.00968 9.16868 0.914092 9.26349 0.847604 9.37792C0.781116 9.49236 0.746094 9.62235 0.746094 9.7547C0.746094 9.88705 0.781116 10.017 0.847604 10.1315C0.914092 10.2459 1.00968 10.3407 1.12466 10.4063Z" fill="black"/>
<path d="M22.1249 12.8484L11.9999 18.6366L1.8749 12.8484C1.78902 12.7992 1.69429 12.7673 1.59611 12.7547C1.49793 12.7421 1.39822 12.7489 1.30268 12.7748C1.20714 12.8007 1.11763 12.8452 1.03927 12.9056C0.960913 12.9661 0.895236 13.0415 0.84599 13.1273C0.796744 13.2132 0.764895 13.3079 0.75226 13.4061C0.739624 13.5043 0.746451 13.604 0.77235 13.6996C0.798249 13.7951 0.842712 13.8846 0.903203 13.963C0.963693 14.0413 1.03902 14.107 1.1249 14.1562L11.6249 20.1562C11.7382 20.221 11.8665 20.2551 11.9971 20.2551C12.1276 20.2551 12.2559 20.221 12.3693 20.1562L22.8693 14.1562C22.9548 14.1074 23.0299 14.0421 23.0903 13.9642C23.1506 13.8863 23.195 13.7973 23.221 13.7022C23.2469 13.6072 23.2539 13.5079 23.2415 13.4102C23.2291 13.3124 23.1975 13.2181 23.1486 13.1325C23.0998 13.0469 23.0345 12.9718 22.9566 12.9115C22.8787 12.8511 22.7897 12.8067 22.6946 12.7808C22.5996 12.7548 22.5003 12.7479 22.4026 12.7603C22.3048 12.7727 22.2105 12.8042 22.1249 12.8531V12.8484Z" fill="black"/>
</svg>
