<svg width="24" height="24" viewBox="0 0 24 24" fill="none" xmlns="http://www.w3.org/2000/svg">
<path d="M20.6253 15.8523L12.0003 20.8819L3.3753 15.8523C3.20452 15.7672 3.00777 15.7505 2.82508 15.8054C2.64239 15.8603 2.4875 15.9828 2.39193 16.1479C2.29635 16.313 2.26729 16.5083 2.31064 16.6941C2.354 16.8799 2.46652 17.0421 2.6253 17.1479L11.6253 22.3979C11.74 22.4648 11.8704 22.5 12.0031 22.5C12.1359 22.5 12.2662 22.4648 12.3809 22.3979L21.3809 17.1479C21.4674 17.099 21.5432 17.0334 21.6041 16.9549C21.665 16.8765 21.7097 16.7867 21.7356 16.6908C21.7615 16.5949 21.7681 16.4949 21.7551 16.3964C21.742 16.2979 21.7095 16.2031 21.6595 16.1173C21.6094 16.0315 21.5429 15.9565 21.4636 15.8966C21.3843 15.8368 21.294 15.7932 21.1978 15.7686C21.1016 15.7439 21.0014 15.7386 20.9031 15.753C20.8049 15.7674 20.7104 15.8011 20.6253 15.8523Z" fill="black"/>
<path d="M20.6253 11.3523L12.0003 16.3819L3.3753 11.3523C3.20452 11.2672 3.00777 11.2505 2.82508 11.3054C2.64239 11.3603 2.4875 11.4828 2.39193 11.6479C2.29635 11.813 2.26729 12.0083 2.31064 12.1941C2.354 12.3799 2.46652 12.5421 2.6253 12.6479L11.6253 17.8979C11.74 17.9648 11.8704 18 12.0031 18C12.1359 18 12.2662 17.9648 12.3809 17.8979L21.3809 12.6479C21.4674 12.599 21.5432 12.5334 21.6041 12.4549C21.665 12.3765 21.7097 12.2867 21.7356 12.1908C21.7615 12.0949 21.7681 11.9949 21.7551 11.8964C21.742 11.7979 21.7095 11.7031 21.6595 11.6173C21.6094 11.5315 21.5429 11.4565 21.4636 11.3966C21.3843 11.3368 21.294 11.2932 21.1978 11.2686C21.1016 11.2439 21.0014 11.2386 20.9031 11.253C20.8049 11.2674 20.7104 11.3011 20.6253 11.3523Z" fill="black"/>
<path d="M2.62597 8.14786L11.626 13.3979C11.7406 13.4647 11.871 13.5 12.0038 13.5C12.1365 13.5 12.2669 13.4647 12.3816 13.3979L21.3816 8.14786C21.4948 8.08181 21.5887 7.98724 21.654 7.87357C21.7193 7.75991 21.7537 7.63112 21.7537 7.50005C21.7537 7.36897 21.7193 7.24018 21.654 7.12652C21.5887 7.01286 21.4948 6.91829 21.3816 6.85223L12.3816 1.60224C12.2669 1.53536 12.1365 1.50012 12.0038 1.50012C11.871 1.50012 11.7406 1.53536 11.626 1.60224L2.62597 6.85223C2.51275 6.91829 2.41882 7.01286 2.35354 7.12652C2.28826 7.24018 2.25391 7.36897 2.25391 7.50005C2.25391 7.63112 2.28826 7.75991 2.35354 7.87357C2.41882 7.98724 2.51275 8.08181 2.62597 8.14786Z" fill="black"/>
</svg>
