<svg width="24" height="24" viewBox="0 0 24 24" fill="none" xmlns="http://www.w3.org/2000/svg">
<path d="M21.9813 10.7232L17.7531 14.4132L19.0197 19.9069C19.0867 20.1941 19.0676 20.4947 18.9647 20.7711C18.8618 21.0475 18.6798 21.2874 18.4413 21.4609C18.2028 21.6344 17.9184 21.7337 17.6238 21.7464C17.3292 21.7592 17.0373 21.6848 16.7847 21.5326L11.9931 18.6263L7.2119 21.5326C6.95931 21.6848 6.66745 21.7592 6.37281 21.7464C6.07817 21.7337 5.79383 21.6344 5.55533 21.4609C5.31683 21.2874 5.13476 21.0475 5.03188 20.7711C4.929 20.4947 4.90987 20.1941 4.9769 19.9069L6.24158 14.4188L2.01252 10.7232C1.78884 10.5303 1.6271 10.2756 1.54757 9.99113C1.46805 9.70666 1.47428 9.40504 1.56549 9.1241C1.65671 8.84315 1.82883 8.59539 2.06029 8.41188C2.29175 8.22838 2.57224 8.11729 2.86658 8.09256L8.44096 7.60974L10.6169 2.41974C10.7305 2.14742 10.9222 1.9148 11.1678 1.75117C11.4133 1.58755 11.7018 1.50024 11.9969 1.50024C12.292 1.50024 12.5805 1.58755 12.826 1.75117C13.0716 1.9148 13.2633 2.14742 13.3769 2.41974L15.5594 7.60974L21.1319 8.09256C21.4262 8.11729 21.7067 8.22838 21.9382 8.41188C22.1696 8.59539 22.3418 8.84315 22.433 9.1241C22.5242 9.40504 22.5304 9.70666 22.4509 9.99113C22.3714 10.2756 22.2096 10.5303 21.986 10.7232H21.9813Z" fill="black"/>
</svg>
