<svg width="24" height="24" viewBox="0 0 24 24" fill="none" xmlns="http://www.w3.org/2000/svg">
<path d="M22.4229 9.121C22.3321 8.84104 22.1609 8.594 21.9307 8.41063C21.7004 8.22726 21.4214 8.11566 21.1282 8.08975L15.5604 7.60974L13.3779 2.41974C13.2643 2.14742 13.0726 1.9148 12.827 1.75117C12.5815 1.58755 12.293 1.50024 11.9979 1.50024C11.7028 1.50024 11.4143 1.58755 11.1687 1.75117C10.9232 1.9148 10.7315 2.14742 10.6179 2.41974L8.44195 7.60974L2.86758 8.09162C2.57302 8.11617 2.29229 8.22721 2.06062 8.41077C1.82896 8.59434 1.65669 8.84225 1.56545 9.12339C1.4742 9.40453 1.46805 9.70636 1.54777 9.99098C1.62749 10.2756 1.78952 10.5303 2.01351 10.7232L6.24257 14.4188L4.97507 19.9069C4.90805 20.1941 4.92718 20.4947 5.03006 20.7711C5.13294 21.0475 5.31501 21.2874 5.55351 21.4609C5.79201 21.6344 6.07635 21.7337 6.37099 21.7464C6.66563 21.7592 6.95748 21.6848 7.21007 21.5326L11.9913 18.6263L16.7829 21.5326C17.0355 21.6848 17.3273 21.7592 17.622 21.7464C17.9166 21.7337 18.201 21.6344 18.4395 21.4609C18.678 21.2874 18.86 21.0475 18.9629 20.7711C19.0658 20.4947 19.0849 20.1941 19.0179 19.9069L17.7513 14.4132L21.9795 10.7232C22.2031 10.5296 22.3645 10.2742 22.4434 9.98914C22.5223 9.70406 22.5152 9.40202 22.4229 9.121ZM20.996 9.58974L16.7679 13.2797C16.5621 13.4587 16.409 13.6905 16.3251 13.95C16.2412 14.2095 16.2296 14.487 16.2916 14.7526L17.562 20.2501L12.7741 17.3438C12.5405 17.2016 12.2723 17.1263 11.9988 17.1263V3.00849L14.1738 8.191C14.2795 8.44286 14.4519 8.6611 14.6724 8.82219C14.893 8.98327 15.1533 9.08108 15.4254 9.10506L20.9979 9.58693C20.9979 9.58693 20.9979 9.59256 20.9979 9.59349L20.996 9.58974Z" fill="black"/>
</svg>
