<svg width="24" height="24" viewBox="0 0 24 24" fill="none" xmlns="http://www.w3.org/2000/svg">
<path d="M18.8616 12L21.6544 7.12502C21.7205 7.01051 21.7552 6.88056 21.7549 6.74833C21.7546 6.6161 21.7194 6.4863 21.6527 6.37209C21.5861 6.25787 21.4905 6.1633 21.3755 6.09796C21.2606 6.03262 21.1304 5.99883 20.9982 6.00002H15.4341L12.6544 1.12502C12.5889 1.01004 12.4941 0.914458 12.3796 0.84797C12.2652 0.781482 12.1352 0.74646 12.0028 0.74646C11.8705 0.74646 11.7405 0.781482 11.6261 0.84797C11.5116 0.914458 11.4168 1.01004 11.3513 1.12502L8.56034 6.00002H2.99815C2.86633 5.99966 2.73674 6.03406 2.62244 6.09974C2.50814 6.16541 2.41317 6.26006 2.3471 6.37414C2.28103 6.48821 2.2462 6.61768 2.24611 6.74951C2.24602 6.88134 2.28068 7.01086 2.34659 7.12502L5.13284 12L2.34659 16.875C2.28047 16.9895 2.2458 17.1195 2.2461 17.2517C2.24639 17.3839 2.28163 17.5137 2.34826 17.628C2.41489 17.7422 2.51052 17.8367 2.62548 17.9021C2.74043 17.9674 2.87062 18.0012 3.00284 18H8.56034L11.3466 22.875C11.4121 22.99 11.5069 23.0856 11.6214 23.1521C11.7358 23.2186 11.8658 23.2536 11.9982 23.2536C12.1305 23.2536 12.2605 23.2186 12.3749 23.1521C12.4894 23.0856 12.5842 22.99 12.6497 22.875L15.4341 18H20.9982C21.1304 18.0012 21.2606 17.9674 21.3755 17.9021C21.4905 17.8367 21.5861 17.7422 21.6527 17.628C21.7194 17.5137 21.7546 17.3839 21.7549 17.2517C21.7552 17.1195 21.7205 16.9895 21.6544 16.875L18.8616 12ZM17.1347 12L14.5641 16.5H9.43128L6.86065 12L9.43128 7.50002H14.5641L17.1347 12Z" fill="black"/>
</svg>
