<svg width="24" height="24" viewBox="0 0 24 24" fill="none" xmlns="http://www.w3.org/2000/svg">
<path d="M21.75 14.25C21.75 13.6886 21.5925 13.1385 21.2954 12.6621C20.9983 12.1858 20.5735 11.8024 20.0693 11.5555C19.5651 11.3086 19.0018 11.2082 18.4433 11.2655C17.8849 11.3229 17.3537 11.5359 16.9103 11.8801C16.4668 12.2244 16.1289 12.6862 15.9349 13.213C15.7408 13.7398 15.6985 14.3105 15.8127 14.8601C15.9269 15.4098 16.1931 15.9164 16.5809 16.3223C16.9687 16.7282 17.4627 17.0171 18.0066 17.1562C18.0024 17.1873 18.0002 17.2186 18 17.25C18 18.0456 17.6839 18.8087 17.1213 19.3713C16.5587 19.9339 15.7956 20.25 15 20.25H12.75C11.9544 20.25 11.1913 19.9339 10.6287 19.3713C10.0661 18.8087 9.75 18.0456 9.75 17.25V13.4513C12.7003 13.0763 15 10.5009 15 7.42219V3.75C15 3.35218 14.842 2.97064 14.5607 2.68934C14.2794 2.40804 13.8978 2.25 13.5 2.25H12C11.8011 2.25 11.6103 2.32902 11.4697 2.46967C11.329 2.61032 11.25 2.80109 11.25 3C11.25 3.19891 11.329 3.38968 11.4697 3.53033C11.6103 3.67098 11.8011 3.75 12 3.75H13.5V7.42219C13.5 9.91406 11.5078 11.9681 9.06 12C8.46402 12.0079 7.8724 11.8974 7.31949 11.6748C6.76658 11.4522 6.2634 11.122 5.83916 10.7034C5.41492 10.2847 5.07808 9.78596 4.84819 9.23605C4.6183 8.68614 4.49995 8.09603 4.5 7.5V3.75H6C6.19891 3.75 6.38968 3.67098 6.53033 3.53033C6.67098 3.38968 6.75 3.19891 6.75 3C6.75 2.80109 6.67098 2.61032 6.53033 2.46967C6.38968 2.32902 6.19891 2.25 6 2.25H4.5C4.10218 2.25 3.72064 2.40804 3.43934 2.68934C3.15804 2.97064 3 3.35218 3 3.75V7.5C3.00018 8.96128 3.53364 10.3723 4.50025 11.4682C5.46686 12.5641 6.80018 13.2695 8.25 13.4522V17.25C8.25124 18.4431 8.72575 19.587 9.56939 20.4306C10.413 21.2743 11.5569 21.7488 12.75 21.75H15C16.1931 21.7488 17.337 21.2743 18.1806 20.4306C19.0243 19.587 19.4988 18.4431 19.5 17.25C19.4998 17.2186 19.4976 17.1873 19.4934 17.1562C20.1389 16.9912 20.711 16.6159 21.1196 16.0897C21.5282 15.5635 21.75 14.9162 21.75 14.25ZM18.75 15C18.6017 15 18.4567 14.956 18.3333 14.8736C18.21 14.7912 18.1139 14.6741 18.0571 14.537C18.0003 14.4 17.9855 14.2492 18.0144 14.1037C18.0434 13.9582 18.1148 13.8246 18.2197 13.7197C18.3246 13.6148 18.4582 13.5434 18.6037 13.5144C18.7492 13.4855 18.9 13.5003 19.037 13.5571C19.1741 13.6139 19.2912 13.71 19.3736 13.8333C19.456 13.9567 19.5 14.1017 19.5 14.25C19.5 14.4489 19.421 14.6397 19.2803 14.7803C19.1397 14.921 18.9489 15 18.75 15Z" fill="black"/>
</svg>
