<svg width="24" height="24" viewBox="0 0 24 24" fill="none" xmlns="http://www.w3.org/2000/svg">
<path d="M9.75059 17.625C9.75059 18.2925 9.55265 18.945 9.1818 19.5C8.81095 20.0551 8.28385 20.4876 7.66715 20.7431C7.05045 20.9985 6.37185 21.0654 5.71716 20.9352C5.06247 20.8049 4.46111 20.4835 3.9891 20.0115C3.5171 19.5395 3.19566 18.9381 3.06544 18.2834C2.93521 17.6287 3.00205 16.9501 3.2575 16.3334C3.51294 15.7167 3.94552 15.1896 4.50054 14.8188C5.05556 14.4479 5.70808 14.25 6.37559 14.25C7.2707 14.25 8.12914 14.6056 8.76207 15.2385C9.39501 15.8715 9.75059 16.7299 9.75059 17.625ZM3.21996 11.0306C3.28962 11.1004 3.37234 11.1557 3.46338 11.1934C3.55443 11.2312 3.65203 11.2506 3.75059 11.2506C3.84915 11.2506 3.94675 11.2312 4.0378 11.1934C4.12884 11.1557 4.21156 11.1004 4.28121 11.0306L5.62559 9.68531L6.96996 11.0306C7.11069 11.1714 7.30157 11.2504 7.50059 11.2504C7.69961 11.2504 7.89048 11.1714 8.03122 11.0306C8.17195 10.8899 8.25101 10.699 8.25101 10.5C8.25101 10.301 8.17195 10.1101 8.03122 9.96937L6.6859 8.625L8.03122 7.28063C8.17195 7.13989 8.25101 6.94902 8.25101 6.75C8.25101 6.55098 8.17194 6.36011 8.03121 6.21938C7.89048 6.07864 7.69961 5.99958 7.50059 5.99958C7.30157 5.99958 7.11069 6.07864 6.96996 6.21937L5.62559 7.56469L4.28121 6.21937C4.14048 6.07864 3.94961 5.99958 3.75059 5.99958C3.55157 5.99958 3.3607 6.07864 3.21996 6.21938C3.07923 6.36011 3.00017 6.55098 3.00017 6.75C3.00017 6.94902 3.07923 7.13989 3.21996 7.28063L4.56528 8.625L3.21996 9.96937C3.15023 10.039 3.09491 10.1217 3.05717 10.2128C3.01943 10.3038 3 10.4014 3 10.5C3 10.5986 3.01943 10.6962 3.05717 10.7872C3.09491 10.8783 3.15023 10.961 3.21996 11.0306ZM19.4387 17.625L20.784 16.2806C20.9248 16.1399 21.0038 15.949 21.0038 15.75C21.0038 15.551 20.9248 15.3601 20.784 15.2194C20.6433 15.0786 20.4524 14.9996 20.2534 14.9996C20.0544 14.9996 19.8635 15.0786 19.7228 15.2194L18.3756 16.5647L17.0312 15.2194C16.8905 15.0786 16.6996 14.9996 16.5006 14.9996C16.3016 14.9996 16.1107 15.0786 15.97 15.2194C15.8292 15.3601 15.7502 15.551 15.7502 15.75C15.7502 15.949 15.8292 16.1399 15.97 16.2806L17.3153 17.625L15.97 18.9694C15.8292 19.1101 15.7502 19.301 15.7502 19.5C15.7502 19.699 15.8292 19.8899 15.97 20.0306C16.1107 20.1714 16.3016 20.2504 16.5006 20.2504C16.6996 20.2504 16.8905 20.1714 17.0312 20.0306L18.3756 18.6853L19.72 20.0306C19.7896 20.1003 19.8724 20.1556 19.9634 20.1933C20.0545 20.231 20.152 20.2504 20.2506 20.2504C20.3491 20.2504 20.4467 20.231 20.5378 20.1933C20.6288 20.1556 20.7115 20.1003 20.7812 20.0306C20.8509 19.9609 20.9062 19.8782 20.9439 19.7872C20.9816 19.6961 21.001 19.5985 21.001 19.5C21.001 19.4015 20.9816 19.3039 20.9439 19.2128C20.9062 19.1218 20.8509 19.0391 20.7812 18.9694L19.4387 17.625ZM14.7812 4.71938L14.5609 4.5H16.5006C16.6995 4.5 16.8903 4.42098 17.0309 4.28033C17.1716 4.13968 17.2506 3.94891 17.2506 3.75C17.2506 3.55109 17.1716 3.36032 17.0309 3.21967C16.8903 3.07902 16.6995 3 16.5006 3H12.7506C12.5517 3 12.3609 3.07902 12.2203 3.21967C12.0796 3.36032 12.0006 3.55109 12.0006 3.75V7.5C12.0006 7.69891 12.0796 7.88968 12.2203 8.03033C12.3609 8.17098 12.5517 8.25 12.7506 8.25C12.9495 8.25 13.1403 8.17098 13.2809 8.03033C13.4216 7.88968 13.5006 7.69891 13.5006 7.5V5.56031L13.72 5.78062C15.4009 7.46156 15.3981 9.09937 15.099 10.1775C14.664 11.7497 13.284 13.1559 11.8178 13.5225C11.6402 13.567 11.4851 13.6749 11.3816 13.8259C11.278 13.9768 11.2333 14.1604 11.2558 14.3421C11.2783 14.5238 11.3664 14.6909 11.5036 14.8121C11.6408 14.9333 11.8175 15.0001 12.0006 15C12.0638 15.0003 12.1268 14.9927 12.1881 14.9775C14.1765 14.4806 15.9709 12.6713 16.5503 10.5778C17.1175 8.51063 16.4912 6.43031 14.7812 4.71938Z" fill="black"/>
</svg>
