<svg width="24" height="24" viewBox="0 0 24 24" fill="none" xmlns="http://www.w3.org/2000/svg">
<path d="M16.3696 7.62659C16.1198 6.28353 15.5079 5.03421 14.6 4.01348C13.6921 2.99275 12.5226 2.23938 11.2179 1.83469C9.9131 1.43 8.52258 1.38937 7.1964 1.71717C5.87022 2.04498 4.65877 2.72877 3.69279 3.69475C2.72682 4.66072 2.04303 5.87218 1.71522 7.19836C1.38742 8.52453 1.42805 9.91506 1.83274 11.2198C2.23742 12.5246 2.99079 13.6941 4.01153 14.602C5.03226 15.5099 6.28158 16.1218 7.62463 16.3716C7.87444 17.7146 8.48633 18.964 9.39424 19.9847C10.3022 21.0054 11.4716 21.7588 12.7764 22.1635C14.0812 22.5682 15.4717 22.6088 16.7979 22.281C18.124 21.9532 19.3355 21.2694 20.3015 20.3034C21.2674 19.3375 21.9512 18.126 22.279 16.7998C22.6069 15.4736 22.5662 14.0831 22.1615 12.7783C21.7568 11.4736 21.0035 10.3041 19.9827 9.39619C18.962 8.48828 17.7127 7.87639 16.3696 7.62659ZM8.99807 15C7.81138 15 6.65135 14.6481 5.66465 13.9888C4.67796 13.3296 3.90892 12.3925 3.45479 11.2961C3.00067 10.1998 2.88185 8.99337 3.11336 7.82948C3.34487 6.6656 3.91632 5.5965 4.75543 4.75738C5.59455 3.91827 6.66364 3.34682 7.82753 3.11531C8.99142 2.8838 10.1978 3.00262 11.2942 3.45675C12.3905 3.91087 13.3276 4.67991 13.9869 5.6666C14.6462 6.6533 14.9981 7.81334 14.9981 9.00003C14.9963 10.5908 14.3636 12.1159 13.2388 13.2407C12.114 14.3656 10.5888 14.9983 8.99807 15Z" fill="black"/>
</svg>
