<svg width="24" height="24" viewBox="0 0 24 24" fill="none" xmlns="http://www.w3.org/2000/svg">
<path d="M18.75 3.75C18.5511 3.75 18.3603 3.82902 18.2197 3.96967C18.079 4.11032 18 4.30109 18 4.5C18 4.69891 18.079 4.88968 18.2197 5.03033C18.3603 5.17098 18.5511 5.25 18.75 5.25C19.1478 5.25 19.5294 5.40804 19.8107 5.68934C20.092 5.97064 20.25 6.35218 20.25 6.75V12H3.75V6.75C3.75 6.35218 3.90804 5.97064 4.18934 5.68934C4.47064 5.40804 4.85218 5.25 5.25 5.25C5.44891 5.25 5.63968 5.17098 5.78033 5.03033C5.92098 4.88968 6 4.69891 6 4.5C6 4.30109 5.92098 4.11032 5.78033 3.96967C5.63968 3.82902 5.44891 3.75 5.25 3.75C4.45435 3.75 3.69129 4.06607 3.12868 4.62868C2.56607 5.19129 2.25 5.95435 2.25 6.75V15.375C2.25 16.469 2.6846 17.5182 3.45818 18.2918C4.23177 19.0654 5.28098 19.5 6.375 19.5C7.46902 19.5 8.51823 19.0654 9.29182 18.2918C10.0654 17.5182 10.5 16.469 10.5 15.375V13.5H13.5V15.375C13.5 16.469 13.9346 17.5182 14.7082 18.2918C15.4818 19.0654 16.531 19.5 17.625 19.5C18.719 19.5 19.7682 19.0654 20.5418 18.2918C21.3154 17.5182 21.75 16.469 21.75 15.375V6.75C21.75 5.95435 21.4339 5.19129 20.8713 4.62868C20.3087 4.06607 19.5456 3.75 18.75 3.75ZM8.78063 17.0306C8.71097 17.1004 8.62825 17.1557 8.53721 17.1934C8.44616 17.2312 8.34856 17.2506 8.25 17.2506C8.15144 17.2506 8.05384 17.2312 7.96279 17.1934C7.87175 17.1557 7.78903 17.1004 7.71937 17.0306L5.46938 14.7806C5.32864 14.6399 5.24958 14.449 5.24958 14.25C5.24958 14.051 5.32864 13.8601 5.46938 13.7194C5.61011 13.5786 5.80098 13.4996 6 13.4996C6.19902 13.4996 6.38989 13.5786 6.53063 13.7194L8.78063 15.9694C8.85036 16.039 8.90568 16.1217 8.94342 16.2128C8.98116 16.3038 9.00059 16.4014 9.00059 16.5C9.00059 16.5986 8.98116 16.6962 8.94342 16.7872C8.90568 16.8783 8.85036 16.961 8.78063 17.0306ZM20.0306 17.0306C19.961 17.1004 19.8783 17.1557 19.7872 17.1934C19.6962 17.2312 19.5986 17.2506 19.5 17.2506C19.4014 17.2506 19.3038 17.2312 19.2128 17.1934C19.1217 17.1557 19.039 17.1004 18.9694 17.0306L16.7194 14.7806C16.5786 14.6399 16.4996 14.449 16.4996 14.25C16.4996 14.051 16.5786 13.8601 16.7194 13.7194C16.8601 13.5786 17.051 13.4996 17.25 13.4996C17.449 13.4996 17.6399 13.5786 17.7806 13.7194L20.0306 15.9694C20.1004 16.039 20.1557 16.1217 20.1934 16.2128C20.2312 16.3038 20.2506 16.4014 20.2506 16.5C20.2506 16.5986 20.2312 16.6962 20.1934 16.7872C20.1557 16.8783 20.1004 16.961 20.0306 17.0306Z" fill="black"/>
</svg>
