<svg width="24" height="24" viewBox="0 0 24 24" fill="none" xmlns="http://www.w3.org/2000/svg">
<path d="M21.7502 14.6166C21.7464 14.4493 21.7147 14.2839 21.6564 14.1272L19.8695 9.23249C19.7319 8.86136 19.4531 8.55968 19.094 8.39321C18.7349 8.22673 18.3245 8.20895 17.9523 8.34374L11.5951 10.6472L12.7276 4.17843C12.7978 3.78696 12.7096 3.38365 12.4825 3.05718C12.2553 2.73072 11.9078 2.50782 11.5164 2.43749L6.39109 1.52343C6.19733 1.48936 5.99875 1.49389 5.80674 1.53675C5.61473 1.57961 5.43308 1.65997 5.2722 1.7732C5.11132 1.88643 4.97439 2.03032 4.86925 2.1966C4.76411 2.36288 4.69284 2.54829 4.65953 2.74218L2.31578 16.1597C2.20863 16.7512 2.23262 17.3591 2.38606 17.9404C2.53951 18.5217 2.81866 19.0622 3.20383 19.5238C3.58899 19.9854 4.07078 20.3569 4.61518 20.6119C5.15958 20.867 5.75333 20.9995 6.35453 21H20.2502C20.648 21 21.0295 20.842 21.3108 20.5607C21.5921 20.2793 21.7502 19.8978 21.7502 19.5V14.6166ZM6.37515 18.375C6.07848 18.375 5.78847 18.287 5.5418 18.1222C5.29512 17.9574 5.10286 17.7231 4.98933 17.449C4.8758 17.1749 4.84609 16.8733 4.90397 16.5824C4.96185 16.2914 5.10471 16.0241 5.31449 15.8143C5.52427 15.6046 5.79154 15.4617 6.08252 15.4038C6.37349 15.3459 6.67509 15.3756 6.94918 15.4892C7.22326 15.6027 7.45753 15.795 7.62235 16.0416C7.78718 16.2883 7.87515 16.5783 7.87515 16.875C7.87515 17.2728 7.71711 17.6543 7.43581 17.9357C7.15451 18.217 6.77298 18.375 6.37515 18.375ZM10.3801 17.5894L11.297 12.3469L18.4614 9.74999L20.2502 14.6353L10.1983 18.2812C10.2784 18.0562 10.3393 17.8247 10.3801 17.5894ZM20.2502 19.5H11.2258L20.2502 16.2291V19.5Z" fill="black"/>
</svg>
