<svg width="24" height="24" viewBox="0 0 24 24" fill="none" xmlns="http://www.w3.org/2000/svg">
<path d="M22.2799 7.27501C22.2102 7.34475 22.1275 7.40006 22.0364 7.43781C21.9454 7.47555 21.8478 7.49498 21.7492 7.49498C21.6507 7.49498 21.5531 7.47555 21.462 7.43781C21.371 7.40006 21.2883 7.34475 21.2186 7.27501L19.4992 5.5547L16.8086 8.25001L20.0289 11.4703C20.1697 11.6111 20.2487 11.8019 20.2487 12.0009C20.2487 12.2 20.1697 12.3908 20.0289 12.5316C19.8882 12.6723 19.6973 12.7514 19.4983 12.7514C19.2993 12.7514 19.1084 12.6723 18.9677 12.5316L18.3742 11.9316L10.4992 19.8066C10.3599 19.947 10.1941 20.0585 10.0115 20.1346C9.82889 20.2107 9.63302 20.2499 9.43518 20.25H4.80486L2.77424 22.2806C2.70131 22.3537 2.6141 22.4108 2.51805 22.4486C2.42201 22.4864 2.3192 22.5039 2.21607 22.5001C2.11294 22.4964 2.01169 22.4713 1.91868 22.4266C1.82566 22.3819 1.74287 22.3185 1.67549 22.2403C1.55279 22.0913 1.49057 21.9016 1.50116 21.7089C1.51175 21.5161 1.59439 21.3344 1.73268 21.1997L3.74361 19.1878V14.5575C3.74454 14.1607 3.90264 13.7805 4.1833 13.5L5.60643 12.0769C5.64125 12.042 5.68261 12.0144 5.72814 11.9955C5.77366 11.9766 5.82246 11.9669 5.87174 11.9669C5.92102 11.9669 5.96982 11.9766 6.01534 11.9955C6.06087 12.0144 6.10222 12.042 6.13705 12.0769L8.83986 14.7778C8.90955 14.8475 8.99227 14.9028 9.08332 14.9405C9.17436 14.9782 9.27194 14.9976 9.37049 14.9976C9.46904 14.9976 9.56662 14.9782 9.65766 14.9405C9.74871 14.9028 9.83143 14.8475 9.90111 14.7778C9.9708 14.7081 10.0261 14.6254 10.0638 14.5344C10.1015 14.4433 10.1209 14.3457 10.1209 14.2472C10.1209 14.1487 10.1015 14.0511 10.0638 13.96C10.0261 13.869 9.9708 13.7863 9.90111 13.7166L7.19736 11.0128C7.1625 10.978 7.13484 10.9366 7.11597 10.8911C7.09709 10.8456 7.08738 10.7968 7.08738 10.7475C7.08738 10.6982 7.09709 10.6494 7.11597 10.6039C7.13484 10.5584 7.1625 10.517 7.19736 10.4822L8.22861 9.45095C8.26344 9.41608 8.3048 9.38842 8.35032 9.36955C8.39585 9.35068 8.44465 9.34097 8.49393 9.34097C8.54321 9.34097 8.592 9.35068 8.63753 9.36955C8.68305 9.38842 8.72441 9.41608 8.75924 9.45095L11.463 12.1547C11.5327 12.2244 11.6154 12.2797 11.7064 12.3174C11.7975 12.3551 11.8951 12.3745 11.9936 12.3745C12.0922 12.3745 12.1897 12.3551 12.2808 12.3174C12.3718 12.2797 12.4546 12.2244 12.5242 12.1547C12.5939 12.085 12.6492 12.0023 12.6869 11.9112C12.7246 11.8202 12.744 11.7226 12.744 11.6241C12.744 11.5255 12.7246 11.4279 12.6869 11.3369C12.6492 11.2459 12.5939 11.1631 12.5242 11.0935L9.8233 8.38689C9.78843 8.35206 9.76078 8.3107 9.7419 8.26518C9.72303 8.21965 9.71332 8.17086 9.71332 8.12158C9.71332 8.07229 9.72303 8.0235 9.7419 7.97797C9.76078 7.93245 9.78843 7.89109 9.8233 7.85626L12.0611 5.61939L11.4658 5.02408C11.3947 4.95303 11.3387 4.86843 11.3009 4.77529C11.2632 4.68216 11.2446 4.58239 11.2461 4.48191C11.2477 4.38143 11.2695 4.28229 11.3101 4.19039C11.3507 4.09848 11.4094 4.01567 11.4827 3.94689C11.631 3.81459 11.8247 3.74473 12.0234 3.75189C12.222 3.75906 12.4102 3.84269 12.5486 3.98533L15.7492 7.18408L18.4389 4.49345L16.7177 2.77314C16.6465 2.70215 16.5904 2.6176 16.5526 2.5245C16.5148 2.4314 16.4961 2.33165 16.4975 2.23117C16.499 2.13069 16.5207 2.03154 16.5612 1.9396C16.6018 1.84765 16.6604 1.7648 16.7336 1.69595C16.8821 1.5636 17.076 1.4937 17.2748 1.50087C17.4736 1.50803 17.6619 1.59169 17.8005 1.73439L22.2799 6.21376C22.3496 6.28342 22.4049 6.36613 22.4427 6.45718C22.4804 6.54823 22.4998 6.64583 22.4998 6.74439C22.4998 6.84295 22.4804 6.94055 22.4427 7.03159C22.4049 7.12264 22.3496 7.20536 22.2799 7.27501Z" fill="black"/>
</svg>
