<svg width="24" height="24" viewBox="0 0 24 24" fill="none" xmlns="http://www.w3.org/2000/svg">
<path d="M23.9998 15.75C23.9998 15.949 23.9208 16.1397 23.7801 16.2804C23.6395 16.421 23.4487 16.5 23.2498 16.5H0.74979C0.632878 16.5 0.517593 16.4727 0.413138 16.4201C0.308682 16.3676 0.217949 16.2914 0.148182 16.1976C0.0784145 16.1038 0.0315448 15.995 0.0113142 15.8798C-0.00891639 15.7647 -0.00194749 15.6464 0.0316646 15.5344V15.5297L2.12135 8.5688C2.21281 8.25829 2.40291 7.98602 2.6629 7.79319C2.92288 7.60036 3.23861 7.49745 3.56229 7.50005H11.4467C11.7695 7.49847 12.0842 7.60185 12.3432 7.79461C12.6023 7.98736 12.7917 8.25907 12.8829 8.5688L14.8123 15H17.7467L15.9467 9.00005H14.9998C14.8009 9.00005 14.6101 8.92103 14.4695 8.78038C14.3288 8.63973 14.2498 8.44896 14.2498 8.25005C14.2498 8.05114 14.3288 7.86037 14.4695 7.71972C14.6101 7.57907 14.8009 7.50005 14.9998 7.50005H15.942C16.2649 7.49847 16.5795 7.60185 16.8386 7.79461C17.0976 7.98736 17.287 8.25907 17.3782 8.5688L19.3123 15H22.2467L20.4467 9.00005H19.4998C19.3009 9.00005 19.1101 8.92103 18.9695 8.78038C18.8288 8.63973 18.7498 8.44896 18.7498 8.25005C18.7498 8.05114 18.8288 7.86037 18.9695 7.71972C19.1101 7.57907 19.3009 7.50005 19.4998 7.50005H20.442C20.7649 7.49847 21.0795 7.60185 21.3386 7.79461C21.5976 7.98736 21.787 8.25907 21.8782 8.5688L23.9651 15.5241C23.9655 15.5266 23.9655 15.5291 23.9651 15.5316C23.9874 15.6023 23.9991 15.6759 23.9998 15.75Z" fill="black"/>
</svg>
