<svg width="24" height="24" viewBox="0 0 24 24" fill="none" xmlns="http://www.w3.org/2000/svg">
<path d="M20.7985 7.79626C21.8392 9.97295 22.0368 12.458 21.3531 14.7718C20.6693 17.0856 19.1527 19.0641 17.096 20.3255C15.0393 21.5868 12.5883 22.0417 10.2159 21.6022C7.84362 21.1627 5.71817 19.86 4.24983 17.9455C2.78149 16.0311 2.07434 13.6406 2.26487 11.2354C2.45539 8.83024 3.53008 6.5809 5.28152 4.92151C7.03296 3.26211 9.337 2.3103 11.7489 2.24978C14.1609 2.18925 16.5098 3.0243 18.3422 4.59376L20.4675 2.46751C20.6083 2.32678 20.7991 2.24771 20.9982 2.24771C21.1972 2.24771 21.3881 2.32678 21.5288 2.46751C21.6695 2.60824 21.7486 2.79911 21.7486 2.99813C21.7486 3.19715 21.6695 3.38803 21.5288 3.52876L15.7107 9.34782L12.1753 12.8831L9.93003 15.1284C10.5105 15.5124 11.1864 15.7272 11.882 15.7489C12.5776 15.7705 13.2656 15.5982 13.8688 15.2511C14.4721 14.9041 14.9669 14.396 15.2978 13.7837C15.6287 13.1715 15.7827 12.4792 15.7425 11.7844C15.7313 11.5855 15.7996 11.3903 15.9324 11.2417C16.0651 11.0931 16.2514 11.0034 16.4503 10.9922C16.6493 10.981 16.8445 11.0493 16.993 11.182C17.1416 11.3148 17.2313 11.5011 17.2425 11.7C17.303 12.762 17.0395 13.8173 16.4868 14.7262C15.9342 15.6351 15.1185 16.3547 14.1477 16.7896C13.177 17.2246 12.097 17.3544 11.0509 17.1619C10.0047 16.9694 9.04171 16.4636 8.28941 15.7116C7.35376 14.7724 6.80804 13.5141 6.76184 12.1892C6.71563 10.8643 7.17234 9.57101 8.04029 8.56896C8.90823 7.56691 10.1231 6.9303 11.441 6.78697C12.7589 6.64365 14.0823 7.00421 15.1453 7.79626L17.2763 5.66157C15.7133 4.36388 13.7259 3.68941 11.696 3.7677C9.66597 3.846 7.73648 4.67153 6.27808 6.08576C4.81968 7.49998 3.93519 9.40317 3.79451 11.4298C3.65382 13.4564 4.26686 15.4635 5.51587 17.0657C6.76488 18.6679 8.56179 19.7521 10.5615 20.1101C12.5612 20.4682 14.6227 20.0747 16.35 19.0055C18.0773 17.9362 19.3486 16.2664 19.9198 14.3169C20.4911 12.3674 20.3218 10.2755 19.4447 8.44313C19.3589 8.26361 19.348 8.05737 19.4143 7.86978C19.4805 7.68218 19.6186 7.5286 19.7982 7.44282C19.9777 7.35704 20.1839 7.34608 20.3715 7.41237C20.5591 7.47865 20.7127 7.61674 20.7985 7.79626Z" fill="black"/>
</svg>
