<svg width="24" height="24" viewBox="0 0 24 24" fill="none" xmlns="http://www.w3.org/2000/svg">
<path d="M20.25 6.00005H13.8103L17.0306 2.78068C17.1714 2.63995 17.2504 2.44907 17.2504 2.25005C17.2504 2.05103 17.1714 1.86016 17.0306 1.71943C16.8899 1.5787 16.699 1.49963 16.5 1.49963C16.301 1.49963 16.1101 1.5787 15.9694 1.71943L12 5.68974L8.03063 1.71943C7.96094 1.64974 7.87822 1.59447 7.78717 1.55676C7.69613 1.51904 7.59855 1.49963 7.5 1.49963C7.40145 1.49963 7.30387 1.51904 7.21283 1.55676C7.12178 1.59447 7.03906 1.64974 6.96937 1.71943C6.82864 1.86016 6.74958 2.05103 6.74958 2.25005C6.74958 2.44907 6.82864 2.63995 6.96937 2.78068L10.1897 6.00005H3.75C3.35218 6.00005 2.97064 6.15809 2.68934 6.43939C2.40804 6.7207 2.25 7.10223 2.25 7.50005V18.7501C2.25 19.1479 2.40804 19.5294 2.68934 19.8107C2.97064 20.092 3.35218 20.2501 3.75 20.2501H20.25C20.6478 20.2501 21.0294 20.092 21.3107 19.8107C21.592 19.5294 21.75 19.1479 21.75 18.7501V7.50005C21.75 7.10223 21.592 6.7207 21.3107 6.43939C21.0294 6.15809 20.6478 6.00005 20.25 6.00005ZM20.25 18.7501H15V7.50005H20.25V18.7501ZM18.75 10.8751C18.75 11.0976 18.684 11.3151 18.5604 11.5001C18.4368 11.6851 18.2611 11.8293 18.0555 11.9144C17.85 11.9996 17.6238 12.0218 17.4055 11.9784C17.1873 11.935 16.9868 11.8279 16.8295 11.6705C16.6722 11.5132 16.565 11.3128 16.5216 11.0945C16.4782 10.8763 16.5005 10.6501 16.5856 10.4445C16.6708 10.239 16.815 10.0633 17 9.93965C17.185 9.81603 17.4025 9.75005 17.625 9.75005C17.9234 9.75005 18.2095 9.86858 18.4205 10.0796C18.6315 10.2905 18.75 10.5767 18.75 10.8751ZM18.75 15.3751C18.75 15.5976 18.684 15.8151 18.5604 16.0001C18.4368 16.1851 18.2611 16.3293 18.0555 16.4144C17.85 16.4996 17.6238 16.5218 17.4055 16.4784C17.1873 16.435 16.9868 16.3279 16.8295 16.1705C16.6722 16.0132 16.565 15.8128 16.5216 15.5945C16.4782 15.3763 16.5005 15.1501 16.5856 14.9445C16.6708 14.739 16.815 14.5633 17 14.4396C17.185 14.316 17.4025 14.2501 17.625 14.2501C17.9234 14.2501 18.2095 14.3686 18.4205 14.5796C18.6315 14.7905 18.75 15.0767 18.75 15.3751Z" fill="black"/>
</svg>
