<svg width="24" height="24" viewBox="0 0 24 24" fill="none" xmlns="http://www.w3.org/2000/svg">
<path d="M21.75 7.50005V18.7501C21.75 19.1479 21.592 19.5294 21.3107 19.8107C21.0294 20.092 20.6478 20.2501 20.25 20.2501H3.75C3.35218 20.2501 2.97064 20.092 2.68934 19.8107C2.40804 19.5294 2.25 19.1479 2.25 18.7501V7.50005C2.25 7.10223 2.40804 6.7207 2.68934 6.43939C2.97064 6.15809 3.35218 6.00005 3.75 6.00005H10.1897L6.96937 2.78068C6.82864 2.63995 6.74958 2.44907 6.74958 2.25005C6.74958 2.1515 6.76899 2.05392 6.8067 1.96288C6.84442 1.87183 6.89969 1.78911 6.96937 1.71943C7.03906 1.64974 7.12178 1.59447 7.21283 1.55676C7.30387 1.51904 7.40145 1.49963 7.5 1.49963C7.69902 1.49963 7.88989 1.5787 8.03063 1.71943L12 5.68974L15.9694 1.71943C16.1101 1.5787 16.301 1.49963 16.5 1.49963C16.699 1.49963 16.8899 1.5787 17.0306 1.71943C17.1714 1.86016 17.2504 2.05103 17.2504 2.25005C17.2504 2.44907 17.1714 2.63995 17.0306 2.78068L13.8103 6.00005H20.25C20.6478 6.00005 21.0294 6.15809 21.3107 6.43939C21.592 6.7207 21.75 7.10223 21.75 7.50005Z" fill="black"/>
</svg>
