<svg width="24" height="24" viewBox="0 0 24 24" fill="none" xmlns="http://www.w3.org/2000/svg">
<path d="M2.32829 10.8197C2.59011 8.65743 3.56905 6.64533 5.10872 5.10481C6.6484 3.56428 8.65996 2.58423 10.822 2.32122C10.8732 2.31511 10.9251 2.31962 10.9745 2.33448C11.0239 2.34933 11.0697 2.37421 11.109 2.40755C11.1483 2.4409 11.1804 2.48199 11.2031 2.52827C11.2258 2.57456 11.2388 2.62503 11.2411 2.67654C11.2875 3.81286 11.0979 4.94647 10.6844 6.00589C10.2709 7.06531 9.64234 8.02758 8.83844 8.83201C8.03453 9.63645 7.07268 10.2656 6.01353 10.6798C4.95438 11.094 3.8209 11.2843 2.68454 11.2387C2.63295 11.2365 2.58238 11.2237 2.53599 11.201C2.4896 11.1783 2.44839 11.1463 2.41494 11.107C2.3815 11.0676 2.35654 11.0218 2.34163 10.9724C2.32672 10.9229 2.32218 10.8709 2.32829 10.8197ZM21.3164 12.7603C21.2114 12.7603 21.1074 12.7537 21.0024 12.7537C19.8919 12.7523 18.7925 12.9755 17.7705 13.4099C16.7485 13.8443 15.8249 14.4809 15.0553 15.2814C14.2856 16.082 13.6859 17.0299 13.2921 18.0683C12.8982 19.1066 12.7185 20.2138 12.7636 21.3234C12.7659 21.3749 12.7789 21.4254 12.8016 21.4717C12.8243 21.518 12.8564 21.559 12.8957 21.5924C12.935 21.6257 12.9808 21.6506 13.0302 21.6655C13.0796 21.6803 13.1315 21.6848 13.1827 21.6787C15.3449 21.4157 17.3566 20.4355 18.8963 18.8948C20.4359 17.3541 21.4148 15.3418 21.6764 13.1793C21.6825 13.1278 21.6779 13.0755 21.6628 13.0258C21.6476 12.9761 21.6223 12.9301 21.5885 12.8907C21.5546 12.8513 21.513 12.8194 21.4662 12.7969C21.4193 12.7745 21.3683 12.762 21.3164 12.7603ZM14.108 14.1056C15.0113 13.1974 16.0857 12.4774 17.2692 11.9873C18.4526 11.4971 19.7215 11.2465 21.0024 11.25C21.0961 11.25 21.1955 11.25 21.292 11.25C21.3458 11.2519 21.3994 11.2422 21.4491 11.2216C21.4988 11.201 21.5435 11.17 21.5801 11.1306C21.6167 11.0912 21.6445 11.0444 21.6614 10.9933C21.6784 10.9423 21.6841 10.8881 21.6783 10.8347C21.4198 8.66451 20.4391 6.64431 18.8938 5.09884C17.3485 3.55338 15.3284 2.57244 13.1583 2.31372C13.1048 2.3079 13.0507 2.31366 12.9996 2.33061C12.9486 2.34755 12.9018 2.37529 12.8624 2.41192C12.823 2.44856 12.7919 2.49325 12.7713 2.54295C12.7507 2.59265 12.7411 2.64621 12.743 2.69997C12.7856 4.02948 12.555 5.35359 12.0655 6.59041C11.5759 7.82723 10.8378 8.95045 9.89673 9.8906C8.99373 10.7994 7.91941 11.5201 6.73598 12.0109C5.55256 12.5018 4.28352 12.7529 3.00236 12.75C2.90861 12.75 2.80923 12.75 2.71267 12.75C2.6589 12.748 2.60535 12.7577 2.55565 12.7783C2.50595 12.7989 2.46126 12.83 2.42462 12.8693C2.38798 12.9087 2.36025 12.9556 2.3433 13.0066C2.32636 13.0577 2.3206 13.1118 2.32642 13.1653C2.58489 15.3354 3.56561 17.3556 5.11091 18.9011C6.6562 20.4466 8.67629 21.4275 10.8464 21.6862C10.8999 21.692 10.954 21.6863 11.0051 21.6693C11.0561 21.6524 11.103 21.6247 11.1424 21.588C11.1818 21.5514 11.2128 21.5067 11.2334 21.457C11.254 21.4073 11.2637 21.3537 11.2617 21.3C11.2186 19.9698 11.4489 18.645 11.9385 17.4075C12.4281 16.17 13.1665 15.0462 14.108 14.1056Z" fill="black"/>
</svg>
