<svg width="24" height="24" viewBox="0 0 24 24" fill="none" xmlns="http://www.w3.org/2000/svg">
<path d="M18.75 14.625C18.75 15.2344 18.0628 15.75 17.25 15.75C16.4372 15.75 15.75 15.2344 15.75 14.625C15.75 14.0156 16.4372 13.5 17.25 13.5C18.0628 13.5 18.75 14.0156 18.75 14.625ZM6.90094 12.75H10.3491L8.625 8.67469L6.90094 12.75ZM21.75 5.25V18.75C21.75 19.1478 21.592 19.5294 21.3107 19.8107C21.0294 20.092 20.6478 20.25 20.25 20.25H3.75C3.35218 20.25 2.97064 20.092 2.68934 19.8107C2.40804 19.5294 2.25 19.1478 2.25 18.75V5.25C2.25 4.85218 2.40804 4.47064 2.68934 4.18934C2.97064 3.90804 3.35218 3.75 3.75 3.75H20.25C20.6478 3.75 21.0294 3.90804 21.3107 4.18934C21.592 4.47064 21.75 4.85218 21.75 5.25ZM13.4409 16.2075L9.31594 6.4575C9.25858 6.32165 9.16244 6.20572 9.03955 6.12421C8.91666 6.0427 8.77247 5.99923 8.625 5.99923C8.47753 5.99923 8.33334 6.0427 8.21045 6.12421C8.08756 6.20572 7.99142 6.32165 7.93406 6.4575L3.80906 16.2075C3.73149 16.3907 3.72988 16.5973 3.8046 16.7817C3.87933 16.9662 4.02425 17.1134 4.2075 17.1909C4.39075 17.2685 4.59731 17.2701 4.78174 17.1954C4.96617 17.1207 5.11336 16.9757 5.19094 16.7925L6.26625 14.25H10.9838L12.0591 16.7925C12.1366 16.9757 12.2838 17.1207 12.4683 17.1954C12.6527 17.2701 12.8593 17.2685 13.0425 17.1909C13.2257 17.1134 13.3707 16.9662 13.4454 16.7817C13.5201 16.5973 13.5185 16.3907 13.4409 16.2075ZM20.25 12.375C20.25 10.9275 18.9037 9.75 17.25 9.75C16.5503 9.74483 15.8675 9.96434 15.3019 10.3763C15.1424 10.4951 15.0366 10.6724 15.0079 10.8693C14.9791 11.0661 15.0297 11.2663 15.1486 11.4258C15.2674 11.5853 15.4448 11.691 15.6416 11.7198C15.8384 11.7485 16.0386 11.6979 16.1981 11.5791C16.5047 11.36 16.8733 11.2447 17.25 11.25C18.0525 11.25 18.7313 11.7525 18.75 12.3525C18.2848 12.1184 17.7708 11.9976 17.25 12C15.5963 12 14.25 13.1775 14.25 14.625C14.25 16.0725 15.5963 17.25 17.25 17.25C17.8042 17.2525 18.3502 17.1152 18.8372 16.8506C18.9155 16.9986 19.0411 17.1161 19.194 17.1844C19.3468 17.2527 19.5182 17.2679 19.6807 17.2276C19.8431 17.1872 19.9875 17.0937 20.0907 16.9619C20.1938 16.83 20.2499 16.6674 20.25 16.5V12.375Z" fill="black"/>
</svg>
