<svg width="24" height="24" viewBox="0 0 24 24" fill="none" xmlns="http://www.w3.org/2000/svg">
<path d="M19.5 3H4.5C4.10218 3 3.72064 3.15804 3.43934 3.43934C3.15804 3.72064 3 4.10218 3 4.5V19.5C3 19.8978 3.15804 20.2794 3.43934 20.5607C3.72064 20.842 4.10218 21 4.5 21H19.5C19.8978 21 20.2794 20.842 20.5607 20.5607C20.842 20.2794 21 19.8978 21 19.5V4.5C21 4.10218 20.842 3.72064 20.5607 3.43934C20.2794 3.15804 19.8978 3 19.5 3ZM11.25 15C11.25 15.1989 11.171 15.3897 11.0303 15.5303C10.8897 15.671 10.6989 15.75 10.5 15.75C10.3011 15.75 10.1103 15.671 9.96967 15.5303C9.82902 15.3897 9.75 15.1989 9.75 15V12H6.75V15C6.75 15.1989 6.67098 15.3897 6.53033 15.5303C6.38968 15.671 6.19891 15.75 6 15.75C5.80109 15.75 5.61032 15.671 5.46967 15.5303C5.32902 15.3897 5.25 15.1989 5.25 15V7.5C5.25 7.30109 5.32902 7.11032 5.46967 6.96967C5.61032 6.82902 5.80109 6.75 6 6.75C6.19891 6.75 6.38968 6.82902 6.53033 6.96967C6.67098 7.11032 6.75 7.30109 6.75 7.5V10.5H9.75V7.5C9.75 7.30109 9.82902 7.11032 9.96967 6.96967C10.1103 6.82902 10.3011 6.75 10.5 6.75C10.6989 6.75 10.8897 6.82902 11.0303 6.96967C11.171 7.11032 11.25 7.30109 11.25 7.5V15ZM18.75 15H18V16.5C18 16.6989 17.921 16.8897 17.7803 17.0303C17.6397 17.171 17.4489 17.25 17.25 17.25C17.0511 17.25 16.8603 17.171 16.7197 17.0303C16.579 16.8897 16.5 16.6989 16.5 16.5V15H13.5C13.3788 15 13.2594 14.9706 13.1521 14.9144C13.0447 14.8582 12.9526 14.7768 12.8835 14.6771C12.8145 14.5775 12.7707 14.4627 12.7557 14.3424C12.7408 14.2221 12.7552 14.1 12.7978 13.9866L15.0478 7.98656C15.1177 7.80008 15.2588 7.64899 15.44 7.56654C15.6213 7.48408 15.8279 7.47701 16.0144 7.54688C16.2009 7.61674 16.3519 7.75783 16.4344 7.93909C16.5169 8.12036 16.5239 8.32696 16.4541 8.51344L14.5791 13.5H16.5V11.25C16.5 11.0511 16.579 10.8603 16.7197 10.7197C16.8603 10.579 17.0511 10.5 17.25 10.5C17.4489 10.5 17.6397 10.579 17.7803 10.7197C17.921 10.8603 18 11.0511 18 11.25V13.5H18.75C18.9489 13.5 19.1397 13.579 19.2803 13.7197C19.421 13.8603 19.5 14.0511 19.5 14.25C19.5 14.4489 19.421 14.6397 19.2803 14.7803C19.1397 14.921 18.9489 15 18.75 15Z" fill="black"/>
</svg>
