<svg width="24" height="24" viewBox="0 0 24 24" fill="none" xmlns="http://www.w3.org/2000/svg">
<path d="M21 6V6.75C21 6.94891 20.921 7.13968 20.7803 7.28033C20.6397 7.42098 20.4489 7.5 20.25 7.5H3.75C3.55109 7.5 3.36032 7.42098 3.21967 7.28033C3.07902 7.13968 3 6.94891 3 6.75V6C3 5.80109 3.07902 5.61032 3.21967 5.46967C3.36032 5.32902 3.55109 5.25 3.75 5.25H20.25C20.4489 5.25 20.6397 5.32902 20.7803 5.46967C20.921 5.61032 21 5.80109 21 6ZM18 11.25C18.1989 11.25 18.3897 11.171 18.5303 11.0303C18.671 10.8897 18.75 10.6989 18.75 10.5V9.75C18.75 9.55109 18.671 9.36032 18.5303 9.21967C18.3897 9.07902 18.1989 9 18 9H6C5.80109 9 5.61032 9.07902 5.46967 9.21967C5.32902 9.36032 5.25 9.55109 5.25 9.75V10.5C5.25 10.6989 5.32902 10.8897 5.46967 11.0303C5.61032 11.171 5.80109 11.25 6 11.25H18ZM20.25 12.75H3.75C3.55109 12.75 3.36032 12.829 3.21967 12.9697C3.07902 13.1103 3 13.3011 3 13.5V14.25C3 14.4489 3.07902 14.6397 3.21967 14.7803C3.36032 14.921 3.55109 15 3.75 15H20.25C20.4489 15 20.6397 14.921 20.7803 14.7803C20.921 14.6397 21 14.4489 21 14.25V13.5C21 13.3011 20.921 13.1103 20.7803 12.9697C20.6397 12.829 20.4489 12.75 20.25 12.75ZM18 16.5H6C5.80109 16.5 5.61032 16.579 5.46967 16.7197C5.32902 16.8603 5.25 17.0511 5.25 17.25V18C5.25 18.1989 5.32902 18.3897 5.46967 18.5303C5.61032 18.671 5.80109 18.75 6 18.75H18C18.1989 18.75 18.3897 18.671 18.5303 18.5303C18.671 18.3897 18.75 18.1989 18.75 18V17.25C18.75 17.0511 18.671 16.8603 18.5303 16.7197C18.3897 16.579 18.1989 16.5 18 16.5Z" fill="black"/>
</svg>
