<svg width="24" height="24" viewBox="0 0 24 24" fill="none" xmlns="http://www.w3.org/2000/svg">
<path d="M21 12C21 12.1989 20.921 12.3897 20.7803 12.5303C20.6397 12.671 20.4489 12.75 20.25 12.75H10.5C10.3011 12.75 10.1103 12.671 9.96967 12.5303C9.82902 12.3897 9.75 12.1989 9.75 12C9.75 11.8011 9.82902 11.6103 9.96967 11.4697C10.1103 11.329 10.3011 11.25 10.5 11.25H20.25C20.4489 11.25 20.6397 11.329 20.7803 11.4697C20.921 11.6103 21 11.8011 21 12ZM10.5 6.74998H20.25C20.4489 6.74998 20.6397 6.67096 20.7803 6.53031C20.921 6.38966 21 6.19889 21 5.99998C21 5.80107 20.921 5.6103 20.7803 5.46965C20.6397 5.329 20.4489 5.24998 20.25 5.24998H10.5C10.3011 5.24998 10.1103 5.329 9.96967 5.46965C9.82902 5.6103 9.75 5.80107 9.75 5.99998C9.75 6.19889 9.82902 6.38966 9.96967 6.53031C10.1103 6.67096 10.3011 6.74998 10.5 6.74998ZM20.25 17.25H3.75C3.55109 17.25 3.36032 17.329 3.21967 17.4697C3.07902 17.6103 3 17.8011 3 18C3 18.1989 3.07902 18.3897 3.21967 18.5303C3.36032 18.671 3.55109 18.75 3.75 18.75H20.25C20.4489 18.75 20.6397 18.671 20.7803 18.5303C20.921 18.3897 21 18.1989 21 18C21 17.8011 20.921 17.6103 20.7803 17.4697C20.6397 17.329 20.4489 17.25 20.25 17.25ZM3.46313 13.4428C3.60015 13.4996 3.75096 13.5146 3.89648 13.4857C4.04199 13.4568 4.17568 13.3855 4.28063 13.2806L8.03063 9.53061C8.10036 9.46095 8.15568 9.37823 8.19342 9.28719C8.23116 9.19614 8.25059 9.09854 8.25059 8.99998C8.25059 8.90142 8.23116 8.80382 8.19342 8.71278C8.15568 8.62173 8.10036 8.53901 8.03063 8.46936L4.28063 4.71936C4.17573 4.61435 4.04204 4.54282 3.89648 4.51383C3.75092 4.48485 3.60002 4.4997 3.46291 4.55651C3.32579 4.61333 3.20861 4.70955 3.12621 4.83299C3.04381 4.95644 2.99988 5.10156 3 5.24998V12.75C3.00003 12.8983 3.04405 13.0433 3.12648 13.1666C3.20892 13.2899 3.32607 13.3861 3.46313 13.4428Z" fill="black"/>
</svg>
