<svg width="24" height="24" viewBox="0 0 24 24" fill="none" xmlns="http://www.w3.org/2000/svg">
<path d="M21.0006 12C21.0006 12.1989 20.9216 12.3897 20.7809 12.5303C20.6403 12.671 20.4495 12.75 20.2506 12.75H10.5006C10.3017 12.75 10.1109 12.671 9.97026 12.5303C9.82961 12.3897 9.75059 12.1989 9.75059 12C9.75059 11.8011 9.82961 11.6103 9.97026 11.4697C10.1109 11.329 10.3017 11.25 10.5006 11.25H20.2506C20.4495 11.25 20.6403 11.329 20.7809 11.4697C20.9216 11.6103 21.0006 11.8011 21.0006 12ZM10.5006 6.74998H20.2506C20.4495 6.74998 20.6403 6.67096 20.7809 6.53031C20.9216 6.38966 21.0006 6.19889 21.0006 5.99998C21.0006 5.80107 20.9216 5.6103 20.7809 5.46965C20.6403 5.329 20.4495 5.24998 20.2506 5.24998H10.5006C10.3017 5.24998 10.1109 5.329 9.97026 5.46965C9.82961 5.6103 9.75059 5.80107 9.75059 5.99998C9.75059 6.19889 9.82961 6.38966 9.97026 6.53031C10.1109 6.67096 10.3017 6.74998 10.5006 6.74998ZM20.2506 17.25H3.75059C3.55168 17.25 3.36091 17.329 3.22026 17.4697C3.07961 17.6103 3.00059 17.8011 3.00059 18C3.00059 18.1989 3.07961 18.3897 3.22026 18.5303C3.36091 18.671 3.55168 18.75 3.75059 18.75H20.2506C20.4495 18.75 20.6403 18.671 20.7809 18.5303C20.9216 18.3897 21.0006 18.1989 21.0006 18C21.0006 17.8011 20.9216 17.6103 20.7809 17.4697C20.6403 17.329 20.4495 17.25 20.2506 17.25ZM6.75059 13.5C6.9495 13.5 7.14027 13.421 7.28092 13.2803C7.42157 13.1397 7.50059 12.9489 7.50059 12.75V5.24998C7.50071 5.10156 7.45678 4.95644 7.37438 4.83299C7.29198 4.70955 7.1748 4.61333 7.03768 4.55651C6.90057 4.4997 6.74967 4.48485 6.60411 4.51383C6.45855 4.54282 6.32486 4.61435 6.21996 4.71936L2.46996 8.46936C2.40023 8.53901 2.34491 8.62173 2.30717 8.71278C2.26943 8.80382 2.25 8.90142 2.25 8.99998C2.25 9.09854 2.26943 9.19614 2.30717 9.28719C2.34491 9.37823 2.40023 9.46095 2.46996 9.53061L6.21996 13.2806C6.28967 13.3502 6.37241 13.4054 6.46345 13.4431C6.5545 13.4807 6.65207 13.5001 6.75059 13.5Z" fill="black"/>
</svg>
