<svg width="24" height="24" viewBox="0 0 24 24" fill="none" xmlns="http://www.w3.org/2000/svg">
<path d="M16.6322 7.55062C16.5195 7.38686 16.4765 7.18508 16.5125 6.9896C16.5486 6.79413 16.6607 6.62096 16.8244 6.50812C17.7994 5.835 19.3256 5.835 20.3006 6.50812C20.7694 6.83344 21.6019 6.83344 22.0744 6.50812C22.2381 6.40409 22.4358 6.36754 22.6259 6.40616C22.816 6.44477 22.9837 6.55555 23.0939 6.71522C23.2041 6.87489 23.2481 7.07103 23.2167 7.26247C23.1853 7.4539 23.081 7.62573 22.9256 7.74188C22.4057 8.07128 21.803 8.24617 21.1875 8.24617C20.572 8.24617 19.9693 8.07128 19.4494 7.74188C18.9806 7.41656 18.1481 7.41656 17.6756 7.74188C17.5946 7.79785 17.5033 7.8373 17.4069 7.85798C17.3106 7.87866 17.2112 7.88016 17.1143 7.8624C17.0174 7.84464 16.9249 7.80796 16.8422 7.75447C16.7595 7.70097 16.6881 7.63171 16.6322 7.55062ZM22.0744 9.50813C21.6056 9.83344 20.7731 9.83344 20.3006 9.50813C19.3256 8.835 17.7994 8.835 16.8244 9.50813C16.7392 9.56223 16.6659 9.63296 16.6087 9.71607C16.5515 9.79919 16.5117 9.89299 16.4916 9.99185C16.4715 10.0907 16.4716 10.1926 16.4918 10.2915C16.512 10.3903 16.552 10.484 16.6093 10.5671C16.6666 10.6501 16.74 10.7207 16.8253 10.7747C16.9105 10.8287 17.0057 10.865 17.1053 10.8813C17.2048 10.8976 17.3067 10.8937 17.4047 10.8697C17.5027 10.8458 17.5948 10.8023 17.6756 10.7419C18.1444 10.4166 18.9769 10.4166 19.4494 10.7419C19.9693 11.0713 20.572 11.2462 21.1875 11.2462C21.803 11.2462 22.4057 11.0713 22.9256 10.7419C23.081 10.6257 23.1853 10.4539 23.2167 10.2625C23.2481 10.071 23.2041 9.87489 23.0939 9.71522C22.9837 9.55555 22.816 9.44477 22.6259 9.40616C22.4358 9.36754 22.2381 9.40409 22.0744 9.50813ZM16.5 18C16.5006 18.9029 16.2683 19.7907 15.8256 20.5776C15.3829 21.3645 14.7448 22.0239 13.9728 22.4922C13.2009 22.9604 12.3212 23.2217 11.4188 23.2507C10.5163 23.2797 9.6217 23.0755 8.82124 22.6578C8.02079 22.2401 7.34158 21.6231 6.84924 20.8662C6.3569 20.1094 6.06806 19.2384 6.01063 18.3373C5.9532 17.4363 6.12913 16.5357 6.5214 15.7224C6.91368 14.9092 7.50905 14.2109 8.25 13.695V3.75C8.25 2.95435 8.56607 2.19129 9.12868 1.62868C9.69129 1.06607 10.4544 0.75 11.25 0.75C12.0457 0.75 12.8087 1.06607 13.3713 1.62868C13.9339 2.19129 14.25 2.95435 14.25 3.75V13.695C14.9441 14.1783 15.5111 14.8221 15.9028 15.5716C16.2946 16.3212 16.4994 17.1543 16.5 18ZM12.75 3.75C12.75 3.35218 12.592 2.97064 12.3107 2.68934C12.0294 2.40804 11.6478 2.25 11.25 2.25C10.8522 2.25 10.4706 2.40804 10.1893 2.68934C9.90804 2.97064 9.75 3.35218 9.75 3.75V7.5H12.75V3.75Z" fill="black"/>
</svg>
