<svg width="24" height="24" viewBox="0 0 24 24" fill="none" xmlns="http://www.w3.org/2000/svg">
<path d="M23.3353 7.28625L21.4603 7.89469L22.6172 9.48844C22.6783 9.56787 22.7229 9.65876 22.7483 9.75573C22.7737 9.85269 22.7795 9.95377 22.7651 10.053C22.7508 10.1522 22.7168 10.2475 22.665 10.3334C22.6132 10.4192 22.5447 10.4938 22.4636 10.5527C22.3825 10.6116 22.2904 10.6536 22.1928 10.6764C22.0952 10.6991 21.994 10.702 21.8952 10.6849C21.7964 10.6679 21.7021 10.6312 21.6177 10.577C21.5334 10.5229 21.4607 10.4524 21.4041 10.3697L20.25 8.77594L19.0931 10.3697C18.974 10.5245 18.7992 10.6267 18.6059 10.6546C18.4126 10.6825 18.216 10.6338 18.058 10.5191C17.9 10.4043 17.7929 10.2324 17.7597 10.0399C17.7265 9.84742 17.7696 9.64958 17.88 9.48844L19.0369 7.89469L17.1619 7.28625C16.9727 7.22484 16.8156 7.09077 16.7252 6.91355C16.6349 6.73633 16.6186 6.53047 16.68 6.34125C16.7414 6.15203 16.8755 5.99497 17.0527 5.9046C17.2299 5.81423 17.4358 5.79796 17.625 5.85938L19.5 6.46875V4.5C19.5 4.30109 19.579 4.11032 19.7197 3.96967C19.8603 3.82902 20.0511 3.75 20.25 3.75C20.4489 3.75 20.6397 3.82902 20.7803 3.96967C20.921 4.11032 21 4.30109 21 4.5V6.46875L22.875 5.86031C23.0642 5.79877 23.2701 5.81492 23.4474 5.9052C23.6247 5.99548 23.7589 6.1525 23.8205 6.34172C23.882 6.53093 23.8659 6.73685 23.7756 6.91416C23.6853 7.09147 23.5283 7.22565 23.3391 7.28719L23.3353 7.28625ZM16.5 18C16.5006 18.9029 16.2683 19.7907 15.8256 20.5776C15.3829 21.3645 14.7448 22.0239 13.9728 22.4922C13.2009 22.9604 12.3212 23.2217 11.4188 23.2507C10.5163 23.2797 9.6217 23.0755 8.82124 22.6578C8.02079 22.2401 7.34158 21.6231 6.84924 20.8662C6.3569 20.1094 6.06806 19.2384 6.01063 18.3373C5.9532 17.4363 6.12913 16.5357 6.5214 15.7224C6.91368 14.9092 7.50905 14.2109 8.25 13.695V3.75C8.25 2.95435 8.56607 2.19129 9.12868 1.62868C9.69129 1.06607 10.4544 0.75 11.25 0.75C12.0457 0.75 12.8087 1.06607 13.3713 1.62868C13.9339 2.19129 14.25 2.95435 14.25 3.75V13.695C14.9441 14.1783 15.5111 14.8221 15.9028 15.5716C16.2946 16.3212 16.4994 17.1543 16.5 18ZM12.75 3.75C12.75 3.35218 12.592 2.97064 12.3107 2.68934C12.0294 2.40804 11.6478 2.25 11.25 2.25C10.8522 2.25 10.4706 2.40804 10.1893 2.68934C9.90804 2.97064 9.75 3.35218 9.75 3.75V7.5H12.75V3.75Z" fill="black"/>
</svg>
