<svg width="24" height="24" viewBox="0 0 24 24" fill="none" xmlns="http://www.w3.org/2000/svg">
<g clip-path="url(#clip0_639_8598)">
<path d="M23.7812 9.53061L20.4062 12.9056C20.3366 12.9753 20.2538 13.0307 20.1628 13.0684C20.0717 13.1061 19.9742 13.1256 19.8756 13.1256C19.777 13.1256 19.6794 13.1061 19.5884 13.0684C19.4973 13.0307 19.4146 12.9753 19.345 12.9056L15.97 9.53061L15.9381 9.49498L15.9062 9.53061L12.6859 12.75L15.9062 15.9694C15.9759 16.039 16.0313 16.1217 16.069 16.2128C16.1068 16.3038 16.1262 16.4014 16.1262 16.5C16.1262 16.5985 16.1068 16.6961 16.069 16.7872C16.0313 16.8782 15.9759 16.9609 15.9062 17.0306L12.5312 20.4056C12.4616 20.4753 12.3788 20.5307 12.2878 20.5684C12.1967 20.6061 12.0992 20.6256 12.0006 20.6256C11.902 20.6256 11.8044 20.6061 11.7134 20.5684C11.6223 20.5307 11.5396 20.4753 11.47 20.4056L8.09496 17.0306C8.02523 16.9609 7.96991 16.8782 7.93217 16.7872C7.89443 16.6961 7.875 16.5985 7.875 16.5C7.875 16.4014 7.89443 16.3038 7.93217 16.2128C7.96991 16.1217 8.02523 16.039 8.09496 15.9694L11.3153 12.75L8.09496 9.53061L8.06309 9.49498L8.03122 9.53061L4.65622 12.9056C4.58656 12.9753 4.50384 13.0307 4.4128 13.0684C4.32175 13.1061 4.22415 13.1256 4.12559 13.1256C4.02703 13.1256 3.92943 13.1061 3.83838 13.0684C3.74734 13.0307 3.66462 12.9753 3.59496 12.9056L0.219965 9.53061C0.150233 9.46095 0.0949134 9.37823 0.0571702 9.28718C0.019427 9.19614 0 9.09854 0 8.99998C0 8.90142 0.019427 8.80382 0.0571702 8.71277C0.0949134 8.62173 0.150233 8.53901 0.219965 8.46935L3.59496 5.09435C3.66462 5.02462 3.74734 4.9693 3.83838 4.93156C3.92943 4.89382 4.02703 4.87439 4.12559 4.87439C4.22415 4.87439 4.32175 4.89382 4.4128 4.93156C4.50384 4.9693 4.58656 5.02462 4.65622 5.09435L8.03122 8.46935L8.06309 8.50498L8.09496 8.46935L11.47 5.09435C11.5396 5.02462 11.6223 4.9693 11.7134 4.93156C11.8044 4.89382 11.902 4.87439 12.0006 4.87439C12.0992 4.87439 12.1967 4.89382 12.2878 4.93156C12.3788 4.9693 12.4616 5.02462 12.5312 5.09435L15.9062 8.46935L15.9381 8.50498L15.97 8.46935L19.345 5.09435C19.4146 5.02462 19.4973 4.9693 19.5884 4.93156C19.6794 4.89382 19.777 4.87439 19.8756 4.87439C19.9742 4.87439 20.0717 4.89382 20.1628 4.93156C20.2538 4.9693 20.3366 5.02462 20.4062 5.09435L23.7812 8.46935C23.8509 8.53901 23.9063 8.62173 23.944 8.71277C23.9818 8.80382 24.0012 8.90142 24.0012 8.99998C24.0012 9.09854 23.9818 9.19614 23.944 9.28718C23.9063 9.37823 23.8509 9.46095 23.7812 9.53061Z" fill="black"/>
</g>
<defs>
<clipPath id="clip0_639_8598">
<rect width="24" height="24" fill="white"/>
</clipPath>
</defs>
</svg>
