<svg width="24" height="24" viewBox="0 0 24 24" fill="none" xmlns="http://www.w3.org/2000/svg">
<path d="M22.3819 19.846L12.8907 5.01565L14.8819 1.90409C14.935 1.82111 14.9712 1.72849 14.9884 1.63153C15.0057 1.53456 15.0037 1.43514 14.9825 1.33894C14.9614 1.24275 14.9215 1.15166 14.8651 1.07088C14.8088 0.990103 14.7371 0.921217 14.6541 0.868154C14.5711 0.815092 14.4785 0.778893 14.3815 0.761625C14.2846 0.744357 14.1851 0.746357 14.0889 0.767511C13.9927 0.788665 13.9017 0.82856 13.8209 0.884916C13.7401 0.941273 13.6712 1.01299 13.6182 1.09597L12 3.6244L10.3819 1.09315C10.2747 0.925571 10.1054 0.807422 9.91111 0.764698C9.71684 0.721975 9.51355 0.758178 9.34596 0.865342C9.17838 0.972506 9.06023 1.14185 9.01751 1.33613C8.97478 1.53041 9.01099 1.7337 9.11815 1.90128L11.1094 5.01565L1.61815 19.846C1.54567 19.9593 1.50501 20.0901 1.50043 20.2245C1.49586 20.359 1.52754 20.4922 1.59215 20.6102C1.65676 20.7282 1.75193 20.8267 1.86768 20.8953C1.98342 20.9638 2.11549 21 2.25003 21H21.75C21.8846 21 22.0166 20.9638 22.1324 20.8953C22.2481 20.8267 22.3433 20.7282 22.4079 20.6102C22.4725 20.4922 22.5042 20.359 22.4996 20.2245C22.495 20.0901 22.4544 19.9593 22.3819 19.846ZM17.6944 19.5L12.6319 11.596C12.5641 11.4899 12.4707 11.4026 12.3602 11.3421C12.2498 11.2817 12.1259 11.25 12 11.25C11.8741 11.25 11.7503 11.2817 11.6398 11.3421C11.5294 11.4026 11.436 11.4899 11.3682 11.596L6.3094 19.5H3.62065L12 6.4069L20.3794 19.5H17.6944Z" fill="black"/>
</svg>
