<svg width="24" height="24" viewBox="0 0 24 24" fill="none" xmlns="http://www.w3.org/2000/svg">
<path d="M22.4846 5.65593C22.4606 5.77423 22.4085 5.88501 22.3326 5.97886C22.2567 6.07271 22.1593 6.14685 22.0486 6.195L16.7808 8.48906C18.4948 8.94732 19.9568 10.0671 20.8458 11.6025C21.2918 12.3636 21.5813 13.2061 21.6972 14.0806C21.8131 14.9551 21.7531 15.844 21.5208 16.695C21.4887 16.8136 21.4279 16.9225 21.3439 17.0121C21.2599 17.1017 21.1551 17.1692 21.0388 17.2089C20.9225 17.2485 20.7983 17.2589 20.677 17.2393C20.5557 17.2197 20.4411 17.1705 20.3433 17.0962L12.7496 11.3137V21C12.7496 21.1989 12.6705 21.3897 12.5299 21.5303C12.3892 21.671 12.1985 21.75 11.9996 21.75C11.8006 21.75 11.6099 21.671 11.4692 21.5303C11.3286 21.3897 11.2496 21.1989 11.2496 21V11.3137L3.65581 17.0962C3.55796 17.1708 3.44329 17.2201 3.32191 17.2398C3.20052 17.2596 3.07613 17.2492 2.95971 17.2095C2.84329 17.1699 2.73841 17.1022 2.65429 17.0125C2.57018 16.9228 2.50942 16.8137 2.47737 16.695C2.24504 15.844 2.18507 14.9551 2.30098 14.0806C2.41689 13.2061 2.70636 12.3636 3.15237 11.6025C4.04158 10.0669 5.50398 8.9471 7.21831 8.48906L1.9505 6.195C1.83991 6.14683 1.74257 6.07269 1.66674 5.97888C1.5909 5.88507 1.53882 5.77436 1.5149 5.65613C1.49097 5.5379 1.49592 5.41564 1.52932 5.29973C1.56272 5.18383 1.62358 5.07768 1.70675 4.99031C2.29319 4.3622 3.00253 3.86139 3.79068 3.51898C4.57884 3.17657 5.42899 2.99988 6.28831 2.99988C7.14763 2.99988 7.99778 3.17657 8.78593 3.51898C9.57409 3.86139 10.2834 4.3622 10.8699 4.99031C11.3199 5.46446 11.6988 6.00128 11.9949 6.58406C12.2924 6.00098 12.6729 5.46415 13.1246 4.99031C13.711 4.3622 14.4203 3.86139 15.2085 3.51898C15.9967 3.17657 16.8468 2.99988 17.7061 2.99988C18.5654 2.99988 19.4156 3.17657 20.2037 3.51898C20.9919 3.86139 21.7012 4.3622 22.2877 4.99031C22.3717 5.07718 22.4335 5.18308 22.4678 5.29897C22.502 5.41487 22.5078 5.53733 22.4846 5.65593Z" fill="black"/>
</svg>
