<svg width="24" height="24" viewBox="0 0 24 24" fill="none" xmlns="http://www.w3.org/2000/svg">
<path d="M21.6735 18.329C21.6119 18.4553 21.516 18.5617 21.3968 18.6361C21.2776 18.7105 21.1399 18.75 20.9994 18.75H12.7494V22.5C12.7494 22.6989 12.6704 22.8897 12.5298 23.0303C12.3891 23.171 12.1983 23.25 11.9994 23.25C11.8005 23.25 11.6098 23.171 11.4691 23.0303C11.3285 22.8897 11.2494 22.6989 11.2494 22.5V18.75H2.99944C2.8591 18.7499 2.72161 18.7104 2.60259 18.636C2.48357 18.5617 2.38781 18.4554 2.32618 18.3293C2.26455 18.2032 2.23954 18.0624 2.25398 17.9228C2.26842 17.7832 2.32174 17.6505 2.40788 17.5397L6.72038 12H4.49944C4.35935 12 4.22205 11.9608 4.10311 11.8868C3.98417 11.8127 3.88834 11.7069 3.82647 11.5812C3.7646 11.4555 3.73917 11.315 3.75306 11.1756C3.76695 11.0362 3.81961 10.9035 3.90506 10.7925L11.4051 1.04247C11.4751 0.951445 11.5651 0.877722 11.6682 0.826991C11.7712 0.776261 11.8846 0.749878 11.9994 0.749878C12.1143 0.749878 12.2276 0.776261 12.3307 0.826991C12.4337 0.877722 12.5238 0.951445 12.5938 1.04247L20.0938 10.7925C20.1793 10.9035 20.2319 11.0362 20.2458 11.1756C20.2597 11.315 20.2343 11.4555 20.1724 11.5812C20.1105 11.7069 20.0147 11.8127 19.8958 11.8868C19.7768 11.9608 19.6395 12 19.4994 12H17.2832L21.591 17.5397C21.6772 17.6504 21.7306 17.783 21.7452 17.9225C21.7598 18.0621 21.735 18.2029 21.6735 18.329Z" fill="black"/>
</svg>
