<svg width="24" height="24" viewBox="0 0 24 24" fill="none" xmlns="http://www.w3.org/2000/svg">
<path d="M22.5004 12.7501V18.7501C22.5004 18.949 22.4214 19.1397 22.2807 19.2804C22.1401 19.421 21.9493 19.5001 21.7504 19.5001H15.7504C15.602 19.5002 15.4569 19.4562 15.3334 19.3738C15.21 19.2914 15.1138 19.1743 15.057 19.0371C15.0001 18.9 14.9853 18.7491 15.0143 18.6036C15.0433 18.458 15.1148 18.3243 15.2198 18.2194L17.6901 15.7501L12.7504 10.8104L9.53104 14.0307C9.46139 14.1004 9.37867 14.1557 9.28762 14.1935C9.19657 14.2312 9.09898 14.2506 9.00042 14.2506C8.90186 14.2506 8.80426 14.2312 8.71321 14.1935C8.62216 14.1557 8.53945 14.1004 8.46979 14.0307L1.71979 7.28068C1.57906 7.13995 1.5 6.94907 1.5 6.75005C1.5 6.55103 1.57906 6.36016 1.71979 6.21943C1.86052 6.07869 2.05139 5.99963 2.25042 5.99963C2.44944 5.99963 2.64031 6.07869 2.78104 6.21943L9.00042 12.4397L12.2198 9.21943C12.2894 9.14969 12.3722 9.09437 12.4632 9.05663C12.5543 9.01889 12.6519 8.99946 12.7504 8.99946C12.849 8.99946 12.9466 9.01889 13.0376 9.05663C13.1287 9.09437 13.2114 9.14969 13.281 9.21943L18.7504 14.6897L21.2198 12.2194C21.3247 12.1144 21.4584 12.0429 21.6039 12.0139C21.7495 11.9849 21.9004 11.9998 22.0375 12.0566C22.1746 12.1134 22.2918 12.2096 22.3742 12.3331C22.4566 12.4565 22.5005 12.6016 22.5004 12.7501Z" fill="black"/>
</svg>
