<svg width="24" height="24" viewBox="0 0 24 24" fill="none" xmlns="http://www.w3.org/2000/svg">
<path d="M23.0318 7.28068L20.2286 10.0838C19.6624 16.6482 14.1265 21.7501 7.50115 21.7501C6.13989 21.7501 5.01771 21.5344 4.16552 21.1088C3.47833 20.7647 3.19708 20.3963 3.12677 20.2913C3.06407 20.1973 3.02344 20.0903 3.00789 19.9784C2.99235 19.8664 3.00231 19.7524 3.03701 19.6449C3.07172 19.5373 3.13029 19.439 3.20833 19.3573C3.28637 19.2756 3.38188 19.2125 3.48771 19.1729C3.51208 19.1635 5.76021 18.3001 7.18802 16.6566C6.39619 16.0056 5.70497 15.2411 5.13677 14.3879C3.97427 12.6619 2.67302 9.66381 3.07427 5.1835C3.08699 5.04113 3.14012 4.90537 3.22741 4.79219C3.3147 4.67901 3.43252 4.59313 3.56698 4.54467C3.70144 4.4962 3.84696 4.48717 3.98638 4.51863C4.12581 4.55009 4.25334 4.62073 4.35396 4.72225C4.38677 4.75506 7.47396 7.82537 11.2483 8.821V8.25006C11.2469 7.65137 11.3653 7.05844 11.5965 6.50619C11.8277 5.95394 12.167 5.45353 12.5946 5.03443C13.0098 4.6198 13.5039 4.29253 14.0476 4.07194C14.5914 3.85135 15.1738 3.7419 15.7605 3.75006C16.5476 3.75782 17.3193 3.96911 18.0006 4.36338C18.6818 4.75764 19.2495 5.32148 19.6483 6.00006H22.5011C22.6496 5.99994 22.7947 6.04386 22.9181 6.12627C23.0416 6.20867 23.1378 6.32585 23.1946 6.46297C23.2514 6.60008 23.2663 6.75097 23.2373 6.89654C23.2083 7.0421 23.1368 7.17579 23.0318 7.28068Z" fill="black"/>
</svg>
