<svg width="24" height="24" viewBox="0 0 24 24" fill="none" xmlns="http://www.w3.org/2000/svg">
<path d="M22.1002 13.0154C21.9599 13.1679 21.7895 13.2898 21.5997 13.3732C21.41 13.4566 21.205 13.4998 20.9977 13.5H12.7477V18.75C12.7477 19.1479 12.9057 19.5294 13.187 19.8107C13.4683 20.092 13.8499 20.25 14.2477 20.25C14.6455 20.25 15.0271 20.092 15.3084 19.8107C15.5897 19.5294 15.7477 19.1479 15.7477 18.75C15.7477 18.5511 15.8267 18.3604 15.9674 18.2197C16.108 18.0791 16.2988 18 16.4977 18C16.6966 18 16.8874 18.0791 17.028 18.2197C17.1687 18.3604 17.2477 18.5511 17.2477 18.75C17.2477 19.5457 16.9316 20.3088 16.369 20.8714C15.8064 21.434 15.0433 21.75 14.2477 21.75C13.452 21.75 12.689 21.434 12.1264 20.8714C11.5638 20.3088 11.2477 19.5457 11.2477 18.75V13.5H2.9977C2.78942 13.5008 2.58328 13.4582 2.39238 13.3749C2.20148 13.2916 2.03002 13.1695 1.88891 13.0163C1.7478 12.8631 1.64015 12.6822 1.57279 12.4851C1.50544 12.2881 1.47986 12.0791 1.4977 11.8716C1.6696 9.90929 2.38789 8.03441 3.57113 6.45955C4.75437 4.8847 6.35521 3.6729 8.19211 2.96156C10.029 2.25023 12.0285 2.06782 13.9638 2.43502C15.8991 2.80223 17.6928 3.70436 19.1414 5.03911C21.0787 6.81416 22.2769 9.25337 22.4977 11.8716C22.514 12.0794 22.4871 12.2882 22.4187 12.4851C22.3503 12.6819 22.2418 12.8625 22.1002 13.0154Z" fill="black"/>
</svg>
