<svg width="24" height="24" viewBox="0 0 24 24" fill="none" xmlns="http://www.w3.org/2000/svg">
<path d="M6.00113 15C6.00113 15.3 6.01613 15.5972 6.04519 15.8897C4.9175 15.4078 3.92517 14.6568 3.15513 13.7024C2.38509 12.7479 1.86083 11.6193 1.62828 10.4152C1.39572 9.2111 1.46197 7.96837 1.82122 6.79584C2.18046 5.62331 2.82174 4.55676 3.68889 3.68962C4.55603 2.82248 5.62258 2.18119 6.79511 1.82195C7.96764 1.4627 9.21037 1.39646 10.4144 1.62901C11.6185 1.86156 12.7472 2.38582 13.7016 3.15586C14.656 3.9259 15.4071 4.91823 15.8889 6.04592C15.5964 6.01686 15.2993 6.00186 14.9993 6.00186C12.6138 6.00509 10.327 6.95414 8.64018 8.64091C6.9534 10.3277 6.00435 12.6145 6.00113 15ZM16.5011 8.99999C16.5009 8.53981 16.4579 8.08065 16.3727 7.62842C15.9205 7.54321 15.4613 7.50021 15.0011 7.49999C13.0127 7.50222 11.1063 8.29311 9.70029 9.69915C8.29426 11.1052 7.50336 13.0115 7.50113 15C7.50136 15.4602 7.54436 15.9193 7.62957 16.3715C8.08179 16.4568 8.54095 16.4998 9.00113 16.5C10.9896 16.4978 12.8959 15.7069 14.302 14.3008C15.708 12.8948 16.4989 10.9884 16.5011 8.99999ZM17.9571 8.1103C17.9861 8.4028 18.0011 8.69999 18.0011 8.99999C17.9984 11.3861 17.0493 13.6737 15.3621 15.3609C13.6748 17.0482 11.3872 17.9973 9.00113 18C8.70113 18 8.40394 17.985 8.11144 17.9559C8.59331 19.0836 9.34434 20.0759 10.2988 20.846C11.2532 21.616 12.3819 22.1403 13.5859 22.3728C14.79 22.6054 16.0327 22.5391 17.2053 22.1799C18.3778 21.8207 19.4444 21.1794 20.3115 20.3122C21.1786 19.4451 21.8199 18.3785 22.1792 17.206C22.5384 16.0335 22.6047 14.7907 22.3721 13.5867C22.1396 12.3826 21.6153 11.2539 20.8453 10.2995C20.0752 9.34508 19.0829 8.59404 17.9552 8.11217L17.9571 8.1103Z" fill="black"/>
</svg>
