<svg width="24" height="24" viewBox="0 0 24 24" fill="none" xmlns="http://www.w3.org/2000/svg">
<path d="M21 14.25V19.5C21 19.8978 20.842 20.2793 20.5607 20.5606C20.2794 20.8419 19.8978 21 19.5 21H4.5C4.10218 21 3.72064 20.8419 3.43934 20.5606C3.15804 20.2793 3 19.8978 3 19.5V14.25C3 14.0511 3.07902 13.8603 3.21967 13.7196C3.36032 13.579 3.55109 13.5 3.75 13.5C3.94891 13.5 4.13968 13.579 4.28033 13.7196C4.42098 13.8603 4.5 14.0511 4.5 14.25V19.5H19.5V14.25C19.5 14.0511 19.579 13.8603 19.7197 13.7196C19.8603 13.579 20.0511 13.5 20.25 13.5C20.4489 13.5 20.6397 13.579 20.7803 13.7196C20.921 13.8603 21 14.0511 21 14.25ZM8.25 8.24998H11.25V14.25C11.25 14.4489 11.329 14.6397 11.4697 14.7803C11.6103 14.921 11.8011 15 12 15C12.1989 15 12.3897 14.921 12.5303 14.7803C12.671 14.6397 12.75 14.4489 12.75 14.25V8.24998H15.75C15.8984 8.2501 16.0435 8.20617 16.167 8.12377C16.2904 8.04137 16.3867 7.92419 16.4435 7.78707C16.5003 7.64996 16.5151 7.49906 16.4861 7.3535C16.4572 7.20794 16.3856 7.07425 16.2806 6.96935L12.5306 3.21935C12.461 3.14962 12.3783 3.0943 12.2872 3.05656C12.1962 3.01882 12.0986 2.99939 12 2.99939C11.9014 2.99939 11.8038 3.01882 11.7128 3.05656C11.6217 3.0943 11.539 3.14962 11.4694 3.21935L7.71937 6.96935C7.61437 7.07425 7.54284 7.20794 7.51385 7.3535C7.48487 7.49906 7.49972 7.64996 7.55653 7.78707C7.61335 7.92419 7.70957 8.04137 7.83301 8.12377C7.95646 8.20617 8.10158 8.2501 8.25 8.24998Z" fill="black"/>
</svg>
