<svg width="24" height="24" viewBox="0 0 24 24" fill="none" xmlns="http://www.w3.org/2000/svg">
<path d="M15.7506 5.25001C15.7506 5.0511 15.8297 4.86033 15.9703 4.71968C16.111 4.57903 16.3017 4.50001 16.5006 4.50001H21.0006C21.1995 4.50001 21.3903 4.57903 21.531 4.71968C21.6716 4.86033 21.7506 5.0511 21.7506 5.25001C21.7506 5.44892 21.6716 5.63969 21.531 5.78034C21.3903 5.92099 21.1995 6.00001 21.0006 6.00001H16.5006C16.3017 6.00001 16.111 5.92099 15.9703 5.78034C15.8297 5.63969 15.7506 5.44892 15.7506 5.25001ZM20.7522 9.76032C20.556 9.79315 20.3809 9.90256 20.2654 10.0645C20.1499 10.2264 20.1034 10.4276 20.1363 10.6238C20.2124 11.0786 20.2507 11.5389 20.2506 12C20.2524 14.0196 19.5102 15.969 18.1656 17.4759C17.6201 16.6853 16.9275 16.007 16.1256 15.4781C16.0572 15.4327 15.9757 15.4111 15.8937 15.4165C15.8117 15.4219 15.7338 15.4541 15.6719 15.5081C14.6529 16.3898 13.3505 16.8751 12.003 16.8751C10.6555 16.8751 9.35307 16.3898 8.33407 15.5081C8.2718 15.453 8.19297 15.4201 8.10999 15.4147C8.027 15.4093 7.94456 15.4316 7.87564 15.4781C7.07254 16.0065 6.37892 16.6848 5.83282 17.4759C4.77771 16.287 4.08856 14.8185 3.84826 13.2472C3.60795 11.6758 3.82673 10.0685 4.47828 8.61854C5.12982 7.16858 6.18639 5.93773 7.52089 5.07403C8.8554 4.21033 10.411 3.75055 12.0006 3.75001C12.4618 3.74994 12.9221 3.78819 13.3769 3.86439C13.5722 3.8952 13.7717 3.84766 13.9322 3.73209C14.0926 3.61653 14.2009 3.4423 14.2335 3.24731C14.2661 3.05231 14.2204 2.85232 14.1064 2.69083C13.9923 2.52935 13.8191 2.41944 13.6244 2.38501C11.5876 2.04237 9.49464 2.35589 7.64767 3.2803C5.80069 4.20471 4.29529 5.69218 3.34881 7.52795C2.40233 9.36371 2.06375 11.4528 2.38196 13.4935C2.70016 15.5342 3.65869 17.421 5.11915 18.8815C6.5796 20.342 8.46641 21.3005 10.5071 21.6187C12.5479 21.9369 14.6369 21.5983 16.4727 20.6518C18.3085 19.7054 19.7959 18.2 20.7203 16.353C21.6448 14.506 21.9583 12.413 21.6156 10.3763C21.5828 10.1801 21.4734 10.005 21.3115 9.88948C21.1495 9.77397 20.9484 9.72751 20.7522 9.76032ZM7.87564 11.25C7.87564 12.0659 8.11756 12.8634 8.57082 13.5417C9.02408 14.2201 9.66832 14.7488 10.4221 15.061C11.1758 15.3732 12.0052 15.4549 12.8054 15.2957C13.6056 15.1366 14.3406 14.7437 14.9174 14.1668C15.4943 13.5899 15.8872 12.8549 16.0464 12.0548C16.2055 11.2546 16.1238 10.4252 15.8116 9.67144C15.4994 8.9177 14.9707 8.27346 14.2924 7.8202C13.614 7.36694 12.8165 7.12501 12.0006 7.12501C10.9066 7.12501 9.85741 7.55961 9.08382 8.33319C8.31023 9.10678 7.87564 10.156 7.87564 11.25Z" fill="black"/>
</svg>
