<svg width="24" height="24" viewBox="0 0 24 24" fill="none" xmlns="http://www.w3.org/2000/svg">
<g clip-path="url(#clip0_639_8545)">
<path d="M24.003 12.75C24.003 12.9489 23.9239 13.1396 23.7833 13.2803C23.6426 13.4209 23.4519 13.5 23.253 13.5H21.753V15C21.753 15.1989 21.6739 15.3896 21.5333 15.5303C21.3926 15.6709 21.2019 15.75 21.003 15.75C20.804 15.75 20.6133 15.6709 20.4726 15.5303C20.332 15.3896 20.253 15.1989 20.253 15V13.5H18.753C18.554 13.5 18.3633 13.4209 18.2226 13.2803C18.082 13.1396 18.003 12.9489 18.003 12.75C18.003 12.5511 18.082 12.3603 18.2226 12.2196C18.3633 12.079 18.554 12 18.753 12H20.253V10.5C20.253 10.3011 20.332 10.1103 20.4726 9.96964C20.6133 9.82898 20.804 9.74997 21.003 9.74997C21.2019 9.74997 21.3926 9.82898 21.5333 9.96964C21.6739 10.1103 21.753 10.3011 21.753 10.5V12H23.253C23.4519 12 23.6426 12.079 23.7833 12.2196C23.9239 12.3603 24.003 12.5511 24.003 12.75ZM13.503 14.7825C14.6787 14.0502 15.5839 12.9549 16.0817 11.6623C16.5795 10.3698 16.6428 8.95025 16.262 7.61852C15.8812 6.28678 15.077 5.11531 13.9711 4.28132C12.8652 3.44733 11.5178 2.99622 10.1326 2.99622C8.74754 2.99622 7.40011 3.44733 6.29421 4.28132C5.18832 5.11531 4.38413 6.28678 4.00332 7.61852C3.62251 8.95025 3.68579 10.3698 4.18359 11.6623C4.68139 12.9549 5.58662 14.0502 6.76234 14.7825C4.8264 15.4162 3.08452 16.6003 1.6839 18.2672C1.5922 18.3761 1.53344 18.509 1.51448 18.6502C1.49553 18.7913 1.51716 18.935 1.57686 19.0643C1.63655 19.1936 1.73184 19.3033 1.85157 19.3804C1.9713 19.4576 2.11053 19.499 2.25296 19.5H18.003C18.1459 19.5001 18.2859 19.4594 18.4064 19.3827C18.527 19.306 18.6231 19.1964 18.6835 19.0668C18.7439 18.9373 18.766 18.7932 18.7472 18.6516C18.7285 18.5099 18.6696 18.3765 18.5777 18.2672C17.1761 16.6003 15.4342 15.4162 13.503 14.7825Z" fill="black"/>
</g>
<defs>
<clipPath id="clip0_639_8545">
<rect width="24" height="24" fill="white"/>
</clipPath>
</defs>
</svg>
