<svg width="24" height="24" viewBox="0 0 24 24" fill="none" xmlns="http://www.w3.org/2000/svg">
<g clip-path="url(#clip0_639_8547)">
<path d="M13.5004 7.50002C13.5004 7.30111 13.5794 7.11034 13.72 6.96969C13.8607 6.82904 14.0515 6.75002 14.2504 6.75002H23.2504C23.4493 6.75002 23.6401 6.82904 23.7807 6.96969C23.9214 7.11034 24.0004 7.30111 24.0004 7.50002C24.0004 7.69893 23.9214 7.8897 23.7807 8.03035C23.6401 8.171 23.4493 8.25002 23.2504 8.25002H14.2504C14.0515 8.25002 13.8607 8.171 13.72 8.03035C13.5794 7.8897 13.5004 7.69893 13.5004 7.50002ZM23.2504 11.25H14.2504C14.0515 11.25 13.8607 11.329 13.72 11.4697C13.5794 11.6103 13.5004 11.8011 13.5004 12C13.5004 12.1989 13.5794 12.3897 13.72 12.5304C13.8607 12.671 14.0515 12.75 14.2504 12.75H23.2504C23.4493 12.75 23.6401 12.671 23.7807 12.5304C23.9214 12.3897 24.0004 12.1989 24.0004 12C24.0004 11.8011 23.9214 11.6103 23.7807 11.4697C23.6401 11.329 23.4493 11.25 23.2504 11.25ZM23.2504 15.75H16.5004C16.3015 15.75 16.1107 15.829 15.97 15.9697C15.8294 16.1103 15.7504 16.3011 15.7504 16.5C15.7504 16.6989 15.8294 16.8897 15.97 17.0304C16.1107 17.171 16.3015 17.25 16.5004 17.25H23.2504C23.4493 17.25 23.6401 17.171 23.7807 17.0304C23.9214 16.8897 24.0004 16.6989 24.0004 16.5C24.0004 16.3011 23.9214 16.1103 23.7807 15.9697C23.6401 15.829 23.4493 15.75 23.2504 15.75ZM10.2463 13.3125C10.9907 12.7392 11.5369 11.9473 11.8084 11.0478C12.0799 10.1484 12.0631 9.18648 11.7602 8.29707C11.4574 7.40766 10.8838 6.63535 10.1199 6.08843C9.3559 5.54152 8.43992 5.24744 7.50038 5.24744C6.56083 5.24744 5.64485 5.54152 4.8809 6.08843C4.11694 6.63535 3.54333 7.40766 3.24051 8.29707C2.9377 9.18648 2.92086 10.1484 3.19236 11.0478C3.46387 11.9473 4.01009 12.7392 4.75444 13.3125C2.82132 14.131 1.29788 15.7781 0.773816 17.8125C0.745192 17.9234 0.74233 18.0393 0.765448 18.1515C0.788567 18.2636 0.837052 18.369 0.907189 18.4594C0.977325 18.5499 1.06725 18.6232 1.17007 18.6736C1.27289 18.7239 1.38588 18.7501 1.50038 18.75H13.5004C13.6149 18.7501 13.7279 18.7239 13.8307 18.6736C13.9335 18.6232 14.0234 18.5499 14.0936 18.4594C14.1637 18.369 14.2122 18.2636 14.2353 18.1515C14.2584 18.0393 14.2556 17.9234 14.2269 17.8125C13.7029 15.7772 12.1794 14.13 10.2463 13.3125Z" fill="black"/>
</g>
<defs>
<clipPath id="clip0_639_8547">
<rect width="24" height="24" fill="white"/>
</clipPath>
</defs>
</svg>
