<svg width="24" height="24" viewBox="0 0 24 24" fill="none" xmlns="http://www.w3.org/2000/svg">
<path d="M15.4169 18.3403C15.4907 18.4534 15.5326 18.5844 15.5381 18.7194C15.5436 18.8544 15.5125 18.9884 15.4482 19.1072C15.3839 19.226 15.2886 19.3252 15.1726 19.3943C15.0565 19.4634 14.9239 19.4999 14.7888 19.5H0.95694C0.821842 19.4999 0.689257 19.4634 0.573193 19.3943C0.457129 19.3252 0.361895 19.226 0.297553 19.1072C0.233211 18.9884 0.202151 18.8544 0.207654 18.7194C0.213156 18.5844 0.255018 18.4534 0.328815 18.3403C1.38454 16.7152 2.9374 15.4751 4.75569 14.805C3.7505 14.1358 2.98735 13.1609 2.57909 12.0244C2.17084 10.8879 2.13915 9.65024 2.48871 8.49437C2.83828 7.3385 3.55054 6.32581 4.52016 5.60605C5.48979 4.88629 6.66531 4.49768 7.87288 4.49768C9.08045 4.49768 10.256 4.88629 11.2256 5.60605C12.1952 6.32581 12.9075 7.3385 13.257 8.49437C13.6066 9.65024 13.5749 10.8879 13.1667 12.0244C12.7584 13.1609 11.9953 14.1358 10.9901 14.805C12.8084 15.4751 14.3612 16.7152 15.4169 18.3403ZM23.6585 18.3262C22.6025 16.708 21.0531 15.4732 19.2401 14.805C20.4267 14.0056 21.2642 12.7841 21.582 11.389C21.8998 9.99398 21.674 8.53026 20.9506 7.2958C20.2273 6.06134 19.0607 5.14894 17.6883 4.7443C16.3159 4.33967 14.8409 4.47322 13.5635 5.11778C13.5147 5.143 13.472 5.17865 13.4384 5.2222C13.4049 5.26576 13.3813 5.31616 13.3694 5.36983C13.3575 5.4235 13.3576 5.47912 13.3696 5.53277C13.3816 5.58642 13.4052 5.63678 13.4388 5.68028C14.3887 6.8651 14.9342 8.32294 14.9954 9.84026C15.0566 11.3576 14.6304 12.8546 13.7791 14.1122C13.7241 14.1943 13.7038 14.2949 13.7226 14.392C13.7414 14.4891 13.7977 14.5749 13.8794 14.6306C14.9893 15.4052 15.9395 16.3866 16.6779 17.5209C16.9757 17.977 17.0973 18.5258 17.0201 19.065C17.0114 19.1186 17.0144 19.1735 17.029 19.2258C17.0437 19.2781 17.0695 19.3267 17.1047 19.368C17.1399 19.4094 17.1837 19.4426 17.233 19.4654C17.2824 19.4882 17.336 19.5 17.3904 19.5H23.0435C23.2087 19.5 23.3692 19.4456 23.5002 19.345C23.6313 19.2445 23.7255 19.1036 23.7682 18.944C23.7943 18.8391 23.798 18.7299 23.7791 18.6234C23.7602 18.517 23.7191 18.4157 23.6585 18.3262Z" fill="black"/>
</svg>
