<svg width="24" height="24" viewBox="0 0 24 24" fill="none" xmlns="http://www.w3.org/2000/svg">
<path d="M18.5745 18.2672C18.6665 18.3765 18.7253 18.5099 18.7441 18.6516C18.7629 18.7932 18.7407 18.9373 18.6804 19.0668C18.62 19.1964 18.5238 19.306 18.4033 19.3827C18.2827 19.4594 18.1427 19.5001 17.9998 19.5H2.24982C2.10699 19.4999 1.96714 19.4591 1.84672 19.3823C1.72629 19.3055 1.6303 19.1959 1.57003 19.0664C1.50977 18.9369 1.48773 18.7929 1.50652 18.6513C1.5253 18.5097 1.58413 18.3765 1.67607 18.2672C3.0767 16.6003 4.81857 15.4162 6.75451 14.7825C5.5788 14.0502 4.67356 12.9549 4.17576 11.6623C3.67796 10.3698 3.61468 8.95025 3.99549 7.61852C4.37631 6.28678 5.18049 5.11531 6.28639 4.28132C7.39228 3.44733 8.73971 2.99622 10.1248 2.99622C11.5099 2.99622 12.8574 3.44733 13.9633 4.28132C15.0692 5.11531 15.8733 6.28678 16.2542 7.61852C16.635 8.95025 16.5717 10.3698 16.0739 11.6623C15.5761 12.9549 14.6709 14.0502 13.4951 14.7825C15.4311 15.4162 17.1729 16.6003 18.5745 18.2672ZM23.1729 14.4375C23.107 14.5516 23.0122 14.6464 22.898 14.7123C22.7837 14.7781 22.6542 14.8127 22.5223 14.8125C22.3906 14.8129 22.2612 14.7783 22.1473 14.7122L21.7095 14.459C21.5 14.6388 21.2591 14.7783 20.9989 14.8706V15.375C20.9989 15.5739 20.9199 15.7646 20.7792 15.9053C20.6386 16.0459 20.4478 16.125 20.2489 16.125C20.05 16.125 19.8592 16.0459 19.7186 15.9053C19.5779 15.7646 19.4989 15.5739 19.4989 15.375V14.8706C19.2387 14.7783 18.9978 14.6388 18.7883 14.459L18.3504 14.7122C18.2366 14.7783 18.1071 14.8129 17.9754 14.8125C17.8103 14.8125 17.6497 14.7581 17.5187 14.6576C17.3876 14.557 17.2934 14.4161 17.2507 14.2566C17.208 14.097 17.2191 13.9279 17.2823 13.7753C17.3456 13.6227 17.4574 13.4953 17.6004 13.4128L18.0373 13.1606C17.9861 12.8892 17.9861 12.6107 18.0373 12.3393L17.6004 12.0872C17.5151 12.0379 17.4403 11.9723 17.3804 11.8942C17.3204 11.816 17.2764 11.7268 17.2509 11.6317C17.2254 11.5365 17.2189 11.4373 17.2317 11.3396C17.2446 11.242 17.2765 11.1478 17.3258 11.0625C17.375 10.9771 17.4406 10.9024 17.5187 10.8424C17.5969 10.7824 17.6861 10.7384 17.7812 10.7129C17.8764 10.6874 17.9756 10.6809 18.0733 10.6937C18.1709 10.7066 18.2651 10.7385 18.3504 10.7878L18.7883 11.0409C18.9978 10.8611 19.2387 10.7216 19.4989 10.6293V10.125C19.4989 9.92605 19.5779 9.73529 19.7186 9.59464C19.8592 9.45398 20.05 9.37497 20.2489 9.37497C20.4478 9.37497 20.6386 9.45398 20.7792 9.59464C20.9199 9.73529 20.9989 9.92605 20.9989 10.125V10.6293C21.2591 10.7216 21.5 10.8611 21.7095 11.0409L22.1473 10.7878C22.2326 10.7385 22.3268 10.7066 22.4245 10.6937C22.5222 10.6809 22.6214 10.6874 22.7166 10.7129C22.8117 10.7384 22.9009 10.7824 22.9791 10.8424C23.0572 10.9024 23.1228 10.9771 23.172 11.0625C23.2213 11.1478 23.2532 11.242 23.2661 11.3396C23.2789 11.4373 23.2724 11.5365 23.2469 11.6317C23.2214 11.7268 23.1774 11.816 23.1174 11.8942C23.0574 11.9723 22.9826 12.0379 22.8973 12.0872L22.4604 12.3393C22.5117 12.6107 22.5117 12.8892 22.4604 13.1606L22.8973 13.4128C22.9827 13.4619 23.0576 13.5274 23.1177 13.6055C23.1778 13.6837 23.2219 13.7728 23.2475 13.868C23.2731 13.9632 23.2797 14.0624 23.2669 14.1602C23.2541 14.2579 23.2222 14.3521 23.1729 14.4375ZM20.2498 13.5C20.3982 13.5 20.5432 13.456 20.6665 13.3736C20.7898 13.2912 20.886 13.174 20.9427 13.037C20.9995 12.8999 21.0144 12.7491 20.9854 12.6036C20.9565 12.4582 20.885 12.3245 20.7802 12.2196C20.6753 12.1147 20.5416 12.0433 20.3961 12.0144C20.2507 11.9854 20.0999 12.0003 19.9628 12.0571C19.8258 12.1138 19.7086 12.21 19.6262 12.3333C19.5438 12.4566 19.4998 12.6016 19.4998 12.75C19.4998 12.9489 19.5788 13.1396 19.7195 13.2803C19.8601 13.4209 20.0509 13.5 20.2498 13.5Z" fill="black"/>
</svg>
