<svg width="24" height="24" viewBox="0 0 24 24" fill="none" xmlns="http://www.w3.org/2000/svg">
<path d="M18.5745 18.2672C18.6665 18.3765 18.7253 18.5099 18.7441 18.6516C18.7629 18.7932 18.7407 18.9373 18.6804 19.0668C18.62 19.1964 18.5238 19.306 18.4033 19.3827C18.2827 19.4594 18.1427 19.5001 17.9998 19.5H2.24982C2.10699 19.4999 1.96714 19.4591 1.84672 19.3823C1.72629 19.3055 1.6303 19.1959 1.57003 19.0664C1.50977 18.9369 1.48773 18.7929 1.50652 18.6513C1.5253 18.5097 1.58413 18.3765 1.67607 18.2672C3.0767 16.6003 4.81857 15.4162 6.75451 14.7825C5.5788 14.0502 4.67356 12.9549 4.17576 11.6623C3.67796 10.3698 3.61468 8.95025 3.99549 7.61852C4.37631 6.28678 5.18049 5.11531 6.28639 4.28132C7.39228 3.44733 8.73971 2.99622 10.1248 2.99622C11.5099 2.99622 12.8574 3.44733 13.9633 4.28132C15.0692 5.11531 15.8733 6.28678 16.2542 7.61852C16.635 8.95025 16.5717 10.3698 16.0739 11.6623C15.5761 12.9549 14.6709 14.0502 13.4951 14.7825C15.4311 15.4162 17.1729 16.6003 18.5745 18.2672ZM23.2498 12H18.7498C18.5509 12 18.3601 12.079 18.2195 12.2196C18.0788 12.3603 17.9998 12.5511 17.9998 12.75C17.9998 12.9489 18.0788 13.1396 18.2195 13.2803C18.3601 13.4209 18.5509 13.5 18.7498 13.5H23.2498C23.4487 13.5 23.6395 13.4209 23.7802 13.2803C23.9208 13.1396 23.9998 12.9489 23.9998 12.75C23.9998 12.5511 23.9208 12.3603 23.7802 12.2196C23.6395 12.079 23.4487 12 23.2498 12Z" fill="black"/>
</svg>
