<svg width="24" height="24" viewBox="0 0 24 24" fill="none" xmlns="http://www.w3.org/2000/svg">
<path d="M15 3H9C7.75736 3 6.75 4.00736 6.75 5.25V18.75C6.75 19.9926 7.75736 21 9 21H15C16.2426 21 17.25 19.9926 17.25 18.75V5.25C17.25 4.00736 16.2426 3 15 3Z" fill="black"/>
<path d="M19.5 7.5C19.3011 7.5 19.1103 7.57902 18.9697 7.71967C18.829 7.86032 18.75 8.05109 18.75 8.25V15.75C18.75 15.9489 18.829 16.1397 18.9697 16.2803C19.1103 16.421 19.3011 16.5 19.5 16.5C19.6989 16.5 19.8897 16.421 20.0303 16.2803C20.171 16.1397 20.25 15.9489 20.25 15.75V8.25C20.25 8.05109 20.171 7.86032 20.0303 7.71967C19.8897 7.57902 19.6989 7.5 19.5 7.5Z" fill="black"/>
<path d="M22.5 9C22.3011 9 22.1103 9.07902 21.9697 9.21967C21.829 9.36032 21.75 9.55109 21.75 9.75V14.25C21.75 14.4489 21.829 14.6397 21.9697 14.7803C22.1103 14.921 22.3011 15 22.5 15C22.6989 15 22.8897 14.921 23.0303 14.7803C23.171 14.6397 23.25 14.4489 23.25 14.25V9.75C23.25 9.55109 23.171 9.36032 23.0303 9.21967C22.8897 9.07902 22.6989 9 22.5 9Z" fill="black"/>
<path d="M4.5 7.5C4.30109 7.5 4.11032 7.57902 3.96967 7.71967C3.82902 7.86032 3.75 8.05109 3.75 8.25V15.75C3.75 15.9489 3.82902 16.1397 3.96967 16.2803C4.11032 16.421 4.30109 16.5 4.5 16.5C4.69891 16.5 4.88968 16.421 5.03033 16.2803C5.17098 16.1397 5.25 15.9489 5.25 15.75V8.25C5.25 8.05109 5.17098 7.86032 5.03033 7.71967C4.88968 7.57902 4.69891 7.5 4.5 7.5Z" fill="black"/>
<path d="M1.5 9C1.30109 9 1.11032 9.07902 0.96967 9.21967C0.829018 9.36032 0.75 9.55109 0.75 9.75V14.25C0.75 14.4489 0.829018 14.6397 0.96967 14.7803C1.11032 14.921 1.30109 15 1.5 15C1.69891 15 1.88968 14.921 2.03033 14.7803C2.17098 14.6397 2.25 14.4489 2.25 14.25V9.75C2.25 9.55109 2.17098 9.36032 2.03033 9.21967C1.88968 9.07902 1.69891 9 1.5 9Z" fill="black"/>
</svg>
