<svg width="24" height="24" viewBox="0 0 24 24" fill="none" xmlns="http://www.w3.org/2000/svg">
<path d="M21.75 19.5C21.75 19.6989 21.671 19.8897 21.5303 20.0303C21.3897 20.171 21.1989 20.25 21 20.25H3C2.80109 20.25 2.61032 20.171 2.46967 20.0303C2.32902 19.8897 2.25 19.6989 2.25 19.5C2.25 19.3011 2.32902 19.1103 2.46967 18.9697C2.61032 18.829 2.80109 18.75 3 18.75H21C21.1989 18.75 21.3897 18.829 21.5303 18.9697C21.671 19.1103 21.75 19.3011 21.75 19.5ZM21.75 5.25V15.75C21.75 16.1478 21.592 16.5294 21.3107 16.8107C21.0294 17.092 20.6478 17.25 20.25 17.25H3.75C3.35218 17.25 2.97064 17.092 2.68934 16.8107C2.40804 16.5294 2.25 16.1478 2.25 15.75V5.25C2.25 4.85218 2.40804 4.47064 2.68934 4.18934C2.97064 3.90804 3.35218 3.75 3.75 3.75H20.25C20.6478 3.75 21.0294 3.90804 21.3107 4.18934C21.592 4.47064 21.75 4.85218 21.75 5.25ZM15.375 10.5C15.375 10.3738 15.3431 10.2496 15.2823 10.139C15.2215 10.0284 15.1337 9.93488 15.0272 9.86719L10.9022 7.24219C10.7888 7.17015 10.6582 7.12989 10.5239 7.12561C10.3896 7.12133 10.2567 7.15319 10.139 7.21786C10.0212 7.28252 9.923 7.37762 9.85458 7.49322C9.78616 7.60882 9.75004 7.74067 9.75 7.875V13.125C9.75004 13.2593 9.78616 13.3912 9.85458 13.5068C9.923 13.6224 10.0212 13.7175 10.139 13.7821C10.2567 13.8468 10.3896 13.8787 10.5239 13.8744C10.6582 13.8701 10.7888 13.8298 10.9022 13.7578L15.0272 11.1328C15.1337 11.0651 15.2215 10.9716 15.2823 10.861C15.3431 10.7504 15.375 10.6262 15.375 10.5Z" fill="black"/>
</svg>
