<svg width="24" height="24" viewBox="0 0 24 24" fill="none" xmlns="http://www.w3.org/2000/svg">
<path d="M20.055 19.7456C20.1226 19.8182 20.1752 19.9036 20.2096 19.9966C20.244 20.0897 20.2595 20.1887 20.2554 20.2879C20.2513 20.3871 20.2275 20.4844 20.1854 20.5743C20.1434 20.6642 20.0839 20.7449 20.0105 20.8116C19.937 20.8784 19.851 20.9299 19.7575 20.9632C19.664 20.9965 19.5649 21.0108 19.4658 21.0055C19.3667 21.0002 19.2696 20.9752 19.1802 20.9321C19.0908 20.889 19.0109 20.8286 18.945 20.7543L17.1225 18.7499H3C2.60218 18.7499 2.22064 18.5919 1.93934 18.3106C1.65804 18.0293 1.5 17.6478 1.5 17.2499V6.74994C1.5 6.35212 1.65804 5.97059 1.93934 5.68928C2.22064 5.40798 2.60218 5.24994 3 5.24994H4.84969L3.945 4.25432C3.87738 4.18167 3.82484 4.09633 3.79044 4.00323C3.75604 3.91014 3.74046 3.81114 3.74461 3.71198C3.74875 3.61282 3.77253 3.51546 3.81458 3.42556C3.85662 3.33566 3.91609 3.255 3.98954 3.18825C4.06299 3.1215 4.14896 3.06999 4.24246 3.03671C4.33596 3.00343 4.43514 2.98904 4.53424 2.99437C4.63335 2.9997 4.73041 3.02465 4.8198 3.06777C4.90919 3.11089 4.98914 3.17132 5.055 3.24557L20.055 19.7456ZM23.6034 6.84369C23.4838 6.77959 23.3491 6.74913 23.2135 6.75557C23.078 6.76201 22.9467 6.8051 22.8337 6.88025L19.8337 8.88088C19.7311 8.94934 19.647 9.04205 19.5888 9.15079C19.5306 9.25954 19.5001 9.38097 19.5 9.50432V14.5049C19.5001 14.6283 19.5306 14.7497 19.5888 14.8585C19.647 14.9672 19.7311 15.0599 19.8337 15.1284L22.8337 17.129C22.9576 17.2094 23.1024 17.2515 23.25 17.2499C23.4489 17.2499 23.6397 17.1709 23.7803 17.0303C23.921 16.8896 24 16.6989 24 16.4999V7.49994C23.9991 7.365 23.9617 7.23281 23.8919 7.11731C23.8221 7.00181 23.7225 6.90728 23.6034 6.84369ZM16.695 13.8243C16.7972 13.9368 16.9313 14.0156 17.0793 14.0502C17.2273 14.0848 17.3824 14.0736 17.5239 14.0181C17.6654 13.9626 17.7867 13.8654 17.8718 13.7394C17.9568 13.6133 18.0015 13.4645 18 13.3124V6.74994C18 6.35212 17.842 5.97059 17.5607 5.68928C17.2794 5.40798 16.8978 5.24994 16.5 5.24994H10.5994C10.4541 5.24995 10.312 5.29216 10.1902 5.37143C10.0685 5.4507 9.97236 5.56363 9.91358 5.69648C9.8548 5.82933 9.83587 5.9764 9.85909 6.11981C9.88231 6.26322 9.94668 6.3968 10.0444 6.50432L16.695 13.8243Z" fill="black"/>
</svg>
