<svg width="24" height="24" viewBox="0 0 24 24" fill="none" xmlns="http://www.w3.org/2000/svg">
<path d="M16.5 10.875C16.5 11.1734 16.3815 11.4595 16.1705 11.6705C15.9595 11.8815 15.6734 12 15.375 12H14.25V9.75H15.375C15.6734 9.75 15.9595 9.86853 16.1705 10.0795C16.3815 10.2905 16.5 10.5766 16.5 10.875ZM24 12C23.9978 13.9884 23.2069 15.8948 21.8008 17.3008C20.3948 18.7069 18.4884 19.4978 16.5 19.5H7.5C5.51088 19.5 3.60322 18.7098 2.1967 17.3033C0.790176 15.8968 0 13.9891 0 12C0 10.0109 0.790176 8.10322 2.1967 6.6967C3.60322 5.29018 5.51088 4.5 7.5 4.5H16.5C18.4884 4.50223 20.3948 5.29313 21.8008 6.69917C23.2069 8.1052 23.9978 10.0116 24 12ZM11.1562 8.30531C10.972 8.23087 10.7657 8.2326 10.5827 8.31011C10.3998 8.38763 10.255 8.5346 10.1803 8.71875L8.4375 13.0069L6.69469 8.71875C6.6604 8.62387 6.60732 8.53689 6.53863 8.463C6.46994 8.38911 6.38705 8.32984 6.29492 8.28874C6.20279 8.24763 6.10332 8.22554 6.00245 8.22377C5.90158 8.22201 5.80139 8.24061 5.70788 8.27847C5.61437 8.31633 5.52946 8.37266 5.45823 8.4441C5.387 8.51554 5.33091 8.60062 5.29333 8.69424C5.25574 8.78786 5.23743 8.8881 5.23949 8.98897C5.24155 9.08983 5.26394 9.18924 5.30531 9.28125L7.74281 15.2812C7.79902 15.4194 7.89514 15.5376 8.01888 15.6209C8.14262 15.7041 8.28837 15.7486 8.4375 15.7486C8.58663 15.7486 8.73238 15.7041 8.85612 15.6209C8.97986 15.5376 9.07598 15.4194 9.13219 15.2812L11.5697 9.28125C11.6441 9.09699 11.6424 8.89073 11.5649 8.70774C11.4874 8.52476 11.3404 8.38002 11.1562 8.30531ZM16.9528 12.9703C17.3918 12.639 17.7157 12.1782 17.8787 11.6529C18.0417 11.1276 18.0355 10.5644 17.8612 10.0428C17.6868 9.52121 17.353 9.06753 16.9069 8.74585C16.4609 8.42416 15.925 8.25072 15.375 8.25H13.5C13.3011 8.25 13.1103 8.32902 12.9697 8.46967C12.829 8.61032 12.75 8.80109 12.75 9V15C12.75 15.1989 12.829 15.3897 12.9697 15.5303C13.1103 15.671 13.3011 15.75 13.5 15.75C13.6989 15.75 13.8897 15.671 14.0303 15.5303C14.171 15.3897 14.25 15.1989 14.25 15V13.5H15.375C15.4256 13.5 15.4762 13.5 15.5259 13.4953L16.5984 15.3703C16.6973 15.5437 16.861 15.6708 17.0535 15.7235C17.246 15.7763 17.4516 15.7504 17.625 15.6516C17.7984 15.5527 17.9255 15.389 17.9782 15.1965C18.031 15.004 18.0051 14.7984 17.9062 14.625L16.9528 12.9703Z" fill="black"/>
</svg>
