<svg width="24" height="24" viewBox="0 0 24 24" fill="none" xmlns="http://www.w3.org/2000/svg">
<path d="M22.0637 10.9425L13.059 1.93692C12.778 1.65755 12.3978 1.50073 12.0015 1.50073C11.6052 1.50073 11.225 1.65755 10.944 1.93692L1.944 10.9425C1.66463 11.2236 1.50781 11.6038 1.50781 12C1.50781 12.3963 1.66463 12.7765 1.944 13.0575L10.9487 22.0632C11.2297 22.3425 11.6099 22.4994 12.0062 22.4994C12.4025 22.4994 12.7826 22.3425 13.0637 22.0632L22.0684 13.0575C22.3478 12.7765 22.5046 12.3963 22.5046 12C22.5046 11.6038 22.3478 11.2236 22.0684 10.9425H22.0637ZM11.2515 7.50005C11.2515 7.30113 11.3305 7.11037 11.4712 6.96972C11.6118 6.82906 11.8026 6.75005 12.0015 6.75005C12.2004 6.75005 12.3912 6.82906 12.5318 6.96972C12.6725 7.11037 12.7515 7.30113 12.7515 7.50005V12.75C12.7515 12.949 12.6725 13.1397 12.5318 13.2804C12.3912 13.421 12.2004 13.5 12.0015 13.5C11.8026 13.5 11.6118 13.421 11.4712 13.2804C11.3305 13.1397 11.2515 12.949 11.2515 12.75V7.50005ZM12.0015 17.25C11.779 17.25 11.5615 17.1841 11.3765 17.0604C11.1915 16.9368 11.0473 16.7611 10.9621 16.5556C10.877 16.35 10.8547 16.1238 10.8981 15.9056C10.9415 15.6873 11.0487 15.4869 11.206 15.3296C11.3633 15.1722 11.5638 15.0651 11.782 15.0217C12.0003 14.9783 12.2265 15.0005 12.432 15.0857C12.6376 15.1708 12.8133 15.315 12.9369 15.5C13.0605 15.685 13.1265 15.9025 13.1265 16.125C13.1265 16.4234 13.008 16.7096 12.797 16.9205C12.586 17.1315 12.2999 17.25 12.0015 17.25Z" fill="black"/>
</svg>
