<svg width="24" height="24" viewBox="0 0 24 24" fill="none" xmlns="http://www.w3.org/2000/svg">
<path d="M20.25 3.75H3.75C3.35218 3.75 2.97064 3.90804 2.68934 4.18934C2.40804 4.47064 2.25 4.85218 2.25 5.25V18.75C2.25 19.1478 2.40804 19.5294 2.68934 19.8107C2.97064 20.092 3.35218 20.25 3.75 20.25H20.25C20.6478 20.25 21.0294 20.092 21.3107 19.8107C21.592 19.5294 21.75 19.1478 21.75 18.75V5.25C21.75 4.85218 21.592 4.47064 21.3107 4.18934C21.0294 3.90804 20.6478 3.75 20.25 3.75ZM18.3356 16.4213C18.2681 16.455 16.6584 17.25 15 17.25C13.3228 17.25 12.4416 16.8094 11.6644 16.4213C10.9444 16.0613 10.3228 15.75 9 15.75C7.7025 15.75 6.34781 16.4147 6.33469 16.4213C6.24654 16.4653 6.15058 16.4915 6.0523 16.4984C5.95402 16.5053 5.85533 16.4928 5.76188 16.4616C5.66842 16.4304 5.58203 16.3811 5.50764 16.3165C5.43324 16.2519 5.37229 16.1733 5.32828 16.0852C5.23939 15.9071 5.22486 15.7011 5.28789 15.5123C5.35092 15.3236 5.48635 15.1676 5.66437 15.0787C5.73187 15.045 7.34156 14.25 9 14.25C10.6772 14.25 11.5584 14.6906 12.3356 15.0787C13.0556 15.4387 13.6772 15.75 15 15.75C16.2975 15.75 17.6522 15.0853 17.6653 15.0787C17.8433 14.9899 18.0494 14.9753 18.2381 15.0384C18.4269 15.1014 18.5828 15.2368 18.6717 15.4148C18.7606 15.5929 18.7751 15.7989 18.7121 15.9877C18.6491 16.1764 18.5137 16.3324 18.3356 16.4213ZM18.3356 12.6713C18.2681 12.705 16.6584 13.5 15 13.5C13.3228 13.5 12.4416 13.0594 11.6644 12.6713C10.9444 12.3113 10.3228 12 9 12C7.7025 12 6.34781 12.6647 6.33469 12.6713C6.15666 12.7601 5.95061 12.7747 5.76188 12.7116C5.57314 12.6486 5.41717 12.5132 5.32828 12.3352C5.23939 12.1571 5.22486 11.9511 5.28789 11.7623C5.35092 11.5736 5.48635 11.4176 5.66437 11.3287C5.73187 11.295 7.34156 10.5 9 10.5C10.6772 10.5 11.5584 10.9406 12.3356 11.3287C13.0556 11.6887 13.6772 12 15 12C16.2975 12 17.6522 11.3353 17.6653 11.3287C17.8433 11.2399 18.0494 11.2253 18.2381 11.2884C18.4269 11.3514 18.5828 11.4868 18.6717 11.6648C18.7606 11.8429 18.7751 12.0489 18.7121 12.2377C18.6491 12.4264 18.5137 12.5824 18.3356 12.6713ZM18.3356 8.92125C18.2681 8.955 16.6584 9.75 15 9.75C13.3228 9.75 12.4416 9.30938 11.6644 8.92125C10.9444 8.56125 10.3228 8.25 9 8.25C7.7025 8.25 6.34781 8.91469 6.33469 8.92125C6.15666 9.01014 5.95061 9.02467 5.76188 8.96164C5.57314 8.89861 5.41717 8.76318 5.32828 8.58516C5.23939 8.40713 5.22486 8.20108 5.28789 8.01235C5.35092 7.82361 5.48635 7.66764 5.66437 7.57875C5.73187 7.545 7.34156 6.75 9 6.75C10.6772 6.75 11.5584 7.19062 12.3356 7.57875C13.0556 7.93875 13.6772 8.25 15 8.25C16.2975 8.25 17.6522 7.58531 17.6653 7.57875C17.8433 7.48986 18.0494 7.47533 18.2381 7.53836C18.4269 7.60139 18.5828 7.73682 18.6717 7.91484C18.7606 8.09287 18.7751 8.29892 18.7121 8.48765C18.6491 8.67639 18.5137 8.83236 18.3356 8.92125Z" fill="black"/>
</svg>
