<svg width="24" height="24" viewBox="0 0 24 24" fill="none" xmlns="http://www.w3.org/2000/svg">
<path d="M6 9V15C6 15.1989 5.92098 15.3897 5.78033 15.5303C5.63968 15.671 5.44891 15.75 5.25 15.75H4.5C4.30109 15.75 4.11032 15.671 3.96967 15.5303C3.82902 15.3897 3.75 15.1989 3.75 15V9C3.75 8.80109 3.82902 8.61032 3.96967 8.46967C4.11032 8.32902 4.30109 8.25 4.5 8.25H5.25C5.44891 8.25 5.63968 8.32902 5.78033 8.46967C5.92098 8.61032 6 8.80109 6 9ZM9 2.25H8.25C8.05109 2.25 7.86032 2.32902 7.71967 2.46967C7.57902 2.61032 7.5 2.80109 7.5 3V21C7.5 21.1989 7.57902 21.3897 7.71967 21.5303C7.86032 21.671 8.05109 21.75 8.25 21.75H9C9.19891 21.75 9.38968 21.671 9.53033 21.5303C9.67098 21.3897 9.75 21.1989 9.75 21V3C9.75 2.80109 9.67098 2.61032 9.53033 2.46967C9.38968 2.32902 9.19891 2.25 9 2.25ZM12.75 5.25H12C11.8011 5.25 11.6103 5.32902 11.4697 5.46967C11.329 5.61032 11.25 5.80109 11.25 6V18C11.25 18.1989 11.329 18.3897 11.4697 18.5303C11.6103 18.671 11.8011 18.75 12 18.75H12.75C12.9489 18.75 13.1397 18.671 13.2803 18.5303C13.421 18.3897 13.5 18.1989 13.5 18V6C13.5 5.80109 13.421 5.61032 13.2803 5.46967C13.1397 5.32902 12.9489 5.25 12.75 5.25ZM16.5 8.25H15.75C15.5511 8.25 15.3603 8.32902 15.2197 8.46967C15.079 8.61032 15 8.80109 15 9V15C15 15.1989 15.079 15.3897 15.2197 15.5303C15.3603 15.671 15.5511 15.75 15.75 15.75H16.5C16.6989 15.75 16.8897 15.671 17.0303 15.5303C17.171 15.3897 17.25 15.1989 17.25 15V9C17.25 8.80109 17.171 8.61032 17.0303 8.46967C16.8897 8.32902 16.6989 8.25 16.5 8.25ZM20.25 6.75H19.5C19.3011 6.75 19.1103 6.82902 18.9697 6.96967C18.829 7.11032 18.75 7.30109 18.75 7.5V16.5C18.75 16.6989 18.829 16.8897 18.9697 17.0303C19.1103 17.171 19.3011 17.25 19.5 17.25H20.25C20.4489 17.25 20.6397 17.171 20.7803 17.0303C20.921 16.8897 21 16.6989 21 16.5V7.5C21 7.30109 20.921 7.11032 20.7803 6.96967C20.6397 6.82902 20.4489 6.75 20.25 6.75Z" fill="black"/>
</svg>
