<svg width="24" height="24" viewBox="0 0 24 24" fill="none" xmlns="http://www.w3.org/2000/svg">
<path d="M20.055 19.7457L14.8125 13.98L5.055 3.24566C4.98914 3.17141 4.90919 3.11098 4.8198 3.06786C4.73041 3.02474 4.63335 2.99979 4.53424 2.99446C4.43514 2.98913 4.33596 3.00352 4.24246 3.0368C4.14896 3.07008 4.06299 3.12159 3.98954 3.18834C3.91609 3.25509 3.85662 3.33575 3.81458 3.42565C3.77253 3.51556 3.74875 3.61291 3.74461 3.71207C3.74046 3.81123 3.75604 3.91023 3.79044 4.00333C3.82484 4.09642 3.87738 4.18177 3.945 4.25441L5.51437 5.98128C4.88383 7.06618 4.53557 8.29195 4.50149 9.54631C4.46741 10.8007 4.7486 12.0435 5.31931 13.1611C5.89002 14.2786 6.732 15.2351 7.76813 15.9429C8.80427 16.6507 10.0014 17.0873 11.25 17.2125V18.75H3C2.80109 18.75 2.61032 18.8291 2.46967 18.9697C2.32902 19.1104 2.25 19.3011 2.25 19.5C2.25 19.6989 2.32902 19.8897 2.46967 20.0304C2.61032 20.171 2.80109 20.25 3 20.25H18.4866L18.945 20.7544C19.0109 20.8287 19.0908 20.8891 19.1802 20.9322C19.2696 20.9753 19.3667 21.0003 19.4658 21.0056C19.5649 21.0109 19.664 20.9965 19.7575 20.9633C19.851 20.93 19.937 20.8785 20.0105 20.8117C20.0839 20.745 20.1434 20.6643 20.1854 20.5744C20.2275 20.4845 20.2513 20.3872 20.2554 20.288C20.2595 20.1888 20.244 20.0898 20.2096 19.9967C20.1752 19.9036 20.1226 19.8183 20.055 19.7457ZM7.5 9.75003C7.50078 9.29073 7.57159 8.83424 7.71 8.39628L9 9.8166C9.01622 10.5394 9.29293 11.232 9.7792 11.767C10.2655 12.3021 10.9286 12.6435 11.6466 12.7285L12.9375 14.1507C12.2817 14.2903 11.6031 14.2817 10.9511 14.1254C10.2991 13.9692 9.69023 13.6692 9.16906 13.2474C8.64789 12.8256 8.22755 12.2927 7.93878 11.6876C7.65001 11.0825 7.50009 10.4205 7.5 9.75003ZM12.75 18.75V17.2116C13.5754 17.1292 14.3813 16.9103 15.135 16.5638L17.1225 18.75H12.75ZM8.115 4.38191C8.03942 4.29848 7.98359 4.19912 7.95165 4.09118C7.91971 3.98324 7.91248 3.86949 7.93048 3.75837C7.94849 3.64725 7.99129 3.54161 8.05569 3.44929C8.12008 3.35696 8.20444 3.28032 8.3025 3.22503C9.78335 2.38424 11.5062 2.07242 13.1878 2.34085C14.8695 2.60929 16.4096 3.442 17.5551 4.70204C18.7006 5.96208 19.3832 7.57443 19.4907 9.27393C19.5981 10.9734 19.124 12.6589 18.1462 14.0532C18.0816 14.1453 17.9971 14.2217 17.8989 14.2767C17.8007 14.3317 17.6914 14.3639 17.5791 14.371H17.5322C17.4277 14.371 17.3243 14.3491 17.2287 14.3068C17.1332 14.2645 17.0475 14.2027 16.9772 14.1253L15.9375 12.9807C15.8285 12.8609 15.7612 12.709 15.7456 12.5478C15.7301 12.3866 15.7671 12.2247 15.8512 12.0863C16.3563 11.2562 16.5792 10.2848 16.4864 9.31756C16.3936 8.35028 15.9902 7.43902 15.3366 6.72003C14.6829 6.00105 13.8141 5.51296 12.86 5.32877C11.9059 5.14457 10.9178 5.27416 10.0434 5.69816C9.89753 5.77037 9.73208 5.79314 9.57209 5.76303C9.4121 5.73293 9.26625 5.65158 9.15656 5.53128L8.115 4.38191ZM12 6.75003C12.7956 6.75003 13.5587 7.0661 14.1213 7.62871C14.6839 8.19132 15 8.95438 15 9.75003C14.9997 9.8612 14.9937 9.97228 14.9822 10.0828C14.9664 10.2265 14.9095 10.3625 14.8183 10.4746C14.7271 10.5866 14.6054 10.6699 14.468 10.7145C14.3305 10.7591 14.1831 10.763 14.0435 10.7258C13.9039 10.6885 13.778 10.6118 13.6809 10.5047L11.4084 8.00441C11.3114 7.8976 11.2472 7.76505 11.2235 7.62266C11.1999 7.48027 11.2179 7.33409 11.2753 7.20166C11.3327 7.06923 11.4271 6.95618 11.5472 6.87607C11.6672 6.79596 11.8079 6.7522 11.9522 6.75003H12Z" fill="black"/>
</svg>
