<svg width="24" height="24" viewBox="0 0 24 24" fill="none" xmlns="http://www.w3.org/2000/svg">
<path d="M15 9.75003C15 10.3434 14.8241 10.9234 14.4944 11.4167C14.1648 11.9101 13.6962 12.2946 13.1481 12.5217C12.5999 12.7487 11.9967 12.8081 11.4147 12.6924C10.8328 12.5766 10.2982 12.2909 9.87868 11.8713C9.45912 11.4518 9.1734 10.9172 9.05764 10.3353C8.94189 9.75336 9.0013 9.15016 9.22836 8.60198C9.45542 8.0538 9.83994 7.58526 10.3333 7.25562C10.8266 6.92597 11.4067 6.75003 12 6.75003C12.7956 6.75003 13.5587 7.0661 14.1213 7.62871C14.6839 8.19132 15 8.95438 15 9.75003ZM21.75 19.5C21.75 19.6989 21.671 19.8897 21.5303 20.0304C21.3897 20.171 21.1989 20.25 21 20.25H3C2.80109 20.25 2.61032 20.171 2.46967 20.0304C2.32902 19.8897 2.25 19.6989 2.25 19.5C2.25 19.3011 2.32902 19.1103 2.46967 18.9697C2.61032 18.829 2.80109 18.75 3 18.75H11.25V17.2125C9.33552 17.0201 7.56822 16.0993 6.31362 14.6404C5.05901 13.1816 4.41308 11.2964 4.5094 9.37465C4.60573 7.45294 5.43695 5.64176 6.83115 4.31569C8.22535 2.98963 10.0759 2.25012 12 2.25012C13.9241 2.25012 15.7746 2.98963 17.1688 4.31569C18.563 5.64176 19.3943 7.45294 19.4906 9.37465C19.5869 11.2964 18.941 13.1816 17.6864 14.6404C16.4318 16.0993 14.6645 17.0201 12.75 17.2125V18.75H21C21.1989 18.75 21.3897 18.829 21.5303 18.9697C21.671 19.1103 21.75 19.3011 21.75 19.5ZM12 14.25C12.89 14.25 13.76 13.9861 14.5001 13.4916C15.2401 12.9972 15.8169 12.2944 16.1575 11.4721C16.4981 10.6498 16.5872 9.74504 16.4135 8.87212C16.2399 7.99921 15.8113 7.19738 15.182 6.56805C14.5526 5.93871 13.7508 5.51013 12.8779 5.33649C12.005 5.16286 11.1002 5.25198 10.2779 5.59257C9.45566 5.93316 8.75285 6.50994 8.25839 7.24996C7.76392 7.98998 7.5 8.86001 7.5 9.75003C7.50124 10.9431 7.97575 12.087 8.81939 12.9306C9.66303 13.7743 10.8069 14.2488 12 14.25Z" fill="black"/>
</svg>
