<svg width="24" height="24" viewBox="0 0 24 24" fill="none" xmlns="http://www.w3.org/2000/svg">
<path d="M4.70174 15.75L8.35049 9.42847L8.14049 9.06472C7.82659 8.53807 7.62361 7.95282 7.54402 7.3449C7.46443 6.73698 7.50991 6.11921 7.67766 5.52949C7.84541 4.93978 8.1319 4.39057 8.51955 3.91556C8.90719 3.44055 9.38782 3.04977 9.93192 2.76719C10.476 2.48461 11.0721 2.3162 11.6837 2.2723C12.2952 2.22839 12.9093 2.30991 13.4882 2.51186C14.0671 2.71381 14.5986 3.03192 15.0501 3.44668C15.5016 3.86143 15.8637 4.36408 16.1139 4.92378C16.1925 5.09467 16.2054 5.28848 16.1503 5.46829C16.0951 5.6481 15.9757 5.80133 15.8149 5.89878C15.7234 5.95188 15.6218 5.98504 15.5166 5.99609C15.4115 6.00714 15.3052 5.99582 15.2047 5.96289C15.1042 5.92996 15.0118 5.87615 14.9336 5.805C14.8554 5.73384 14.7931 5.64696 14.7508 5.55003C14.5853 5.17593 14.345 4.83962 14.0447 4.5618C13.7444 4.28398 13.3905 4.07051 13.0047 3.93451C12.6188 3.79852 12.2093 3.74287 11.8012 3.77098C11.393 3.7991 10.995 3.91039 10.6314 4.09801C10.2679 4.28564 9.9466 4.54563 9.68726 4.86201C9.42791 5.17838 9.23601 5.54446 9.12335 5.93773C9.01069 6.331 8.97966 6.74316 9.03215 7.14887C9.08465 7.55458 9.21957 7.94526 9.42862 8.29691C9.43165 8.30061 9.43418 8.30471 9.43612 8.30909L10.7327 10.5535C10.7985 10.6675 10.8332 10.7968 10.8332 10.9285C10.8332 11.0601 10.7985 11.1895 10.7327 11.3035L7.29956 17.25C7.09803 17.5893 6.77092 17.8355 6.38912 17.9353C6.00732 18.035 5.60159 17.9803 5.25985 17.783C4.91811 17.5857 4.66789 17.2616 4.56342 16.8811C4.45895 16.5006 4.50865 16.0942 4.70174 15.75ZM17.9205 12H16.7636L13.2996 6.00003C13.098 5.66075 12.7709 5.41455 12.3891 5.31479C12.0073 5.21502 11.6016 5.26973 11.2598 5.46706C10.9181 5.66438 10.6679 5.98842 10.5634 6.36896C10.459 6.7495 10.5087 7.15588 10.7017 7.50003L13.9492 13.125C14.015 13.2389 14.1096 13.3335 14.2234 13.3994C14.3373 13.4652 14.4665 13.4999 14.598 13.5H17.9383C19.6155 13.5 21.0274 14.8725 21.0002 16.5497C20.9873 17.3317 20.6695 18.0778 20.1145 18.6289C19.5596 19.18 18.8113 19.4926 18.0292 19.5C17.8376 19.4977 17.652 19.5668 17.5085 19.6938C17.365 19.8209 17.2739 19.9967 17.253 20.1872C17.2443 20.2909 17.2572 20.3952 17.291 20.4936C17.3248 20.5919 17.3786 20.6822 17.4492 20.7586C17.5197 20.8351 17.6053 20.896 17.7007 20.9376C17.796 20.9791 17.899 21.0004 18.003 21C18.6012 20.9995 19.1933 20.8799 19.7447 20.6481C20.2961 20.4163 20.7959 20.0769 21.2148 19.6499C21.6337 19.2229 21.9633 18.7168 22.1845 18.161C22.4057 17.6052 22.5139 17.0109 22.503 16.4128C22.4524 13.9491 20.3889 12 17.9242 12H17.9205ZM19.5002 16.4278C19.4627 15.6207 18.7671 15 17.9599 15H10.7636C10.6319 15 10.5026 15.0346 10.3885 15.1005C10.2745 15.1663 10.1798 15.261 10.1139 15.375L8.59893 18C8.39444 18.3526 8.12024 18.6599 7.79307 18.903C7.46589 19.1461 7.0926 19.32 6.69599 19.4141C6.29937 19.5081 5.88775 19.5204 5.48624 19.4501C5.08473 19.3797 4.70177 19.2284 4.36072 19.0051C4.01967 18.7819 3.72769 18.4915 3.50261 18.1516C3.27752 17.8118 3.12405 17.4297 3.05156 17.0285C2.97908 16.6274 2.98909 16.2157 3.081 15.8186C3.1729 15.4215 3.34477 15.0473 3.58612 14.7188C3.70269 14.567 3.75845 14.3772 3.7425 14.1865C3.72655 13.9958 3.64003 13.8178 3.49987 13.6875C3.42238 13.6185 3.3314 13.5663 3.23269 13.5342C3.13398 13.5021 3.02969 13.4909 2.92642 13.5012C2.82314 13.5115 2.72313 13.5431 2.63271 13.5941C2.54229 13.645 2.46343 13.7142 2.40112 13.7972C1.8226 14.5638 1.50666 15.4965 1.50018 16.4569C1.49128 17.4506 1.81157 18.4194 2.41109 19.212C3.01061 20.0045 3.85563 20.5764 4.81429 20.8382C5.77295 21.1001 6.79133 21.0372 7.71051 20.6595C8.6297 20.2817 9.39798 19.6103 9.89549 18.75L10.3286 18H18.0002C18.2034 18.0003 18.4045 17.9592 18.5914 17.8794C18.7782 17.7995 18.9469 17.6825 19.0872 17.5355C19.2275 17.3885 19.3364 17.2145 19.4074 17.0241C19.4784 16.8337 19.51 16.6308 19.5002 16.4278Z" fill="black"/>
</svg>
