<svg width="24" height="24" viewBox="0 0 24 24" fill="none" xmlns="http://www.w3.org/2000/svg">
<path d="M13.5015 4.5C13.5015 3.90666 13.6775 3.32664 14.0071 2.83329C14.3367 2.33994 14.8053 1.95543 15.3535 1.72836C15.9016 1.5013 16.5048 1.44189 17.0868 1.55765C17.6687 1.6734 18.2033 1.95912 18.6228 2.37868C19.0424 2.79824 19.3281 3.33279 19.4439 3.91473C19.5596 4.49667 19.5002 5.09987 19.2731 5.64805C19.0461 6.19623 18.6616 6.66477 18.1682 6.99441C17.6749 7.32405 17.0948 7.5 16.5015 7.5C15.7059 7.5 14.9428 7.18393 14.3802 6.62132C13.8176 6.05871 13.5015 5.29565 13.5015 4.5ZM15.0015 15C14.8026 15 14.6118 15.079 14.4712 15.2197C14.3305 15.3603 14.2515 15.5511 14.2515 15.75C14.2515 16.64 13.9876 17.51 13.4931 18.2501C12.9987 18.9901 12.2958 19.5669 11.4736 19.9075C10.6513 20.2481 9.74651 20.3372 8.8736 20.1635C8.00068 19.9899 7.19886 19.5613 6.56953 18.932C5.94019 18.3026 5.51161 17.5008 5.33797 16.6279C5.16434 15.755 5.25345 14.8502 5.59405 14.0279C5.93464 13.2057 6.51142 12.5029 7.25144 12.0084C7.99146 11.5139 8.86149 11.25 9.75151 11.25C9.95042 11.25 10.1412 11.171 10.2818 11.0303C10.4225 10.8897 10.5015 10.6989 10.5015 10.5C10.5015 10.3011 10.4225 10.1103 10.2818 9.96967C10.1412 9.82902 9.95042 9.75 9.75151 9.75C8.56482 9.75 7.40478 10.1019 6.41808 10.7612C5.43139 11.4205 4.66235 12.3575 4.20823 13.4539C3.7541 14.5503 3.63528 15.7567 3.86679 16.9205C4.09831 18.0844 4.66975 19.1535 5.50887 19.9926C6.34798 20.8318 7.41708 21.4032 8.58096 21.6347C9.74485 21.8662 10.9513 21.7474 12.0476 21.2933C13.144 20.8392 14.081 20.0701 14.7403 19.0834C15.3996 18.0967 15.7515 16.9367 15.7515 15.75C15.7515 15.5511 15.6725 15.3603 15.5318 15.2197C15.3912 15.079 15.2004 15 15.0015 15ZM18.7515 12H13.2971L14.9021 9.20813C14.9977 9.04193 15.0259 8.84547 14.9811 8.65909C14.9363 8.4727 14.8218 8.31055 14.6612 8.20594C13.0546 7.16147 11.1565 6.65707 9.24336 6.76617C7.33019 6.87527 5.50178 7.59217 4.02432 8.8125C3.94431 8.8738 3.87749 8.9506 3.82783 9.0383C3.77817 9.12601 3.74669 9.22282 3.73529 9.32296C3.72388 9.4231 3.73278 9.52451 3.76144 9.62114C3.7901 9.71776 3.83795 9.80762 3.90212 9.88534C3.96629 9.96306 4.04546 10.0271 4.13491 10.0735C4.22437 10.1199 4.32226 10.1479 4.42275 10.1556C4.52324 10.1634 4.62426 10.1508 4.71978 10.1186C4.8153 10.0865 4.90336 10.0354 4.97869 9.96844C6.11732 9.03056 7.50699 8.44887 8.97421 8.29598C10.4414 8.14309 11.9212 8.42578 13.2287 9.10875L11.3509 12.375C11.285 12.4891 11.2504 12.6185 11.2504 12.7503C11.2504 12.882 11.2852 13.0114 11.3512 13.1255C11.4171 13.2395 11.5119 13.3342 11.6261 13.3999C11.7403 13.4657 11.8698 13.5002 12.0015 13.5H17.8365L16.5165 20.1028C16.4776 20.2977 16.5176 20.5001 16.6278 20.6656C16.7381 20.831 16.9094 20.9459 17.1043 20.985C17.1527 20.995 17.2021 21 17.2515 21C17.4246 20.9997 17.5923 20.9395 17.7261 20.8296C17.8599 20.7197 17.9516 20.567 17.9856 20.3972L19.4856 12.8972C19.5073 12.7885 19.5047 12.6763 19.4779 12.5687C19.4511 12.4612 19.4008 12.3609 19.3306 12.2751C19.2604 12.1893 19.1721 12.1201 19.0719 12.0725C18.9718 12.025 18.8624 12.0002 18.7515 12Z" fill="black"/>
</svg>
