<svg width="24" height="24" viewBox="0 0 24 24" fill="none" xmlns="http://www.w3.org/2000/svg">
<path d="M21.5165 9.19968C21.6548 9.33436 21.7374 9.51609 21.748 9.70884C21.7586 9.90159 21.6964 10.0913 21.5737 10.2403C21.5063 10.3185 21.4235 10.3819 21.3305 10.4266C21.2375 10.4713 21.1362 10.4963 21.0331 10.5001C20.93 10.5039 20.8272 10.4864 20.7311 10.4486C20.6351 10.4108 20.5478 10.3536 20.4749 10.2806L18.7546 8.5603L17.0352 10.2806C16.9623 10.3536 16.8751 10.4108 16.779 10.4486C16.683 10.4864 16.5802 10.5039 16.4771 10.5001C16.3739 10.4963 16.2727 10.4713 16.1797 10.4266C16.0867 10.3819 16.0039 10.3185 15.9365 10.2403C15.8138 10.0913 15.7516 9.90159 15.7622 9.70884C15.7727 9.51609 15.8554 9.33436 15.9937 9.19968L17.6943 7.49999L15.9965 5.80218C15.8536 5.66387 15.7699 5.47565 15.7627 5.27695C15.7555 5.07824 15.8255 4.88448 15.958 4.73624C16.0268 4.66298 16.1096 4.60429 16.2015 4.56366C16.2935 4.52302 16.3926 4.50127 16.4931 4.4997C16.5935 4.49812 16.6933 4.51676 16.7864 4.55449C16.8796 4.59223 16.9642 4.6483 17.0352 4.71937L18.7546 6.43968L20.4749 4.71937C20.546 4.6483 20.6306 4.59223 20.7237 4.55449C20.8168 4.51676 20.9166 4.49812 21.0171 4.4997C21.1176 4.50127 21.2167 4.52302 21.3086 4.56366C21.4005 4.60429 21.4833 4.66298 21.5521 4.73624C21.6846 4.88448 21.7546 5.07824 21.7475 5.27695C21.7403 5.47565 21.6565 5.66387 21.5137 5.80218L19.8159 7.49999L21.5165 9.19968ZM19.8749 11.6916C19.7086 11.5947 19.5555 11.4769 19.4193 11.3409L19.0246 10.9472C18.9543 10.877 18.8591 10.8377 18.7598 10.8377C18.6605 10.8377 18.5652 10.877 18.4949 10.9472L18.0937 11.3437C17.8827 11.5549 17.6318 11.7219 17.3556 11.8352C17.0794 11.9484 16.7835 12.0056 16.485 12.0033C16.1865 12.001 15.8914 11.9394 15.617 11.822C15.3426 11.7045 15.0942 11.5337 14.8865 11.3194C14.0249 10.4306 14.0718 9.00093 14.9474 8.12624L15.3046 7.76812C15.3395 7.73329 15.3671 7.69193 15.386 7.64641C15.4049 7.60088 15.4146 7.55208 15.4146 7.5028C15.4146 7.45352 15.4049 7.40472 15.386 7.3592C15.3671 7.31368 15.3395 7.27232 15.3046 7.23749L14.9118 6.84374C14.7024 6.63434 14.5364 6.38566 14.4233 6.11197C14.3102 5.83828 14.2523 5.54495 14.2528 5.24882C14.2534 4.95269 14.3123 4.65957 14.4264 4.38628C14.5404 4.11299 14.7073 3.8649 14.9174 3.65624C14.9514 3.62232 14.9753 3.57968 14.9865 3.53304C14.9978 3.4864 14.9959 3.43755 14.9812 3.39189C14.9664 3.34623 14.9394 3.30552 14.903 3.27425C14.8666 3.24298 14.8223 3.22237 14.7749 3.21468C13.8569 3.07155 12.9291 2.99977 11.9999 2.99999C8.15013 2.98621 4.40312 4.24159 1.33867 6.57187C1.17917 6.69332 1.04575 6.84564 0.946374 7.01975C0.846996 7.19386 0.783691 7.3862 0.760232 7.5853C0.736653 7.78391 0.75393 7.98525 0.811001 8.17694C0.868072 8.36862 0.963733 8.54662 1.09211 8.69999L10.8487 20.4591C10.9889 20.6284 11.1648 20.7647 11.3638 20.8582C11.5628 20.9517 11.78 21.0001 11.9999 21C12.2202 21.0001 12.4378 20.9517 12.6373 20.8582C12.8367 20.7647 13.0131 20.6284 13.154 20.4591L19.9602 12.2559C19.9958 12.2149 20.0221 12.1667 20.0372 12.1146C20.0523 12.0625 20.0559 12.0077 20.0478 11.9541C20.0397 11.9004 20.0201 11.8491 19.9902 11.8038C19.9604 11.7585 19.921 11.7202 19.8749 11.6916Z" fill="black"/>
</svg>
