<svg width="24" height="24" viewBox="0 0 24 24" fill="none" xmlns="http://www.w3.org/2000/svg">
<path d="M20.0549 19.7456C20.1225 19.8183 20.1751 19.9036 20.2095 19.9967C20.2439 20.0898 20.2595 20.1888 20.2553 20.288C20.2512 20.3871 20.2274 20.4845 20.1853 20.5744C20.1433 20.6643 20.0838 20.745 20.0104 20.8117C19.9369 20.8785 19.851 20.93 19.7575 20.9632C19.664 20.9965 19.5648 21.0109 19.4657 21.0056C19.3666 21.0003 19.2695 20.9753 19.1801 20.9322C19.0907 20.8891 19.0108 20.8286 18.9449 20.7544L15.7884 17.2856L13.154 20.4619C13.0132 20.6311 12.8367 20.7671 12.6372 20.8601C12.4377 20.9531 12.2201 21.0009 11.9999 21C11.7796 21.0006 11.5618 20.9524 11.3623 20.8588C11.1628 20.7653 10.9864 20.6288 10.8459 20.4591L1.09211 8.70001C0.963733 8.54664 0.868072 8.36865 0.811001 8.17696C0.75393 7.98527 0.736653 7.78394 0.760232 7.58533C0.783691 7.38623 0.846996 7.19389 0.946374 7.01977C1.04575 6.84566 1.17917 6.69334 1.33867 6.57189C2.28479 5.85537 3.30089 5.23629 4.37148 4.72408L3.94492 4.25533C3.81103 4.10813 3.74109 3.91377 3.7505 3.71502C3.7599 3.51626 3.84788 3.32937 3.99508 3.19548C4.14227 3.06159 4.33663 2.99165 4.53539 3.00106C4.73414 3.01046 4.92103 3.09844 5.05492 3.24564L20.0549 19.7456ZM23.2424 7.58533C23.219 7.38623 23.1557 7.19389 23.0563 7.01977C22.9569 6.84566 22.8235 6.69334 22.664 6.57189C19.5991 4.24039 15.8508 2.98491 11.9999 3.00001C10.8877 2.99975 9.77788 3.10333 8.68492 3.30939C8.55383 3.3341 8.43171 3.39333 8.33114 3.48096C8.23058 3.5686 8.1552 3.68147 8.11279 3.80794C8.07038 3.93442 8.06246 4.06991 8.08986 4.20046C8.11726 4.33101 8.17899 4.45189 8.26867 4.55064L17.1421 14.3119C17.2124 14.3892 17.2981 14.451 17.3937 14.4933C17.4892 14.5356 17.5926 14.5575 17.6971 14.5575H17.7187C17.8265 14.5553 17.9325 14.5299 18.0296 14.4829C18.1266 14.436 18.2125 14.3687 18.2812 14.2856L22.9077 8.70001C23.0361 8.54664 23.1318 8.36865 23.1888 8.17696C23.2459 7.98527 23.2632 7.78394 23.2396 7.58533H23.2424Z" fill="black"/>
</svg>
