<svg width="24" height="24" viewBox="0 0 24 24" fill="none" xmlns="http://www.w3.org/2000/svg">
<path d="M11.2477 9.75H2.24774C2.14493 9.75022 2.04316 9.72931 1.94877 9.68855C1.85438 9.64779 1.76938 9.58806 1.69904 9.51306C1.62871 9.43807 1.57454 9.34941 1.53991 9.2526C1.50528 9.1558 1.49093 9.0529 1.49774 8.95031C1.51433 8.75712 1.60357 8.57742 1.74746 8.44744C1.89135 8.31747 2.07918 8.24691 2.27305 8.25H10.4977C10.6006 8.25022 10.7023 8.22931 10.7967 8.18855C10.8911 8.14779 10.9761 8.08806 11.0464 8.01306C11.1168 7.93807 11.1709 7.84941 11.2056 7.7526C11.2402 7.6558 11.2546 7.5529 11.2477 7.45031C11.2312 7.25712 11.1419 7.07742 10.998 6.94744C10.8541 6.81747 10.6663 6.74691 10.4724 6.75H8.64993C8.59575 6.75057 8.5421 6.7394 8.49266 6.71725C8.44321 6.6951 8.39916 6.6625 8.36352 6.6217C8.32788 6.58089 8.30151 6.53285 8.28621 6.48087C8.27092 6.4289 8.26707 6.37423 8.27493 6.32062C8.3572 5.75169 8.60121 5.21837 8.9779 4.78414C9.35459 4.34991 9.84811 4.03305 10.3997 3.87126C10.9513 3.70948 11.5378 3.70958 12.0894 3.87156C12.6409 4.03354 13.1343 4.35058 13.5109 4.78495C13.8874 5.21931 14.1312 5.75272 14.2133 6.32168C14.2954 6.89064 14.2123 7.47121 13.9738 7.99428C13.7354 8.51736 13.3517 8.96092 12.8684 9.27218C12.3851 9.58344 11.8226 9.74929 11.2477 9.75ZM22.4902 9.53531C22.4374 8.79723 22.1137 8.1047 21.5813 7.5908C21.0489 7.07691 20.3453 6.77792 19.6059 6.75129C18.8664 6.72466 18.1431 6.97227 17.5751 7.44653C17.0071 7.9208 16.6344 8.58825 16.5287 9.32062C16.5208 9.37423 16.5247 9.4289 16.54 9.48087C16.5553 9.53285 16.5816 9.58089 16.6173 9.6217C16.6529 9.6625 16.697 9.6951 16.7464 9.71725C16.7958 9.7394 16.8495 9.75057 16.9037 9.75H18.7262C18.9197 9.74739 19.1071 9.81817 19.2506 9.94809C19.3941 10.078 19.483 10.2575 19.4996 10.4503C19.5064 10.5529 19.4921 10.6558 19.4574 10.7526C19.4228 10.8494 19.3687 10.9381 19.2983 11.0131C19.228 11.0881 19.143 11.1478 19.0486 11.1885C18.9542 11.2293 18.8524 11.2502 18.7496 11.25H3.02305C2.82918 11.2469 2.64135 11.3175 2.49746 11.4474C2.35357 11.5774 2.26433 11.7571 2.24774 11.9503C2.24093 12.0529 2.25528 12.1558 2.28991 12.2526C2.32454 12.3494 2.37871 12.4381 2.44904 12.5131C2.51938 12.5881 2.60438 12.6478 2.69877 12.6885C2.79316 12.7293 2.89493 12.7502 2.99774 12.75H19.4977C19.9098 12.75 20.3175 12.6652 20.6953 12.5007C21.0731 12.3362 21.413 12.0957 21.6938 11.7941C21.9745 11.4925 22.1902 11.1362 22.3272 10.7476C22.4642 10.359 22.5197 9.94632 22.4902 9.53531ZM14.2477 14.25H3.77305C3.57918 14.2469 3.39135 14.3175 3.24746 14.4474C3.10357 14.5774 3.01433 14.7571 2.99774 14.9503C2.99093 15.0529 3.00528 15.1558 3.03991 15.2526C3.07454 15.3494 3.12871 15.4381 3.19904 15.5131C3.26938 15.5881 3.35438 15.6478 3.44877 15.6885C3.54316 15.7293 3.64493 15.7502 3.74774 15.75H13.4724C13.666 15.7474 13.8533 15.8182 13.9968 15.9481C14.1403 16.078 14.2293 16.2574 14.2459 16.4503C14.2527 16.5529 14.2383 16.6558 14.2037 16.7526C14.1691 16.8494 14.1149 16.9381 14.0446 17.0131C13.9742 17.0881 13.8892 17.1478 13.7948 17.1885C13.7004 17.2293 13.5987 17.2502 13.4959 17.25H11.6499C11.5958 17.2494 11.5421 17.2606 11.4927 17.2827C11.4432 17.3049 11.3992 17.3375 11.3635 17.3783C11.3279 17.4191 11.3015 17.4671 11.2862 17.5191C11.2709 17.5711 11.2671 17.6258 11.2749 17.6794C11.3572 18.2483 11.6012 18.7816 11.9779 19.2159C12.3546 19.6501 12.8481 19.9669 13.3997 20.1287C13.9513 20.2905 14.5378 20.2904 15.0894 20.1284C15.6409 19.9664 16.1343 19.6494 16.5109 19.215C16.8874 18.7807 17.1312 18.2473 17.2133 17.6783C17.2954 17.1094 17.2123 16.5288 16.9738 16.0057C16.7354 15.4826 16.3517 15.0391 15.8684 14.7278C15.3851 14.4166 14.8226 14.2507 14.2477 14.25Z" fill="black"/>
</svg>
