<svg width="24" height="24" viewBox="0 0 24 24" fill="none" xmlns="http://www.w3.org/2000/svg">
<path d="M10.5 13.5001V18.3413C10.5 18.5402 10.421 18.731 10.2803 18.8716C10.1397 19.0123 9.94891 19.0913 9.75 19.0913C9.70505 19.091 9.6602 19.0869 9.61594 19.0791L3.61594 17.9879C3.44313 17.9565 3.28681 17.8654 3.17425 17.7306C3.06169 17.5958 3.00003 17.4257 3 17.2501V13.5001C3 13.3011 3.07902 13.1104 3.21967 12.9697C3.36032 12.8291 3.55109 12.7501 3.75 12.7501H9.75C9.94891 12.7501 10.1397 12.8291 10.2803 12.9697C10.421 13.1104 10.5 13.3011 10.5 13.5001ZM10.2309 5.08318C10.1466 5.01274 10.0478 4.96169 9.94148 4.93367C9.83521 4.90564 9.72407 4.90131 9.61594 4.92099L3.61594 6.01224C3.44313 6.04364 3.28681 6.13469 3.17425 6.26952C3.06169 6.40435 3.00003 6.57442 3 6.75006V10.5001C3 10.699 3.07902 10.8897 3.21967 11.0304C3.36032 11.171 3.55109 11.2501 3.75 11.2501H9.75C9.94891 11.2501 10.1397 11.171 10.2803 11.0304C10.421 10.8897 10.5 10.699 10.5 10.5001V5.65881C10.5 5.54901 10.4759 5.44055 10.4294 5.34109C10.3829 5.24163 10.3152 5.15359 10.2309 5.08318ZM20.25 12.7501H12.75C12.5511 12.7501 12.3603 12.8291 12.2197 12.9697C12.079 13.1104 12 13.3011 12 13.5001V18.886C11.9998 19.0618 12.0614 19.2321 12.174 19.3671C12.2865 19.5021 12.443 19.5933 12.6159 19.6247L20.1159 20.9879C20.1601 20.9961 20.205 21.0002 20.25 21.0001C20.4489 21.0001 20.6397 20.921 20.7803 20.7804C20.921 20.6397 21 20.449 21 20.2501V13.5001C21 13.3011 20.921 13.1104 20.7803 12.9697C20.6397 12.8291 20.4489 12.7501 20.25 12.7501ZM20.7309 3.17443C20.6466 3.10399 20.5478 3.05294 20.4415 3.02492C20.3352 2.99689 20.2241 2.99256 20.1159 3.01224L12.6159 4.37631C12.4431 4.4077 12.2868 4.49875 12.1743 4.63358C12.0617 4.76842 12 4.93848 12 5.11412V10.5001C12 10.699 12.079 10.8897 12.2197 11.0304C12.3603 11.171 12.5511 11.2501 12.75 11.2501H20.25C20.4489 11.2501 20.6397 11.171 20.7803 11.0304C20.921 10.8897 21 10.699 21 10.5001V3.75006C21 3.64026 20.9759 3.5318 20.9294 3.43234C20.8829 3.33288 20.8152 3.24484 20.7309 3.17443Z" fill="black"/>
</svg>
