<svg width="24" height="24" viewBox="0 0 24 24" fill="none" xmlns="http://www.w3.org/2000/svg">
<path d="M21.7483 9.00006C21.7494 10.1226 21.4706 11.2278 20.937 12.2154C20.4033 13.2031 19.6318 14.042 18.6923 14.6564C17.7527 15.2707 16.6748 15.641 15.556 15.7337C14.4373 15.8265 13.3131 15.6388 12.2852 15.1876L7.40456 20.8332C7.39331 20.8463 7.38019 20.8604 7.368 20.8726C6.80533 21.4352 6.04218 21.7513 5.24644 21.7513C4.4507 21.7513 3.68755 21.4352 3.12487 20.8726C2.5622 20.3099 2.24609 19.5467 2.24609 18.751C2.24609 17.9553 2.5622 17.1921 3.12487 16.6294C3.138 16.6172 3.15112 16.6041 3.16519 16.5929L8.81081 11.7132C8.305 10.5561 8.13356 9.28048 8.31595 8.03094C8.49834 6.78139 9.02725 5.60797 9.84269 4.64377C10.6581 3.67957 11.7275 2.96319 12.9294 2.57588C14.1313 2.18858 15.4177 2.14585 16.6427 2.45256C16.769 2.48421 16.8848 2.54818 16.9789 2.63819C17.0729 2.72819 17.1419 2.84113 17.1791 2.96589C17.2163 3.09066 17.2204 3.22295 17.1909 3.34976C17.1614 3.47656 17.0995 3.59352 17.0111 3.68912L13.4983 7.50006L14.0289 9.97037L16.4983 10.5001L20.3092 6.98256C20.4049 6.8942 20.5218 6.83224 20.6486 6.80278C20.7754 6.77333 20.9077 6.77739 21.0325 6.81456C21.1572 6.85173 21.2702 6.92074 21.3602 7.0148C21.4502 7.10885 21.5142 7.22472 21.5458 7.351C21.6804 7.89035 21.7484 8.44416 21.7483 9.00006Z" fill="black"/>
</svg>
