<svg width="244" height="92" viewBox="0 0 244 92" fill="none" xmlns="http://www.w3.org/2000/svg">
<g clip-path="url(#clip0_2859_2226)">
<path d="M11.9633 0.642124C5.07593 1.71473 0.734497 6.51465 0.734497 12.9771C0.734497 16.5704 2.02085 19.6273 4.48635 21.9066C7.35384 24.5613 10.9449 25.7412 15.4739 25.4998C17.9394 25.3926 20.0565 24.8562 21.3161 24.0786C21.5527 23.9247 21.9057 23.7032 21.9057 23.7032C21.9057 23.7032 21.9057 22.518 21.9057 21.2898C21.9057 20.1924 21.9057 19.0776 21.9057 19.0776C21.7891 18.6823 21.4491 18.8586 21.1017 19.2787C19.9493 20.6463 14.7504 21.3166 12.3116 20.4049C9.68535 19.4128 7.88982 17.2139 7.43424 14.452C6.60347 9.30343 10.1409 5.20071 15.4471 5.20071C17.5642 5.20071 19.3866 5.68338 20.8605 6.64873L21.9057 7.34592V4.79848V2.25104L20.9141 1.76836C18.797 0.72257 14.7504 0.213079 11.9633 0.642124Z" fill="black"/>
<path d="M34.8495 0.642174C28.3374 1.82204 24.0496 6.78285 24.0496 13.1917C24.0496 18.957 28.3106 24.0518 34.1796 25.2853C37.5294 25.9825 41.9781 25.473 44.7384 24.0787C46.5339 23.1669 48.9458 20.8608 49.857 19.1983C53.18 13.0844 50.9021 5.17394 44.9527 2.11701C42.2193 0.72262 37.9046 0.105869 34.8495 0.642174ZM40.8525 5.95158C43.2644 7.18508 44.6848 9.83979 44.6848 13.0844C44.6848 15.2028 44.3364 16.3827 43.2644 17.9648C41.0133 21.3167 35.8143 21.7726 32.9468 18.8765C31.4997 17.4553 30.9369 16.0609 30.8029 13.6207C30.5885 9.43756 32.3304 6.59515 35.8411 5.44209C36.9667 5.06668 39.6466 5.36165 40.8525 5.95158Z" fill="black"/>
<path d="M86.6251 0.642132C83.4896 1.20525 81.2385 2.43875 79.0142 4.79849C73.5472 10.5638 75.4231 20.6195 82.6052 24.1054C85.6335 25.5803 89.9214 26.0093 93.432 25.178C100.48 23.5155 104.527 16.7044 102.704 9.62522C101.606 5.41524 98.3094 2.19741 93.8608 0.99073C92.0921 0.534872 88.3134 0.347166 86.6251 0.642132ZM91.4489 5.49568C92.9228 5.8711 94.8792 7.53364 95.6563 9.06211C96.3531 10.4029 96.6211 14.0229 96.1655 15.7391C95.308 18.796 92.6817 20.7535 89.439 20.7535C87.2147 20.7535 85.8747 20.1368 84.4008 18.4742C81.8817 15.605 81.8013 10.5101 84.24 7.66772C86.0891 5.49568 88.5546 4.77167 91.4489 5.49568Z" fill="black"/>
<path d="M198.457 0.64217C193.044 1.60752 189.292 4.82534 187.925 9.59845C187.175 12.1459 187.47 15.8732 188.542 18.1793C190.176 21.6653 193.446 24.2932 197.332 25.2049C199.797 25.7948 204.165 25.5803 206.39 24.8027C212.205 22.7379 215.609 17.0531 214.617 11.0465C213.599 4.79853 208.855 0.856691 202.021 0.508095C200.762 0.454464 199.154 0.508095 198.457 0.64217ZM204.541 6.11247C206.979 7.56049 208.346 10.5102 208.078 13.7548C207.89 15.9536 207.354 17.214 206.068 18.662C204.728 20.1636 203.361 20.7536 201.164 20.7536C198.162 20.7536 195.616 19.0106 194.652 16.2754C193.446 12.8163 194.143 9.27666 196.447 7.02419C198.457 5.09349 202.075 4.69127 204.541 6.11247Z" fill="black"/>
<path d="M52.4566 1.17842C52.4566 1.3125 52.4566 1.88233 52.4566 1.88233C53.4985 2.57082 54.8149 3.08901 54.8149 6.70906C54.8149 8.0163 54.7863 17.8631 54.8149 20.0563C54.8149 22.7982 53.964 23.4015 52.4565 24.1054C52.4565 24.1054 52.4566 24.8831 52.4566 25.0439C52.4566 25.0439 53.8769 25.0439 56.7444 25.0439H61.0322V20.0563V15.0419L62.131 15.2028C63.7389 15.4173 64.8913 16.6776 67.4908 21.0753C68.6967 23.1401 69.8491 24.8831 70.0099 24.9367C70.1707 25.0171 71.6714 25.0171 73.3061 24.9903L76.3344 24.9099L74.0565 21.0217C72.8238 18.8764 71.1622 16.3022 70.3851 15.2832C69.5543 14.157 69.1255 13.3525 69.3131 13.2989C70.0367 13.0576 71.2158 11.8241 71.725 10.7514C72.4486 9.24979 72.4754 6.59509 71.7786 5.03981C71.5106 4.44987 70.787 3.53816 70.1439 2.97504C68.1875 1.3125 67.4372 1.17842 59.5047 1.17842C55.592 1.17842 52.4566 1.17842 52.4566 1.17842ZM65.3469 6.21968C66.1776 7.13139 66.3384 8.31126 65.856 9.59839C65.454 10.6442 64.0873 11.3682 62.4526 11.3682H61.0322V8.25763V5.14707L62.801 5.25433C64.4089 5.36159 64.6769 5.44204 65.3469 6.21968Z" fill="black"/>
<path d="M104.111 1.17846C104.111 1.48012 104.111 1.98291 104.111 1.98291C105.418 2.88792 106.537 3.89349 106.537 7.31243L106.617 25.0708H109.438H112.486V17.7503V10.4297L118.65 17.7503L124.713 25.0708H127.226H129.637V13.1112V1.17846H126.69H123.742L123.688 8.01634L123.608 14.8274L117.873 8.01634L112.165 1.17846H108.171C105.974 1.17846 104.111 1.17846 104.111 1.17846Z" fill="black"/>
<path d="M136.391 12.9235C133.845 19.3591 131.748 24.9367 131.748 25.0439L134.662 25.0439L137.577 25.0439L138.428 22.4161L139.339 19.9491L144.055 20.0027L148.745 20.0831L149.683 22.5501L150.621 25.0439H153.917C155.74 25.0439 157.274 25.0439 157.274 25.0439C157.274 24.9635 155.123 19.6005 152.524 13.2989C149.924 6.99732 147.754 1.68791 147.673 1.5002C147.566 1.25887 146.628 1.17842 144.27 1.17842H141.027L136.391 12.9235ZM145.797 12.5212C146.494 14.2911 147.057 15.7659 147.057 15.8195C147.057 15.8731 145.663 15.9268 143.975 15.9268C142.287 15.9268 140.893 15.8731 140.893 15.7927C140.893 15.7391 141.456 14.1302 142.126 12.2531C142.823 10.376 143.493 8.39171 143.653 7.88222L143.921 6.94369L144.243 8.15037C144.404 8.82075 145.127 10.7783 145.797 12.5212Z" fill="black"/>
<path d="M154.025 4.39624C154.025 7.05095 154.025 7.61408 154.025 7.61408C154.36 7.61408 154.762 7.61408 154.762 7.61408C155.465 6.10572 156.269 5.46885 159.465 5.46885H161.26V15.2564V25.0439H164.342H167.424V15.2564V5.46885H171.042H174.66V3.32364V1.17842H164.342H154.025V4.39624Z" fill="black"/>
<path d="M177.875 13.1112V25.0439H182.003C184.91 25.0439 186.449 25.0439 186.449 25.0439V24.1054C185.111 23.6026 184.093 22.6976 184.093 20.0831C184.093 15.9681 184.093 8.51909 184.093 6.20628C184.093 3.5918 185.111 2.68678 186.518 1.88233C186.518 1.88233 186.518 1.25887 186.518 1.17842C186.518 1.17842 184.522 1.17842 182.163 1.17842H177.875V13.1112Z" fill="black"/>
<path d="M215.863 1.20527C215.863 1.4198 215.863 1.88235 215.863 1.88235C216.868 2.28458 217.974 4.39627 217.974 6.60853C217.974 7.91577 218.074 9.82635 218.074 14.452V25.0708H221.189H223.97V17.7771C223.97 11.5559 224.023 10.537 224.345 10.8051C224.559 10.9928 227.347 14.2643 230.562 18.072L236.405 25.044H239.969C242.836 25.044 243.6 25.044 243.6 25.044C243.6 24.8563 243.6 24.1054 243.6 24.1054C242.495 23.6027 241.389 22.5971 241.389 19.9826C241.389 18.2731 241.389 16.5513 241.389 11.3682V1.17846H238.441H235.493L235.44 8.06997L235.359 14.9615L229.598 8.09678L223.836 1.20527L219.896 1.17846C216.627 1.17846 215.863 1.20527 215.863 1.20527Z" fill="black"/>
<path d="M151.881 41.4012C151.881 41.8303 152.015 42.2057 152.149 42.2057C152.738 42.2057 154.802 44.4314 155.311 45.638C156.329 47.971 156.436 49.8748 156.436 65.0791C156.436 77.4677 156.517 80.0956 156.865 81.8386C158.098 87.7915 161.287 90.5267 167.692 91.1702C169.3 91.3311 173.534 90.9557 174.526 90.5803C174.847 90.4462 174.928 89.6954 174.928 86.3435V82.2944H172.409C169.461 82.2944 167.156 80.046 167.156 77.0583V59.716V40.5968H159.518H151.881V41.4012Z" fill="black"/>
<path d="M0.5 40.9186C0.580397 41.1331 0.734486 41.8303 0.734486 41.9376C0.734486 42.0716 1.27047 42.4202 1.91364 42.7152C4.29875 43.761 6.79105 46.7643 8.34539 50.4648C8.72058 51.3497 12.0436 60.5473 15.7151 70.9248C19.3866 81.3023 22.6024 90.473 22.7096 90.7412C22.7096 90.7412 23.2992 90.7412 28.927 90.7412C34.662 90.7412 35.0706 90.7412 35.0706 90.7412C34.9902 90.4999 31.1245 78.8085 26.6491 65.4009L18.5022 40.999L9.47095 40.9186C1.27047 40.8649 0.5 40.9186 0.5 40.9186Z" fill="black"/>
<path d="M30.6488 40.8649C30.6488 40.9454 34.4475 52.3687 38.9498 65.9908L47.1503 90.7412H56.1011C61.3537 90.7412 65.0185 90.7412 65.0185 90.7412C65.0185 90.044 64.5964 89.32 63.3904 88.7033C61.1125 87.5502 58.9418 84.9223 57.4679 81.5704C57.1195 80.7928 53.716 71.3002 49.8837 60.5205L42.9093 40.8649H36.8595C33.4828 40.8649 30.6488 40.8649 30.6488 40.8649Z" fill="black"/>
<path d="M55.2972 41.4817C55.9672 43.7878 65.454 72.4264 65.588 72.5873C65.6952 72.6946 67.7855 67.8678 70.251 61.8612C72.7165 55.8546 75.2624 50.0357 75.852 48.9363C77.2456 46.4961 79.5235 44.1096 81.3458 43.2515C82.0962 42.9029 82.8197 42.3129 83.0073 41.9643C83.1681 41.6157 83.2083 40.5699 83.2083 40.9185C83.2083 40.9185 76.857 40.999 69.1389 40.9185H55.1096L55.2972 41.4817Z" fill="black"/>
<path d="M178.68 47.7028V54.2726H175.464H172.248V58.2948V62.3171H175.437H178.626L178.733 71.3538C178.84 78.728 178.948 80.7123 179.296 81.9727C180.957 87.7379 184.683 90.5267 191.543 91.1435C193.526 91.3312 196.608 91.0362 198.591 90.4731L199.583 90.1781V85.9145V81.6777L198.189 82.0531C194.973 82.9112 191.704 82.2944 190.551 80.6587C189.533 79.2375 189.399 78.004 189.399 70.0131V62.3171H194.491H199.583V58.2948V54.2726H194.464H189.319L189.48 51.5106C189.721 47.0861 190.9 44.2437 192.963 43.1442C193.741 42.7152 193.955 42.4471 193.955 41.8571V41.1331H186.317H178.68V47.7028Z" fill="black"/>
<path d="M203.87 41.8035C203.87 42.2593 204.112 42.5811 204.648 42.8493C205.773 43.4392 207.247 45.2895 207.756 46.7375C208.56 49.0972 208.721 53.1463 208.641 68.136C208.534 82.5626 208.534 82.8575 207.917 84.6542C207.301 86.5849 205.961 88.3278 204.621 89.025C204.112 89.2932 203.87 89.615 203.87 90.0708V90.7412H211.481H219.119L219.199 79.9347C219.28 68.2164 219.28 68.3505 220.861 66.2589C222.308 64.3551 225.738 63.2556 228.177 63.8992C229.651 64.3014 230.75 65.2668 231.366 66.6612C231.822 67.707 231.875 68.8064 231.956 79.2643L232.036 90.7412H237.396H242.729V80.8732C242.729 69.8254 242.461 65.5081 241.63 63.0411C239.969 57.9999 236.244 55.506 230.401 55.506C226.167 55.506 222.576 56.9809 220.164 59.716L219.146 60.8423V50.9743V41.1331H211.508H203.87V41.8035Z" fill="black"/>
<path d="M90.1893 53.8703C86.0087 54.6748 83.2216 56.2032 80.3809 59.2334C77.0311 62.8266 75.6643 66.6075 75.6643 72.3728C75.6643 76.4487 76.0663 78.299 77.6474 81.49C78.9606 84.1983 80.5953 86.0486 83.168 87.7647C88.099 91.063 96.4335 92.1088 103.482 90.3122C105.277 89.8563 109.592 87.8988 110.557 87.0943L111.173 86.5849L109.511 82.8307C108.6 80.766 107.823 79.023 107.769 78.9962C107.743 78.9425 107.18 79.1839 106.537 79.5593C103.24 81.4632 98.3094 82.4821 94.7988 81.9458C90.3769 81.3023 88.0186 79.452 87.1879 75.9124L87.0271 75.1884H99.3814H111.762L111.602 71.3538C111.521 68.7796 111.28 66.8757 110.905 65.4545C109.351 59.5551 105.492 55.5329 100.025 54.1385C97.6394 53.5217 92.6816 53.3876 90.1893 53.8703ZM97.9074 62.2635C99.4082 63.0411 100.587 64.4623 101.097 66.1249C101.311 66.8757 101.498 67.6801 101.498 67.8678C101.498 68.136 100.078 68.2164 94.2896 68.2164H87.0807L87.2683 67.3315C87.8846 64.65 89.7606 62.6121 92.3869 61.754C93.566 61.3518 96.7283 61.6467 97.9074 62.2635Z" fill="black"/>
<path d="M128.351 54.8357C125.993 55.1842 124.036 55.9887 121.705 57.544C119.293 59.1529 117.578 61.1909 116.184 64.0601C114.871 66.7952 114.362 69.2354 114.362 72.8555C114.362 76.4755 114.898 78.9157 116.292 81.8922C117.685 84.815 120.794 88.0329 123.474 89.32C128.271 91.6261 134.595 91.4384 138.83 88.8373C139.553 88.4083 140.169 88.0597 140.25 88.0597C140.303 88.0597 140.357 88.6496 140.357 89.4004V90.7412H147.459H154.56L154.534 90.1244C154.534 89.7222 154.132 89.2932 153.274 88.7301C151.827 87.7915 150.701 85.8608 150.273 83.5279C150.112 82.6966 150.005 76.3683 150.005 68.4578V54.8088H145.181H140.357V56.2837C140.357 57.0881 140.277 57.7585 140.196 57.7585C140.116 57.7585 139.66 57.4367 139.178 57.0345C136.739 54.9697 132.907 54.1921 128.351 54.8357ZM136.069 64.7841C137.731 65.7494 138.588 66.7416 139.473 68.6187C140.116 70.0399 140.196 70.5494 140.196 72.9091C140.196 75.2152 140.116 75.8051 139.526 77.0654C138.079 80.176 136.016 81.624 132.693 81.8386C129.021 82.0799 126.368 80.6587 124.894 77.6822C124.278 76.3951 124.144 75.7247 124.063 73.5527C123.849 68.6991 125.537 65.5349 128.967 64.2478C129.423 64.0601 130.897 63.9796 132.317 64.0064C134.542 64.0601 135.051 64.1673 136.069 64.7841Z" fill="black"/>
</g>
<defs>
<clipPath id="clip0_2859_2226">
<rect width="244" height="92" fill="white"/>
</clipPath>
</defs>
</svg>
