<svg width="24" height="24" viewBox="0 0 24 24" fill="none" xmlns="http://www.w3.org/2000/svg">
<path d="M21.4791 5.88937C21.3407 5.69185 21.1568 5.53059 20.9428 5.41929C20.7289 5.30799 20.4912 5.24992 20.2501 5.25H12.7501V2.25H14.2501C14.449 2.25 14.6397 2.17098 14.7804 2.03033C14.921 1.88968 15.0001 1.69891 15.0001 1.5C15.0001 1.30109 14.921 1.11032 14.7804 0.96967C14.6397 0.829018 14.449 0.75 14.2501 0.75H9.75005C9.55114 0.75 9.36037 0.829018 9.21972 0.96967C9.07907 1.11032 9.00005 1.30109 9.00005 1.5C9.00005 1.69891 9.07907 1.88968 9.21972 2.03033C9.36037 2.17098 9.55114 2.25 9.75005 2.25H11.2501V5.25H3.75005C3.50921 5.25054 3.27205 5.30906 3.05861 5.42062C2.84516 5.53218 2.66172 5.69349 2.52379 5.89092C2.38586 6.08834 2.29749 6.31608 2.26616 6.55487C2.23483 6.79366 2.26146 7.03649 2.3438 7.26281L4.79911 14.0128C4.90417 14.3016 5.09538 14.5511 5.34689 14.7277C5.5984 14.9043 5.89807 14.9993 6.20536 15H9.00005V21C9.00005 21.1989 9.07907 21.3897 9.21972 21.5303C9.36037 21.671 9.55114 21.75 9.75005 21.75C9.94896 21.75 10.1397 21.671 10.2804 21.5303C10.421 21.3897 10.5001 21.1989 10.5001 21V15H13.5001V21C13.5001 21.1989 13.5791 21.3897 13.7197 21.5303C13.8604 21.671 14.0511 21.75 14.2501 21.75C14.449 21.75 14.6397 21.671 14.7804 21.5303C14.921 21.3897 15.0001 21.1989 15.0001 21V15H17.7957C18.103 14.9993 18.4026 14.9043 18.6541 14.7277C18.9057 14.5511 19.0969 14.3016 19.2019 14.0128L21.6572 7.26281C21.7401 7.03642 21.7672 6.79339 21.7362 6.55431C21.7052 6.31523 21.617 6.08714 21.4791 5.88937ZM10.3763 13.5L9.14818 6.75H14.8519L13.6238 13.5H10.3763ZM3.75005 6.75H7.6238L8.85099 13.5H6.20443L3.75005 6.75ZM17.7957 13.5H15.1491L16.3763 6.75H20.2501L17.7957 13.5Z" fill="black"/>
</svg>
