<svg width="24" height="24" viewBox="0 0 24 24" fill="none" xmlns="http://www.w3.org/2000/svg">
<path d="M23.25 20.25C23.25 20.4489 23.171 20.6397 23.0303 20.7803C22.8897 20.921 22.6989 21 22.5 21H9C8.80109 21 8.61032 20.921 8.46967 20.7803C8.32902 20.6397 8.25 20.4489 8.25 20.25C8.25 20.0511 8.32902 19.8603 8.46967 19.7197C8.61032 19.579 8.80109 19.5 9 19.5H22.5C22.6989 19.5 22.8897 19.579 23.0303 19.7197C23.171 19.8603 23.25 20.0511 23.25 20.25ZM20.7975 17.9719L4.23844 13.335C3.45145 13.1126 2.75838 12.6398 2.26423 11.9881C1.77009 11.3365 1.5018 10.5415 1.5 9.72374V4.49999C1.49998 4.2623 1.55645 4.02801 1.66475 3.81642C1.77305 3.60484 1.93008 3.42202 2.1229 3.28304C2.31572 3.14405 2.53881 3.05288 2.77379 3.01703C3.00876 2.98119 3.24888 3.00169 3.47438 3.07686L3.98719 3.24749C4.09474 3.28323 4.19279 3.34288 4.27398 3.42195C4.35517 3.50103 4.41738 3.59748 4.45594 3.70405L5.44969 6.45749L8.25 7.2553V4.49999C8.24998 4.2623 8.30645 4.02801 8.41475 3.81642C8.52305 3.60484 8.68008 3.42202 8.8729 3.28304C9.06572 3.14405 9.28881 3.05288 9.52379 3.01703C9.75876 2.98119 9.99888 3.00169 10.2244 3.07686L10.7372 3.24749C10.8387 3.28131 10.9318 3.33646 11.0102 3.40922C11.0886 3.48198 11.1506 3.57068 11.1919 3.66936L13.3013 8.69718L19.005 10.2909C19.7936 10.5124 20.4884 10.9852 20.9838 11.6374C21.4792 12.2897 21.7483 13.0859 21.75 13.905V17.25C21.75 17.3657 21.7231 17.4799 21.6716 17.5836C21.6201 17.6872 21.5453 17.7775 21.453 17.8475C21.3608 17.9174 21.2536 17.965 21.1399 17.9866C21.0261 18.0081 20.909 18.0031 20.7975 17.9719ZM20.25 13.905C20.2487 13.4134 20.0871 12.9357 19.7896 12.5444C19.4922 12.153 19.0751 11.8694 18.6019 11.7366L12.5484 10.0491C12.4394 10.0187 12.3386 9.96403 12.2537 9.88918C12.1688 9.81433 12.1019 9.72123 12.0581 9.61686L9.9375 4.5628L9.75 4.49999V8.24999C9.75008 8.36606 9.72322 8.48056 9.67154 8.58448C9.61986 8.6884 9.54476 8.77891 9.45216 8.84889C9.35956 8.91886 9.25198 8.96639 9.13789 8.98773C9.0238 9.00907 8.90632 9.00364 8.79469 8.97186L4.66969 7.79624C4.55515 7.76341 4.45009 7.70377 4.36319 7.62226C4.27629 7.54074 4.21007 7.4397 4.17 7.32749L3.16781 4.5553L3 4.49999V9.72374C3.00121 10.2145 3.16228 10.6916 3.4588 11.0827C3.75533 11.4737 4.17119 11.7576 4.64344 11.8912L20.25 16.2609V13.905Z" fill="black"/>
</svg>
