<svg width="24" height="24" viewBox="0 0 24 24" fill="none" xmlns="http://www.w3.org/2000/svg">
<path d="M16.5 20.2501C16.5 20.449 16.421 20.6397 16.2804 20.7804C16.1397 20.921 15.949 21.0001 15.75 21.0001H2.25005C2.05114 21.0001 1.86037 20.921 1.71972 20.7804C1.57907 20.6397 1.50005 20.449 1.50005 20.2501C1.50005 20.0511 1.57907 19.8604 1.71972 19.7197C1.86037 19.5791 2.05114 19.5001 2.25005 19.5001H15.75C15.949 19.5001 16.1397 19.5791 16.2804 19.7197C16.421 19.8604 16.5 20.0511 16.5 20.2501ZM23.2369 8.73287C23.2173 8.83726 23.1757 8.93628 23.115 9.02339C23.0542 9.11051 22.9756 9.18372 22.8844 9.23818L9.06474 17.4882C8.48868 17.826 7.83316 18.0046 7.16536 18.0057C6.21409 18.0046 5.29919 17.6401 4.60786 16.9866L4.59661 16.9754L1.2188 13.6688C1.04008 13.4991 0.905938 13.288 0.828227 13.0541C0.750515 12.8202 0.731632 12.5708 0.773246 12.3278C0.814861 12.0849 0.915691 11.856 1.06682 11.6613C1.21795 11.4666 1.41472 11.3122 1.63974 11.2116L1.92099 11.0738C2.0986 10.9866 2.30348 10.9731 2.49099 11.0363L5.14036 11.9307L7.0313 10.7869L4.98474 8.80037C4.80069 8.63081 4.66198 8.41789 4.58127 8.18101C4.50055 7.94413 4.48038 7.69082 4.52259 7.44416C4.5648 7.19749 4.66806 6.96531 4.82296 6.76875C4.97785 6.5722 5.17946 6.41752 5.40942 6.31881L5.43942 6.30662L6.10974 6.05256C6.27874 5.98954 6.46479 5.98954 6.6338 6.05256L11.6907 7.91068L16.5254 5.02506C17.2958 4.56651 18.2056 4.40057 19.0883 4.55756C19.971 4.71455 20.7678 5.18399 21.3329 5.88006L21.3441 5.89412L23.0916 8.13381C23.1569 8.21767 23.2036 8.31444 23.2287 8.41772C23.2537 8.521 23.2565 8.62842 23.2369 8.73287ZM21.3863 8.38599L20.1675 6.82318C19.8283 6.40821 19.3515 6.12871 18.8237 6.03547C18.2959 5.94223 17.7522 6.04143 17.2913 6.31506L12.1538 9.38256C12.0576 9.43961 11.9499 9.47458 11.8385 9.48496C11.7271 9.49534 11.6148 9.48085 11.5097 9.44256L6.37505 7.55443L6.00005 7.69787L6.01974 7.71662L8.77224 10.3876C8.85444 10.4674 8.91724 10.5651 8.95582 10.673C8.9944 10.7809 9.00773 10.8963 8.99478 11.0102C8.98184 11.124 8.94296 11.2334 8.88114 11.33C8.81932 11.4265 8.73621 11.5075 8.63817 11.5669L5.61849 13.3941C5.52507 13.4505 5.42047 13.4859 5.31198 13.4977C5.20349 13.5095 5.09373 13.4975 4.99036 13.4626L2.30255 12.556L2.28474 12.5654L2.25005 12.5813C2.25456 12.5845 2.25866 12.5883 2.26224 12.5926L5.63724 15.8982C5.98946 16.2292 6.43945 16.4371 6.91979 16.4909C7.40012 16.5446 7.88495 16.4413 8.30161 16.1963L21.3863 8.38599Z" fill="black"/>
</svg>
