<svg width="24" height="24" viewBox="0 0 24 24" fill="none" xmlns="http://www.w3.org/2000/svg">
<path d="M11.9999 3.00005C10.2199 3.00005 8.47984 3.52789 6.9998 4.51682C5.51975 5.50576 4.3662 6.91136 3.68501 8.5559C3.00382 10.2004 2.82559 12.01 3.17286 13.7559C3.52013 15.5017 4.3773 17.1053 5.63597 18.364C6.89464 19.6227 8.49829 20.4799 10.2441 20.8271C11.9899 21.1744 13.7995 20.9962 15.4441 20.315C17.0886 19.6338 18.4942 18.4802 19.4832 17.0002C20.4721 15.5201 20.9999 13.7801 20.9999 12C20.9972 9.61394 20.0481 7.32634 18.3609 5.6391C16.6736 3.95187 14.386 3.00278 11.9999 3.00005ZM11.9999 19.5C10.5166 19.5 9.06652 19.0602 7.83315 18.2361C6.59978 17.412 5.63849 16.2406 5.07083 14.8702C4.50318 13.4997 4.35465 11.9917 4.64404 10.5369C4.93343 9.08202 5.64773 7.74564 6.69663 6.69675C7.74552 5.64786 9.08189 4.93355 10.5368 4.64416C11.9916 4.35477 13.4996 4.5033 14.8701 5.07095C16.2405 5.63861 17.4118 6.59991 18.236 7.83327C19.0601 9.06664 19.4999 10.5167 19.4999 12C19.4977 13.9885 18.7068 15.8948 17.3008 17.3009C15.8947 18.7069 13.9884 19.4978 11.9999 19.5ZM5.78055 2.78068L2.78055 5.78068C2.71087 5.85036 2.62815 5.90563 2.5371 5.94335C2.44606 5.98106 2.34847 6.00047 2.24993 6.00047C2.15138 6.00047 2.0538 5.98106 1.96276 5.94335C1.87171 5.90563 1.78899 5.85036 1.7193 5.78068C1.57857 5.63995 1.49951 5.44907 1.49951 5.25005C1.49951 5.05103 1.57857 4.86016 1.7193 4.71943L4.7193 1.71943C4.78899 1.64974 4.87171 1.59447 4.96276 1.55676C5.0538 1.51904 5.15138 1.49963 5.24993 1.49963C5.34847 1.49963 5.44606 1.51904 5.5371 1.55676C5.62815 1.59447 5.71087 1.64974 5.78055 1.71943C5.85024 1.78911 5.90551 1.87183 5.94322 1.96288C5.98094 2.05392 6.00035 2.1515 6.00035 2.25005C6.00035 2.3486 5.98094 2.44618 5.94322 2.53722C5.90551 2.62827 5.85024 2.71099 5.78055 2.78068ZM22.2806 5.78068C22.2109 5.85041 22.1282 5.90573 22.0371 5.94347C21.9461 5.98121 21.8485 6.00064 21.7499 6.00064C21.6514 6.00064 21.5538 5.98121 21.4627 5.94347C21.3717 5.90573 21.289 5.85041 21.2193 5.78068L18.2193 2.78068C18.0786 2.63995 17.9995 2.44907 17.9995 2.25005C17.9995 2.05103 18.0786 1.86016 18.2193 1.71943C18.36 1.5787 18.5509 1.49963 18.7499 1.49963C18.949 1.49963 19.1398 1.5787 19.2806 1.71943L22.2806 4.71943C22.3503 4.78908 22.4056 4.8718 22.4433 4.96285C22.4811 5.05389 22.5005 5.15149 22.5005 5.25005C22.5005 5.34861 22.4811 5.44621 22.4433 5.53726C22.4056 5.6283 22.3503 5.71102 22.2806 5.78068ZM17.2499 11.25C17.4488 11.25 17.6396 11.3291 17.7803 11.4697C17.9209 11.6104 17.9999 11.8011 17.9999 12C17.9999 12.199 17.9209 12.3897 17.7803 12.5304C17.6396 12.671 17.4488 12.75 17.2499 12.75H11.9999C11.801 12.75 11.6103 12.671 11.4696 12.5304C11.3289 12.3897 11.2499 12.199 11.2499 12V6.75005C11.2499 6.55114 11.3289 6.36037 11.4696 6.21972C11.6103 6.07907 11.801 6.00005 11.9999 6.00005C12.1988 6.00005 12.3896 6.07907 12.5303 6.21972C12.6709 6.36037 12.7499 6.55114 12.7499 6.75005V11.25H17.2499Z" fill="black"/>
</svg>
