<svg width="24" height="24" viewBox="0 0 24 24" fill="none" xmlns="http://www.w3.org/2000/svg">
<path d="M23.25 15.7501V18.7501C23.25 18.949 23.171 19.1397 23.0304 19.2804C22.8897 19.421 22.6989 19.5001 22.5 19.5001C22.3011 19.5001 22.1104 19.421 21.9697 19.2804C21.8291 19.1397 21.75 18.949 21.75 18.7501V17.5604L21.5428 17.7685C21.2522 18.0844 17.76 21.7501 12 21.7501C6.10879 21.7501 2.58941 17.9147 2.44222 17.7516C2.3092 17.6031 2.24064 17.4077 2.25163 17.2086C2.26262 17.0095 2.35226 16.8229 2.50082 16.6899C2.64938 16.5569 2.8447 16.4883 3.04381 16.4993C3.24292 16.5103 3.42951 16.5999 3.56254 16.7485C3.58785 16.7813 6.79691 20.2501 12 20.2501C17.2032 20.2501 20.4122 16.7813 20.4441 16.7476C20.452 16.7377 20.4605 16.7284 20.4694 16.7194L20.6897 16.5001H19.5C19.3011 16.5001 19.1104 16.421 18.9697 16.2804C18.8291 16.1397 18.75 15.949 18.75 15.7501C18.75 15.5511 18.8291 15.3604 18.9697 15.2197C19.1104 15.0791 19.3011 15.0001 19.5 15.0001H22.5C22.6989 15.0001 22.8897 15.0791 23.0304 15.2197C23.171 15.3604 23.25 15.5511 23.25 15.7501ZM15 8.86225V7.87506C15.0005 7.11671 14.7456 6.38029 14.2764 5.78455C13.8072 5.1888 13.151 4.76844 12.4136 4.59125C11.6763 4.41406 10.9007 4.49036 10.212 4.80786C9.52335 5.12535 8.96166 5.66554 8.61754 6.34131C8.52703 6.51846 8.36986 6.65241 8.18059 6.71368C7.99133 6.77495 7.78547 6.75853 7.60832 6.66803C7.43116 6.57752 7.29721 6.42035 7.23594 6.23108C7.17467 6.04182 7.19109 5.83596 7.2816 5.65881C7.77891 4.68303 8.5903 3.90313 9.58499 3.44482C10.5797 2.98651 11.6997 2.87649 12.7646 3.1325C13.8294 3.38851 14.7771 3.99562 15.4547 4.85599C16.1324 5.71636 16.5006 6.77986 16.5 7.87506V16.5001C16.5 16.699 16.421 16.8897 16.2804 17.0304C16.1397 17.171 15.9489 17.2501 15.75 17.2501C15.5511 17.2501 15.3604 17.171 15.2197 17.0304C15.0791 16.8897 15 16.699 15 16.5001V15.8879C14.311 16.5509 13.4422 16.9966 12.5018 17.1696C11.5614 17.3426 10.5909 17.2352 9.71102 16.8608C8.83117 16.4864 8.08085 15.8615 7.55344 15.0639C7.02603 14.2663 6.74483 13.3313 6.74483 12.3751C6.74483 11.4189 7.02603 10.4838 7.55344 9.68618C8.08085 8.88858 8.83117 8.2637 9.71102 7.8893C10.5909 7.51489 11.5614 7.40751 12.5018 7.58051C13.4422 7.7535 14.311 8.19924 15 8.86225ZM15 12.3751C15 11.7075 14.8021 11.055 14.4312 10.5C14.0604 9.94499 13.5333 9.51241 12.9166 9.25696C12.2999 9.00152 11.6213 8.93468 10.9666 9.06491C10.3119 9.19513 9.71055 9.51657 9.23855 9.98857C8.76655 10.4606 8.44511 11.0619 8.31489 11.7166C8.18466 12.3713 8.2515 13.0499 8.50694 13.6666C8.76239 14.2833 9.19497 14.8104 9.74999 15.1813C10.305 15.5521 10.9575 15.7501 11.625 15.7501C12.0682 15.7501 12.5071 15.6628 12.9166 15.4932C13.3261 15.3235 13.6981 15.0749 14.0115 14.7615C14.3249 14.4481 14.5735 14.0761 14.7431 13.6666C14.9127 13.2571 15 12.8183 15 12.3751Z" fill="black"/>
</svg>
