<svg width="24" height="24" viewBox="0 0 24 24" fill="none" xmlns="http://www.w3.org/2000/svg">
<path d="M20.25 12.75C20.0511 12.75 19.8603 12.829 19.7197 12.9696C19.579 13.1103 19.5 13.301 19.5 13.5C19.5 13.9924 19.403 14.48 19.2145 14.935C19.0261 15.39 18.7499 15.8034 18.4017 16.1516C18.0534 16.4998 17.64 16.776 17.1851 16.9645C16.7301 17.153 16.2425 17.25 15.75 17.25C14.6422 17.2493 13.5734 17.6591 12.75 18.4003V12H15.75C15.9489 12 16.1397 11.9209 16.2803 11.7803C16.421 11.6396 16.5 11.4489 16.5 11.25C16.5 11.051 16.421 10.8603 16.2803 10.7196C16.1397 10.579 15.9489 10.5 15.75 10.5H12.75V8.1562C13.457 7.97366 14.0731 7.53953 14.483 6.9352C14.8928 6.33086 15.0681 5.59781 14.9761 4.87345C14.8841 4.14909 14.5311 3.48315 13.9832 3.00046C13.4353 2.51777 12.7302 2.25146 12 2.25146C11.2698 2.25146 10.5647 2.51777 10.0168 3.00046C9.46895 3.48315 9.11592 4.14909 9.02391 4.87345C8.93191 5.59781 9.10724 6.33086 9.51705 6.9352C9.92686 7.53953 10.543 7.97366 11.25 8.1562V10.5H8.25C8.05109 10.5 7.86032 10.579 7.71967 10.7196C7.57902 10.8603 7.5 11.051 7.5 11.25C7.5 11.4489 7.57902 11.6396 7.71967 11.7803C7.86032 11.9209 8.05109 12 8.25 12H11.25V18.4003C10.4266 17.6591 9.35782 17.2493 8.25 17.25C7.25544 17.25 6.30161 16.8549 5.59835 16.1516C4.89509 15.4483 4.5 14.4945 4.5 13.5C4.5 13.301 4.42098 13.1103 4.28033 12.9696C4.13968 12.829 3.94891 12.75 3.75 12.75C3.55109 12.75 3.36032 12.829 3.21967 12.9696C3.07902 13.1103 3 13.301 3 13.5C3.00149 14.8919 3.55509 16.2264 4.53933 17.2106C5.52358 18.1949 6.85807 18.7485 8.25 18.75C9.04565 18.75 9.80871 19.066 10.3713 19.6286C10.9339 20.1912 11.25 20.9543 11.25 21.75C11.25 21.9489 11.329 22.1396 11.4697 22.2803C11.6103 22.4209 11.8011 22.5 12 22.5C12.1989 22.5 12.3897 22.4209 12.5303 22.2803C12.671 22.1396 12.75 21.9489 12.75 21.75C12.75 20.9543 13.0661 20.1912 13.6287 19.6286C14.1913 19.066 14.9544 18.75 15.75 18.75C17.1419 18.7485 18.4764 18.1949 19.4607 17.2106C20.4449 16.2264 20.9985 14.8919 21 13.5C21 13.301 20.921 13.1103 20.7803 12.9696C20.6397 12.829 20.4489 12.75 20.25 12.75ZM10.5 5.24995C10.5 4.95328 10.588 4.66327 10.7528 4.4166C10.9176 4.16992 11.1519 3.97766 11.426 3.86413C11.7001 3.7506 12.0017 3.7209 12.2926 3.77877C12.5836 3.83665 12.8509 3.97951 13.0607 4.18929C13.2704 4.39907 13.4133 4.66635 13.4712 4.95732C13.5291 5.24829 13.4994 5.54989 13.3858 5.82398C13.2723 6.09807 13.08 6.33233 12.8334 6.49716C12.5867 6.66198 12.2967 6.74995 12 6.74995C11.6022 6.74995 11.2206 6.59192 10.9393 6.31061C10.658 6.02931 10.5 5.64778 10.5 5.24995Z" fill="black"/>
</svg>
