<svg width="24" height="24" viewBox="0 0 24 24" fill="none" xmlns="http://www.w3.org/2000/svg">
<path d="M16.5 14.6251C16.5 14.8476 16.434 15.0651 16.3104 15.2501C16.1868 15.4351 16.0111 15.5793 15.8055 15.6644C15.6 15.7496 15.3738 15.7718 15.1555 15.7284C14.9373 15.685 14.7368 15.5779 14.5795 15.4206C14.4222 15.2632 14.315 15.0628 14.2716 14.8445C14.2282 14.6263 14.2505 14.4001 14.3356 14.1945C14.4208 13.989 14.565 13.8133 14.75 13.6897C14.935 13.566 15.1525 13.5001 15.375 13.5001C15.6734 13.5001 15.9595 13.6186 16.1705 13.8296C16.3815 14.0405 16.5 14.3267 16.5 14.6251ZM8.625 13.5001C8.4025 13.5001 8.18499 13.566 7.99999 13.6897C7.81498 13.8133 7.67079 13.989 7.58564 14.1945C7.50049 14.4001 7.47821 14.6263 7.52162 14.8445C7.56503 15.0628 7.67217 15.2632 7.82951 15.4206C7.98684 15.5779 8.1873 15.685 8.40553 15.7284C8.62376 15.7718 8.84996 15.7496 9.05552 15.6644C9.26109 15.5793 9.43679 15.4351 9.56041 15.2501C9.68402 15.0651 9.75 14.8476 9.75 14.6251C9.75 14.3267 9.63148 14.0405 9.4205 13.8296C9.20952 13.6186 8.92337 13.5001 8.625 13.5001ZM22.5 15.7501V18.0001C22.5 18.3979 22.342 18.7794 22.0607 19.0607C21.7794 19.342 21.3978 19.5001 21 19.5001H3C2.60218 19.5001 2.22065 19.342 1.93934 19.0607C1.65804 18.7794 1.5 18.3979 1.5 18.0001V15.856C1.49867 14.4102 1.7923 12.9793 2.36294 11.6509C2.93357 10.3225 3.76922 9.12444 4.81875 8.13006L2.46938 5.78068C2.32865 5.63995 2.24959 5.44908 2.24959 5.25006C2.24959 5.05103 2.32865 4.86016 2.46938 4.71943C2.61011 4.5787 2.80098 4.49964 3 4.49964C3.19903 4.49964 3.3899 4.5787 3.53063 4.71943L5.98313 7.17193C7.74408 5.92456 9.84811 5.25315 12.0061 5.24996C14.1641 5.24677 16.2701 5.91196 18.0347 7.15412L20.4722 4.71662C20.6129 4.57589 20.8038 4.49683 21.0028 4.49683C21.2018 4.49683 21.3927 4.57589 21.5334 4.71662C21.6742 4.85735 21.7532 5.04822 21.7532 5.24724C21.7532 5.44627 21.6742 5.63714 21.5334 5.77787L19.2019 8.10943C19.2722 8.17599 19.3425 8.24349 19.4119 8.31287C20.3938 9.28599 21.1725 10.4446 21.7027 11.7214C22.2328 12.9982 22.5039 14.3676 22.5 15.7501ZM21 15.7501C21 13.3631 20.0518 11.0739 18.364 9.3861C16.6761 7.69827 14.387 6.75006 12 6.75006H11.9681C7.02282 6.76693 3 10.8516 3 15.856V18.0001H21V15.7501Z" fill="black"/>
</svg>
