<svg width="24" height="24" viewBox="0 0 24 24" fill="none" xmlns="http://www.w3.org/2000/svg">
<path d="M18.8945 5.10562C17.066 3.27712 14.586 2.24988 12.0001 2.24988C9.41423 2.24988 6.93425 3.27712 5.10574 5.10562C3.27724 6.93412 2.25 9.4141 2.25 12C2.25 14.5859 3.27724 17.0659 5.10574 18.8944C6.93425 20.7229 9.41423 21.7501 12.0001 21.7501C14.586 21.7501 17.066 20.7229 18.8945 18.8944C20.723 17.0659 21.7502 14.5859 21.7502 12C21.7502 9.4141 20.723 6.93412 18.8945 5.10562ZM17.8342 6.16687C18.2187 6.5531 18.5642 6.97641 18.8654 7.43062L15.7079 11.1562L13.0904 3.82312C14.8875 4.05786 16.5559 4.88217 17.8342 6.16687ZM14.5867 12.4687L12.8842 14.4722L10.2976 14.0034L9.41356 11.5312L11.1161 9.52781L13.7026 9.99656L14.5867 12.4687ZM6.16606 6.16687C7.58249 4.74273 9.47299 3.88891 11.4779 3.76781L13.1195 8.36156L5.46574 6.9675C5.68172 6.68583 5.91564 6.4184 6.16606 6.16687ZM4.37356 15.1444C3.9285 14.0575 3.71949 12.8885 3.76038 11.7148C3.80127 10.5411 4.09113 9.38947 4.61074 8.33625L9.41168 9.21281L4.37356 15.1444ZM6.16606 17.8331C5.78149 17.4469 5.43606 17.0236 5.13481 16.5694L8.29231 12.8437L10.9098 20.1731C9.11322 19.9394 7.44488 19.1164 6.16606 17.8331ZM17.8342 17.8331C16.4177 19.2573 14.5273 20.1111 12.5223 20.2322L10.8807 15.6384L18.5345 17.0362C18.3184 17.3166 18.0845 17.5828 17.8342 17.8331ZM14.5886 14.7872L19.6267 8.85562C20.0717 9.94245 20.2807 11.1115 20.2399 12.2852C20.199 13.4589 19.9091 14.6105 19.3895 15.6637L14.5886 14.7872Z" fill="black"/>
</svg>
