<svg width="24" height="24" viewBox="0 0 24 24" fill="none" xmlns="http://www.w3.org/2000/svg">
<path d="M14.4563 12.9684C14.7715 12.5189 14.9573 11.9916 14.9935 11.4438C15.0297 10.896 14.9148 10.3487 14.6615 9.86167C14.4082 9.37462 14.0261 8.96641 13.5568 8.68152C13.0875 8.39663 12.549 8.24599 12 8.24599C11.451 8.24599 10.9125 8.39663 10.4432 8.68152C9.97394 8.96641 9.59181 9.37462 9.33848 9.86167C9.08516 10.3487 8.97033 10.896 9.00653 11.4438C9.04272 11.9916 9.22854 12.5189 9.54375 12.9684C9.22253 13.1201 8.94127 13.3448 8.7225 13.6247C8.51256 13.8926 8.36701 14.2051 8.29711 14.5382C8.22721 14.8713 8.23483 15.216 8.31938 15.5456L9.46125 20.0456C9.58652 20.5347 9.87146 20.9679 10.2709 21.2767C10.6703 21.5854 11.1614 21.752 11.6663 21.75H12.3338C12.8382 21.7522 13.329 21.586 13.7284 21.2778C14.1278 20.9696 14.4129 20.537 14.5388 20.0484L15.6806 15.5484C15.7652 15.2188 15.7728 14.8741 15.7029 14.541C15.633 14.2079 15.4874 13.8954 15.2775 13.6275C15.0591 13.3466 14.7778 13.1209 14.4563 12.9684ZM12 9.75C12.2967 9.75 12.5867 9.83797 12.8334 10.0028C13.08 10.1676 13.2723 10.4019 13.3858 10.676C13.4994 10.9501 13.5291 11.2517 13.4712 11.5426C13.4133 11.8336 13.2704 12.1009 13.0607 12.3107C12.8509 12.5204 12.5836 12.6633 12.2926 12.7212C12.0017 12.7791 11.7001 12.7493 11.426 12.6358C11.1519 12.5223 10.9176 12.33 10.7528 12.0834C10.588 11.8367 10.5 11.5467 10.5 11.25C10.5 10.8522 10.658 10.4706 10.9393 10.1893C11.2206 9.90803 11.6022 9.75 12 9.75ZM14.2266 15.1791L13.0847 19.6791C13.0411 19.8441 12.9436 19.9899 12.8078 20.0934C12.6719 20.1968 12.5054 20.2519 12.3347 20.25H11.6672C11.4965 20.2519 11.33 20.1968 11.1941 20.0934C11.0583 19.9899 10.9608 19.8441 10.9172 19.6791L9.77531 15.1791C9.74715 15.0708 9.74452 14.9574 9.76762 14.8479C9.79072 14.7384 9.83893 14.6358 9.90844 14.5481C9.9815 14.4544 10.0751 14.3788 10.1821 14.3271C10.2891 14.2754 10.4065 14.249 10.5253 14.25H13.4784C13.5972 14.249 13.7147 14.2754 13.8216 14.3271C13.9286 14.3788 14.0223 14.4544 14.0953 14.5481C14.1645 14.636 14.2124 14.7387 14.2351 14.8482C14.2579 14.9576 14.255 15.0709 14.2266 15.1791ZM6.75 12C6.74971 12.4427 6.80515 12.8837 6.915 13.3125C6.94134 13.4084 6.94834 13.5086 6.93559 13.6072C6.92284 13.7059 6.89061 13.801 6.84075 13.887C6.7909 13.9731 6.72443 14.0484 6.64521 14.1085C6.56599 14.1686 6.4756 14.2124 6.3793 14.2373C6.283 14.2622 6.18272 14.2676 6.08429 14.2534C5.98586 14.2391 5.89125 14.2054 5.80596 14.1543C5.72067 14.1031 5.64641 14.0355 5.5875 13.9553C5.52859 13.8752 5.48621 13.7842 5.46281 13.6875C5.20631 12.6903 5.18133 11.6477 5.38979 10.6393C5.59825 9.63099 6.03463 8.68372 6.66553 7.86999C7.29643 7.05627 8.10513 6.39766 9.02974 5.94457C9.95434 5.49149 10.9703 5.25593 12 5.25593C13.0297 5.25593 14.0457 5.49149 14.9703 5.94457C15.8949 6.39766 16.7036 7.05627 17.3345 7.86999C17.9654 8.68372 18.4018 9.63099 18.6102 10.6393C18.8187 11.6477 18.7937 12.6903 18.5372 13.6875C18.4956 13.8484 18.4018 13.9909 18.2705 14.0928C18.1392 14.1946 17.9777 14.2499 17.8116 14.25C17.7483 14.25 17.6853 14.2421 17.6241 14.2266C17.4315 14.1769 17.2666 14.0528 17.1655 13.8816C17.0644 13.7104 17.0355 13.506 17.085 13.3134C17.2702 12.5922 17.2999 11.8397 17.172 11.1061C17.0441 10.3725 16.7617 9.67445 16.3433 9.05837C15.925 8.44229 15.3804 7.92226 14.7457 7.5328C14.1109 7.14334 13.4006 6.89337 12.6619 6.79949C11.9231 6.7056 11.1729 6.76995 10.4609 6.98826C9.74894 7.20658 9.09156 7.57385 8.53243 8.06571C7.97329 8.55757 7.52519 9.16275 7.21788 9.84106C6.91057 10.5194 6.75108 11.2553 6.75 12ZM21.75 12C21.7513 13.6089 21.3539 15.193 20.5933 16.6107C19.8327 18.0285 18.7327 19.2357 17.3916 20.1244C17.226 20.2304 17.0253 20.2672 16.8329 20.2267C16.6404 20.1863 16.4716 20.0719 16.3627 19.9081C16.2538 19.7444 16.2135 19.5444 16.2506 19.3513C16.2877 19.1582 16.3991 18.9874 16.5609 18.8756C18.0376 17.8958 19.1595 16.4665 19.7606 14.7994C20.3616 13.1322 20.4098 11.3158 19.8981 9.61915C19.3864 7.92245 18.3419 6.43563 16.9194 5.3788C15.4968 4.32198 13.7717 3.75132 11.9995 3.75132C10.2274 3.75132 8.50228 4.32198 7.0797 5.3788C5.65712 6.43563 4.61265 7.92245 4.10094 9.61915C3.58923 11.3158 3.63746 13.1322 4.23851 14.7994C4.83956 16.4665 5.96146 17.8958 7.43813 18.8756C7.57216 18.9648 7.67393 19.0948 7.7284 19.2463C7.78286 19.3978 7.78712 19.5628 7.74054 19.7169C7.69397 19.8711 7.59904 20.0061 7.46979 20.1021C7.34053 20.1981 7.18382 20.25 7.02281 20.25C6.87528 20.2502 6.73101 20.2065 6.60844 20.1244C5.20393 19.1922 4.06509 17.9118 3.30307 16.4082C2.54105 14.9046 2.18189 13.2291 2.26065 11.5452C2.3394 9.86138 2.85337 8.22671 3.75241 6.80077C4.65144 5.37482 5.90481 4.20633 7.39019 3.40933C8.87557 2.61234 10.5422 2.21406 12.2274 2.25339C13.9127 2.29271 15.5589 2.76829 17.0055 3.6337C18.4521 4.49911 19.6496 5.7248 20.4812 7.19112C21.3127 8.65744 21.7499 10.3143 21.75 12Z" fill="black"/>
</svg>
