<svg width="24" height="24" viewBox="0 0 24 24" fill="none" xmlns="http://www.w3.org/2000/svg">
<path d="M20.2501 8.325V6.75C20.2501 5.75544 19.855 4.80161 19.1517 4.09835C18.4485 3.39509 17.4947 3 16.5001 3H7.5001C6.50554 3 5.55171 3.39509 4.84845 4.09835C4.14519 4.80161 3.7501 5.75544 3.7501 6.75V8.325C2.90238 8.49714 2.14024 8.95705 1.59281 9.62681C1.04539 10.2966 0.746338 11.135 0.746338 12C0.746338 12.865 1.04539 13.7034 1.59281 14.3732C2.14024 15.043 2.90238 15.5029 3.7501 15.675V18.75C3.7501 19.1478 3.90813 19.5294 4.18944 19.8107C4.47074 20.092 4.85227 20.25 5.2501 20.25H18.7501C19.1479 20.25 19.5295 20.092 19.8108 19.8107C20.0921 19.5294 20.2501 19.1478 20.2501 18.75V15.675C21.0978 15.5029 21.86 15.043 22.4074 14.3732C22.9548 13.7034 23.2539 12.865 23.2539 12C23.2539 11.135 22.9548 10.2966 22.4074 9.62681C21.86 8.95705 21.0978 8.49714 20.2501 8.325ZM7.5001 4.5H16.5001C17.0968 4.5 17.6691 4.73705 18.0911 5.15901C18.513 5.58097 18.7501 6.15326 18.7501 6.75V8.325C17.9036 8.49904 17.1431 8.95959 16.5966 9.62903C16.0501 10.2985 15.7512 11.1358 15.7501 12H8.2501C8.24904 11.1358 7.95008 10.2985 7.4036 9.62903C6.85712 8.95959 6.09655 8.49904 5.2501 8.325V6.75C5.2501 6.15326 5.48715 5.58097 5.90911 5.15901C6.33106 4.73705 6.90336 4.5 7.5001 4.5ZM19.5367 14.25H19.5001C19.3012 14.25 19.1104 14.329 18.9698 14.4697C18.8291 14.6103 18.7501 14.8011 18.7501 15V18.75H5.2501V15C5.2501 14.8011 5.17108 14.6103 5.03043 14.4697C4.88977 14.329 4.69901 14.25 4.5001 14.25H4.46353C4.02015 14.2428 3.58879 14.1047 3.22362 13.8532C2.85845 13.6016 2.57576 13.2477 2.41106 12.836C2.24635 12.4243 2.20698 11.9731 2.29788 11.5391C2.38878 11.105 2.60591 10.7076 2.92198 10.3965C3.23806 10.0855 3.63899 9.87483 4.07442 9.79093C4.50985 9.70704 4.96036 9.75368 5.36937 9.925C5.77838 10.0963 6.12764 10.3847 6.3733 10.7539C6.61895 11.123 6.75004 11.5566 6.7501 12V15.75C6.7501 15.9489 6.82911 16.1397 6.96977 16.2803C7.11042 16.421 7.30119 16.5 7.5001 16.5C7.69901 16.5 7.88977 16.421 8.03043 16.2803C8.17108 16.1397 8.2501 15.9489 8.2501 15.75V13.5H15.7501V15.75C15.7501 15.9489 15.8291 16.1397 15.9698 16.2803C16.1104 16.421 16.3012 16.5 16.5001 16.5C16.699 16.5 16.8898 16.421 17.0304 16.2803C17.1711 16.1397 17.2501 15.9489 17.2501 15.75V12C17.2502 11.5566 17.3812 11.123 17.6269 10.7539C17.8726 10.3847 18.2218 10.0963 18.6308 9.925C19.0398 9.75368 19.4903 9.70704 19.9258 9.79093C20.3612 9.87483 20.7621 10.0855 21.0782 10.3965C21.3943 10.7076 21.6114 11.105 21.7023 11.5391C21.7932 11.9731 21.7538 12.4243 21.5891 12.836C21.4244 13.2477 21.1417 13.6016 20.7766 13.8532C20.4114 14.1047 19.98 14.2428 19.5367 14.25Z" fill="black"/>
</svg>
