<svg width="24" height="24" viewBox="0 0 24 24" fill="none" xmlns="http://www.w3.org/2000/svg">
<path d="M21.7501 18.7501C21.7501 18.949 21.6711 19.1397 21.5304 19.2804C21.3898 19.421 21.199 19.5001 21.0001 19.5001C20.8012 19.5001 20.6104 19.421 20.4698 19.2804C20.3291 19.1397 20.2501 18.949 20.2501 18.7501C20.2476 16.5628 19.3776 14.4658 17.831 12.9192C16.2844 11.3725 14.1874 10.5025 12.0001 10.5001H4.81041L8.03073 13.7194C8.17146 13.8602 8.25052 14.051 8.25052 14.2501C8.25052 14.4491 8.17146 14.6399 8.03073 14.7807C7.89 14.9214 7.69912 15.0005 7.5001 15.0005C7.30108 15.0005 7.11021 14.9214 6.96948 14.7807L2.46948 10.2807C2.39974 10.211 2.34442 10.1283 2.30668 10.0373C2.26894 9.94621 2.24951 9.84861 2.24951 9.75005C2.24951 9.65149 2.26894 9.55389 2.30668 9.46285C2.34442 9.3718 2.39974 9.28908 2.46948 9.21943L6.96948 4.71943C7.11021 4.5787 7.30108 4.49963 7.5001 4.49963C7.69912 4.49963 7.89 4.5787 8.03073 4.71943C8.17146 4.86016 8.25052 5.05103 8.25052 5.25005C8.25052 5.44907 8.17146 5.63995 8.03073 5.78068L4.81041 9.00005H12.0001C14.5851 9.00278 17.0635 10.0309 18.8914 11.8588C20.7193 13.6867 21.7474 16.165 21.7501 18.7501Z" fill="black"/>
</svg>
