<svg width="24" height="24" viewBox="0 0 24 24" fill="none" xmlns="http://www.w3.org/2000/svg">
<path d="M19.4999 3C19.4999 3.19891 19.4209 3.38968 19.2803 3.53033C19.1396 3.67098 18.9488 3.75 18.7499 3.75C16.5627 3.75248 14.4657 4.62247 12.919 6.16911C11.3724 7.71575 10.5024 9.81273 10.4999 12V19.1897L13.7193 15.9694C13.86 15.8286 14.0509 15.7496 14.2499 15.7496C14.449 15.7496 14.6398 15.8286 14.7806 15.9694C14.9213 16.1101 15.0003 16.301 15.0003 16.5C15.0003 16.699 14.9213 16.8899 14.7806 17.0306L10.2806 21.5306C10.2109 21.6004 10.1282 21.6557 10.0371 21.6934C9.94609 21.7312 9.84849 21.7506 9.74993 21.7506C9.65137 21.7506 9.55377 21.7312 9.46272 21.6934C9.37168 21.6557 9.28896 21.6004 9.2193 21.5306L4.7193 17.0306C4.64962 16.9609 4.59435 16.8782 4.55663 16.7872C4.51892 16.6961 4.49951 16.5985 4.49951 16.5C4.49951 16.4015 4.51892 16.3039 4.55663 16.2128C4.59435 16.1218 4.64962 16.0391 4.7193 15.9694C4.86003 15.8286 5.05091 15.7496 5.24993 15.7496C5.34847 15.7496 5.44606 15.769 5.5371 15.8067C5.62815 15.8444 5.71087 15.8997 5.78055 15.9694L8.99993 19.1897V12C9.00266 9.41498 10.0308 6.93661 11.8587 5.10872C13.6865 3.28084 16.1649 2.25273 18.7499 2.25C18.9488 2.25 19.1396 2.32902 19.2803 2.46967C19.4209 2.61032 19.4999 2.80109 19.4999 3Z" fill="black"/>
</svg>
