<svg width="24" height="24" viewBox="0 0 24 24" fill="none" xmlns="http://www.w3.org/2000/svg">
<path d="M22.2805 12.5307L19.2805 15.5307C19.1398 15.6714 18.9489 15.7505 18.7499 15.7505C18.5508 15.7505 18.36 15.6714 18.2192 15.5307C18.0785 15.3899 17.9994 15.1991 17.9994 15.0001C17.9994 14.801 18.0785 14.6102 18.2192 14.4694L19.9395 12.7501H4.06017L5.78048 14.4694C5.92121 14.6102 6.00027 14.801 6.00027 15.0001C6.00027 15.1991 5.92121 15.3899 5.78048 15.5307C5.63975 15.6714 5.44888 15.7505 5.24986 15.7505C5.05083 15.7505 4.85996 15.6714 4.71923 15.5307L1.71923 12.5307C1.6495 12.461 1.59418 12.3783 1.55644 12.2873C1.51869 12.1962 1.49927 12.0986 1.49927 12.0001C1.49927 11.9015 1.51869 11.8039 1.55644 11.7128C1.59418 11.6218 1.6495 11.5391 1.71923 11.4694L4.71923 8.46943C4.85996 8.32869 5.05083 8.24963 5.24986 8.24963C5.44888 8.24963 5.63975 8.32869 5.78048 8.46943C5.92121 8.61016 6.00027 8.80103 6.00027 9.00005C6.00027 9.19907 5.92121 9.38995 5.78048 9.53068L4.06017 11.2501H19.9395L18.2192 9.53068C18.0785 9.38995 17.9994 9.19907 17.9994 9.00005C17.9994 8.80103 18.0785 8.61016 18.2192 8.46943C18.36 8.32869 18.5508 8.24963 18.7499 8.24963C18.9489 8.24963 19.1398 8.32869 19.2805 8.46943L22.2805 11.4694C22.3502 11.5391 22.4055 11.6218 22.4433 11.7128C22.481 11.8039 22.5004 11.9015 22.5004 12.0001C22.5004 12.0986 22.481 12.1962 22.4433 12.2873C22.4055 12.3783 22.3502 12.461 22.2805 12.5307Z" fill="black"/>
</svg>
