<svg width="24" height="24" viewBox="0 0 24 24" fill="none" xmlns="http://www.w3.org/2000/svg">
<path d="M21 20.25C21 20.4489 20.921 20.6397 20.7803 20.7803C20.6397 20.921 20.4489 21 20.25 21H3.75C3.55109 21 3.36032 20.921 3.21967 20.7803C3.07902 20.6397 3 20.4489 3 20.25C3 20.0511 3.07902 19.8603 3.21967 19.7197C3.36032 19.579 3.55109 19.5 3.75 19.5H20.25C20.4489 19.5 20.6397 19.579 20.7803 19.7197C20.921 19.8603 21 20.0511 21 20.25ZM6 15C6.19891 15 6.38968 14.921 6.53033 14.7803C6.67098 14.6397 6.75 14.4489 6.75 14.25V7.06031L15.9694 16.2806C16.0391 16.3503 16.1218 16.4056 16.2128 16.4433C16.3039 16.481 16.4015 16.5004 16.5 16.5004C16.5985 16.5004 16.6961 16.481 16.7872 16.4433C16.8782 16.4056 16.9609 16.3503 17.0306 16.2806C17.1003 16.2109 17.1556 16.1282 17.1933 16.0372C17.231 15.9461 17.2504 15.8485 17.2504 15.75C17.2504 15.6515 17.231 15.5539 17.1933 15.4628C17.1556 15.3718 17.1003 15.2891 17.0306 15.2194L7.81031 6H15C15.1989 6 15.3897 5.92098 15.5303 5.78033C15.671 5.63968 15.75 5.44891 15.75 5.25C15.75 5.05109 15.671 4.86032 15.5303 4.71967C15.3897 4.57902 15.1989 4.5 15 4.5H6C5.80109 4.5 5.61032 4.57902 5.46967 4.71967C5.32902 4.86032 5.25 5.05109 5.25 5.25V14.25C5.25 14.4489 5.32902 14.6397 5.46967 14.7803C5.61032 14.921 5.80109 15 6 15Z" fill="black"/>
</svg>
