<svg width="24" height="24" viewBox="0 0 24 24" fill="none" xmlns="http://www.w3.org/2000/svg">
<path d="M18.75 7.50005V21.0001C18.75 21.199 18.671 21.3897 18.5303 21.5304C18.3897 21.671 18.1989 21.7501 18 21.7501C17.8011 21.7501 17.6103 21.671 17.4697 21.5304C17.329 21.3897 17.25 21.199 17.25 21.0001V8.25005H6.31032L9.53063 11.4694C9.67137 11.6102 9.75043 11.801 9.75043 12.0001C9.75043 12.1991 9.67137 12.3899 9.53063 12.5307C9.3899 12.6714 9.19903 12.7505 9.00001 12.7505C8.80099 12.7505 8.61011 12.6714 8.46938 12.5307L3.96938 8.03068L3.96376 8.02411C3.94876 8.00911 3.93376 7.99224 3.9197 7.97536L3.89813 7.9463C3.89042 7.93669 3.88322 7.92668 3.87657 7.9163L3.85501 7.88161C3.84915 7.87256 3.84382 7.86317 3.83907 7.85349C3.83251 7.84224 3.82688 7.83005 3.82126 7.81786C3.81563 7.80568 3.81188 7.79818 3.8072 7.78693C3.80251 7.77568 3.79876 7.76349 3.79407 7.75224L3.78188 7.71849L3.77345 7.68193C3.77345 7.66974 3.76688 7.65849 3.76407 7.64724C3.76126 7.63599 3.76407 7.61818 3.75845 7.60411C3.75282 7.59005 3.75845 7.58443 3.75376 7.57411C3.74907 7.52485 3.74907 7.47525 3.75376 7.42599C3.75376 7.41568 3.75376 7.4063 3.75845 7.39599C3.76313 7.38568 3.75845 7.36693 3.76407 7.35286C3.7697 7.3388 3.7697 7.33036 3.77345 7.31818L3.78188 7.28161L3.79407 7.24786C3.79876 7.23661 3.80251 7.22443 3.8072 7.21318C3.81188 7.20193 3.81657 7.19255 3.82126 7.18224C3.82595 7.17193 3.83251 7.15786 3.83907 7.14661C3.84382 7.13693 3.84915 7.12754 3.85501 7.11849L3.87657 7.0838C3.88322 7.07343 3.89042 7.06341 3.89813 7.0538L3.9197 7.02474C3.93376 7.00786 3.94876 6.99099 3.96376 6.97599L3.96938 6.96943L8.46938 2.46943C8.61011 2.3287 8.80099 2.24963 9.00001 2.24963C9.19903 2.24963 9.3899 2.3287 9.53063 2.46943C9.67137 2.61016 9.75043 2.80103 9.75043 3.00005C9.75043 3.19907 9.67137 3.38995 9.53063 3.53068L6.31032 6.75005H18C18.1989 6.75005 18.3897 6.82907 18.5303 6.96972C18.671 7.11037 18.75 7.30114 18.75 7.50005Z" fill="black"/>
</svg>
