<svg width="24" height="24" viewBox="0 0 24 24" fill="none" xmlns="http://www.w3.org/2000/svg">
<path d="M21.7499 6C21.7499 6.19891 21.6709 6.38968 21.5303 6.53033C21.3896 6.67098 21.1988 6.75 20.9999 6.75H8.24993V17.6897L11.4693 14.4694C11.61 14.3286 11.8009 14.2496 11.9999 14.2496C12.199 14.2496 12.3898 14.3286 12.5306 14.4694C12.6713 14.6101 12.7503 14.801 12.7503 15C12.7503 15.199 12.6713 15.3899 12.5306 15.5306L8.03055 20.0306C7.9609 20.1004 7.87818 20.1557 7.78713 20.1934C7.69609 20.2312 7.59849 20.2506 7.49993 20.2506C7.40137 20.2506 7.30377 20.2312 7.21272 20.1934C7.12168 20.1557 7.03896 20.1004 6.9693 20.0306L2.4693 15.5306C2.32857 15.3899 2.24951 15.199 2.24951 15C2.24951 14.801 2.32857 14.6101 2.4693 14.4694C2.61003 14.3286 2.80091 14.2496 2.99993 14.2496C3.19895 14.2496 3.38982 14.3286 3.53055 14.4694L6.74993 17.6897V6C6.74993 5.80109 6.82895 5.61032 6.9696 5.46967C7.11025 5.32902 7.30102 5.25 7.49993 5.25H20.9999C21.1988 5.25 21.3896 5.32902 21.5303 5.46967C21.6709 5.61032 21.7499 5.80109 21.7499 6Z" fill="black"/>
</svg>
