<svg width="24" height="24" viewBox="0 0 24 24" fill="none" xmlns="http://www.w3.org/2000/svg">
<path d="M21.7501 5.25C21.7474 7.83502 20.7193 10.3134 18.8914 12.1413C17.0635 13.9692 14.5851 14.9973 12.0001 15H4.81041L8.03073 18.2194C8.17146 18.3601 8.25052 18.551 8.25052 18.75C8.25052 18.949 8.17146 19.1399 8.03073 19.2806C7.89 19.4214 7.69912 19.5004 7.5001 19.5004C7.30108 19.5004 7.11021 19.4214 6.96948 19.2806L2.46948 14.7806C2.39974 14.711 2.34442 14.6283 2.30668 14.5372C2.26894 14.4462 2.24951 14.3486 2.24951 14.25C2.24951 14.1514 2.26894 14.0538 2.30668 13.9628C2.34442 13.8717 2.39974 13.789 2.46948 13.7194L6.96948 9.21937C7.11021 9.07864 7.30108 8.99958 7.5001 8.99958C7.69912 8.99958 7.89 9.07864 8.03073 9.21937C8.17146 9.36011 8.25052 9.55098 8.25052 9.75C8.25052 9.94902 8.17146 10.1399 8.03073 10.2806L4.81041 13.5H12.0001C14.1874 13.4975 16.2844 12.6275 17.831 11.0809C19.3776 9.53425 20.2476 7.43727 20.2501 5.25C20.2501 5.05109 20.3291 4.86032 20.4698 4.71967C20.6104 4.57902 20.8012 4.5 21.0001 4.5C21.199 4.5 21.3898 4.57902 21.5304 4.71967C21.6711 4.86032 21.7501 5.05109 21.7501 5.25Z" fill="black"/>
</svg>
