<svg width="24" height="24" viewBox="0 0 24 24" fill="none" xmlns="http://www.w3.org/2000/svg">
<path d="M20.0306 8.03068L15.5306 12.5307C15.3899 12.6714 15.199 12.7505 15 12.7505C14.801 12.7505 14.6101 12.6714 14.4694 12.5307C14.3286 12.3899 14.2496 12.1991 14.2496 12.0001C14.2496 11.801 14.3286 11.6102 14.4694 11.4694L17.6897 8.25005H6.75V21.0001C6.75 21.199 6.67098 21.3897 6.53033 21.5304C6.38968 21.671 6.19891 21.7501 6 21.7501C5.80109 21.7501 5.61032 21.671 5.46967 21.5304C5.32902 21.3897 5.25 21.199 5.25 21.0001V7.50005C5.25 7.30114 5.32902 7.11037 5.46967 6.96972C5.61032 6.82907 5.80109 6.75005 6 6.75005H17.6897L14.4694 3.53068C14.3286 3.38995 14.2496 3.19907 14.2496 3.00005C14.2496 2.80103 14.3286 2.61016 14.4694 2.46943C14.6101 2.3287 14.801 2.24963 15 2.24963C15.199 2.24963 15.3899 2.3287 15.5306 2.46943L20.0306 6.96943C20.1004 7.03908 20.1557 7.1218 20.1934 7.21285C20.2312 7.30389 20.2506 7.40149 20.2506 7.50005C20.2506 7.59861 20.2312 7.69621 20.1934 7.78726C20.1557 7.8783 20.1004 7.96102 20.0306 8.03068Z" fill="black"/>
</svg>
