<svg width="24" height="24" viewBox="0 0 24 24" fill="none" xmlns="http://www.w3.org/2000/svg">
<path d="M21 12C21 12.1989 20.921 12.3897 20.7803 12.5303C20.6397 12.671 20.4489 12.75 20.25 12.75H3.75C3.55109 12.75 3.36032 12.671 3.21967 12.5303C3.07902 12.3897 3 12.1989 3 12C3 11.8011 3.07902 11.6103 3.21967 11.4697C3.36032 11.329 3.55109 11.25 3.75 11.25H20.25C20.4489 11.25 20.6397 11.329 20.7803 11.4697C20.921 11.6103 21 11.8011 21 12ZM9.53063 5.0306L11.25 3.31029V8.99998C11.25 9.19889 11.329 9.38966 11.4697 9.53031C11.6103 9.67096 11.8011 9.74998 12 9.74998C12.1989 9.74998 12.3897 9.67096 12.5303 9.53031C12.671 9.38966 12.75 9.19889 12.75 8.99998V3.31029L14.4694 5.0306C14.6101 5.17134 14.801 5.2504 15 5.2504C15.199 5.2504 15.3899 5.17134 15.5306 5.0306C15.6714 4.88987 15.7504 4.699 15.7504 4.49998C15.7504 4.30096 15.6714 4.11009 15.5306 3.96935L12.5306 0.969355C12.461 0.899622 12.3783 0.844303 12.2872 0.80656C12.1962 0.768817 12.0986 0.74939 12 0.74939C11.9014 0.74939 11.8038 0.768817 11.7128 0.80656C11.6217 0.844303 11.539 0.899622 11.4694 0.969355L8.46937 3.96935C8.32864 4.11009 8.24958 4.30096 8.24958 4.49998C8.24958 4.699 8.32864 4.88987 8.46937 5.0306C8.61011 5.17134 8.80098 5.2504 9 5.2504C9.19902 5.2504 9.38989 5.17134 9.53063 5.0306ZM14.4694 18.9694L12.75 20.6897V15C12.75 14.8011 12.671 14.6103 12.5303 14.4696C12.3897 14.329 12.1989 14.25 12 14.25C11.8011 14.25 11.6103 14.329 11.4697 14.4696C11.329 14.6103 11.25 14.8011 11.25 15V20.6897L9.53063 18.9694C9.38989 18.8286 9.19902 18.7496 9 18.7496C8.80098 18.7496 8.61011 18.8286 8.46937 18.9694C8.32864 19.1101 8.24958 19.301 8.24958 19.5C8.24958 19.699 8.32864 19.8899 8.46937 20.0306L11.4694 23.0306C11.539 23.1003 11.6217 23.1557 11.7128 23.1934C11.8038 23.2311 11.9014 23.2506 12 23.2506C12.0986 23.2506 12.1962 23.2311 12.2872 23.1934C12.3783 23.1557 12.461 23.1003 12.5306 23.0306L15.5306 20.0306C15.6714 19.8899 15.7504 19.699 15.7504 19.5C15.7504 19.301 15.6714 19.1101 15.5306 18.9694C15.3899 18.8286 15.199 18.7496 15 18.7496C14.801 18.7496 14.6101 18.8286 14.4694 18.9694Z" fill="black"/>
</svg>
