<svg width="24" height="24" viewBox="0 0 24 24" fill="none" xmlns="http://www.w3.org/2000/svg">
<path d="M17.2501 6.74998H12.0001V2.99998C12.0002 2.85156 11.9563 2.70644 11.8739 2.58299C11.7915 2.45955 11.6743 2.36333 11.5372 2.30651C11.4001 2.2497 11.2492 2.23485 11.1036 2.26383C10.9581 2.29282 10.8244 2.36435 10.7195 2.46936L1.71948 11.4694C1.64974 11.539 1.59443 11.6217 1.55668 11.7128C1.51894 11.8038 1.49951 11.9014 1.49951 12C1.49951 12.0985 1.51894 12.1961 1.55668 12.2872C1.59443 12.3782 1.64974 12.461 1.71948 12.5306L10.7195 21.5306C10.8244 21.6356 10.9581 21.7071 11.1036 21.7361C11.2492 21.7651 11.4001 21.7503 11.5372 21.6934C11.6743 21.6366 11.7915 21.5404 11.8739 21.417C11.9563 21.2935 12.0002 21.1484 12.0001 21V17.25H17.2501C17.449 17.25 17.6398 17.171 17.7804 17.0303C17.9211 16.8897 18.0001 16.6989 18.0001 16.5V7.49998C18.0001 7.30107 17.9211 7.1103 17.7804 6.96965C17.6398 6.829 17.449 6.74998 17.2501 6.74998ZM16.5001 15.75H11.2501C11.0512 15.75 10.8604 15.829 10.7198 15.9697C10.5791 16.1103 10.5001 16.3011 10.5001 16.5V19.1897L3.31041 12L10.5001 4.81029V7.49998C10.5001 7.69889 10.5791 7.88966 10.7198 8.03031C10.8604 8.17096 11.0512 8.24998 11.2501 8.24998H16.5001V15.75ZM21.0001 7.49998V16.5C21.0001 16.6989 20.9211 16.8897 20.7804 17.0303C20.6398 17.171 20.449 17.25 20.2501 17.25C20.0512 17.25 19.8604 17.171 19.7198 17.0303C19.5791 16.8897 19.5001 16.6989 19.5001 16.5V7.49998C19.5001 7.30107 19.5791 7.1103 19.7198 6.96965C19.8604 6.829 20.0512 6.74998 20.2501 6.74998C20.449 6.74998 20.6398 6.829 20.7804 6.96965C20.9211 7.1103 21.0001 7.30107 21.0001 7.49998Z" fill="black"/>
</svg>
