<svg width="24" height="24" viewBox="0 0 24 24" fill="none" xmlns="http://www.w3.org/2000/svg">
<path d="M19.4999 7.49998V15.75C19.4999 17.3413 18.8678 18.8674 17.7426 19.9926C16.6174 21.1178 15.0912 21.75 13.4999 21.75C11.9086 21.75 10.3825 21.1178 9.25729 19.9926C8.13207 18.8674 7.49993 17.3413 7.49993 15.75V4.81029L4.28055 8.03061C4.13982 8.17134 3.94895 8.2504 3.74993 8.2504C3.55091 8.2504 3.36003 8.17133 3.2193 8.0306C3.07857 7.88987 2.99951 7.699 2.99951 7.49998C2.99951 7.30096 3.07857 7.11009 3.2193 6.96935L7.7193 2.46935C7.78896 2.39962 7.87168 2.3443 7.96272 2.30656C8.05377 2.26882 8.15137 2.24939 8.24993 2.24939C8.34849 2.24939 8.44609 2.26882 8.53713 2.30656C8.62818 2.3443 8.7109 2.39962 8.78055 2.46935L13.2806 6.96935C13.4213 7.11009 13.5003 7.30096 13.5003 7.49998C13.5003 7.699 13.4213 7.88987 13.2806 8.03061C13.1398 8.17134 12.949 8.2504 12.7499 8.2504C12.5509 8.2504 12.36 8.17134 12.2193 8.03061L8.99993 4.81029V15.75C8.99993 16.9435 9.47403 18.088 10.3179 18.932C11.1619 19.7759 12.3065 20.25 13.4999 20.25C14.6934 20.25 15.838 19.7759 16.6819 18.932C17.5258 18.088 17.9999 16.9435 17.9999 15.75V7.49998C17.9999 7.30107 18.0789 7.1103 18.2196 6.96965C18.3603 6.829 18.551 6.74998 18.7499 6.74998C18.9488 6.74998 19.1396 6.829 19.2803 6.96965C19.4209 7.1103 19.4999 7.30107 19.4999 7.49998Z" fill="black"/>
</svg>
