<svg width="24" height="24" viewBox="0 0 24 24" fill="none" xmlns="http://www.w3.org/2000/svg">
<path d="M20.0305 17.0307L17.0305 20.0307C16.8898 20.1714 16.6989 20.2505 16.4999 20.2505C16.3008 20.2505 16.11 20.1714 15.9692 20.0307C15.8285 19.8899 15.7494 19.6991 15.7494 19.5001C15.7494 19.301 15.8285 19.1102 15.9692 18.9694L17.6895 17.2501H4.49986C4.30095 17.2501 4.11018 17.171 3.96953 17.0304C3.82888 16.8897 3.74986 16.699 3.74986 16.5001C3.74986 16.3011 3.82888 16.1104 3.96953 15.9697C4.11018 15.8291 4.30095 15.7501 4.49986 15.7501H17.6895L15.9692 14.0307C15.8285 13.8899 15.7494 13.6991 15.7494 13.5001C15.7494 13.301 15.8285 13.1102 15.9692 12.9694C16.11 12.8287 16.3008 12.7496 16.4999 12.7496C16.6989 12.7496 16.8898 12.8287 17.0305 12.9694L20.0305 15.9694C20.1002 16.0391 20.1555 16.1218 20.1933 16.2128C20.231 16.3039 20.2504 16.4015 20.2504 16.5001C20.2504 16.5986 20.231 16.6962 20.1933 16.7873C20.1555 16.8783 20.1002 16.961 20.0305 17.0307ZM6.96923 11.0307C7.10996 11.1714 7.30083 11.2505 7.49986 11.2505C7.69888 11.2505 7.88975 11.1714 8.03048 11.0307C8.17121 10.8899 8.25027 10.6991 8.25027 10.5001C8.25027 10.301 8.17121 10.1102 8.03048 9.96943L6.31017 8.25005H19.4999C19.6988 8.25005 19.8895 8.17103 20.0302 8.03038C20.1708 7.88973 20.2499 7.69896 20.2499 7.50005C20.2499 7.30114 20.1708 7.11037 20.0302 6.96972C19.8895 6.82907 19.6988 6.75005 19.4999 6.75005H6.31017L8.03048 5.03068C8.17121 4.88995 8.25027 4.69907 8.25027 4.50005C8.25027 4.30103 8.17121 4.11016 8.03048 3.96943C7.88975 3.8287 7.69888 3.74963 7.49986 3.74963C7.30083 3.74963 7.10996 3.8287 6.96923 3.96943L3.96923 6.96943C3.8995 7.03908 3.84418 7.1218 3.80644 7.21285C3.76869 7.30389 3.74927 7.40149 3.74927 7.50005C3.74927 7.59861 3.76869 7.69621 3.80644 7.78726C3.84418 7.8783 3.8995 7.96102 3.96923 8.03068L6.96923 11.0307Z" fill="black"/>
</svg>
