<svg width="24" height="24" viewBox="0 0 24 24" fill="none" xmlns="http://www.w3.org/2000/svg">
<path d="M22.4999 7.5V14.25C22.4999 14.4489 22.4209 14.6397 22.2803 14.7803C22.1396 14.921 21.9488 15 21.7499 15C21.551 15 21.3603 14.921 21.2196 14.7803C21.0789 14.6397 20.9999 14.4489 20.9999 14.25V9.31031L11.7806 18.5306C11.7109 18.6004 11.6282 18.6557 11.5371 18.6934C11.4461 18.7312 11.3485 18.7506 11.2499 18.7506C11.1514 18.7506 11.0538 18.7312 10.9627 18.6934C10.8717 18.6557 10.789 18.6004 10.7193 18.5306L1.7193 9.53063C1.57857 9.38989 1.49951 9.19902 1.49951 9C1.49951 8.80098 1.57857 8.61011 1.7193 8.46937C1.86003 8.32864 2.05091 8.24958 2.24993 8.24958C2.44895 8.24958 2.63982 8.32864 2.78055 8.46937L11.2499 16.9397L19.9396 8.25H14.9999C14.801 8.25 14.6103 8.17098 14.4696 8.03033C14.3289 7.88968 14.2499 7.69891 14.2499 7.5C14.2499 7.30109 14.3289 7.11032 14.4696 6.96967C14.6103 6.82902 14.801 6.75 14.9999 6.75H21.7499C21.9488 6.75 22.1396 6.82902 22.2803 6.96967C22.4209 7.11032 22.4999 7.30109 22.4999 7.5Z" fill="black"/>
</svg>
