<svg width="24" height="24" viewBox="0 0 24 24" fill="none" xmlns="http://www.w3.org/2000/svg">
<path d="M21.7499 18C21.7499 18.1989 21.6709 18.3897 21.5303 18.5303C21.3896 18.671 21.1988 18.75 20.9999 18.75H7.49993C7.30102 18.75 7.11025 18.671 6.9696 18.5303C6.82895 18.3897 6.74993 18.1989 6.74993 18V6.31029L3.53055 9.53061C3.38982 9.67134 3.19895 9.7504 2.99993 9.7504C2.80091 9.7504 2.61003 9.67134 2.4693 9.53061C2.32857 9.38987 2.24951 9.199 2.24951 8.99998C2.24951 8.80096 2.32857 8.61009 2.4693 8.46935L6.9693 3.96935C7.03896 3.89962 7.12168 3.8443 7.21272 3.80656C7.30377 3.76882 7.40137 3.74939 7.49993 3.74939C7.59849 3.74939 7.69609 3.76882 7.78713 3.80656C7.87818 3.8443 7.9609 3.89962 8.03055 3.96935L12.5306 8.46935C12.6713 8.61009 12.7503 8.80096 12.7503 8.99998C12.7503 9.199 12.6713 9.38987 12.5306 9.53061C12.3898 9.67134 12.199 9.7504 11.9999 9.7504C11.8009 9.7504 11.61 9.67134 11.4693 9.53061L8.24993 6.31029V17.25H20.9999C21.1988 17.25 21.3896 17.329 21.5303 17.4696C21.6709 17.6103 21.7499 17.8011 21.7499 18Z" fill="black"/>
</svg>
