<svg width="24" height="24" viewBox="0 0 24 24" fill="none" xmlns="http://www.w3.org/2000/svg">
<path d="M18.7499 8.25005V18.0001C18.7499 18.199 18.6709 18.3897 18.5303 18.5304C18.3896 18.671 18.1988 18.7501 17.9999 18.7501H8.24993C8.05102 18.7501 7.86025 18.671 7.7196 18.5304C7.57895 18.3897 7.49993 18.199 7.49993 18.0001C7.49993 17.8011 7.57895 17.6104 7.7196 17.4697C7.86025 17.3291 8.05102 17.2501 8.24993 17.2501H16.1896L5.4693 6.53068C5.32857 6.38995 5.24951 6.19907 5.24951 6.00005C5.24951 5.80103 5.32857 5.61016 5.4693 5.46943C5.61003 5.3287 5.80091 5.24963 5.99993 5.24963C6.19895 5.24963 6.38982 5.3287 6.53055 5.46943L17.2499 16.1897V8.25005C17.2499 8.05114 17.3289 7.86037 17.4696 7.71972C17.6103 7.57907 17.801 7.50005 17.9999 7.50005C18.1988 7.50005 18.3896 7.57907 18.5303 7.71972C18.6709 7.86037 18.7499 8.05114 18.7499 8.25005Z" fill="black"/>
</svg>
