<svg width="24" height="24" viewBox="0 0 24 24" fill="none" xmlns="http://www.w3.org/2000/svg">
<path d="M19.2806 8.03061C19.211 8.10034 19.1283 8.15566 19.0372 8.1934C18.9462 8.23114 18.8486 8.25057 18.75 8.25057C18.6514 8.25057 18.5538 8.23114 18.4628 8.1934C18.3717 8.15566 18.289 8.10034 18.2194 8.03061L15 4.81029V12C14.9973 14.585 13.9692 17.0634 12.1413 18.8913C10.3134 20.7191 7.83502 21.7472 5.25 21.75C5.05109 21.75 4.86032 21.671 4.71967 21.5303C4.57902 21.3897 4.5 21.1989 4.5 21C4.5 20.8011 4.57902 20.6103 4.71967 20.4696C4.86032 20.329 5.05109 20.25 5.25 20.25C7.43727 20.2475 9.53425 19.3775 11.0809 17.8309C12.6275 16.2842 13.4975 14.1873 13.5 12V4.81029L10.2806 8.03061C10.1399 8.17134 9.94902 8.2504 9.75 8.2504C9.55098 8.2504 9.36011 8.17134 9.21937 8.03061C9.07864 7.88987 8.99958 7.699 8.99958 7.49998C8.99958 7.30096 9.07864 7.11009 9.21937 6.96935L13.7194 2.46935C13.789 2.39962 13.8717 2.3443 13.9628 2.30656C14.0538 2.26882 14.1514 2.24939 14.25 2.24939C14.3486 2.24939 14.4462 2.26882 14.5372 2.30656C14.6283 2.3443 14.711 2.39962 14.7806 2.46935L19.2806 6.96935C19.3504 7.03901 19.4057 7.12173 19.4434 7.21277C19.4812 7.30382 19.5006 7.40142 19.5006 7.49998C19.5006 7.59854 19.4812 7.69614 19.4434 7.78718C19.4057 7.87823 19.3504 7.96095 19.2806 8.03061Z" fill="black"/>
</svg>
