<svg width="24" height="24" viewBox="0 0 24 24" fill="none" xmlns="http://www.w3.org/2000/svg">
<path d="M15.5306 18.2194C15.6003 18.289 15.6556 18.3717 15.6933 18.4628C15.7311 18.5538 15.7505 18.6514 15.7505 18.75C15.7505 18.8485 15.7311 18.9461 15.6933 19.0372C15.6556 19.1282 15.6003 19.2109 15.5306 19.2806L12.5306 22.2806C12.4609 22.3503 12.3782 22.4057 12.2871 22.4434C12.1961 22.4811 12.0985 22.5006 11.9999 22.5006C11.9014 22.5006 11.8038 22.4811 11.7127 22.4434C11.6217 22.4057 11.539 22.3503 11.4693 22.2806L8.4693 19.2806C8.32857 19.1399 8.24951 18.949 8.24951 18.75C8.24951 18.551 8.32857 18.3601 8.4693 18.2194C8.61003 18.0786 8.80091 17.9996 8.99993 17.9996C9.19895 17.9996 9.38982 18.0786 9.53055 18.2194L11.2499 19.9397V4.06029L9.53055 5.7806C9.38982 5.92134 9.19895 6.0004 8.99993 6.0004C8.80091 6.0004 8.61003 5.92134 8.4693 5.7806C8.32857 5.63987 8.24951 5.449 8.24951 5.24998C8.24951 5.05096 8.32857 4.86009 8.4693 4.71935L11.4693 1.71935C11.539 1.64962 11.6217 1.5943 11.7127 1.55656C11.8038 1.51882 11.9014 1.49939 11.9999 1.49939C12.0985 1.49939 12.1961 1.51882 12.2871 1.55656C12.3782 1.5943 12.4609 1.64962 12.5306 1.71935L15.5306 4.71935C15.6713 4.86009 15.7503 5.05096 15.7503 5.24998C15.7503 5.449 15.6713 5.63987 15.5306 5.7806C15.3898 5.92134 15.199 6.0004 14.9999 6.0004C14.8009 6.0004 14.61 5.92134 14.4693 5.7806L12.7499 4.06029V19.9397L14.4693 18.2194C14.539 18.1496 14.6217 18.0943 14.7127 18.0566C14.8038 18.0188 14.9014 17.9994 14.9999 17.9994C15.0985 17.9994 15.1961 18.0188 15.2871 18.0566C15.3782 18.0943 15.4609 18.1496 15.5306 18.2194Z" fill="black"/>
</svg>
