<svg width="24" height="24" viewBox="0 0 24 24" fill="none" xmlns="http://www.w3.org/2000/svg">
<path d="M20.7806 8.03061C20.711 8.10034 20.6283 8.15566 20.5372 8.1934C20.4462 8.23114 20.3486 8.25057 20.25 8.25057C20.1514 8.25057 20.0538 8.23114 19.9628 8.1934C19.8717 8.15566 19.789 8.10034 19.7194 8.03061L16.5 4.81029V15.75C16.5 17.3413 15.8679 18.8674 14.7426 19.9926C13.6174 21.1178 12.0913 21.75 10.5 21.75C8.9087 21.75 7.38258 21.1178 6.25736 19.9926C5.13214 18.8674 4.5 17.3413 4.5 15.75V7.49998C4.5 7.30107 4.57902 7.1103 4.71967 6.96965C4.86032 6.829 5.05109 6.74998 5.25 6.74998C5.44891 6.74998 5.63968 6.829 5.78033 6.96965C5.92098 7.1103 6 7.30107 6 7.49998V15.75C6 16.9435 6.47411 18.088 7.31802 18.932C8.16193 19.7759 9.30653 20.25 10.5 20.25C11.6935 20.25 12.8381 19.7759 13.682 18.932C14.5259 18.088 15 16.9435 15 15.75V4.81029L11.7806 8.03061C11.6399 8.17134 11.449 8.2504 11.25 8.2504C11.051 8.2504 10.8601 8.17134 10.7194 8.03061C10.5786 7.88987 10.4996 7.699 10.4996 7.49998C10.4996 7.30096 10.5786 7.11009 10.7194 6.96935L15.2194 2.46935C15.289 2.39962 15.3717 2.3443 15.4628 2.30656C15.5538 2.26882 15.6514 2.24939 15.75 2.24939C15.8486 2.24939 15.9462 2.26882 16.0372 2.30656C16.1283 2.3443 16.211 2.39962 16.2806 2.46935L20.7806 6.96935C20.8504 7.03901 20.9057 7.12173 20.9434 7.21277C20.9812 7.30382 21.0006 7.40142 21.0006 7.49998C21.0006 7.59854 20.9812 7.69614 20.9434 7.78718C20.9057 7.87823 20.8504 7.96095 20.7806 8.03061Z" fill="black"/>
</svg>
