<svg width="24" height="24" viewBox="0 0 24 24" fill="none" xmlns="http://www.w3.org/2000/svg">
<path d="M19.4999 21C19.4999 21.1989 19.4209 21.3897 19.2803 21.5303C19.1396 21.671 18.9488 21.75 18.7499 21.75C16.1649 21.7472 13.6865 20.7191 11.8587 18.8913C10.0308 17.0634 9.00266 14.585 8.99993 12V4.81029L5.78055 8.03061C5.63982 8.17134 5.44895 8.2504 5.24993 8.2504C5.05091 8.2504 4.86003 8.17134 4.7193 8.03061C4.57857 7.88987 4.49951 7.699 4.49951 7.49998C4.49951 7.30096 4.57857 7.11009 4.7193 6.96935L9.2193 2.46935C9.28896 2.39962 9.37168 2.3443 9.46272 2.30656C9.55377 2.26882 9.65137 2.24939 9.74993 2.24939C9.84849 2.24939 9.94609 2.26882 10.0371 2.30656C10.1282 2.3443 10.2109 2.39962 10.2806 2.46935L14.7806 6.96935C14.9213 7.11009 15.0003 7.30096 15.0003 7.49998C15.0003 7.699 14.9213 7.88987 14.7806 8.03061C14.6398 8.17134 14.449 8.2504 14.2499 8.2504C14.0509 8.2504 13.86 8.17134 13.7193 8.03061L10.4999 4.81029V12C10.5024 14.1873 11.3724 16.2842 12.919 17.8309C14.4657 19.3775 16.5627 20.2475 18.7499 20.25C18.9488 20.25 19.1396 20.329 19.2803 20.4696C19.4209 20.6103 19.4999 20.8011 19.4999 21Z" fill="black"/>
</svg>
