<svg width="24" height="24" viewBox="0 0 24 24" fill="none" xmlns="http://www.w3.org/2000/svg">
<path d="M11.9999 12.75V18.75C11.9999 18.9489 11.9209 19.1397 11.7803 19.2803C11.6396 19.421 11.4488 19.5 11.2499 19.5C11.051 19.5 10.8603 19.421 10.7196 19.2803C10.5789 19.1397 10.4999 18.9489 10.4999 18.75V14.5613L4.28055 20.7806C4.21087 20.8503 4.12815 20.9056 4.0371 20.9433C3.94606 20.981 3.84847 21.0004 3.74993 21.0004C3.65138 21.0004 3.5538 20.981 3.46276 20.9433C3.37171 20.9056 3.28899 20.8503 3.2193 20.7806C3.14962 20.7109 3.09435 20.6282 3.05663 20.5372C3.01892 20.4461 2.99951 20.3485 2.99951 20.25C2.99951 20.1515 3.01892 20.0539 3.05663 19.9628C3.09435 19.8718 3.14962 19.7891 3.2193 19.7194L9.43868 13.5H5.24993C5.05102 13.5 4.86025 13.421 4.7196 13.2803C4.57895 13.1397 4.49993 12.9489 4.49993 12.75C4.49993 12.5511 4.57895 12.3603 4.7196 12.2197C4.86025 12.079 5.05102 12 5.24993 12H11.2499C11.4488 12 11.6396 12.079 11.7803 12.2197C11.9209 12.3603 11.9999 12.5511 11.9999 12.75ZM19.4999 3H7.49993C7.1021 3 6.72057 3.15804 6.43927 3.43934C6.15796 3.72064 5.99993 4.10218 5.99993 4.5V9C5.99993 9.19891 6.07895 9.38968 6.2196 9.53033C6.36025 9.67098 6.55102 9.75 6.74993 9.75C6.94884 9.75 7.13961 9.67098 7.28026 9.53033C7.42091 9.38968 7.49993 9.19891 7.49993 9V4.5H19.4999V16.5H14.9999C14.801 16.5 14.6103 16.579 14.4696 16.7197C14.3289 16.8603 14.2499 17.0511 14.2499 17.25C14.2499 17.4489 14.3289 17.6397 14.4696 17.7803C14.6103 17.921 14.801 18 14.9999 18H19.4999C19.8978 18 20.2793 17.842 20.5606 17.5607C20.8419 17.2794 20.9999 16.8978 20.9999 16.5V4.5C20.9999 4.10218 20.8419 3.72064 20.5606 3.43934C20.2793 3.15804 19.8978 3 19.4999 3Z" fill="black"/>
</svg>
