<svg width="24" height="24" viewBox="0 0 24 24" fill="none" xmlns="http://www.w3.org/2000/svg">
<path d="M21.7499 13.5001C21.7481 15.0908 21.1154 16.6159 19.9906 17.7408C18.8657 18.8656 17.3406 19.4983 15.7499 19.5001H7.49986C7.30095 19.5001 7.11018 19.421 6.96953 19.2804C6.82888 19.1397 6.74986 18.949 6.74986 18.7501C6.74986 18.5511 6.82888 18.3604 6.96953 18.2197C7.11018 18.0791 7.30095 18.0001 7.49986 18.0001H15.7499C16.9433 18.0001 18.0879 17.5259 18.9318 16.682C19.7758 15.8381 20.2499 14.6935 20.2499 13.5001C20.2499 12.3066 19.7758 11.162 18.9318 10.3181C18.0879 9.47416 16.9433 9.00005 15.7499 9.00005H4.81017L8.03048 12.2194C8.17121 12.3602 8.25027 12.551 8.25027 12.7501C8.25027 12.9491 8.17121 13.1399 8.03048 13.2807C7.88975 13.4214 7.69888 13.5005 7.49986 13.5005C7.30083 13.5005 7.10996 13.4214 6.96923 13.2807L2.46923 8.78068C2.3995 8.71102 2.34418 8.6283 2.30644 8.53726C2.26869 8.44621 2.24927 8.34861 2.24927 8.25005C2.24927 8.15149 2.26869 8.05389 2.30644 7.96285C2.34418 7.8718 2.3995 7.78908 2.46923 7.71943L6.96923 3.21943C7.10996 3.0787 7.30083 2.99963 7.49986 2.99963C7.69888 2.99963 7.88975 3.0787 8.03048 3.21943C8.17121 3.36016 8.25027 3.55103 8.25027 3.75005C8.25027 3.94907 8.17121 4.13995 8.03048 4.28068L4.81017 7.50005H15.7499C17.3406 7.50179 18.8657 8.13449 19.9906 9.25933C21.1154 10.3842 21.7481 11.9093 21.7499 13.5001Z" fill="black"/>
</svg>
