<svg width="24" height="24" viewBox="0 0 24 24" fill="none" xmlns="http://www.w3.org/2000/svg">
<path d="M21.5306 9.53061C21.461 9.60034 21.3783 9.65566 21.2872 9.6934C21.1962 9.73114 21.0986 9.75057 21 9.75057C20.9014 9.75057 20.8038 9.73114 20.7128 9.6934C20.6217 9.65566 20.539 9.60034 20.4694 9.53061L17.25 6.31029V18C17.25 18.1989 17.171 18.3897 17.0303 18.5303C16.8897 18.671 16.6989 18.75 16.5 18.75H3C2.80109 18.75 2.61032 18.671 2.46967 18.5303C2.32902 18.3897 2.25 18.1989 2.25 18C2.25 17.8011 2.32902 17.6103 2.46967 17.4696C2.61032 17.329 2.80109 17.25 3 17.25H15.75V6.31029L12.5306 9.53061C12.3899 9.67134 12.199 9.7504 12 9.7504C11.801 9.7504 11.6101 9.67134 11.4694 9.53061C11.3286 9.38987 11.2496 9.199 11.2496 8.99998C11.2496 8.80096 11.3286 8.61009 11.4694 8.46935L15.9694 3.96935C16.039 3.89962 16.1217 3.8443 16.2128 3.80656C16.3038 3.76882 16.4014 3.74939 16.5 3.74939C16.5986 3.74939 16.6962 3.76882 16.7872 3.80656C16.8783 3.8443 16.961 3.89962 17.0306 3.96935L21.5306 8.46935C21.6004 8.53901 21.6557 8.62173 21.6934 8.71277C21.7312 8.80382 21.7506 8.90142 21.7506 8.99998C21.7506 9.09854 21.7312 9.19614 21.6934 9.28718C21.6557 9.37823 21.6004 9.46095 21.5306 9.53061Z" fill="black"/>
</svg>
