<svg width="24" height="24" viewBox="0 0 24 24" fill="none" xmlns="http://www.w3.org/2000/svg">
<path d="M15.9694 12.2194L19.1897 9.00005H8.25C7.05653 9.00005 5.91193 9.47416 5.06802 10.3181C4.22411 11.162 3.75 12.3066 3.75 13.5001C3.75 14.6935 4.22411 15.8381 5.06802 16.682C5.91193 17.5259 7.05653 18.0001 8.25 18.0001H16.5C16.6989 18.0001 16.8897 18.0791 17.0303 18.2197C17.171 18.3604 17.25 18.5511 17.25 18.7501C17.25 18.949 17.171 19.1397 17.0303 19.2804C16.8897 19.421 16.6989 19.5001 16.5 19.5001H8.25C6.6587 19.5001 5.13258 18.8679 4.00736 17.7427C2.88214 16.6175 2.25 15.0913 2.25 13.5001C2.25 11.9088 2.88214 10.3826 4.00736 9.25741C5.13258 8.13219 6.6587 7.50005 8.25 7.50005H19.1897L15.9694 4.28068C15.8997 4.21099 15.8444 4.12827 15.8067 4.03722C15.769 3.94618 15.7496 3.8486 15.7496 3.75005C15.7496 3.6515 15.769 3.55392 15.8067 3.46288C15.8444 3.37183 15.8997 3.28911 15.9694 3.21943C16.0391 3.14974 16.1218 3.09447 16.2128 3.05676C16.3039 3.01904 16.4015 2.99963 16.5 2.99963C16.5985 2.99963 16.6961 3.01904 16.7872 3.05676C16.8782 3.09447 16.9609 3.14974 17.0306 3.21943L21.5306 7.71943C21.6004 7.78908 21.6557 7.8718 21.6934 7.96285C21.7312 8.05389 21.7506 8.15149 21.7506 8.25005C21.7506 8.34861 21.7312 8.44621 21.6934 8.53726C21.6557 8.6283 21.6004 8.71102 21.5306 8.78068L17.0306 13.2807C16.8899 13.4214 16.699 13.5005 16.5 13.5005C16.301 13.5005 16.1101 13.4214 15.9694 13.2807C15.8286 13.1399 15.7496 12.9491 15.7496 12.7501C15.7496 12.551 15.8286 12.3602 15.9694 12.2194Z" fill="black"/>
</svg>
