<svg width="24" height="24" viewBox="0 0 24 24" fill="none" xmlns="http://www.w3.org/2000/svg">
<path d="M13.4999 9.75005V6.00005C13.4999 5.80114 13.5789 5.61037 13.7196 5.46972C13.8603 5.32907 14.051 5.25005 14.2499 5.25005C14.4488 5.25005 14.6396 5.32907 14.7803 5.46972C14.9209 5.61037 14.9999 5.80114 14.9999 6.00005V7.93974L18.9693 3.96943C19.11 3.8287 19.3009 3.74963 19.4999 3.74963C19.699 3.74963 19.8898 3.8287 20.0306 3.96943C20.1713 4.11016 20.2503 4.30103 20.2503 4.50005C20.2503 4.69907 20.1713 4.88995 20.0306 5.03068L16.0602 9.00005H17.9999C18.1988 9.00005 18.3896 9.07907 18.5303 9.21972C18.6709 9.36037 18.7499 9.55114 18.7499 9.75005C18.7499 9.94896 18.6709 10.1397 18.5303 10.2804C18.3896 10.421 18.1988 10.5001 17.9999 10.5001H14.2499C14.051 10.5001 13.8603 10.421 13.7196 10.2804C13.5789 10.1397 13.4999 9.94896 13.4999 9.75005ZM9.74993 13.5001H5.99993C5.80102 13.5001 5.61025 13.5791 5.4696 13.7197C5.32895 13.8604 5.24993 14.0511 5.24993 14.2501C5.24993 14.449 5.32895 14.6397 5.4696 14.7804C5.61025 14.921 5.80102 15.0001 5.99993 15.0001H7.93962L3.9693 18.9694C3.82857 19.1102 3.74951 19.301 3.74951 19.5001C3.74951 19.6991 3.82857 19.8899 3.9693 20.0307C4.11003 20.1714 4.30091 20.2505 4.49993 20.2505C4.69895 20.2505 4.88982 20.1714 5.03055 20.0307L8.99993 16.0604V18.0001C8.99993 18.199 9.07895 18.3897 9.2196 18.5304C9.36025 18.671 9.55102 18.7501 9.74993 18.7501C9.94884 18.7501 10.1396 18.671 10.2803 18.5304C10.4209 18.3897 10.4999 18.199 10.4999 18.0001V14.2501C10.4999 14.0511 10.4209 13.8604 10.2803 13.7197C10.1396 13.5791 9.94884 13.5001 9.74993 13.5001ZM16.0602 15.0001H17.9999C18.1988 15.0001 18.3896 14.921 18.5303 14.7804C18.6709 14.6397 18.7499 14.449 18.7499 14.2501C18.7499 14.0511 18.6709 13.8604 18.5303 13.7197C18.3896 13.5791 18.1988 13.5001 17.9999 13.5001H14.2499C14.051 13.5001 13.8603 13.5791 13.7196 13.7197C13.5789 13.8604 13.4999 14.0511 13.4999 14.2501V18.0001C13.4999 18.199 13.5789 18.3897 13.7196 18.5304C13.8603 18.671 14.051 18.7501 14.2499 18.7501C14.4488 18.7501 14.6396 18.671 14.7803 18.5304C14.9209 18.3897 14.9999 18.199 14.9999 18.0001V16.0604L18.9693 20.0307C19.039 20.1004 19.1217 20.1556 19.2128 20.1933C19.3038 20.2311 19.4014 20.2505 19.4999 20.2505C19.5985 20.2505 19.6961 20.2311 19.7871 20.1933C19.8781 20.1556 19.9609 20.1004 20.0306 20.0307C20.1002 19.961 20.1555 19.8783 20.1932 19.7872C20.2309 19.6962 20.2503 19.5986 20.2503 19.5001C20.2503 19.4015 20.2309 19.3039 20.1932 19.2129C20.1555 19.1218 20.1002 19.0391 20.0306 18.9694L16.0602 15.0001ZM9.74993 5.25005C9.55102 5.25005 9.36025 5.32907 9.2196 5.46972C9.07895 5.61037 8.99993 5.80114 8.99993 6.00005V7.93974L5.03055 3.96943C4.88982 3.8287 4.69895 3.74963 4.49993 3.74963C4.30091 3.74963 4.11003 3.8287 3.9693 3.96943C3.82857 4.11016 3.74951 4.30103 3.74951 4.50005C3.74951 4.69907 3.82857 4.88995 3.9693 5.03068L7.93962 9.00005H5.99993C5.80102 9.00005 5.61025 9.07907 5.4696 9.21972C5.32895 9.36037 5.24993 9.55114 5.24993 9.75005C5.24993 9.94896 5.32895 10.1397 5.4696 10.2804C5.61025 10.421 5.80102 10.5001 5.99993 10.5001H9.74993C9.94884 10.5001 10.1396 10.421 10.2803 10.2804C10.4209 10.1397 10.4999 9.94896 10.4999 9.75005V6.00005C10.4999 5.80114 10.4209 5.61037 10.2803 5.46972C10.1396 5.32907 9.94884 5.25005 9.74993 5.25005Z" fill="black"/>
</svg>
