<svg width="24" height="24" viewBox="0 0 24 24" fill="none" xmlns="http://www.w3.org/2000/svg">
<path d="M21.5306 17.7806L18.5306 20.7806C18.4609 20.8504 18.3782 20.9057 18.2871 20.9434C18.1961 20.9812 18.0985 21.0006 17.9999 21.0006C17.9014 21.0006 17.8038 20.9812 17.7127 20.9434C17.6217 20.9057 17.539 20.8504 17.4693 20.7806L14.4693 17.7806C14.3286 17.6399 14.2495 17.449 14.2495 17.25C14.2495 17.051 14.3286 16.8601 14.4693 16.7194C14.61 16.5786 14.8009 16.4996 14.9999 16.4996C15.199 16.4996 15.3898 16.5786 15.5306 16.7194L17.2499 18.4397V13.0603L11.9999 7.81031L6.74993 13.0603V18.4397L8.4693 16.7194C8.61003 16.5786 8.80091 16.4996 8.99993 16.4996C9.19895 16.4996 9.38982 16.5786 9.53055 16.7194C9.67128 16.8601 9.75035 17.051 9.75035 17.25C9.75035 17.449 9.67128 17.6399 9.53055 17.7806L6.53055 20.7806C6.4609 20.8504 6.37818 20.9057 6.28713 20.9434C6.19609 20.9812 6.09849 21.0006 5.99993 21.0006C5.90137 21.0006 5.80377 20.9812 5.71272 20.9434C5.62168 20.9057 5.53896 20.8504 5.4693 20.7806L2.4693 17.7806C2.39962 17.7109 2.34435 17.6282 2.30663 17.5372C2.26892 17.4461 2.24951 17.3485 2.24951 17.25C2.24951 17.1515 2.26892 17.0539 2.30663 16.9628C2.34435 16.8718 2.39962 16.7891 2.4693 16.7194C2.61003 16.5786 2.80091 16.4996 2.99993 16.4996C3.09847 16.4996 3.19606 16.519 3.2871 16.5567C3.37815 16.5944 3.46087 16.6497 3.53055 16.7194L5.24993 18.4397V12.75C5.24985 12.6515 5.26919 12.5539 5.30683 12.4629C5.34447 12.3718 5.39968 12.2891 5.4693 12.2194L11.2499 6.43969V2.25C11.2499 2.05109 11.3289 1.86032 11.4696 1.71967C11.6103 1.57902 11.801 1.5 11.9999 1.5C12.1988 1.5 12.3896 1.57902 12.5303 1.71967C12.6709 1.86032 12.7499 2.05109 12.7499 2.25V6.43969L18.5306 12.2194C18.6002 12.2891 18.6554 12.3718 18.693 12.4629C18.7307 12.5539 18.75 12.6515 18.7499 12.75V18.4397L20.4693 16.7194C20.61 16.5786 20.8009 16.4996 20.9999 16.4996C21.199 16.4996 21.3898 16.5786 21.5306 16.7194C21.6713 16.8601 21.7503 17.051 21.7503 17.25C21.7503 17.449 21.6713 17.6399 21.5306 17.7806Z" fill="black"/>
</svg>
