<svg width="24" height="24" viewBox="0 0 24 24" fill="none" xmlns="http://www.w3.org/2000/svg">
<path d="M8.03073 13.7194C8.17146 13.8602 8.25052 14.051 8.25052 14.2501C8.25052 14.4491 8.17146 14.6399 8.03073 14.7807C7.89 14.9214 7.69912 15.0005 7.5001 15.0005C7.30108 15.0005 7.11021 14.9214 6.96948 14.7807L2.46948 10.2807C2.39974 10.211 2.34442 10.1283 2.30668 10.0373C2.26894 9.94621 2.24951 9.84861 2.24951 9.75005C2.24951 9.65149 2.26894 9.55389 2.30668 9.46285C2.34442 9.3718 2.39974 9.28908 2.46948 9.21943L6.96948 4.71943C7.11021 4.5787 7.30108 4.49963 7.5001 4.49963C7.69912 4.49963 7.89 4.5787 8.03073 4.71943C8.17146 4.86016 8.25052 5.05103 8.25052 5.25005C8.25052 5.44907 8.17146 5.63995 8.03073 5.78068L4.06041 9.75005L8.03073 13.7194ZM12.0001 9.00005H9.31041L12.5307 5.78068C12.6715 5.63995 12.7505 5.44907 12.7505 5.25005C12.7505 5.05103 12.6715 4.86016 12.5307 4.71943C12.39 4.5787 12.1991 4.49963 12.0001 4.49963C11.8011 4.49963 11.6102 4.5787 11.4695 4.71943L6.96948 9.21943C6.89974 9.28908 6.84443 9.3718 6.80668 9.46285C6.76894 9.55389 6.74951 9.65149 6.74951 9.75005C6.74951 9.84861 6.76894 9.94621 6.80668 10.0373C6.84443 10.1283 6.89974 10.211 6.96948 10.2807L11.4695 14.7807C11.5392 14.8504 11.6219 14.9056 11.7129 14.9433C11.804 14.9811 11.9016 15.0005 12.0001 15.0005C12.0986 15.0005 12.1962 14.9811 12.2873 14.9433C12.3783 14.9056 12.461 14.8504 12.5307 14.7807C12.6004 14.711 12.6557 14.6283 12.6934 14.5372C12.7311 14.4462 12.7505 14.3486 12.7505 14.2501C12.7505 14.1515 12.7311 14.0539 12.6934 13.9629C12.6557 13.8718 12.6004 13.7891 12.5307 13.7194L9.31041 10.5001H12.0001C14.1874 10.5025 16.2844 11.3725 17.831 12.9192C19.3776 14.4658 20.2476 16.5628 20.2501 18.7501C20.2501 18.949 20.3291 19.1397 20.4698 19.2804C20.6104 19.421 20.8012 19.5001 21.0001 19.5001C21.199 19.5001 21.3898 19.421 21.5304 19.2804C21.6711 19.1397 21.7501 18.949 21.7501 18.7501C21.7474 16.165 20.7193 13.6867 18.8914 11.8588C17.0635 10.0309 14.5851 9.00278 12.0001 9.00005Z" fill="black"/>
</svg>
