<svg width="24" height="24" viewBox="0 0 24 24" fill="none" xmlns="http://www.w3.org/2000/svg">
<path d="M21.7499 10.5C21.7481 12.0908 21.1154 13.6159 19.9906 14.7407C18.8657 15.8656 17.3406 16.4983 15.7499 16.5H4.81017L8.03048 19.7194C8.17121 19.8601 8.25027 20.051 8.25027 20.25C8.25027 20.449 8.17121 20.6399 8.03048 20.7806C7.88975 20.9214 7.69888 21.0004 7.49986 21.0004C7.30083 21.0004 7.10996 20.9214 6.96923 20.7806L2.46923 16.2806C2.3995 16.211 2.34418 16.1283 2.30644 16.0372C2.26869 15.9462 2.24927 15.8486 2.24927 15.75C2.24927 15.6514 2.26869 15.5538 2.30644 15.4628C2.34418 15.3717 2.3995 15.289 2.46923 15.2194L6.96923 10.7194C7.10996 10.5786 7.30083 10.4996 7.49986 10.4996C7.69888 10.4996 7.88975 10.5786 8.03048 10.7194C8.17121 10.8601 8.25027 11.051 8.25027 11.25C8.25027 11.449 8.17121 11.6399 8.03048 11.7806L4.81017 15H15.7499C16.9433 15 18.0879 14.5259 18.9318 13.682C19.7758 12.8381 20.2499 11.6935 20.2499 10.5C20.2499 9.30653 19.7758 8.16193 18.9318 7.31802C18.0879 6.47411 16.9433 6 15.7499 6H7.49986C7.30095 6 7.11018 5.92098 6.96953 5.78033C6.82888 5.63968 6.74986 5.44891 6.74986 5.25C6.74986 5.05109 6.82888 4.86032 6.96953 4.71967C7.11018 4.57902 7.30095 4.5 7.49986 4.5H15.7499C17.3406 4.50174 18.8657 5.13444 19.9906 6.25928C21.1154 7.38412 21.7481 8.90923 21.7499 10.5Z" fill="black"/>
</svg>
