<svg width="24" height="24" viewBox="0 0 24 24" fill="none" xmlns="http://www.w3.org/2000/svg">
<path d="M21 3.75C21 3.94891 20.921 4.13968 20.7803 4.28033C20.6397 4.42098 20.4489 4.5 20.25 4.5H3.75C3.55109 4.5 3.36032 4.42098 3.21967 4.28033C3.07902 4.13968 3 3.94891 3 3.75C3 3.55109 3.07902 3.36032 3.21967 3.21967C3.36032 3.07902 3.55109 3 3.75 3H20.25C20.4489 3 20.6397 3.07902 20.7803 3.21967C20.921 3.36032 21 3.55109 21 3.75ZM15.9694 7.71937L6.75 16.9397V9.75C6.75 9.55109 6.67098 9.36032 6.53033 9.21967C6.38968 9.07902 6.19891 9 6 9C5.80109 9 5.61032 9.07902 5.46967 9.21967C5.32902 9.36032 5.25 9.55109 5.25 9.75V18.75C5.25 18.9489 5.32902 19.1397 5.46967 19.2803C5.61032 19.421 5.80109 19.5 6 19.5H15C15.1989 19.5 15.3897 19.421 15.5303 19.2803C15.671 19.1397 15.75 18.9489 15.75 18.75C15.75 18.5511 15.671 18.3603 15.5303 18.2197C15.3897 18.079 15.1989 18 15 18H7.81031L17.0306 8.78063C17.1003 8.71094 17.1556 8.62822 17.1933 8.53717C17.231 8.44613 17.2504 8.34855 17.2504 8.25C17.2504 8.15145 17.231 8.05387 17.1933 7.96283C17.1556 7.87178 17.1003 7.78906 17.0306 7.71937C16.9609 7.64969 16.8782 7.59442 16.7872 7.5567C16.6961 7.51899 16.5985 7.49958 16.5 7.49958C16.4015 7.49958 16.3039 7.51899 16.2128 7.5567C16.1218 7.59442 16.0391 7.64969 15.9694 7.71937Z" fill="black"/>
</svg>
