<svg width="24" height="24" viewBox="0 0 24 24" fill="none" xmlns="http://www.w3.org/2000/svg">
<path d="M12.7499 3.75V20.25C12.7499 20.4489 12.6708 20.6397 12.5302 20.7803C12.3895 20.921 12.1988 21 11.9999 21C11.8009 21 11.6102 20.921 11.4695 20.7803C11.3289 20.6397 11.2499 20.4489 11.2499 20.25V3.75C11.2499 3.55109 11.3289 3.36032 11.4695 3.21967C11.6102 3.07902 11.8009 3 11.9999 3C12.1988 3 12.3895 3.07902 12.5302 3.21967C12.6708 3.36032 12.7499 3.55109 12.7499 3.75ZM8.99986 11.25H3.31017L5.03048 9.53063C5.17121 9.38989 5.25027 9.19902 5.25027 9C5.25027 8.80098 5.17121 8.61011 5.03048 8.46937C4.88975 8.32864 4.69888 8.24958 4.49986 8.24958C4.30083 8.24958 4.10996 8.32864 3.96923 8.46937L0.969233 11.4694C0.8995 11.539 0.844181 11.6217 0.806438 11.7128C0.768695 11.8038 0.749268 11.9014 0.749268 12C0.749268 12.0986 0.768695 12.1962 0.806438 12.2872C0.844181 12.3783 0.8995 12.461 0.969233 12.5306L3.96923 15.5306C4.10996 15.6714 4.30083 15.7504 4.49986 15.7504C4.69888 15.7504 4.88975 15.6714 5.03048 15.5306C5.17121 15.3899 5.25027 15.199 5.25027 15C5.25027 14.801 5.17121 14.6101 5.03048 14.4694L3.31017 12.75H8.99986C9.19877 12.75 9.38953 12.671 9.53019 12.5303C9.67084 12.3897 9.74986 12.1989 9.74986 12C9.74986 11.8011 9.67084 11.6103 9.53019 11.4697C9.38953 11.329 9.19877 11.25 8.99986 11.25ZM23.0305 11.4694L20.0305 8.46937C19.8898 8.32864 19.6989 8.24958 19.4999 8.24958C19.3008 8.24958 19.11 8.32864 18.9692 8.46937C18.8285 8.61011 18.7494 8.80098 18.7494 9C18.7494 9.19902 18.8285 9.38989 18.9692 9.53063L20.6895 11.25H14.9999C14.8009 11.25 14.6102 11.329 14.4695 11.4697C14.3289 11.6103 14.2499 11.8011 14.2499 12C14.2499 12.1989 14.3289 12.3897 14.4695 12.5303C14.6102 12.671 14.8009 12.75 14.9999 12.75H20.6895L18.9692 14.4694C18.8285 14.6101 18.7494 14.801 18.7494 15C18.7494 15.199 18.8285 15.3899 18.9692 15.5306C19.11 15.6714 19.3008 15.7504 19.4999 15.7504C19.6989 15.7504 19.8898 15.6714 20.0305 15.5306L23.0305 12.5306C23.1002 12.461 23.1555 12.3783 23.1933 12.2872C23.231 12.1962 23.2504 12.0986 23.2504 12C23.2504 11.9014 23.231 11.8038 23.1933 11.7128C23.1555 11.6217 23.1002 11.539 23.0305 11.4694Z" fill="black"/>
</svg>
