<svg width="24" height="24" viewBox="0 0 24 24" fill="none" xmlns="http://www.w3.org/2000/svg">
<path d="M19.4999 8.25V16.5C19.4999 16.6989 19.4209 16.8897 19.2803 17.0303C19.1396 17.171 18.9488 17.25 18.7499 17.25C18.551 17.25 18.3603 17.171 18.2196 17.0303C18.0789 16.8897 17.9999 16.6989 17.9999 16.5V8.25C17.9999 7.05653 17.5258 5.91193 16.6819 5.06802C15.838 4.22411 14.6934 3.75 13.4999 3.75C12.3065 3.75 11.1619 4.22411 10.3179 5.06802C9.47403 5.91193 8.99993 7.05653 8.99993 8.25V19.1897L12.2193 15.9694C12.36 15.8286 12.5509 15.7496 12.7499 15.7496C12.949 15.7496 13.1398 15.8286 13.2806 15.9694C13.4213 16.1101 13.5003 16.301 13.5003 16.5C13.5003 16.699 13.4213 16.8899 13.2806 17.0306L8.78055 21.5306C8.7109 21.6004 8.62818 21.6557 8.53713 21.6934C8.44609 21.7312 8.34849 21.7506 8.24993 21.7506C8.15137 21.7506 8.05377 21.7312 7.96272 21.6934C7.87168 21.6557 7.78896 21.6004 7.7193 21.5306L3.2193 17.0306C3.14962 16.9609 3.09435 16.8782 3.05663 16.7872C3.01892 16.6961 2.99951 16.5985 2.99951 16.5C2.99951 16.4015 3.01892 16.3039 3.05663 16.2128C3.09435 16.1218 3.14962 16.0391 3.2193 15.9694C3.36003 15.8286 3.55091 15.7496 3.74993 15.7496C3.84847 15.7496 3.94606 15.769 4.0371 15.8067C4.12815 15.8444 4.21087 15.8997 4.28055 15.9694L7.49993 19.1897V8.25C7.49993 6.6587 8.13207 5.13258 9.25729 4.00736C10.3825 2.88214 11.9086 2.25 13.4999 2.25C15.0912 2.25 16.6174 2.88214 17.7426 4.00736C18.8678 5.13258 19.4999 6.6587 19.4999 8.25Z" fill="black"/>
</svg>
