<svg width="24" height="24" viewBox="0 0 24 24" fill="none" xmlns="http://www.w3.org/2000/svg">
<path d="M21.5306 10.2807L17.0306 14.7807C16.8899 14.9214 16.699 15.0005 16.5 15.0005C16.301 15.0005 16.1101 14.9214 15.9694 14.7807C15.8286 14.6399 15.7496 14.4491 15.7496 14.2501C15.7496 14.051 15.8286 13.8602 15.9694 13.7194L19.1897 10.5001H12C9.81273 10.5025 7.71575 11.3725 6.16911 12.9192C4.62247 14.4658 3.75248 16.5628 3.75 18.7501C3.75 18.949 3.67098 19.1397 3.53033 19.2804C3.38968 19.421 3.19891 19.5001 3 19.5001C2.80109 19.5001 2.61032 19.421 2.46967 19.2804C2.32902 19.1397 2.25 18.949 2.25 18.7501C2.25273 16.165 3.28084 13.6867 5.10872 11.8588C6.93661 10.0309 9.41498 9.00278 12 9.00005H19.1897L15.9694 5.78068C15.8997 5.71099 15.8444 5.62827 15.8067 5.53722C15.769 5.44618 15.7496 5.3486 15.7496 5.25005C15.7496 5.1515 15.769 5.05392 15.8067 4.96288C15.8444 4.87183 15.8997 4.78911 15.9694 4.71943C16.1101 4.5787 16.301 4.49963 16.5 4.49963C16.5985 4.49963 16.6961 4.51904 16.7872 4.55676C16.8782 4.59447 16.9609 4.64974 17.0306 4.71943L21.5306 9.21943C21.6004 9.28908 21.6557 9.3718 21.6934 9.46285C21.7312 9.55389 21.7506 9.65149 21.7506 9.75005C21.7506 9.84861 21.7312 9.94621 21.6934 10.0373C21.6557 10.1283 21.6004 10.211 21.5306 10.2807Z" fill="black"/>
</svg>
