<svg width="24" height="24" viewBox="0 0 24 24" fill="none" xmlns="http://www.w3.org/2000/svg">
<path d="M8.46923 5.7806C8.3995 5.71095 8.34418 5.62823 8.30644 5.53718C8.26869 5.44614 8.24927 5.34854 8.24927 5.24998C8.24927 5.15142 8.26869 5.05382 8.30644 4.96277C8.34418 4.87173 8.3995 4.78901 8.46923 4.71935L11.4692 1.71935C11.5389 1.64962 11.6216 1.5943 11.7127 1.55656C11.8037 1.51882 11.9013 1.49939 11.9999 1.49939C12.0984 1.49939 12.196 1.51882 12.2871 1.55656C12.3781 1.5943 12.4608 1.64962 12.5305 1.71935L15.5305 4.71935C15.6712 4.86009 15.7503 5.05096 15.7503 5.24998C15.7503 5.449 15.6712 5.63987 15.5305 5.7806C15.3898 5.92134 15.1989 6.0004 14.9999 6.0004C14.8008 6.0004 14.61 5.92134 14.4692 5.7806L12.7499 4.06029V8.99998C12.7499 9.19889 12.6708 9.38966 12.5302 9.53031C12.3895 9.67096 12.1988 9.74998 11.9999 9.74998C11.8009 9.74998 11.6102 9.67096 11.4695 9.53031C11.3289 9.38966 11.2499 9.19889 11.2499 8.99998V4.06029L9.53048 5.7806C9.46083 5.85034 9.37811 5.90566 9.28706 5.9434C9.19601 5.98114 9.09842 6.00057 8.99986 6.00057C8.9013 6.00057 8.8037 5.98114 8.71265 5.9434C8.6216 5.90566 8.53889 5.85034 8.46923 5.7806ZM14.4692 18.2194L12.7499 19.9397V15C12.7499 14.8011 12.6708 14.6103 12.5302 14.4696C12.3895 14.329 12.1988 14.25 11.9999 14.25C11.8009 14.25 11.6102 14.329 11.4695 14.4696C11.3289 14.6103 11.2499 14.8011 11.2499 15V19.9397L9.53048 18.2194C9.38975 18.0786 9.19888 17.9996 8.99986 17.9996C8.80083 17.9996 8.60996 18.0786 8.46923 18.2194C8.3285 18.3601 8.24944 18.551 8.24944 18.75C8.24944 18.949 8.3285 19.1399 8.46923 19.2806L11.4692 22.2806C11.5389 22.3503 11.6216 22.4057 11.7127 22.4434C11.8037 22.4811 11.9013 22.5006 11.9999 22.5006C12.0984 22.5006 12.196 22.4811 12.2871 22.4434C12.3781 22.4057 12.4608 22.3503 12.5305 22.2806L15.5305 19.2806C15.6712 19.1399 15.7503 18.949 15.7503 18.75C15.7503 18.551 15.6712 18.3601 15.5305 18.2194C15.3898 18.0786 15.1989 17.9996 14.9999 17.9996C14.8008 17.9996 14.61 18.0786 14.4692 18.2194ZM22.2805 11.4694L19.2805 8.46935C19.1398 8.32862 18.9489 8.24956 18.7499 8.24956C18.5508 8.24956 18.36 8.32862 18.2192 8.46935C18.0785 8.61009 17.9994 8.80096 17.9994 8.99998C17.9994 9.199 18.0785 9.38987 18.2192 9.53061L19.9395 11.25H14.9999C14.8009 11.25 14.6102 11.329 14.4695 11.4697C14.3289 11.6103 14.2499 11.8011 14.2499 12C14.2499 12.1989 14.3289 12.3897 14.4695 12.5303C14.6102 12.671 14.8009 12.75 14.9999 12.75H19.9395L18.2192 14.4694C18.0785 14.6101 17.9994 14.801 17.9994 15C17.9994 15.199 18.0785 15.3899 18.2192 15.5306C18.36 15.6713 18.5508 15.7504 18.7499 15.7504C18.9489 15.7504 19.1398 15.6713 19.2805 15.5306L22.2805 12.5306C22.3502 12.4609 22.4055 12.3782 22.4433 12.2872C22.481 12.1961 22.5004 12.0985 22.5004 12C22.5004 11.9014 22.481 11.8038 22.4433 11.7128C22.4055 11.6217 22.3502 11.539 22.2805 11.4694ZM4.06017 12.75H8.99986C9.19877 12.75 9.38954 12.671 9.53019 12.5303C9.67084 12.3897 9.74986 12.1989 9.74986 12C9.74986 11.8011 9.67084 11.6103 9.53019 11.4697C9.38954 11.329 9.19877 11.25 8.99986 11.25H4.06017L5.78048 9.53061C5.92121 9.38987 6.00027 9.199 6.00027 8.99998C6.00027 8.80096 5.92121 8.61009 5.78048 8.46935C5.63975 8.32862 5.44888 8.24956 5.24986 8.24956C5.05083 8.24956 4.85996 8.32862 4.71923 8.46935L1.71923 11.4694C1.6495 11.539 1.59418 11.6217 1.55644 11.7128C1.51869 11.8038 1.49927 11.9014 1.49927 12C1.49927 12.0985 1.51869 12.1961 1.55644 12.2872C1.59418 12.3782 1.6495 12.4609 1.71923 12.5306L4.71923 15.5306C4.85996 15.6713 5.05083 15.7504 5.24986 15.7504C5.44888 15.7504 5.63975 15.6713 5.78048 15.5306C5.92121 15.3899 6.00027 15.199 6.00027 15C6.00027 14.801 5.92121 14.6101 5.78048 14.4694L4.06017 12.75Z" fill="black"/>
</svg>
