<svg width="24" height="24" viewBox="0 0 24 24" fill="none" xmlns="http://www.w3.org/2000/svg">
<path d="M14.25 9.75C14.25 9.55109 14.329 9.36032 14.4696 9.21967C14.6103 9.07902 14.801 9 15 9H22.5C22.6989 9 22.8896 9.07902 23.0303 9.21967C23.1709 9.36032 23.25 9.55109 23.25 9.75C23.25 9.94891 23.1709 10.1397 23.0303 10.2803C22.8896 10.421 22.6989 10.5 22.5 10.5H15C14.801 10.5 14.6103 10.421 14.4696 10.2803C14.329 10.1397 14.25 9.94891 14.25 9.75ZM22.5 12H15C14.801 12 14.6103 12.079 14.4696 12.2197C14.329 12.3603 14.25 12.5511 14.25 12.75C14.25 12.9489 14.329 13.1397 14.4696 13.2803C14.6103 13.421 14.801 13.5 15 13.5H22.5C22.6989 13.5 22.8896 13.421 23.0303 13.2803C23.1709 13.1397 23.25 12.9489 23.25 12.75C23.25 12.5511 23.1709 12.3603 23.0303 12.2197C22.8896 12.079 22.6989 12 22.5 12ZM22.5 15H15C14.801 15 14.6103 15.079 14.4696 15.2197C14.329 15.3603 14.25 15.5511 14.25 15.75C14.25 15.9489 14.329 16.1397 14.4696 16.2803C14.6103 16.421 14.801 16.5 15 16.5H22.5C22.6989 16.5 22.8896 16.421 23.0303 16.2803C23.1709 16.1397 23.25 15.9489 23.25 15.75C23.25 15.5511 23.1709 15.3603 23.0303 15.2197C22.8896 15.079 22.6989 15 22.5 15ZM22.5 18H6.74996C6.55105 18 6.36028 18.079 6.21963 18.2197C6.07898 18.3603 5.99996 18.5511 5.99996 18.75C5.99996 18.9489 6.07898 19.1397 6.21963 19.2803C6.36028 19.421 6.55105 19.5 6.74996 19.5H22.5C22.6989 19.5 22.8896 19.421 23.0303 19.2803C23.1709 19.1397 23.25 18.9489 23.25 18.75C23.25 18.5511 23.1709 18.3603 23.0303 18.2197C22.8896 18.079 22.6989 18 22.5 18ZM7.49996 16.5C6.10803 16.4985 4.77354 15.9449 3.78929 14.9607C2.80505 13.9764 2.25145 12.6419 2.24996 11.25C2.24945 10.575 2.38032 9.90629 2.63527 9.28125C2.17648 8.96272 1.83125 8.50616 1.64976 7.97794C1.46828 7.44972 1.46001 6.87739 1.62615 6.34415C1.79229 5.8109 2.12419 5.34455 2.57358 5.0129C3.02297 4.68124 3.56644 4.50157 4.12496 4.5C4.25252 4.49973 4.37803 4.532 4.48965 4.59375L11.0456 8.23594C11.3245 8.19146 11.5764 8.0437 11.7514 7.82203C11.9264 7.60036 12.0116 7.32098 11.9901 7.03938C11.9686 6.75779 11.842 6.49457 11.6354 6.30202C11.4288 6.10946 11.1574 6.00165 10.875 6C10.676 6 10.4853 5.92098 10.3446 5.78033C10.204 5.63968 10.125 5.44891 10.125 5.25C10.125 5.05109 10.204 4.86032 10.3446 4.71967C10.4853 4.57902 10.676 4.5 10.875 4.5C11.5712 4.5 12.2388 4.77656 12.7311 5.26885C13.2234 5.76113 13.5 6.42881 13.5 7.125C13.5 7.82119 13.2234 8.48887 12.7311 8.98116C12.2388 9.47344 11.5712 9.75 10.875 9.75C10.7474 9.75027 10.6219 9.71801 10.5103 9.65625L6.76027 7.57406C5.91181 7.74455 5.14842 8.20326 4.59959 8.87239C4.05075 9.54152 3.75024 10.3799 3.74903 11.2453C3.74781 12.1107 4.04597 12.9499 4.59293 13.6206C5.13988 14.2913 5.90198 14.7521 6.74996 14.925V11.25C6.74996 11.0511 6.82898 10.8603 6.96963 10.7197C7.11028 10.579 7.30105 10.5 7.49996 10.5C7.69887 10.5 7.88964 10.579 8.03029 10.7197C8.17094 10.8603 8.24996 11.0511 8.24996 11.25V14.9241C8.88396 14.7941 9.47366 14.5027 9.96196 14.0779C10.4503 13.6532 10.8206 13.1096 11.0371 12.4997C11.106 12.3155 11.2445 12.1657 11.4227 12.0826C11.6009 11.9995 11.8046 11.9897 11.99 12.0554C12.1754 12.121 12.3275 12.2568 12.4137 12.4336C12.4999 12.6103 12.5133 12.8138 12.4509 13.0003C12.0878 14.0233 11.417 14.9089 10.5306 15.5355C9.64415 16.1621 8.5855 16.499 7.49996 16.5ZM3.39652 7.98188C3.84461 7.41928 4.4029 6.95415 5.03715 6.615L3.95433 6.01313C3.74089 6.04521 3.54118 6.13801 3.37902 6.28047C3.21687 6.42293 3.09912 6.60903 3.03983 6.81657C2.98053 7.02411 2.98219 7.24432 3.0446 7.45095C3.10702 7.65757 3.22755 7.84187 3.39183 7.98188H3.39652Z" fill="black"/>
</svg>
