<svg width="24" height="24" viewBox="0 0 24 24" fill="none" xmlns="http://www.w3.org/2000/svg">
<path d="M19.7815 9.69656L13.2068 12.3216L17.8446 18.285C17.9067 18.3626 17.9528 18.4517 17.9801 18.5473C18.0074 18.6428 18.0155 18.7429 18.0039 18.8416C17.9922 18.9402 17.9611 19.0356 17.9122 19.1222C17.8634 19.2087 17.7979 19.2847 17.7194 19.3457C17.6409 19.4067 17.5512 19.4515 17.4552 19.4775C17.3593 19.5035 17.2592 19.5102 17.1607 19.4972C17.0621 19.4841 16.9672 19.4516 16.8813 19.4016C16.7955 19.3515 16.7204 19.2849 16.6605 19.2056L12.0002 13.2188L7.34272 19.2103C7.21957 19.3642 7.0408 19.4634 6.84508 19.4865C6.64935 19.5096 6.4524 19.4547 6.29681 19.3338C6.14122 19.2128 6.0395 19.0354 6.01365 18.8401C5.9878 18.6447 6.03989 18.447 6.15866 18.2897L10.7965 12.3263L4.21897 9.69656C4.03423 9.62197 3.88669 9.47705 3.80881 9.29367C3.73092 9.11029 3.72907 8.90349 3.80366 8.71875C3.87825 8.53401 4.02318 8.38647 4.20655 8.30858C4.38993 8.2307 4.59673 8.22885 4.78147 8.30344L11.2502 10.8919V3.75C11.2502 3.55109 11.3292 3.36032 11.4699 3.21967C11.6105 3.07902 11.8013 3 12.0002 3C12.1991 3 12.3899 3.07902 12.5306 3.21967C12.6712 3.36032 12.7502 3.55109 12.7502 3.75V10.8919L19.219 8.30344C19.3104 8.2665 19.4083 8.24795 19.5069 8.24883C19.6056 8.24971 19.7031 8.27002 19.7939 8.30858C19.8847 8.34715 19.967 8.40322 20.0361 8.4736C20.1053 8.54397 20.1598 8.62728 20.1968 8.71875C20.2337 8.81022 20.2523 8.90808 20.2514 9.00672C20.2505 9.10537 20.2302 9.20287 20.1916 9.29367C20.1531 9.38447 20.097 9.46678 20.0266 9.53591C19.9562 9.60504 19.8729 9.65963 19.7815 9.69656Z" fill="black"/>
</svg>
