<svg width="24" height="24" viewBox="0 0 24 24" fill="none" xmlns="http://www.w3.org/2000/svg">
<path d="M20.2497 3.75H6.42443C6.16553 3.75075 5.91118 3.81816 5.6859 3.94574C5.46061 4.07333 5.27198 4.25679 5.13818 4.47844L0.856619 11.6137C0.786537 11.7304 0.749512 11.8639 0.749512 12C0.749512 12.1361 0.786537 12.2696 0.856619 12.3862L5.13818 19.5216C5.27198 19.7432 5.46061 19.9267 5.6859 20.0543C5.91118 20.1818 6.16553 20.2493 6.42443 20.25H20.2497C20.6476 20.25 21.0291 20.092 21.3104 19.8107C21.5917 19.5294 21.7497 19.1478 21.7497 18.75V5.25C21.7497 4.85218 21.5917 4.47064 21.3104 4.18934C21.0291 3.90804 20.6476 3.75 20.2497 3.75ZM20.2497 18.75H6.42443L2.37443 12L6.42443 5.25H20.2497V18.75ZM9.96912 13.7194L11.6894 12L9.96912 10.2806C9.82839 10.1399 9.74933 9.94902 9.74933 9.75C9.74933 9.55098 9.82839 9.36011 9.96912 9.21937C10.1098 9.07864 10.3007 8.99958 10.4997 8.99958C10.6988 8.99958 10.8896 9.07864 11.0304 9.21937L12.7497 10.9397L14.4691 9.21937C14.5388 9.14969 14.6215 9.09442 14.7126 9.0567C14.8036 9.01899 14.9012 8.99958 14.9997 8.99958C15.0983 8.99958 15.1959 9.01899 15.2869 9.0567C15.378 9.09442 15.4607 9.14969 15.5304 9.21937C15.6001 9.28906 15.6553 9.37178 15.693 9.46283C15.7308 9.55387 15.7502 9.65145 15.7502 9.75C15.7502 9.84855 15.7308 9.94613 15.693 10.0372C15.6553 10.1282 15.6001 10.2109 15.5304 10.2806L13.8101 12L15.5304 13.7194C15.6001 13.7891 15.6553 13.8718 15.693 13.9628C15.7308 14.0539 15.7502 14.1515 15.7502 14.25C15.7502 14.3485 15.7308 14.4461 15.693 14.5372C15.6553 14.6282 15.6001 14.7109 15.5304 14.7806C15.4607 14.8503 15.378 14.9056 15.2869 14.9433C15.1959 14.981 15.0983 15.0004 14.9997 15.0004C14.9012 15.0004 14.8036 14.981 14.7126 14.9433C14.6215 14.9056 14.5388 14.8503 14.4691 14.7806L12.7497 13.0603L11.0304 14.7806C10.9607 14.8503 10.878 14.9056 10.7869 14.9433C10.6959 14.981 10.5983 15.0004 10.4997 15.0004C10.4012 15.0004 10.3036 14.981 10.2126 14.9433C10.1215 14.9056 10.0388 14.8503 9.96912 14.7806C9.89944 14.7109 9.84416 14.6282 9.80645 14.5372C9.76874 14.4461 9.74933 14.3485 9.74933 14.25C9.74933 14.1515 9.76874 14.0539 9.80645 13.9628C9.84416 13.8718 9.89944 13.7891 9.96912 13.7194Z" fill="black"/>
</svg>
