<svg width="24" height="24" viewBox="0 0 24 24" fill="none" xmlns="http://www.w3.org/2000/svg">
<path d="M17.3036 11.9999L19.9014 9.40119C20.2596 9.05526 20.5453 8.64147 20.7418 8.18396C20.9383 7.72644 21.0418 7.23437 21.0461 6.73644C21.0504 6.23852 20.9556 5.74472 20.767 5.28386C20.5785 4.823 20.3 4.4043 19.9479 4.05221C19.5958 3.70011 19.1771 3.42166 18.7163 3.23311C18.2554 3.04455 17.7616 2.94967 17.2637 2.954C16.7658 2.95833 16.2737 3.06177 15.8162 3.25831C15.3587 3.45484 14.9449 3.74053 14.5989 4.09869L12.0002 6.6965L9.40143 4.09869C9.05551 3.74053 8.64171 3.45484 8.1842 3.25831C7.72668 3.06177 7.23461 2.95833 6.73669 2.954C6.23876 2.94967 5.74497 3.04455 5.28411 3.23311C4.82324 3.42166 4.40455 3.70011 4.05245 4.05221C3.70035 4.4043 3.4219 4.823 3.23335 5.28386C3.0448 5.74472 2.94992 6.23852 2.95424 6.73644C2.95857 7.23437 3.06202 7.72644 3.25855 8.18396C3.45509 8.64147 3.74077 9.05526 4.09893 9.40119L6.69675 11.9999L4.09893 14.5987C3.74077 14.9446 3.45509 15.3584 3.25855 15.8159C3.06202 16.2734 2.95857 16.7655 2.95424 17.2634C2.94992 17.7614 3.0448 18.2552 3.23335 18.716C3.4219 19.1769 3.70035 19.5956 4.05245 19.9477C4.40455 20.2998 4.82324 20.5782 5.28411 20.7668C5.74497 20.9553 6.23876 21.0502 6.73669 21.0459C7.23461 21.0416 7.72668 20.9381 8.1842 20.7416C8.64171 20.545 9.05551 20.2594 9.40143 19.9012L12.0002 17.3034L14.5989 19.9012C14.9449 20.2594 15.3587 20.545 15.8162 20.7416C16.2737 20.9381 16.7658 21.0416 17.2637 21.0459C17.7616 21.0502 18.2554 20.9553 18.7163 20.7668C19.1771 20.5782 19.5958 20.2998 19.9479 19.9477C20.3 19.5956 20.5785 19.1769 20.767 18.716C20.9556 18.2552 21.0504 17.7614 21.0461 17.2634C21.0418 16.7655 20.9383 16.2734 20.7418 15.8159C20.5453 15.3584 20.2596 14.9446 19.9014 14.5987L17.3036 11.9999ZM15.6564 5.15619C15.8657 4.94689 16.1142 4.78087 16.3877 4.6676C16.6611 4.55433 16.9542 4.49604 17.2502 4.49604C17.5462 4.49604 17.8393 4.55433 18.1127 4.6676C18.3862 4.78087 18.6346 4.94689 18.8439 5.15619C19.0532 5.36548 19.2192 5.61395 19.3325 5.88741C19.4458 6.16086 19.5041 6.45395 19.5041 6.74994C19.5041 7.04593 19.4458 7.33901 19.3325 7.61247C19.2192 7.88593 19.0532 8.13439 18.8439 8.34369L16.2452 10.9424L13.0605 7.75775L15.6564 5.15619ZM15.1792 11.9999L12.0002 15.1818L8.81831 11.9999L12.0002 8.81806L15.1792 11.9999ZM5.15643 8.34369C4.94714 8.13439 4.78112 7.88593 4.66785 7.61247C4.55458 7.33901 4.49628 7.04593 4.49628 6.74994C4.49628 6.45395 4.55458 6.16086 4.66785 5.88741C4.78112 5.61395 4.94714 5.36548 5.15643 5.15619C5.36573 4.94689 5.6142 4.78087 5.88765 4.6676C6.16111 4.55433 6.4542 4.49604 6.75018 4.49604C7.04617 4.49604 7.33926 4.55433 7.61271 4.6676C7.88617 4.78087 8.13464 4.94689 8.34393 5.15619L10.9427 7.75494L7.758 10.9396L5.15643 8.34369ZM8.34393 18.8437C8.13464 19.053 7.88617 19.219 7.61271 19.3323C7.33926 19.4455 7.04617 19.5038 6.75018 19.5038C6.4542 19.5038 6.16111 19.4455 5.88765 19.3323C5.6142 19.219 5.36573 19.053 5.15643 18.8437C4.94714 18.6344 4.78112 18.3859 4.66785 18.1125C4.55458 17.839 4.49628 17.5459 4.49628 17.2499C4.49628 16.954 4.55458 16.6609 4.66785 16.3874C4.78112 16.114 4.94714 15.8655 5.15643 15.6562L7.75518 13.0574L10.9371 16.2393L8.34393 18.8437ZM18.8439 18.8437C18.6349 19.0534 18.3865 19.2199 18.113 19.3334C17.8395 19.447 17.5463 19.5055 17.2502 19.5055C16.9541 19.5055 16.6608 19.447 16.3873 19.3334C16.1139 19.2199 15.8655 19.0534 15.6564 18.8437L13.0577 16.2449L16.2396 13.0631L18.8439 15.6562C19.0537 15.8652 19.2201 16.1136 19.3337 16.3871C19.4473 16.6606 19.5057 16.9538 19.5057 17.2499C19.5057 17.5461 19.4473 17.8393 19.3337 18.1128C19.2201 18.3863 19.0537 18.6347 18.8439 18.8437ZM10.8752 11.9999C10.8752 11.7774 10.9412 11.5599 11.0648 11.3749C11.1884 11.1899 11.3641 11.0457 11.5697 10.9606C11.7752 10.8754 12.0014 10.8531 12.2197 10.8966C12.4379 10.94 12.6383 11.0471 12.7957 11.2044C12.953 11.3618 13.0602 11.5622 13.1036 11.7805C13.147 11.9987 13.1247 12.2249 13.0395 12.4305C12.9544 12.636 12.8102 12.8117 12.6252 12.9353C12.4402 13.059 12.2227 13.1249 12.0002 13.1249C11.7018 13.1249 11.4157 13.0064 11.2047 12.7954C10.9937 12.5845 10.8752 12.2983 10.8752 11.9999Z" fill="black"/>
</svg>
