<svg width="24" height="24" viewBox="0 0 24 24" fill="none" xmlns="http://www.w3.org/2000/svg">
<path d="M23.0309 3.96943L20.0309 0.969426C19.8902 0.828695 19.6993 0.749634 19.5003 0.749634C19.3012 0.749634 19.1104 0.828695 18.9696 0.969426C18.8289 1.11016 18.7498 1.30103 18.7498 1.50005C18.7498 1.69907 18.8289 1.88995 18.9696 2.03068L19.1084 2.16849L13.9362 6.04786L10.3531 6.76505C10.208 6.79411 10.0747 6.86518 9.96964 6.96943L2.15652 14.7807C1.73459 15.2026 1.49756 15.7749 1.49756 16.3716C1.49756 16.9683 1.73459 17.5406 2.15652 17.9626L6.03777 21.8438C6.45972 22.2657 7.03199 22.5028 7.6287 22.5028C8.22541 22.5028 8.79769 22.2657 9.21964 21.8438L17.0309 14.0335C17.1354 13.9286 17.2065 13.7952 17.2353 13.6501L17.9525 10.0669L21.8318 4.89474L21.9696 5.03349C22.0393 5.10317 22.122 5.15845 22.2131 5.19616C22.3041 5.23387 22.4017 5.25328 22.5003 5.25328C22.5988 5.25328 22.6964 5.23387 22.7874 5.19616C22.8785 5.15845 22.9612 5.10317 23.0309 5.03349C23.1006 4.96381 23.1558 4.88108 23.1936 4.79004C23.2313 4.69899 23.2507 4.60141 23.2507 4.50286C23.2507 4.40432 23.2313 4.30674 23.1936 4.21569C23.1558 4.12465 23.1006 4.04192 23.0309 3.97224V3.96943ZM9.00027 10.0604L13.94 15.0001L9.75027 19.1897L4.81058 14.2501L9.00027 10.0604ZM7.6287 21.0001C7.5303 21.0003 7.43281 20.9811 7.34189 20.9434C7.25097 20.9058 7.16842 20.8504 7.09902 20.7807L3.21964 16.9013C3.07909 16.7607 3.00014 16.57 3.00014 16.3711C3.00014 16.1723 3.07909 15.9816 3.21964 15.841L3.75027 15.3104L8.68995 20.2501L8.15652 20.7807C8.01643 20.9206 7.8267 20.9995 7.6287 21.0001ZM16.6503 9.30005C16.583 9.38952 16.5369 9.49304 16.5153 9.60286L15.8093 13.1307L15.0003 13.9397L10.0606 9.00005L10.8696 8.19099L14.3975 7.48505C14.5073 7.46345 14.6108 7.4173 14.7003 7.35005L20.18 3.24005L20.7603 3.82036L16.6503 9.30005Z" fill="black"/>
</svg>
