<svg width="24" height="24" viewBox="0 0 24 24" fill="none" xmlns="http://www.w3.org/2000/svg">
<path d="M5.05489 3.24566C4.98903 3.17141 4.90908 3.11098 4.81969 3.06786C4.7303 3.02474 4.63324 2.99979 4.53413 2.99446C4.43503 2.98913 4.33585 3.00352 4.24235 3.0368C4.14885 3.07008 4.06288 3.12159 3.98943 3.18834C3.91598 3.25509 3.85651 3.33575 3.81447 3.42565C3.77242 3.51555 3.74864 3.61291 3.7445 3.71207C3.74035 3.81123 3.75593 3.91023 3.79033 4.00332C3.82473 4.09642 3.87727 4.18176 3.94489 4.25441L5.51426 5.98128C4.84776 7.12529 4.49766 8.42603 4.49989 9.75003C4.49989 13.0632 3.72551 15.5982 3.2052 16.4944C3.07233 16.7223 3.00189 16.9811 3.00099 17.2449C3.00008 17.5086 3.06874 17.768 3.20005 17.9967C3.33135 18.2255 3.52065 18.4156 3.74886 18.5478C3.97708 18.6801 4.23613 18.7498 4.49989 18.75H17.1224L18.9449 20.7544C19.0108 20.8287 19.0907 20.8891 19.1801 20.9322C19.2695 20.9753 19.3665 21.0003 19.4656 21.0056C19.5648 21.0109 19.6639 20.9965 19.7574 20.9633C19.8509 20.93 19.9369 20.8785 20.0103 20.8117C20.0838 20.745 20.1433 20.6643 20.1853 20.5744C20.2274 20.4845 20.2511 20.3872 20.2553 20.288C20.2594 20.1888 20.2438 20.0898 20.2094 19.9967C20.175 19.9036 20.1225 19.8183 20.0549 19.7457L5.05489 3.24566ZM4.49989 17.25C5.22177 16.0088 5.99989 13.1325 5.99989 9.75003C5.99858 8.85379 6.19917 7.96876 6.58677 7.16066L15.7583 17.25H4.49989ZM15.7499 21C15.7499 21.1989 15.6709 21.3897 15.5302 21.5304C15.3896 21.671 15.1988 21.75 14.9999 21.75H8.99989C8.80098 21.75 8.61021 21.671 8.46956 21.5304C8.32891 21.3897 8.24989 21.1989 8.24989 21C8.24989 20.8011 8.32891 20.6104 8.46956 20.4697C8.61021 20.329 8.80098 20.25 8.99989 20.25H14.9999C15.1988 20.25 15.3896 20.329 15.5302 20.4697C15.6709 20.6104 15.7499 20.8011 15.7499 21ZM20.0624 16.8047C19.9748 16.8387 19.8817 16.8562 19.7877 16.8563C19.6371 16.8561 19.49 16.8106 19.3655 16.7257C19.2411 16.6407 19.1452 16.5203 19.0902 16.38C18.4077 14.6428 17.9999 12.1641 17.9999 9.75003C18.0002 8.7006 17.7252 7.66945 17.2025 6.75949C16.6797 5.84953 15.9274 5.0926 15.0207 4.56424C14.114 4.03589 13.0846 3.75459 12.0352 3.74842C10.9857 3.74225 9.95307 4.01143 9.0402 4.52909C8.86759 4.62262 8.66519 4.64474 8.47645 4.5907C8.28772 4.53666 8.12769 4.41077 8.03074 4.24006C7.93379 4.06935 7.90764 3.86743 7.9579 3.67765C8.00816 3.48787 8.13084 3.32537 8.29958 3.22503C9.44059 2.57783 10.7314 2.24121 12.0432 2.24878C13.3549 2.25635 14.6418 2.60784 15.7752 3.26817C16.9087 3.9285 17.8492 4.87457 18.5027 6.01195C19.1563 7.14933 19.5001 8.43824 19.4999 9.75003C19.4999 13.0641 20.2546 15.2428 20.4861 15.8325C20.5588 16.0176 20.555 16.2241 20.4756 16.4064C20.3961 16.5887 20.2475 16.732 20.0624 16.8047Z" fill="black"/>
</svg>
