<svg width="24" height="24" viewBox="0 0 24 24" fill="none" xmlns="http://www.w3.org/2000/svg">
<g clip-path="url(#clip0_639_9989)">
<path d="M19.4999 10.5C18.9577 10.4998 18.4199 10.5979 17.9127 10.7897L15.5559 6.75H17.9999C18.1988 6.75 18.3896 6.82902 18.5303 6.96967C18.6709 7.11032 18.7499 7.30109 18.7499 7.5C18.7499 7.69891 18.8289 7.88968 18.9696 8.03033C19.1102 8.17098 19.301 8.25 19.4999 8.25C19.6988 8.25 19.8896 8.17098 20.0303 8.03033C20.1709 7.88968 20.2499 7.69891 20.2499 7.5C20.2499 6.90326 20.0129 6.33097 19.5909 5.90901C19.169 5.48705 18.5967 5.25 17.9999 5.25H14.2499C14.1184 5.2503 13.9893 5.28517 13.8755 5.35112C13.7617 5.41707 13.6673 5.51177 13.6017 5.62574C13.5361 5.7397 13.5016 5.86892 13.5016 6.00043C13.5017 6.13193 13.5364 6.26111 13.6021 6.375L14.6943 8.25H9.30555L7.77273 5.625C7.70705 5.51124 7.61264 5.41672 7.49895 5.35091C7.38526 5.2851 7.25628 5.2503 7.12492 5.25H4.49992C4.30101 5.25 4.11024 5.32902 3.96959 5.46967C3.82894 5.61032 3.74992 5.80109 3.74992 6C3.74992 6.19891 3.82894 6.38968 3.96959 6.53033C4.11024 6.67098 4.30101 6.75 4.49992 6.75H6.69461L7.97992 8.95406L6.50711 10.9744C5.49519 10.468 4.32994 10.3603 3.24234 10.6726C2.15474 10.9849 1.22419 11.6945 0.63515 12.6607C0.046113 13.6268 -0.158411 14.779 0.0621213 15.8889C0.282653 16.9987 0.912141 17.9852 1.8258 18.6528C2.73947 19.3204 3.8706 19.6203 4.99499 19.4931C6.11938 19.3659 7.15493 18.8209 7.89638 17.9661C8.63782 17.1113 9.03103 16.0091 8.99806 14.878C8.96509 13.7469 8.50834 12.6695 7.71836 11.8594L8.80492 10.3687L11.7271 15.375C11.7728 15.4667 11.8367 15.5481 11.9151 15.6141C11.9934 15.6802 12.0844 15.7295 12.1826 15.759C12.2807 15.7885 12.3838 15.7975 12.4856 15.7857C12.5873 15.7738 12.6856 15.7411 12.7742 15.6898C12.8629 15.6385 12.9401 15.5695 13.0011 15.4872C13.0621 15.4049 13.1056 15.3109 13.1289 15.2112C13.1522 15.1114 13.1547 15.0079 13.1365 14.9071C13.1182 14.8063 13.0795 14.7103 13.0227 14.625L10.1802 9.75H15.569L16.618 11.5472C15.8059 12.226 15.259 13.1694 15.0735 14.2115C14.888 15.2537 15.0759 16.3278 15.604 17.2452C16.1321 18.1625 16.9667 18.8643 17.9611 19.2273C18.9554 19.5902 20.0459 19.5909 21.0407 19.2294C22.0356 18.8679 22.8712 18.1673 23.4006 17.2507C23.93 16.3341 24.1194 15.2602 23.9354 14.2178C23.7514 13.1754 23.2058 12.2312 22.3946 11.5513C21.5834 10.8713 20.5584 10.4991 19.4999 10.5ZM7.49992 15C7.5001 15.6417 7.29453 16.2665 6.9134 16.7827C6.53228 17.2989 5.99568 17.6793 5.3824 17.8681C4.76912 18.0569 4.11147 18.044 3.50604 17.8314C2.90061 17.6188 2.37929 17.2177 2.01863 16.687C1.65797 16.1563 1.47699 15.5239 1.50225 14.8827C1.52751 14.2416 1.75768 13.6254 2.15897 13.1247C2.56026 12.624 3.11152 12.2651 3.73181 12.1008C4.35209 11.9365 5.0087 11.9755 5.60523 12.2119L3.8943 14.5556C3.832 14.6349 3.78632 14.7258 3.75997 14.8231C3.73362 14.9204 3.72715 15.022 3.74094 15.1218C3.75473 15.2216 3.7885 15.3177 3.84023 15.4042C3.89196 15.4907 3.96059 15.5658 4.04203 15.6252C4.12347 15.6846 4.21603 15.7269 4.3142 15.7497C4.41237 15.7725 4.51413 15.7753 4.6134 15.7579C4.71267 15.7405 4.80741 15.7033 4.89197 15.6484C4.97653 15.5936 5.04916 15.5223 5.10555 15.4387L6.81648 13.095C7.25891 13.6312 7.50058 14.3048 7.49992 15ZM19.4999 18C18.9057 17.9995 18.325 17.8227 17.8315 17.4917C17.338 17.1608 16.9538 16.6908 16.7278 16.1413C16.5017 15.5918 16.444 14.9875 16.5618 14.4051C16.6796 13.8227 16.9677 13.2884 17.3896 12.87L18.8521 15.375C18.8978 15.4667 18.9617 15.5481 19.0401 15.6141C19.1184 15.6802 19.2094 15.7295 19.3076 15.759C19.4057 15.7885 19.5088 15.7975 19.6106 15.7857C19.7123 15.7738 19.8106 15.7411 19.8992 15.6898C19.9879 15.6385 20.0651 15.5695 20.1261 15.4872C20.1871 15.4049 20.2306 15.3109 20.2539 15.2112C20.2772 15.1114 20.2797 15.0079 20.2615 14.9071C20.2432 14.8063 20.2045 14.7103 20.1477 14.625L18.6843 12.1134C19.097 11.9966 19.5299 11.9696 19.9538 12.0343C20.3778 12.099 20.783 12.2538 21.1421 12.4883C21.5011 12.7229 21.8057 13.0317 22.0353 13.3939C22.2649 13.7562 22.4142 14.1634 22.4731 14.5883C22.5319 15.0131 22.499 15.4456 22.3766 15.8566C22.2541 16.2676 22.0449 16.6476 21.7632 16.971C21.4814 17.2943 21.1336 17.5535 20.7432 17.731C20.3527 17.9085 19.9288 18.0002 19.4999 18Z" fill="black"/>
</g>
<defs>
<clipPath id="clip0_639_9989">
<rect width="24" height="24" fill="white"/>
</clipPath>
</defs>
</svg>
