<svg width="24" height="24" viewBox="0 0 24 24" fill="none" xmlns="http://www.w3.org/2000/svg">
<path d="M17.7 15.9L12.4997 12L17.7 8.1C17.7931 8.03014 17.8687 7.93955 17.9208 7.83541C17.9729 7.73127 18 7.61643 18 7.5C18 7.38357 17.9729 7.26873 17.9208 7.16459C17.8687 7.06045 17.7931 6.96986 17.7 6.9L11.7 2.4C11.5886 2.31643 11.4561 2.26554 11.3174 2.25303C11.1786 2.24052 11.0392 2.26689 10.9146 2.32918C10.79 2.39147 10.6852 2.48722 10.612 2.6057C10.5388 2.72418 10.5 2.86072 10.5 3V10.5L5.7 6.9C5.54087 6.78065 5.34085 6.72941 5.14393 6.75754C4.94702 6.78567 4.76935 6.89087 4.65 7.05C4.53065 7.20913 4.47941 7.40915 4.50754 7.60607C4.53567 7.80298 4.64087 7.98065 4.8 8.1L10.0003 12L4.8 15.9C4.72121 15.9591 4.65483 16.0331 4.60464 16.1179C4.55446 16.2026 4.52147 16.2964 4.50754 16.3939C4.47941 16.5908 4.53065 16.7909 4.65 16.95C4.76935 17.1091 4.94702 17.2143 5.14393 17.2425C5.34085 17.2706 5.54087 17.2193 5.7 17.1L10.5 13.5V21C10.5 21.1393 10.5388 21.2758 10.612 21.3943C10.6852 21.5128 10.79 21.6085 10.9146 21.6708C11.0392 21.7331 11.1786 21.7595 11.3174 21.747C11.4561 21.7345 11.5886 21.6836 11.7 21.6L17.7 17.1C17.7931 17.0301 17.8687 16.9396 17.9208 16.8354C17.9729 16.7313 18 16.6164 18 16.5C18 16.3836 17.9729 16.2687 17.9208 16.1646C17.8687 16.0604 17.7931 15.9699 17.7 15.9ZM12 4.5L16.0003 7.5L12 10.5V4.5ZM12 19.5V13.5L16.0003 16.5L12 19.5ZM4.875 13.125C4.6525 13.125 4.43499 13.059 4.24998 12.9354C4.06498 12.8118 3.92078 12.6361 3.83564 12.4305C3.75049 12.225 3.72821 11.9988 3.77162 11.7805C3.81503 11.5623 3.92217 11.3618 4.07951 11.2045C4.23684 11.0472 4.4373 10.94 4.65552 10.8966C4.87375 10.8532 5.09995 10.8755 5.30552 10.9606C5.51109 11.0458 5.68679 11.19 5.8104 11.375C5.93402 11.56 6 11.7775 6 12C6 12.2984 5.88147 12.5845 5.6705 12.7955C5.45952 13.0065 5.17337 13.125 4.875 13.125ZM19.5 12C19.5 12.2225 19.434 12.44 19.3104 12.625C19.1868 12.81 19.0111 12.9542 18.8055 13.0394C18.6 13.1245 18.3738 13.1468 18.1555 13.1034C17.9373 13.06 17.7368 12.9528 17.5795 12.7955C17.4222 12.6382 17.315 12.4377 17.2716 12.2195C17.2282 12.0012 17.2505 11.775 17.3356 11.5695C17.4208 11.3639 17.565 11.1882 17.75 11.0646C17.935 10.941 18.1525 10.875 18.375 10.875C18.6734 10.875 18.9595 10.9935 19.1705 11.2045C19.3815 11.4155 19.5 11.7016 19.5 12Z" fill="black"/>
</svg>
