<svg width="24" height="24" viewBox="0 0 24 24" fill="none" xmlns="http://www.w3.org/2000/svg">
<path d="M20.0547 19.7456L5.0547 3.24563C4.98884 3.17138 4.90889 3.11095 4.8195 3.06783C4.73011 3.02471 4.63305 2.99976 4.53394 2.99443C4.43484 2.9891 4.33566 3.00349 4.24216 3.03677C4.14866 3.07005 4.06269 3.12156 3.98924 3.18831C3.91579 3.25505 3.85632 3.33572 3.81428 3.42562C3.77223 3.51552 3.74845 3.61288 3.74431 3.71204C3.74016 3.8112 3.75574 3.9102 3.79014 4.00329C3.82454 4.09639 3.87708 4.18173 3.9447 4.25438L10.586 11.5603L4.7997 15.9C4.72091 15.9591 4.65452 16.0331 4.60434 16.1179C4.55416 16.2026 4.52117 16.2964 4.50724 16.3939C4.47911 16.5908 4.53035 16.7909 4.6497 16.95C4.76905 17.1091 4.94672 17.2143 5.14363 17.2425C5.34055 17.2706 5.54057 17.2193 5.6997 17.1L10.4997 13.5V21C10.4997 21.1393 10.5385 21.2758 10.6117 21.3943C10.6849 21.5128 10.7897 21.6085 10.9143 21.6708C11.0389 21.7331 11.1783 21.7595 11.3171 21.747C11.4558 21.7345 11.5883 21.6836 11.6997 21.6L16.465 18.0262L18.9447 20.7544C19.0106 20.8286 19.0905 20.8891 19.1799 20.9322C19.2693 20.9753 19.3664 21.0002 19.4655 21.0056C19.5646 21.0109 19.6637 20.9965 19.7572 20.9632C19.8507 20.93 19.9367 20.8784 20.0102 20.8117C20.0836 20.7449 20.1431 20.6643 20.1851 20.5744C20.2272 20.4845 20.251 20.3871 20.2551 20.288C20.2592 20.1888 20.2437 20.0898 20.2093 19.9967C20.1749 19.9036 20.1223 19.8183 20.0547 19.7456ZM11.9997 19.5V13.5L13.0994 14.325L15.4506 16.9116L11.9997 19.5ZM10.4997 6.71531V3C10.4997 2.86072 10.5385 2.72418 10.6117 2.6057C10.6849 2.48722 10.7897 2.39147 10.9143 2.32918C11.0389 2.26689 11.1783 2.24052 11.3171 2.25303C11.4558 2.26554 11.5883 2.31643 11.6997 2.4L17.6997 6.9C17.7928 6.96986 17.8684 7.06045 17.9205 7.16459C17.9726 7.26873 17.9997 7.38357 17.9997 7.5C17.9997 7.61643 17.9726 7.73127 17.9205 7.83541C17.8684 7.93955 17.7928 8.03014 17.6997 8.1L14.5563 10.4578C14.3971 10.5772 14.1971 10.6284 14.0002 10.6003C13.8033 10.5721 13.6256 10.4669 13.5063 10.3078C13.3869 10.1487 13.3357 9.94866 13.3638 9.75175C13.3919 9.55483 13.4971 9.37716 13.6563 9.25781L16 7.5L11.9997 4.5V6.71531C11.9997 6.91423 11.9207 7.10499 11.78 7.24564C11.6394 7.3863 11.4486 7.46531 11.2497 7.46531C11.0508 7.46531 10.86 7.3863 10.7194 7.24564C10.5787 7.10499 10.4997 6.91423 10.4997 6.71531Z" fill="black"/>
</svg>
