<svg width="24" height="24" viewBox="0 0 24 24" fill="none" xmlns="http://www.w3.org/2000/svg">
<path d="M17.7 15.9L12.4997 12L14.7 10.35C14.8591 10.2307 14.9643 10.053 14.9925 9.85607C15.0206 9.65915 14.9693 9.45913 14.85 9.3C14.7307 9.14087 14.553 9.03567 14.3561 9.00754C14.1592 8.97941 13.9591 9.03065 13.8 9.15L12 10.5V4.5L13.8 5.85C13.8788 5.9091 13.9685 5.95209 14.0639 5.97654C14.1593 6.00098 14.2586 6.00639 14.3561 5.99246C14.4536 5.97853 14.5474 5.94554 14.6321 5.89536C14.7169 5.84518 14.7909 5.77879 14.85 5.7C14.9091 5.62121 14.9521 5.53155 14.9765 5.43614C15.001 5.34073 15.0064 5.24144 14.9925 5.14393C14.9785 5.04643 14.9455 4.95263 14.8954 4.86788C14.8452 4.78313 14.7788 4.7091 14.7 4.65L11.7 2.4C11.5886 2.31643 11.4561 2.26554 11.3174 2.25303C11.1786 2.24052 11.0392 2.26689 10.9146 2.32918C10.79 2.39147 10.6852 2.48722 10.612 2.6057C10.5388 2.72418 10.5 2.86072 10.5 3V10.5L5.7 6.9C5.54087 6.78065 5.34085 6.72941 5.14394 6.75754C4.94702 6.78567 4.76935 6.89087 4.65 7.05C4.53066 7.20913 4.47941 7.40915 4.50754 7.60607C4.53567 7.80298 4.64087 7.98065 4.8 8.1L10.0003 12L4.8 15.9C4.72121 15.9591 4.65483 16.0331 4.60465 16.1179C4.55447 16.2026 4.52147 16.2964 4.50754 16.3939C4.47941 16.5908 4.53066 16.7909 4.65 16.95C4.76935 17.1091 4.94702 17.2143 5.14394 17.2425C5.34085 17.2706 5.54087 17.2193 5.7 17.1L10.5 13.5V21C10.5 21.1393 10.5388 21.2758 10.612 21.3943C10.6852 21.5128 10.79 21.6085 10.9146 21.6708C11.0392 21.7331 11.1786 21.7595 11.3174 21.747C11.4561 21.7345 11.5886 21.6836 11.7 21.6L17.7 17.1C17.7931 17.0301 17.8688 16.9396 17.9208 16.8354C17.9729 16.7313 18 16.6164 18 16.5C18 16.3836 17.9729 16.2687 17.9208 16.1646C17.8688 16.0604 17.7931 15.9699 17.7 15.9ZM12 19.5V13.5L16.0003 16.5L12 19.5ZM22.2806 9.21937C22.3503 9.28906 22.4056 9.37178 22.4433 9.46283C22.481 9.55387 22.5004 9.65145 22.5004 9.75C22.5004 9.84855 22.481 9.94613 22.4433 10.0372C22.4056 10.1282 22.3503 10.2109 22.2806 10.2806C22.2109 10.3503 22.1282 10.4056 22.0372 10.4433C21.9461 10.481 21.8485 10.5004 21.75 10.5004C21.6515 10.5004 21.5539 10.481 21.4628 10.4433C21.3718 10.4056 21.2891 10.3503 21.2194 10.2806L19.5 8.56031L17.7806 10.2806C17.6399 10.4214 17.449 10.5004 17.25 10.5004C17.051 10.5004 16.8601 10.4214 16.7194 10.2806C16.5786 10.1399 16.4996 9.94902 16.4996 9.75C16.4996 9.55098 16.5786 9.36011 16.7194 9.21937L18.4397 7.5L16.7194 5.78063C16.6497 5.71094 16.5944 5.62822 16.5567 5.53717C16.519 5.44613 16.4996 5.34855 16.4996 5.25C16.4996 5.15145 16.519 5.05387 16.5567 4.96283C16.5944 4.87178 16.6497 4.78906 16.7194 4.71938C16.8601 4.57864 17.051 4.49958 17.25 4.49958C17.3485 4.49958 17.4461 4.51899 17.5372 4.55671C17.6282 4.59442 17.7109 4.64969 17.7806 4.71938L19.5 6.43969L21.2194 4.71938C21.2891 4.64969 21.3718 4.59442 21.4628 4.55671C21.5539 4.51899 21.6515 4.49958 21.75 4.49958C21.8485 4.49958 21.9461 4.51899 22.0372 4.55671C22.1282 4.59442 22.2109 4.64969 22.2806 4.71938C22.3503 4.78906 22.4056 4.87178 22.4433 4.96283C22.481 5.05387 22.5004 5.15145 22.5004 5.25C22.5004 5.34855 22.481 5.44613 22.4433 5.53717C22.4056 5.62822 22.3503 5.71094 22.2806 5.78063L20.5603 7.5L22.2806 9.21937Z" fill="black"/>
</svg>
