<svg width="24" height="24" viewBox="0 0 24 24" fill="none" xmlns="http://www.w3.org/2000/svg">
<path d="M20.7244 10.3716L19.5 9.96281V5.25C19.5 4.85218 19.342 4.47064 19.0607 4.18934C18.7794 3.90804 18.3978 3.75 18 3.75H12.75V2.25C12.75 2.05109 12.671 1.86032 12.5303 1.71967C12.3897 1.57902 12.1989 1.5 12 1.5C11.8011 1.5 11.6103 1.57902 11.4697 1.71967C11.329 1.86032 11.25 2.05109 11.25 2.25V3.75H6C5.60218 3.75 5.22065 3.90804 4.93934 4.18934C4.65804 4.47064 4.5 4.85218 4.5 5.25V9.96281L3.27563 10.3716C2.9768 10.4712 2.71691 10.6623 2.53282 10.918C2.34873 11.1736 2.24978 11.4806 2.25 11.7956V15.0094C2.2498 15.0789 2.25959 15.148 2.27907 15.2147C3.75282 20.3794 10.3528 22.1578 11.6606 22.4616C11.884 22.5128 12.116 22.5128 12.3394 22.4616C13.6472 22.1578 20.2472 20.3794 21.7209 15.2147C21.7404 15.148 21.7502 15.0789 21.75 15.0094V11.7956C21.7502 11.4806 21.6513 11.1736 21.4672 10.918C21.2831 10.6623 21.0232 10.4712 20.7244 10.3716ZM6 5.25H18V9.46219L12.2372 7.53844C12.0832 7.48711 11.9168 7.48711 11.7628 7.53844L6 9.46219V5.25ZM20.25 14.9006C19.7081 16.6819 18.3234 18.1978 16.1297 19.4119C14.828 20.1185 13.4398 20.6524 12 21C10.5619 20.652 9.17519 20.1182 7.875 19.4119C5.6775 18.1978 4.29188 16.6809 3.75 14.9006V11.7947L11.25 9.29156V15.75C11.25 15.9489 11.329 16.1397 11.4697 16.2803C11.6103 16.421 11.8011 16.5 12 16.5C12.1989 16.5 12.3897 16.421 12.5303 16.2803C12.671 16.1397 12.75 15.9489 12.75 15.75V9.29156L20.25 11.7956V14.9006Z" fill="black"/>
</svg>
