<svg width="24" height="24" viewBox="0 0 24 24" fill="none" xmlns="http://www.w3.org/2000/svg">
<path d="M19.5 13.4999H21C21.1989 13.4999 21.3897 13.4209 21.5303 13.2803C21.671 13.1396 21.75 12.9488 21.75 12.7499C21.75 12.551 21.671 12.3603 21.5303 12.2196C21.3897 12.0789 21.1989 11.9999 21 11.9999H19.5V10.4999H21C21.1989 10.4999 21.3897 10.4209 21.5303 10.2803C21.671 10.1396 21.75 9.94884 21.75 9.74993C21.75 9.55102 21.671 9.36025 21.5303 9.2196C21.3897 9.07895 21.1989 8.99993 21 8.99993H19.4625C19.2968 7.35382 18.5899 5.80913 17.4525 4.60774L19.2806 2.78055C19.3503 2.71087 19.4056 2.62815 19.4433 2.5371C19.481 2.44606 19.5004 2.34848 19.5004 2.24993C19.5004 2.15138 19.481 2.0538 19.4433 1.96276C19.4056 1.87171 19.3503 1.78899 19.2806 1.7193C19.2109 1.64962 19.1282 1.59435 19.0372 1.55663C18.9461 1.51892 18.8485 1.49951 18.75 1.49951C18.6515 1.49951 18.5539 1.51892 18.4628 1.55663C18.3718 1.59435 18.2891 1.64962 18.2194 1.7193L16.3172 3.62243C15.0547 2.72938 13.5464 2.24982 12 2.24982C10.4536 2.24982 8.94527 2.72938 7.68281 3.62243L5.78062 1.7193C5.63989 1.57857 5.44902 1.49951 5.25 1.49951C5.05098 1.49951 4.86011 1.57857 4.71938 1.7193C4.57864 1.86003 4.49958 2.05091 4.49958 2.24993C4.49958 2.44895 4.57864 2.63982 4.71938 2.78055L6.5475 4.60774C5.41006 5.80913 4.70316 7.35382 4.5375 8.99993H3C2.80109 8.99993 2.61032 9.07895 2.46967 9.2196C2.32902 9.36025 2.25 9.55102 2.25 9.74993C2.25 9.94884 2.32902 10.1396 2.46967 10.2803C2.61032 10.4209 2.80109 10.4999 3 10.4999H4.5V11.9999H3C2.80109 11.9999 2.61032 12.0789 2.46967 12.2196C2.32902 12.3603 2.25 12.551 2.25 12.7499C2.25 12.9488 2.32902 13.1396 2.46967 13.2803C2.61032 13.4209 2.80109 13.4999 3 13.4999H4.5V14.2499C4.5 14.5031 4.51313 14.7534 4.5375 14.9999H3C2.80109 14.9999 2.61032 15.0789 2.46967 15.2196C2.32902 15.3603 2.25 15.551 2.25 15.7499C2.25 15.9488 2.32902 16.1396 2.46967 16.2803C2.61032 16.4209 2.80109 16.4999 3 16.4999H4.845C5.32356 18.0227 6.2755 19.3531 7.56233 20.2976C8.84916 21.2421 10.4038 21.7514 12 21.7514C13.5962 21.7514 15.1508 21.2421 16.4377 20.2976C17.7245 19.3531 18.6764 18.0227 19.155 16.4999H21C21.1989 16.4999 21.3897 16.4209 21.5303 16.2803C21.671 16.1396 21.75 15.9488 21.75 15.7499C21.75 15.551 21.671 15.3603 21.5303 15.2196C21.3897 15.0789 21.1989 14.9999 21 14.9999H19.4625C19.4869 14.7534 19.5 14.5031 19.5 14.2499V13.4999ZM12 3.74993C13.4607 3.75175 14.8707 4.28579 15.9661 5.25212C17.0615 6.21846 17.7673 7.55084 17.9513 8.99993H6.045C6.22907 7.5502 6.93534 6.2173 8.03153 5.25089C9.12772 4.28447 10.5386 3.75084 12 3.74993ZM12.75 20.2012V12.7499C12.75 12.551 12.671 12.3603 12.5303 12.2196C12.3897 12.0789 12.1989 11.9999 12 11.9999C11.8011 11.9999 11.6103 12.0789 11.4697 12.2196C11.329 12.3603 11.25 12.551 11.25 12.7499V20.2012C9.80091 20.0172 8.46853 19.3115 7.5022 18.2161C6.53586 17.1207 6.00182 15.7107 6 14.2499V10.4999H18V14.2499C17.9982 15.7107 17.4641 17.1207 16.4978 18.2161C15.5315 19.3115 14.1991 20.0172 12.75 20.2012Z" fill="black"/>
</svg>
