<svg width="24" height="24" viewBox="0 0 24 24" fill="none" xmlns="http://www.w3.org/2000/svg">
<path d="M17.9841 4.07618L19.2806 2.78055C19.3503 2.71087 19.4056 2.62815 19.4433 2.5371C19.481 2.44606 19.5004 2.34847 19.5004 2.24993C19.5004 2.15138 19.481 2.0538 19.4433 1.96276C19.4056 1.87171 19.3503 1.78899 19.2806 1.7193C19.2109 1.64962 19.1282 1.59435 19.0372 1.55663C18.9461 1.51892 18.8485 1.49951 18.75 1.49951C18.6515 1.49951 18.5539 1.51892 18.4628 1.55663C18.3718 1.59435 18.2891 1.64962 18.2194 1.7193L16.8553 3.0843C15.4458 2.05483 13.7455 1.50004 12 1.50004C10.2545 1.50004 8.55424 2.05483 7.14469 3.0843L5.78063 1.7193C5.6399 1.57857 5.44902 1.49951 5.25 1.49951C5.05098 1.49951 4.86011 1.57857 4.71938 1.7193C4.57865 1.86003 4.49958 2.05091 4.49958 2.24993C4.49958 2.44895 4.57865 2.63982 4.71938 2.78055L6.01594 4.07618C4.56007 5.60629 3.74871 7.63787 3.75 9.74993V13.4999C3.75 15.688 4.6192 17.7864 6.16637 19.3336C7.71355 20.8807 9.81197 21.7499 12 21.7499C14.188 21.7499 16.2865 20.8807 17.8336 19.3336C19.3808 17.7864 20.25 15.688 20.25 13.4999V9.74993C20.2513 7.63787 19.4399 5.60629 17.9841 4.07618ZM12 2.99993C13.7896 3.00191 15.5053 3.71371 16.7708 4.97915C18.0362 6.24459 18.748 7.96033 18.75 9.74993V10.4999H5.25V9.74993C5.25199 7.96033 5.96378 6.24459 7.22922 4.97915C8.49466 3.71371 10.2104 3.00191 12 2.99993ZM12 20.2499C10.2104 20.2479 8.49466 19.5361 7.22922 18.2707C5.96378 17.0053 5.25199 15.2895 5.25 13.4999V11.9999H18.75V13.4999C18.748 15.2895 18.0362 17.0053 16.7708 18.2707C15.5053 19.5361 13.7896 20.2479 12 20.2499ZM13.5 7.87493C13.5 7.65242 13.566 7.43492 13.6896 7.24991C13.8132 7.06491 13.9889 6.92071 14.1945 6.83556C14.4001 6.75042 14.6263 6.72814 14.8445 6.77155C15.0627 6.81495 15.2632 6.9221 15.4205 7.07943C15.5778 7.23677 15.685 7.43722 15.7284 7.65545C15.7718 7.87368 15.7495 8.09988 15.6644 8.30545C15.5792 8.51101 15.435 8.68672 15.25 8.81033C15.065 8.93395 14.8475 8.99993 14.625 8.99993C14.3266 8.99993 14.0405 8.8814 13.8295 8.67042C13.6185 8.45945 13.5 8.1733 13.5 7.87493ZM8.25 7.87493C8.25 7.65242 8.31598 7.43492 8.4396 7.24991C8.56321 7.06491 8.73892 6.92071 8.94448 6.83556C9.15005 6.75042 9.37625 6.72814 9.59448 6.77155C9.81271 6.81495 10.0132 6.9221 10.1705 7.07943C10.3278 7.23677 10.435 7.43722 10.4784 7.65545C10.5218 7.87368 10.4995 8.09988 10.4144 8.30545C10.3292 8.51101 10.185 8.68672 10 8.81033C9.81501 8.93395 9.59751 8.99993 9.375 8.99993C9.07663 8.99993 8.79048 8.8814 8.57951 8.67042C8.36853 8.45945 8.25 8.1733 8.25 7.87493Z" fill="black"/>
</svg>
