<svg width="24" height="24" viewBox="0 0 24 24" fill="none" xmlns="http://www.w3.org/2000/svg">
<path d="M20.9643 21.2268C20.9345 21.3207 20.8865 21.4078 20.823 21.4831C20.7595 21.5584 20.6817 21.6205 20.5942 21.6658C20.5067 21.711 20.4112 21.7386 20.313 21.747C20.2149 21.7553 20.116 21.7442 20.0222 21.7143L12 19.1615L3.97778 21.7143C3.88391 21.7442 3.78507 21.7553 3.68692 21.7469C3.58876 21.7386 3.49321 21.711 3.40572 21.6657C3.31823 21.6205 3.24052 21.5584 3.17701 21.4831C3.1135 21.4078 3.06545 21.3207 3.03559 21.2268C3.00574 21.133 2.99467 21.0341 3.00301 20.936C3.01135 20.8378 3.03894 20.7423 3.08421 20.6548C3.12948 20.5673 3.19154 20.4896 3.26684 20.4261C3.34215 20.3626 3.42922 20.3145 3.52309 20.2847L9.5231 18.375L3.52309 16.4643C3.42663 16.4367 3.33668 16.39 3.25859 16.327C3.18049 16.264 3.11583 16.186 3.06843 16.0976C3.02104 16.0091 2.99187 15.9121 2.98266 15.8122C2.97345 15.7122 2.98438 15.6115 3.01481 15.5159C3.04524 15.4202 3.09455 15.3317 3.15981 15.2555C3.22507 15.1793 3.30497 15.1169 3.39476 15.0721C3.48456 15.0274 3.58242 15.0011 3.68257 14.9948C3.78271 14.9885 3.8831 15.0024 3.97778 15.0356L12 17.5875L20.0222 15.0356C20.1168 15.0024 20.2172 14.9885 20.3174 14.9948C20.4175 15.0011 20.5154 15.0274 20.6052 15.0721C20.695 15.1169 20.7749 15.1793 20.8401 15.2555C20.9054 15.3317 20.9547 15.4202 20.9851 15.5159C21.0156 15.6115 21.0265 15.7122 21.0173 15.8122C21.0081 15.9121 20.9789 16.0091 20.9315 16.0976C20.8841 16.186 20.8195 16.264 20.7414 16.327C20.6633 16.39 20.5733 16.4367 20.4768 16.4643L14.4768 18.375L20.4768 20.2847C20.5707 20.3145 20.6578 20.3625 20.7331 20.426C20.8084 20.4896 20.8705 20.5673 20.9158 20.6548C20.961 20.7423 20.9886 20.8378 20.997 20.936C21.0053 21.0341 20.9942 21.133 20.9643 21.2268ZM6.37497 10.125C6.37497 8.2406 7.29091 6.29341 9.02247 4.49997C9.79942 3.69202 10.6667 2.97607 11.6072 2.36622C11.7253 2.29358 11.8613 2.25513 12 2.25513C12.1387 2.25513 12.2746 2.29358 12.3928 2.36622C12.6065 2.49279 17.625 5.63247 17.625 10.125C17.625 11.6168 17.0323 13.0476 15.9774 14.1024C14.9226 15.1573 13.4918 15.75 12 15.75C10.5081 15.75 9.07739 15.1573 8.02249 14.1024C6.9676 13.0476 6.37497 11.6168 6.37497 10.125ZM12 14.25C12.3978 14.25 12.7793 14.0919 13.0606 13.8106C13.3419 13.5293 13.5 13.1478 13.5 12.75C13.5 11.4778 12.5625 10.4568 12 9.95716C11.4375 10.4568 10.5 11.4778 10.5 12.75C10.5 13.1478 10.658 13.5293 10.9393 13.8106C11.2206 14.0919 11.6021 14.25 12 14.25ZM7.87497 10.125C7.87464 11.1805 8.2805 12.1956 9.00841 12.96C9.00841 12.8906 8.99997 12.8203 8.99997 12.75C8.99997 10.125 11.4787 8.44591 11.5837 8.3756C11.707 8.29337 11.8518 8.24949 12 8.24949C12.1481 8.24949 12.293 8.29337 12.4162 8.3756C12.5212 8.44591 15 10.125 15 12.75C15 12.8203 15 12.8906 14.9915 12.96C15.7194 12.1956 16.1253 11.1805 16.125 10.125C16.125 7.12497 13.1006 4.68747 12 3.9056C10.9003 4.68747 7.87497 7.12497 7.87497 10.125Z" fill="black"/>
</svg>
