<svg width="24" height="24" viewBox="0 0 24 24" fill="none" xmlns="http://www.w3.org/2000/svg">
<path d="M20.0301 15.5307C19.9604 15.6005 19.8777 15.6558 19.7866 15.6935C19.6956 15.7313 19.598 15.7507 19.4994 15.7507C19.4009 15.7507 19.3033 15.7313 19.2122 15.6935C19.1212 15.6558 19.0385 15.6005 18.9688 15.5307L11.9994 8.56041L5.03007 15.5307C4.88933 15.6715 4.69846 15.7505 4.49944 15.7505C4.30042 15.7505 4.10955 15.6715 3.96882 15.5307C3.82808 15.39 3.74902 15.1991 3.74902 15.0001C3.74902 14.8011 3.82808 14.6102 3.96882 14.4695L11.4688 6.96948C11.5385 6.89974 11.6212 6.84443 11.7122 6.80668C11.8033 6.76894 11.9009 6.74951 11.9994 6.74951C12.098 6.74951 12.1956 6.76894 12.2866 6.80668C12.3777 6.84443 12.4604 6.89974 12.5301 6.96948L20.0301 14.4695C20.0998 14.5391 20.1551 14.6218 20.1929 14.7129C20.2306 14.8039 20.25 14.9015 20.25 15.0001C20.25 15.0987 20.2306 15.1963 20.1929 15.2873C20.1551 15.3784 20.0998 15.4611 20.0301 15.5307Z" fill="black"/>
</svg>
