<svg width="24" height="24" viewBox="0 0 24 24" fill="none" xmlns="http://www.w3.org/2000/svg">
<path d="M17.0301 15.9695C17.0998 16.0391 17.1551 16.1218 17.1929 16.2129C17.2306 16.3039 17.25 16.4015 17.25 16.5001C17.25 16.5987 17.2306 16.6963 17.1929 16.7873C17.1551 16.8784 17.0998 16.9611 17.0301 17.0307L12.5301 21.5307C12.4604 21.6005 12.3777 21.6558 12.2866 21.6935C12.1956 21.7313 12.098 21.7507 11.9994 21.7507C11.9009 21.7507 11.8033 21.7313 11.7122 21.6935C11.6212 21.6558 11.5385 21.6005 11.4688 21.5307L6.96882 17.0307C6.82808 16.89 6.74902 16.6991 6.74902 16.5001C6.74902 16.3011 6.82808 16.1102 6.96882 15.9695C7.10955 15.8287 7.30042 15.7497 7.49944 15.7497C7.69846 15.7497 7.88934 15.8287 8.03007 15.9695L11.9994 19.9398L15.9688 15.9695C16.0385 15.8997 16.1212 15.8444 16.2122 15.8067C16.3033 15.7689 16.4009 15.7495 16.4994 15.7495C16.598 15.7495 16.6956 15.7689 16.7866 15.8067C16.8777 15.8444 16.9604 15.8997 17.0301 15.9695ZM8.03007 8.03073L11.9994 4.06041L15.9688 8.03073C16.1095 8.17146 16.3004 8.25052 16.4994 8.25052C16.6985 8.25052 16.8893 8.17146 17.0301 8.03073C17.1708 7.89 17.2499 7.69912 17.2499 7.5001C17.2499 7.30108 17.1708 7.11021 17.0301 6.96948L12.5301 2.46948C12.4604 2.39974 12.3777 2.34442 12.2866 2.30668C12.1956 2.26894 12.098 2.24951 11.9994 2.24951C11.9009 2.24951 11.8033 2.26894 11.7122 2.30668C11.6212 2.34442 11.5385 2.39974 11.4688 2.46948L6.96882 6.96948C6.82808 7.11021 6.74902 7.30108 6.74902 7.5001C6.74902 7.69912 6.82809 7.89 6.96882 8.03073C7.10955 8.17146 7.30042 8.25052 7.49944 8.25052C7.69846 8.25052 7.88934 8.17146 8.03007 8.03073Z" fill="black"/>
</svg>
