<svg width="24" height="24" viewBox="0 0 24 24" fill="none" xmlns="http://www.w3.org/2000/svg">
<path d="M18.8945 5.1055C17.066 3.277 14.586 2.24976 12.0001 2.24976C9.41423 2.24976 6.93425 3.277 5.10574 5.1055C3.27724 6.934 2.25 9.41398 2.25 11.9999C2.25 14.5858 3.27724 17.0657 5.10574 18.8942C6.93425 20.7227 9.41423 21.75 12.0001 21.75C14.586 21.75 17.066 20.7227 18.8945 18.8942C20.723 17.0657 21.7502 14.5858 21.7502 11.9999C21.7502 9.41398 20.723 6.934 18.8945 5.1055ZM17.8342 17.8339C16.6803 18.9876 15.2103 19.7732 13.61 20.0914C12.0097 20.4097 10.351 20.2462 8.84356 19.6218C7.33614 18.9973 6.04774 17.9399 5.14127 16.5832C4.2348 15.2265 3.75098 13.6315 3.75098 11.9999C3.75098 10.3682 4.2348 8.77323 5.14127 7.41655C6.04774 6.05987 7.33614 5.00244 8.84356 4.37799C10.351 3.75353 12.0097 3.59008 13.61 3.90831C15.2103 4.22654 16.6803 5.01215 17.8342 6.16581C19.3791 7.71436 20.2467 9.81246 20.2467 11.9999C20.2467 14.1873 19.3791 16.2854 17.8342 17.8339ZM15.5307 7.71925C15.6005 7.7889 15.6558 7.87162 15.6935 7.96267C15.7313 8.05372 15.7507 8.15131 15.7507 8.24987C15.7507 8.34844 15.7313 8.44603 15.6935 8.53708C15.6558 8.62813 15.6005 8.71084 15.5307 8.7805L12.5307 11.7805C12.4611 11.8502 12.3784 11.9056 12.2873 11.9433C12.1963 11.981 12.0987 12.0005 12.0001 12.0005C11.9016 12.0005 11.804 11.981 11.7129 11.9433C11.6219 11.9056 11.5391 11.8502 11.4695 11.7805L8.46949 8.7805C8.32876 8.63977 8.2497 8.4489 8.2497 8.24987C8.2497 8.05085 8.32876 7.85998 8.46949 7.71925C8.61022 7.57852 8.8011 7.49946 9.00012 7.49946C9.19914 7.49946 9.39001 7.57852 9.53074 7.71925L12.0001 10.1896L14.4695 7.71925C14.5391 7.64952 14.6219 7.5942 14.7129 7.55645C14.804 7.51871 14.9016 7.49928 15.0001 7.49928C15.0987 7.49928 15.1963 7.51871 15.2873 7.55645C15.3784 7.5942 15.4611 7.64952 15.5307 7.71925ZM15.5307 12.9692C15.6005 13.0389 15.6558 13.1216 15.6935 13.2127C15.7313 13.3037 15.7507 13.4013 15.7507 13.4999C15.7507 13.5984 15.7313 13.696 15.6935 13.7871C15.6558 13.8781 15.6005 13.9608 15.5307 14.0305L12.5307 17.0305C12.4611 17.1002 12.3784 17.1556 12.2873 17.1933C12.1963 17.231 12.0987 17.2505 12.0001 17.2505C11.9016 17.2505 11.804 17.231 11.7129 17.1933C11.6219 17.1556 11.5391 17.1002 11.4695 17.0305L8.46949 14.0305C8.32876 13.8898 8.2497 13.6989 8.2497 13.4999C8.2497 13.3009 8.32876 13.11 8.46949 12.9692C8.61022 12.8285 8.8011 12.7495 9.00012 12.7495C9.19914 12.7495 9.39001 12.8285 9.53074 12.9692L12.0001 15.4396L14.4695 12.9692C14.5391 12.8995 14.6219 12.8442 14.7129 12.8065C14.804 12.7687 14.9016 12.7493 15.0001 12.7493C15.0987 12.7493 15.1963 12.7687 15.2873 12.8065C15.3784 12.8442 15.4611 12.8995 15.5307 12.9692Z" fill="black"/>
</svg>
