<svg width="24" height="24" viewBox="0 0 24 24" fill="none" xmlns="http://www.w3.org/2000/svg">
<path d="M20.0301 11.4693C20.0998 11.539 20.1551 11.6217 20.1929 11.7127C20.2306 11.8038 20.25 11.9014 20.25 11.9999C20.25 12.0985 20.2306 12.1961 20.1929 12.2871C20.1551 12.3782 20.0998 12.4609 20.0301 12.5306L12.5301 20.0306C12.4604 20.1003 12.3777 20.1556 12.2866 20.1933C12.1956 20.2311 12.098 20.2505 11.9994 20.2505C11.9009 20.2505 11.8033 20.2311 11.7122 20.1933C11.6212 20.1556 11.5385 20.1003 11.4688 20.0306L3.96882 12.5306C3.82808 12.3898 3.74902 12.199 3.74902 11.9999C3.74902 11.8009 3.82808 11.61 3.96882 11.4693C4.10955 11.3286 4.30042 11.2495 4.49944 11.2495C4.69846 11.2495 4.88933 11.3286 5.03007 11.4693L11.9994 18.4396L18.9688 11.4693C19.0385 11.3996 19.1212 11.3443 19.2122 11.3065C19.3033 11.2688 19.4009 11.2493 19.4994 11.2493C19.598 11.2493 19.6956 11.2688 19.7866 11.3065C19.8777 11.3443 19.9604 11.3996 20.0301 11.4693ZM11.4688 12.5306C11.5385 12.6003 11.6212 12.6556 11.7122 12.6933C11.8033 12.7311 11.9009 12.7505 11.9994 12.7505C12.098 12.7505 12.1956 12.7311 12.2866 12.6933C12.3777 12.6556 12.4604 12.6003 12.5301 12.5306L20.0301 5.03055C20.1708 4.88982 20.2499 4.69895 20.2499 4.49993C20.2499 4.30091 20.1708 4.11003 20.0301 3.9693C19.8893 3.82857 19.6985 3.74951 19.4994 3.74951C19.3004 3.74951 19.1095 3.82857 18.9688 3.9693L11.9994 10.9396L5.03007 3.9693C4.88933 3.82857 4.69846 3.74951 4.49944 3.74951C4.30042 3.74951 4.10955 3.82857 3.96882 3.9693C3.82808 4.11003 3.74902 4.30091 3.74902 4.49993C3.74902 4.69895 3.82808 4.88982 3.96882 5.03055L11.4688 12.5306Z" fill="black"/>
</svg>
