<svg width="24" height="24" viewBox="0 0 24 24" fill="none" xmlns="http://www.w3.org/2000/svg">
<path d="M20.0301 18.9695C20.0997 19.0392 20.155 19.1219 20.1927 19.2129C20.2304 19.304 20.2499 19.4016 20.2499 19.5001C20.2499 19.5986 20.2304 19.6962 20.1927 19.7873C20.155 19.8783 20.0997 19.961 20.0301 20.0307C19.9604 20.1004 19.8777 20.1557 19.7866 20.1934C19.6956 20.2311 19.598 20.2505 19.4994 20.2505C19.4009 20.2505 19.3033 20.2311 19.2123 20.1934C19.1212 20.1557 19.0385 20.1004 18.9688 20.0307L11.9994 13.0604L5.03007 20.0307C4.88933 20.1715 4.69846 20.2505 4.49944 20.2505C4.30042 20.2505 4.10955 20.1715 3.96882 20.0307C3.82808 19.89 3.74902 19.6991 3.74902 19.5001C3.74902 19.3011 3.82808 19.1102 3.96882 18.9695L11.4688 11.4695C11.5385 11.3997 11.6212 11.3444 11.7122 11.3067C11.8033 11.2689 11.9009 11.2495 11.9994 11.2495C12.098 11.2495 12.1956 11.2689 12.2866 11.3067C12.3777 11.3444 12.4604 11.3997 12.5301 11.4695L20.0301 18.9695ZM5.03007 12.5307L11.9994 5.56041L18.9688 12.5307C19.0385 12.6004 19.1212 12.6557 19.2123 12.6934C19.3033 12.7311 19.4009 12.7505 19.4994 12.7505C19.598 12.7505 19.6956 12.7311 19.7866 12.6934C19.8777 12.6557 19.9604 12.6004 20.0301 12.5307C20.0997 12.461 20.155 12.3783 20.1927 12.2873C20.2304 12.1962 20.2499 12.0986 20.2499 12.0001C20.2499 11.9016 20.2304 11.804 20.1927 11.7129C20.155 11.6219 20.0997 11.5392 20.0301 11.4695L12.5301 3.96948C12.4604 3.89974 12.3777 3.84443 12.2866 3.80668C12.1956 3.76894 12.098 3.74951 11.9994 3.74951C11.9009 3.74951 11.8033 3.76894 11.7122 3.80668C11.6212 3.84443 11.5385 3.89974 11.4688 3.96948L3.96882 11.4695C3.82808 11.6102 3.74902 11.8011 3.74902 12.0001C3.74902 12.1991 3.82808 12.39 3.96882 12.5307C4.10955 12.6715 4.30042 12.7505 4.49944 12.7505C4.69846 12.7505 4.88933 12.6715 5.03007 12.5307Z" fill="black"/>
</svg>
