<svg width="24" height="24" viewBox="0 0 24 24" fill="none" xmlns="http://www.w3.org/2000/svg">
<path d="M18.8945 5.1055C17.066 3.277 14.586 2.24976 12.0001 2.24976C9.41423 2.24976 6.93425 3.277 5.10574 5.1055C3.27724 6.934 2.25 9.41398 2.25 11.9999C2.25 14.5858 3.27724 17.0657 5.10574 18.8942C6.93425 20.7227 9.41423 21.75 12.0001 21.75C14.586 21.75 17.066 20.7227 18.8945 18.8942C20.723 17.0657 21.7502 14.5858 21.7502 11.9999C21.7502 9.41398 20.723 6.934 18.8945 5.1055ZM17.8342 17.8339C16.6803 18.9876 15.2103 19.7732 13.61 20.0914C12.0097 20.4097 10.351 20.2462 8.84356 19.6218C7.33614 18.9973 6.04774 17.9399 5.14127 16.5832C4.2348 15.2265 3.75098 13.6315 3.75098 11.9999C3.75098 10.3682 4.2348 8.77323 5.14127 7.41655C6.04774 6.05987 7.33614 5.00244 8.84356 4.37799C10.351 3.75353 12.0097 3.59008 13.61 3.90831C15.2103 4.22654 16.6803 5.01215 17.8342 6.16581C19.3791 7.71436 20.2467 9.81246 20.2467 11.9999C20.2467 14.1873 19.3791 16.2854 17.8342 17.8339ZM16.2807 9.5305L13.8104 11.9999L16.2807 14.4692C16.3504 14.5389 16.4057 14.6217 16.4434 14.7127C16.4811 14.8037 16.5005 14.9013 16.5005 14.9999C16.5005 15.0984 16.4811 15.196 16.4434 15.287C16.4057 15.3781 16.3504 15.4608 16.2807 15.5305C16.2111 15.6002 16.1283 15.6555 16.0373 15.6932C15.9462 15.7309 15.8487 15.7503 15.7501 15.7503C15.6516 15.7503 15.554 15.7309 15.4629 15.6932C15.3719 15.6555 15.2892 15.6002 15.2195 15.5305L12.2195 12.5305C12.1498 12.4608 12.0944 12.3781 12.0567 12.2871C12.019 12.196 11.9995 12.0984 11.9995 11.9999C11.9995 11.9013 12.019 11.8037 12.0567 11.7127C12.0944 11.6216 12.1498 11.5389 12.2195 11.4692L15.2195 8.46925C15.2892 8.39957 15.3719 8.34429 15.4629 8.30658C15.554 8.26887 15.6516 8.24946 15.7501 8.24946C15.8487 8.24946 15.9462 8.26887 16.0373 8.30658C16.1283 8.34429 16.2111 8.39957 16.2807 8.46925C16.3504 8.53893 16.4057 8.62166 16.4434 8.7127C16.4811 8.80375 16.5005 8.90133 16.5005 8.99987C16.5005 9.09842 16.4811 9.196 16.4434 9.28705C16.4057 9.37809 16.3504 9.46082 16.2807 9.5305ZM11.0307 9.5305L8.56043 11.9999L11.0307 14.4692C11.1004 14.5389 11.1557 14.6217 11.1934 14.7127C11.2311 14.8037 11.2505 14.9013 11.2505 14.9999C11.2505 15.0984 11.2311 15.196 11.1934 15.287C11.1557 15.3781 11.1004 15.4608 11.0307 15.5305C10.9611 15.6002 10.8783 15.6555 10.7873 15.6932C10.6962 15.7309 10.5987 15.7503 10.5001 15.7503C10.4016 15.7503 10.304 15.7309 10.2129 15.6932C10.1219 15.6555 10.0392 15.6002 9.96949 15.5305L6.96949 12.5305C6.89976 12.4608 6.84444 12.3781 6.8067 12.2871C6.76896 12.196 6.74953 12.0984 6.74953 11.9999C6.74953 11.9013 6.76896 11.8037 6.8067 11.7127C6.84444 11.6216 6.89976 11.5389 6.96949 11.4692L9.96949 8.46925C10.1102 8.32852 10.3011 8.24946 10.5001 8.24946C10.6991 8.24946 10.89 8.32852 11.0307 8.46925C11.1715 8.60998 11.2505 8.80085 11.2505 8.99987C11.2505 9.1989 11.1715 9.38977 11.0307 9.5305Z" fill="black"/>
</svg>
