<svg width="24" height="24" viewBox="0 0 24 24" fill="none" xmlns="http://www.w3.org/2000/svg">
<path d="M18.8945 5.1055C17.066 3.277 14.586 2.24976 12.0001 2.24976C9.41423 2.24976 6.93425 3.277 5.10574 5.1055C3.27724 6.934 2.25 9.41398 2.25 11.9999C2.25 14.5858 3.27724 17.0657 5.10574 18.8942C6.93425 20.7227 9.41423 21.75 12.0001 21.75C14.586 21.75 17.066 20.7227 18.8945 18.8942C20.723 17.0657 21.7502 14.5858 21.7502 11.9999C21.7502 9.41398 20.723 6.934 18.8945 5.1055ZM17.8342 17.8339C16.6803 18.9876 15.2103 19.7732 13.61 20.0914C12.0097 20.4097 10.351 20.2462 8.84356 19.6218C7.33614 18.9973 6.04774 17.9399 5.14127 16.5832C4.2348 15.2265 3.75098 13.6315 3.75098 11.9999C3.75098 10.3682 4.2348 8.77323 5.14127 7.41655C6.04774 6.05987 7.33614 5.00244 8.84356 4.37799C10.351 3.75353 12.0097 3.59008 13.61 3.90831C15.2103 4.22654 16.6803 5.01215 17.8342 6.16581C19.3791 7.71436 20.2467 9.81246 20.2467 11.9999C20.2467 14.1873 19.3791 16.2854 17.8342 17.8339ZM15.5307 15.2192C15.6715 15.36 15.7505 15.5509 15.7505 15.7499C15.7505 15.9489 15.6715 16.1398 15.5307 16.2805C15.39 16.4212 15.1991 16.5003 15.0001 16.5003C14.8011 16.5003 14.6102 16.4212 14.4695 16.2805L12.0001 13.8102L9.53074 16.2805C9.46106 16.3502 9.37834 16.4055 9.28729 16.4432C9.19625 16.4809 9.09866 16.5003 9.00012 16.5003C8.90157 16.5003 8.80399 16.4809 8.71295 16.4432C8.6219 16.4055 8.53918 16.3502 8.46949 16.2805C8.39981 16.2108 8.34453 16.1281 8.30682 16.037C8.26911 15.946 8.2497 15.8484 8.2497 15.7499C8.2497 15.6513 8.26911 15.5537 8.30682 15.4627C8.34453 15.3717 8.39981 15.2889 8.46949 15.2192L11.4695 12.2192C11.5391 12.1495 11.6219 12.0942 11.7129 12.0565C11.804 12.0187 11.9016 11.9993 12.0001 11.9993C12.0987 11.9993 12.1963 12.0187 12.2873 12.0565C12.3784 12.0942 12.4611 12.1495 12.5307 12.2192L15.5307 15.2192ZM15.5307 9.96925C15.6004 10.0389 15.6557 10.1217 15.6934 10.2127C15.7311 10.3037 15.7505 10.4013 15.7505 10.4999C15.7505 10.5984 15.7311 10.696 15.6934 10.787C15.6557 10.8781 15.6004 10.9608 15.5307 11.0305C15.4611 11.1002 15.3783 11.1555 15.2873 11.1932C15.1962 11.2309 15.0987 11.2503 15.0001 11.2503C14.9016 11.2503 14.804 11.2309 14.7129 11.1932C14.6219 11.1555 14.5392 11.1002 14.4695 11.0305L12.0001 8.56019L9.53074 11.0305C9.39001 11.1712 9.19914 11.2503 9.00012 11.2503C8.8011 11.2503 8.61022 11.1712 8.46949 11.0305C8.32876 10.8898 8.2497 10.6989 8.2497 10.4999C8.2497 10.3009 8.32876 10.11 8.46949 9.96925L11.4695 6.96925C11.5391 6.89952 11.6219 6.8442 11.7129 6.80645C11.804 6.76871 11.9016 6.74928 12.0001 6.74928C12.0987 6.74928 12.1963 6.76871 12.2873 6.80645C12.3784 6.8442 12.4611 6.89952 12.5307 6.96925L15.5307 9.96925Z" fill="black"/>
</svg>
