<svg width="24" height="24" viewBox="0 0 24 24" fill="none" xmlns="http://www.w3.org/2000/svg">
<path d="M20.0301 9.53055L12.5301 17.0306C12.4604 17.1003 12.3777 17.1556 12.2866 17.1933C12.1956 17.2311 12.098 17.2505 11.9994 17.2505C11.9009 17.2505 11.8033 17.2311 11.7122 17.1933C11.6212 17.1556 11.5385 17.1003 11.4688 17.0306L3.96882 9.53055C3.82808 9.38982 3.74902 9.19895 3.74902 8.99993C3.74902 8.80091 3.82808 8.61003 3.96882 8.4693C4.10955 8.32857 4.30042 8.24951 4.49944 8.24951C4.69846 8.24951 4.88933 8.32857 5.03007 8.4693L11.9994 15.4396L18.9688 8.4693C19.0385 8.39962 19.1212 8.34435 19.2123 8.30663C19.3033 8.26892 19.4009 8.24951 19.4994 8.24951C19.598 8.24951 19.6956 8.26892 19.7866 8.30663C19.8777 8.34435 19.9604 8.39962 20.0301 8.4693C20.0997 8.53899 20.155 8.62171 20.1927 8.71276C20.2304 8.8038 20.2499 8.90138 20.2499 8.99993C20.2499 9.09847 20.2304 9.19606 20.1927 9.2871C20.155 9.37815 20.0997 9.46087 20.0301 9.53055Z" fill="black"/>
</svg>
