<svg width="24" height="24" viewBox="0 0 24 24" fill="none" xmlns="http://www.w3.org/2000/svg">
<path d="M17.0301 12.5306L9.53007 20.0306C9.46038 20.1002 9.37766 20.1555 9.28661 20.1932C9.19557 20.2309 9.09799 20.2503 8.99944 20.2503C8.90089 20.2503 8.80331 20.2309 8.71227 20.1932C8.62122 20.1555 8.5385 20.1002 8.46882 20.0306C8.39913 19.9609 8.34386 19.8781 8.30615 19.7871C8.26843 19.6961 8.24902 19.5985 8.24902 19.4999C8.24902 19.4014 8.26843 19.3038 8.30615 19.2128C8.34386 19.1217 8.39913 19.039 8.46882 18.9693L15.4391 11.9999L8.46882 5.03055C8.32808 4.88982 8.24902 4.69895 8.24902 4.49993C8.24902 4.30091 8.32808 4.11003 8.46882 3.9693C8.60955 3.82857 8.80042 3.74951 8.99944 3.74951C9.19846 3.74951 9.38934 3.82857 9.53007 3.9693L17.0301 11.4693C17.0998 11.539 17.1551 11.6217 17.1929 11.7127C17.2306 11.8038 17.25 11.9014 17.25 11.9999C17.25 12.0985 17.2306 12.1961 17.1929 12.2871C17.1551 12.3782 17.0998 12.4609 17.0301 12.5306Z" fill="black"/>
</svg>
