<svg width="24" height="24" viewBox="0 0 24 24" fill="none" xmlns="http://www.w3.org/2000/svg">
<path d="M19.2802 18.9693C19.3499 19.039 19.4052 19.1217 19.4429 19.2128C19.4806 19.3038 19.5 19.4014 19.5 19.4999C19.5 19.5985 19.4806 19.6961 19.4429 19.7871C19.4052 19.8781 19.3499 19.9609 19.2802 20.0306C19.2106 20.1002 19.1278 20.1555 19.0368 20.1932C18.9457 20.2309 18.8482 20.2503 18.7496 20.2503C18.6511 20.2503 18.5535 20.2309 18.4624 20.1932C18.3714 20.1555 18.2887 20.1002 18.219 20.0306L10.719 12.5306C10.6493 12.4609 10.5939 12.3782 10.5562 12.2871C10.5185 12.1961 10.499 12.0985 10.499 11.9999C10.499 11.9014 10.5185 11.8038 10.5562 11.7127C10.5939 11.6217 10.6493 11.539 10.719 11.4693L18.219 3.9693C18.3597 3.82857 18.5506 3.74951 18.7496 3.74951C18.9486 3.74951 19.1395 3.82857 19.2802 3.9693C19.421 4.11003 19.5 4.30091 19.5 4.49993C19.5 4.69895 19.421 4.88982 19.2802 5.03055L12.3099 11.9999L19.2802 18.9693ZM4.80993 11.9999L11.7802 5.03055C11.921 4.88982 12 4.69895 12 4.49993C12 4.30091 11.921 4.11003 11.7802 3.9693C11.6395 3.82857 11.4486 3.74951 11.2496 3.74951C11.0506 3.74951 10.8597 3.82857 10.719 3.9693L3.21899 11.4693C3.14926 11.539 3.09394 11.6217 3.05619 11.7127C3.01845 11.8038 2.99902 11.9014 2.99902 11.9999C2.99902 12.0985 3.01845 12.1961 3.05619 12.2871C3.09394 12.3782 3.14926 12.4609 3.21899 12.5306L10.719 20.0306C10.7887 20.1002 10.8714 20.1555 10.9624 20.1932C11.0535 20.2309 11.1511 20.2503 11.2496 20.2503C11.3482 20.2503 11.4457 20.2309 11.5368 20.1932C11.6278 20.1555 11.7106 20.1002 11.7802 20.0306C11.8499 19.9609 11.9052 19.8781 11.9429 19.7871C11.9806 19.6961 12 19.5985 12 19.4999C12 19.4014 11.9806 19.3038 11.9429 19.2128C11.9052 19.1217 11.8499 19.039 11.7802 18.9693L4.80993 11.9999Z" fill="black"/>
</svg>
