<svg width="24" height="24" viewBox="0 0 24 24" fill="none" xmlns="http://www.w3.org/2000/svg">
<path d="M18.8945 5.1055C17.066 3.277 14.586 2.24976 12.0001 2.24976C9.41423 2.24976 6.93425 3.277 5.10574 5.1055C3.27724 6.934 2.25 9.41398 2.25 11.9999C2.25 14.5858 3.27724 17.0657 5.10574 18.8942C6.93425 20.7227 9.41423 21.75 12.0001 21.75C14.586 21.75 17.066 20.7227 18.8945 18.8942C20.723 17.0657 21.7502 14.5858 21.7502 11.9999C21.7502 9.41398 20.723 6.934 18.8945 5.1055ZM17.8342 17.8339C16.6803 18.9876 15.2103 19.7732 13.61 20.0914C12.0097 20.4097 10.351 20.2462 8.84356 19.6218C7.33614 18.9973 6.04774 17.9399 5.14127 16.5832C4.2348 15.2265 3.75098 13.6315 3.75098 11.9999C3.75098 10.3682 4.2348 8.77323 5.14127 7.41655C6.04774 6.05987 7.33614 5.00244 8.84356 4.37799C10.351 3.75353 12.0097 3.59008 13.61 3.90831C15.2103 4.22654 16.6803 5.01215 17.8342 6.16581C19.3791 7.71436 20.2467 9.81246 20.2467 11.9999C20.2467 14.1873 19.3791 16.2854 17.8342 17.8339ZM11.7807 11.4692C11.8505 11.5389 11.9058 11.6216 11.9435 11.7127C11.9813 11.8037 12.0007 11.9013 12.0007 11.9999C12.0007 12.0984 11.9813 12.196 11.9435 12.2871C11.9058 12.3781 11.8505 12.4608 11.7807 12.5305L8.78074 15.5305C8.71106 15.6002 8.62834 15.6555 8.53729 15.6932C8.44625 15.7309 8.34866 15.7503 8.25012 15.7503C8.15157 15.7503 8.05399 15.7309 7.96295 15.6932C7.8719 15.6555 7.78918 15.6002 7.71949 15.5305C7.64981 15.4608 7.59453 15.3781 7.55682 15.287C7.51911 15.196 7.4997 15.0984 7.4997 14.9999C7.4997 14.9013 7.51911 14.8037 7.55682 14.7127C7.59453 14.6217 7.64981 14.5389 7.71949 14.4692L10.1898 11.9999L7.71949 9.5305C7.57876 9.38977 7.4997 9.1989 7.4997 8.99987C7.4997 8.80085 7.57876 8.60998 7.71949 8.46925C7.86022 8.32852 8.0511 8.24946 8.25012 8.24946C8.44914 8.24946 8.64001 8.32852 8.78074 8.46925L11.7807 11.4692ZM17.0307 11.4692C17.1005 11.5389 17.1558 11.6216 17.1935 11.7127C17.2313 11.8037 17.2507 11.9013 17.2507 11.9999C17.2507 12.0984 17.2313 12.196 17.1935 12.2871C17.1558 12.3781 17.1005 12.4608 17.0307 12.5305L14.0307 15.5305C13.89 15.6712 13.6991 15.7503 13.5001 15.7503C13.3011 15.7503 13.1102 15.6712 12.9695 15.5305C12.8288 15.3898 12.7497 15.1989 12.7497 14.9999C12.7497 14.8009 12.8288 14.61 12.9695 14.4692L15.4398 11.9999L12.9695 9.5305C12.8288 9.38977 12.7497 9.1989 12.7497 8.99987C12.7497 8.80085 12.8288 8.60998 12.9695 8.46925C13.1102 8.32852 13.3011 8.24946 13.5001 8.24946C13.6991 8.24946 13.89 8.32852 14.0307 8.46925L17.0307 11.4692Z" fill="black"/>
</svg>
