<svg width="24" height="24" viewBox="0 0 24 24" fill="none" xmlns="http://www.w3.org/2000/svg">
<path d="M13.2801 12.5306L5.78007 20.0306C5.63933 20.1713 5.44846 20.2503 5.24944 20.2503C5.05042 20.2503 4.85955 20.1713 4.71882 20.0306C4.57808 19.8898 4.49902 19.699 4.49902 19.4999C4.49902 19.3009 4.57808 19.11 4.71882 18.9693L11.6891 11.9999L4.71882 5.03055C4.57808 4.88982 4.49902 4.69895 4.49902 4.49993C4.49902 4.30091 4.57808 4.11003 4.71882 3.9693C4.85955 3.82857 5.05042 3.74951 5.24944 3.74951C5.44846 3.74951 5.63933 3.82857 5.78007 3.9693L13.2801 11.4693C13.3498 11.539 13.4051 11.6217 13.4429 11.7127C13.4806 11.8038 13.5 11.9014 13.5 11.9999C13.5 12.0985 13.4806 12.1961 13.4429 12.2871C13.4051 12.3782 13.3498 12.4609 13.2801 12.5306ZM20.7801 11.4693L13.2801 3.9693C13.1393 3.82857 12.9485 3.74951 12.7494 3.74951C12.5504 3.74951 12.3595 3.82857 12.2188 3.9693C12.0781 4.11003 11.999 4.30091 11.999 4.49993C11.999 4.69895 12.0781 4.88982 12.2188 5.03055L19.1891 11.9999L12.2188 18.9693C12.0781 19.11 11.999 19.3009 11.999 19.4999C11.999 19.699 12.0781 19.8898 12.2188 20.0306C12.3595 20.1713 12.5504 20.2503 12.7494 20.2503C12.9485 20.2503 13.1393 20.1713 13.2801 20.0306L20.7801 12.5306C20.8498 12.4609 20.9051 12.3782 20.9429 12.2871C20.9806 12.1961 21 12.0985 21 11.9999C21 11.9014 20.9806 11.8038 20.9429 11.7127C20.9051 11.6217 20.8498 11.539 20.7801 11.4693Z" fill="black"/>
</svg>
