<svg width="24" height="24" viewBox="0 0 24 24" fill="none" xmlns="http://www.w3.org/2000/svg">
<path d="M18.75 2.25H17.25C16.8522 2.25 16.4707 2.40804 16.1893 2.68934C15.908 2.97064 15.75 3.35218 15.75 3.75V5.25H14.25V3.75C14.25 3.35218 14.092 2.97064 13.8107 2.68934C13.5294 2.40804 13.1478 2.25 12.75 2.25H11.25C10.8522 2.25 10.4707 2.40804 10.1893 2.68934C9.90804 2.97064 9.75001 3.35218 9.75001 3.75V5.25H8.25001V3.75C8.25001 3.35218 8.09197 2.97064 7.81067 2.68934C7.52936 2.40804 7.14783 2.25 6.75001 2.25H5.25001C4.85218 2.25 4.47065 2.40804 4.18935 2.68934C3.90804 2.97064 3.75001 3.35218 3.75001 3.75V7.93969C3.74938 8.13674 3.78792 8.33196 3.86341 8.51398C3.93889 8.69601 4.0498 8.86122 4.18969 9L5.25001 10.0603V20.25C5.25001 20.6478 5.40804 21.0294 5.68935 21.3107C5.97065 21.592 6.35218 21.75 6.75001 21.75H17.25C17.6478 21.75 18.0294 21.592 18.3107 21.3107C18.592 21.0294 18.75 20.6478 18.75 20.25V10.0603L19.8103 9C19.9502 8.86122 20.0611 8.69601 20.1366 8.51398C20.2121 8.33196 20.2506 8.13674 20.25 7.93969V3.75C20.25 3.35218 20.092 2.97064 19.8107 2.68934C19.5294 2.40804 19.1478 2.25 18.75 2.25ZM13.5 20.25H10.5V14.25C10.5 13.8522 10.658 13.4706 10.9393 13.1893C11.2207 12.908 11.6022 12.75 12 12.75C12.3978 12.75 12.7794 12.908 13.0607 13.1893C13.342 13.4706 13.5 13.8522 13.5 14.25V20.25ZM18.75 7.93969L17.6897 9C17.5498 9.13878 17.4389 9.30399 17.3634 9.48602C17.2879 9.66804 17.2494 9.86326 17.25 10.0603V20.25H15V14.25C15 13.4544 14.6839 12.6913 14.1213 12.1287C13.5587 11.5661 12.7957 11.25 12 11.25C11.2044 11.25 10.4413 11.5661 9.87869 12.1287C9.31608 12.6913 9.00001 13.4544 9.00001 14.25V20.25H6.75001V10.0603C6.75064 9.86326 6.71209 9.66804 6.63661 9.48602C6.56113 9.30399 6.45021 9.13878 6.31032 9L5.25001 7.93969V3.75H6.75001V5.25C6.75001 5.64782 6.90804 6.02936 7.18935 6.31066C7.47065 6.59196 7.85218 6.75 8.25001 6.75H9.75001C10.1478 6.75 10.5294 6.59196 10.8107 6.31066C11.092 6.02936 11.25 5.64782 11.25 5.25V3.75H12.75V5.25C12.75 5.64782 12.908 6.02936 13.1893 6.31066C13.4707 6.59196 13.8522 6.75 14.25 6.75H15.75C16.1478 6.75 16.5294 6.59196 16.8107 6.31066C17.092 6.02936 17.25 5.64782 17.25 5.25V3.75H18.75V7.93969Z" fill="black"/>
</svg>
