<svg width="24" height="24" viewBox="0 0 24 24" fill="none" xmlns="http://www.w3.org/2000/svg">
<path d="M2.25 15.75V5.25C2.25 4.85218 2.40804 4.47064 2.68934 4.18934C2.97064 3.90804 3.35218 3.75 3.75 3.75H20.25C20.6478 3.75 21.0294 3.90804 21.3107 4.18934C21.592 4.47064 21.75 4.85218 21.75 5.25V15.75C21.75 15.9489 21.671 16.1397 21.5303 16.2803C21.3897 16.421 21.1989 16.5 21 16.5C20.8011 16.5 20.6103 16.421 20.4697 16.2803C20.329 16.1397 20.25 15.9489 20.25 15.75V5.25H3.75V15.75C3.75 15.9489 3.67098 16.1397 3.53033 16.2803C3.38968 16.421 3.19891 16.5 3 16.5C2.80109 16.5 2.61032 16.421 2.46967 16.2803C2.32902 16.1397 2.25 15.9489 2.25 15.75ZM23.25 18.75C23.25 18.9489 23.171 19.1397 23.0303 19.2803C22.8897 19.421 22.6989 19.5 22.5 19.5H1.5C1.30109 19.5 1.11032 19.421 0.96967 19.2803C0.829018 19.1397 0.75 18.9489 0.75 18.75C0.75 18.5511 0.829018 18.3603 0.96967 18.2197C1.11032 18.079 1.30109 18 1.5 18H10.5V15.75C10.5 15.5511 10.579 15.3603 10.7197 15.2197C10.8603 15.079 11.0511 15 11.25 15H17.25C17.4489 15 17.6397 15.079 17.7803 15.2197C17.921 15.3603 18 15.5511 18 15.75V18H22.5C22.6989 18 22.8897 18.079 23.0303 18.2197C23.171 18.3603 23.25 18.5511 23.25 18.75ZM12 18H16.5V16.5H12V18Z" fill="black"/>
</svg>
