<svg width="24" height="24" viewBox="0 0 24 24" fill="none" xmlns="http://www.w3.org/2000/svg">
<path d="M21.7309 17.5623C22.2599 16.4871 22.5235 15.3008 22.4997 14.1028C22.4759 12.9047 22.1654 11.7298 21.5942 10.6765C21.023 9.6231 20.2077 8.72193 19.2166 8.04843C18.2255 7.37493 17.0875 6.94871 15.8978 6.80545C15.5032 5.8857 14.9286 5.05421 14.2077 4.35998C13.4868 3.66575 12.6343 3.12282 11.7003 2.76318C10.7664 2.40354 9.76987 2.23446 8.76955 2.26591C7.76923 2.29736 6.78532 2.5287 5.87579 2.94629C4.96626 3.36389 4.14951 3.9593 3.47366 4.69744C2.79781 5.43558 2.27653 6.30153 1.94053 7.24425C1.60453 8.18698 1.46061 9.18742 1.51724 10.1866C1.57388 11.1858 1.82993 12.1636 2.2703 13.0623L1.55217 15.5767C1.48809 15.8016 1.48529 16.0396 1.54404 16.266C1.6028 16.4924 1.72099 16.699 1.88638 16.8644C2.05176 17.0298 2.25834 17.148 2.48473 17.2067C2.71113 17.2655 2.94911 17.2627 3.17405 17.1986L5.68842 16.4805C6.44715 16.853 7.26329 17.0948 8.10249 17.1958C8.50251 18.133 9.08933 18.9788 9.82713 19.6817C10.5649 20.3846 11.4382 20.9298 12.3937 21.284C13.3492 21.6381 14.3668 21.7939 15.3845 21.7417C16.4022 21.6895 17.3986 21.4305 18.3128 20.9805L20.8272 21.6986C21.0521 21.7627 21.2901 21.7655 21.5165 21.7067C21.7429 21.648 21.9495 21.5298 22.1148 21.3644C22.2802 21.199 22.3984 20.9924 22.4572 20.766C22.5159 20.5396 22.5131 20.3016 22.4491 20.0767L21.7309 17.5623ZM5.76905 14.928C5.69934 14.928 5.62996 14.9374 5.5628 14.9561L3.08686 15.6639L3.79467 13.188C3.84772 12.9993 3.82484 12.7974 3.73093 12.6255C3.04131 11.3594 2.83102 9.88723 3.13857 8.47872C3.44613 7.07021 4.25093 5.8197 5.40552 4.95633C6.5601 4.09295 7.98714 3.67454 9.42513 3.77777C10.8631 3.88099 12.2158 4.49893 13.2352 5.51837C14.2546 6.5378 14.8726 7.89044 14.9758 9.32843C15.079 10.7664 14.6606 12.1935 13.7972 13.348C12.9339 14.5026 11.6834 15.3074 10.2748 15.615C8.86634 15.9225 7.39418 15.7123 6.12811 15.0226C6.01835 14.9613 5.89481 14.9287 5.76905 14.928ZM20.2066 17.688L20.9144 20.1639L18.4384 19.4561C18.2498 19.403 18.0479 19.4259 17.8759 19.5198C16.4934 20.272 14.8708 20.4514 13.3574 20.0194C11.8439 19.5873 10.5606 18.5785 9.78342 17.2098C10.8104 17.1029 11.8042 16.7848 12.7025 16.2757C13.6007 15.7665 14.3841 15.0771 15.0034 14.2509C15.6226 13.4247 16.0645 12.4794 16.3011 11.4744C16.5378 10.4693 16.5642 9.4262 16.3787 8.41045C17.2774 8.62225 18.1151 9.03861 18.8266 9.62711C19.5381 10.2156 20.1042 10.9604 20.4807 11.8034C20.8573 12.6465 21.0342 13.565 20.9977 14.4876C20.9612 15.4102 20.7123 16.312 20.2703 17.1226C20.1756 17.2954 20.1527 17.4985 20.2066 17.688Z" fill="black"/>
</svg>
