<svg width="24" height="24" viewBox="0 0 24 24" fill="none" xmlns="http://www.w3.org/2000/svg">
<path d="M20.25 3.75H3.75C3.35218 3.75 2.97064 3.90804 2.68934 4.18934C2.40804 4.47064 2.25 4.85218 2.25 5.25V17.25C2.25 17.6478 2.40804 18.0294 2.68934 18.3107C2.97064 18.592 3.35218 18.75 3.75 18.75H9.32531L10.7137 21.0216C10.8467 21.2433 11.0347 21.427 11.2596 21.5547C11.4844 21.6823 11.7384 21.7497 11.997 21.7503C12.2556 21.7509 12.5099 21.6846 12.7353 21.5579C12.9607 21.4312 13.1495 21.2484 13.2834 21.0272L14.6747 18.75H20.25C20.6478 18.75 21.0294 18.592 21.3107 18.3107C21.592 18.0294 21.75 17.6478 21.75 17.25V5.25C21.75 4.85218 21.592 4.47064 21.3107 4.18934C21.0294 3.90804 20.6478 3.75 20.25 3.75ZM20.25 17.25H14.6747C14.4168 17.2505 14.1633 17.3173 13.9386 17.4439C13.7139 17.5704 13.5254 17.7526 13.3912 17.9728L12 20.25L10.6078 17.9719C10.4735 17.752 10.2852 17.5702 10.0606 17.4438C9.83612 17.3174 9.58295 17.2507 9.32531 17.25H3.75V5.25H20.25V17.25Z" fill="black"/>
</svg>
