<svg width="24" height="24" viewBox="0 0 24 24" fill="none" xmlns="http://www.w3.org/2000/svg">
<path d="M22.8073 6.39758L20.5573 4.18883C20.2762 3.90888 19.8956 3.75171 19.4988 3.75171C19.1021 3.75171 18.7215 3.90888 18.4404 4.18883L9.74977 12.7501L9.73946 12.7398L6.30446 9.43321C6.02264 9.15429 5.64184 8.99831 5.24533 8.99936C4.84882 9.00042 4.46886 9.15842 4.18852 9.43883L1.93852 11.6888C1.65772 11.9701 1.5 12.3512 1.5 12.7487C1.5 13.1461 1.65772 13.5273 1.93852 13.8085L8.6529 20.5585C8.79219 20.6978 8.95756 20.8084 9.13958 20.8838C9.32159 20.9592 9.51667 20.998 9.71368 20.998C9.91069 20.998 10.1058 20.9592 10.2878 20.8838C10.4698 20.8084 10.6352 20.6978 10.7745 20.5585L22.812 8.52289C22.9515 8.38322 23.0622 8.21737 23.1375 8.03485C23.2128 7.85232 23.2514 7.65672 23.251 7.45926C23.2505 7.2618 23.2111 7.06638 23.135 6.88419C23.0588 6.702 22.9475 6.53663 22.8073 6.39758ZM9.71415 19.5001L2.99977 12.7501L5.24977 10.5001L5.26009 10.5104L8.69509 13.817C8.97597 14.0952 9.35535 14.2513 9.75071 14.2513C10.1461 14.2513 10.5255 14.0952 10.8063 13.817L19.5054 5.25008L21.7498 7.46258L9.71415 19.5001Z" fill="black"/>
</svg>
