<svg width="24" height="24" viewBox="0 0 24 24" fill="none" xmlns="http://www.w3.org/2000/svg">
<path d="M20.9994 4.5V19.5C20.9994 19.8978 20.8414 20.2794 20.5601 20.5607C20.2788 20.842 19.8973 21 19.4994 21H12.7494C12.5505 21 12.3598 20.921 12.2191 20.7803C12.0785 20.6397 11.9994 20.4489 11.9994 20.25C11.9994 20.0511 12.0785 19.8603 12.2191 19.7197C12.3598 19.579 12.5505 19.5 12.7494 19.5H19.4994V4.5H4.49944V13.5C4.49944 13.6989 4.42042 13.8897 4.27977 14.0303C4.13912 14.171 3.94835 14.25 3.74944 14.25C3.55053 14.25 3.35976 14.171 3.21911 14.0303C3.07846 13.8897 2.99944 13.6989 2.99944 13.5V4.5C2.99944 4.10218 3.15748 3.72064 3.43878 3.43934C3.72008 3.15804 4.10162 3 4.49944 3H19.4994C19.8973 3 20.2788 3.15804 20.5601 3.43934C20.8414 3.72064 20.9994 4.10218 20.9994 4.5ZM11.7801 14.4694C11.7104 14.3996 11.6277 14.3443 11.5366 14.3066C11.4456 14.2688 11.348 14.2494 11.2494 14.2494C11.1509 14.2494 11.0533 14.2688 10.9622 14.3066C10.8712 14.3443 10.7885 14.3996 10.7188 14.4694L5.99944 19.1897L4.28007 17.4694C4.21038 17.3997 4.12766 17.3444 4.03661 17.3067C3.94557 17.269 3.84799 17.2496 3.74944 17.2496C3.65089 17.2496 3.55331 17.269 3.46227 17.3067C3.37122 17.3444 3.2885 17.3997 3.21882 17.4694C3.14913 17.5391 3.09386 17.6218 3.05615 17.7128C3.01843 17.8039 2.99902 17.9015 2.99902 18C2.99902 18.0985 3.01843 18.1961 3.05615 18.2872C3.09386 18.3782 3.14913 18.4609 3.21882 18.5306L5.46882 20.7806C5.53847 20.8504 5.62119 20.9057 5.71224 20.9434C5.80328 20.9812 5.90088 21.0006 5.99944 21.0006C6.098 21.0006 6.1956 20.9812 6.28665 20.9434C6.37769 20.9057 6.46041 20.8504 6.53007 20.7806L11.7801 15.5306C11.8498 15.461 11.9051 15.3783 11.9429 15.2872C11.9806 15.1962 12 15.0986 12 15C12 14.9014 11.9806 14.8038 11.9429 14.7128C11.9051 14.6217 11.8498 14.539 11.7801 14.4694Z" fill="black"/>
</svg>
