<svg width="24" height="24" viewBox="0 0 24 24" fill="none" xmlns="http://www.w3.org/2000/svg">
<path d="M21.5301 7.28055L9.53007 19.2806C9.46041 19.3503 9.37769 19.4056 9.28665 19.4433C9.1956 19.4811 9.098 19.5005 8.99944 19.5005C8.90088 19.5005 8.80328 19.4811 8.71224 19.4433C8.62119 19.4056 8.53847 19.3503 8.46881 19.2806L3.21882 14.0306C3.07808 13.8898 2.99902 13.699 2.99902 13.4999C2.99902 13.3009 3.07808 13.11 3.21882 12.9693C3.35955 12.8286 3.55042 12.7495 3.74944 12.7495C3.94846 12.7495 4.13933 12.8286 4.28007 12.9693L8.99944 17.6896L20.4688 6.2193C20.6095 6.07857 20.8004 5.99951 20.9994 5.99951C21.1985 5.99951 21.3893 6.07857 21.5301 6.2193C21.6708 6.36003 21.7499 6.55091 21.7499 6.74993C21.7499 6.94895 21.6708 7.13982 21.5301 7.28055Z" fill="black"/>
</svg>
