<svg width="24" height="24" viewBox="0 0 24 24" fill="none" xmlns="http://www.w3.org/2000/svg">
<path d="M18.8945 5.1055C17.066 3.277 14.586 2.24976 12.0001 2.24976C9.41423 2.24976 6.93425 3.277 5.10574 5.1055C3.27724 6.934 2.25 9.41398 2.25 11.9999C2.25 14.5858 3.27724 17.0657 5.10574 18.8942C6.93425 20.7227 9.41423 21.75 12.0001 21.75C14.586 21.75 17.066 20.7227 18.8945 18.8942C20.723 17.0657 21.7502 14.5858 21.7502 11.9999C21.7502 9.41398 20.723 6.934 18.8945 5.1055ZM17.2501 18.3627C16.7878 18.7449 16.2847 19.075 15.7501 19.3471V9.31019L17.2501 7.81019V18.3627ZM9.75012 15.3102L11.2501 13.8102V20.2114C10.7425 20.164 10.2404 20.0699 9.75012 19.9302V15.3102ZM8.25012 19.3471C7.70449 19.0692 7.19189 18.7309 6.72199 18.3383L8.25012 16.8102V19.3471ZM12.7501 12.3102L14.2501 10.8102V19.9339C13.7598 20.0736 13.2577 20.1678 12.7501 20.2152V12.3102ZM3.75012 11.9999C3.75054 10.4324 4.1975 8.89746 5.03868 7.5748C5.87986 6.25214 7.08043 5.19649 8.49984 4.53145C9.91925 3.8664 11.4987 3.61948 13.0534 3.8196C14.6081 4.01973 16.0735 4.6586 17.2782 5.66144L5.66074 17.2789C4.42165 15.7994 3.74498 13.9297 3.75012 11.9999ZM18.7501 16.7427V7.25706C19.726 8.64607 20.2497 10.3023 20.2497 11.9999C20.2497 13.6974 19.726 15.3537 18.7501 16.7427Z" fill="black"/>
</svg>
