<svg width="24" height="24" viewBox="0 0 24 24" fill="none" xmlns="http://www.w3.org/2000/svg">
<path d="M21.7503 12.812C21.5909 14.6645 20.9058 16.4329 19.7756 17.9092C18.6453 19.3856 17.1169 20.5084 15.3702 21.1456C13.6234 21.7828 11.7311 21.9079 9.91568 21.5061C8.10029 21.1043 6.43741 20.1924 5.12268 18.8777C3.80794 17.563 2.89605 15.9001 2.49428 14.0847C2.09252 12.2693 2.21759 10.3769 2.85479 8.6302C3.49199 6.88348 4.61481 5.35508 6.09114 4.22482C7.56748 3.09455 9.33591 2.40945 11.1884 2.25011C11.2869 2.24198 11.386 2.25333 11.4801 2.28352C11.5742 2.3137 11.6615 2.36213 11.7368 2.42602C11.8122 2.48992 11.8743 2.56804 11.9195 2.65593C11.9647 2.74381 11.9921 2.83974 12.0003 2.93823C12.0084 3.03672 11.997 3.13585 11.9669 3.22995C11.9367 3.32406 11.8882 3.41129 11.8243 3.48668C11.7604 3.56207 11.6823 3.62414 11.5944 3.66934C11.5066 3.71454 11.4106 3.74198 11.3121 3.75011C9.74425 3.88482 8.24745 4.46455 6.99786 5.42107C5.74827 6.3776 4.79788 7.67113 4.2585 9.14947C3.71913 10.6278 3.61321 12.2295 3.95322 13.766C4.29322 15.3024 5.065 16.7099 6.17775 17.8226C7.2905 18.9354 8.69792 19.7071 10.2344 20.0472C11.7709 20.3872 13.3726 20.2812 14.8509 19.7419C16.3292 19.2025 17.6228 18.2521 18.5793 17.0025C19.5358 15.7529 20.1155 14.2561 20.2503 12.6882C20.2667 12.4893 20.3614 12.3051 20.5137 12.176C20.6659 12.047 20.8632 11.9837 21.0621 12.0001C21.261 12.0165 21.4453 12.1113 21.5743 12.2635C21.7034 12.4158 21.7667 12.6131 21.7503 12.812ZM11.2503 6.75011V12.0001C11.2503 12.199 11.3293 12.3898 11.4699 12.5304C11.6106 12.6711 11.8013 12.7501 12.0003 12.7501H17.2503C17.4492 12.7501 17.6399 12.6711 17.7806 12.5304C17.9212 12.3898 18.0003 12.199 18.0003 12.0001C18.0003 11.8012 17.9212 11.6104 17.7806 11.4698C17.6399 11.3291 17.4492 11.2501 17.2503 11.2501H12.7503V6.75011C12.7503 6.55119 12.6712 6.36043 12.5306 6.21978C12.3899 6.07912 12.1992 6.00011 12.0003 6.00011C11.8013 6.00011 11.6106 6.07912 11.4699 6.21978C11.3293 6.36043 11.2503 6.55119 11.2503 6.75011ZM15.0003 4.50011C15.2228 4.50011 15.4403 4.43413 15.6253 4.31051C15.8103 4.18689 15.9545 4.01119 16.0396 3.80563C16.1248 3.60006 16.1471 3.37386 16.1036 3.15563C16.0602 2.9374 15.9531 2.73695 15.7958 2.57961C15.6384 2.42228 15.438 2.31513 15.2197 2.27172C15.0015 2.22831 14.7753 2.25059 14.5697 2.33574C14.3642 2.42089 14.1885 2.56508 14.0649 2.75009C13.9412 2.9351 13.8753 3.1526 13.8753 3.37511C13.8753 3.67348 13.9938 3.95962 14.2048 4.1706C14.4157 4.38158 14.7019 4.50011 15.0003 4.50011ZM18.3753 6.75011C18.5978 6.75011 18.8153 6.68413 19.0003 6.56051C19.1853 6.43689 19.3295 6.26119 19.4146 6.05563C19.4998 5.85006 19.5221 5.62386 19.4786 5.40563C19.4352 5.1874 19.3281 4.98695 19.1708 4.82961C19.0134 4.67228 18.813 4.56513 18.5947 4.52172C18.3765 4.47831 18.1503 4.50059 17.9447 4.58574C17.7392 4.67089 17.5635 4.81508 17.4399 5.00009C17.3162 5.1851 17.2503 5.4026 17.2503 5.62511C17.2503 5.92348 17.3688 6.20962 17.5798 6.4206C17.7907 6.63158 18.0769 6.75011 18.3753 6.75011ZM20.6253 10.1251C20.8478 10.1251 21.0653 10.0591 21.2503 9.93551C21.4353 9.81189 21.5795 9.63619 21.6646 9.43062C21.7498 9.22506 21.7721 8.99886 21.7286 8.78063C21.6852 8.5624 21.5781 8.36195 21.4208 8.20461C21.2634 8.04728 21.063 7.94013 20.8447 7.89672C20.6265 7.85331 20.4003 7.87559 20.1947 7.96074C19.9892 8.04589 19.8135 8.19008 19.6899 8.37509C19.5662 8.5601 19.5003 8.7776 19.5003 9.00011C19.5003 9.29847 19.6188 9.58462 19.8298 9.7956C20.0407 10.0066 20.3269 10.1251 20.6253 10.1251Z" fill="black"/>
</svg>
