<svg width="24" height="24" viewBox="0 0 24 24" fill="none" xmlns="http://www.w3.org/2000/svg">
<path d="M23.2494 12C23.2541 13.7861 22.6747 15.5248 21.5994 16.9509C21.5402 17.0297 21.4661 17.0961 21.3812 17.1462C21.2963 17.1964 21.2024 17.2293 21.1048 17.2431C21.0072 17.257 20.9079 17.2514 20.8124 17.2269C20.717 17.2023 20.6273 17.1592 20.5485 17.1C20.4697 17.0408 20.4033 16.9666 20.3532 16.8818C20.3031 16.7969 20.2701 16.703 20.2563 16.6054C20.2425 16.5078 20.248 16.4085 20.2725 16.313C20.2971 16.2175 20.3402 16.1279 20.3994 16.0491C21.2796 14.883 21.7537 13.4609 21.7494 12C21.7494 10.2098 21.0383 8.4929 19.7724 7.22703C18.5065 5.96115 16.7896 5.25 14.9994 5.25C13.2092 5.25 11.4923 5.96115 10.2265 7.22703C8.96058 8.4929 8.24943 10.2098 8.24942 12C8.24943 12.1989 8.17041 12.3897 8.02976 12.5303C7.8891 12.671 7.69834 12.75 7.49942 12.75C7.30051 12.75 7.10975 12.671 6.9691 12.5303C6.82844 12.3897 6.74942 12.1989 6.74942 12C6.74906 11.2431 6.85284 10.4898 7.05786 9.76125C6.95568 9.75 6.85255 9.75 6.74942 9.75C5.55595 9.75 4.41136 10.2241 3.56744 11.068C2.72353 11.9119 2.24943 13.0565 2.24943 14.25C2.24943 15.4435 2.72353 16.5881 3.56744 17.432C4.41136 18.2759 5.55595 18.75 6.74942 18.75H8.99942C9.19834 18.75 9.3891 18.829 9.52975 18.9697C9.67041 19.1103 9.74942 19.3011 9.74942 19.5C9.74942 19.6989 9.67041 19.8897 9.52975 20.0303C9.3891 20.171 9.19834 20.25 8.99942 20.25H6.74942C5.92459 20.2502 5.10857 20.0803 4.35234 19.751C3.59611 19.4216 2.91591 18.9399 2.35421 18.3359C1.79252 17.7318 1.3614 17.0185 1.08779 16.2403C0.814169 15.4622 0.703931 14.636 0.763956 13.8134C0.823981 12.9907 1.05298 12.1893 1.43665 11.4591C1.82032 10.7289 2.35042 10.0857 2.99385 9.56961C3.63727 9.05351 4.3802 8.67562 5.17623 8.45954C5.97226 8.24346 6.80429 8.19383 7.62036 8.31375C8.45136 6.65171 9.81912 5.31888 11.5021 4.53115C13.1851 3.74342 15.0847 3.54693 16.8933 3.9735C18.7019 4.40007 20.3135 5.42472 21.4671 6.88148C22.6207 8.33824 23.2487 10.1418 23.2494 12ZM14.7801 11.4694C14.7104 11.3996 14.6277 11.3443 14.5366 11.3066C14.4456 11.2688 14.348 11.2494 14.2494 11.2494C14.1509 11.2494 14.0533 11.2688 13.9622 11.3066C13.8712 11.3443 13.7885 11.3996 13.7188 11.4694L10.7188 14.4694C10.6491 14.5391 10.5938 14.6218 10.5561 14.7128C10.5184 14.8039 10.499 14.9015 10.499 15C10.499 15.0985 10.5184 15.1961 10.5561 15.2872C10.5938 15.3782 10.6491 15.4609 10.7188 15.5306C10.8595 15.6714 11.0504 15.7504 11.2494 15.7504C11.348 15.7504 11.4456 15.731 11.5366 15.6933C11.6276 15.6556 11.7104 15.6003 11.7801 15.5306L13.4994 13.8103V19.5C13.4994 19.6989 13.5784 19.8897 13.7191 20.0303C13.8597 20.171 14.0505 20.25 14.2494 20.25C14.4483 20.25 14.6391 20.171 14.7798 20.0303C14.9204 19.8897 14.9994 19.6989 14.9994 19.5V13.8103L16.7188 15.5306C16.7885 15.6003 16.8712 15.6556 16.9623 15.6933C17.0533 15.731 17.1509 15.7504 17.2494 15.7504C17.348 15.7504 17.4456 15.731 17.5366 15.6933C17.6276 15.6556 17.7104 15.6003 17.7801 15.5306C17.8497 15.4609 17.905 15.3782 17.9427 15.2872C17.9804 15.1961 17.9998 15.0985 17.9998 15C17.9998 14.9015 17.9804 14.8039 17.9427 14.7128C17.905 14.6218 17.8497 14.5391 17.7801 14.4694L14.7801 11.4694Z" fill="black"/>
</svg>
