<svg width="24" height="24" viewBox="0 0 24 24" fill="none" xmlns="http://www.w3.org/2000/svg">
<path d="M11.25 18.7499H6.75C6.55109 18.7499 6.36032 18.6709 6.21967 18.5302C6.07902 18.3896 6 18.1988 6 17.9999C6 17.801 6.07902 17.6102 6.21967 17.4696C6.36032 17.3289 6.55109 17.2499 6.75 17.2499H11.25C11.4489 17.2499 11.6397 17.3289 11.7803 17.4696C11.921 17.6102 12 17.801 12 17.9999C12 18.1988 11.921 18.3896 11.7803 18.5302C11.6397 18.6709 11.4489 18.7499 11.25 18.7499ZM17.25 17.2499H15C14.8011 17.2499 14.6103 17.3289 14.4697 17.4696C14.329 17.6102 14.25 17.801 14.25 17.9999C14.25 18.1988 14.329 18.3896 14.4697 18.5302C14.6103 18.6709 14.8011 18.7499 15 18.7499H17.25C17.4489 18.7499 17.6397 18.6709 17.7803 18.5302C17.921 18.3896 18 18.1988 18 17.9999C18 17.801 17.921 17.6102 17.7803 17.4696C17.6397 17.3289 17.4489 17.2499 17.25 17.2499ZM15 20.2499H9.75C9.55109 20.2499 9.36032 20.3289 9.21967 20.4696C9.07902 20.6102 9 20.801 9 20.9999C9 21.1988 9.07902 21.3896 9.21967 21.5302C9.36032 21.6709 9.55109 21.7499 9.75 21.7499H15C15.1989 21.7499 15.3897 21.6709 15.5303 21.5302C15.671 21.3896 15.75 21.1988 15.75 20.9999C15.75 20.801 15.671 20.6102 15.5303 20.4696C15.3897 20.3289 15.1989 20.2499 15 20.2499ZM21.75 8.6249C21.748 10.514 20.9967 12.3251 19.6609 13.6608C18.3252 14.9966 16.5141 15.7479 14.625 15.7499H7.125C5.83207 15.7499 4.59209 15.2363 3.67785 14.322C2.76361 13.4078 2.25 12.1678 2.25 10.8749C2.25 9.58197 2.76361 8.342 3.67785 7.42776C4.59209 6.51352 5.83207 5.9999 7.125 5.9999C7.40526 6.00014 7.68499 6.02398 7.96125 6.07115C8.55939 4.5175 9.68217 3.22202 11.1351 2.40918C12.588 1.59633 14.2794 1.31732 15.9164 1.6205C17.5534 1.92368 19.0327 2.78993 20.0982 4.06919C21.1636 5.34844 21.7479 6.96009 21.75 8.6249ZM20.25 8.6249C20.244 7.16433 19.6707 5.76324 18.6511 4.71743C17.6315 3.67162 16.2454 3.06293 14.7855 3.01986C13.3255 2.97679 11.9059 3.50272 10.8265 4.48661C9.747 5.4705 9.09209 6.83535 9 8.29303C8.99434 8.39152 8.96933 8.48793 8.92641 8.57676C8.88348 8.66559 8.82348 8.74509 8.74984 8.81073C8.6011 8.94329 8.40579 9.01134 8.20687 8.9999C8.00796 8.98847 7.82174 8.89848 7.68918 8.74974C7.55661 8.601 7.48856 8.40569 7.5 8.20678C7.51312 7.97803 7.53719 7.75209 7.57219 7.52897C7.42388 7.50993 7.27452 7.50022 7.125 7.4999C6.22989 7.4999 5.37145 7.85548 4.73851 8.48842C4.10558 9.12135 3.75 9.9798 3.75 10.8749C3.75 11.77 4.10558 12.6285 4.73851 13.2614C5.37145 13.8943 6.22989 14.2499 7.125 14.2499H14.625C16.1163 14.2482 17.546 13.655 18.6006 12.6005C19.6551 11.5459 20.2483 10.1162 20.25 8.6249Z" fill="black"/>
</svg>
