<svg width="24" height="24" viewBox="0 0 24 24" fill="none" xmlns="http://www.w3.org/2000/svg">
<path d="M14.6253 6.74995C13.9836 6.74956 13.3447 6.83565 12.7259 7.00589C12.4817 6.60736 12.185 6.24347 11.8438 5.92401L12.7353 4.65182C12.7918 4.57112 12.8319 4.48008 12.8532 4.3839C12.8745 4.28771 12.8767 4.18827 12.8596 4.09125C12.8425 3.99423 12.8064 3.90152 12.7535 3.81843C12.7006 3.73534 12.6318 3.66349 12.5511 3.60698C12.4704 3.55047 12.3794 3.51041 12.2832 3.48909C12.187 3.46776 12.0875 3.46559 11.9905 3.4827C11.8935 3.4998 11.8008 3.53585 11.7177 3.58878C11.6346 3.64172 11.5628 3.7105 11.5063 3.7912L10.6147 5.06245C9.88153 4.69227 9.07163 4.49959 8.25031 4.49995C8.19594 4.49995 8.14156 4.49995 8.08719 4.49995L7.81625 2.97276C7.80203 2.87325 7.76795 2.77761 7.71604 2.69154C7.66413 2.60546 7.59544 2.53069 7.51406 2.47168C7.43269 2.41267 7.34028 2.37063 7.24233 2.34804C7.14437 2.32545 7.04288 2.32278 6.94388 2.34019C6.84488 2.35761 6.75039 2.39474 6.66602 2.44939C6.58166 2.50405 6.50914 2.5751 6.45278 2.65833C6.39642 2.74157 6.35736 2.83528 6.33793 2.93391C6.31851 3.03253 6.3191 3.13406 6.33969 3.23245L6.60969 4.76432C5.77789 5.03944 5.02801 5.51799 4.42812 6.15651L3.15125 5.26307C3.07061 5.20518 2.97928 5.16386 2.88256 5.14153C2.78583 5.11919 2.68564 5.11628 2.58778 5.13297C2.48992 5.14965 2.39635 5.18559 2.31248 5.23871C2.22862 5.29184 2.15614 5.36108 2.09924 5.44242C2.04234 5.52377 2.00216 5.6156 1.98102 5.71259C1.95988 5.80959 1.95821 5.90981 1.9761 6.00746C1.99399 6.1051 2.03109 6.19823 2.08524 6.28142C2.13939 6.36462 2.20952 6.43625 2.29156 6.49214L3.56281 7.38464C3.19132 8.11765 2.99857 8.92817 3.00031 9.74995C3.00031 9.80339 3.00031 9.85776 3.00031 9.9112L1.47312 10.1812C1.28827 10.2136 1.12228 10.3141 1.00791 10.4629C0.893543 10.6117 0.839109 10.7979 0.855357 10.9849C0.871604 11.1718 0.957351 11.3459 1.09567 11.4727C1.23399 11.5996 1.41483 11.6699 1.6025 11.6699C1.64618 11.6699 1.68977 11.6661 1.73281 11.6587L3.26281 11.3887C3.39724 11.798 3.58177 12.1891 3.81219 12.5531C3.0948 13.2194 2.59469 14.0863 2.37697 15.0409C2.15925 15.9955 2.23402 16.9935 2.59154 17.905C2.94905 18.8165 3.57275 19.5993 4.38141 20.1513C5.19007 20.7033 6.14621 20.999 7.12531 20.9999H14.6253C16.515 20.9999 18.3273 20.2493 19.6634 18.9131C20.9996 17.5769 21.7503 15.7646 21.7503 13.8749C21.7503 11.9853 20.9996 10.173 19.6634 8.83681C18.3273 7.50062 16.515 6.74995 14.6253 6.74995ZM4.50031 9.74995C4.50076 8.95575 4.75335 8.1822 5.22167 7.54078C5.68999 6.89935 6.34986 6.42317 7.10619 6.18087C7.86252 5.93856 8.67625 5.94263 9.43012 6.19249C10.184 6.44236 10.8391 6.92512 11.3009 7.5712C9.77102 8.37633 8.58467 9.70856 7.96156 11.3212C6.97563 11.151 5.96122 11.2875 5.05531 11.7121C4.69262 11.1219 4.50051 10.4427 4.50031 9.74995ZM14.6253 19.4999H7.12531C6.66371 19.4991 6.20719 19.4036 5.78398 19.2193C5.36076 19.035 4.97986 18.7658 4.66481 18.4284C4.34976 18.091 4.10727 17.6926 3.95233 17.2578C3.79739 16.823 3.73329 16.361 3.764 15.9004C3.79471 15.4398 3.91957 14.9905 4.13087 14.5801C4.34217 14.1697 4.63541 13.807 4.99246 13.5144C5.34951 13.2218 5.76278 13.0056 6.20671 12.8791C6.65065 12.7526 7.11581 12.7186 7.57344 12.779C7.53875 13.0012 7.51438 13.2281 7.50125 13.4568C7.49559 13.5553 7.50938 13.654 7.54184 13.7471C7.5743 13.8403 7.62479 13.9261 7.69043 13.9998C7.75607 14.0734 7.83557 14.1334 7.9244 14.1764C8.01322 14.2193 8.10963 14.2443 8.20813 14.2499C8.30662 14.2556 8.40526 14.2418 8.49842 14.2094C8.59158 14.1769 8.67744 14.1264 8.75109 14.0608C8.82474 13.9951 8.88473 13.9156 8.92766 13.8268C8.97058 13.738 8.99559 13.6416 9.00125 13.5431C9.02229 13.169 9.08135 12.798 9.1775 12.4359C9.1775 12.4209 9.18594 12.4059 9.18875 12.3909C9.46441 11.3779 10.0178 10.4621 10.7864 9.74697C11.5551 9.03184 12.5083 8.54586 13.5386 8.34388C14.5688 8.14191 15.635 8.23199 16.6168 8.60396C17.5985 8.97593 18.4567 9.61496 19.0945 10.4489C19.7322 11.2829 20.1241 12.2785 20.2259 13.3234C20.3277 14.3683 20.1353 15.4209 19.6705 16.3622C19.2057 17.3036 18.487 18.0962 17.5954 18.6507C16.7039 19.2051 15.6752 19.4993 14.6253 19.4999Z" fill="black"/>
</svg>
