<svg width="24" height="24" viewBox="0 0 24 24" fill="none" xmlns="http://www.w3.org/2000/svg">
<path d="M15.3748 6.75007C14.9867 6.74989 14.5992 6.78124 14.2161 6.84382C14.0798 5.43603 13.5044 4.10672 12.5712 3.04393C11.6379 1.98115 10.3941 1.23871 9.01577 0.92163C8.89199 0.893191 8.763 0.896655 8.64092 0.931699C8.51883 0.966742 8.40765 1.03222 8.31779 1.12198C8.22793 1.21175 8.16234 1.32286 8.12717 1.44491C8.092 1.56696 8.0884 1.69594 8.11671 1.81975C8.20524 2.20695 8.24989 2.60288 8.24984 3.00007C8.24835 4.392 7.69475 5.72649 6.7105 6.71073C5.72626 7.69498 4.39177 8.24858 2.99984 8.25007C2.60265 8.25013 2.20672 8.20547 1.81952 8.11694C1.69564 8.08844 1.56655 8.0919 1.44436 8.12698C1.32218 8.16207 1.21092 8.22763 1.12104 8.31752C1.03115 8.40741 0.965585 8.51866 0.9305 8.64085C0.895414 8.76303 0.89196 8.89212 0.920461 9.016C1.12195 9.88482 1.4931 10.7053 2.0126 11.4302C2.53209 12.1552 3.1897 12.7703 3.94765 13.2404C3.41459 13.9666 3.09317 14.8263 3.01908 15.7241C2.94498 16.6219 3.1211 17.5227 3.52789 18.3264C3.93468 19.1302 4.55624 19.8056 5.32356 20.2775C6.09089 20.7495 6.97399 20.9996 7.87484 21.0001H15.3748C17.2645 21.0001 19.0768 20.2494 20.413 18.9132C21.7492 17.577 22.4998 15.7647 22.4998 13.8751C22.4998 11.9854 21.7492 10.1731 20.413 8.83693C19.0768 7.50074 17.2645 6.75007 15.3748 6.75007ZM2.75327 9.75007C2.83484 9.75007 2.91734 9.75007 2.99984 9.75007C4.78944 9.74808 6.50517 9.03629 7.77061 7.77085C9.03605 6.5054 9.74785 4.78967 9.74984 3.00007C9.74984 2.91663 9.74984 2.83319 9.74984 2.74975C10.6135 3.15391 11.3498 3.78711 11.8787 4.5805C12.4077 5.37388 12.7089 6.2971 12.7498 7.24975C11.8338 7.61353 11.0028 8.16274 10.3091 8.86291C9.61535 9.56309 9.07386 10.3991 8.71859 11.3185C8.08449 11.2088 7.43494 11.2257 6.80741 11.3683C6.17988 11.5108 5.58679 11.7762 5.06234 12.1491C4.05363 11.62 3.2435 10.7783 2.75327 9.75007ZM15.3748 19.5001H7.87484C7.41323 19.4992 6.95671 19.4037 6.5335 19.2194C6.11029 19.0351 5.72938 18.7659 5.41433 18.4285C5.09929 18.0912 4.85679 17.6927 4.70185 17.2579C4.54691 16.8231 4.48281 16.3611 4.51352 15.9005C4.54423 15.44 4.6691 14.9906 4.88039 14.5802C5.09169 14.1698 5.38493 13.8071 5.74198 13.5145C6.09903 13.2219 6.5123 13.0057 6.95623 12.8793C7.40017 12.7528 7.86533 12.7187 8.32296 12.7791C8.28827 13.0013 8.2639 13.2282 8.25077 13.4569C8.23934 13.6559 8.30739 13.8512 8.43995 13.9999C8.57252 14.1486 8.75874 14.2386 8.95765 14.2501C9.15656 14.2615 9.35187 14.1935 9.50061 14.0609C9.64935 13.9283 9.73934 13.7421 9.75077 13.5432C9.77182 13.1691 9.83087 12.7981 9.92702 12.436C9.92702 12.421 9.93546 12.406 9.93827 12.391C10.2139 11.378 10.7673 10.4622 11.536 9.74709C12.3046 9.03196 13.2579 8.54597 14.2881 8.344C15.3183 8.14202 16.3845 8.23211 17.3663 8.60408C18.348 8.97604 19.2062 9.61508 19.844 10.449C20.4818 11.283 20.8736 12.2786 20.9754 13.3235C21.0772 14.3684 20.8848 15.421 20.42 16.3624C19.9552 17.3037 19.2365 18.0964 18.345 18.6508C17.4535 19.2053 16.4247 19.4994 15.3748 19.5001Z" fill="black"/>
</svg>
