<svg width="24" height="24" viewBox="0 0 24 24" fill="none" xmlns="http://www.w3.org/2000/svg">
<path d="M17.2494 8.25009C17.1763 8.25009 17.1032 8.25009 17.031 8.25009C17.2643 7.46655 17.3115 6.63933 17.1687 5.83435C17.0259 5.02936 16.697 4.26885 16.2083 3.61341C15.7197 2.95798 15.0847 2.42572 14.3539 2.05906C13.6232 1.6924 12.817 1.50146 11.9994 1.50146C11.1818 1.50146 10.3756 1.6924 9.64486 2.05906C8.91413 2.42572 8.27914 2.95798 7.79047 3.61341C7.30179 4.26885 6.97295 5.02936 6.83013 5.83435C6.68731 6.63933 6.73447 7.46655 6.96784 8.25009C6.89471 8.25009 6.82253 8.25009 6.7494 8.25009C5.95985 8.25047 5.18056 8.42894 4.46953 8.77219C3.7585 9.11544 3.13404 9.61465 2.64265 10.2327C2.15126 10.8506 1.80559 11.5715 1.63136 12.3416C1.45714 13.1117 1.45885 13.9112 1.63637 14.6805C1.8139 15.4498 2.16266 16.1692 2.65669 16.7851C3.15072 17.401 3.77731 17.8975 4.4898 18.2377C5.2023 18.5779 5.98235 18.753 6.77189 18.7501C7.56144 18.7471 8.34014 18.566 9.05003 18.2204L8.28128 20.7845C8.24766 20.8964 8.2407 21.0147 8.26093 21.1299C8.28116 21.245 8.32803 21.3538 8.39779 21.4477C8.46756 21.5415 8.55829 21.6177 8.66275 21.6702C8.76721 21.7227 8.88249 21.7501 8.9994 21.7501H14.9994C15.1163 21.7501 15.2316 21.7227 15.3361 21.6702C15.4405 21.6177 15.5312 21.5415 15.601 21.4477C15.6708 21.3538 15.7176 21.245 15.7379 21.1299C15.7581 21.0147 15.7511 20.8964 15.7175 20.7845L14.9488 18.2204C15.6587 18.566 16.4374 18.7471 17.2269 18.7501C18.0165 18.753 18.7965 18.5779 19.509 18.2377C20.2215 17.8975 20.8481 17.401 21.3421 16.7851C21.8361 16.1692 22.1849 15.4498 22.3624 14.6805C22.54 13.9112 22.5417 13.1117 22.3674 12.3416C22.1932 11.5715 21.8475 10.8506 21.3562 10.2327C20.8648 9.61465 20.2403 9.11544 19.5293 8.77219C18.8182 8.42894 18.039 8.25047 17.2494 8.25009ZM17.2494 17.2501C16.6286 17.25 16.0175 17.0958 15.471 16.8012C14.9244 16.5067 14.4596 16.0811 14.1182 15.5626C14.0187 15.413 13.8688 15.3041 13.6959 15.2556C13.5229 15.2072 13.3382 15.2224 13.1755 15.2986C13.0128 15.3748 12.8829 15.5068 12.8093 15.6707C12.7358 15.8346 12.7235 16.0195 12.7747 16.1917L13.9935 20.2473H10.0091L11.2278 16.1917C11.2823 16.0183 11.2719 15.831 11.1986 15.6647C11.1254 15.4984 10.9943 15.3643 10.8296 15.2874C10.6649 15.2106 10.478 15.1961 10.3034 15.2467C10.1289 15.2973 9.97864 15.4095 9.88065 15.5626C9.49314 16.1495 8.9484 16.6156 8.30862 16.9077C7.66883 17.1998 6.95981 17.3061 6.2625 17.2144C5.5652 17.1228 4.90772 16.8369 4.36516 16.3894C3.82259 15.9419 3.4168 15.3508 3.19413 14.6837C2.97146 14.0166 2.94088 13.3003 3.10588 12.6166C3.27089 11.9329 3.62483 11.3094 4.12728 10.8173C4.62974 10.3252 5.26045 9.98432 5.94741 9.83356C6.63436 9.68281 7.34987 9.72828 8.01221 9.96478C8.16095 10.018 8.32268 10.0228 8.47434 9.97867C8.626 9.93452 8.75985 9.84361 8.8568 9.71891C8.95376 9.59421 9.00887 9.44208 9.01427 9.28422C9.01968 9.12636 8.9751 8.97082 8.8869 8.83978C8.50767 8.27544 8.289 7.61862 8.25429 6.93958C8.21958 6.26055 8.37015 5.58485 8.68987 4.98479C9.00959 4.38473 9.48644 3.88289 10.0694 3.53296C10.6524 3.18302 11.3195 2.99817 11.9994 2.99817C12.6793 2.99817 13.3465 3.18302 13.9294 3.53296C14.5124 3.88289 14.9892 4.38473 15.3089 4.98479C15.6287 5.58485 15.7792 6.26055 15.7445 6.93958C15.7098 7.61862 15.4911 8.27544 15.1119 8.83978C15.0237 8.97082 14.9791 9.12636 14.9845 9.28422C14.9899 9.44208 15.045 9.59421 15.142 9.71891C15.239 9.84361 15.3728 9.93452 15.5245 9.97867C15.6761 10.0228 15.8379 10.018 15.9866 9.96478C16.501 9.78282 17.0489 9.7153 17.5921 9.76695C18.1353 9.81859 18.6607 9.98815 19.1316 10.2638C19.6025 10.5394 20.0075 10.9145 20.3185 11.3629C20.6295 11.8112 20.8389 12.322 20.9321 12.8596C21.0253 13.3973 21 13.9488 20.8581 14.4756C20.7161 15.0025 20.4609 15.492 20.1103 15.91C19.7596 16.3281 19.322 16.6646 18.8278 16.896C18.3337 17.1275 17.795 17.2483 17.2494 17.2501Z" fill="black"/>
</svg>
