<svg width="24" height="24" viewBox="0 0 24 24" fill="none" xmlns="http://www.w3.org/2000/svg">
<path d="M8.74841 6.56245L2.6256 12L8.74466 17.4375C8.81853 17.5028 8.8788 17.5821 8.92203 17.6708C8.96526 17.7594 8.9906 17.8558 8.9966 17.9542C9.00261 18.0527 8.98917 18.1513 8.95704 18.2446C8.92491 18.3379 8.87472 18.4239 8.80935 18.4978C8.74398 18.5716 8.66469 18.6319 8.57603 18.6751C8.48736 18.7184 8.39105 18.7437 8.29259 18.7497C8.19413 18.7557 8.09546 18.7423 8.00219 18.7101C7.90893 18.678 7.82291 18.6278 7.74904 18.5625L0.999039 12.5625C0.919234 12.4921 0.855319 12.4055 0.811539 12.3085C0.767759 12.2115 0.745117 12.1064 0.745117 12C0.745117 11.8935 0.767759 11.7884 0.811539 11.6914C0.855319 11.5944 0.919234 11.5078 0.999039 11.4375L7.74904 5.43745C7.82291 5.37183 7.90898 5.3214 8.00233 5.28905C8.09569 5.25669 8.19451 5.24304 8.29314 5.24887C8.39177 5.2547 8.48829 5.27991 8.57719 5.32304C8.66608 5.36617 8.74561 5.42639 8.81123 5.50026C8.87685 5.57413 8.92727 5.6602 8.95963 5.75356C8.99199 5.84692 9.00564 5.94573 8.99981 6.04437C8.99397 6.143 8.96877 6.23952 8.92564 6.32841C8.8825 6.4173 8.82228 6.49683 8.74841 6.56245ZM22.9984 11.4375L16.2484 5.43745C16.0992 5.30542 15.9037 5.23807 15.7049 5.2502C15.506 5.26233 15.3201 5.35295 15.1881 5.50214C15.0561 5.65132 14.9887 5.84684 15.0008 6.04569C15.013 6.24454 15.1036 6.43042 15.2528 6.56245L21.3756 12L15.2565 17.4375C15.1827 17.5028 15.1224 17.5821 15.0792 17.6708C15.0359 17.7594 15.0106 17.8558 15.0046 17.9542C14.9986 18.0527 15.012 18.1513 15.0442 18.2446C15.0763 18.3379 15.1265 18.4239 15.1919 18.4978C15.2572 18.5716 15.3365 18.6319 15.4252 18.6751C15.5138 18.7184 15.6102 18.7437 15.7086 18.7497C15.8071 18.7557 15.9057 18.7423 15.999 18.7101C16.0923 18.678 16.1783 18.6278 16.2522 18.5625L23.0022 12.5625C23.082 12.4921 23.1459 12.4055 23.1897 12.3085C23.2334 12.2115 23.2561 12.1064 23.2561 12C23.2561 11.8935 23.2334 11.7884 23.1897 11.6914C23.1459 11.5944 23.082 11.5078 23.0022 11.4375H22.9984Z" fill="black"/>
</svg>
