<svg width="24" height="24" viewBox="0 0 24 24" fill="none" xmlns="http://www.w3.org/2000/svg">
<path d="M20.167 11.5912C20.2153 11.5033 20.2454 11.4065 20.2557 11.3067C20.2659 11.2068 20.256 11.106 20.2265 11.01C20.197 10.9141 20.1486 10.8251 20.0841 10.7482C20.0196 10.6713 19.9403 10.6081 19.851 10.5625C19.7616 10.5168 19.664 10.4895 19.5639 10.4822C19.4638 10.4749 19.3633 10.4878 19.2682 10.5201C19.1732 10.5524 19.0856 10.6035 19.0107 10.6702C18.9358 10.737 18.875 10.8181 18.832 10.9088C18.1386 12.2445 17.0576 13.3392 15.7307 14.0494L14.1763 10.5506C14.7704 10.1264 15.2278 9.53808 15.4923 8.85772C15.7568 8.17736 15.817 7.43459 15.6656 6.72051C15.5141 6.00643 15.1574 5.35209 14.6394 4.83775C14.1215 4.32341 13.4646 3.97144 12.7495 3.825V2.25C12.7495 2.05109 12.6705 1.86032 12.5298 1.71967C12.3892 1.57902 12.1984 1.5 11.9995 1.5C11.8006 1.5 11.6098 1.57902 11.4691 1.71967C11.3285 1.86032 11.2495 2.05109 11.2495 2.25V3.825C10.5343 3.97144 9.87749 4.32341 9.3595 4.83775C8.8415 5.35209 8.48489 6.00643 8.33339 6.72051C8.1819 7.43459 8.24211 8.17736 8.50664 8.85772C8.77117 9.53808 9.22852 10.1264 9.8226 10.5506L5.31416 20.6953C5.27361 20.7854 5.25125 20.8826 5.24837 20.9813C5.24549 21.0801 5.26214 21.1784 5.29738 21.2707C5.33261 21.363 5.38573 21.4474 5.45368 21.5191C5.52164 21.5908 5.60309 21.6484 5.69336 21.6885C5.78362 21.7287 5.88093 21.7506 5.97969 21.753C6.07844 21.7554 6.17671 21.7383 6.26883 21.7026C6.36095 21.667 6.44512 21.6134 6.5165 21.5451C6.58789 21.4769 6.64507 21.3951 6.68478 21.3047L9.04166 16.0022C9.99258 16.3333 10.9926 16.5016 11.9995 16.5C13.0069 16.4988 14.0075 16.3339 14.962 16.0116L17.3142 21.3047C17.3956 21.4855 17.5453 21.6267 17.7305 21.6975C17.9158 21.7682 18.1215 21.7627 18.3027 21.6821C18.4839 21.6016 18.6259 21.4525 18.6975 21.2676C18.7691 21.0826 18.7645 20.8769 18.6848 20.6953L16.341 15.4219C17.98 14.5689 19.316 13.2312 20.167 11.5912ZM11.9995 5.25C12.4445 5.25 12.8795 5.38196 13.2495 5.62919C13.6195 5.87643 13.9079 6.22783 14.0782 6.63896C14.2485 7.0501 14.2931 7.5025 14.2062 7.93895C14.1194 8.37541 13.9051 8.77632 13.5905 9.09099C13.2758 9.40566 12.8749 9.61995 12.4384 9.70677C12.002 9.79358 11.5496 9.74903 11.1384 9.57873C10.7273 9.40843 10.3759 9.12004 10.1287 8.75003C9.88143 8.38002 9.74947 7.94501 9.74947 7.5C9.74947 6.90326 9.98652 6.33097 10.4085 5.90901C10.8304 5.48705 11.4027 5.25 11.9995 5.25ZM11.9995 15C11.2032 15.001 10.4119 14.8744 9.65572 14.625L11.1951 11.1619C11.7262 11.2794 12.2765 11.2794 12.8076 11.1619L14.3526 14.6362C13.5915 14.8772 12.7978 14.9999 11.9995 15Z" fill="black"/>
</svg>
