<svg width="24" height="24" viewBox="0 0 24 24" fill="none" xmlns="http://www.w3.org/2000/svg">
<path d="M19.2801 11.7807C19.2104 11.8505 19.1277 11.9058 19.0366 11.9435C18.9456 11.9813 18.848 12.0007 18.7494 12.0007C18.6509 12.0007 18.5533 11.9813 18.4622 11.9435C18.3712 11.9058 18.2885 11.8505 18.2188 11.7807L11.9994 5.56041L5.78007 11.7807C5.63933 11.9215 5.44846 12.0005 5.24944 12.0005C5.05042 12.0005 4.85955 11.9215 4.71882 11.7807C4.57808 11.64 4.49902 11.4491 4.49902 11.2501C4.49902 11.0511 4.57808 10.8602 4.71882 10.7195L11.4688 3.96948C11.5385 3.89974 11.6212 3.84443 11.7122 3.80668C11.8033 3.76894 11.9009 3.74951 11.9994 3.74951C12.098 3.74951 12.1956 3.76894 12.2866 3.80668C12.3777 3.84443 12.4604 3.89974 12.5301 3.96948L19.2801 10.7195C19.3498 10.7891 19.4051 10.8718 19.4429 10.9629C19.4806 11.0539 19.5 11.1515 19.5 11.2501C19.5 11.3487 19.4806 11.4463 19.4429 11.5373C19.4051 11.6284 19.3498 11.7111 19.2801 11.7807Z" fill="black"/>
</svg>
