<svg width="24" height="24" viewBox="0 0 24 24" fill="none" xmlns="http://www.w3.org/2000/svg">
<path d="M18.75 6.75H15V3C15 2.60218 14.842 2.22064 14.5607 1.93934C14.2794 1.65804 13.8978 1.5 13.5 1.5H10.5C10.1022 1.5 9.72064 1.65804 9.43934 1.93934C9.15804 2.22064 9 2.60218 9 3V6.75H5.25C4.85218 6.75 4.47064 6.90804 4.18934 7.18934C3.90804 7.47064 3.75 7.85218 3.75 8.25V11.25C3.75 11.6478 3.90804 12.0294 4.18934 12.3107C4.47064 12.592 4.85218 12.75 5.25 12.75H9V21C9 21.3978 9.15804 21.7794 9.43934 22.0607C9.72064 22.342 10.1022 22.5 10.5 22.5H13.5C13.8978 22.5 14.2794 22.342 14.5607 22.0607C14.842 21.7794 15 21.3978 15 21V12.75H18.75C19.1478 12.75 19.5294 12.592 19.8107 12.3107C20.092 12.0294 20.25 11.6478 20.25 11.25V8.25C20.25 7.85218 20.092 7.47064 19.8107 7.18934C19.5294 6.90804 19.1478 6.75 18.75 6.75ZM18.75 11.25H15C14.6022 11.25 14.2206 11.408 13.9393 11.6893C13.658 11.9706 13.5 12.3522 13.5 12.75V21H10.5V12.75C10.5 12.3522 10.342 11.9706 10.0607 11.6893C9.77936 11.408 9.39782 11.25 9 11.25H5.25V8.25H9C9.39782 8.25 9.77936 8.09196 10.0607 7.81066C10.342 7.52936 10.5 7.14782 10.5 6.75V3H13.5V6.75C13.5 7.14782 13.658 7.52936 13.9393 7.81066C14.2206 8.09196 14.6022 8.25 15 8.25H18.75V11.25Z" fill="black"/>
</svg>
