<svg width="24" height="24" viewBox="0 0 24 24" fill="none" xmlns="http://www.w3.org/2000/svg">
<path d="M22.8598 7.14291C22.6906 6.99539 22.4813 6.90148 22.2587 6.8731C22.036 6.84472 21.8099 6.88316 21.6091 6.98353L16.9019 9.32728L12.9719 2.79947C12.8709 2.63196 12.7283 2.4934 12.558 2.39721C12.3877 2.30103 12.1954 2.25049 11.9998 2.25049C11.8041 2.25049 11.6118 2.30103 11.4415 2.39721C11.2712 2.4934 11.1286 2.63196 11.0276 2.79947L7.09756 9.33009L2.39225 6.98634C2.19195 6.88686 1.96672 6.84876 1.74484 6.87682C1.52296 6.90488 1.31431 6.99784 1.14507 7.14405C0.975832 7.29025 0.853545 7.48319 0.793556 7.69864C0.733568 7.91409 0.73855 8.14246 0.807877 8.35509L4.27663 18.9826C4.3115 19.0894 4.36991 19.1869 4.44755 19.2681C4.52518 19.3493 4.62005 19.412 4.72516 19.4516C4.83027 19.4912 4.94292 19.5066 5.05482 19.4969C5.16671 19.4871 5.27498 19.4523 5.37163 19.3951C5.39506 19.381 7.79225 18.0001 11.9998 18.0001C16.2073 18.0001 18.6044 19.381 18.626 19.3942C18.7227 19.4519 18.8311 19.4872 18.9433 19.4973C19.0555 19.5074 19.1685 19.4921 19.274 19.4526C19.3794 19.4131 19.4746 19.3503 19.5525 19.2689C19.6304 19.1875 19.6889 19.0897 19.7238 18.9826L23.1926 8.3579C23.2639 8.14522 23.2703 7.91612 23.2111 7.69976C23.1518 7.4834 23.0295 7.28956 22.8598 7.14291ZM18.5623 17.7029C17.4373 17.2257 15.1948 16.5001 11.9998 16.5001C8.80475 16.5001 6.56225 17.2257 5.43725 17.7029L2.50381 8.71884L6.72913 10.8254C6.98488 10.9515 7.2786 10.9773 7.55242 10.8977C7.82623 10.818 8.0603 10.6387 8.2085 10.3951L11.9998 4.09322L15.791 10.3932C15.9393 10.6364 16.1732 10.8154 16.4468 10.8951C16.7203 10.9747 17.0137 10.9492 17.2694 10.8235L21.4957 8.71884L18.5623 17.7029ZM16.4876 14.7029C16.457 14.8764 16.3662 15.0336 16.2313 15.1469C16.0964 15.2602 15.9259 15.3224 15.7498 15.3226C15.7058 15.3225 15.6619 15.3188 15.6185 15.3113C13.2229 14.9001 10.7747 14.9001 8.37913 15.3113C8.1832 15.3459 7.98157 15.3012 7.81858 15.1871C7.6556 15.073 7.54463 14.8988 7.51007 14.7029C7.4755 14.507 7.52019 14.3053 7.63429 14.1424C7.7484 13.9794 7.92257 13.8684 8.1185 13.8338C10.6866 13.3926 13.3111 13.3926 15.8791 13.8338C16.0747 13.8682 16.2486 13.9786 16.3629 14.141C16.4771 14.3034 16.5223 14.5045 16.4885 14.7001L16.4876 14.7029Z" fill="black"/>
</svg>
