<svg width="24" height="24" viewBox="0 0 24 24" fill="none" xmlns="http://www.w3.org/2000/svg">
<path d="M18 14.7591V9.24094C18.0005 9.02802 17.9451 8.81871 17.8395 8.63383C17.7339 8.44895 17.5818 8.29495 17.3981 8.18719L12.585 5.4075C12.4071 5.30481 12.2054 5.25075 12 5.25075C11.7946 5.25075 11.5929 5.30481 11.415 5.4075L6.60281 8.18719C6.41901 8.29484 6.26663 8.44878 6.16087 8.63366C6.0551 8.81855 5.99963 9.02793 6 9.24094V14.7591C5.99954 14.972 6.05486 15.1813 6.16046 15.3662C6.26606 15.5511 6.41825 15.705 6.60187 15.8128L11.415 18.5925C11.5929 18.6951 11.7946 18.7491 12 18.7491C12.2054 18.7491 12.4071 18.6951 12.585 18.5925L17.3972 15.8128C17.581 15.7052 17.7334 15.5512 17.8391 15.3663C17.9449 15.1814 18.0004 14.9721 18 14.7591ZM12 6.80156L15.8053 9L12 11.1966L8.19469 9L12 6.80156ZM7.5 10.3303L11.25 12.4959V16.7653L7.5 14.5997V10.3303ZM12.75 16.7653V12.4959L16.5 10.3303V14.5997L12.75 16.7653ZM21.75 4.5V8.25C21.75 8.44891 21.671 8.63968 21.5303 8.78033C21.3897 8.92098 21.1989 9 21 9C20.8011 9 20.6103 8.92098 20.4697 8.78033C20.329 8.63968 20.25 8.44891 20.25 8.25V5.25H17.25C17.0511 5.25 16.8603 5.17098 16.7197 5.03033C16.579 4.88968 16.5 4.69891 16.5 4.5C16.5 4.30109 16.579 4.11032 16.7197 3.96967C16.8603 3.82902 17.0511 3.75 17.25 3.75H21C21.1989 3.75 21.3897 3.82902 21.5303 3.96967C21.671 4.11032 21.75 4.30109 21.75 4.5ZM7.5 19.5C7.5 19.6989 7.42098 19.8897 7.28033 20.0303C7.13968 20.171 6.94891 20.25 6.75 20.25H3C2.80109 20.25 2.61032 20.171 2.46967 20.0303C2.32902 19.8897 2.25 19.6989 2.25 19.5V15.75C2.25 15.5511 2.32902 15.3603 2.46967 15.2197C2.61032 15.079 2.80109 15 3 15C3.19891 15 3.38968 15.079 3.53033 15.2197C3.67098 15.3603 3.75 15.5511 3.75 15.75V18.75H6.75C6.94891 18.75 7.13968 18.829 7.28033 18.9697C7.42098 19.1103 7.5 19.3011 7.5 19.5ZM21.75 15.75V19.5C21.75 19.6989 21.671 19.8897 21.5303 20.0303C21.3897 20.171 21.1989 20.25 21 20.25H17.25C17.0511 20.25 16.8603 20.171 16.7197 20.0303C16.579 19.8897 16.5 19.6989 16.5 19.5C16.5 19.3011 16.579 19.1103 16.7197 18.9697C16.8603 18.829 17.0511 18.75 17.25 18.75H20.25V15.75C20.25 15.5511 20.329 15.3603 20.4697 15.2197C20.6103 15.079 20.8011 15 21 15C21.1989 15 21.3897 15.079 21.5303 15.2197C21.671 15.3603 21.75 15.5511 21.75 15.75ZM2.25 8.25V4.5C2.25 4.30109 2.32902 4.11032 2.46967 3.96967C2.61032 3.82902 2.80109 3.75 3 3.75H6.75C6.94891 3.75 7.13968 3.82902 7.28033 3.96967C7.42098 4.11032 7.5 4.30109 7.5 4.5C7.5 4.69891 7.42098 4.88968 7.28033 5.03033C7.13968 5.17098 6.94891 5.25 6.75 5.25H3.75V8.25C3.75 8.44891 3.67098 8.63968 3.53033 8.78033C3.38968 8.92098 3.19891 9 3 9C2.80109 9 2.61032 8.92098 2.46967 8.78033C2.32902 8.63968 2.25 8.44891 2.25 8.25Z" fill="black"/>
</svg>
