<svg width="24" height="24" viewBox="0 0 24 24" fill="none" xmlns="http://www.w3.org/2000/svg">
<path d="M5.25 6C5.25 5.80109 5.32902 5.61032 5.46967 5.46967C5.61032 5.32902 5.80109 5.25 6 5.25H18C18.1989 5.25 18.3897 5.32902 18.5303 5.46967C18.671 5.61032 18.75 5.80109 18.75 6C18.75 6.19891 18.671 6.38968 18.5303 6.53033C18.3897 6.67098 18.1989 6.75 18 6.75H6C5.80109 6.75 5.61032 6.67098 5.46967 6.53033C5.32902 6.38968 5.25 6.19891 5.25 6ZM20.25 15.75C20.0511 15.75 19.8603 15.829 19.7197 15.9697C19.579 16.1103 19.5 16.3011 19.5 16.5V18H16.5C16.1022 18 15.7206 17.842 15.4393 17.5607C15.158 17.2794 15 16.8978 15 16.5V12H19.5C19.6989 12 19.8897 11.921 20.0303 11.7803C20.171 11.6397 20.25 11.4489 20.25 11.25C20.25 11.0511 20.171 10.8603 20.0303 10.7197C19.8897 10.579 19.6989 10.5 19.5 10.5H4.5C4.30109 10.5 4.11032 10.579 3.96967 10.7197C3.82902 10.8603 3.75 11.0511 3.75 11.25C3.75 11.4489 3.82902 11.6397 3.96967 11.7803C4.11032 11.921 4.30109 12 4.5 12H9V12.75C8.99851 14.1419 8.44491 15.4764 7.46067 16.4607C6.47642 17.4449 5.14193 17.9985 3.75 18C3.55109 18 3.36032 18.079 3.21967 18.2197C3.07902 18.3603 3 18.5511 3 18.75C3 18.9489 3.07902 19.1397 3.21967 19.2803C3.36032 19.421 3.55109 19.5 3.75 19.5C5.5396 19.498 7.25534 18.7862 8.52078 17.5208C9.78622 16.2553 10.498 14.5396 10.5 12.75V12H13.5V16.5C13.5 17.2956 13.8161 18.0587 14.3787 18.6213C14.9413 19.1839 15.7044 19.5 16.5 19.5H20.25C20.4489 19.5 20.6397 19.421 20.7803 19.2803C20.921 19.1397 21 18.9489 21 18.75V16.5C21 16.3011 20.921 16.1103 20.7803 15.9697C20.6397 15.829 20.4489 15.75 20.25 15.75Z" fill="black"/>
</svg>
