<svg width="24" height="24" viewBox="0 0 24 24" fill="none" xmlns="http://www.w3.org/2000/svg">
<path d="M10.8911 10.0406C11.1855 10.3342 11.5844 10.4992 12.0002 10.4992C12.416 10.4992 12.8149 10.3342 13.1092 10.0406L16.0408 7.10806C16.1864 6.9625 16.3019 6.78967 16.3807 6.59946C16.4596 6.40924 16.5001 6.20536 16.5001 5.99947C16.5001 5.79357 16.4596 5.58969 16.3807 5.39948C16.3019 5.20926 16.1864 5.03644 16.0408 4.89087L13.1092 1.95838C12.8149 1.66469 12.416 1.49976 12.0002 1.49976C11.5844 1.49976 11.1855 1.66469 10.8911 1.95838L7.95956 4.89087C7.81394 5.03644 7.69843 5.20926 7.61962 5.39948C7.54081 5.58969 7.50024 5.79357 7.50024 5.99947C7.50024 6.20536 7.54081 6.40924 7.61962 6.59946C7.69843 6.78967 7.81394 6.9625 7.95956 7.10806L10.8911 10.0406ZM9.01612 5.95119L11.9486 3.01962C11.9611 3.00726 11.9779 3.00032 11.9955 3.00032C12.0131 3.00032 12.0299 3.00726 12.0424 3.01962L14.9749 5.95119C14.9866 5.96398 14.9931 5.98071 14.9931 5.99806C14.9931 6.01542 14.9866 6.03214 14.9749 6.04494L12.048 8.98025C12.0354 8.99239 12.0186 8.99918 12.0011 8.99918C11.9836 8.99918 11.9668 8.99239 11.9542 8.98025L9.01987 6.04775C9.00733 6.03481 9.00031 6.01749 9.00031 5.99947C9.00031 5.98145 9.00733 5.96413 9.01987 5.95119H9.01612ZM22.038 10.8909L19.1092 7.95837C18.815 7.66475 18.4163 7.49984 18.0007 7.49984C17.585 7.49984 17.1863 7.66475 16.8921 7.95837L13.9596 10.8909C13.6659 11.1853 13.5009 11.5841 13.5009 11.9999C13.5009 12.4158 13.6659 12.8146 13.9596 13.109L16.8921 16.0415C17.1863 16.3351 17.585 16.5 18.0007 16.5C18.4163 16.5 18.815 16.3351 19.1092 16.0415L22.0417 13.109C22.3354 12.8146 22.5004 12.4158 22.5004 11.9999C22.5004 11.5841 22.3354 11.1853 22.0417 10.8909H22.038ZM20.9814 12.0477L18.0489 14.9802C18.0361 14.992 18.0194 14.9985 18.0021 14.9985C17.9847 14.9985 17.968 14.992 17.9552 14.9802L15.0227 12.0477C15.0105 12.0352 15.0037 12.0184 15.0037 12.0009C15.0037 11.9834 15.0105 11.9666 15.0227 11.954L17.9552 9.0215C17.968 9.00977 17.9847 9.00327 18.0021 9.00327C18.0194 9.00327 18.0361 9.00977 18.0489 9.0215L20.9814 11.954C20.9936 11.9666 21.0004 11.9834 21.0004 12.0009C21.0004 12.0184 20.9936 12.0352 20.9814 12.0477ZM10.0408 10.8909L7.10831 7.95837C6.81408 7.66475 6.41539 7.49984 5.99971 7.49984C5.58404 7.49984 5.18534 7.66475 4.89112 7.95837L1.95862 10.8909C1.66493 11.1853 1.5 11.5841 1.5 11.9999C1.5 12.4158 1.66493 12.8146 1.95862 13.109L4.89112 16.0415C5.18534 16.3351 5.58404 16.5 5.99971 16.5C6.41539 16.5 6.81408 16.3351 7.10831 16.0415L10.0408 13.109C10.3345 12.8146 10.4994 12.4158 10.4994 11.9999C10.4994 11.5841 10.3345 11.1853 10.0408 10.8909ZM8.98049 12.0477L6.04799 14.9802C6.0352 14.992 6.01847 14.9985 6.00112 14.9985C5.98376 14.9985 5.96704 14.992 5.95424 14.9802L3.01893 12.0477C3.00679 12.0352 3 12.0184 3 12.0009C3 11.9834 3.00679 11.9666 3.01893 11.954L5.95143 9.01962C5.96423 9.0079 5.98095 9.00139 5.99831 9.00139C6.01566 9.00139 6.03239 9.0079 6.04518 9.01962L8.97768 11.9521C8.98416 11.9582 8.98938 11.9655 8.99303 11.9736C8.99668 11.9817 8.99869 11.9905 8.99895 11.9994C8.99921 12.0082 8.99772 12.0171 8.99455 12.0254C8.99138 12.0337 8.98661 12.0413 8.98049 12.0477ZM13.1055 13.9593C12.8111 13.6656 12.4123 13.5007 11.9964 13.5007C11.5806 13.5007 11.1818 13.6656 10.8874 13.9593L7.95956 16.8918C7.81394 17.0374 7.69843 17.2102 7.61962 17.4004C7.54081 17.5906 7.50024 17.7945 7.50024 18.0004C7.50024 18.2063 7.54081 18.4102 7.61962 18.6004C7.69843 18.7906 7.81394 18.9634 7.95956 19.109L10.8911 22.0415C11.1855 22.3352 11.5844 22.5001 12.0002 22.5001C12.416 22.5001 12.8149 22.3352 13.1092 22.0415L16.0408 19.109C16.1864 18.9634 16.3019 18.7906 16.3807 18.6004C16.4596 18.4102 16.5001 18.2063 16.5001 18.0004C16.5001 17.7945 16.4596 17.5906 16.3807 17.4004C16.3019 17.2102 16.1864 17.0374 16.0408 16.8918L13.1055 13.9593ZM14.9805 18.0487L12.048 20.9802C12.0355 20.9926 12.0187 20.9996 12.0011 20.9996C11.9836 20.9996 11.9667 20.9926 11.9542 20.9802L9.01987 18.0487C9.00814 18.0359 9.00164 18.0192 9.00164 18.0018C9.00164 17.9845 9.00814 17.9677 9.01987 17.9549L11.9524 15.0224C11.965 15.0103 11.9818 15.0035 11.9992 15.0035C12.0167 15.0035 12.0335 15.0103 12.0461 15.0224L14.9786 17.9549C14.9906 17.9675 14.9974 17.9841 14.9978 18.0014C14.9981 18.0188 14.992 18.0357 14.9805 18.0487Z" fill="black"/>
</svg>
