<svg width="24" height="24" viewBox="0 0 24 24" fill="none" xmlns="http://www.w3.org/2000/svg">
<path d="M22.0617 10.9425L13.057 1.93692C12.776 1.65755 12.3958 1.50073 11.9995 1.50073C11.6033 1.50073 11.2231 1.65755 10.942 1.93692L1.94205 10.9425C1.66267 11.2236 1.50586 11.6038 1.50586 12C1.50586 12.3963 1.66267 12.7765 1.94205 13.0575L10.9467 22.0632C11.2278 22.3425 11.608 22.4994 12.0042 22.4994C12.4005 22.4994 12.7807 22.3425 13.0617 22.0632L22.0664 13.0575C22.3458 12.7765 22.5026 12.3963 22.5026 12C22.5026 11.6038 22.3458 11.2236 22.0664 10.9425H22.0617ZM11.9995 21L2.99955 12L11.9995 3.00005L20.9995 12L11.9995 21Z" fill="black"/>
</svg>
