<svg width="24" height="24" viewBox="0 0 24 24" fill="none" xmlns="http://www.w3.org/2000/svg">
<path d="M22.4722 11.7188L20.9328 3.46884C20.8952 3.26774 20.8169 3.07647 20.7026 2.90677C20.5883 2.73708 20.4405 2.59255 20.2683 2.48209C20.0961 2.37162 19.9032 2.29755 19.7013 2.26442C19.4994 2.2313 19.2929 2.23982 19.0944 2.28947L19.0653 2.2979L14.1416 3.75009H9.8572L4.93345 2.30259L4.90439 2.29415C4.70592 2.24451 4.49939 2.23598 4.29751 2.26911C4.09562 2.30224 3.90265 2.37631 3.73045 2.48678C3.55825 2.59724 3.41047 2.74177 3.2962 2.91146C3.18192 3.08115 3.10357 3.27243 3.06595 3.47353L1.52658 11.7188C1.46075 12.0491 1.50961 12.3919 1.66509 12.6905C1.82056 12.9892 2.07333 13.2259 2.38158 13.3613C2.57899 13.4519 2.79346 13.4992 3.01064 13.5001C3.27058 13.5 3.52572 13.43 3.74939 13.2976V17.2501C3.74939 18.2447 4.14448 19.1985 4.84774 19.9017C5.551 20.605 6.50483 21.0001 7.49939 21.0001H16.4994C17.494 21.0001 18.4478 20.605 19.151 19.9017C19.8543 19.1985 20.2494 18.2447 20.2494 17.2501V13.2985C20.4728 13.4307 20.7276 13.5006 20.9872 13.501C21.2046 13.5004 21.4194 13.4534 21.6172 13.3632C21.9258 13.2277 22.1789 12.9907 22.3344 12.6916C22.4899 12.3926 22.5385 12.0493 22.4722 11.7188ZM2.99939 12.0001L4.5397 3.75009L8.48377 4.90978L2.99939 12.0001ZM16.4994 19.5001H12.7494V18.3104L14.03 17.0307C14.1707 16.89 14.2498 16.6991 14.2498 16.5001C14.2498 16.3011 14.1707 16.1102 14.03 15.9695C13.8893 15.8287 13.6984 15.7497 13.4994 15.7497C13.3004 15.7497 13.1095 15.8287 12.9688 15.9695L11.9994 16.9398L11.03 15.9695C10.8893 15.8287 10.6984 15.7497 10.4994 15.7497C10.3004 15.7497 10.1095 15.8287 9.96877 15.9695C9.82803 16.1102 9.74897 16.3011 9.74897 16.5001C9.74897 16.6991 9.82803 16.89 9.96877 17.0307L11.2494 18.3104V19.5001H7.49939C6.90265 19.5001 6.33036 19.263 5.9084 18.8411C5.48644 18.4191 5.24939 17.8468 5.24939 17.2501V11.5417L10.1169 5.25009H13.881L18.7494 11.5417V17.2501C18.7494 17.8468 18.5123 18.4191 18.0904 18.8411C17.6684 19.263 17.0961 19.5001 16.4994 19.5001ZM20.9994 12.0001L15.515 4.90978L19.4591 3.75009L20.9994 12.0001ZM9.74939 13.1251C9.74939 13.3476 9.68341 13.5651 9.55979 13.7501C9.43618 13.9351 9.26048 14.0793 9.05491 14.1645C8.84934 14.2496 8.62314 14.2719 8.40491 14.2285C8.18668 14.1851 7.98623 14.0779 7.82889 13.9206C7.67156 13.7633 7.56441 13.5628 7.52101 13.3446C7.4776 13.1263 7.49988 12.9001 7.58503 12.6946C7.67017 12.489 7.81437 12.3133 7.99937 12.1897C8.18438 12.0661 8.40189 12.0001 8.62439 12.0001C8.92276 12.0001 9.20891 12.1186 9.41989 12.3296C9.63086 12.5406 9.74939 12.8267 9.74939 13.1251ZM16.4994 13.1251C16.4994 13.3476 16.4334 13.5651 16.3098 13.7501C16.1862 13.9351 16.0105 14.0793 15.8049 14.1645C15.5993 14.2496 15.3731 14.2719 15.1549 14.2285C14.9367 14.1851 14.7362 14.0779 14.5789 13.9206C14.4216 13.7633 14.3144 13.5628 14.271 13.3446C14.2276 13.1263 14.2499 12.9001 14.335 12.6946C14.4202 12.489 14.5644 12.3133 14.7494 12.1897C14.9344 12.0661 15.1519 12.0001 15.3744 12.0001C15.6728 12.0001 15.9589 12.1186 16.1699 12.3296C16.3809 12.5406 16.4994 12.8267 16.4994 13.1251Z" fill="black"/>
</svg>
