<svg width="24" height="24" viewBox="0 0 24 24" fill="none" xmlns="http://www.w3.org/2000/svg">
<path d="M20.0552 19.7457C20.1228 19.8183 20.1753 19.9037 20.2097 19.9967C20.2441 20.0898 20.2597 20.1888 20.2556 20.288C20.2514 20.3872 20.2277 20.4845 20.1856 20.5744C20.1436 20.6643 20.0841 20.745 20.0106 20.8117C19.9372 20.8785 19.8512 20.93 19.7577 20.9633C19.6642 20.9966 19.5651 21.0109 19.4659 21.0056C19.3668 21.0003 19.2698 20.9753 19.1804 20.9322C19.091 20.8891 19.0111 20.8287 18.9452 20.7544L15.6639 17.1497C15.3274 17.2536 14.9711 17.2771 14.6238 17.2181C14.2765 17.1592 13.9479 17.0196 13.6644 16.8104C13.3809 16.6013 13.1505 16.3285 12.9917 16.0141C12.833 15.6996 12.7502 15.3523 12.7502 15C12.7492 14.6841 12.7873 14.3692 12.8636 14.0625L9.00019 9.81191C8.99198 10.0108 8.9051 10.1983 8.75864 10.3332C8.61219 10.468 8.41816 10.5392 8.21925 10.531C8.02034 10.5228 7.83283 10.4359 7.69798 10.2894C7.56313 10.143 7.49198 9.94895 7.50019 9.75004C7.49965 9.29017 7.56985 8.83295 7.70831 8.39441L6.04706 6.56254C5.52101 7.54244 5.24715 8.63787 5.25019 9.75004C5.25019 12.2532 6.04988 13.0238 6.89738 13.8413C7.70738 14.625 8.62519 15.5072 8.62519 17.625C8.62519 18.5201 8.98077 19.3786 9.6137 20.0115C10.2466 20.6445 11.1051 21 12.0002 21C12.9602 21 13.7299 20.61 14.4218 19.7729C14.4837 19.6948 14.5606 19.6298 14.648 19.5818C14.7354 19.5338 14.8314 19.5037 14.9306 19.4932C15.0297 19.4828 15.1299 19.4922 15.2254 19.5209C15.3208 19.5496 15.4096 19.5971 15.4865 19.6605C15.5634 19.724 15.6269 19.8021 15.6732 19.8904C15.7196 19.9786 15.7479 20.0752 15.7565 20.1745C15.765 20.2739 15.7537 20.3739 15.7232 20.4688C15.6927 20.5637 15.6435 20.6515 15.5786 20.7272C14.6074 21.9038 13.4064 22.5 12.0002 22.5C10.7077 22.4986 9.4686 21.9845 8.55469 21.0705C7.64077 20.1566 7.12668 18.9175 7.12519 17.625C7.12519 16.1447 6.59269 15.631 5.85581 14.9213C4.91831 14.0157 3.75019 12.8907 3.75019 9.75004C3.74635 8.21311 4.17556 6.70618 4.98863 5.40191L3.94519 4.25441C3.87756 4.18177 3.82503 4.09643 3.79063 4.00333C3.75623 3.91024 3.74065 3.81124 3.74479 3.71208C3.74894 3.61291 3.77272 3.51556 3.81477 3.42566C3.85681 3.33576 3.91628 3.25509 3.98973 3.18834C4.06318 3.1216 4.14915 3.07009 4.24265 3.03681C4.33615 3.00353 4.43533 2.98914 4.53443 2.99447C4.63354 2.9998 4.7306 3.02475 4.81999 3.06787C4.90938 3.11099 4.98932 3.17142 5.05519 3.24566L20.0552 19.7457ZM8.53988 3.95348C9.56449 3.34172 10.733 3.01254 11.9262 2.99946C13.1195 2.98639 14.2949 3.28989 15.3327 3.87905C16.3705 4.46821 17.2335 5.32196 17.8338 6.3533C18.4342 7.38463 18.7504 8.5567 18.7502 9.75004C18.7502 9.94895 18.8292 10.1397 18.9699 10.2804C19.1105 10.421 19.3013 10.5 19.5002 10.5C19.6991 10.5 19.8899 10.421 20.0305 10.2804C20.1712 10.1397 20.2502 9.94895 20.2502 9.75004C20.2504 8.29134 19.8639 6.85866 19.13 5.59802C18.3961 4.33739 17.341 3.29389 16.0724 2.57386C14.8038 1.85384 13.367 1.48305 11.9084 1.49929C10.4498 1.51553 9.02152 1.91821 7.76925 2.66629C7.59856 2.76848 7.47545 2.93429 7.42702 3.12725C7.37858 3.32021 7.40878 3.5245 7.51097 3.6952C7.61316 3.86589 7.77897 3.98899 7.97193 4.03743C8.16489 4.08587 8.36918 4.05567 8.53988 3.95348ZM15.0302 11.9222C15.1177 11.9674 15.2133 11.9949 15.3115 12.0032C15.4096 12.0114 15.5085 12.0003 15.6023 11.9703C15.6962 11.9404 15.7832 11.8922 15.8584 11.8287C15.9337 11.7651 15.9956 11.6873 16.0408 11.5997C16.3434 11.0302 16.5011 10.3949 16.5002 9.75004C16.5004 9.03361 16.3296 8.32749 16.0019 7.69039C15.6742 7.05329 15.1992 6.50363 14.6163 6.08714C14.0333 5.67065 13.3594 5.39936 12.6505 5.29583C11.9416 5.1923 11.2182 5.25952 10.5405 5.49191C10.3523 5.55644 10.1974 5.69309 10.1099 5.8718C10.0225 6.05052 10.0096 6.25666 10.0741 6.44488C10.1386 6.6331 10.2753 6.78798 10.454 6.87545C10.6327 6.96292 10.8388 6.97581 11.0271 6.91129C11.4789 6.75636 11.9611 6.71154 12.4337 6.78056C12.9063 6.84958 13.3556 7.03045 13.7442 7.30811C14.1328 7.58577 14.4496 7.95221 14.668 8.37694C14.8865 8.80167 15.0003 9.27242 15.0002 9.75004C15 10.1539 14.8995 10.5515 14.7077 10.9069C14.6625 10.9944 14.635 11.09 14.6267 11.1882C14.6185 11.2864 14.6296 11.3852 14.6596 11.479C14.6895 11.5729 14.7377 11.6599 14.8013 11.7352C14.8649 11.8104 14.9426 11.8724 15.0302 11.9175V11.9222Z" fill="black"/>
</svg>
