<svg width="24" height="24" viewBox="0 0 24 24" fill="none" xmlns="http://www.w3.org/2000/svg">
<path d="M19.5 15.0001H4.5C4.10218 15.0001 3.72064 15.1582 3.43934 15.4395C3.15804 15.7208 3 16.1023 3 16.5001V18.7501C3 19.1479 3.15804 19.5295 3.43934 19.8108C3.72064 20.0921 4.10218 20.2501 4.5 20.2501H19.5C19.8978 20.2501 20.2794 20.0921 20.5607 19.8108C20.842 19.5295 21 19.1479 21 18.7501V16.5001C21 16.1023 20.842 15.7208 20.5607 15.4395C20.2794 15.1582 19.8978 15.0001 19.5 15.0001ZM19.5 18.7501H4.5V16.5001H19.5V18.7501ZM4.5225 13.5001H19.4775C19.7748 13.5016 20.066 13.4156 20.3148 13.2529C20.5637 13.0902 20.7592 12.858 20.8772 12.5851C20.9937 12.319 21.0284 12.0242 20.9766 11.7383C20.9248 11.4524 20.789 11.1885 20.5866 10.9801L13.6744 3.71356C13.4578 3.48795 13.1978 3.30845 12.91 3.18583C12.6223 3.06321 12.3128 3 12 3C11.6872 3 11.3777 3.06321 11.09 3.18583C10.8022 3.30845 10.5422 3.48795 10.3256 3.71356L3.41344 10.9801C3.21096 11.1885 3.07517 11.4524 3.02341 11.7383C2.97164 12.0242 3.00625 12.319 3.12281 12.5851C3.24078 12.858 3.43633 13.0902 3.68518 13.2529C3.93403 13.4156 4.2252 13.5016 4.5225 13.5001ZM11.4122 4.74762C11.4888 4.66933 11.5802 4.60712 11.6811 4.56465C11.7821 4.52218 11.8905 4.5003 12 4.5003C12.1095 4.5003 12.2179 4.52218 12.3189 4.56465C12.4198 4.60712 12.5112 4.66933 12.5878 4.74762L19.4859 12.0001H4.51312L11.4122 4.74762Z" fill="black"/>
</svg>
