<svg width="24" height="24" viewBox="0 0 24 24" fill="none" xmlns="http://www.w3.org/2000/svg">
<path d="M21.7505 19.5001C21.7505 19.699 21.6715 19.8898 21.5308 20.0304C21.3902 20.1711 21.1994 20.2501 21.0005 20.2501H3.00049C2.80158 20.2501 2.61082 20.1711 2.47016 20.0304C2.32951 19.8898 2.25049 19.699 2.25049 19.5001C2.25049 19.3012 2.32951 19.1104 2.47016 18.9697C2.61082 18.8291 2.80158 18.7501 3.00049 18.7501H21.0005C21.1994 18.7501 21.3902 18.8291 21.5308 18.9697C21.6715 19.1104 21.7505 19.3012 21.7505 19.5001ZM2.39956 14.8913C2.27533 14.6344 2.22698 14.3473 2.26019 14.0639C2.2934 13.7804 2.4068 13.5123 2.58706 13.291L10.2436 3.8382C10.4555 3.57642 10.7232 3.36531 11.0272 3.22028C11.3312 3.07526 11.6637 3 12.0005 3C12.3373 3 12.6698 3.07526 12.9738 3.22028C13.2778 3.36531 13.5455 3.57642 13.7574 3.8382L21.4121 13.291C21.5912 13.5124 21.7042 13.7799 21.7377 14.0627C21.7713 14.3455 21.7242 14.632 21.6019 14.8892C21.4795 15.1464 21.2869 15.3637 21.0463 15.516C20.8057 15.6683 20.5268 15.7495 20.2421 15.7501H3.75893C3.4742 15.7507 3.19518 15.6703 2.95446 15.5182C2.71374 15.3662 2.52128 15.1487 2.39956 14.8913ZM3.75049 14.2416C3.75049 14.2416 3.75049 14.2501 3.75799 14.252H20.2421C20.2421 14.252 20.2496 14.2435 20.2496 14.2398L12.5911 4.78133C12.5199 4.69324 12.43 4.62219 12.3278 4.57339C12.2256 4.52458 12.1137 4.49925 12.0005 4.49925C11.8872 4.49925 11.7754 4.52458 11.6732 4.57339C11.571 4.62219 11.4811 4.69324 11.4099 4.78133L3.75049 14.2351C3.75022 14.2373 3.75022 14.2395 3.75049 14.2416Z" fill="black"/>
</svg>
