<svg width="24" height="24" viewBox="0 0 24 24" fill="none" xmlns="http://www.w3.org/2000/svg">
<path d="M23.25 9.75C23.0511 9.75 22.8603 9.82902 22.7197 9.96967C22.579 10.1103 22.5 10.3011 22.5 10.5V12.75H21V11.25C21 10.8522 20.842 10.4706 20.5607 10.1893C20.2794 9.90804 19.8978 9.75 19.5 9.75H18.3103L15 6.43969C14.8612 6.29979 14.696 6.18888 14.514 6.1134C14.332 6.03792 14.1367 5.99937 13.9397 6H12V4.5H14.25C14.4489 4.5 14.6397 4.42098 14.7803 4.28033C14.921 4.13968 15 3.94891 15 3.75C15 3.55109 14.921 3.36032 14.7803 3.21967C14.6397 3.07902 14.4489 3 14.25 3H8.25C8.05109 3 7.86032 3.07902 7.71967 3.21967C7.57902 3.36032 7.5 3.55109 7.5 3.75C7.5 3.94891 7.57902 4.13968 7.71967 4.28033C7.86032 4.42098 8.05109 4.5 8.25 4.5H10.5V6H4.5C4.10218 6 3.72064 6.15804 3.43934 6.43934C3.15804 6.72064 3 7.10218 3 7.5V12.75H1.5V10.5C1.5 10.3011 1.42098 10.1103 1.28033 9.96967C1.13968 9.82902 0.948912 9.75 0.75 9.75C0.551088 9.75 0.360322 9.82902 0.21967 9.96967C0.0790176 10.1103 0 10.3011 0 10.5L0 16.5C0 16.6989 0.0790176 16.8897 0.21967 17.0303C0.360322 17.171 0.551088 17.25 0.75 17.25C0.948912 17.25 1.13968 17.171 1.28033 17.0303C1.42098 16.8897 1.5 16.6989 1.5 16.5V14.25H3V16.1897C2.99937 16.3867 3.03792 16.582 3.1134 16.764C3.18888 16.946 3.29979 17.1112 3.43969 17.25L6.75 20.5603C6.88878 20.7002 7.05399 20.8111 7.23602 20.8866C7.41804 20.9621 7.61326 21.0006 7.81031 21H13.9397C14.1367 21.0006 14.332 20.9621 14.514 20.8866C14.696 20.8111 14.8612 20.7002 15 20.5603L18.3103 17.25H19.5C19.8978 17.25 20.2794 17.092 20.5607 16.8107C20.842 16.5294 21 16.1478 21 15.75V14.25H22.5V16.5C22.5 16.6989 22.579 16.8897 22.7197 17.0303C22.8603 17.171 23.0511 17.25 23.25 17.25C23.4489 17.25 23.6397 17.171 23.7803 17.0303C23.921 16.8897 24 16.6989 24 16.5V10.5C24 10.3011 23.921 10.1103 23.7803 9.96967C23.6397 9.82902 23.4489 9.75 23.25 9.75ZM19.5 15.75H18.3103C18.1133 15.7494 17.918 15.7879 17.736 15.8634C17.554 15.9389 17.3888 16.0498 17.25 16.1897L13.9397 19.5H7.81031L4.5 16.1897V7.5H13.9397L17.25 10.8103C17.3888 10.9502 17.554 11.0611 17.736 11.1366C17.918 11.2121 18.1133 11.2506 18.3103 11.25H19.5V15.75Z" fill="black"/>
</svg>
