<svg width="24" height="24" viewBox="0 0 24 24" fill="none" xmlns="http://www.w3.org/2000/svg">
<path d="M21 3.75H16.0781C15.8711 3.75012 15.6664 3.79307 15.4768 3.87617C15.2873 3.95926 15.1169 4.08069 14.9766 4.23281L6.42188 13.5H3C2.60218 13.5 2.22064 13.658 1.93934 13.9393C1.65804 14.2206 1.5 14.6022 1.5 15V18.75C1.5 19.1478 1.65804 19.5294 1.93934 19.8107C2.22064 20.092 2.60218 20.25 3 20.25H7.92188C8.12886 20.2499 8.33359 20.2069 8.52317 20.1238C8.71274 20.0407 8.88307 19.9193 9.02344 19.7672L17.5781 10.5H21C21.3978 10.5 21.7794 10.342 22.0607 10.0607C22.342 9.77936 22.5 9.39782 22.5 9V5.25C22.5 4.85218 22.342 4.47064 22.0607 4.18934C21.7794 3.90804 21.3978 3.75 21 3.75ZM21 9H17.5781C17.3711 9.00012 17.1664 9.04308 16.9768 9.12617C16.7873 9.20926 16.6169 9.33069 16.4766 9.48281L7.92188 18.75H3V15H6.42188C6.62886 14.9999 6.83359 14.9569 7.02317 14.8738C7.21274 14.7907 7.38307 14.6693 7.52344 14.5172L16.0781 5.25H21V9ZM21.5306 15.9694C21.6003 16.0391 21.6556 16.1218 21.6933 16.2128C21.731 16.3039 21.7504 16.4015 21.7504 16.5C21.7504 16.5985 21.731 16.6961 21.6933 16.7872C21.6556 16.8782 21.6003 16.9609 21.5306 17.0306C21.4609 17.1003 21.3782 17.1556 21.2872 17.1933C21.1961 17.231 21.0985 17.2504 21 17.2504C20.9015 17.2504 20.8039 17.231 20.7128 17.1933C20.6218 17.1556 20.5391 17.1003 20.4694 17.0306L19.5 16.0603V19.5C19.5 19.6989 19.421 19.8897 19.2803 20.0303C19.1397 20.171 18.9489 20.25 18.75 20.25C18.5511 20.25 18.3603 20.171 18.2197 20.0303C18.079 19.8897 18 19.6989 18 19.5V16.0603L17.0306 17.0306C16.8899 17.1714 16.699 17.2504 16.5 17.2504C16.301 17.2504 16.1101 17.1714 15.9694 17.0306C15.8286 16.8899 15.7496 16.699 15.7496 16.5C15.7496 16.301 15.8286 16.1101 15.9694 15.9694L18.2194 13.7194C18.289 13.6496 18.3717 13.5943 18.4628 13.5566C18.5538 13.5188 18.6514 13.4994 18.75 13.4994C18.8486 13.4994 18.9462 13.5188 19.0372 13.5566C19.1283 13.5943 19.211 13.6496 19.2806 13.7194L21.5306 15.9694Z" fill="black"/>
</svg>
