<svg width="24" height="24" viewBox="0 0 24 24" fill="none" xmlns="http://www.w3.org/2000/svg">
<path d="M15.9694 8.03063C15.8286 7.88989 15.7496 7.69902 15.7496 7.5C15.7496 7.30098 15.8286 7.11011 15.9694 6.96937C16.1101 6.82864 16.301 6.74958 16.5 6.74958C16.699 6.74958 16.8899 6.82864 17.0306 6.96937L18 7.93969V4.5C18 4.30109 18.079 4.11032 18.2197 3.96967C18.3603 3.82902 18.5511 3.75 18.75 3.75C18.9489 3.75 19.1397 3.82902 19.2803 3.96967C19.421 4.11032 19.5 4.30109 19.5 4.5V7.93969L20.4694 6.96937C20.6101 6.82864 20.801 6.74958 21 6.74958C21.199 6.74958 21.3899 6.82864 21.5306 6.96937C21.6714 7.11011 21.7504 7.30098 21.7504 7.5C21.7504 7.69902 21.6714 7.88989 21.5306 8.03063L19.2806 10.2806C19.211 10.3504 19.1283 10.4057 19.0372 10.4434C18.9462 10.4812 18.8486 10.5006 18.75 10.5006C18.6514 10.5006 18.5538 10.4812 18.4628 10.4434C18.3717 10.4057 18.289 10.3504 18.2194 10.2806L15.9694 8.03063ZM22.5 15V18.75C22.5 19.1478 22.342 19.5294 22.0607 19.8107C21.7794 20.092 21.3978 20.25 21 20.25H16.0781C15.871 20.2497 15.6662 20.2066 15.4765 20.1236C15.2868 20.0405 15.1163 19.9192 14.9756 19.7672L6.42188 10.5H3C2.60218 10.5 2.22064 10.342 1.93934 10.0607C1.65804 9.77936 1.5 9.39782 1.5 9V5.25C1.5 4.85218 1.65804 4.47064 1.93934 4.18934C2.22064 3.90804 2.60218 3.75 3 3.75H7.92188C8.12897 3.75033 8.33377 3.79337 8.52347 3.87645C8.71317 3.95952 8.88369 4.08084 9.02437 4.23281L17.5781 13.5H21C21.3978 13.5 21.7794 13.658 22.0607 13.9393C22.342 14.2206 22.5 14.6022 22.5 15ZM21 15H17.5781C17.371 14.9997 17.1662 14.9566 16.9765 14.8736C16.7868 14.7905 16.6163 14.6692 16.4756 14.5172L7.92188 5.25H3V9H6.42188C6.62897 9.00033 6.83377 9.04337 7.02347 9.12645C7.21317 9.20952 7.38369 9.33084 7.52437 9.48281L16.0781 18.75H21V15Z" fill="black"/>
</svg>
