<svg width="24" height="24" viewBox="0 0 24 24" fill="none" xmlns="http://www.w3.org/2000/svg">
<path d="M16.371 7.6284C16.1216 6.28507 15.51 5.0354 14.6022 4.0143C13.6944 2.99321 12.5249 2.2395 11.22 1.83455C9.91507 1.4296 8.52434 1.3888 7.19795 1.71655C5.87155 2.0443 4.65988 2.72815 3.69377 3.69426C2.72766 4.66037 2.04381 5.87204 1.71606 7.19843C1.38831 8.52483 1.42911 9.91556 1.83406 11.2205C2.23901 12.5254 2.99272 13.6949 4.01381 14.6027C5.03491 15.5105 6.28458 16.1221 7.62791 16.3715C7.87734 17.7149 8.48897 18.9645 9.39678 19.9856C10.3046 21.0067 11.4741 21.7604 12.779 22.1654C14.0839 22.5703 15.4746 22.6111 16.801 22.2834C18.1274 21.9556 19.3391 21.2718 20.3052 20.3057C21.2713 19.3396 21.9551 18.1279 22.2829 16.8015C22.6106 15.4751 22.5698 14.0844 22.1649 12.7795C21.7599 11.4746 21.0062 10.3051 19.9851 9.39727C18.964 8.48946 17.7144 7.87782 16.371 7.6284ZM20.9995 15C20.9995 15.1425 20.9929 15.2812 20.9826 15.4228L16.2951 10.7353C16.4169 10.2279 16.4854 9.70911 16.4995 9.18746C17.787 9.52174 18.9273 10.2737 19.7417 11.3256C20.556 12.3774 20.9984 13.6697 20.9995 15ZM19.7367 18.6759L14.8035 13.7437C15.168 13.2983 15.4804 12.8126 15.7345 12.2962L20.5964 17.1562C20.3854 17.702 20.0958 18.214 19.7367 18.6759ZM17.1557 20.5968L12.2939 15.735C12.8103 15.4809 13.2959 15.1685 13.7414 14.804L18.6735 19.7372C18.2122 20.0961 17.7008 20.3857 17.1557 20.5968ZM4.26229 5.32403L9.19541 10.2562C8.83092 10.7016 8.51858 11.1873 8.26448 11.7037L3.4026 6.84371C3.61353 6.29794 3.90316 5.78596 4.26229 5.32403ZM6.84323 3.40309L11.7051 8.26497C11.1887 8.51907 10.703 8.83141 10.2576 9.1959L5.32354 4.26278C5.78547 3.90365 6.29746 3.61402 6.84323 3.40309ZM14.9995 8.99996C14.9977 10.5907 14.365 12.1158 13.2402 13.2407C12.1154 14.3655 10.5902 14.9982 8.99948 15C9.00121 13.4092 9.63391 11.8841 10.7588 10.7592C11.8836 9.6344 13.4087 9.0017 14.9995 8.99996ZM14.812 7.49996C14.2911 7.51265 13.773 7.57957 13.266 7.69965L8.57854 3.01215C8.71823 3.00653 8.85698 2.99996 8.99948 2.99996C10.3303 3.00133 11.6231 3.44438 12.675 4.25963C13.727 5.07488 14.4786 6.21622 14.812 7.50465V7.49996ZM2.99948 8.99996C2.99948 8.85746 3.00604 8.71871 3.01635 8.57715L7.70385 13.2647C7.58364 13.7722 7.51672 14.291 7.50416 14.8125C6.21573 14.4791 5.07439 13.7275 4.25914 12.6755C3.44389 11.6236 3.00084 10.3308 2.99948 8.99996ZM9.18698 16.5C9.70783 16.4873 10.2259 16.4204 10.7329 16.3003L15.4204 20.9878C15.2807 20.9981 15.1392 21.0047 14.9976 21.0047C13.6671 21.0029 12.3747 20.5596 11.3232 19.7444C10.2716 18.9292 9.52029 17.7881 9.18698 16.5Z" fill="black"/>
</svg>
