<svg width="24" height="24" viewBox="0 0 24 24" fill="none" xmlns="http://www.w3.org/2000/svg">
<path d="M21.0004 6.30941C20.9954 5.85805 20.8992 5.41234 20.7179 4.99899C20.5365 4.58564 20.2735 4.21314 19.9448 3.90379C18.6323 2.65879 16.5023 2.70566 15.1992 4.00973L13.3879 5.83129C12.9602 5.44142 12.3987 5.23138 11.82 5.24483C11.2414 5.25827 10.6903 5.49416 10.2811 5.90348L9.43732 6.74723C9.29786 6.88654 9.18722 7.05197 9.11173 7.23407C9.03624 7.41616 8.99739 7.61135 8.99739 7.80848C8.99739 8.0056 9.03624 8.20079 9.11173 8.38289C9.18722 8.56498 9.29786 8.73042 9.43732 8.86973L9.62482 9.06285L4.84357 13.8441C4.38335 14.3007 4.05022 14.8695 3.87709 15.4943C3.70396 16.1191 3.69683 16.7782 3.85638 17.4066L3.10638 19.1325C3.0016 19.3695 2.97122 19.6327 3.01926 19.8873C3.06731 20.1419 3.19151 20.376 3.37545 20.5585C3.58779 20.7729 3.86019 20.9177 4.15665 20.974C4.4531 21.0302 4.75965 20.9952 5.03576 20.8735L6.67919 20.1563C7.29615 20.2957 7.93836 20.2763 8.54581 20.1001C9.15326 19.9238 9.70609 19.5964 10.1526 19.1485L14.9339 14.3672L15.127 14.5604C15.4083 14.8414 15.7897 14.9993 16.1873 14.9993C16.585 14.9993 16.9664 14.8414 17.2476 14.5604L18.0914 13.7166C18.5014 13.3069 18.7375 12.7547 18.7504 12.1752C18.7633 11.5957 18.5521 11.0336 18.1608 10.606L20.0123 8.74316C20.3324 8.42494 20.5849 8.04533 20.7547 7.62712C20.9245 7.20891 21.0081 6.76071 21.0004 6.30941ZM9.09419 18.0938C8.80558 18.383 8.44365 18.5882 8.04725 18.6873C7.65086 18.7864 7.23496 18.7757 6.84419 18.6563C6.67286 18.6035 6.48827 18.6138 6.32388 18.6854L4.62701 19.426L5.3442 17.7572C5.41861 17.5867 5.42696 17.3945 5.36763 17.2182C5.20587 16.7406 5.20917 16.2226 5.37701 15.7472H11.4379L9.09419 18.0938ZM12.9379 14.25H6.56951L10.6945 10.125L13.8764 13.3125L12.9379 14.25ZM18.9548 7.68754L16.5764 10.08C16.4358 10.2207 16.3569 10.4114 16.3569 10.6102C16.3569 10.809 16.4358 10.9997 16.5764 11.1404L17.0348 11.5979C17.1046 11.6675 17.1599 11.7502 17.1976 11.8413C17.2354 11.9323 17.2548 12.0299 17.2548 12.1285C17.2548 12.227 17.2354 12.3246 17.1976 12.4157C17.1599 12.5067 17.1046 12.5894 17.0348 12.6591L16.1911 13.5029L10.5004 7.80566L11.3442 6.96191C11.4848 6.82137 11.6755 6.74242 11.8744 6.74242C12.0732 6.74242 12.2639 6.82137 12.4045 6.96191L12.8629 7.42035C13.0035 7.56074 13.194 7.63963 13.3926 7.63973C13.4913 7.63956 13.5889 7.61993 13.68 7.58196C13.771 7.544 13.8537 7.48844 13.9233 7.41848L16.2614 5.06629C16.9936 4.33316 18.1833 4.29941 18.9136 4.99035C19.096 5.16266 19.242 5.36983 19.3428 5.59959C19.4437 5.82935 19.4975 6.07702 19.5009 6.32793C19.5043 6.57884 19.4573 6.82788 19.3627 7.0603C19.2681 7.29271 19.1278 7.50377 18.9501 7.68098L18.9548 7.68754Z" fill="black"/>
</svg>
