<svg width="24" height="24" viewBox="0 0 24 24" fill="none" xmlns="http://www.w3.org/2000/svg">
<path d="M16.5 9.75007C16.5 9.94898 16.421 10.1397 16.2803 10.2804C16.1397 10.4211 15.9489 10.5001 15.75 10.5001H8.25C8.05109 10.5001 7.86032 10.4211 7.71967 10.2804C7.57902 10.1397 7.5 9.94898 7.5 9.75007C7.5 9.55116 7.57902 9.36039 7.71967 9.21974C7.86032 9.07909 8.05109 9.00007 8.25 9.00007H15.75C15.9489 9.00007 16.1397 9.07909 16.2803 9.21974C16.421 9.36039 16.5 9.55116 16.5 9.75007ZM15.75 12.0001H8.25C8.05109 12.0001 7.86032 12.0791 7.71967 12.2197C7.57902 12.3604 7.5 12.5512 7.5 12.7501C7.5 12.949 7.57902 13.1397 7.71967 13.2804C7.86032 13.4211 8.05109 13.5001 8.25 13.5001H15.75C15.9489 13.5001 16.1397 13.4211 16.2803 13.2804C16.421 13.1397 16.5 12.949 16.5 12.7501C16.5 12.5512 16.421 12.3604 16.2803 12.2197C16.1397 12.0791 15.9489 12.0001 15.75 12.0001ZM24 9.75007V12.0001C24 12.7957 23.6839 13.5588 23.1213 14.1214C22.5587 14.684 21.7956 15.0001 21 15.0001H20.5191C19.9059 16.3538 18.7134 17.5426 16.9847 18.5026C15.0159 19.5976 12.9047 20.0963 12.3047 20.2182C12.1038 20.2607 11.8962 20.2607 11.6953 20.2182C11.0953 20.0926 8.98594 19.5976 7.01531 18.5026C5.28656 17.5426 4.09406 16.3538 3.48094 15.0001H3C2.20435 15.0001 1.44129 14.684 0.87868 14.1214C0.316071 13.5588 0 12.7957 0 12.0001V9.75007C0 8.95442 0.316071 8.19136 0.87868 7.62875C1.44129 7.06614 2.20435 6.75007 3 6.75007H3.07969C3.15058 6.53555 3.26902 6.33981 3.42616 6.17748C3.5833 6.01514 3.77508 5.8904 3.98719 5.81257L11.4872 3.08538C11.8185 2.96535 12.1815 2.96535 12.5128 3.08538L20.0128 5.81257C20.2249 5.8904 20.4167 6.01514 20.5738 6.17748C20.731 6.33981 20.8494 6.53555 20.9203 6.75007H21C21.7956 6.75007 22.5587 7.06614 23.1213 7.62875C23.6839 8.19136 24 8.95442 24 9.75007ZM3.04969 13.5001C3.01703 13.2561 3.00043 13.0103 3 12.7641V8.25007C2.60218 8.25007 2.22064 8.40811 1.93934 8.68941C1.65804 8.97072 1.5 9.35225 1.5 9.75007V12.0001C1.5 12.3979 1.65804 12.7794 1.93934 13.0607C2.22064 13.342 2.60218 13.5001 3 13.5001H3.04969ZM19.5 12.7641V7.22726L12 4.50007L4.5 7.22726V12.7641C4.5 17.0541 11.235 18.5888 12 18.7501C12.765 18.5888 19.5 17.0541 19.5 12.7641ZM22.5 9.75007C22.5 9.35225 22.342 8.97072 22.0607 8.68941C21.7794 8.40811 21.3978 8.25007 21 8.25007V12.7641C20.9996 13.0103 20.983 13.2561 20.9503 13.5001H21C21.3978 13.5001 21.7794 13.342 22.0607 13.0607C22.342 12.7794 22.5 12.3979 22.5 12.0001V9.75007Z" fill="black"/>
</svg>
