<svg width="24" height="24" viewBox="0 0 24 24" fill="none" xmlns="http://www.w3.org/2000/svg">
<path d="M21.8437 12.6562C21.6166 11.8078 21.1939 11.0244 20.6097 10.3687C20.0254 9.713 19.2957 9.20322 18.4791 8.88018C17.6624 8.55714 16.7814 8.42981 15.9067 8.5084C15.032 8.58698 14.1878 8.8693 13.4418 9.33273L14.9784 3.19773C15.0165 3.04531 15.0058 2.88476 14.9477 2.73875C14.8897 2.59274 14.7873 2.46865 14.6549 2.38398C14.017 1.98119 13.3046 1.71083 12.5601 1.58898C11.8156 1.46714 11.0542 1.49631 10.3212 1.67475C9.58819 1.85319 8.89857 2.17725 8.29336 2.62766C7.68816 3.07807 7.17974 3.64562 6.79836 4.29654C6.41698 4.94745 6.17043 5.66844 6.07339 6.41658C5.97635 7.16473 6.0308 7.92476 6.23349 8.65143C6.43618 9.37811 6.78298 10.0566 7.25325 10.6465C7.72351 11.2364 8.30764 11.7257 8.97087 12.0852L2.8893 13.8224C2.73822 13.8654 2.60445 13.9548 2.50689 14.078C2.40933 14.2011 2.3529 14.3517 2.34555 14.5087C2.28783 15.7892 2.66921 17.0511 3.42654 18.0853C4.18386 19.1195 5.27171 19.864 6.50993 20.1955C6.98751 20.3238 7.47981 20.389 7.9743 20.3896C8.72782 20.3876 9.47328 20.2344 10.1665 19.9391C10.8598 19.6438 11.4867 19.2123 12.0102 18.6703C12.5336 18.1283 12.943 17.4868 13.2141 16.7837C13.4851 16.0806 13.6123 15.3302 13.5881 14.5771L18.1331 18.9759C18.2461 19.0852 18.3906 19.1563 18.5462 19.179C18.7019 19.2017 18.8607 19.1749 19.0002 19.1024C20.1374 18.5124 21.0392 17.5518 21.5562 16.3796C22.0733 15.2074 22.1747 13.8938 21.8437 12.6562ZM10.4999 11.9999C10.4999 11.7032 10.5879 11.4132 10.7527 11.1666C10.9175 10.9199 11.1518 10.7276 11.4259 10.6141C11.7 10.5006 12.0016 10.4709 12.2926 10.5287C12.5835 10.5866 12.8508 10.7295 13.0606 10.9393C13.2704 11.149 13.4132 11.4163 13.4711 11.7073C13.529 11.9983 13.4993 12.2999 13.3857 12.5739C13.2722 12.848 13.08 13.0823 12.8333 13.2471C12.5866 13.4119 12.2966 13.4999 11.9999 13.4999C11.6021 13.4999 11.2206 13.3419 10.9393 13.0606C10.658 12.7793 10.4999 12.3977 10.4999 11.9999ZM7.49993 7.12492C7.49969 6.42985 7.67509 5.74599 8.00985 5.13684C8.34461 4.5277 8.82786 4.01302 9.41473 3.6406C10.0016 3.26818 10.6731 3.05009 11.3668 3.0066C12.0605 2.9631 12.7539 3.0956 13.3827 3.39179L11.9784 8.99992C11.441 9.00395 10.9146 9.15225 10.4541 9.42931C9.99368 9.70637 9.61611 10.102 9.36086 10.5749C8.78796 10.2003 8.31769 9.68848 7.99271 9.086C7.66774 8.48353 7.49835 7.80945 7.49993 7.12492ZM10.0312 18.3346C9.42937 18.6823 8.74945 18.8724 8.05456 18.887C7.35967 18.9017 6.67234 18.7406 6.05639 18.4186C5.44043 18.0966 4.91583 17.6241 4.53129 17.0452C4.14675 16.4662 3.91474 15.7994 3.8568 15.1068L9.41711 13.5187C9.68148 13.969 10.0588 14.3425 10.5118 14.6023C10.9648 14.8621 11.4777 14.9992 11.9999 14.9999H12.0852C12.0475 15.6828 11.8399 16.3455 11.4812 16.9278C11.1225 17.5101 10.6241 17.9937 10.0312 18.3346ZM19.9846 16.1784C19.6811 16.7047 19.2649 17.1574 18.7659 17.504L14.6109 13.483C14.8767 13.016 15.0119 12.486 15.0022 11.9487C14.9925 11.4114 14.8382 10.8867 14.5556 10.4296C15.3488 10.0291 16.2502 9.89556 17.1256 10.0487C18.0009 10.2019 18.8034 10.6337 19.4135 11.2798C20.0236 11.9258 20.4088 12.7517 20.5117 13.6343C20.6146 14.517 20.4298 15.4093 19.9846 16.1784Z" fill="black"/>
</svg>
