<svg width="24" height="24" viewBox="0 0 24 24" fill="none" xmlns="http://www.w3.org/2000/svg">
<path d="M22.5628 10.7494L14.295 5.4844C14.07 5.34056 13.8105 5.25975 13.5437 5.25042C13.2768 5.24109 13.0123 5.30358 12.7778 5.43135C12.5434 5.55913 12.3475 5.74751 12.2107 5.97683C12.0738 6.20615 12.0011 6.46799 12 6.73503V10.2319L4.545 5.4844C4.32002 5.34056 4.06054 5.25975 3.79367 5.25042C3.5268 5.24109 3.26232 5.30358 3.02784 5.43135C2.79336 5.55913 2.59748 5.74751 2.46066 5.97683C2.32383 6.20615 2.25108 6.46799 2.25 6.73503V17.265C2.25139 17.5319 2.32433 17.7936 2.46122 18.0227C2.59811 18.2519 2.79394 18.4401 3.02832 18.5678C3.26269 18.6955 3.52703 18.7581 3.79378 18.7489C4.06054 18.7397 4.31996 18.6592 4.545 18.5157L12 13.7682V17.265C12.0014 17.5319 12.0743 17.7936 12.2112 18.0227C12.3481 18.2519 12.5439 18.4401 12.7783 18.5678C13.0127 18.6955 13.277 18.7581 13.5438 18.7489C13.8105 18.7397 14.07 18.6592 14.295 18.5157L22.5628 13.2507C22.7735 13.117 22.9469 12.9322 23.0671 12.7136C23.1873 12.495 23.2503 12.2495 23.2503 12C23.2503 11.7505 23.1873 11.5051 23.0671 11.2865C22.9469 11.0678 22.7735 10.8831 22.5628 10.7494ZM3.75 17.2444V6.75659L11.9831 12L3.75 17.2444ZM13.5 17.2444V6.75659L21.7331 12L13.5 17.2444Z" fill="black"/>
</svg>
