<svg width="24" height="24" viewBox="0 0 24 24" fill="none" xmlns="http://www.w3.org/2000/svg">
<path d="M12 2.25C10.0716 2.25 8.18657 2.82183 6.58319 3.89317C4.97982 4.96451 3.73013 6.48726 2.99218 8.26884C2.25422 10.0504 2.06114 12.0108 2.43735 13.9021C2.81355 15.7934 3.74215 17.5307 5.10571 18.8943C6.46928 20.2579 8.20656 21.1865 10.0979 21.5627C11.9892 21.9389 13.9496 21.7458 15.7312 21.0078C17.5127 20.2699 19.0355 19.0202 20.1068 17.4168C21.1782 15.8134 21.75 13.9284 21.75 12C21.7473 9.41498 20.7192 6.93661 18.8913 5.10872C17.0634 3.28084 14.585 2.25273 12 2.25ZM12 20.25C10.3683 20.25 8.77326 19.7661 7.41655 18.8596C6.05984 17.9531 5.00242 16.6646 4.378 15.1571C3.75358 13.6496 3.5902 11.9908 3.90853 10.3905C4.22685 8.79016 5.01259 7.32015 6.16637 6.16637C7.32016 5.01259 8.79017 4.22685 10.3905 3.90852C11.9909 3.59019 13.6497 3.75357 15.1571 4.37799C16.6646 5.00242 17.9531 6.05984 18.8596 7.41655C19.7661 8.77325 20.25 10.3683 20.25 12C20.2475 14.1873 19.3775 16.2843 17.8309 17.8309C16.2843 19.3775 14.1873 20.2475 12 20.25ZM12.4163 11.3756L7.91625 8.37562C7.80328 8.30025 7.67195 8.25696 7.5363 8.25039C7.40064 8.24382 7.26575 8.27421 7.14602 8.33831C7.02628 8.40241 6.9262 8.49782 6.85645 8.61436C6.78671 8.7309 6.74992 8.86419 6.75 9V15C6.74992 15.1358 6.78671 15.2691 6.85645 15.3856C6.9262 15.5022 7.02628 15.5976 7.14602 15.6617C7.26575 15.7258 7.40064 15.7562 7.5363 15.7496C7.67195 15.743 7.80328 15.6998 7.91625 15.6244L12.4163 12.6244C12.5191 12.5559 12.6035 12.4631 12.6618 12.3542C12.7202 12.2452 12.7507 12.1236 12.7507 12C12.7507 11.8764 12.7202 11.7548 12.6618 11.6458C12.6035 11.5369 12.5191 11.4441 12.4163 11.3756ZM8.25 13.5984V10.4062L10.6481 12L8.25 13.5984ZM18.4163 11.3756L13.9163 8.37562C13.8033 8.30025 13.672 8.25696 13.5363 8.25039C13.4006 8.24382 13.2657 8.27421 13.146 8.33831C13.0263 8.40241 12.9262 8.49782 12.8565 8.61436C12.7867 8.7309 12.7499 8.86419 12.75 9V15C12.7499 15.1358 12.7867 15.2691 12.8565 15.3856C12.9262 15.5022 13.0263 15.5976 13.146 15.6617C13.2657 15.7258 13.4006 15.7562 13.5363 15.7496C13.672 15.743 13.8033 15.6998 13.9163 15.6244L18.4163 12.6244C18.5191 12.5559 18.6035 12.4631 18.6618 12.3542C18.7202 12.2452 18.7507 12.1236 18.7507 12C18.7507 11.8764 18.7202 11.7548 18.6618 11.6458C18.6035 11.5369 18.5191 11.4441 18.4163 11.3756ZM14.25 13.5984V10.4062L16.6481 12L14.25 13.5984Z" fill="black"/>
</svg>
