<svg width="24" height="24" viewBox="0 0 24 24" fill="none" xmlns="http://www.w3.org/2000/svg">
<path d="M20.7454 3.2579C19.6203 2.13325 18.0945 1.50146 16.5037 1.50146C14.9129 1.50146 13.3871 2.13325 12.262 3.2579L5.6901 9.75009C5.55038 9.889 5.43958 10.0542 5.36411 10.2362C5.28864 10.4182 5.24999 10.6134 5.25042 10.8104V17.6898L2.46979 20.4695C2.40011 20.5391 2.34483 20.6219 2.30712 20.7129C2.26941 20.804 2.25 20.9015 2.25 21.0001C2.25 21.0986 2.26941 21.1962 2.30712 21.2873C2.34483 21.3783 2.40011 21.461 2.46979 21.5307C2.61052 21.6714 2.80139 21.7505 3.00042 21.7505C3.09896 21.7505 3.19654 21.7311 3.28759 21.6934C3.37863 21.6557 3.46136 21.6004 3.53104 21.5307L6.31167 18.7501H13.191C13.3878 18.7504 13.5827 18.7118 13.7645 18.6365C13.9464 18.5612 14.1115 18.4507 14.2504 18.3113L20.7407 11.7488C21.299 11.1919 21.7421 10.5303 22.0445 9.80204C22.3469 9.07373 22.5028 8.29295 22.5033 7.50434C22.5037 6.71574 22.3487 5.93478 22.047 5.20614C21.7454 4.4775 21.3031 3.81547 20.7454 3.2579ZM13.3195 4.31822C14.148 3.48935 15.2672 3.01639 16.439 2.99994C17.6108 2.98349 18.7428 3.42484 19.5943 4.23013C20.4457 5.03541 20.9494 6.14109 20.9982 7.31201C21.0471 8.48294 20.6372 9.62671 19.8557 10.5001H14.5626L17.7829 7.28072C17.9236 7.13999 18.0027 6.94911 18.0027 6.75009C18.0027 6.55107 17.9236 6.3602 17.7829 6.21946C17.6422 6.07873 17.4513 5.99967 17.2523 5.99967C17.0533 5.99967 16.8624 6.07873 16.7217 6.21946L11.2504 11.6898V6.3629L13.3195 4.31822ZM6.75042 10.8142L9.75042 7.84509V13.1888L6.75042 16.1888V10.8142ZM13.191 17.2501H7.81167L13.0617 12.0001H18.381L13.191 17.2501Z" fill="black"/>
</svg>
