<svg width="24" height="24" viewBox="0 0 24 24" fill="none" xmlns="http://www.w3.org/2000/svg">
<path d="M17.2492 9C17.8788 8.52776 18.3439 7.86939 18.5786 7.11813C18.8133 6.36687 18.8056 5.56082 18.5567 4.81415C18.3078 4.06748 17.8303 3.41804 17.1918 2.95784C16.5533 2.49764 15.7862 2.25 14.9992 2.25H8.24915C7.46209 2.25 6.69498 2.49764 6.05649 2.95784C5.41799 3.41804 4.94048 4.06748 4.69159 4.81415C4.4427 5.56082 4.43505 6.36687 4.66973 7.11813C4.9044 7.86939 5.3695 8.52776 5.99915 9C5.52242 9.35728 5.13766 9.823 4.87676 10.3586C4.61586 10.8942 4.48633 11.4842 4.49888 12.0798C4.51143 12.6755 4.66572 13.2595 4.94895 13.7837C5.23219 14.3078 5.63622 14.7569 6.12759 15.0938C5.56869 15.5187 5.12749 16.0792 4.84578 16.7223C4.56406 17.3654 4.45116 18.0698 4.51775 18.7687C4.58434 19.4676 4.82822 20.138 5.22631 20.7163C5.6244 21.2947 6.16351 21.7618 6.7926 22.0735C7.42169 22.3853 8.11994 22.5313 8.82123 22.4978C9.52252 22.4642 10.2036 22.2522 10.8001 21.8819C11.3966 21.5115 11.8886 20.995 12.2297 20.3814C12.5708 19.7677 12.7496 19.0771 12.7492 18.375V15C13.1431 15.2955 13.5914 15.5105 14.0685 15.6327C14.5455 15.7549 15.042 15.782 15.5295 15.7123C16.017 15.6427 16.486 15.4777 16.9098 15.2268C17.3335 14.9759 17.7037 14.644 17.9992 14.25C18.2946 13.856 18.5096 13.4077 18.6318 12.9307C18.754 12.4536 18.7811 11.9572 18.7115 11.4697C18.6418 10.9822 18.4768 10.5131 18.2259 10.0894C17.975 9.66565 17.6431 9.29547 17.2492 9ZM17.2492 6C17.2492 6.59674 17.0121 7.16903 16.5901 7.59099C16.1682 8.01295 15.5959 8.25 14.9992 8.25H12.7492V3.75H14.9992C15.5959 3.75 16.1682 3.98705 16.5901 4.40901C17.0121 4.83097 17.2492 5.40326 17.2492 6ZM5.99915 6C5.99915 5.40326 6.23621 4.83097 6.65816 4.40901C7.08012 3.98705 7.65242 3.75 8.24915 3.75H11.2492V8.25H8.24915C7.65242 8.25 7.08012 8.01295 6.65816 7.59099C6.23621 7.16903 5.99915 6.59674 5.99915 6ZM8.24915 14.25C7.65242 14.25 7.08012 14.0129 6.65816 13.591C6.23621 13.169 5.99915 12.5967 5.99915 12C5.99915 11.4033 6.23621 10.831 6.65816 10.409C7.08012 9.98705 7.65242 9.75 8.24915 9.75H11.2492V14.25H8.24915ZM11.2492 18.375C11.2492 18.8942 11.0952 19.4017 10.8068 19.8334C10.5183 20.2651 10.1084 20.6015 9.6287 20.8002C9.14904 20.9989 8.62124 21.0508 8.11204 20.9496C7.60284 20.8483 7.13511 20.5983 6.768 20.2312C6.40088 19.864 6.15088 19.3963 6.04959 18.8871C5.9483 18.3779 6.00029 17.8501 6.19897 17.3705C6.39765 16.8908 6.7341 16.4808 7.16578 16.1924C7.59746 15.904 8.10498 15.75 8.62415 15.75H11.2492V18.375ZM14.9992 14.25C14.5541 14.25 14.1191 14.118 13.7491 13.8708C13.3791 13.6236 13.0907 13.2722 12.9204 12.861C12.7501 12.4499 12.7056 11.9975 12.7924 11.561C12.8792 11.1246 13.0935 10.7237 13.4082 10.409C13.7228 10.0943 14.1237 9.88005 14.5602 9.79323C14.9967 9.70642 15.4491 9.75097 15.8602 9.92127C16.2713 10.0916 16.6227 10.38 16.87 10.75C17.1172 11.12 17.2492 11.555 17.2492 12C17.2492 12.5967 17.0121 13.169 16.5901 13.591C16.1682 14.0129 15.5959 14.25 14.9992 14.25Z" fill="black"/>
</svg>
