<svg width="24" height="24" viewBox="0 0 24 24" fill="none" xmlns="http://www.w3.org/2000/svg">
<path d="M8.23274 18.4041C8.2035 18.6909 8.11108 18.9677 7.96211 19.2146C7.81314 19.4615 7.61133 19.6723 7.37117 19.8319C6.88461 20.1562 6.28086 20.25 5.73149 20.25C5.25239 20.247 4.77556 20.184 4.31211 20.0625C4.12281 20.0071 3.96298 19.8793 3.86722 19.7068C3.77146 19.5344 3.7475 19.3311 3.80051 19.1412C3.85353 18.9512 3.97926 18.7897 4.15047 18.6917C4.32168 18.5938 4.52458 18.5672 4.71524 18.6178C5.12586 18.7303 6.1168 18.8709 6.54805 18.5841C6.63055 18.5287 6.71961 18.4416 6.74867 18.2156C6.78149 17.9653 6.68211 17.8312 5.55055 17.5041C4.67399 17.2509 3.2068 16.8262 3.3943 15.3375C3.42348 15.0563 3.5142 14.7849 3.66002 14.5427C3.80584 14.3005 4.00318 14.0933 4.23805 13.9359C5.34805 13.1859 7.11805 13.6256 7.31586 13.6772C7.50831 13.7278 7.67277 13.8528 7.77308 14.0246C7.87338 14.1965 7.9013 14.4011 7.85071 14.5936C7.80011 14.786 7.67513 14.9505 7.50327 15.0508C7.33141 15.1511 7.12675 15.179 6.9343 15.1284C6.5143 15.0187 5.50649 14.8884 5.07524 15.1809C5.01871 15.2191 4.97217 15.2702 4.93954 15.3301C4.90691 15.39 4.88914 15.4568 4.88774 15.525C4.87742 15.6094 4.87461 15.6272 4.99274 15.7031C5.2093 15.8428 5.59649 15.9544 5.97242 16.0631C6.89024 16.3284 8.44274 16.7812 8.23274 18.4041ZM20.2496 8.25V10.5C20.2496 10.6989 20.1706 10.8897 20.0299 11.0303C19.8893 11.171 19.6985 11.25 19.4996 11.25C19.3007 11.25 19.1099 11.171 18.9693 11.0303C18.8286 10.8897 18.7496 10.6989 18.7496 10.5V9H14.2496C14.0507 9 13.8599 8.92098 13.7193 8.78033C13.5786 8.63968 13.4996 8.44891 13.4996 8.25V3.75H5.24961V10.5C5.24961 10.6989 5.17059 10.8897 5.02994 11.0303C4.88929 11.171 4.69852 11.25 4.49961 11.25C4.3007 11.25 4.10993 11.171 3.96928 11.0303C3.82863 10.8897 3.74961 10.6989 3.74961 10.5V3.75C3.74961 3.35218 3.90765 2.97064 4.18895 2.68934C4.47026 2.40804 4.85179 2.25 5.24961 2.25H14.2496C14.4483 2.25009 14.6388 2.32899 14.7793 2.46937L20.0293 7.71937C20.0991 7.789 20.1545 7.8717 20.1923 7.96275C20.2301 8.0538 20.2496 8.15141 20.2496 8.25ZM14.9996 7.5H17.6893L14.9996 4.81031V7.5ZM13.7527 13.5441C13.66 13.5109 13.5616 13.4962 13.4632 13.5011C13.3647 13.5059 13.2683 13.5301 13.1792 13.5722C13.0901 13.6144 13.0102 13.6736 12.9441 13.7467C12.8779 13.8197 12.8268 13.905 12.7937 13.9978L11.6246 17.2697L10.4555 13.9978C10.4247 13.9022 10.375 13.8137 10.3094 13.7377C10.2437 13.6616 10.1634 13.5996 10.0733 13.5551C9.98318 13.5107 9.88505 13.4848 9.78475 13.4791C9.68444 13.4733 9.584 13.4878 9.48938 13.5216C9.39477 13.5554 9.30791 13.6078 9.23396 13.6758C9.16001 13.7439 9.10048 13.826 9.05891 13.9175C9.01734 14.009 8.99457 14.1079 8.99195 14.2083C8.98933 14.3087 9.00692 14.4087 9.04367 14.5022L10.9187 19.7522C10.9707 19.8979 11.0665 20.024 11.1929 20.1132C11.3194 20.2024 11.4703 20.2502 11.6251 20.2502C11.7798 20.2502 11.9308 20.2024 12.0572 20.1132C12.1837 20.024 12.2795 19.8979 12.3315 19.7522L14.2065 14.5022C14.2733 14.315 14.263 14.1089 14.1779 13.9292C14.0928 13.7496 13.9399 13.611 13.7527 13.5441ZM19.4996 16.5H18.7496C18.5507 16.5 18.3599 16.579 18.2193 16.7197C18.0786 16.8603 17.9996 17.0511 17.9996 17.25C17.9996 17.4489 18.0786 17.6397 18.2193 17.7803C18.3599 17.921 18.5507 18 18.7496 18V18.4959C18.5336 18.6594 18.2705 18.7485 17.9996 18.75C17.1727 18.75 16.4996 17.9062 16.4996 16.875C16.4996 15.8437 17.1727 15 17.9996 15C18.2521 15.001 18.4983 15.0788 18.7055 15.2231C18.8704 15.3305 19.0709 15.3688 19.2638 15.3297C19.4566 15.2906 19.6264 15.1773 19.7365 15.0142C19.8465 14.8511 19.8881 14.6513 19.8522 14.4578C19.8163 14.2644 19.7059 14.0928 19.5446 13.98C19.0893 13.6689 18.551 13.5017 17.9996 13.5C16.3459 13.5 14.9996 15.0141 14.9996 16.875C14.9996 18.7359 16.3459 20.25 17.9996 20.25C18.3833 20.2469 18.7623 20.1655 19.1134 20.0107C19.4645 19.8559 19.7803 19.6311 20.0415 19.35C20.175 19.2104 20.2496 19.0247 20.2496 18.8316V17.25C20.2496 17.0511 20.1706 16.8603 20.0299 16.7197C19.8893 16.579 19.6985 16.5 19.4996 16.5Z" fill="black"/>
</svg>
