<svg width="24" height="24" viewBox="0 0 24 24" fill="none" xmlns="http://www.w3.org/2000/svg">
<path d="M21.0001 20.2499H17.1901C19.177 18.9981 20.645 17.071 21.3242 14.8231C22.0033 12.5751 21.8479 10.1575 20.8866 8.01501C19.9252 5.87251 18.2226 4.14919 16.0918 3.16208C13.961 2.17496 11.5455 1.99044 9.28951 2.64246C7.03354 3.29447 5.08887 4.73917 3.81324 6.71079C2.5376 8.68242 2.0168 11.0484 2.34663 13.3734C2.67646 15.6984 3.83475 17.8261 5.60841 19.3652C7.38208 20.9042 9.65183 21.7511 12.0001 21.7499H21.0001C21.199 21.7499 21.3898 21.6709 21.5305 21.5302C21.6711 21.3896 21.7501 21.1988 21.7501 20.9999C21.7501 20.801 21.6711 20.6102 21.5305 20.4696C21.3898 20.3289 21.199 20.2499 21.0001 20.2499ZM3.75014 11.9999C3.75014 10.3682 4.23399 8.77316 5.14051 7.41645C6.04703 6.05975 7.33551 5.00232 8.843 4.3779C10.3505 3.75348 12.0093 3.5901 13.6096 3.90843C15.21 4.22676 16.68 5.01249 17.8338 6.16628C18.9876 7.32006 19.7733 8.79007 20.0916 10.3904C20.4099 11.9908 20.2466 13.6496 19.6221 15.157C18.9977 16.6645 17.9403 17.953 16.5836 18.8595C15.2269 19.7661 13.6318 20.2499 12.0001 20.2499C9.81286 20.2474 7.71588 19.3774 6.16925 17.8308C4.62261 16.2842 3.75262 14.1872 3.75014 11.9999ZM12.0001 9.74991C12.4451 9.74991 12.8802 9.61795 13.2502 9.37071C13.6202 9.12348 13.9086 8.77208 14.0789 8.36095C14.2492 7.94981 14.2937 7.49741 14.2069 7.06095C14.1201 6.6245 13.9058 6.22359 13.5911 5.90892C13.2765 5.59425 12.8755 5.37996 12.4391 5.29314C12.0026 5.20632 11.5502 5.25088 11.1391 5.42118C10.728 5.59148 10.3766 5.87986 10.1293 6.24987C9.8821 6.61989 9.75014 7.0549 9.75014 7.49991C9.75014 8.09664 9.98719 8.66894 10.4091 9.0909C10.8311 9.51286 11.4034 9.74991 12.0001 9.74991ZM12.0001 6.74991C12.1485 6.74991 12.2935 6.79389 12.4168 6.87631C12.5402 6.95872 12.6363 7.07585 12.693 7.21289C12.7498 7.34994 12.7647 7.50074 12.7357 7.64623C12.7068 7.79171 12.6354 7.92535 12.5305 8.03024C12.4256 8.13513 12.2919 8.20656 12.1465 8.2355C12.001 8.26444 11.8502 8.24958 11.7131 8.19282C11.5761 8.13605 11.4589 8.03992 11.3765 7.91659C11.2941 7.79325 11.2501 7.64824 11.2501 7.49991C11.2501 7.301 11.3292 7.11023 11.4698 6.96958C11.6105 6.82893 11.8012 6.74991 12.0001 6.74991ZM14.2501 16.4999C14.2501 16.0549 14.1182 15.6199 13.8709 15.2499C13.6237 14.8799 13.2723 14.5915 12.8612 14.4212C12.45 14.2509 11.9976 14.2063 11.5612 14.2931C11.1247 14.38 10.7238 14.5942 10.4091 14.9089C10.0945 15.2236 9.88019 15.6245 9.79337 16.061C9.70655 16.4974 9.75111 16.9498 9.92141 17.3609C10.0917 17.7721 10.3801 18.1235 10.7501 18.3707C11.1201 18.6179 11.5551 18.7499 12.0001 18.7499C12.5969 18.7499 13.1692 18.5129 13.5911 18.0909C14.0131 17.6689 14.2501 17.0966 14.2501 16.4999ZM11.2501 16.4999C11.2501 16.3516 11.2941 16.2066 11.3765 16.0832C11.4589 15.9599 11.5761 15.8638 11.7131 15.807C11.8502 15.7502 12.001 15.7354 12.1465 15.7643C12.2919 15.7933 12.4256 15.8647 12.5305 15.9696C12.6354 16.0745 12.7068 16.2081 12.7357 16.3536C12.7647 16.4991 12.7498 16.6499 12.693 16.7869C12.6363 16.924 12.5402 17.0411 12.4168 17.1235C12.2935 17.2059 12.1485 17.2499 12.0001 17.2499C11.8012 17.2499 11.6105 17.1709 11.4698 17.0302C11.3292 16.8896 11.2501 16.6988 11.2501 16.4999ZM16.5001 14.2499C16.9451 14.2499 17.3802 14.1179 17.7502 13.8707C18.1202 13.6235 18.4086 13.2721 18.5789 12.8609C18.7492 12.4498 18.7937 11.9974 18.7069 11.561C18.6201 11.1245 18.4058 10.7236 18.0911 10.4089C17.7765 10.0942 17.3755 9.87996 16.9391 9.79314C16.5026 9.70632 16.0502 9.75088 15.6391 9.92118C15.228 10.0915 14.8766 10.3799 14.6293 10.7499C14.3821 11.1199 14.2501 11.5549 14.2501 11.9999C14.2501 12.5966 14.4872 13.1689 14.9091 13.5909C15.3311 14.0129 15.9034 14.2499 16.5001 14.2499ZM16.5001 11.2499C16.6485 11.2499 16.7935 11.2939 16.9168 11.3763C17.0402 11.4587 17.1363 11.5759 17.193 11.7129C17.2498 11.8499 17.2647 12.0007 17.2357 12.1462C17.2068 12.2917 17.1354 12.4253 17.0305 12.5302C16.9256 12.6351 16.7919 12.7066 16.6465 12.7355C16.501 12.7644 16.3502 12.7496 16.2131 12.6928C16.0761 12.6361 15.9589 12.5399 15.8765 12.4166C15.7941 12.2932 15.7501 12.1482 15.7501 11.9999C15.7501 11.801 15.8292 11.6102 15.9698 11.4696C16.1105 11.3289 16.3012 11.2499 16.5001 11.2499ZM7.50014 9.74991C7.05513 9.74991 6.62011 9.88187 6.2501 10.1291C5.88009 10.3763 5.59171 10.7277 5.42141 11.1389C5.25111 11.55 5.20655 12.0024 5.29337 12.4389C5.38019 12.8753 5.59448 13.2762 5.90915 13.5909C6.22381 13.9056 6.62473 14.1199 7.06118 14.2067C7.49764 14.2935 7.95004 14.2489 8.36117 14.0786C8.77231 13.9083 9.12371 13.62 9.37094 13.2499C9.61818 12.8799 9.75014 12.4449 9.75014 11.9999C9.75014 11.4032 9.51308 10.8309 9.09113 10.4089C8.66917 9.98696 8.09687 9.74991 7.50014 9.74991ZM7.50014 12.7499C7.3518 12.7499 7.2068 12.7059 7.08346 12.6235C6.96012 12.5411 6.86399 12.424 6.80723 12.2869C6.75046 12.1499 6.73561 11.9991 6.76455 11.8536C6.79349 11.7081 6.86492 11.5745 6.96981 11.4696C7.0747 11.3647 7.20833 11.2933 7.35382 11.2643C7.4993 11.2354 7.6501 11.2502 7.78715 11.307C7.92419 11.3638 8.04133 11.4599 8.12374 11.5832C8.20615 11.7066 8.25014 11.8516 8.25014 11.9999C8.25014 12.1988 8.17112 12.3896 8.03047 12.5302C7.88981 12.6709 7.69905 12.7499 7.50014 12.7499Z" fill="black"/>
</svg>
