<svg width="24" height="24" viewBox="0 0 24 24" fill="none" xmlns="http://www.w3.org/2000/svg">
<path d="M15.75 9.00005H8.25001C7.25544 9.00005 6.30162 9.39514 5.59836 10.0984C4.89509 10.8017 4.50001 11.7555 4.50001 12.7501V13.5001C4.50001 13.9925 4.597 14.4801 4.78546 14.9351C4.97391 15.3901 5.25014 15.8035 5.59836 16.1517C6.30162 16.855 7.25544 17.2501 8.25001 17.2501H15.75C16.2425 17.2501 16.7301 17.1531 17.1851 16.9646C17.64 16.7761 18.0534 16.4999 18.4017 16.1517C18.7499 15.8035 19.0261 15.3901 19.2146 14.9351C19.403 14.4801 19.5 13.9925 19.5 13.5001V12.7501C19.5 11.7555 19.1049 10.8017 18.4017 10.0984C17.6984 9.39514 16.7446 9.00005 15.75 9.00005ZM18 13.5001C18 14.0968 17.763 14.6691 17.341 15.091C16.919 15.513 16.3467 15.7501 15.75 15.7501H8.25001C7.65327 15.7501 7.08097 15.513 6.65902 15.091C6.23706 14.6691 6.00001 14.0968 6.00001 13.5001V12.7501C6.00001 12.1533 6.23706 11.581 6.65902 11.1591C7.08097 10.7371 7.65327 10.5001 8.25001 10.5001H15.75C16.3467 10.5001 16.919 10.7371 17.341 11.1591C17.763 11.581 18 12.1533 18 12.7501V13.5001ZM19.5 3.00005C18.8349 3.00068 18.1888 3.2219 17.6629 3.62906C17.137 4.03622 16.761 4.60631 16.5938 5.25005H7.40626C7.22489 4.54169 6.79106 3.92395 6.18629 3.51294C5.58153 3.10192 4.84747 2.92593 4.12208 3.01805C3.39669 3.11016 2.72992 3.46403 2.24708 4.01315C1.76423 4.56228 1.49857 5.26884 1.50001 6.00005V13.5001C1.50199 15.2897 2.21379 17.0054 3.47923 18.2708C4.74467 19.5363 6.4604 20.2481 8.25001 20.2501H15.75C17.5396 20.2481 19.2553 19.5363 20.5208 18.2708C21.7862 17.0054 22.498 15.2897 22.5 13.5001V6.00005C22.5 5.2044 22.1839 4.44134 21.6213 3.87873C21.0587 3.31612 20.2957 3.00005 19.5 3.00005ZM21 13.5001C20.9985 14.892 20.4449 16.2265 19.4607 17.2107C18.4764 18.195 17.1419 18.7486 15.75 18.7501H8.25001C6.85808 18.7486 5.52358 18.195 4.53934 17.2107C3.5551 16.2265 3.00149 14.892 3.00001 13.5001V6.00005C3.00001 5.60223 3.15804 5.2207 3.43935 4.93939C3.72065 4.65809 4.10218 4.50005 4.50001 4.50005C4.89783 4.50005 5.27936 4.65809 5.56067 4.93939C5.84197 5.2207 6.00001 5.60223 6.00001 6.00005C6.00001 6.19897 6.07902 6.38973 6.21968 6.53038C6.36033 6.67104 6.55109 6.75005 6.75001 6.75005H17.25C17.4489 6.75005 17.6397 6.67104 17.7803 6.53038C17.921 6.38973 18 6.19897 18 6.00005C18 5.60223 18.158 5.2207 18.4393 4.93939C18.7206 4.65809 19.1022 4.50005 19.5 4.50005C19.8978 4.50005 20.2794 4.65809 20.5607 4.93939C20.842 5.2207 21 5.60223 21 6.00005V13.5001ZM9.75001 13.1251C9.75001 13.3476 9.68403 13.5651 9.56041 13.7501C9.43679 13.9351 9.26109 14.0793 9.05552 14.1644C8.84996 14.2496 8.62376 14.2718 8.40553 14.2284C8.1873 14.185 7.98684 14.0779 7.82951 13.9205C7.67218 13.7632 7.56503 13.5628 7.52162 13.3445C7.47821 13.1263 7.50049 12.9001 7.58564 12.6945C7.67079 12.489 7.81498 12.3133 7.99999 12.1896C8.18499 12.066 8.4025 12.0001 8.62501 12.0001C8.92337 12.0001 9.20952 12.1186 9.4205 12.3296C9.63148 12.5405 9.75001 12.8267 9.75001 13.1251ZM16.5 13.1251C16.5 13.3476 16.434 13.5651 16.3104 13.7501C16.1868 13.9351 16.0111 14.0793 15.8055 14.1644C15.6 14.2496 15.3738 14.2718 15.1555 14.2284C14.9373 14.185 14.7368 14.0779 14.5795 13.9205C14.4222 13.7632 14.315 13.5628 14.2716 13.3445C14.2282 13.1263 14.2505 12.9001 14.3356 12.6945C14.4208 12.489 14.565 12.3133 14.75 12.1896C14.935 12.066 15.1525 12.0001 15.375 12.0001C15.6734 12.0001 15.9595 12.1186 16.1705 12.3296C16.3815 12.5405 16.5 12.8267 16.5 13.1251Z" fill="black"/>
</svg>
