<svg width="24" height="24" viewBox="0 0 24 24" fill="none" xmlns="http://www.w3.org/2000/svg">
<path d="M13.4419 1.67353C13.3494 1.59666 13.2398 1.54315 13.1224 1.5175C13.0049 1.49186 12.883 1.49483 12.7669 1.52617C12.6508 1.55751 12.544 1.6163 12.4554 1.69758C12.3668 1.77887 12.299 1.88026 12.2578 1.99322L10.1953 7.65665L7.93031 5.46197C7.85425 5.38819 7.76341 5.33137 7.66379 5.29525C7.56417 5.25913 7.45802 5.24453 7.35235 5.25241C7.24667 5.2603 7.14387 5.29048 7.05071 5.34099C6.95755 5.39149 6.87615 5.46116 6.81188 5.5454C4.78125 8.20603 3.75 10.8826 3.75 13.5001C3.75 15.6881 4.61919 17.7865 6.16637 19.3337C7.71354 20.8809 9.81196 21.7501 12 21.7501C14.188 21.7501 16.2865 20.8809 17.8336 19.3337C19.3808 17.7865 20.25 15.6881 20.25 13.5001C20.25 7.92665 15.4884 3.37509 13.4419 1.67353ZM12 20.2501C10.2104 20.2481 8.49466 19.5363 7.22922 18.2709C5.96378 17.0054 5.25199 15.2897 5.25 13.5001C5.25 11.4376 6.00844 9.30103 7.50562 7.14009L9.97781 9.53822C10.0676 9.62541 10.1778 9.68875 10.2983 9.72246C10.4188 9.75618 10.5459 9.75919 10.6679 9.73123C10.7899 9.70327 10.9029 9.64523 10.9967 9.56239C11.0906 9.47956 11.1621 9.37456 11.205 9.25697L13.2928 3.53165C15.3947 5.44509 18.75 9.17915 18.75 13.5001C18.748 15.2897 18.0362 17.0054 16.7708 18.2709C15.5053 19.5363 13.7896 20.2481 12 20.2501Z" fill="black"/>
</svg>
