<svg width="24" height="24" viewBox="0 0 24 24" fill="none" xmlns="http://www.w3.org/2000/svg">
<g clip-path="url(#clip0_639_7993)">
<path d="M15.7552 7.11926C15.7552 7.34177 15.6892 7.55928 15.5656 7.74428C15.4419 7.92929 15.2662 8.07348 15.0607 8.15863C14.8551 8.24378 14.6289 8.26606 14.4107 8.22265C14.1925 8.17924 13.992 8.07209 13.8347 7.91476C13.6773 7.75742 13.5702 7.55697 13.5268 7.33874C13.4834 7.12051 13.5056 6.89431 13.5908 6.68875C13.6759 6.48318 13.8201 6.30748 14.0051 6.18386C14.1901 6.06024 14.4077 5.99426 14.6302 5.99426C14.9285 5.99426 15.2147 6.11279 15.4257 6.32377C15.6366 6.53475 15.7552 6.8209 15.7552 7.11926ZM19.493 14.713C17.5467 17.1852 14.4445 18.5324 10.267 18.7227L8.20454 23.5433C8.14679 23.6792 8.05025 23.7949 7.92702 23.8761C7.80378 23.9574 7.65932 24.0004 7.51172 23.9999H7.46391C7.30936 23.9902 7.1616 23.9329 7.04091 23.8359C6.92022 23.7389 6.83252 23.6069 6.78985 23.458L5.40141 18.5971L0.543287 17.2058C0.39401 17.1639 0.261396 17.0767 0.1637 16.9563C0.0660025 16.8359 0.00802425 16.6882 -0.00225565 16.5335C-0.0125356 16.3788 0.0253883 16.2247 0.106296 16.0924C0.187204 15.9601 0.307119 15.8562 0.449537 15.7949L5.2711 13.7324C5.4586 9.55395 6.80954 6.45176 9.28266 4.50645C13.3336 1.31895 19.118 2.36614 20.2364 2.60801C20.5182 2.6689 20.7764 2.80968 20.9803 3.01352C21.1841 3.21736 21.3249 3.47562 21.3858 3.75739C21.6333 4.87489 22.6814 10.6649 19.493 14.7186V14.713ZM15.1495 16.1821C14.2825 15.8518 13.5275 15.2816 12.9726 14.538C12.4178 13.7944 12.0861 12.9082 12.0164 11.983C11.0915 11.9134 10.2054 11.5819 9.462 11.0272C8.71855 10.4726 8.14842 9.71765 7.81829 8.85083C7.16204 10.3377 6.80954 12.1424 6.75891 14.2527C6.75541 14.3964 6.7107 14.5361 6.63009 14.6551C6.54948 14.7741 6.43637 14.8674 6.30422 14.924L2.98454 16.3443L6.21516 17.2696C6.33759 17.3046 6.44908 17.3703 6.53913 17.4603C6.62917 17.5503 6.69481 17.6618 6.72985 17.7843L7.65235 21.0149L9.07547 17.6952C9.13223 17.5626 9.22599 17.4492 9.34554 17.3686C9.46509 17.2879 9.60536 17.2435 9.74954 17.2405C11.857 17.1908 13.6617 16.8365 15.1495 16.1821ZM19.9242 4.0752C18.9211 3.8577 13.7367 2.91364 10.2145 5.68583C9.77059 6.03571 9.36715 6.43412 9.01172 6.87364C8.97574 7.36371 9.0472 7.85572 9.22112 8.3153C9.39503 8.77488 9.66721 9.19095 10.0186 9.53441C10.37 9.87788 10.7922 10.1405 11.2556 10.3038C11.7191 10.4672 12.2126 10.5274 12.7017 10.4802C12.8117 10.4698 12.9226 10.4837 13.0265 10.5211C13.1304 10.5585 13.2248 10.6184 13.3029 10.6965C13.381 10.7746 13.4409 10.869 13.4783 10.9729C13.5157 11.0768 13.5297 11.1877 13.5192 11.2977C13.472 11.787 13.5322 12.2807 13.6957 12.7443C13.8592 13.2078 14.1219 13.6301 14.4656 13.9816C14.8093 14.333 15.2256 14.6051 15.6854 14.7789C16.1452 14.9527 16.6374 15.024 17.1277 14.9877C17.5666 14.6329 17.9644 14.2301 18.3136 13.7868C21.0858 10.2646 20.1417 5.07926 19.9242 4.0752Z" fill="black"/>
</g>
<defs>
<clipPath id="clip0_639_7993">
<rect width="24" height="24" fill="white"/>
</clipPath>
</defs>
</svg>
