<svg width="24" height="24" viewBox="0 0 24 24" fill="none" xmlns="http://www.w3.org/2000/svg">
<path d="M3.25875 3.93738C3.17806 4.00732 3.11324 4.09368 3.06862 4.19069C3.024 4.28769 3.0006 4.39311 3 4.49988V20.2499C3 20.4488 3.07902 20.6396 3.21967 20.7802C3.36032 20.9209 3.55109 20.9999 3.75 20.9999C3.94891 20.9999 4.13968 20.9209 4.28033 20.7802C4.42098 20.6396 4.5 20.4488 4.5 20.2499V16.1033C7.01156 14.1196 9.17531 15.1893 11.6672 16.423C13.2047 17.1833 14.8603 18.0027 16.6359 18.0027C17.9419 18.0027 19.3116 17.5574 20.7441 16.3152C20.8247 16.2453 20.8896 16.1589 20.9342 16.0619C20.9788 15.9649 21.0022 15.8595 21.0028 15.7527V4.49988C21.0025 4.35593 20.9607 4.21511 20.8825 4.09424C20.8043 3.97338 20.693 3.87757 20.5618 3.81826C20.4306 3.75895 20.2852 3.73865 20.1428 3.75977C20.0004 3.78089 19.8671 3.84255 19.7587 3.93738C17.1337 6.20895 14.91 5.10832 12.3328 3.83238C9.66281 2.50863 6.63562 1.01145 3.25875 3.93738ZM19.5 15.3983C16.9884 17.3821 14.8247 16.3114 12.3328 15.0786C9.98906 13.9208 7.38187 12.6289 4.5 14.2911V4.8552C7.01156 2.87145 9.17531 3.94113 11.6672 5.17395C14.0109 6.33176 16.6191 7.62363 19.5 5.96145V15.3983Z" fill="black"/>
</svg>
