<svg width="24" height="24" viewBox="0 0 24 24" fill="none" xmlns="http://www.w3.org/2000/svg">
<path d="M21.6344 4.84969C21.5669 4.74266 21.4733 4.65447 21.3625 4.59333C21.2517 4.53219 21.1272 4.50008 21.0007 4.5H3.00068C2.84947 4.49986 2.70176 4.54543 2.57691 4.63073C2.45207 4.71602 2.35591 4.83706 2.30107 4.97797C2.24623 5.11888 2.23526 5.27307 2.2696 5.42032C2.30393 5.56758 2.38198 5.70101 2.49349 5.80313L6.43943 9.41906L2.44943 13.7409C2.35042 13.8481 2.2848 13.9817 2.2606 14.1256C2.2364 14.2694 2.25467 14.4172 2.31317 14.5508C2.37167 14.6844 2.46787 14.7981 2.58998 14.8779C2.71209 14.9576 2.85481 15.0001 3.00068 15H15.5276L12.8238 20.6775C12.7786 20.7667 12.7517 20.8641 12.7447 20.9639C12.7376 21.0637 12.7507 21.1638 12.7829 21.2585C12.8152 21.3532 12.8661 21.4405 12.9326 21.5152C12.9991 21.5899 13.0799 21.6505 13.1702 21.6936C13.2605 21.7366 13.3585 21.7611 13.4584 21.7657C13.5584 21.7703 13.6582 21.7548 13.7521 21.7203C13.8459 21.6857 13.9319 21.6327 14.005 21.5644C14.0781 21.4961 14.1367 21.4138 14.1776 21.3225L21.6776 5.5725C21.732 5.45817 21.7565 5.33193 21.749 5.20555C21.7415 5.07916 21.702 4.95673 21.6344 4.84969ZM16.241 13.5H4.70974L8.04818 9.88406C8.11524 9.81153 8.16731 9.72647 8.20141 9.63376C8.2355 9.54105 8.25094 9.44251 8.24685 9.34381C8.24276 9.24512 8.2192 9.1482 8.17755 9.05863C8.13589 8.96906 8.07695 8.8886 8.00412 8.82188L4.92912 6H19.8129L16.241 13.5Z" fill="black"/>
</svg>
