<svg width="24" height="24" viewBox="0 0 24 24" fill="none" xmlns="http://www.w3.org/2000/svg">
<path d="M23.031 6.9693L20.031 3.9693C19.8903 3.82857 19.6994 3.74951 19.5004 3.74951C19.3013 3.74951 19.1105 3.82857 18.9697 3.9693C18.829 4.11003 18.75 4.30091 18.75 4.49993C18.75 4.69895 18.829 4.88982 18.9697 5.03055L20.6901 6.74993H18.0004C17.0815 6.78323 16.1783 6.99764 15.3426 7.38087C14.0657 7.97055 12.4522 9.22868 12.0107 11.8809C11.5119 14.8752 9.28256 15.5577 8.16693 15.7115C7.97023 14.8035 7.44347 14.0008 6.68873 13.4591C5.93399 12.9173 5.00501 12.675 4.0818 12.7791C3.1586 12.8832 2.3069 13.3263 1.69174 14.0225C1.07659 14.7187 0.741777 15.6185 0.752189 16.5475C0.762601 17.4765 1.11749 18.3686 1.7481 19.0508C2.37871 19.7331 3.24012 20.157 4.16543 20.2403C5.09074 20.3237 6.01405 20.0606 6.75646 19.5021C7.49886 18.9435 8.0075 18.1293 8.18381 17.2171C8.85808 17.1403 9.51681 16.9617 10.1376 16.6874C11.4144 16.1249 13.0316 14.8687 13.4901 12.1227C14.1238 8.32212 17.8447 8.24993 18.0004 8.24993H20.6901L18.9697 9.9693C18.829 10.11 18.75 10.3009 18.75 10.4999C18.75 10.699 18.829 10.8898 18.9697 11.0306C19.1105 11.1713 19.3013 11.2503 19.5004 11.2503C19.6994 11.2503 19.8903 11.1713 20.031 11.0306L23.031 8.03055C23.1007 7.9609 23.156 7.87818 23.1938 7.78713C23.2315 7.69608 23.251 7.59849 23.251 7.49993C23.251 7.40137 23.2315 7.30377 23.1938 7.21272C23.156 7.12167 23.1007 7.03896 23.031 6.9693ZM4.50037 18.7499C4.05536 18.7499 3.62035 18.618 3.25034 18.3707C2.88033 18.1235 2.59194 17.7721 2.42164 17.361C2.25135 16.9498 2.20679 16.4974 2.29361 16.061C2.38042 15.6245 2.59471 15.2236 2.90938 14.9089C3.22405 14.5943 3.62496 14.38 4.06142 14.2932C4.49788 14.2063 4.95028 14.2509 5.36141 14.4212C5.77254 14.5915 6.12395 14.8799 6.37118 15.2499C6.61841 15.6199 6.75037 16.0549 6.75037 16.4999C6.75037 17.0967 6.51332 17.669 6.09136 18.0909C5.66941 18.5129 5.09711 18.7499 4.50037 18.7499Z" fill="black"/>
</svg>
