<svg width="24" height="24" viewBox="0 0 24 24" fill="none" xmlns="http://www.w3.org/2000/svg">
<path d="M19.72 12.1275C19.644 12.0835 19.5606 12.0413 19.4744 12C19.5606 11.9588 19.644 11.9166 19.72 11.8725C20.1499 11.6281 20.5272 11.3011 20.8302 10.9102C21.1332 10.5193 21.3559 10.0724 21.4855 9.59515C21.6151 9.11787 21.649 8.61968 21.5852 8.12926C21.5215 7.63883 21.3614 7.16586 21.1141 6.73757C20.8668 6.30928 20.5373 5.93413 20.1444 5.63373C19.7515 5.33332 19.3032 5.11359 18.825 4.98718C18.3469 4.86077 17.8485 4.83018 17.3585 4.89718C16.8685 4.96418 16.3966 5.12743 15.97 5.37755C15.894 5.42161 15.8153 5.4713 15.7375 5.52661C15.745 5.43286 15.7497 5.33911 15.7497 5.24536C15.7497 4.2508 15.3546 3.29697 14.6513 2.59371C13.9481 1.89045 12.9942 1.49536 11.9997 1.49536C11.0051 1.49536 10.0513 1.89045 9.34802 2.59371C8.64475 3.29697 8.24967 4.2508 8.24967 5.24536C8.24967 5.33349 8.24967 5.42724 8.26185 5.52661C8.18404 5.47317 8.10529 5.42161 8.02935 5.37755C7.60271 5.12743 7.13081 4.96418 6.64082 4.89718C6.15083 4.83018 5.65243 4.86077 5.17431 4.98718C4.69618 5.11359 4.24779 5.33332 3.85493 5.63373C3.46208 5.93413 3.13252 6.30928 2.88524 6.73757C2.63796 7.16586 2.47784 7.63883 2.41409 8.12926C2.35035 8.61968 2.38424 9.11787 2.51382 9.59515C2.64339 10.0724 2.8661 10.5193 3.1691 10.9102C3.47211 11.3011 3.84943 11.6281 4.27935 11.8725C4.35529 11.9166 4.43873 11.9588 4.52498 12C4.43873 12.0413 4.35529 12.0835 4.27935 12.1275C3.84943 12.372 3.47211 12.699 3.1691 13.0899C2.8661 13.4808 2.64339 13.9277 2.51382 14.405C2.38424 14.8822 2.35035 15.3804 2.41409 15.8708C2.47784 16.3613 2.63796 16.8342 2.88524 17.2625C3.13252 17.6908 3.46208 18.066 3.85493 18.3664C4.24779 18.6668 4.69618 18.8865 5.17431 19.0129C5.65243 19.1393 6.15083 19.1699 6.64082 19.1029C7.13081 19.0359 7.60271 18.8727 8.02935 18.6225C8.10529 18.5785 8.18404 18.5288 8.26185 18.4735C8.25435 18.5672 8.24967 18.661 8.24967 18.75C8.24967 19.7446 8.64475 20.6984 9.34802 21.4017C10.0513 22.105 11.0051 22.5 11.9997 22.5C12.9942 22.5 13.9481 22.105 14.6513 21.4017C15.3546 20.6984 15.7497 19.7446 15.7497 18.75C15.7497 18.6619 15.745 18.5682 15.7375 18.4735C15.8153 18.5269 15.894 18.5785 15.97 18.6225C16.538 18.9516 17.1829 19.125 17.8394 19.125C18.1692 19.1246 18.4976 19.0811 18.8162 18.9957C19.5326 18.8037 20.176 18.4035 20.665 17.8458C21.154 17.2881 21.4666 16.598 21.5634 15.8626C21.6601 15.1273 21.5366 14.3797 21.2085 13.7145C20.8804 13.0494 20.3624 12.4964 19.72 12.1257V12.1275ZM9.74967 12C9.74967 11.555 9.88163 11.12 10.1289 10.75C10.3761 10.38 10.7275 10.0916 11.1386 9.92132C11.5498 9.75102 12.0022 9.70647 12.4386 9.79328C12.8751 9.8801 13.276 10.0944 13.5907 10.4091C13.9053 10.7237 14.1196 11.1246 14.2064 11.5611C14.2933 11.9976 14.2487 12.45 14.0784 12.8611C13.9081 13.2722 13.6197 13.6236 13.2497 13.8709C12.8797 14.1181 12.4447 14.25 11.9997 14.25C11.4029 14.25 10.8306 14.013 10.4087 13.591C9.98672 13.1691 9.74967 12.5968 9.74967 12ZM16.72 6.67599C16.9759 6.52825 17.2584 6.43236 17.5513 6.3938C17.8443 6.35523 18.1419 6.37474 18.4273 6.45122C18.7128 6.5277 18.9803 6.65964 19.2147 6.83952C19.4491 7.0194 19.6458 7.24369 19.7936 7.49958C19.9413 7.75547 20.0372 8.03796 20.0758 8.33091C20.1143 8.62386 20.0948 8.92154 20.0183 9.20695C19.9419 9.49236 19.8099 9.75991 19.63 9.99433C19.4502 10.2287 19.2259 10.4254 18.97 10.5732C18.3822 10.9135 17.2253 11.1479 15.6737 11.2472C15.5101 10.4535 15.0936 9.73415 14.4869 9.19692C15.3494 7.9013 16.1322 7.0163 16.72 6.67599ZM11.9997 3.00005C12.5964 3.00005 13.1687 3.2371 13.5907 3.65906C14.0126 4.08102 14.2497 4.65331 14.2497 5.25005C14.2497 5.9288 13.8747 7.04911 13.1847 8.44317C12.4156 8.18568 11.5837 8.18568 10.8147 8.44317C10.1247 7.04911 9.74967 5.9288 9.74967 5.25005C9.74967 4.65331 9.98672 4.08102 10.4087 3.65906C10.8306 3.2371 11.4029 3.00005 11.9997 3.00005ZM4.20529 7.50005C4.35299 7.24405 4.54967 7.01966 4.78411 6.83969C5.01854 6.65973 5.28614 6.52771 5.57161 6.45118C5.85708 6.37466 6.15482 6.35512 6.44784 6.3937C6.74086 6.43227 7.02341 6.52819 7.27935 6.67599C7.86717 7.0163 8.64998 7.9013 9.51248 9.19692C8.90517 9.73489 8.48872 10.4553 8.3256 11.25C6.77404 11.1507 5.61717 10.9163 5.02935 10.5769C4.77298 10.4292 4.54826 10.2324 4.36805 9.99776C4.18784 9.7631 4.05568 9.49521 3.97914 9.20941C3.90259 8.92361 3.88317 8.62552 3.92197 8.33221C3.96078 8.03889 4.05706 7.75611 4.20529 7.50005ZM7.27935 17.3241C6.76256 17.6225 6.1484 17.7033 5.57199 17.5489C4.99558 17.3944 4.50413 17.0173 4.20576 16.5005C3.90739 15.9837 3.82654 15.3696 3.981 14.7931C4.13545 14.2167 4.51256 13.7253 5.02935 13.4269C5.61717 13.0866 6.77404 12.8522 8.3256 12.7529C8.48928 13.5466 8.9057 14.2659 9.51248 14.8032C8.64998 16.0988 7.86717 16.9838 7.27935 17.3241ZM11.9997 21C11.4029 21 10.8306 20.763 10.4087 20.341C9.98672 19.9191 9.74967 19.3468 9.74967 18.75C9.74967 18.0713 10.1247 16.951 10.8147 15.5569C11.5837 15.8144 12.4156 15.8144 13.1847 15.5569C13.8747 16.951 14.2497 18.0713 14.2497 18.75C14.2497 19.3468 14.0126 19.9191 13.5907 20.341C13.1687 20.763 12.5964 21 11.9997 21ZM19.794 16.5C19.6463 16.756 19.4497 16.9804 19.2152 17.1604C18.9808 17.3404 18.7132 17.4724 18.4277 17.5489C18.1423 17.6254 17.8445 17.645 17.5515 17.6064C17.2585 17.5678 16.9759 17.4719 16.72 17.3241C16.1322 16.9838 15.3494 16.0988 14.4869 14.8032C15.0942 14.2652 15.5106 13.5448 15.6737 12.75C17.2253 12.8494 18.3822 13.0838 18.97 13.4232C19.2264 13.5709 19.4511 13.7677 19.6313 14.0023C19.8115 14.237 19.9437 14.5049 20.0202 14.7907C20.0967 15.0765 20.1162 15.3746 20.0774 15.6679C20.0386 15.9612 19.9423 16.244 19.794 16.5Z" fill="black"/>
</svg>
