<svg width="24" height="24" viewBox="0 0 24 24" fill="none" xmlns="http://www.w3.org/2000/svg">
<path d="M15 13.5C15 13.6989 14.921 13.8897 14.7803 14.0303C14.6397 14.171 14.4489 14.25 14.25 14.25H9.75C9.55109 14.25 9.36032 14.171 9.21967 14.0303C9.07902 13.8897 9 13.6989 9 13.5C9 13.3011 9.07902 13.1103 9.21967 12.9697C9.36032 12.829 9.55109 12.75 9.75 12.75H14.25C14.4489 12.75 14.6397 12.829 14.7803 12.9697C14.921 13.1103 15 13.3011 15 13.5ZM21.75 8.25V18.8334C21.7495 19.209 21.6001 19.569 21.3346 19.8346C21.069 20.1001 20.709 20.2495 20.3334 20.25H3.75C3.35218 20.25 2.97064 20.092 2.68934 19.8107C2.40804 19.5294 2.25 19.1478 2.25 18.75V6C2.25 5.60218 2.40804 5.22064 2.68934 4.93934C2.97064 4.65804 3.35218 4.5 3.75 4.5H8.74969C9.07411 4.5008 9.38967 4.60599 9.64969 4.8L12.2503 6.75H20.25C20.6478 6.75 21.0294 6.90804 21.3107 7.18934C21.592 7.47064 21.75 7.85218 21.75 8.25ZM20.25 8.25H12.2503C11.9259 8.2492 11.6103 8.14401 11.3503 7.95L8.74969 6H3.75V18.75H20.25V8.25Z" fill="black"/>
</svg>
