<svg width="24" height="24" viewBox="0 0 24 24" fill="none" xmlns="http://www.w3.org/2000/svg">
<path d="M12 11.25C12.1989 11.25 12.3897 11.329 12.5303 11.4697C12.671 11.6103 12.75 11.8011 12.75 12V13.5H14.25C14.4489 13.5 14.6397 13.579 14.7803 13.7197C14.921 13.8603 15 14.0511 15 14.25C15 14.4489 14.921 14.6397 14.7803 14.7803C14.6397 14.921 14.4489 15 14.25 15H12.75V16.5C12.75 16.6989 12.671 16.8897 12.5303 17.0303C12.3897 17.171 12.1989 17.25 12 17.25C11.8011 17.25 11.6103 17.171 11.4697 17.0303C11.329 16.8897 11.25 16.6989 11.25 16.5V15H9.75C9.55109 15 9.36032 14.921 9.21967 14.7803C9.07902 14.6397 9 14.4489 9 14.25C9 14.0511 9.07902 13.8603 9.21967 13.7197C9.36032 13.579 9.55109 13.5 9.75 13.5H11.25V12C11.25 11.8011 11.329 11.6103 11.4697 11.4697C11.6103 11.329 11.8011 11.25 12 11.25ZM21.75 8.25V18.75C21.75 19.1478 21.592 19.5294 21.3107 19.8107C21.0294 20.092 20.6478 20.25 20.25 20.25H3.75C3.35218 20.25 2.97064 20.092 2.68934 19.8107C2.40804 19.5294 2.25 19.1478 2.25 18.75V6C2.25 5.60218 2.40804 5.22064 2.68934 4.93934C2.97064 4.65804 3.35218 4.5 3.75 4.5H8.74969C9.07411 4.5008 9.38967 4.60599 9.64969 4.8L12.2503 6.75H20.25C20.6478 6.75 21.0294 6.90804 21.3107 7.18934C21.592 7.47064 21.75 7.85218 21.75 8.25ZM3.75 9H8.74969L10.7503 7.5L8.74969 6H3.75V9ZM20.25 8.25H12.2503L9.64969 10.2C9.38967 10.394 9.07411 10.4992 8.74969 10.5H3.75V18.75H20.25V8.25Z" fill="black"/>
</svg>
