<svg width="24" height="24" viewBox="0 0 24 24" fill="none" xmlns="http://www.w3.org/2000/svg">
<path d="M19.4998 9V3C19.4998 2.80109 19.4208 2.61032 19.2801 2.46967C19.1395 2.32902 18.9487 2.25 18.7498 2.25H5.24978C5.09729 2.24965 4.94832 2.29579 4.82272 2.38226C4.69712 2.46874 4.60087 2.59145 4.54679 2.73402C4.49272 2.8766 4.48338 3.03228 4.52004 3.1803C4.5567 3.32831 4.6376 3.46164 4.75197 3.5625L10.031 8.25H5.24978C5.05087 8.25 4.86011 8.32902 4.71945 8.46967C4.5788 8.61032 4.49978 8.80109 4.49978 9V15C4.49971 15.0985 4.51904 15.1961 4.55668 15.2871C4.59432 15.3782 4.64953 15.4609 4.71916 15.5306L11.4692 22.2806C11.574 22.3856 11.7077 22.4572 11.8533 22.4861C11.9989 22.5151 12.1498 22.5003 12.2869 22.4435C12.424 22.3867 12.5412 22.2904 12.6236 22.167C12.706 22.0435 12.7499 21.8984 12.7498 21.75V15.75H18.7498C18.9023 15.7504 19.0512 15.7042 19.1768 15.6177C19.3024 15.5313 19.3987 15.4086 19.4528 15.266C19.5069 15.1234 19.5162 14.9677 19.4795 14.8197C19.4429 14.6717 19.362 14.5384 19.2476 14.4375L13.9685 9.75H18.7498C18.9487 9.75 19.1395 9.67098 19.2801 9.53033C19.4208 9.38968 19.4998 9.19891 19.4998 9ZM16.781 14.25H11.9998C11.8009 14.25 11.6101 14.329 11.4695 14.4697C11.3288 14.6103 11.2498 14.8011 11.2498 15V19.9397L5.99978 14.6897V9.75H11.7185L16.781 14.25ZM17.9998 8.25H12.281L7.21853 3.75H17.9998V8.25Z" fill="black"/>
</svg>
