<svg width="24" height="24" viewBox="0 0 24 24" fill="none" xmlns="http://www.w3.org/2000/svg">
<path d="M22.8122 10.9394L21.3122 9.43942C21.0578 9.18531 20.7206 9.03104 20.362 9.00471C20.0034 8.97839 19.6473 9.08175 19.3585 9.29598L14.7047 4.64223C14.9191 4.35356 15.0226 3.99749 14.9965 3.63889C14.9703 3.28028 14.8162 2.943 14.5622 2.68848L13.0622 1.18848C12.923 1.04916 12.7576 0.93864 12.5756 0.863237C12.3936 0.787833 12.1985 0.749023 12.0015 0.749023C11.8045 0.749023 11.6094 0.787833 11.4274 0.863237C11.2454 0.93864 11.08 1.04916 10.9407 1.18848L4.94069 7.18848C4.80136 7.32778 4.69084 7.49315 4.61544 7.67516C4.54004 7.85717 4.50122 8.05225 4.50122 8.24927C4.50122 8.44628 4.54004 8.64136 4.61544 8.82337C4.69084 9.00538 4.80136 9.17075 4.94069 9.31005L6.44069 10.81C6.69515 11.0638 7.03224 11.2177 7.39063 11.2439C7.74903 11.27 8.1049 11.1666 8.3935 10.9525L9.06569 11.6247L2.93631 17.7541C2.5291 18.1995 2.30936 18.7847 2.32285 19.3881C2.33634 19.9914 2.58202 20.5662 3.00873 20.9929C3.43545 21.4196 4.01031 21.6653 4.61362 21.6788C5.21693 21.6923 5.8022 21.4726 6.24756 21.0654L12.376 14.936L13.0482 15.6072C12.8338 15.8959 12.7303 16.252 12.7565 16.6106C12.7826 16.9692 12.9367 17.3065 13.1907 17.561L14.6907 19.061C14.83 19.2003 14.9954 19.3108 15.1774 19.3862C15.3594 19.4616 15.5545 19.5004 15.7515 19.5004C15.9485 19.5004 16.1436 19.4616 16.3256 19.3862C16.5076 19.3108 16.673 19.2003 16.8122 19.061L22.8122 13.061C22.9516 12.9217 23.0621 12.7563 23.1375 12.5743C23.2129 12.3923 23.2517 12.1972 23.2517 12.0002C23.2517 11.8032 23.2129 11.6081 23.1375 11.4261C23.0621 11.2441 22.9516 11.0787 22.8122 10.9394ZM7.501 9.74973L6.001 8.24973L12.001 2.24973L13.501 3.74973L7.501 9.74973ZM5.18725 20.0041C5.02916 20.1613 4.81531 20.2495 4.5924 20.2495C4.3695 20.2495 4.15565 20.1613 3.99756 20.0041C3.8407 19.8461 3.75267 19.6324 3.75267 19.4097C3.75267 19.1871 3.8407 18.9734 3.99756 18.8154L10.126 12.686L11.3157 13.8747L5.18725 20.0041ZM9.46975 9.90536L13.6566 5.71848L18.2822 10.3441L14.0963 14.531L9.46975 9.90536ZM15.751 17.9997L14.251 16.4997L14.626 16.1247L19.876 10.8747L20.251 10.4997L21.751 11.9997L15.751 17.9997Z" fill="black"/>
</svg>
