<svg width="24" height="24" viewBox="0 0 24 24" fill="none" xmlns="http://www.w3.org/2000/svg">
<path d="M20.249 3H15.749C15.5501 3 15.3593 3.07902 15.2187 3.21967C15.078 3.36032 14.999 3.55109 14.999 3.75C14.999 3.94891 15.078 4.13968 15.2187 4.28033C15.3593 4.42098 15.5501 4.5 15.749 4.5H18.4387L14.4946 8.44406C13.0049 7.22632 11.104 6.62773 9.18532 6.77209C7.2666 6.91646 5.47676 7.79275 4.18598 9.21971C2.89521 10.6467 2.20224 12.5151 2.2504 14.4387C2.29856 16.3622 3.08417 18.1937 4.44475 19.5543C5.80532 20.9148 7.63678 21.7004 9.56032 21.7486C11.4839 21.7968 13.3523 21.1038 14.7793 19.813C16.2063 18.5222 17.0825 16.7324 17.2269 14.8137C17.3713 12.895 16.7727 10.9941 15.5549 9.50437L19.499 5.56125V8.25C19.499 8.44891 19.578 8.63968 19.7187 8.78033C19.8593 8.92098 20.0501 9 20.249 9C20.4479 9 20.6387 8.92098 20.7793 8.78033C20.92 8.63968 20.999 8.44891 20.999 8.25V3.75C20.999 3.55109 20.92 3.36032 20.7793 3.21967C20.6387 3.07902 20.4479 3 20.249 3ZM13.9903 18.4959C13.151 19.3348 12.0819 19.906 10.9181 20.1373C9.7543 20.3685 8.54804 20.2496 7.45184 19.7954C6.35564 19.3412 5.41873 18.5721 4.75956 17.5855C4.10039 16.5988 3.74857 15.4389 3.74857 14.2523C3.74857 13.0658 4.10039 11.9058 4.75956 10.9192C5.41873 9.93257 6.35564 9.16353 7.45184 8.70932C8.54804 8.25512 9.7543 8.13614 10.9181 8.36743C12.0819 8.59873 13.151 9.1699 13.9903 10.0087C15.1138 11.1353 15.7447 12.6613 15.7447 14.2523C15.7447 15.8433 15.1138 17.3694 13.9903 18.4959Z" fill="black"/>
</svg>
