<svg width="24" height="24" viewBox="0 0 24 24" fill="none" xmlns="http://www.w3.org/2000/svg">
<path d="M12.75 9.04308V5.82464L15.3638 7.39308C15.4482 7.4438 15.5418 7.4774 15.6393 7.49194C15.7367 7.50648 15.8361 7.50169 15.9316 7.47783C16.0272 7.45398 16.1172 7.41154 16.1964 7.35292C16.2755 7.2943 16.3424 7.22066 16.3931 7.13621C16.4439 7.05175 16.4774 6.95813 16.492 6.86069C16.5065 6.76325 16.5017 6.66391 16.4779 6.56832C16.454 6.47273 16.4116 6.38278 16.353 6.3036C16.2944 6.22442 16.2207 6.15755 16.1363 6.10683L13.4578 4.49996L16.1363 2.89308C16.2207 2.84236 16.2944 2.7755 16.353 2.69632C16.4116 2.61713 16.454 2.52718 16.4779 2.4316C16.5017 2.33601 16.5065 2.23666 16.492 2.13922C16.4774 2.04178 16.4439 1.94816 16.3931 1.86371C16.3424 1.77925 16.2755 1.70561 16.1964 1.647C16.1172 1.58838 16.0272 1.54593 15.9316 1.52208C15.8361 1.49823 15.7367 1.49343 15.6393 1.50798C15.5418 1.52252 15.4482 1.55611 15.3638 1.60683L12 3.62527L8.63626 1.60683C8.46569 1.50439 8.26142 1.47391 8.06837 1.52208C7.87533 1.57025 7.70932 1.69314 7.60688 1.86371C7.50444 2.03427 7.47396 2.23855 7.52213 2.4316C7.5703 2.62464 7.69319 2.79064 7.86376 2.89308L10.5422 4.49996L7.86376 6.10683C7.69319 6.20927 7.5703 6.37527 7.52213 6.56832C7.47396 6.76136 7.50444 6.96564 7.60688 7.13621C7.70932 7.30677 7.87533 7.42966 8.06837 7.47783C8.26142 7.52601 8.46569 7.49552 8.63626 7.39308L11.25 5.82464V9.04308C9.5355 9.23477 7.95946 10.0757 6.84556 11.3931C5.73167 12.7104 5.16447 14.4043 5.26047 16.1269C5.35646 17.8494 6.10835 19.4698 7.36173 20.6552C8.6151 21.8407 10.2748 22.5013 12 22.5013C13.7252 22.5013 15.3849 21.8407 16.6383 20.6552C17.8917 19.4698 18.6436 17.8494 18.7396 16.1269C18.8355 14.4043 18.2683 12.7104 17.1545 11.3931C16.0406 10.0757 14.4645 9.23477 12.75 9.04308ZM12 21C10.9617 21 9.94662 20.692 9.08326 20.1152C8.21991 19.5383 7.547 18.7184 7.14964 17.759C6.75228 16.7997 6.64831 15.7441 6.85089 14.7257C7.05346 13.7073 7.55347 12.7719 8.2877 12.0376C9.02192 11.3034 9.95738 10.8034 10.9758 10.6008C11.9942 10.3983 13.0498 10.5022 14.0091 10.8996C14.9684 11.2969 15.7883 11.9699 16.3652 12.8332C16.9421 13.6966 17.25 14.7116 17.25 15.75C17.2485 17.1419 16.6949 18.4764 15.7107 19.4606C14.7264 20.4449 13.3919 20.9985 12 21Z" fill="black"/>
</svg>
