<svg width="24" height="24" viewBox="0 0 24 24" fill="none" xmlns="http://www.w3.org/2000/svg">
<path d="M19.4986 10.5001C18.8335 10.5008 18.1874 10.722 17.6615 11.1291C17.1356 11.5363 16.7596 12.1064 16.5924 12.7501H14.2486C13.6667 12.7488 13.093 12.6126 12.5725 12.3524C12.052 12.0921 11.5989 11.7148 11.2486 11.2501L8.78208 7.96138C9.41969 7.65885 9.93023 7.14123 10.2239 6.49952C10.5177 5.8578 10.5757 5.13309 10.388 4.45279C10.2002 3.77249 9.7786 3.18017 9.1973 2.77997C8.61601 2.37977 7.91223 2.19731 7.20972 2.26468C6.50721 2.33205 5.85094 2.64493 5.35629 3.14831C4.86165 3.65169 4.5603 4.31334 4.50524 5.01692C4.45018 5.72051 4.64493 6.42098 5.05524 6.99518C5.46556 7.56938 6.06517 7.98054 6.74865 8.15638V15.8439C6.04165 16.0264 5.4255 16.4605 5.0157 17.0649C4.60589 17.6692 4.43055 18.4023 4.52256 19.1266C4.61456 19.851 4.96759 20.5169 5.51547 20.9996C6.06335 21.4823 6.76847 21.7486 7.49865 21.7486C8.22883 21.7486 8.93394 21.4823 9.48182 20.9996C10.0297 20.5169 10.3827 19.851 10.4747 19.1266C10.5667 18.4023 10.3914 17.6692 9.9816 17.0649C9.57179 16.4605 8.95564 16.0264 8.24865 15.8439V9.75013L10.0486 12.1501C10.539 12.8008 11.1734 13.329 11.9021 13.6933C12.6308 14.0577 13.4339 14.2482 14.2486 14.2501H16.5924C16.7327 14.7933 17.0224 15.2864 17.4288 15.6732C17.8352 16.06 18.3419 16.3251 18.8914 16.4383C19.4409 16.5516 20.0111 16.5085 20.5373 16.314C21.0636 16.1195 21.5247 15.7813 21.8684 15.3378C22.2121 14.8944 22.4245 14.3635 22.4816 13.8053C22.5386 13.2472 22.4381 12.6843 22.1913 12.1804C21.9445 11.6766 21.5613 11.252 21.0854 10.955C20.6094 10.658 20.0597 10.5004 19.4986 10.5001ZM5.99865 5.25013C5.99865 4.95345 6.08662 4.66344 6.25144 4.41677C6.41626 4.1701 6.65053 3.97784 6.92462 3.86431C7.19871 3.75078 7.50031 3.72107 7.79128 3.77895C8.08225 3.83683 8.34953 3.97969 8.55931 4.18947C8.76909 4.39924 8.91195 4.66652 8.96982 4.95749C9.0277 5.24846 8.998 5.55006 8.88447 5.82415C8.77094 6.09824 8.57868 6.33251 8.332 6.49733C8.08533 6.66215 7.79532 6.75013 7.49865 6.75013C7.10082 6.75013 6.71929 6.59209 6.43799 6.31079C6.15668 6.02948 5.99865 5.64795 5.99865 5.25013ZM8.99865 18.7501C8.99865 19.0468 8.91067 19.3368 8.74585 19.5835C8.58103 19.8302 8.34676 20.0224 8.07267 20.1359C7.79858 20.2495 7.49698 20.2792 7.20601 20.2213C6.91504 20.1634 6.64777 20.0206 6.43799 19.8108C6.22821 19.601 6.08535 19.3337 6.02747 19.0428C5.96959 18.7518 5.9993 18.4502 6.11283 18.1761C6.22636 17.902 6.41862 17.6677 6.66529 17.5029C6.91197 17.3381 7.20197 17.2501 7.49865 17.2501C7.89647 17.2501 8.278 17.4082 8.55931 17.6895C8.84061 17.9708 8.99865 18.3523 8.99865 18.7501ZM19.4986 15.0001C19.202 15.0001 18.912 14.9122 18.6653 14.7473C18.4186 14.5825 18.2264 14.3482 18.1128 14.0742C17.9993 13.8001 17.9696 13.4985 18.0275 13.2075C18.0853 12.9165 18.2282 12.6492 18.438 12.4395C18.6478 12.2297 18.915 12.0868 19.206 12.0289C19.497 11.9711 19.7986 12.0008 20.0727 12.1143C20.3468 12.2278 20.581 12.4201 20.7459 12.6668C20.9107 12.9134 20.9986 13.2035 20.9986 13.5001C20.9986 13.898 20.8406 14.2795 20.5593 14.5608C20.278 14.8421 19.8965 15.0001 19.4986 15.0001Z" fill="black"/>
</svg>
