<svg width="24" height="24" viewBox="0 0 24 24" fill="none" xmlns="http://www.w3.org/2000/svg">
<path d="M10.5 14.25C10.3011 14.25 10.1103 14.329 9.96968 14.4696C9.82903 14.6103 9.75001 14.801 9.75001 15V17.6896L7.09876 15.0375C6.7493 14.6902 6.47224 14.2771 6.28364 13.822C6.09503 13.3669 5.99862 12.8788 6.00001 12.3862V8.9062C6.707 8.72366 7.32315 8.28953 7.73296 7.6852C8.14277 7.08086 8.3181 6.34781 8.2261 5.62345C8.13409 4.89909 7.78106 4.23315 7.23318 3.75046C6.6853 3.26777 5.98019 3.00146 5.25001 3.00146C4.51983 3.00146 3.81471 3.26777 3.26683 3.75046C2.71895 4.23315 2.36592 4.89909 2.27392 5.62345C2.18191 6.34781 2.35725 7.08086 2.76706 7.6852C3.17687 8.28953 3.79301 8.72366 4.50001 8.9062V12.3871C4.49826 13.0768 4.63324 13.7601 4.89715 14.3973C5.16105 15.0345 5.54864 15.6131 6.03751 16.0996L8.6897 18.75H6.00001C5.8011 18.75 5.61033 18.829 5.46968 18.9696C5.32903 19.1103 5.25001 19.301 5.25001 19.5C5.25001 19.6989 5.32903 19.8896 5.46968 20.0303C5.61033 20.1709 5.8011 20.25 6.00001 20.25H10.5C10.6989 20.25 10.8897 20.1709 11.0303 20.0303C11.171 19.8896 11.25 19.6989 11.25 19.5V15C11.25 14.801 11.171 14.6103 11.0303 14.4696C10.8897 14.329 10.6989 14.25 10.5 14.25ZM3.75001 5.99995C3.75001 5.70328 3.83798 5.41327 4.0028 5.1666C4.16763 4.91992 4.40189 4.72766 4.67598 4.61413C4.95007 4.5006 5.25167 4.4709 5.54264 4.52877C5.83361 4.58665 6.10089 4.72951 6.31067 4.93929C6.52045 5.14907 6.66331 5.41635 6.72119 5.70732C6.77906 5.99829 6.74936 6.29989 6.63583 6.57398C6.5223 6.84807 6.33004 7.08233 6.08336 7.24716C5.83669 7.41198 5.54668 7.49995 5.25001 7.49995C4.85218 7.49995 4.47065 7.34192 4.18935 7.06061C3.90804 6.77931 3.75001 6.39778 3.75001 5.99995ZM19.5 15.0937V11.6137C19.5018 10.924 19.3668 10.2408 19.1029 9.60355C18.839 8.96633 18.4514 8.38773 17.9625 7.9012L15.3103 5.24995H18C18.1989 5.24995 18.3897 5.17093 18.5303 5.03028C18.671 4.88963 18.75 4.69886 18.75 4.49995C18.75 4.30104 18.671 4.11027 18.5303 3.96962C18.3897 3.82897 18.1989 3.74995 18 3.74995H13.5C13.3011 3.74995 13.1103 3.82897 12.9697 3.96962C12.829 4.11027 12.75 4.30104 12.75 4.49995V8.99995C12.75 9.19886 12.829 9.38963 12.9697 9.53028C13.1103 9.67093 13.3011 9.74995 13.5 9.74995C13.6989 9.74995 13.8897 9.67093 14.0303 9.53028C14.171 9.38963 14.25 9.19886 14.25 8.99995V6.31026L16.9013 8.96245C17.2507 9.30969 17.5278 9.72284 17.7164 10.1779C17.905 10.633 18.0014 11.1211 18 11.6137V15.0937C17.293 15.2762 16.6769 15.7104 16.2671 16.3147C15.8572 16.919 15.6819 17.6521 15.7739 18.3765C15.8659 19.1008 16.219 19.7668 16.7668 20.2494C17.3147 20.7321 18.0198 20.9984 18.75 20.9984C19.4802 20.9984 20.1853 20.7321 20.7332 20.2494C21.2811 19.7668 21.6341 19.1008 21.7261 18.3765C21.8181 17.6521 21.6428 16.919 21.233 16.3147C20.8232 15.7104 20.207 15.2762 19.5 15.0937ZM18.75 19.5C18.4533 19.5 18.1633 19.412 17.9167 19.2472C17.67 19.0823 17.4777 18.8481 17.3642 18.574C17.2507 18.2999 17.221 17.9983 17.2788 17.7073C17.3367 17.4163 17.4796 17.1491 17.6893 16.9393C17.8991 16.7295 18.1664 16.5867 18.4574 16.5288C18.7483 16.4709 19.0499 16.5006 19.324 16.6141C19.5981 16.7277 19.8324 16.9199 19.9972 17.1666C20.162 17.4133 20.25 17.7033 20.25 18C20.25 18.3978 20.092 18.7793 19.8107 19.0606C19.5294 19.3419 19.1478 19.5 18.75 19.5Z" fill="black"/>
</svg>
