<svg width="24" height="24" viewBox="0 0 24 24" fill="none" xmlns="http://www.w3.org/2000/svg">
<path d="M21.5768 10.978L19.7112 3.84362C19.6518 3.61191 19.5198 3.40531 19.3344 3.25411C19.1491 3.1029 18.9202 3.01504 18.6813 3.0034C18.4423 2.99177 18.206 3.05697 18.0068 3.18944C17.8077 3.32192 17.6562 3.51471 17.5746 3.73956L15.9171 8.24987H8.08334L6.42584 3.73768C6.34406 3.51287 6.19241 3.32018 5.99313 3.18784C5.79384 3.05551 5.5574 2.9905 5.31847 3.00235C5.07955 3.0142 4.8507 3.10228 4.66548 3.25367C4.48026 3.40507 4.34842 3.61182 4.28928 3.84362L2.42365 10.978C2.14811 12.028 2.19776 13.1368 2.56604 14.1579C2.93431 15.1791 3.60387 16.0644 4.48615 16.6967L11.3552 21.5492C11.5436 21.6823 11.7686 21.7537 11.9993 21.7537C12.2299 21.7537 12.4549 21.6823 12.6433 21.5492L19.5124 16.6967C20.395 16.0646 21.065 15.1794 21.4336 14.1583C21.8022 13.1371 21.8521 12.0281 21.5768 10.978ZM18.648 15.4686L12.0002 20.1646L5.3524 15.4686C4.71932 15.0134 4.23925 14.3768 3.97562 13.643C3.71198 12.9092 3.67719 12.1126 3.87584 11.3586L5.43772 5.3905L6.85615 9.25862C6.90912 9.40272 7.00503 9.5271 7.13094 9.61495C7.25685 9.7028 7.40669 9.74989 7.56022 9.74987H16.4402C16.5937 9.74989 16.7436 9.7028 16.8695 9.61495C16.9954 9.5271 17.0913 9.40272 17.1443 9.25862L18.5627 5.3905L20.1218 11.3577C20.3209 12.1116 20.2867 12.9081 20.0235 13.6421C19.7604 14.3761 19.2808 15.013 18.648 15.4686Z" fill="black"/>
</svg>
