<svg width="24" height="24" viewBox="0 0 24 24" fill="none" xmlns="http://www.w3.org/2000/svg">
<path d="M5.05519 3.24556C4.98932 3.17131 4.90938 3.11088 4.81999 3.06776C4.7306 3.02464 4.63354 2.99969 4.53443 2.99436C4.43533 2.98903 4.33615 3.00342 4.24265 3.0367C4.14915 3.06998 4.06318 3.12149 3.98973 3.18824C3.91628 3.25499 3.85681 3.33565 3.81477 3.42555C3.77272 3.51545 3.74894 3.61281 3.74479 3.71197C3.74065 3.81113 3.75623 3.91013 3.79063 4.00322C3.82503 4.09632 3.87756 4.18166 3.94519 4.25431L4.85738 5.25837C4.73863 5.25274 4.61956 5.24993 4.50019 5.24993C4.30128 5.24993 4.11051 5.32895 3.96986 5.4696C3.82921 5.61025 3.75019 5.80102 3.75019 5.99993V13.4999C3.75267 15.6872 4.62266 17.7842 6.1693 19.3308C7.71594 20.8775 9.81291 21.7475 12.0002 21.7499C14.1424 21.7516 16.2009 20.9182 17.7386 19.4268L18.9452 20.7543C19.0111 20.8286 19.091 20.889 19.1804 20.9321C19.2698 20.9752 19.3668 21.0002 19.4659 21.0055C19.5651 21.0108 19.6642 20.9964 19.7577 20.9632C19.8512 20.9299 19.9372 20.8784 20.0106 20.8116C20.0841 20.7449 20.1436 20.6642 20.1856 20.5743C20.2277 20.4844 20.2514 20.3871 20.2556 20.2879C20.2597 20.1887 20.2441 20.0897 20.2097 19.9966C20.1753 19.9035 20.1228 19.8182 20.0552 19.7456L5.05519 3.24556ZM12.7774 13.9687C12.4765 14.3923 12.2163 14.8434 12.0002 15.3159C11.3943 13.9962 10.4513 12.8594 9.26636 12.0201C8.08138 11.1807 6.69616 10.6683 5.25019 10.5346V6.79118C5.66927 6.83796 6.08299 6.92428 6.48581 7.04899L12.7774 13.9687ZM11.2502 20.2087C9.60084 20.0222 8.07776 19.2354 6.97124 17.9981C5.86471 16.7609 5.25211 15.1598 5.25019 13.4999V12.0412C6.89954 12.2277 8.42262 13.0145 9.52914 14.2517C10.6357 15.489 11.2483 17.0901 11.2502 18.7499V20.2087ZM12.7502 20.2087V18.7499C12.7508 17.4604 13.1203 16.1979 13.8152 15.1115L16.7289 18.3168C15.6522 19.3756 14.251 20.0419 12.7502 20.2087ZM20.2502 13.4999C20.2506 14.2411 20.1513 14.979 19.9549 15.6937C19.9114 15.852 19.8171 15.9917 19.6865 16.0913C19.5559 16.1909 19.3963 16.2449 19.2321 16.2449C19.1643 16.2455 19.0968 16.2367 19.0314 16.2187C18.8398 16.1659 18.6769 16.0392 18.5787 15.8664C18.4804 15.6936 18.4548 15.4888 18.5074 15.2971C18.6682 14.7116 18.7498 14.1071 18.7502 13.4999V12.0402C17.9474 12.1279 17.1672 12.3607 16.4477 12.7274C16.3596 12.7756 16.2627 12.8055 16.1628 12.8155C16.0629 12.8255 15.962 12.8154 15.8661 12.7857C15.7702 12.756 15.6812 12.7073 15.6045 12.6426C15.5277 12.5778 15.4648 12.4983 15.4193 12.4088C15.3739 12.3193 15.3468 12.2215 15.3399 12.1214C15.3329 12.0212 15.3461 11.9207 15.3787 11.8257C15.4113 11.7308 15.4627 11.6433 15.5297 11.5686C15.5967 11.4938 15.6781 11.4333 15.7689 11.3906C16.6984 10.9161 17.7106 10.6251 18.7502 10.5337V6.79212C17.8155 6.8984 16.9132 7.198 16.1005 7.67186C15.2879 8.14573 14.5827 8.7835 14.0299 9.54462C13.9721 9.62464 13.8991 9.6925 13.8151 9.74431C13.731 9.79612 13.6376 9.83088 13.5402 9.84659C13.4427 9.86231 13.3431 9.85867 13.247 9.83589C13.151 9.81311 13.0604 9.77164 12.9803 9.71384C12.9003 9.65604 12.8325 9.58304 12.7807 9.49901C12.7288 9.41499 12.6941 9.32158 12.6784 9.22412C12.6627 9.12666 12.6663 9.02706 12.6891 8.93101C12.7119 8.83496 12.7533 8.74433 12.8111 8.66431C13.4468 7.7888 14.2482 7.04663 15.1699 6.47993C14.3083 4.66868 12.6986 3.53806 12.0002 3.11243C11.1771 3.619 10.4372 4.24954 9.80644 4.98181C9.74387 5.06018 9.66622 5.12521 9.57807 5.17305C9.48993 5.22088 9.39309 5.25056 9.29328 5.26031C9.19347 5.27007 9.09272 5.25971 8.99698 5.22984C8.90124 5.19998 8.81247 5.15122 8.73591 5.08644C8.65934 5.02167 8.59655 4.9422 8.55124 4.85273C8.50593 4.76327 8.47902 4.66562 8.4721 4.56557C8.46519 4.46553 8.47841 4.36511 8.51099 4.27026C8.54356 4.17541 8.59483 4.08806 8.66175 4.01337C9.50278 3.02271 10.5199 2.19629 11.6618 1.57587C11.7659 1.52373 11.8809 1.49658 11.9974 1.49658C12.1139 1.49658 12.2288 1.52373 12.333 1.57587C12.4568 1.63774 15.1708 3.02243 16.5133 5.80868C17.4657 5.43891 18.4785 5.24944 19.5002 5.24993C19.6991 5.24993 19.8899 5.32895 20.0305 5.4696C20.1712 5.61025 20.2502 5.80102 20.2502 5.99993V13.4999Z" fill="black"/>
</svg>
