<svg width="24" height="24" viewBox="0 0 24 24" fill="none" xmlns="http://www.w3.org/2000/svg">
<path d="M19.5 5.24996C18.4783 5.24995 17.4657 5.44072 16.5141 5.81246C15.1716 3.02809 12.4594 1.64434 12.3356 1.58246C12.2314 1.53032 12.1165 1.50317 12 1.50317C11.8835 1.50317 11.7686 1.53032 11.6644 1.58246C11.5397 1.64434 8.82844 3.02809 7.48594 5.81246C6.53432 5.44072 5.52165 5.24995 4.5 5.24996C4.30109 5.24996 4.11032 5.32898 3.96967 5.46963C3.82902 5.61028 3.75 5.80105 3.75 5.99996V13.5C3.75 15.688 4.61919 17.7864 6.16637 19.3336C7.71354 20.8808 9.81196 21.75 12 21.75C14.188 21.75 16.2865 20.8808 17.8336 19.3336C19.3808 17.7864 20.25 15.688 20.25 13.5V5.99996C20.25 5.80105 20.171 5.61028 20.0303 5.46963C19.8897 5.32898 19.6989 5.24996 19.5 5.24996ZM11.25 20.2087C9.60065 20.0222 8.07757 19.2354 6.97105 17.9982C5.86452 16.7609 5.25192 15.1598 5.25 13.5V12.0412C6.89935 12.2277 8.42243 13.0145 9.52895 14.2517C10.6355 15.489 11.2481 17.0901 11.25 18.75V20.2087ZM11.25 14.0118C10.5622 13.0315 9.66922 12.2127 8.63309 11.6122C7.59697 11.0117 6.44254 10.644 5.25 10.5346V6.79121C6.89935 6.97769 8.42243 7.76452 9.52895 9.00175C10.6355 10.239 11.2481 11.8401 11.25 13.5V14.0118ZM8.82656 6.47902C9.69094 4.67809 11.3025 3.54184 12 3.1134C12.6975 3.54277 14.3091 4.67902 15.1725 6.47902C13.786 7.33708 12.6827 8.5842 12 10.065C11.3173 8.58395 10.2136 7.33677 8.82656 6.47902ZM18.75 13.5C18.7481 15.1598 18.1355 16.7609 17.029 17.9982C15.9224 19.2354 14.3994 20.0222 12.75 20.2087V18.75C12.7519 17.0901 13.3645 15.489 14.471 14.2517C15.5776 13.0145 17.1006 12.2277 18.75 12.0412V13.5ZM18.75 10.5346C17.5575 10.644 16.403 11.0117 15.3669 11.6122C14.3308 12.2127 13.4378 13.0315 12.75 14.0118V13.5C12.7519 11.8401 13.3645 10.239 14.471 9.00175C15.5776 7.76452 17.1006 6.97769 18.75 6.79121V10.5346Z" fill="black"/>
</svg>
