<svg width="24" height="24" viewBox="0 0 24 24" fill="none" xmlns="http://www.w3.org/2000/svg">
<g clip-path="url(#clip0_639_7811)">
<path d="M23.0311 3.96931L20.0311 0.969306C19.904 0.842397 19.7356 0.765306 19.5565 0.752048C19.3774 0.738789 19.1995 0.790243 19.0551 0.897056C18.9107 1.00387 18.8095 1.15895 18.7697 1.3341C18.73 1.50925 18.7545 1.69284 18.8386 1.85149L13.1743 7.51493C11.0377 6.40306 8.64519 6.49587 7.19581 7.94431C6.81332 8.32843 6.51371 8.78695 6.3155 9.29149C6.25463 9.42828 6.15533 9.54443 6.02967 9.62582C5.90401 9.7072 5.7574 9.75033 5.60769 9.74993C4.23988 9.79587 3.05206 10.2862 2.17175 11.1665C1.03925 12.3018 0.563001 13.9312 0.819876 15.7565C1.06925 17.5031 1.97581 19.2327 3.3755 20.6249C4.77519 22.0171 6.50113 22.9274 8.2505 23.1768C8.56399 23.2237 8.88041 23.2481 9.19738 23.2499C10.6336 23.2499 11.9002 22.7596 12.8311 21.8287C13.7114 20.9484 14.2018 19.7606 14.2477 18.3927C14.2475 18.2427 14.2911 18.0959 14.373 17.9702C14.4549 17.8445 14.5716 17.7454 14.7089 17.6849C15.2135 17.4868 15.6721 17.1872 16.0561 16.8046C17.5046 15.3552 17.5974 12.9609 16.4855 10.8262L22.1489 5.16181C22.3076 5.24598 22.4912 5.27042 22.6663 5.23069C22.8415 5.19096 22.9966 5.0897 23.1034 4.94532C23.2102 4.80093 23.2616 4.62301 23.2484 4.4439C23.2351 4.26479 23.158 4.09639 23.0311 3.96931ZM18.7505 6.43868L17.5618 5.24993L19.8755 2.93524L21.0652 4.12493L18.7505 6.43868ZM15.0005 15.7434C14.7614 15.9814 14.4758 16.1675 14.1614 16.2899C13.7529 16.4583 13.4023 16.742 13.1526 17.1065C12.9028 17.471 12.7647 17.9004 12.7552 18.3421C12.7214 19.3227 12.3802 20.1618 11.7774 20.7684C10.9861 21.5587 9.80863 21.8887 8.46238 21.6956C7.03175 21.4921 5.60019 20.7365 4.43206 19.5684C3.26394 18.4002 2.50831 16.9687 2.30488 15.5446C2.11738 14.1974 2.44175 13.0209 3.23206 12.2296C3.83863 11.6249 4.67769 11.2856 5.65831 11.2499C6.10011 11.2407 6.52961 11.1027 6.89413 10.8529C7.25866 10.6031 7.54238 10.2523 7.7105 9.84368C7.83237 9.52766 8.01848 9.24035 8.25706 8.99993C8.77175 8.48524 9.47581 8.23774 10.2614 8.23774C10.8795 8.24764 11.4893 8.3812 12.0549 8.63056L10.1724 10.5177C9.61042 10.5796 9.07738 10.799 8.6347 11.1507C8.19202 11.5023 7.85772 11.9719 7.67032 12.5053C7.48292 13.0387 7.45005 13.6142 7.5755 14.1654C7.70096 14.7167 7.97962 15.2213 8.37939 15.621C8.77915 16.0208 9.28374 16.2995 9.835 16.4249C10.3863 16.5504 10.9617 16.5175 11.4951 16.3301C12.0285 16.1427 12.4981 15.8084 12.8498 15.3657C13.2014 14.923 13.4208 14.39 13.4827 13.8281L15.3652 11.9456C15.9764 13.379 15.8883 14.8509 15.0005 15.7434ZM14.0255 9.97962C14.2236 10.1789 14.4093 10.3903 14.5814 10.6124L13.1358 12.0581C12.86 11.5573 12.4478 11.1451 11.9471 10.8693L13.3927 9.42274C13.6133 9.59534 13.823 9.78131 14.0208 9.97962H14.0255ZM10.5005 11.9999C10.8983 11.9999 11.2799 12.158 11.5612 12.4393C11.8425 12.7206 12.0005 13.1021 12.0005 13.4999C12.0005 13.7966 11.9125 14.0866 11.7477 14.3333C11.5829 14.58 11.3486 14.7722 11.0745 14.8857C10.8004 14.9993 10.4988 15.029 10.2079 14.9711C9.91689 14.9132 9.64962 14.7704 9.43984 14.5606C9.23006 14.3508 9.0872 14.0835 9.02932 13.7926C8.97145 13.5016 9.00115 13.2 9.11468 12.9259C9.22821 12.6518 9.42047 12.4175 9.66715 12.2527C9.91382 12.0879 10.2038 11.9999 10.5005 11.9999ZM15.0802 8.92024C14.8812 8.72184 14.6718 8.53408 14.453 8.35774L16.5005 6.31024L17.6902 7.49993L15.6436 9.54556C15.467 9.32726 15.2793 9.11823 15.0811 8.91931L15.0802 8.92024ZM8.78019 18.2193C8.92092 18.3599 9.00003 18.5507 9.00012 18.7496C9.00021 18.9485 8.92126 19.1394 8.78066 19.2801C8.64005 19.4208 8.4493 19.4999 8.25036 19.5C8.05143 19.5001 7.86061 19.4212 7.71988 19.2806L4.71988 16.2806C4.57927 16.1398 4.50033 15.949 4.50042 15.7501C4.5005 15.5511 4.57961 15.3604 4.72034 15.2198C4.86108 15.0792 5.0519 15.0002 5.25083 15.0003C5.44977 15.0004 5.64052 15.0795 5.78113 15.2202L8.78019 18.2193Z" fill="black"/>
</g>
<defs>
<clipPath id="clip0_639_7811">
<rect width="24" height="24" fill="white"/>
</clipPath>
</defs>
</svg>
