<svg width="24" height="24" viewBox="0 0 24 24" fill="none" xmlns="http://www.w3.org/2000/svg">
<path d="M20.6436 9.37503L18.9561 6.4519C18.7348 6.06813 18.42 5.74661 18.041 5.51727C17.662 5.28793 17.2311 5.15823 16.7885 5.14026C16.3458 5.1223 15.9058 5.21664 15.5095 5.41451C15.1132 5.61238 14.7733 5.90733 14.5217 6.2719L13.0836 3.77909C12.8561 3.38514 12.5301 3.05707 12.1376 2.82706C11.7451 2.59704 11.2996 2.47298 10.8447 2.46702C10.3898 2.46106 9.94122 2.57343 9.54285 2.79309C9.14448 3.01275 8.81003 3.33217 8.5723 3.72003C8.10801 3.30202 7.50985 3.06331 6.88533 3.0468C6.26081 3.03028 5.65088 3.23704 5.16514 3.62992C4.6794 4.02281 4.34971 4.57605 4.23532 5.19022C4.12093 5.8044 4.22933 6.43924 4.54105 6.98065L4.85418 7.52346C4.41256 7.55895 3.98711 7.70564 3.61746 7.94986C3.24781 8.19408 2.94598 8.52789 2.7401 8.92019C2.53422 9.31249 2.43098 9.75051 2.44 10.1935C2.44902 10.6364 2.57 11.0699 2.79168 11.4535L6.35418 17.6241C6.89365 18.564 7.61411 19.3877 8.47389 20.0474C9.33367 20.7072 10.3157 21.19 11.3632 21.4678C12.0641 21.6551 12.7865 21.7496 13.512 21.7491C14.9589 21.7467 16.3798 21.3638 17.632 20.6388C18.8842 19.9138 19.9237 18.8723 20.6462 17.6186C21.3687 16.365 21.7488 14.9434 21.7483 13.4965C21.7478 12.0496 21.3669 10.6282 20.6436 9.37503ZM20.0182 15.2466C19.6728 16.5361 18.9526 17.6943 17.949 18.5746C16.9453 19.4549 15.7031 20.0177 14.3795 20.192C13.0559 20.3664 11.7103 20.1442 10.5129 19.5538C9.31557 18.9634 8.32017 18.0312 7.65261 16.875L4.09011 10.7044C4.01625 10.5764 3.96831 10.4352 3.94904 10.2886C3.92977 10.1421 3.93954 9.99328 3.9778 9.85055C4.05507 9.5623 4.24368 9.31656 4.50215 9.16737C4.76061 9.01819 5.06775 8.97779 5.356 9.05506C5.49872 9.09332 5.63252 9.15932 5.74974 9.24928C5.86696 9.33925 5.96531 9.45142 6.03918 9.5794L8.10168 13.1513C8.14947 13.2393 8.21441 13.3168 8.29266 13.3794C8.37091 13.4419 8.46089 13.4881 8.55728 13.5152C8.65368 13.5424 8.75454 13.55 8.85392 13.5376C8.9533 13.5251 9.04918 13.4929 9.1359 13.4428C9.22263 13.3927 9.29844 13.3258 9.35887 13.2459C9.4193 13.166 9.46312 13.0749 9.48775 12.9778C9.51237 12.8807 9.51731 12.7797 9.50226 12.6807C9.48721 12.5817 9.45248 12.4867 9.40011 12.4013L5.83761 6.23159C5.72637 6.03888 5.67478 5.81752 5.68935 5.59549C5.70392 5.37345 5.784 5.16073 5.91948 4.98421C6.05495 4.8077 6.23972 4.67532 6.45043 4.60382C6.66114 4.53232 6.88832 4.52491 7.10324 4.58253C7.2462 4.62024 7.38024 4.68598 7.49757 4.77595C7.61489 4.86592 7.71317 4.97831 7.78668 5.10659L10.9742 10.6275C11.0764 10.7942 11.2396 10.9143 11.4291 10.9624C11.6186 11.0105 11.8194 10.9826 11.9886 10.8849C12.1579 10.7871 12.2823 10.6271 12.3354 10.4389C12.3884 10.2508 12.3659 10.0493 12.2726 9.87753L9.83512 5.65878C9.69236 5.40083 9.65657 5.09715 9.73544 4.81308C9.81431 4.52901 10.0015 4.28725 10.2568 4.13982C10.5121 3.99239 10.8151 3.95107 11.1006 4.02474C11.386 4.09842 11.6312 4.28121 11.7832 4.53378L14.9998 10.1044C14.181 10.7828 13.6283 11.7289 13.4396 12.7754C13.2509 13.8219 13.4383 14.9014 13.9686 15.8232C14.068 15.9955 14.2318 16.1212 14.424 16.1727C14.6162 16.2242 14.8209 16.1973 14.9932 16.0978C15.1655 15.9984 15.2913 15.8346 15.3428 15.6424C15.3943 15.4502 15.3674 15.2455 15.2679 15.0732C14.8702 14.3842 14.7624 13.5654 14.9682 12.7969C15.1741 12.0284 15.6768 11.3732 16.3657 10.9753C16.4511 10.9261 16.5259 10.8605 16.5859 10.7824C16.6458 10.7043 16.6899 10.6151 16.7154 10.5199C16.7409 10.4247 16.7474 10.3255 16.7345 10.2278C16.7217 10.1301 16.6897 10.036 16.6404 9.95065L15.7029 8.3269C15.5602 8.06895 15.5244 7.76527 15.6033 7.4812C15.6821 7.19714 15.8694 6.95538 16.1247 6.80795C16.38 6.66051 16.6829 6.61919 16.9684 6.69287C17.2539 6.76654 17.499 6.94933 17.6511 7.2019L19.3386 10.125C19.7849 10.8912 20.0749 11.7382 20.1915 12.6172C20.3082 13.4962 20.2493 14.3896 20.0182 15.2457V15.2466ZM17.2751 2.80596C17.3006 2.71078 17.3445 2.62155 17.4045 2.54336C17.4645 2.46518 17.5392 2.39957 17.6245 2.35029C17.7099 2.30102 17.8041 2.26903 17.9017 2.25617C17.9994 2.24331 18.0987 2.24982 18.1939 2.27534C19.6854 2.67565 20.9126 3.59815 21.6495 4.87503C21.7489 5.04733 21.7759 5.25209 21.7244 5.44426C21.6729 5.63643 21.5471 5.80026 21.3748 5.89971C21.2025 5.99917 20.9977 6.0261 20.8056 5.97459C20.6134 5.92308 20.4496 5.79733 20.3501 5.62503C19.8139 4.69503 18.9101 4.02003 17.8057 3.72471C17.7106 3.69926 17.6213 3.65529 17.5431 3.59533C17.465 3.53538 17.3993 3.4606 17.3501 3.37528C17.3008 3.28996 17.2688 3.19577 17.2559 3.09808C17.2431 3.00039 17.2496 2.90113 17.2751 2.80596ZM7.58511 22.2188C7.52414 22.2962 7.4485 22.3608 7.36253 22.409C7.27656 22.4572 7.18194 22.4879 7.08408 22.4995C6.98622 22.5111 6.88703 22.5032 6.7922 22.4765C6.69736 22.4497 6.60873 22.4045 6.53136 22.3435C5.50011 21.5288 4.64605 20.5078 3.85011 19.1297C3.75066 18.9574 3.72372 18.7526 3.77524 18.5605C3.82675 18.3683 3.95249 18.2045 4.1248 18.105C4.29711 18.0056 4.50187 17.9786 4.69404 18.0302C4.8862 18.0817 5.05003 18.2074 5.14949 18.3797C5.84699 19.5872 6.58105 20.4722 7.46043 21.166C7.61649 21.2891 7.71729 21.4692 7.74067 21.6666C7.76405 21.864 7.7081 22.0626 7.58511 22.2188Z" fill="black"/>
</svg>
