<svg width="24" height="24" viewBox="0 0 24 24" fill="none" xmlns="http://www.w3.org/2000/svg">
<path d="M17.6245 8.25C17.1873 8.24952 16.7569 8.35879 16.3729 8.56781C16.2581 8.21228 16.0687 7.88536 15.8174 7.6089C15.5661 7.33244 15.2586 7.11281 14.9156 6.96469C14.5726 6.81657 14.202 6.74338 13.8284 6.75001C13.4549 6.75664 13.087 6.84293 12.7495 7.00312V4.125C12.7495 3.42881 12.4729 2.76113 11.9807 2.26884C11.4884 1.77656 10.8207 1.5 10.1245 1.5C9.4283 1.5 8.76062 1.77656 8.26834 2.26884C7.77606 2.76113 7.4995 3.42881 7.4995 4.125V11.625L7.14137 11.0503C6.96821 10.7521 6.738 10.4909 6.46389 10.2816C6.18978 10.0723 5.87713 9.91906 5.5438 9.83061C4.8706 9.65199 4.15401 9.7481 3.55168 10.0978C2.94935 10.4475 2.51061 11.0222 2.33198 11.6954C2.15336 12.3686 2.24947 13.0852 2.59918 13.6875L3.037 14.4591C6.26293 20.1459 7.59793 22.5 11.9995 22.5C14.1868 22.4975 16.2837 21.6275 17.8304 20.0809C19.377 18.5343 20.247 16.4373 20.2495 14.25V10.875C20.2495 10.1788 19.9729 9.51113 19.4807 9.01884C18.9884 8.52656 18.3207 8.25 17.6245 8.25ZM18.7495 14.25C18.7475 16.0396 18.0357 17.7553 16.7703 19.0208C15.5048 20.2862 13.7891 20.998 11.9995 21C8.47168 21 7.5145 19.3125 4.342 13.7175L3.90231 12.9422V12.9375C3.75302 12.6794 3.71231 12.3725 3.78913 12.0844C3.86595 11.7963 4.05401 11.5505 4.312 11.4009C4.48288 11.302 4.67701 11.2502 4.8745 11.2509C5.07226 11.2506 5.2666 11.3025 5.43794 11.4012C5.60927 11.5 5.75155 11.6422 5.85043 11.8134C5.85425 11.8209 5.85864 11.8282 5.86356 11.835L7.61387 14.6475C7.70025 14.7854 7.82916 14.8915 7.98112 14.9497C8.13309 15.008 8.29988 15.0152 8.45631 14.9703C8.61274 14.9254 8.75033 14.8309 8.84832 14.701C8.94631 14.571 8.99937 14.4127 8.9995 14.25V4.125C8.9995 3.82663 9.11802 3.54048 9.329 3.3295C9.53998 3.11853 9.82613 3 10.1245 3C10.4229 3 10.709 3.11853 10.92 3.3295C11.131 3.54048 11.2495 3.82663 11.2495 4.125V10.5C11.2495 10.6989 11.3285 10.8897 11.4692 11.0303C11.6098 11.171 11.8006 11.25 11.9995 11.25C12.1984 11.25 12.3892 11.171 12.5298 11.0303C12.6705 10.8897 12.7495 10.6989 12.7495 10.5V9.375C12.7495 9.07663 12.868 8.79048 13.079 8.5795C13.29 8.36853 13.5761 8.25 13.8745 8.25C14.1729 8.25 14.459 8.36853 14.67 8.5795C14.881 8.79048 14.9995 9.07663 14.9995 9.375V11.25C14.9995 11.4489 15.0785 11.6397 15.2192 11.7803C15.3598 11.921 15.5506 12 15.7495 12C15.9484 12 16.1392 11.921 16.2798 11.7803C16.4205 11.6397 16.4995 11.4489 16.4995 11.25V10.875C16.4995 10.5766 16.618 10.2905 16.829 10.0795C17.04 9.86853 17.3261 9.75 17.6245 9.75C17.9229 9.75 18.209 9.86853 18.42 10.0795C18.631 10.2905 18.7495 10.5766 18.7495 10.875V14.25Z" fill="black"/>
</svg>
