<svg width="24" height="24" viewBox="0 0 24 24" fill="none" xmlns="http://www.w3.org/2000/svg">
<path d="M19.4998 13.1251V16.5001C19.4998 18.8991 18.7039 20.5173 18.6701 20.5857C18.6079 20.7102 18.5122 20.8149 18.3938 20.888C18.2754 20.9612 18.139 21 17.9998 21.0001C17.8836 21.0002 17.7689 20.9729 17.6651 20.9204C17.4873 20.8315 17.352 20.6756 17.2891 20.4869C17.2261 20.2983 17.2407 20.0924 17.3295 19.9145C17.3351 19.9032 18.0008 18.526 18.0008 16.5001V13.1251C18.0008 12.8267 17.8822 12.5406 17.6713 12.3296C17.4603 12.1186 17.1741 12.0001 16.8758 12.0001C16.5774 12.0001 16.2913 12.1186 16.0803 12.3296C15.8693 12.5406 15.7508 12.8267 15.7508 13.1251V13.5001C15.7508 13.699 15.6718 13.8898 15.5311 14.0304C15.3904 14.1711 15.1997 14.2501 15.0008 14.2501C14.8019 14.2501 14.6111 14.1711 14.4704 14.0304C14.3298 13.8898 14.2508 13.699 14.2508 13.5001V11.6251C14.2508 11.3267 14.1322 11.0406 13.9213 10.8296C13.7103 10.6186 13.4241 10.5001 13.1258 10.5001C12.8274 10.5001 12.5413 10.6186 12.3303 10.8296C12.1193 11.0406 12.0008 11.3267 12.0008 11.6251V12.7501C12.0008 12.949 11.9218 13.1398 11.7811 13.2804C11.6404 13.4211 11.4497 13.5001 11.2508 13.5001C11.0519 13.5001 10.8611 13.4211 10.7204 13.2804C10.5798 13.1398 10.5008 12.949 10.5008 12.7501V6.37509C10.5008 6.07672 10.3822 5.79057 10.1713 5.57959C9.96029 5.36861 9.67414 5.25009 9.37577 5.25009C9.0774 5.25009 8.79125 5.36861 8.58027 5.57959C8.3693 5.79057 8.25077 6.07672 8.25077 6.37509V16.5001C8.25076 16.663 8.19769 16.8215 8.09958 16.9516C8.00147 17.0817 7.86366 17.1763 7.707 17.2211C7.55034 17.2659 7.38335 17.2585 7.23129 17.2C7.07923 17.1414 6.95037 17.0349 6.86421 16.8966L5.11296 14.0841L5.09983 14.0626C5.02596 13.9345 4.9276 13.8223 4.81036 13.7323C4.69311 13.6423 4.55928 13.5762 4.41651 13.5379C4.27374 13.4996 4.12483 13.4898 3.97827 13.509C3.83171 13.5283 3.69037 13.5762 3.56233 13.6501C3.43429 13.724 3.32206 13.8223 3.23203 13.9396C3.14201 14.0568 3.07596 14.1906 3.03766 14.3334C2.99935 14.4762 2.98954 14.6251 3.00879 14.7717C3.02804 14.9182 3.07596 15.0595 3.14983 15.1876L5.89577 19.8751C5.95356 19.9603 5.99319 20.0565 6.01218 20.1577C6.03117 20.2589 6.02912 20.3629 6.00616 20.4633C5.9832 20.5637 5.93981 20.6582 5.87871 20.7411C5.8176 20.824 5.74009 20.8934 5.65099 20.945C5.5619 20.9966 5.46313 21.0293 5.36084 21.0411C5.25855 21.0529 5.15493 21.0435 5.05643 21.0135C4.95794 20.9835 4.86668 20.9335 4.78834 20.8667C4.71 20.7998 4.64626 20.7176 4.60108 20.6251L1.85233 15.9376C1.50212 15.3358 1.40533 14.6194 1.58326 13.9462C1.76118 13.2731 2.19925 12.6981 2.80108 12.3479C3.40292 11.9977 4.11922 11.9009 4.79242 12.0788C5.46562 12.2567 6.04056 12.6948 6.39077 13.2966L6.74983 13.8751V6.37509C6.74983 5.67889 7.02639 5.01121 7.51868 4.51893C8.01096 4.02665 8.67864 3.75009 9.37483 3.75009C10.071 3.75009 10.7387 4.02665 11.231 4.51893C11.7233 5.01121 11.9998 5.67889 11.9998 6.37509V9.25321C12.3374 9.09302 12.7052 9.00673 13.0788 9.0001C13.4523 8.99347 13.823 9.06666 14.166 9.21478C14.509 9.36289 14.8164 9.58252 15.0677 9.85898C15.319 10.1354 15.5084 10.4624 15.6233 10.8179C16.0231 10.601 16.4724 10.4918 16.9271 10.5008C17.3819 10.5099 17.8265 10.637 18.2174 10.8696C18.6082 11.1022 18.9319 11.4324 19.1567 11.8278C19.3816 12.2232 19.4998 12.6702 19.4998 13.1251ZM22.4998 4.50009H17.5601L19.2795 2.78071C19.4202 2.6401 19.4994 2.44935 19.4994 2.25042C19.4995 2.05148 19.4206 1.86066 19.28 1.71993C19.1394 1.5792 18.9486 1.50009 18.7497 1.5C18.5508 1.49991 18.3599 1.57885 18.2192 1.71946L15.2192 4.71946C15.1495 4.78912 15.0942 4.87183 15.0564 4.96288C15.0187 5.05393 14.9992 5.15152 14.9992 5.25009C14.9992 5.34865 15.0187 5.44624 15.0564 5.53729C15.0942 5.62834 15.1495 5.71106 15.2192 5.78071L18.2192 8.78071C18.3599 8.92132 18.5508 9.00026 18.7497 9.00017C18.9486 9.00008 19.1394 8.92097 19.28 8.78024C19.4206 8.63951 19.4995 8.44869 19.4994 8.24975C19.4994 8.05082 19.4202 7.86007 19.2795 7.71946L17.5601 6.00009H22.4998C22.6987 6.00009 22.8895 5.92107 23.0302 5.78042C23.1708 5.63976 23.2498 5.449 23.2498 5.25009C23.2498 5.05117 23.1708 4.86041 23.0302 4.71976C22.8895 4.5791 22.6987 4.50009 22.4998 4.50009Z" fill="black"/>
</svg>
