<svg width="24" height="24" viewBox="0 0 24 24" fill="none" xmlns="http://www.w3.org/2000/svg">
<path d="M15.7506 2.25V0.75C15.7506 0.551088 15.8296 0.360322 15.9702 0.21967C16.1109 0.0790176 16.3017 0 16.5006 0C16.6995 0 16.8903 0.0790176 17.0309 0.21967C17.1716 0.360322 17.2506 0.551088 17.2506 0.75V2.25C17.2506 2.44891 17.1716 2.63968 17.0309 2.78033C16.8903 2.92098 16.6995 3 16.5006 3C16.3017 3 16.1109 2.92098 15.9702 2.78033C15.8296 2.63968 15.7506 2.44891 15.7506 2.25ZM19.1096 3.84375C19.2276 3.9147 19.3629 3.95139 19.5006 3.94969C19.6293 3.94989 19.7559 3.91697 19.8682 3.85408C19.9805 3.7912 20.0747 3.70047 20.1418 3.59062L20.8918 2.36156C20.944 2.27746 20.979 2.18385 20.9949 2.08615C21.0107 1.98844 21.0071 1.88856 20.9841 1.79228C20.9612 1.69599 20.9194 1.6052 20.8612 1.52513C20.803 1.44507 20.7295 1.37731 20.645 1.32578C20.5605 1.27424 20.4666 1.23995 20.3688 1.22487C20.271 1.20979 20.1712 1.21422 20.075 1.23791C19.9789 1.2616 19.8885 1.30408 19.8089 1.3629C19.7293 1.42172 19.6621 1.49572 19.6112 1.58062L18.8612 2.80875C18.8092 2.89292 18.7744 2.98655 18.7587 3.08424C18.7431 3.18193 18.7469 3.28176 18.77 3.37796C18.7931 3.47416 18.835 3.56485 18.8933 3.64479C18.9516 3.72473 19.0251 3.79235 19.1096 3.84375ZM23.5571 5.02406C23.5269 4.9303 23.4785 4.84342 23.4147 4.76836C23.3509 4.69331 23.273 4.63155 23.1853 4.58663C23.0976 4.54171 23.002 4.5145 22.9038 4.50655C22.8056 4.4986 22.7068 4.51008 22.6131 4.54031L21.2068 4.995C21.0363 5.04951 20.891 5.16319 20.797 5.31552C20.703 5.46784 20.6665 5.64876 20.6943 5.82559C20.722 6.00242 20.8121 6.1635 20.9482 6.27973C21.0843 6.39596 21.2575 6.45968 21.4365 6.45937C21.5148 6.45908 21.5926 6.44674 21.6671 6.42281L23.0734 5.96812C23.1676 5.93793 23.2549 5.88941 23.3302 5.82535C23.4056 5.76129 23.4675 5.68296 23.5125 5.59487C23.5574 5.50678 23.5845 5.41066 23.5922 5.31205C23.5999 5.21345 23.5879 5.1143 23.5571 5.02031V5.02406ZM20.7446 8.76844C21.5739 10.1948 21.9078 11.8554 21.6943 13.4914C21.4808 15.1274 20.7319 16.6468 19.5643 17.8125C19.1592 19.2282 18.3464 20.4933 17.2271 21.4501C16.1079 22.4069 14.7317 23.013 13.2703 23.193C11.8088 23.3729 10.3267 23.1187 9.0088 22.462C7.69087 21.8052 6.59541 20.7751 5.85901 19.5L2.57776 13.8159C2.37742 13.4684 2.26593 13.0769 2.25318 12.676C2.24044 12.275 2.32682 11.8772 2.50469 11.5177C2.68255 11.1581 2.94638 10.8481 3.2728 10.6149C3.59921 10.3818 3.97811 10.2328 4.37589 10.1812L4.00089 9.53062C3.80365 9.18899 3.69229 8.80458 3.67635 8.41042C3.66041 8.01626 3.74038 7.62411 3.90938 7.26767C4.07838 6.91122 4.33138 6.60111 4.64663 6.36398C4.96189 6.12685 5.32999 5.96978 5.71932 5.90625C5.52404 5.36855 5.5241 4.7793 5.71949 4.24165C5.91488 3.70399 6.29314 3.25218 6.78807 2.96531C7.24191 2.70425 7.76762 2.59595 8.28769 2.65638C8.80775 2.71681 9.29463 2.94277 9.67651 3.30094C9.91041 2.9633 10.2258 2.69025 10.5935 2.50713C10.9612 2.32401 11.3691 2.23678 11.7795 2.25352C12.1899 2.27026 12.5894 2.39044 12.941 2.60289C13.2925 2.81534 13.5846 3.11318 13.7903 3.46875L14.9153 5.41781C15.1588 5.09886 15.4774 4.84499 15.8427 4.67873C16.2079 4.51247 16.6086 4.43897 17.0091 4.46475C17.4096 4.49054 17.7975 4.61481 18.1384 4.82653C18.4793 5.03826 18.7627 5.33089 18.9634 5.67844L20.7446 8.76844ZM10.8681 5.15625L11.424 6.11906C11.6096 6.28859 11.7678 6.48595 11.8928 6.70406L13.0178 8.64937C13.3875 8.16915 13.9218 7.8426 14.5178 7.7325L12.4918 4.21875C12.3675 4.00343 12.1627 3.84632 11.9226 3.78197C11.6824 3.71762 11.4265 3.75131 11.2112 3.87562C10.9959 3.99995 10.8388 4.20471 10.7744 4.44488C10.7101 4.68504 10.7438 4.94093 10.8681 5.15625ZM7.19495 5.54531L7.75089 6.50906L7.78089 6.53625C7.96277 6.2729 8.19487 6.04806 8.46386 5.87463C8.73285 5.7012 9.03344 5.5826 9.34839 5.52562L8.8187 4.60781C8.72601 4.44722 8.58777 4.31772 8.42148 4.23568C8.25519 4.15365 8.0683 4.12278 7.88446 4.14696C7.70062 4.17115 7.52808 4.2493 7.38866 4.37155C7.24924 4.4938 7.1492 4.65465 7.1012 4.83375C7.06891 4.95265 7.06057 5.07679 7.07667 5.19894C7.09276 5.32109 7.13297 5.43883 7.19495 5.54531ZM18.1496 17.3034C18.3556 16.5425 18.4086 15.7482 18.3056 14.9666C18.2026 14.1851 17.9457 13.4317 17.5496 12.75L15.7684 9.66469C15.6472 9.45699 15.4509 9.30379 15.22 9.23673C14.9891 9.16968 14.7413 9.19391 14.5277 9.30442C14.3142 9.41492 14.1512 9.60326 14.0726 9.83048C13.994 10.0577 14.0057 10.3065 14.1053 10.5253L15.1759 12.375C15.2753 12.5474 15.3022 12.7523 15.2506 12.9446C15.199 13.1368 15.0732 13.3007 14.9007 13.4002C14.7283 13.4996 14.5234 13.5265 14.3312 13.4749C14.1389 13.4233 13.975 13.2974 13.8756 13.125L10.5943 7.45594C10.4656 7.25209 10.2633 7.10568 10.0294 7.04711C9.79555 6.98854 9.54811 7.02232 9.3385 7.14142C9.12889 7.26053 8.97322 7.45581 8.90383 7.68669C8.83444 7.91758 8.85666 8.16632 8.96589 8.38125L11.2749 12.375C11.3273 12.4604 11.362 12.5554 11.3771 12.6544C11.3921 12.7534 11.3872 12.8544 11.3626 12.9515C11.338 13.0486 11.2941 13.1398 11.2337 13.2196C11.1733 13.2995 11.0975 13.3665 11.0107 13.4165C10.924 13.4666 10.8281 13.4989 10.7288 13.5113C10.6294 13.5237 10.5285 13.5161 10.4321 13.489C10.3357 13.4618 10.2457 13.4156 10.1675 13.3531C10.0892 13.2906 10.0243 13.213 9.97651 13.125L6.92307 7.84312C6.86196 7.73564 6.7802 7.64131 6.68249 7.56556C6.58477 7.48981 6.47304 7.43413 6.35372 7.40174C6.2344 7.36935 6.10986 7.36087 5.98725 7.37681C5.86464 7.39275 5.7464 7.43278 5.63933 7.4946C5.53226 7.55642 5.43847 7.6388 5.36337 7.73702C5.28827 7.83523 5.23333 7.94733 5.20173 8.06686C5.17013 8.18639 5.16248 8.31099 5.17923 8.43349C5.19598 8.55599 5.23679 8.67396 5.29932 8.78062L8.67432 14.6269C8.72357 14.7122 8.75553 14.8064 8.76837 14.904C8.78122 15.0017 8.77471 15.101 8.7492 15.1961C8.72369 15.2913 8.67969 15.3805 8.61972 15.4586C8.55974 15.5367 8.48495 15.6023 8.39964 15.6516C8.31432 15.7008 8.22014 15.7328 8.12247 15.7456C8.0248 15.7585 7.92555 15.7519 7.8304 15.7264C7.73525 15.7009 7.64606 15.6569 7.56791 15.597C7.48976 15.537 7.42419 15.4622 7.37495 15.3769L5.49995 12.1294C5.37474 11.9158 5.17015 11.7604 4.93081 11.6972C4.69147 11.6339 4.43682 11.6678 4.22242 11.7916C4.00803 11.9154 3.8513 12.119 3.78643 12.3579C3.72157 12.5968 3.75384 12.8517 3.8762 13.0669L7.15745 18.7509C7.75076 19.7788 8.63558 20.6076 9.69998 21.1325C10.7644 21.6575 11.9605 21.855 13.1372 21.7C14.3138 21.5451 15.4181 21.0447 16.3103 20.2621C17.2025 19.4795 17.8426 18.4498 18.1496 17.3034ZM19.4453 9.51469L17.664 6.42937C17.5388 6.21581 17.3342 6.06043 17.0949 5.99715C16.8555 5.93387 16.6009 5.96783 16.3865 6.09162C16.1721 6.2154 16.0154 6.41896 15.9505 6.65788C15.8856 6.89679 15.9179 7.15166 16.0403 7.36687L16.5943 8.32781C16.7799 8.49811 16.938 8.69607 17.0631 8.91469L18.8443 12C19.3448 12.865 19.6677 13.8212 19.794 14.8125C20.1475 13.9622 20.2999 13.0417 20.2395 12.1228C20.179 11.2039 19.9072 10.3114 19.4453 9.51469Z" fill="black"/>
</svg>
