<svg width="24" height="24" viewBox="0 0 24 24" fill="none" xmlns="http://www.w3.org/2000/svg">
<path d="M4.4989 7.125C4.4989 5.63316 5.09153 4.20242 6.14642 3.14752C7.20131 2.09263 8.63205 1.5 10.1239 1.5C11.6157 1.5 13.0465 2.09263 14.1014 3.14752C15.1563 4.20242 15.7489 5.63316 15.7489 7.125C15.7489 7.32391 15.6699 7.51468 15.5292 7.65533C15.3886 7.79598 15.1978 7.875 14.9989 7.875C14.8 7.875 14.6092 7.79598 14.4686 7.65533C14.3279 7.51468 14.2489 7.32391 14.2489 7.125C14.2489 6.03098 13.8143 4.98177 13.0407 4.20818C12.2671 3.4346 11.2179 3 10.1239 3C9.02988 3 7.98067 3.4346 7.20708 4.20818C6.43349 4.98177 5.9989 6.03098 5.9989 7.125C5.9989 7.32391 5.91988 7.51468 5.77922 7.65533C5.63857 7.79598 5.44781 7.875 5.2489 7.875C5.04998 7.875 4.85922 7.79598 4.71856 7.65533C4.57791 7.51468 4.4989 7.32391 4.4989 7.125ZM17.6239 11.25C17.1864 11.2495 16.7557 11.3588 16.3714 11.5678C16.2565 11.2124 16.0672 10.8856 15.8159 10.6092C15.5647 10.3329 15.2573 10.1133 14.9145 9.96517C14.5716 9.81707 14.201 9.74384 13.8276 9.75039C13.4541 9.75693 13.0864 9.8431 12.7489 10.0031V7.125C12.7489 6.42881 12.4723 5.76113 11.9801 5.26884C11.4878 4.77656 10.8201 4.5 10.1239 4.5C9.4277 4.5 8.76002 4.77656 8.26774 5.26884C7.77546 5.76113 7.4989 6.42881 7.4989 7.125V14.625L7.14077 14.0503C6.79056 13.4485 6.21562 13.0104 5.54242 12.8325C4.86922 12.6546 4.15292 12.7514 3.55108 13.1016C2.94925 13.4518 2.51118 14.0267 2.33326 14.6999C2.15533 15.3731 2.25212 16.0894 2.60233 16.6912L5.35108 21.3787C5.39718 21.47 5.46147 21.5509 5.53999 21.6165C5.61851 21.682 5.7096 21.7308 5.80767 21.7598C5.90573 21.7889 6.0087 21.7975 6.11025 21.7853C6.21179 21.7731 6.30975 21.7402 6.39812 21.6887C6.4865 21.6372 6.5634 21.5682 6.62412 21.4859C6.68483 21.4036 6.72807 21.3098 6.75118 21.2101C6.77429 21.1105 6.77677 21.0072 6.75848 20.9066C6.74019 20.806 6.70152 20.7101 6.64483 20.625L3.89889 15.9375C3.8218 15.8095 3.771 15.6673 3.74945 15.5194C3.7279 15.3715 3.73604 15.2208 3.77339 15.0761C3.81074 14.9314 3.87656 14.7955 3.967 14.6765C4.05743 14.5575 4.17067 14.4578 4.3001 14.383C4.42954 14.3083 4.57256 14.2601 4.72083 14.2412C4.86911 14.2224 5.01965 14.2333 5.16366 14.2732C5.30768 14.3132 5.44228 14.3815 5.55961 14.4741C5.67694 14.5667 5.77465 14.6817 5.84702 14.8125L5.86015 14.8341L7.61139 17.6466C7.69738 17.7853 7.82628 17.8922 7.97852 17.951C8.13077 18.0099 8.29806 18.0175 8.455 17.9726C8.61194 17.9277 8.74996 17.8329 8.84812 17.7025C8.94628 17.5721 8.99922 17.4132 8.9989 17.25V7.125C8.9989 6.82663 9.11742 6.54048 9.3284 6.3295C9.53938 6.11853 9.82553 6 10.1239 6C10.4223 6 10.7084 6.11853 10.9194 6.3295C11.1304 6.54048 11.2489 6.82663 11.2489 7.125V13.5C11.2489 13.6989 11.3279 13.8897 11.4686 14.0303C11.6092 14.171 11.8 14.25 11.9989 14.25C12.1978 14.25 12.3886 14.171 12.5292 14.0303C12.6699 13.8897 12.7489 13.6989 12.7489 13.5V12.375C12.7489 12.0766 12.8674 11.7905 13.0784 11.5795C13.2894 11.3685 13.5755 11.25 13.8739 11.25C14.1723 11.25 14.4584 11.3685 14.6694 11.5795C14.8804 11.7905 14.9989 12.0766 14.9989 12.375V14.25C14.9989 14.4489 15.0779 14.6397 15.2186 14.7803C15.3592 14.921 15.55 15 15.7489 15C15.9478 15 16.1386 14.921 16.2792 14.7803C16.4199 14.6397 16.4989 14.4489 16.4989 14.25V13.875C16.4989 13.5766 16.6174 13.2905 16.8284 13.0795C17.0394 12.8685 17.3255 12.75 17.6239 12.75C17.9223 12.75 18.2084 12.8685 18.4194 13.0795C18.6304 13.2905 18.7489 13.5766 18.7489 13.875V17.25C18.7489 19.2759 18.0833 20.6531 18.0776 20.6644C17.9888 20.8423 17.9742 21.0482 18.0372 21.2368C18.1001 21.4255 18.2354 21.5814 18.4133 21.6703C18.5173 21.7229 18.6323 21.7502 18.7489 21.75C18.8882 21.7501 19.0248 21.7114 19.1434 21.6382C19.262 21.565 19.3578 21.4602 19.4201 21.3356C19.4548 21.2672 20.2498 19.6481 20.2498 17.25V13.875C20.2498 13.5302 20.1819 13.1888 20.0499 12.8702C19.9179 12.5517 19.7245 12.2623 19.4807 12.0185C19.2368 11.7747 18.9473 11.5814 18.6287 11.4495C18.3101 11.3177 17.9687 11.2499 17.6239 11.25Z" fill="black"/>
</svg>
