<svg width="24" height="24" viewBox="0 0 24 24" fill="none" xmlns="http://www.w3.org/2000/svg">
<path d="M20.9066 5.34352C19.8877 4.32714 18.5077 3.75557 17.0685 3.75381C15.6294 3.75206 14.248 4.32025 13.2266 5.33415L12.0004 6.47321L10.7732 5.3304C9.752 4.31209 8.36814 3.74115 6.92602 3.74317C5.48389 3.74519 4.10163 4.32001 3.08333 5.34118C2.06502 6.36235 1.49408 7.74621 1.4961 9.18833C1.49812 10.6305 2.07294 12.0127 3.09411 13.031L11.4707 21.5304C11.5405 21.6013 11.6236 21.6575 11.7154 21.6959C11.8071 21.7344 11.9056 21.7541 12.005 21.7541C12.1045 21.7541 12.203 21.7344 12.2947 21.6959C12.3864 21.6575 12.4696 21.6013 12.5394 21.5304L20.9066 13.031C21.9256 12.0114 22.4981 10.6288 22.4981 9.18727C22.4981 7.74572 21.9256 6.36316 20.9066 5.34352ZM19.8425 11.9773L12.0004 19.931L4.15348 11.9698C3.41502 11.2313 3.00016 10.2297 3.00016 9.1854C3.00016 8.14105 3.41502 7.13948 4.15348 6.40102C4.89195 5.66256 5.89352 5.2477 6.93786 5.2477C7.9822 5.2477 8.98377 5.66256 9.72223 6.40102L9.74098 6.41977L11.4894 8.04634C11.6282 8.17549 11.8108 8.2473 12.0004 8.2473C12.1899 8.2473 12.3725 8.17549 12.5113 8.04634L14.2597 6.41977L14.2785 6.40102C15.0174 5.66306 16.0193 5.24887 17.0636 5.24957C18.108 5.25027 19.1093 5.66581 19.8472 6.40477C20.5852 7.14373 20.9994 8.14558 20.9987 9.18992C20.998 10.2343 20.5824 11.2356 19.8435 11.9735L19.8425 11.9773Z" fill="black"/>
</svg>
