<svg width="24" height="24" viewBox="0 0 24 24" fill="none" xmlns="http://www.w3.org/2000/svg">
<path d="M15.8878 4.57406C15.9846 4.55596 16.077 4.51897 16.1595 4.4652C16.242 4.41142 16.3132 4.34192 16.3688 4.26065C16.4245 4.17939 16.4636 4.08795 16.484 3.99157C16.5043 3.89518 16.5054 3.79574 16.4873 3.69891C16.4692 3.60208 16.4323 3.50976 16.3785 3.42723C16.3247 3.34469 16.2552 3.27356 16.1739 3.21789C16.0927 3.16222 16.0012 3.1231 15.9048 3.10276C15.8085 3.08243 15.709 3.08128 15.6122 3.09938C14.1019 3.3825 12.8438 4.14188 12 5.25C10.9444 3.84375 9.2475 3 7.3125 3C5.77146 3.00174 4.29404 3.61468 3.20436 4.70436C2.11468 5.79404 1.50174 7.27146 1.5 8.8125C1.5 15.375 11.2303 20.6878 11.6447 20.9062C11.7537 20.9656 11.8759 20.9967 12 20.9967C12.1241 20.9967 12.2463 20.9656 12.3553 20.9062C13.7007 20.1521 14.9883 19.2991 16.2075 18.3544C16.2887 18.2955 16.3573 18.2209 16.4091 18.135C16.461 18.0492 16.4951 17.9538 16.5095 17.8545C16.5238 17.7552 16.5181 17.654 16.4926 17.557C16.4672 17.46 16.4225 17.369 16.3613 17.2896C16.3001 17.2101 16.2236 17.1437 16.1362 17.0943C16.0489 17.045 15.9526 17.0136 15.8529 17.0022C15.7532 16.9907 15.6523 16.9993 15.556 17.0276C15.4598 17.0558 15.3702 17.1031 15.2925 17.1666C14.3259 17.9109 13.4175 18.5137 12.75 18.9309V6.90937C13.2975 5.69531 14.4319 4.84688 15.8878 4.57406ZM11.25 18.9375C8.77313 17.3822 3 13.2853 3 8.8125C3.00149 7.66921 3.45632 6.57317 4.26475 5.76475C5.07317 4.95632 6.16921 4.50149 7.3125 4.5C9.08531 4.5 10.5806 5.41687 11.25 6.90375V18.9375ZM21.8016 9C21.7738 9.0014 21.7459 9.0014 21.7181 9C21.5337 8.99974 21.3558 8.93152 21.2185 8.80838C21.0812 8.68524 20.994 8.51582 20.9738 8.3325C20.9046 7.70795 20.6995 7.10612 20.3728 6.56936C20.0461 6.0326 19.6058 5.57393 19.0828 5.22563C18.9983 5.17206 18.9253 5.10211 18.8682 5.0199C18.8111 4.93769 18.771 4.84488 18.7503 4.74694C18.7296 4.649 18.7288 4.54792 18.7478 4.44964C18.7668 4.35136 18.8053 4.25788 18.861 4.17471C18.9167 4.09154 18.9884 4.02036 19.0721 3.96536C19.1557 3.91037 19.2495 3.87267 19.348 3.8545C19.4464 3.83632 19.5475 3.83804 19.6452 3.85954C19.743 3.88104 19.8355 3.92189 19.9172 3.97969C20.6219 4.44929 21.2151 5.06759 21.6552 5.79111C22.0953 6.51462 22.3715 7.32577 22.4644 8.1675C22.4758 8.26574 22.4678 8.36527 22.4406 8.46038C22.4135 8.55549 22.3678 8.64428 22.3062 8.72166C22.2446 8.79904 22.1683 8.86346 22.0817 8.91123C21.9951 8.959 21.8999 8.98917 21.8016 9ZM21.6056 12.3394C21.0741 13.4053 20.2987 14.4956 19.3003 15.5728C19.2344 15.6485 19.1539 15.7102 19.0637 15.7543C18.9735 15.7984 18.8754 15.8238 18.7751 15.8293C18.6749 15.8347 18.5746 15.8199 18.4801 15.7858C18.3857 15.7518 18.299 15.6991 18.2253 15.6309C18.1516 15.5627 18.0924 15.4805 18.0511 15.389C18.0098 15.2975 17.9872 15.1986 17.9849 15.0982C17.9825 14.9979 18.0002 14.898 18.0371 14.8047C18.074 14.7113 18.1293 14.6263 18.1997 14.5547C19.1006 13.5797 19.7934 12.6094 20.2622 11.67C20.3042 11.5788 20.3642 11.4969 20.4384 11.4293C20.5127 11.3617 20.5998 11.3097 20.6946 11.2764C20.7893 11.2431 20.8898 11.2292 20.9901 11.2354C21.0903 11.2417 21.1883 11.268 21.2782 11.3129C21.368 11.3577 21.448 11.4201 21.5133 11.4965C21.5786 11.5728 21.6278 11.6615 21.6582 11.7572C21.6886 11.8529 21.6994 11.9538 21.6901 12.0538C21.6807 12.1538 21.6513 12.2509 21.6038 12.3394H21.6056Z" fill="black"/>
</svg>
