<svg width="24" height="24" viewBox="0 0 24 24" fill="none" xmlns="http://www.w3.org/2000/svg">
<path d="M20.9063 5.34378C19.8862 4.32629 18.5045 3.75443 17.0637 3.75337C15.6229 3.75232 14.2404 4.32216 13.2188 5.33816L12 6.51284L10.7813 5.33534C9.76124 4.31592 8.37801 3.74346 6.93588 3.7439C5.49376 3.74434 4.11087 4.31764 3.09145 5.33769C2.07202 6.35774 1.49956 7.74097 1.5 9.18309C1.50044 10.6252 2.07374 12.0081 3.09379 13.0275L11.4722 21.5269C11.542 21.5978 11.6252 21.654 11.7169 21.6925C11.8087 21.7309 11.9071 21.7507 12.0066 21.7507C12.1061 21.7507 12.2045 21.7309 12.2963 21.6925C12.388 21.654 12.4712 21.5978 12.541 21.5269L20.9063 13.0313C21.9233 12.0106 22.4943 10.6284 22.4943 9.18753C22.4943 7.74666 21.9233 6.36451 20.9063 5.34378ZM19.8413 11.9775L12 19.9313L4.15223 11.97C3.41377 11.2314 2.99895 10.2298 2.99904 9.18533C2.99913 8.14089 3.41411 7.13927 4.1527 6.40081C4.89128 5.66235 5.89297 5.24754 6.9374 5.24762C7.98183 5.24771 8.98345 5.66269 9.72192 6.40128L9.73129 6.41066L10.9191 7.55347L9.9816 8.45816C9.90978 8.52729 9.85246 8.61004 9.81299 8.70158C9.77352 8.79313 9.75269 8.89162 9.75173 8.9913C9.75077 9.09099 9.7697 9.18986 9.80739 9.28215C9.84509 9.37444 9.90081 9.45828 9.97129 9.52878L12.4397 12L11.4694 12.9703C11.3287 13.1111 11.2496 13.3019 11.2496 13.501C11.2496 13.7 11.3287 13.8909 11.4694 14.0316C11.6101 14.1723 11.801 14.2514 12 14.2514C12.1991 14.2514 12.3899 14.1723 12.5307 14.0316L14.0307 12.5316C14.1712 12.391 14.2502 12.2003 14.2502 12.0014C14.2502 11.8026 14.1712 11.6119 14.0307 11.4713L11.5707 9.00847L14.2688 6.41066L14.2791 6.40128C14.645 6.03582 15.0793 5.746 15.5572 5.54838C16.0351 5.35075 16.5472 5.24919 17.0644 5.2495C17.5815 5.2498 18.0936 5.35197 18.5712 5.55015C19.0489 5.74834 19.4829 6.03867 19.8483 6.40456C20.2138 6.77046 20.5036 7.20475 20.7012 7.68266C20.8989 8.16056 21.0004 8.6727 21.0001 9.18985C20.9998 9.707 20.8976 10.219 20.6995 10.6967C20.5013 11.1744 20.2109 11.6083 19.845 11.9738L19.8413 11.9775Z" fill="black"/>
</svg>
