<svg width="24" height="24" viewBox="0 0 24 24" fill="none" xmlns="http://www.w3.org/2000/svg">
<path d="M16.6875 3.00002C15.9239 2.99798 15.1675 3.1474 14.462 3.43963C13.7565 3.73187 13.116 4.16111 12.5775 4.70252L12 5.28002L11.4225 4.70252C10.6096 3.88965 9.57393 3.33608 8.44643 3.11182C7.31893 2.88755 6.15025 3.00266 5.08817 3.44258C4.02609 3.88251 3.11831 4.62749 2.47962 5.58333C1.84093 6.53917 1.50002 7.66293 1.5 8.81252C1.5 15.375 11.2303 20.6878 11.6447 20.9063C11.7539 20.965 11.876 20.9958 12 20.9958C12.124 20.9958 12.2461 20.965 12.3553 20.9063C12.7697 20.6878 22.5 15.375 22.5 8.81252C22.4983 7.27148 21.8853 5.79406 20.7956 4.70438C19.706 3.6147 18.2285 3.00176 16.6875 3.00002ZM12 19.3875C10.2881 18.39 3 13.846 3 8.81252C2.99989 7.9595 3.25275 7.12561 3.7266 6.41632C4.20046 5.70703 4.87402 5.15419 5.6621 4.82774C6.45018 4.50129 7.31737 4.41589 8.15399 4.58234C8.99061 4.74878 9.75907 5.1596 10.3622 5.76283L10.9397 6.34033L9.96937 7.31252C9.82883 7.45316 9.74988 7.64385 9.74988 7.84268C9.74988 8.0415 9.82883 8.23219 9.96937 8.37283L12.2691 10.6725L10.7194 12.2213C10.5786 12.362 10.4996 12.5529 10.4996 12.7519C10.4996 12.9509 10.5786 13.1418 10.7194 13.2825C10.8601 13.4233 11.051 13.5023 11.25 13.5023C11.449 13.5023 11.6399 13.4233 11.7806 13.2825L13.86 11.2022C14.0005 11.0616 14.0795 10.8709 14.0795 10.6721C14.0795 10.4732 14.0005 10.2825 13.86 10.1419L11.5603 7.84033L13.6378 5.76283C14.2409 5.1596 15.0094 4.74878 15.846 4.58234C16.6826 4.41589 17.5498 4.50129 18.3379 4.82774C19.126 5.15419 19.7995 5.70703 20.2734 6.41632C20.7473 7.12561 21.0001 7.9595 21 8.81252C21 13.8385 13.71 18.3891 12 19.3875Z" fill="black"/>
</svg>
