<svg width="24" height="24" viewBox="0 0 24 24" fill="none" xmlns="http://www.w3.org/2000/svg">
<path d="M18.8945 5.1055C17.066 3.277 14.586 2.24976 12.0001 2.24976C9.41423 2.24976 6.93425 3.277 5.10574 5.1055C3.27724 6.934 2.25 9.41398 2.25 11.9999C2.25 14.5858 3.27724 17.0657 5.10574 18.8942C6.93425 20.7227 9.41423 21.75 12.0001 21.75C14.586 21.75 17.066 20.7227 18.8945 18.8942C20.723 17.0657 21.7502 14.5858 21.7502 11.9999C21.7502 9.41398 20.723 6.934 18.8945 5.1055ZM9.00012 19.6874V14.2499H15.0001V19.6874C13.0704 20.4374 10.9298 20.4374 9.00012 19.6874ZM13.5001 12.7499H10.5001V9.463L13.5001 7.963V12.7499ZM17.8332 17.833C17.4277 18.2393 16.9809 18.6022 16.5001 18.9158V14.2499C16.5001 13.852 16.3421 13.4705 16.0608 13.1892C15.7795 12.9079 15.3979 12.7499 15.0001 12.7499V6.74987C15.0002 6.62197 14.9676 6.49616 14.9054 6.38441C14.8431 6.27267 14.7533 6.17869 14.6445 6.11143C14.5358 6.04416 14.4116 6.00583 14.2838 6.00009C14.156 5.99435 14.0289 6.02138 13.9145 6.07862L9.41449 8.32862C9.28989 8.39098 9.18512 8.48681 9.11193 8.60537C9.03873 8.72393 9.00002 8.86054 9.00012 8.99987V12.7499C8.60229 12.7499 8.22076 12.9079 7.93946 13.1892C7.65815 13.4705 7.50012 13.852 7.50012 14.2499V18.9158C6.07088 17.9861 4.96481 16.6364 4.33405 15.0523C3.70328 13.4683 3.5788 11.7277 3.97772 10.07C4.37665 8.41229 5.27939 6.91891 6.56177 5.79526C7.84415 4.6716 9.44318 3.97287 11.1389 3.79518C12.8347 3.61748 14.5438 3.96954 16.0313 4.80294C17.5187 5.63634 18.7114 6.91014 19.4453 8.44913C20.1792 9.98811 20.4183 11.7167 20.1296 13.3971C19.8409 15.0775 19.0387 16.6272 17.8332 17.833Z" fill="black"/>
</svg>
