<svg width="24" height="24" viewBox="0 0 24 24" fill="none" xmlns="http://www.w3.org/2000/svg">
<g clip-path="url(#clip0_639_7741)">
<path d="M21.6562 15.3928L16.875 14.3156L6.53063 3.96931C6.45898 3.8977 6.37356 3.84134 6.27954 3.80363C6.18551 3.76593 6.08482 3.74767 5.98354 3.74995C5.88226 3.75222 5.7825 3.775 5.69026 3.81689C5.59802 3.85878 5.51523 3.91892 5.44687 3.99369C3.38531 6.24744 2.25 9.09369 2.25 11.9999V18.7499C2.25 19.1478 2.40804 19.5293 2.68934 19.8106C2.97064 20.0919 3.35218 20.2499 3.75 20.2499H6.75C7.14782 20.2499 7.52936 20.0919 7.81066 19.8106C8.09196 19.5293 8.25 19.1478 8.25 18.7499V14.1618C8.48344 14.2978 8.71312 14.4431 8.93812 14.5968C10.6406 15.7652 11.9625 17.4079 12.7397 19.3209C12.852 19.597 13.0445 19.8331 13.2923 19.9987C13.5401 20.1643 13.8319 20.2518 14.13 20.2499H22.5C22.8978 20.2499 23.2794 20.0919 23.5607 19.8106C23.842 19.5293 24 19.1478 24 18.7499V18.3065C24.0017 17.626 23.77 16.9654 23.3434 16.4351C22.9169 15.9049 22.3213 15.5369 21.6562 15.3928ZM6.75 18.7499H3.75V12.7771C4.77755 12.8498 5.7886 13.0747 6.75 13.4446V18.7499ZM22.5 18.7499H14.1262C13.2386 16.5685 11.7304 14.6955 9.78844 13.3631C8.01134 12.1345 5.93325 11.4131 3.77719 11.2762C3.9463 9.20104 4.73583 7.22476 6.04312 5.60431L15.9694 15.5306C16.0698 15.6307 16.1966 15.7002 16.335 15.7312L21.3263 16.8562C21.6591 16.927 21.9574 17.1102 22.1711 17.3749C22.3849 17.6397 22.501 17.97 22.5 18.3103V18.7499Z" fill="black"/>
</g>
<defs>
<clipPath id="clip0_639_7741">
<rect width="24" height="24" fill="white"/>
</clipPath>
</defs>
</svg>
