<svg width="24" height="24" viewBox="0 0 24 24" fill="none" xmlns="http://www.w3.org/2000/svg">
<path d="M22.3738 11.5837L17.0956 3.6675C16.9586 3.46215 16.7731 3.29379 16.5554 3.17735C16.3377 3.06091 16.0947 2.99999 15.8478 3H8.15565C7.90879 2.99999 7.66575 3.06091 7.44808 3.17735C7.23041 3.29379 7.04484 3.46215 6.90783 3.6675L1.62971 11.5837C1.57031 11.6729 1.53071 11.7738 1.51357 11.8795C1.49643 11.9853 1.50214 12.0935 1.53033 12.1969L3.6294 19.8947C3.71648 20.211 3.90459 20.4903 4.16506 20.6898C4.42553 20.8893 4.74409 20.9983 5.07221 21H7.4994C7.89722 21 8.27875 20.842 8.56006 20.5607C8.84136 20.2794 8.9994 19.8978 8.9994 19.5V18H14.9994V19.5C14.9994 19.8978 15.1574 20.2794 15.4387 20.5607C15.72 20.842 16.1016 21 16.4994 21H18.9266C19.2555 20.9993 19.5751 20.8908 19.8366 20.6912C20.098 20.4916 20.2868 20.2118 20.3741 19.8947L22.4731 12.1969C22.5013 12.0935 22.5071 11.9853 22.4899 11.8795C22.4728 11.7738 22.4332 11.6729 22.3738 11.5837ZM7.4994 16.5V6.54281L9.7494 7.82812V12.75C9.7494 12.9489 9.82841 13.1397 9.96907 13.2803C10.1097 13.421 10.3005 13.5 10.4994 13.5C10.6983 13.5 10.8891 13.421 11.0297 13.2803C11.1704 13.1397 11.2494 12.9489 11.2494 12.75V8.685L11.6244 8.90625C11.7384 8.97208 11.8677 9.00673 11.9994 9.00673C12.131 9.00673 12.2604 8.97208 12.3744 8.90625L12.7494 8.68969V12C12.7494 12.1989 12.8284 12.3897 12.9691 12.5303C13.1097 12.671 13.3005 12.75 13.4994 12.75C13.6983 12.75 13.8891 12.671 14.0297 12.5303C14.1704 12.3897 14.2494 12.1989 14.2494 12V7.82812L16.4994 6.54281V16.5H7.4994ZM15.8478 4.5L16.1797 4.99781L11.9994 7.38656L7.81908 4.99781L8.15565 4.5H15.8478ZM7.4994 19.5H5.07221L3.06315 12.1322L5.9994 7.72687V16.5C5.9994 16.8978 6.15743 17.2794 6.43874 17.5607C6.72004 17.842 7.10157 18 7.4994 18V19.5ZM18.9266 19.5H16.4994V18C16.8972 18 17.2788 17.842 17.5601 17.5607C17.8414 17.2794 17.9994 16.8978 17.9994 16.5V7.72687L20.9356 12.1331L18.9266 19.5Z" fill="black"/>
</svg>
