<svg width="24" height="24" viewBox="0 0 24 24" fill="none" xmlns="http://www.w3.org/2000/svg">
<path d="M19.7984 18.4275L13.085 12L19.7984 5.5725C19.8023 5.56821 19.8063 5.56414 19.8106 5.56031C20.0203 5.35054 20.163 5.08332 20.2208 4.79244C20.2787 4.50156 20.249 4.20007 20.1355 3.92607C20.022 3.65207 19.8299 3.41785 19.5833 3.25302C19.3368 3.08819 19.0469 3.00014 18.7503 3H5.25032C4.95383 3.00032 4.66409 3.0885 4.41768 3.25341C4.17128 3.41831 3.97927 3.65254 3.86592 3.9265C3.75256 4.20047 3.72293 4.50188 3.78078 4.79267C3.83863 5.08347 3.98136 5.35059 4.19095 5.56031L4.2022 5.5725L10.9156 12L4.2022 18.4275L4.19095 18.4397C3.98136 18.6494 3.83863 18.9165 3.78078 19.2073C3.72293 19.4981 3.75256 19.7995 3.86592 20.0735C3.97927 20.3475 4.17128 20.5817 4.41768 20.7466C4.66409 20.9115 4.95383 20.9997 5.25032 21H18.7503C19.047 21 19.337 20.9121 19.5837 20.7474C19.8304 20.5826 20.0227 20.3484 20.1362 20.0744C20.2498 19.8003 20.2796 19.4988 20.2218 19.2078C20.164 18.9168 20.0213 18.6495 19.8116 18.4397C19.807 18.4359 19.8026 18.4318 19.7984 18.4275ZM8.38438 7.5H15.6163L12.0003 10.9612L8.38438 7.5ZM18.7503 4.5L17.1847 6H6.81782L5.25032 4.5H18.7503ZM5.25032 19.5L12.0003 13.0387L18.7503 19.5H5.25032Z" fill="black"/>
</svg>
