<svg width="24" height="24" viewBox="0 0 24 24" fill="none" xmlns="http://www.w3.org/2000/svg">
<path d="M23.2517 11.9999C23.2517 13.0383 22.9439 14.0534 22.367 14.9168C21.7901 15.7803 20.9701 16.4532 20.0108 16.8506C19.0514 17.248 17.9958 17.352 16.9773 17.1494C15.9589 16.9468 15.0234 16.4467 14.2892 15.7124L14.2582 15.6796L8.6379 9.33271C8.11172 8.81267 7.44347 8.45989 6.71725 8.31876C5.99103 8.17763 5.2393 8.25446 4.55664 8.53958C3.87399 8.82469 3.29092 9.30536 2.88081 9.92109C2.4707 10.5368 2.25188 11.2601 2.25188 11.9999C2.25188 12.7397 2.4707 13.463 2.88081 14.0787C3.29092 14.6944 3.87399 15.1751 4.55664 15.4602C5.2393 15.7453 5.99103 15.8222 6.71725 15.681C7.44347 15.5399 8.11172 15.1871 8.6379 14.6671L9.43665 13.7652C9.50196 13.6913 9.58119 13.6311 9.6698 13.5878C9.7584 13.5446 9.85466 13.5192 9.95308 13.5131C10.0515 13.5071 10.1501 13.5205 10.2434 13.5525C10.3366 13.5846 10.4226 13.6347 10.4965 13.7C10.5704 13.7654 10.6306 13.8446 10.6739 13.9332C10.7171 14.0218 10.7425 14.1181 10.7486 14.2165C10.7546 14.3149 10.7412 14.4135 10.7092 14.5068C10.6771 14.6 10.627 14.686 10.5617 14.7599L9.74696 15.6796L9.71603 15.7124C8.98178 16.4466 8.04632 16.9465 7.02793 17.1491C6.00955 17.3516 4.95398 17.2476 3.99469 16.8502C3.03541 16.4528 2.21551 15.7799 1.63865 14.9166C1.0618 14.0532 0.753906 13.0382 0.753906 11.9999C0.753906 10.9616 1.0618 9.94655 1.63865 9.08321C2.21551 8.21986 3.03541 7.54695 3.99469 7.14958C4.95398 6.7522 6.00955 6.6482 7.02793 6.85073C8.04632 7.05326 8.98178 7.55322 9.71603 8.28739L9.74696 8.32021L15.3673 14.6671C15.8935 15.1871 16.5617 15.5399 17.2879 15.681C18.0141 15.8222 18.7659 15.7453 19.4485 15.4602C20.1312 15.1751 20.7143 14.6944 21.1244 14.0787C21.5345 13.463 21.7533 12.7397 21.7533 11.9999C21.7533 11.2601 21.5345 10.5368 21.1244 9.92109C20.7143 9.30536 20.1312 8.82469 19.4485 8.53958C18.7659 8.25446 18.0141 8.17763 17.2879 8.31876C16.5617 8.45989 15.8935 8.81267 15.3673 9.33271L14.5685 10.2346C14.4366 10.3838 14.2509 10.4744 14.0521 10.4867C13.8533 10.4989 13.6579 10.4316 13.5087 10.2997C13.3595 10.1678 13.2688 9.98207 13.2566 9.78331C13.2444 9.58455 13.3116 9.38908 13.4435 9.23989L14.2582 8.32021L14.2892 8.28739C15.0234 7.55309 15.9589 7.05302 16.9773 6.85041C17.9958 6.64781 19.0514 6.75178 20.0108 7.14917C20.9701 7.54656 21.7901 8.21952 22.367 9.08295C22.9439 9.94638 23.2517 10.9615 23.2517 11.9999Z" fill="black"/>
</svg>
