<svg width="24" height="24" viewBox="0 0 24 24" fill="none" xmlns="http://www.w3.org/2000/svg">
<path d="M22.5 9H21.6066L20.7356 4.93594C20.6625 4.60084 20.4772 4.30071 20.2105 4.0851C19.9437 3.86948 19.6114 3.75128 19.2684 3.75H4.73156C4.38857 3.75128 4.05627 3.86948 3.78953 4.0851C3.52278 4.30071 3.33754 4.60084 3.26437 4.93594L2.39344 9H1.5C1.30109 9 1.11032 9.07902 0.96967 9.21967C0.829018 9.36032 0.75 9.55109 0.75 9.75C0.75 9.94891 0.829018 10.1397 0.96967 10.2803C1.11032 10.421 1.30109 10.5 1.5 10.5H2.25V19.5C2.25 19.8978 2.40804 20.2794 2.68934 20.5607C2.97064 20.842 3.35218 21 3.75 21H6C6.39782 21 6.77936 20.842 7.06066 20.5607C7.34196 20.2794 7.5 19.8978 7.5 19.5V17.25H16.5V19.5C16.5 19.8978 16.658 20.2794 16.9393 20.5607C17.2206 20.842 17.6022 21 18 21H20.25C20.6478 21 21.0294 20.842 21.3107 20.5607C21.592 20.2794 21.75 19.8978 21.75 19.5V10.5H22.5C22.6989 10.5 22.8897 10.421 23.0303 10.2803C23.171 10.1397 23.25 9.94891 23.25 9.75C23.25 9.55109 23.171 9.36032 23.0303 9.21967C22.8897 9.07902 22.6989 9 22.5 9ZM4.73156 5.25H19.2684L20.0719 9H3.92813L4.73156 5.25ZM6 19.5H3.75V17.25H6V19.5ZM18 19.5V17.25H20.25V19.5H18ZM20.25 15.75H14.25V12.75C14.25 12.5511 14.171 12.3603 14.0303 12.2197C13.8897 12.079 13.6989 12 13.5 12C13.3011 12 13.1103 12.079 12.9697 12.2197C12.829 12.3603 12.75 12.5511 12.75 12.75V15.75H11.25V12.75C11.25 12.5511 11.171 12.3603 11.0303 12.2197C10.8897 12.079 10.6989 12 10.5 12C10.3011 12 10.1103 12.079 9.96967 12.2197C9.82902 12.3603 9.75 12.5511 9.75 12.75V15.75H3.75V10.5H20.25V15.75ZM5.25 13.125C5.25 12.9025 5.31598 12.685 5.4396 12.5C5.56321 12.315 5.73891 12.1708 5.94448 12.0856C6.15005 12.0005 6.37625 11.9782 6.59448 12.0216C6.81271 12.065 7.01316 12.1722 7.1705 12.3295C7.32783 12.4868 7.43498 12.6873 7.47838 12.9055C7.52179 13.1238 7.49951 13.35 7.41436 13.5555C7.32922 13.7611 7.18502 13.9368 7.00002 14.0604C6.81501 14.184 6.5975 14.25 6.375 14.25C6.07663 14.25 5.79048 14.1315 5.5795 13.9205C5.36853 13.7095 5.25 13.4234 5.25 13.125ZM16.5 13.125C16.5 12.9025 16.566 12.685 16.6896 12.5C16.8132 12.315 16.9889 12.1708 17.1945 12.0856C17.4 12.0005 17.6262 11.9782 17.8445 12.0216C18.0627 12.065 18.2632 12.1722 18.4205 12.3295C18.5778 12.4868 18.685 12.6873 18.7284 12.9055C18.7718 13.1238 18.7495 13.35 18.6644 13.5555C18.5792 13.7611 18.435 13.9368 18.25 14.0604C18.065 14.184 17.8475 14.25 17.625 14.25C17.3266 14.25 17.0405 14.1315 16.8295 13.9205C16.6185 13.7095 16.5 13.4234 16.5 13.125Z" fill="black"/>
</svg>
