<svg width="24" height="24" viewBox="0 0 24 24" fill="none" xmlns="http://www.w3.org/2000/svg">
<path d="M20.9541 4.5H3.04781C2.63763 4.5 2.24422 4.66281 1.95401 4.95268C1.66379 5.24255 1.5005 5.63576 1.5 6.04594V17.9522C1.5 18.3624 1.66281 18.7558 1.95268 19.046C2.24255 19.3362 2.63576 19.4995 3.04594 19.5H20.9522C21.3624 19.5 21.7558 19.3372 22.046 19.0473C22.3362 18.7575 22.4995 18.3642 22.5 17.9541V6.04781C22.5 5.63763 22.3372 5.24422 22.0473 4.95401C21.7575 4.66379 21.3642 4.5005 20.9541 4.5ZM21 17.9541C21 17.9601 20.9988 17.9661 20.9965 17.9716C20.9942 17.9772 20.9908 17.9823 20.9865 17.9865C20.9823 17.9908 20.9772 17.9942 20.9716 17.9965C20.9661 17.9988 20.9601 18 20.9541 18H3.04781C3.04178 18 3.03581 17.9988 3.03023 17.9965C3.02466 17.9942 3.0196 17.9908 3.01533 17.9865C3.01106 17.9823 3.00768 17.9772 3.00537 17.9716C3.00306 17.9661 3.00188 17.9601 3.00188 17.9541V6.04781C3.00188 6.03563 3.00671 6.02394 3.01533 6.01533C3.02394 6.00672 3.03563 6.00187 3.04781 6.00187H20.9541C20.9662 6.00187 20.9779 6.00672 20.9865 6.01533C20.9952 6.02394 21 6.03563 21 6.04781V17.9541ZM19.5 12C19.5 12.1989 19.421 12.3897 19.2803 12.5303C19.1397 12.671 18.9489 12.75 18.75 12.75H5.25C5.05109 12.75 4.86032 12.671 4.71967 12.5303C4.57902 12.3897 4.5 12.1989 4.5 12C4.5 11.8011 4.57902 11.6103 4.71967 11.4697C4.86032 11.329 5.05109 11.25 5.25 11.25H18.75C18.9489 11.25 19.1397 11.329 19.2803 11.4697C19.421 11.6103 19.5 11.8011 19.5 12ZM19.5 9C19.5 9.19891 19.421 9.38968 19.2803 9.53033C19.1397 9.67098 18.9489 9.75 18.75 9.75H5.25C5.05109 9.75 4.86032 9.67098 4.71967 9.53033C4.57902 9.38968 4.5 9.19891 4.5 9C4.5 8.80109 4.57902 8.61032 4.71967 8.46967C4.86032 8.32902 5.05109 8.25 5.25 8.25H18.75C18.9489 8.25 19.1397 8.32902 19.2803 8.46967C19.421 8.61032 19.5 8.80109 19.5 9ZM6.75 15C6.75 15.1989 6.67098 15.3897 6.53033 15.5303C6.38968 15.671 6.19891 15.75 6 15.75H5.25C5.05109 15.75 4.86032 15.671 4.71967 15.5303C4.57902 15.3897 4.5 15.1989 4.5 15C4.5 14.8011 4.57902 14.6103 4.71967 14.4697C4.86032 14.329 5.05109 14.25 5.25 14.25H6C6.19891 14.25 6.38968 14.329 6.53033 14.4697C6.67098 14.6103 6.75 14.8011 6.75 15ZM15.75 15C15.75 15.1989 15.671 15.3897 15.5303 15.5303C15.3897 15.671 15.1989 15.75 15 15.75H9C8.80109 15.75 8.61032 15.671 8.46967 15.5303C8.32902 15.3897 8.25 15.1989 8.25 15C8.25 14.8011 8.32902 14.6103 8.46967 14.4697C8.61032 14.329 8.80109 14.25 9 14.25H15C15.1989 14.25 15.3897 14.329 15.5303 14.4697C15.671 14.6103 15.75 14.8011 15.75 15ZM19.5 15C19.5 15.1989 19.421 15.3897 19.2803 15.5303C19.1397 15.671 18.9489 15.75 18.75 15.75H18C17.8011 15.75 17.6103 15.671 17.4697 15.5303C17.329 15.3897 17.25 15.1989 17.25 15C17.25 14.8011 17.329 14.6103 17.4697 14.4697C17.6103 14.329 17.8011 14.25 18 14.25H18.75C18.9489 14.25 19.1397 14.329 19.2803 14.4697C19.421 14.6103 19.5 14.8011 19.5 15Z" fill="black"/>
</svg>
