<svg width="24" height="24" viewBox="0 0 24 24" fill="none" xmlns="http://www.w3.org/2000/svg">
<path d="M21.7319 3.01773C21.4876 2.77339 21.1975 2.57969 20.8781 2.44774C20.5588 2.31578 20.2165 2.24817 19.871 2.24878C19.5255 2.24939 19.1835 2.31821 18.8646 2.45129C18.5457 2.58437 18.2563 2.7791 18.0128 3.02429L1.71253 19.7437C1.61914 19.8389 1.55284 19.9573 1.52047 20.0867C1.4881 20.2161 1.49082 20.3518 1.52836 20.4798C1.5659 20.6078 1.6369 20.7235 1.73404 20.8149C1.83117 20.9063 1.95093 20.9702 2.08097 20.9999C3.15691 21.2493 4.25777 21.3751 5.36222 21.3749C8.49535 21.3749 11.6322 20.3549 14.5807 18.3552C17.5572 16.3368 19.2822 14.0568 19.3544 13.9602C19.4628 13.8158 19.5155 13.6371 19.5028 13.457C19.49 13.2768 19.4127 13.1073 19.285 12.9796L17.5282 11.2209L21.7469 6.72086C22.2326 6.22602 22.5034 5.55956 22.5006 4.86621C22.4978 4.17286 22.2216 3.50862 21.7319 3.01773ZM17.7391 13.559C16.5504 14.9199 15.1922 16.1228 13.6975 17.1384C10.466 19.318 7.13503 20.204 3.77503 19.7784L13.7407 9.55961L17.7391 13.559ZM20.6716 5.67179L20.6547 5.68961L16.4632 10.1587L14.7878 8.48148L19.0797 4.07523C19.2911 3.86389 19.5777 3.74515 19.8766 3.74515C20.1755 3.74515 20.4621 3.86389 20.6735 4.07523C20.8848 4.28658 21.0035 4.57322 21.0035 4.87211C21.0035 5.17099 20.8848 5.45764 20.6735 5.66898L20.6716 5.67179Z" fill="black"/>
</svg>
