<svg width="24" height="24" viewBox="0 0 24 24" fill="none" xmlns="http://www.w3.org/2000/svg">
<path d="M20.2308 11.0783C20.2024 10.9581 20.1448 10.8468 20.063 10.7542C19.9812 10.6617 19.8779 10.5907 19.7621 10.5477L14.3611 8.52178L15.7355 1.64709C15.7666 1.48736 15.745 1.32184 15.6738 1.17551C15.6026 1.02918 15.4857 0.90998 15.3408 0.835894C15.1959 0.761808 15.0309 0.736858 14.8705 0.764809C14.7102 0.79276 14.5634 0.872095 14.4521 0.990843L3.95208 12.2408C3.8668 12.3307 3.80511 12.4403 3.77252 12.5598C3.73992 12.6793 3.73744 12.8051 3.7653 12.9258C3.79316 13.0465 3.85048 13.1584 3.93215 13.2516C4.01382 13.3447 4.1173 13.4162 4.23333 13.4596L9.63614 15.4855L8.26552 22.3527C8.2344 22.5124 8.25607 22.678 8.32727 22.8243C8.39848 22.9706 8.51534 23.0898 8.66023 23.1639C8.80512 23.238 8.97018 23.263 9.1305 23.235C9.29081 23.2071 9.43769 23.1277 9.54896 23.009L20.049 11.759C20.1327 11.6691 20.1931 11.56 20.2248 11.4413C20.2565 11.3227 20.2586 11.198 20.2308 11.0783ZM10.254 20.0624L11.2355 15.1518C11.2706 14.9776 11.2428 14.7966 11.157 14.6411C11.0711 14.4855 10.9328 14.3655 10.7668 14.3024L5.81302 12.4415L13.7461 3.94209L12.7655 8.85272C12.7304 9.02688 12.7582 9.20785 12.8441 9.3634C12.9299 9.51895 13.0682 9.63898 13.2343 9.70209L18.1843 11.5583L10.254 20.0624Z" fill="black"/>
</svg>
