<svg width="24" height="24" viewBox="0 0 24 24" fill="none" xmlns="http://www.w3.org/2000/svg">
<path d="M5.05519 3.24562C4.98932 3.17137 4.90938 3.11094 4.81999 3.06782C4.7306 3.0247 4.63354 2.99975 4.53443 2.99442C4.43533 2.98909 4.33615 3.00348 4.24265 3.03676C4.14915 3.07004 4.06318 3.12155 3.98973 3.1883C3.91628 3.25505 3.85681 3.33571 3.81477 3.42561C3.77272 3.51552 3.74894 3.61287 3.74479 3.71203C3.74065 3.81119 3.75623 3.91019 3.79063 4.00329C3.82503 4.09638 3.87756 4.18173 3.94519 4.25437L7.62488 8.30249L3.95175 12.24C3.86647 12.3299 3.80478 12.4394 3.77219 12.559C3.73959 12.6785 3.73711 12.8042 3.76497 12.9249C3.79283 13.0456 3.85015 13.1576 3.93182 13.2507C4.01349 13.3439 4.11697 13.4153 4.233 13.4587L9.63581 15.4847L8.26519 22.3528C8.23407 22.5125 8.25574 22.6781 8.32694 22.8244C8.39815 22.9707 8.51501 23.0899 8.6599 23.164C8.80479 23.2381 8.96985 23.263 9.13016 23.2351C9.29048 23.2071 9.43736 23.1278 9.54863 23.0091L15.348 16.7953L18.9452 20.7516C19.0111 20.8258 19.091 20.8862 19.1804 20.9294C19.2698 20.9725 19.3668 20.9974 19.4659 21.0028C19.5651 21.0081 19.6642 20.9937 19.7577 20.9604C19.8512 20.9271 19.9372 20.8756 20.0106 20.8089C20.0841 20.7421 20.1436 20.6615 20.1856 20.5716C20.2277 20.4817 20.2514 20.3843 20.2556 20.2851C20.2597 20.186 20.2441 20.087 20.2097 19.9939C20.1753 19.9008 20.1228 19.8154 20.0552 19.7428L5.05519 3.24562ZM10.2536 20.0625L11.2352 15.1519C11.2703 14.9777 11.2425 14.7967 11.1566 14.6412C11.0708 14.4856 10.9325 14.3656 10.7664 14.3025L5.81269 12.4416L8.63644 9.41624L14.3346 15.6844L10.2536 20.0625ZM10.1871 6.65624C10.115 6.58904 10.0569 6.50829 10.0161 6.41863C9.97526 6.32896 9.9525 6.23213 9.9491 6.13366C9.94571 6.0352 9.96175 5.93703 9.9963 5.84476C10.0309 5.75249 10.0833 5.66794 10.1505 5.59593L14.4518 0.987181C14.563 0.868433 14.7099 0.789097 14.8702 0.761147C15.0305 0.733196 15.1956 0.758146 15.3405 0.832232C15.4854 0.906318 15.6022 1.02552 15.6734 1.17185C15.7446 1.31818 15.7663 1.4837 15.7352 1.64343L14.3608 8.52187L19.7636 10.5478C19.8788 10.5915 19.9814 10.6629 20.0625 10.7557C20.1435 10.8485 20.2005 10.9598 20.2283 11.0798C20.2561 11.1998 20.2539 11.3248 20.2219 11.4438C20.1899 11.5627 20.1291 11.672 20.0449 11.7619L17.9543 14.0016C17.8176 14.1429 17.631 14.225 17.4344 14.2301C17.2379 14.2352 17.0473 14.1629 16.9035 14.0289C16.7597 13.8948 16.6743 13.7096 16.6657 13.5132C16.6571 13.3168 16.7259 13.1249 16.8574 12.9787L18.1877 11.5584L13.2377 9.70218C13.0716 9.63906 12.9333 9.51904 12.8475 9.36349C12.7616 9.20794 12.7338 9.02696 12.7689 8.85281L13.7505 3.94218L11.2502 6.62062C11.1829 6.69302 11.1019 6.75139 11.012 6.79239C10.922 6.83339 10.8248 6.8562 10.726 6.85951C10.6272 6.86282 10.5288 6.84657 10.4363 6.81168C10.3438 6.7768 10.2591 6.72397 10.1871 6.65624Z" fill="black"/>
</svg>
