<svg width="24" height="24" viewBox="0 0 24 24" fill="none" xmlns="http://www.w3.org/2000/svg">
<path d="M20.1231 3.87753C19.607 3.35995 18.9196 3.0486 18.1902 3.00197C17.4607 2.95533 16.7393 3.17662 16.1615 3.62427C15.5837 4.07191 15.1891 4.71512 15.052 5.43309C14.9149 6.15106 15.0446 6.89439 15.4168 7.52347L7.52403 15.4163C6.95071 15.0792 6.28178 14.9418 5.62203 15.0257C4.96227 15.1095 4.34894 15.4097 3.87809 15.8794C3.48147 16.2762 3.20408 16.7764 3.07743 17.3229C2.95078 17.8695 2.97995 18.4407 3.16161 18.9715C3.34327 19.5023 3.67016 19.9716 4.10514 20.326C4.54011 20.6803 5.06575 20.9056 5.62235 20.9763C6.17895 21.0469 6.7442 20.96 7.2539 20.7255C7.76361 20.491 8.19733 20.1183 8.50582 19.6496C8.81431 19.181 8.9852 18.6352 8.99908 18.0743C9.01296 17.5135 8.86927 16.9599 8.58434 16.4766L16.4772 8.58378C17.1062 8.95598 17.8496 9.08571 18.5675 8.94859C19.2855 8.81147 19.9287 8.41695 20.3764 7.83912C20.824 7.26129 21.0453 6.5399 20.9987 5.81044C20.952 5.08099 20.6407 4.39366 20.1231 3.87753ZM7.0609 19.065C6.77944 19.3465 6.3977 19.5046 5.99965 19.5046C5.60161 19.5046 5.21986 19.3465 4.9384 19.065C4.65694 18.7836 4.49882 18.4018 4.49882 18.0038C4.49882 17.6057 4.65694 17.224 4.9384 16.9425C5.0777 16.8032 5.24307 16.6927 5.42508 16.6173C5.60709 16.5419 5.80217 16.5031 5.99918 16.5031C6.1962 16.5031 6.39128 16.5419 6.57329 16.6173C6.7553 16.6927 6.92067 16.8032 7.05997 16.9425C7.3409 17.2236 7.49878 17.6048 7.49896 18.0022C7.49913 18.3996 7.34158 18.7809 7.0609 19.0622V19.065ZM19.0609 7.06503C18.8511 7.27478 18.5838 7.4176 18.2929 7.47545C18.0019 7.5333 17.7003 7.50358 17.4263 7.39004C17.1522 7.27649 16.9179 7.08424 16.7531 6.83757C16.5883 6.5909 16.5004 6.30091 16.5004 6.00425C16.5004 5.70759 16.5883 5.4176 16.7531 5.17093C16.9179 4.92426 17.1522 4.73201 17.4263 4.61846C17.7003 4.50492 18.0019 4.4752 18.2929 4.53305C18.5838 4.5909 18.8511 4.73372 19.0609 4.94347C19.3408 5.2243 19.4981 5.60454 19.4985 6.00105C19.4988 6.39756 19.3422 6.77808 19.0628 7.05941L19.0609 7.06503Z" fill="black"/>
</svg>
