<svg width="24" height="24" viewBox="0 0 24 24" fill="none" xmlns="http://www.w3.org/2000/svg">
<path d="M22.3715 3.12746C22.0929 2.84881 21.7622 2.62777 21.3981 2.47696C21.0341 2.32616 20.6439 2.24854 20.2499 2.24854C19.8559 2.24854 19.4657 2.32616 19.1017 2.47696C18.7377 2.62777 18.4069 2.84881 18.1284 3.12746C17.8497 3.40604 17.6287 3.73679 17.4779 4.10081C17.3271 4.46483 17.2494 4.855 17.2494 5.24902C17.2494 5.64304 17.3271 6.03321 17.4779 6.39723C17.6287 6.76125 17.8497 7.092 18.1284 7.37058C18.1555 7.39777 18.1846 7.42402 18.2127 7.45027L15.7162 12.0871C14.955 11.9015 14.1515 12.0192 13.4755 12.4153L11.5837 10.5234C11.9559 9.89431 12.0856 9.15098 11.9485 8.43302C11.8114 7.71505 11.4168 7.07184 10.839 6.62419C10.2612 6.17654 9.53979 5.95526 8.81034 6.00189C8.08088 6.04853 7.39355 6.35987 6.87742 6.87746C6.59878 7.15604 6.37774 7.48679 6.22693 7.85081C6.07612 8.21483 5.9985 8.605 5.9985 8.99902C5.9985 9.39304 6.07612 9.78321 6.22693 10.1472C6.37774 10.5112 6.59878 10.842 6.87742 11.1206C6.90461 11.1478 6.93274 11.174 6.96086 11.2003L4.4643 15.8381C3.96317 15.7147 3.4387 15.7228 2.94158 15.8614C2.44445 16 1.9915 16.2645 1.62649 16.6293C1.207 17.0489 0.921342 17.5835 0.805642 18.1654C0.689942 18.7473 0.749392 19.3505 0.976475 19.8986C1.20356 20.4468 1.58808 20.9153 2.08141 21.2449C2.57474 21.5745 3.15473 21.7504 3.74805 21.7504C4.34136 21.7504 4.92135 21.5745 5.41469 21.2449C5.90802 20.9153 6.29254 20.4468 6.51962 19.8986C6.7467 19.3505 6.80615 18.7473 6.69045 18.1654C6.57475 17.5835 6.2891 17.0489 5.86961 16.6293C5.84242 16.6021 5.81336 16.5759 5.78524 16.5496L8.2818 11.9128C8.51654 11.9703 8.75731 11.9995 8.99899 12C9.5346 12.0006 10.0606 11.8579 10.5224 11.5865L12.4143 13.4784C12.1295 13.9618 11.9859 14.5153 11.9999 15.0762C12.0139 15.6371 12.1849 16.1828 12.4935 16.6514C12.8021 17.1199 13.2359 17.4926 13.7456 17.727C14.2554 17.9614 14.8206 18.0481 15.3772 17.9774C15.9338 17.9067 16.4594 17.6813 16.8943 17.3268C17.3292 16.9724 17.656 16.5031 17.8376 15.9722C18.0191 15.4413 18.0482 14.8702 17.9214 14.3236C17.7947 13.7771 17.5172 13.277 17.1205 12.8803C17.0934 12.8531 17.0652 12.8268 17.0371 12.8006L19.5337 8.16371C19.7678 8.2208 20.008 8.24975 20.249 8.24996C20.8422 8.24987 21.4221 8.0739 21.9153 7.74431C22.4086 7.41472 22.793 6.9463 23.0201 6.39825C23.2471 5.85021 23.3066 5.24715 23.191 4.6653C23.0754 4.08345 22.7899 3.54894 22.3705 3.12933L22.3715 3.12746ZM4.80836 19.8121C4.5269 20.0935 4.14521 20.2515 3.74725 20.2514C3.34929 20.2513 2.96767 20.0931 2.68633 19.8117C2.40499 19.5302 2.24699 19.1485 2.24708 18.7506C2.24716 18.3526 2.40534 17.971 2.6868 17.6896C2.82616 17.5503 2.9916 17.4399 3.17367 17.3645C3.35573 17.2891 3.55086 17.2503 3.74791 17.2504C3.94496 17.2504 4.14007 17.2893 4.3221 17.3647C4.50414 17.4402 4.66953 17.5507 4.80883 17.6901C4.94813 17.8295 5.05862 17.9949 5.13399 18.177C5.20936 18.359 5.24813 18.5542 5.24808 18.7512C5.24804 18.9483 5.20918 19.1434 5.13374 19.3254C5.05829 19.5075 4.94773 19.6728 4.80836 19.8121ZM7.93774 10.0621C7.79841 9.92285 7.68789 9.75748 7.61249 9.57547C7.53709 9.39346 7.49827 9.19837 7.49827 9.00136C7.49827 8.80435 7.53709 8.60927 7.61249 8.42726C7.68789 8.24525 7.79841 8.07987 7.93774 7.94058C8.14753 7.73084 8.4148 7.58801 8.70577 7.53016C8.99673 7.47231 9.29831 7.50204 9.57238 7.61558C9.84645 7.72912 10.0807 7.92138 10.2455 8.16804C10.4103 8.41471 10.4983 8.70471 10.4983 9.00136C10.4983 9.29802 10.4103 9.58802 10.2455 9.83468C10.0807 10.0813 9.84645 10.2736 9.57238 10.3871C9.29831 10.5007 8.99673 10.5304 8.70577 10.4726C8.4148 10.4147 8.14753 10.2719 7.93774 10.0621ZM16.0602 16.0621C15.7789 16.3435 15.3973 16.5015 14.9995 16.5015C14.6016 16.5015 14.22 16.3435 13.9387 16.0621C13.6573 15.7808 13.4993 15.3992 13.4993 15.0014C13.4993 14.6035 13.6573 14.2219 13.9387 13.9406C14.22 13.6592 14.6016 13.5012 14.9995 13.5012C15.3973 13.5012 15.7789 13.6592 16.0602 13.9406C16.3416 14.2219 16.4996 14.6035 16.4996 15.0014C16.4996 15.3992 16.3416 15.7808 16.0602 16.0621ZM21.3102 6.31214C21.0285 6.59336 20.6466 6.75114 20.2486 6.75079C19.8506 6.75044 19.4689 6.59198 19.1877 6.31027C18.9065 6.02856 18.7487 5.64668 18.7491 5.24863C18.7494 4.85059 18.9079 4.46898 19.1896 4.18777C19.329 4.04847 19.4944 3.93798 19.6765 3.86261C19.8585 3.78724 20.0537 3.74847 20.2507 3.74852C20.4478 3.74856 20.6429 3.78742 20.8249 3.86286C21.0069 3.93831 21.1723 4.04887 21.3116 4.18824C21.4509 4.3276 21.5614 4.49304 21.6368 4.67511C21.7122 4.85717 21.7509 5.0523 21.7509 5.24935C21.7509 5.4464 21.712 5.64151 21.6365 5.82354C21.5611 6.00558 21.4505 6.17097 21.3112 6.31027L21.3102 6.31214Z" fill="black"/>
</svg>
