<svg width="24" height="24" viewBox="0 0 24 24" fill="none" xmlns="http://www.w3.org/2000/svg">
<path d="M21.468 20.8359C21.3127 20.9601 21.1145 21.0174 20.9169 20.9955C20.7193 20.9735 20.5385 20.874 20.4142 20.7188C20.2858 20.5566 17.2492 16.6744 17.2492 9C17.2492 7.60761 16.6961 6.27226 15.7116 5.28769C14.727 4.30312 13.3916 3.75 11.9992 3.75C10.6069 3.75 9.2715 4.30312 8.28694 5.28769C7.30237 6.27226 6.74925 7.60761 6.74925 9C6.74925 16.6744 3.71456 20.5566 3.58519 20.7188C3.52363 20.7958 3.44751 20.8599 3.36117 20.9075C3.27482 20.9551 3.17996 20.9852 3.08197 20.9961C2.98399 21.007 2.88482 20.9986 2.79012 20.9712C2.69542 20.9438 2.60704 20.898 2.53003 20.8364C2.45302 20.7748 2.38889 20.6987 2.3413 20.6124C2.29371 20.526 2.2636 20.4312 2.25267 20.3332C2.24175 20.2352 2.25023 20.136 2.27763 20.0413C2.30503 19.9466 2.35082 19.8583 2.41237 19.7812C2.42644 19.7625 3.13331 18.8531 3.83081 17.0869C4.47769 15.45 5.24925 12.7162 5.24925 9C5.24925 7.20979 5.96041 5.4929 7.22628 4.22703C8.49215 2.96116 10.209 2.25 11.9992 2.25C13.7895 2.25 15.5063 2.96116 16.7722 4.22703C18.0381 5.4929 18.7492 7.20979 18.7492 9C18.7492 12.7162 19.5208 15.45 20.1677 17.0887C20.8689 18.8644 21.5796 19.7738 21.5871 19.7831C21.7107 19.9386 21.7676 20.1368 21.7452 20.3342C21.7229 20.5315 21.6232 20.712 21.468 20.8359ZM9.37425 9C9.15174 9 8.93424 9.06598 8.74923 9.1896C8.56423 9.31321 8.42003 9.48891 8.33488 9.69448C8.24973 9.90005 8.22746 10.1262 8.27086 10.3445C8.31427 10.5627 8.42142 10.7632 8.57875 10.9205C8.73609 11.0778 8.93654 11.185 9.15477 11.2284C9.373 11.2718 9.5992 11.2495 9.80477 11.1644C10.0103 11.0792 10.186 10.935 10.3097 10.75C10.4333 10.565 10.4992 10.3475 10.4992 10.125C10.4992 9.82663 10.3807 9.54048 10.1697 9.3295C9.95876 9.11853 9.67262 9 9.37425 9ZM15.7492 10.125C15.7492 9.9025 15.6833 9.68499 15.5597 9.49998C15.436 9.31498 15.2603 9.17078 15.0548 9.08564C14.8492 9.00049 14.623 8.97821 14.4048 9.02162C14.1865 9.06502 13.9861 9.17217 13.8288 9.3295C13.6714 9.48684 13.5643 9.68729 13.5209 9.90552C13.4775 10.1238 13.4997 10.35 13.5849 10.5555C13.67 10.7611 13.8142 10.9368 13.9992 11.0604C14.1842 11.184 14.4017 11.25 14.6242 11.25C14.9226 11.25 15.2088 11.1315 15.4197 10.9205C15.6307 10.7095 15.7492 10.4234 15.7492 10.125ZM9.33487 12.8287C9.15754 12.7445 8.95424 12.7332 8.76863 12.7972C8.58302 12.8611 8.42991 12.9954 8.34216 13.171C8.2544 13.3466 8.23902 13.5496 8.2993 13.7365C8.35958 13.9233 8.49072 14.0791 8.66456 14.1703L11.6646 15.6703C11.7685 15.7227 11.8833 15.75 11.9997 15.75C12.1161 15.75 12.2309 15.7227 12.3349 15.6703L15.3349 14.1703C15.5128 14.0813 15.648 13.9253 15.7109 13.7365C15.7737 13.5478 15.759 13.3418 15.67 13.1639C15.581 12.986 15.425 12.8507 15.2362 12.7879C15.0475 12.725 14.8415 12.7397 14.6636 12.8287L11.9992 14.1609L9.33487 12.8287ZM11.9992 17.25C11.0967 17.2572 10.2124 17.5053 9.4378 17.9685C8.66319 18.4318 8.02632 19.0935 7.593 19.8853C7.54511 19.9715 7.51466 20.0663 7.50339 20.1642C7.49213 20.2622 7.50026 20.3614 7.52734 20.4562C7.55441 20.551 7.59989 20.6395 7.66118 20.7167C7.72248 20.794 7.79838 20.8584 7.88456 20.9062C7.97074 20.9541 8.06551 20.9846 8.16346 20.9959C8.2614 21.0071 8.36061 20.999 8.45541 20.9719C8.55022 20.9448 8.63876 20.8994 8.71598 20.8381C8.79321 20.7768 8.85761 20.7009 8.9055 20.6147C9.20344 20.0526 9.64887 19.5824 10.1939 19.2544C10.739 18.9264 11.3631 18.7531 11.9992 18.7531C12.6354 18.7531 13.2595 18.9264 13.8046 19.2544C14.3496 19.5824 14.7951 20.0526 15.093 20.6147C15.1409 20.7009 15.2053 20.7768 15.2825 20.8381C15.3597 20.8994 15.4483 20.9448 15.5431 20.9719C15.6379 20.999 15.7371 21.0071 15.835 20.9959C15.933 20.9846 16.0278 20.9541 16.1139 20.9062C16.2001 20.8584 16.276 20.794 16.3373 20.7167C16.3986 20.6395 16.4441 20.551 16.4712 20.4562C16.4982 20.3614 16.5064 20.2622 16.4951 20.1642C16.4838 20.0663 16.4534 19.9715 16.4055 19.8853C15.9722 19.0935 15.3353 18.4318 14.5607 17.9685C13.7861 17.5053 12.9018 17.2572 11.9992 17.25Z" fill="black"/>
</svg>
