<svg width="24" height="24" viewBox="0 0 24 24" fill="none" xmlns="http://www.w3.org/2000/svg">
<path fill-rule="evenodd" clip-rule="evenodd" d="M11.2674 2.23256C11.2674 1.82798 11.5954 1.5 12 1.5C17.7991 1.5 22.5 6.20086 22.5 12C22.5 17.7991 17.7991 22.5 12 22.5C6.20086 22.5 1.5 17.7991 1.5 12C1.5 11.5954 1.82798 11.2674 2.23256 11.2674C2.63714 11.2674 2.96512 11.5954 2.96512 12C2.96512 16.99 7.01002 21.0349 12 21.0349C16.99 21.0349 21.0349 16.99 21.0349 12C21.0349 7.01002 16.99 2.96512 12 2.96512C11.5954 2.96512 11.2674 2.63714 11.2674 2.23256Z" fill="black"/>
</svg>
