<svg width="24" height="24" viewBox="0 0 24 24" fill="none" xmlns="http://www.w3.org/2000/svg">
<path d="M19.4055 4.71096C18.6428 3.93261 17.7327 3.31408 16.7283 2.89154C15.7238 2.46899 14.6452 2.25091 13.5555 2.25003H13.5246C12.4398 2.24724 11.3653 2.45967 10.3632 2.87501C9.36116 3.29036 8.45144 3.90036 7.68674 4.66971L1.93143 10.5C1.6528 10.7818 1.497 11.1624 1.49805 11.5587C1.49911 11.955 1.65693 12.3347 1.93706 12.615L4.62393 15.3019C4.76301 15.4417 4.92841 15.5525 5.11056 15.6279C5.29271 15.7034 5.48801 15.742 5.68518 15.7416H5.69362C5.89221 15.7405 6.08862 15.7 6.27144 15.6225C6.45426 15.5449 6.61985 15.4318 6.75862 15.2897L12.468 9.43971C12.7468 9.16371 13.1222 9.00726 13.5145 9.00358C13.9068 8.99991 14.285 9.1493 14.5689 9.42003C14.7093 9.55634 14.8208 9.71942 14.897 9.89962C14.9731 10.0798 15.0124 10.2735 15.0124 10.4691C15.0143 10.6773 14.9751 10.8838 14.8971 11.0769C14.819 11.2699 14.7037 11.4457 14.5577 11.5941L8.71799 17.2388C8.57536 17.3773 8.46169 17.5427 8.38357 17.7256C8.30546 17.9084 8.26447 18.1049 8.26299 18.3037C8.26151 18.5025 8.29956 18.6996 8.37494 18.8836C8.45031 19.0676 8.56151 19.2347 8.70206 19.3753L11.3889 22.0622C11.669 22.3406 12.0473 22.4978 12.4423 22.4999C12.8372 22.502 13.2171 22.3489 13.5002 22.0735L19.2939 16.4063C22.5236 13.1719 22.5733 7.92753 19.4055 4.71096ZM5.68518 14.2397L2.99924 11.5538L5.23049 9.29253L7.90424 11.9663L5.68518 14.2397ZM12.4483 21L9.75956 18.3141L12.0452 16.1044L14.718 18.78L12.4483 21ZM18.2383 15.3338L15.7905 17.7282L13.1242 15.0638L15.603 12.6666L15.6124 12.6582C15.8999 12.3683 16.1272 12.0244 16.2812 11.6463C16.4352 11.2681 16.5128 10.8633 16.5096 10.455C16.5079 10.0605 16.427 9.67042 16.2718 9.30776C16.1165 8.94511 15.8901 8.6173 15.6058 8.34378C15.0362 7.80195 14.2777 7.50369 13.4916 7.51245C12.7055 7.5212 11.9538 7.83627 11.3964 8.39065L8.95143 10.8919L6.28049 8.22565L8.75081 5.72721C9.37616 5.09825 10.1201 4.59963 10.9395 4.26024C11.759 3.92085 12.6376 3.74743 13.5246 3.75003H13.5499C14.4414 3.7508 15.3238 3.92928 16.1456 4.27504C16.9673 4.62081 17.7119 5.12691 18.3358 5.76378C20.9289 8.39534 20.8821 12.6919 18.2383 15.3357V15.3338Z" fill="black"/>
</svg>
