<svg width="24" height="24" viewBox="0 0 24 24" fill="none" xmlns="http://www.w3.org/2000/svg">
<path d="M18.8945 5.1055C17.066 3.277 14.586 2.24976 12.0001 2.24976C9.41423 2.24976 6.93425 3.277 5.10574 5.1055C3.27724 6.934 2.25 9.41398 2.25 11.9999C2.25 14.5858 3.27724 17.0657 5.10574 18.8942C6.93425 20.7227 9.41423 21.75 12.0001 21.75C14.586 21.75 17.066 20.7227 18.8945 18.8942C20.723 17.0657 21.7502 14.5858 21.7502 11.9999C21.7502 9.41398 20.723 6.934 18.8945 5.1055ZM8.25012 19.3471V16.4999H15.7501V19.3471C14.5881 19.9369 13.3033 20.2442 12.0001 20.2442C10.697 20.2442 9.41217 19.9369 8.25012 19.3471ZM9.75012 13.4999H14.2501V14.9999H9.75012V13.4999ZM11.0626 11.9999L12.0001 7.49987L12.9376 11.9999H11.0626ZM17.8332 17.8339C17.6457 18.0214 17.4507 18.1967 17.2501 18.3627V16.4999C17.2501 16.102 17.0921 15.7205 16.8108 15.4392C16.5295 15.1579 16.1479 14.9999 15.7501 14.9999V13.4999C15.7497 13.1412 15.6207 12.7946 15.3866 12.5228C15.1525 12.2511 14.8288 12.0722 14.4742 12.0186L13.4682 7.19425C13.3976 6.85715 13.2131 6.55463 12.9458 6.33749C12.6785 6.12036 12.3445 6.00183 12.0001 6.00183C11.6557 6.00183 11.3218 6.12036 11.0544 6.33749C10.7871 6.55463 10.6026 6.85715 10.532 7.19425L9.52606 12.0186C9.17141 12.0722 8.8477 12.2511 8.61362 12.5228C8.37954 12.7946 8.25058 13.1412 8.25012 13.4999V14.9999C7.85229 14.9999 7.47076 15.1579 7.18946 15.4392C6.90815 15.7205 6.75012 16.102 6.75012 16.4999V18.3627C6.54949 18.1967 6.35449 18.0214 6.16699 17.8339C5.01307 16.6802 4.22719 15.2102 3.90874 13.6098C3.5903 12.0094 3.75359 10.3506 4.37798 8.84299C5.00236 7.33542 6.05978 6.04686 7.41651 5.14027C8.77325 4.23369 10.3684 3.7498 12.0001 3.7498C13.6319 3.7498 15.227 4.23369 16.5837 5.14027C17.9405 6.04686 18.9979 7.33542 19.6223 8.84299C20.2466 10.3506 20.4099 12.0094 20.0915 13.6098C19.773 15.2102 18.9872 16.6802 17.8332 17.8339Z" fill="black"/>
</svg>
