<svg width="24" height="24" viewBox="0 0 24 24" fill="none" xmlns="http://www.w3.org/2000/svg">
<path d="M20.6756 8.12445L4.17 3.06195C3.9466 2.99679 3.7111 2.98451 3.48213 3.02606C3.25316 3.06762 3.037 3.16188 2.85075 3.30139C2.66449 3.4409 2.51325 3.62183 2.40899 3.82988C2.30472 4.03792 2.25029 4.26737 2.25 4.50008V18.0001C2.25 18.3979 2.40804 18.7794 2.68934 19.0607C2.97064 19.342 3.35218 19.5001 3.75 19.5001C3.89344 19.5001 4.03614 19.4796 4.17375 19.4391L12 17.0373V18.0001C12 18.3979 12.158 18.7794 12.4393 19.0607C12.7206 19.342 13.1022 19.5001 13.5 19.5001H16.5C16.8978 19.5001 17.2794 19.342 17.5607 19.0607C17.842 18.7794 18 18.3979 18 18.0001V15.197L20.6756 14.3766C20.9853 14.2836 21.2569 14.0935 21.4503 13.8344C21.6437 13.5753 21.7488 13.2609 21.75 12.9376V9.56258C21.7486 9.2394 21.6434 8.92521 21.45 8.6663C21.2566 8.40739 20.9851 8.21745 20.6756 8.12445ZM12 15.4688L3.75 18.0001V4.50008L12 7.03133V15.4688ZM16.5 18.0001H13.5V16.577L16.5 15.6563V18.0001ZM20.25 12.9376H20.2397L13.5 15.0076V7.49258L20.2397 9.55508H20.25V12.9301V12.9376Z" fill="black"/>
</svg>
