<svg width="24" height="24" viewBox="0 0 24 24" fill="none" xmlns="http://www.w3.org/2000/svg">
<path d="M22.4995 9C22.4995 9.19891 22.4204 9.38968 22.2798 9.53033C22.1391 9.67098 21.9484 9.75 21.7495 9.75H20.2495V11.25C20.2495 11.4489 20.1704 11.6397 20.0298 11.7803C19.8891 11.921 19.6984 12 19.4995 12C19.3005 12 19.1098 11.921 18.9691 11.7803C18.8285 11.6397 18.7495 11.4489 18.7495 11.25V9.75H17.2495C17.0505 9.75 16.8598 9.67098 16.7191 9.53033C16.5785 9.38968 16.4995 9.19891 16.4995 9C16.4995 8.80109 16.5785 8.61032 16.7191 8.46967C16.8598 8.32902 17.0505 8.25 17.2495 8.25H18.7495V6.75C18.7495 6.55109 18.8285 6.36032 18.9691 6.21967C19.1098 6.07902 19.3005 6 19.4995 6C19.6984 6 19.8891 6.07902 20.0298 6.21967C20.1704 6.36032 20.2495 6.55109 20.2495 6.75V8.25H21.7495C21.9484 8.25 22.1391 8.32902 22.2798 8.46967C22.4204 8.61032 22.4995 8.80109 22.4995 9ZM13.4995 5.25H14.2495V6C14.2495 6.19891 14.3285 6.38968 14.4691 6.53033C14.6098 6.67098 14.8005 6.75 14.9995 6.75C15.1984 6.75 15.3891 6.67098 15.5298 6.53033C15.6704 6.38968 15.7495 6.19891 15.7495 6V5.25H16.4995C16.6984 5.25 16.8891 5.17098 17.0298 5.03033C17.1704 4.88968 17.2495 4.69891 17.2495 4.5C17.2495 4.30109 17.1704 4.11032 17.0298 3.96967C16.8891 3.82902 16.6984 3.75 16.4995 3.75H15.7495V3C15.7495 2.80109 15.6704 2.61032 15.5298 2.46967C15.3891 2.32902 15.1984 2.25 14.9995 2.25C14.8005 2.25 14.6098 2.32902 14.4691 2.46967C14.3285 2.61032 14.2495 2.80109 14.2495 3V3.75H13.4995C13.3005 3.75 13.1098 3.82902 12.9691 3.96967C12.8285 4.11032 12.7495 4.30109 12.7495 4.5C12.7495 4.69891 12.8285 4.88968 12.9691 5.03033C13.1098 5.17098 13.3005 5.25 13.4995 5.25ZM20.3216 14.3438C20.409 14.4454 20.4674 14.5686 20.491 14.7005C20.5146 14.8324 20.5024 14.9682 20.4557 15.0938C19.9353 16.513 19.0658 17.7784 17.9274 18.773C16.7889 19.7676 15.4184 20.4594 13.9421 20.7846C12.4658 21.1098 10.9313 21.058 9.48039 20.6338C8.02944 20.2096 6.70871 19.4267 5.64009 18.3575C4.57147 17.2883 3.78939 15.9671 3.36602 14.5159C2.94266 13.0647 2.89165 11.5303 3.2177 10.0542C3.54375 8.57806 4.23637 7.20786 5.23162 6.07002C6.22687 4.93218 7.4927 4.06337 8.91227 3.54375C9.03722 3.49799 9.17209 3.4863 9.30305 3.50987C9.43401 3.53344 9.55634 3.59142 9.65749 3.67788C9.75864 3.76434 9.83497 3.87614 9.87865 4.00184C9.92232 4.12753 9.93177 4.26258 9.90602 4.39313C9.6432 5.72341 9.71206 7.09795 10.1065 8.3953C10.501 9.69266 11.2089 10.8729 12.1677 11.8317C13.1266 12.7906 14.3068 13.4985 15.6042 13.8929C16.9015 14.2874 18.2761 14.3563 19.6063 14.0934C19.7371 14.0679 19.8722 14.0776 19.9979 14.1216C20.1236 14.1656 20.2354 14.2423 20.3216 14.3438ZM18.5038 15.7388C18.336 15.7472 18.1673 15.7519 17.9995 15.7519C15.4141 15.7491 12.9355 14.7208 11.1075 12.8925C9.27958 11.0642 8.25169 8.58535 8.24946 6C8.24946 5.83219 8.24946 5.66344 8.26259 5.49563C7.2647 6.06985 6.4124 6.86611 5.77174 7.82271C5.13108 8.7793 4.71924 9.87055 4.56815 11.0119C4.41706 12.1533 4.53076 13.3141 4.90044 14.4044C5.27013 15.4948 5.88588 16.4854 6.69998 17.2995C7.51408 18.1136 8.50468 18.7293 9.59503 19.099C10.6854 19.4687 11.8462 19.5824 12.9876 19.4313C14.1289 19.2802 15.2202 18.8684 16.1768 18.2277C17.1333 17.5871 17.9296 16.7348 18.5038 15.7369V15.7388Z" fill="black"/>
</svg>
