<svg width="24" height="24" viewBox="0 0 24 24" fill="none" xmlns="http://www.w3.org/2000/svg">
<g clip-path="url(#clip0_639_8098)">
<path d="M20.2512 11.25C20.0439 11.2505 19.837 11.2677 19.6324 11.3016L19.0868 9.88219C19.4687 9.79453 19.8593 9.75019 20.2512 9.75C20.4501 9.75 20.6409 9.67098 20.7815 9.53033C20.9222 9.38968 21.0012 9.19891 21.0012 9C21.0012 8.80109 20.9222 8.61032 20.7815 8.46967C20.6409 8.32902 20.4501 8.25 20.2512 8.25H18.4587L17.2015 4.98094C17.1471 4.83936 17.051 4.71761 16.926 4.63175C16.801 4.54589 16.6529 4.49995 16.5012 4.5H13.5012C13.3023 4.5 13.1115 4.57902 12.9709 4.71967C12.8302 4.86032 12.7512 5.05109 12.7512 5.25C12.7512 5.44891 12.8302 5.63968 12.9709 5.78033C13.1115 5.92098 13.3023 6 13.5012 6H15.9865L16.8518 8.25H14.2512C12.5168 8.25 11.1106 8.65406 10.1853 9.41813C9.9675 9.59378 9.70497 9.70504 9.42731 9.73933C9.14966 9.77363 8.86794 9.72959 8.614 9.61219C7.62213 9.16125 2.91963 7.24969 2.50525 7.0875L1.96994 6.8775C1.82077 6.81229 1.66284 6.76933 1.50119 6.75C1.32633 6.75042 1.15712 6.81192 1.02281 6.92388C0.88849 7.03583 0.79751 7.19119 0.765596 7.36311C0.733681 7.53502 0.762837 7.71269 0.848024 7.86539C0.93321 8.01809 1.06907 8.13622 1.23213 8.19937C1.27525 8.21625 5.65619 9.915 7.99431 10.9772C8.5043 11.2092 9.06886 11.2945 9.62462 11.2234C10.1804 11.1524 10.7053 10.9278 11.1406 10.575C11.5962 10.2 12.5065 9.75 14.2521 9.75H16.0165C14.9217 10.6289 14.1293 11.8284 13.7506 13.1803C13.6598 13.4908 13.4703 13.7632 13.2108 13.9562C12.9513 14.1492 12.6359 14.2524 12.3124 14.25H7.42619C7.24033 13.3395 6.723 12.5304 5.9745 11.9796C5.22599 11.4288 4.29965 11.1756 3.37504 11.269C2.45044 11.3624 1.59346 11.7958 0.970235 12.4851C0.347013 13.1745 0.00195312 14.0707 0.00195312 15C0.00195312 15.9293 0.347013 16.8255 0.970235 17.5149C1.59346 18.2042 2.45044 18.6376 3.37504 18.731C4.29965 18.8244 5.22599 18.5712 5.9745 18.0204C6.723 17.4696 7.24033 16.6605 7.42619 15.75H12.3124C12.9629 15.7514 13.5962 15.5408 14.1162 15.15C14.6362 14.7592 15.0147 14.2096 15.1943 13.5844C15.3814 12.9193 15.6979 12.2978 16.1257 11.7553C16.5534 11.2128 17.0841 10.7601 17.6871 10.4231L18.2327 11.8416C17.4726 12.3281 16.9134 13.0725 16.6578 13.9381C16.4023 14.8037 16.4674 15.7324 16.8414 16.5538C17.2153 17.3752 17.873 18.0342 18.6937 18.4098C19.5143 18.7854 20.4429 18.8525 21.309 18.5986C22.1751 18.3448 22.9206 17.7871 23.4087 17.0279C23.8968 16.2688 24.0947 15.359 23.9661 14.4657C23.8375 13.5724 23.391 12.7554 22.7086 12.1647C22.0262 11.574 21.1537 11.2492 20.2512 11.25ZM3.75119 15.75H5.87181C5.69489 16.2504 5.34676 16.6722 4.88895 16.9407C4.43114 17.2093 3.89313 17.3073 3.37001 17.2176C2.84689 17.1278 2.37234 16.856 2.03023 16.4502C1.68813 16.0444 1.50049 15.5308 1.50049 15C1.50049 14.4692 1.68813 13.9556 2.03023 13.5498C2.37234 13.144 2.84689 12.8722 3.37001 12.7824C3.89313 12.6927 4.43114 12.7907 4.88895 13.0593C5.34676 13.3278 5.69489 13.7496 5.87181 14.25H3.75119C3.55228 14.25 3.36151 14.329 3.22086 14.4697C3.08021 14.6103 3.00119 14.8011 3.00119 15C3.00119 15.1989 3.08021 15.3897 3.22086 15.5303C3.36151 15.671 3.55228 15.75 3.75119 15.75ZM20.2512 17.25C19.7916 17.2494 19.3432 17.1081 18.9663 16.8451C18.5894 16.5821 18.3021 16.21 18.1431 15.7788C17.984 15.3476 17.9608 14.8781 18.0765 14.4333C18.1923 13.9885 18.4415 13.5899 18.7906 13.2909L19.5509 15.2691C19.6222 15.4548 19.7645 15.6046 19.9462 15.6855C20.128 15.7663 20.3345 15.7717 20.5203 15.7003C20.706 15.629 20.8558 15.4867 20.9366 15.3049C21.0175 15.1231 21.0229 14.9167 20.9515 14.7309L20.1903 12.75H20.2512C20.8479 12.75 21.4202 12.9871 21.8422 13.409C22.2641 13.831 22.5012 14.4033 22.5012 15C22.5012 15.5967 22.2641 16.169 21.8422 16.591C21.4202 17.0129 20.8479 17.25 20.2512 17.25Z" fill="black"/>
</g>
<defs>
<clipPath id="clip0_639_8098">
<rect width="24" height="24" fill="white"/>
</clipPath>
</defs>
</svg>
