<svg width="24" height="24" viewBox="0 0 24 24" fill="none" xmlns="http://www.w3.org/2000/svg">
<path d="M21.75 5.25C21.75 5.44891 21.671 5.63968 21.5303 5.78033C21.3897 5.92098 21.1989 6 21 6H19.5V7.5C19.5 7.69891 19.421 7.88968 19.2803 8.03033C19.1397 8.17098 18.9489 8.25 18.75 8.25C18.5511 8.25 18.3603 8.17098 18.2197 8.03033C18.079 7.88968 18 7.69891 18 7.5V6H16.5C16.3011 6 16.1103 5.92098 15.9697 5.78033C15.829 5.63968 15.75 5.44891 15.75 5.25C15.75 5.05109 15.829 4.86032 15.9697 4.71967C16.1103 4.57902 16.3011 4.5 16.5 4.5H18V3C18 2.80109 18.079 2.61032 18.2197 2.46967C18.3603 2.32902 18.5511 2.25 18.75 2.25C18.9489 2.25 19.1397 2.32902 19.2803 2.46967C19.421 2.61032 19.5 2.80109 19.5 3V4.5H21C21.1989 4.5 21.3897 4.57902 21.5303 4.71967C21.671 4.86032 21.75 5.05109 21.75 5.25ZM8.25 11.0859V19.125C8.25028 19.8775 7.99909 20.6084 7.53635 21.2018C7.0736 21.7951 6.42584 22.2168 5.69598 22.3999C4.96612 22.5829 4.19603 22.5168 3.50805 22.212C2.82007 21.9073 2.25366 21.3813 1.89883 20.7178C1.54399 20.0542 1.42108 19.2911 1.54961 18.5497C1.67814 17.8083 2.05075 17.1312 2.60823 16.6258C3.16571 16.1204 3.8761 15.8158 4.62652 15.7604C5.37694 15.705 6.12435 15.902 6.75 16.32V6C6.75003 5.83275 6.80596 5.67031 6.90889 5.5385C7.01183 5.40668 7.15587 5.31306 7.31813 5.2725L12.5681 3.96C12.7597 3.91557 12.9611 3.94819 13.1289 4.05083C13.2967 4.15346 13.4174 4.3179 13.4651 4.50872C13.5128 4.69953 13.4837 4.90145 13.3839 5.07096C13.2842 5.24048 13.1218 5.36403 12.9319 5.415L8.25 6.58594V9.53906L14.8181 7.8975C15.0097 7.85307 15.2111 7.88569 15.3789 7.98833C15.5467 8.09096 15.6674 8.2554 15.7151 8.44622C15.7628 8.63703 15.7337 8.83895 15.6339 9.00846C15.5342 9.17798 15.3718 9.30153 15.1819 9.3525L8.25 11.0859ZM6.75 19.125C6.75 18.7542 6.64004 18.3916 6.43401 18.0833C6.22798 17.775 5.93515 17.5346 5.59254 17.3927C5.24992 17.2508 4.87292 17.2137 4.50921 17.286C4.1455 17.3584 3.8114 17.537 3.54918 17.7992C3.28696 18.0614 3.10838 18.3955 3.03603 18.7592C2.96368 19.1229 3.00082 19.4999 3.14273 19.8425C3.28464 20.1851 3.52497 20.478 3.83331 20.684C4.14165 20.89 4.50416 21 4.875 21C5.37229 21 5.8492 20.8025 6.20083 20.4508C6.55246 20.0992 6.75 19.6223 6.75 19.125ZM20.25 11.25V16.125C20.2503 16.8775 19.9991 17.6084 19.5363 18.2018C19.0736 18.7951 18.4258 19.2168 17.696 19.3999C16.9661 19.5829 16.196 19.5168 15.508 19.212C14.8201 18.9073 14.2537 18.3813 13.8988 17.7178C13.544 17.0542 13.4211 16.2911 13.5496 15.5497C13.6781 14.8083 14.0507 14.1312 14.6082 13.6258C15.1657 13.1204 15.8761 12.8158 16.6265 12.7604C17.3769 12.705 18.1243 12.902 18.75 13.32V11.25C18.75 11.0511 18.829 10.8603 18.9697 10.7197C19.1103 10.579 19.3011 10.5 19.5 10.5C19.6989 10.5 19.8897 10.579 20.0303 10.7197C20.171 10.8603 20.25 11.0511 20.25 11.25ZM18.75 16.125C18.75 15.7542 18.64 15.3916 18.434 15.0833C18.228 14.775 17.9351 14.5346 17.5925 14.3927C17.2499 14.2508 16.8729 14.2137 16.5092 14.286C16.1455 14.3584 15.8114 14.537 15.5492 14.7992C15.287 15.0614 15.1084 15.3955 15.036 15.7592C14.9637 16.1229 15.0008 16.4999 15.1427 16.8425C15.2846 17.1851 15.525 17.478 15.8333 17.684C16.1417 17.89 16.5042 18 16.875 18C17.1212 18 17.3651 17.9515 17.5925 17.8573C17.82 17.763 18.0267 17.6249 18.2008 17.4508C18.3749 17.2767 18.5131 17.07 18.6073 16.8425C18.7015 16.615 18.75 16.3712 18.75 16.125Z" fill="black"/>
</svg>
