<svg width="24" height="24" viewBox="0 0 24 24" fill="none" xmlns="http://www.w3.org/2000/svg">
<path d="M20.031 12.5307L12.531 20.0307C12.4614 20.1004 12.3786 20.1557 12.2876 20.1934C12.1965 20.2311 12.099 20.2505 12.0004 20.2505C11.9019 20.2505 11.8043 20.2311 11.7132 20.1934C11.6222 20.1557 11.5395 20.1004 11.4698 20.0307C11.4001 19.961 11.3448 19.8783 11.3071 19.7873C11.2694 19.6962 11.25 19.5986 11.25 19.5001C11.25 19.4016 11.2694 19.304 11.3071 19.2129C11.3448 19.1219 11.4001 19.0392 11.4698 18.9695L18.9698 11.4695C19.0395 11.3998 19.1222 11.3445 19.2132 11.3068C19.3043 11.2691 19.4019 11.2497 19.5004 11.2497C19.599 11.2497 19.6965 11.2691 19.7876 11.3068C19.8786 11.3445 19.9614 11.3998 20.031 11.4695C20.1007 11.5392 20.156 11.6219 20.1937 11.7129C20.2314 11.804 20.2508 11.9016 20.2508 12.0001C20.2508 12.0986 20.2314 12.1962 20.1937 12.2873C20.156 12.3783 20.1007 12.461 20.031 12.5307ZM18.531 3.21948C18.4614 3.14974 18.3787 3.09443 18.2876 3.05668C18.1966 3.01894 18.099 2.99951 18.0004 2.99951C17.9019 2.99951 17.8043 3.01894 17.7132 3.05668C17.6222 3.09443 17.5394 3.14974 17.4698 3.21948L3.21979 17.4695C3.07906 17.6102 3 17.8011 3 18.0001C3 18.1991 3.07906 18.39 3.21979 18.5307C3.36052 18.6715 3.55139 18.7505 3.75042 18.7505C3.94944 18.7505 4.14031 18.6715 4.28104 18.5307L18.531 4.28073C18.6008 4.21107 18.6561 4.12836 18.6938 4.03731C18.7316 3.94626 18.751 3.84866 18.751 3.7501C18.751 3.65154 18.7316 3.55394 18.6938 3.4629C18.6561 3.37185 18.6008 3.28913 18.531 3.21948Z" fill="black"/>
</svg>
