<svg width="24" height="24" viewBox="0 0 24 24" fill="none" xmlns="http://www.w3.org/2000/svg">
<path d="M16.5008 15C16.5008 16.0134 16.2074 17.0052 15.6562 17.8555C15.1049 18.7059 14.3193 19.3785 13.3942 19.7923C12.4691 20.206 11.444 20.3432 10.4427 20.1872C9.44135 20.0312 8.50656 19.5887 7.75116 18.9131C7.67402 18.8486 7.61065 18.7692 7.56482 18.6797C7.51899 18.5902 7.49163 18.4923 7.48438 18.392C7.47712 18.2917 7.49011 18.191 7.52258 18.0958C7.55505 18.0006 7.60633 17.9129 7.67337 17.8379C7.74041 17.763 7.82185 17.7023 7.91283 17.6594C8.00381 17.6165 8.10249 17.5924 8.20298 17.5885C8.30348 17.5845 8.40374 17.6008 8.4978 17.6364C8.59187 17.672 8.67782 17.7261 8.75053 17.7956C9.20364 18.2007 9.74842 18.4896 10.338 18.6374C10.9275 18.7852 11.5441 18.7875 12.1348 18.6441C12.7254 18.5007 13.2723 18.2159 13.7284 17.8142C14.1845 17.4125 14.5362 16.9059 14.7531 16.3381C14.9699 15.7704 15.0456 15.1584 14.9734 14.5549C14.9013 13.9514 14.6835 13.3745 14.3389 12.8738C13.9943 12.3732 13.5332 11.9638 12.9952 11.6809C12.4573 11.398 11.8586 11.2501 11.2508 11.25C11.1116 11.25 10.975 11.2112 10.8565 11.138C10.7381 11.0648 10.6423 10.96 10.58 10.8354C10.5177 10.7108 10.4914 10.5714 10.5039 10.4326C10.5164 10.2939 10.5673 10.1614 10.6508 10.05L14.2508 5.25H8.25084C8.05193 5.25 7.86117 5.17098 7.72051 5.03033C7.57986 4.88968 7.50084 4.69891 7.50084 4.5C7.50084 4.30109 7.57986 4.11032 7.72051 3.96967C7.86117 3.82902 8.05193 3.75 8.25084 3.75H15.7508C15.8901 3.75 16.0267 3.78879 16.1451 3.86201C16.2636 3.93524 16.3594 4.04001 16.4217 4.16459C16.484 4.28917 16.5103 4.42863 16.4978 4.56735C16.4853 4.70608 16.4344 4.83857 16.3508 4.95L12.6158 9.93C13.73 10.2316 14.7141 10.8915 15.4161 11.8077C16.1182 12.7239 16.4994 13.8457 16.5008 15Z" fill="black"/>
</svg>
