<svg width="24" height="24" viewBox="0 0 24 24" fill="none" xmlns="http://www.w3.org/2000/svg">
<path d="M17.2496 14.2501C17.2496 14.449 17.1706 14.6397 17.0299 14.7804C16.8893 14.921 16.6985 15.0001 16.4996 15.0001H14.9996V19.5001C14.9996 19.699 14.9206 19.8897 14.7799 20.0304C14.6393 20.171 14.4485 20.2501 14.2496 20.2501C14.0507 20.2501 13.8599 20.171 13.7193 20.0304C13.5786 19.8897 13.4996 19.699 13.4996 19.5001V15.0001H6.74961C6.62946 15 6.51108 14.9711 6.40445 14.9157C6.29781 14.8604 6.20604 14.7802 6.13685 14.682C6.06766 14.5837 6.02308 14.4703 6.00686 14.3513C5.99065 14.2322 6.00327 14.111 6.04367 13.9979L9.79367 3.49787C9.86494 3.31654 10.004 3.17005 10.1814 3.08943C10.3587 3.00881 10.5605 3.00039 10.744 3.06593C10.9275 3.13148 11.0783 3.26585 11.1644 3.44061C11.2505 3.61537 11.2653 3.8168 11.2055 4.00224L7.81367 13.5001H13.4996V9.00006C13.4996 8.80114 13.5786 8.61038 13.7193 8.46973C13.8599 8.32907 14.0507 8.25006 14.2496 8.25006C14.4485 8.25006 14.6393 8.32907 14.7799 8.46973C14.9206 8.61038 14.9996 8.80114 14.9996 9.00006V13.5001H16.4996C16.6985 13.5001 16.8893 13.5791 17.0299 13.7197C17.1706 13.8604 17.2496 14.0511 17.2496 14.2501Z" fill="black"/>
</svg>
