<svg width="24" height="24" viewBox="0 0 24 24" fill="none" xmlns="http://www.w3.org/2000/svg">
<path d="M16.5008 15C16.5008 16.0134 16.2074 17.0052 15.6562 17.8555C15.1049 18.7059 14.3193 19.3785 13.3942 19.7923C12.4691 20.206 11.444 20.3432 10.4427 20.1872C9.44135 20.0312 8.50656 19.5887 7.75116 18.9131C7.67402 18.8486 7.61065 18.7692 7.56482 18.6797C7.51899 18.5902 7.49163 18.4923 7.48438 18.392C7.47712 18.2917 7.49011 18.191 7.52258 18.0958C7.55505 18.0006 7.60633 17.9129 7.67337 17.8379C7.74041 17.763 7.82185 17.7023 7.91283 17.6594C8.00381 17.6165 8.10249 17.5924 8.20298 17.5885C8.30348 17.5845 8.40374 17.6008 8.4978 17.6364C8.59187 17.672 8.67782 17.7261 8.75053 17.7956C9.28707 18.2755 9.95038 18.5908 10.6613 18.7039C11.3722 18.817 12.1006 18.7232 12.7596 18.4335C13.4185 18.1438 13.9802 17.6706 14.3775 17.0704C14.7749 16.4701 14.991 15.7682 15.0002 15.0484C15.0094 14.3286 14.8112 13.6214 14.4294 13.0112C14.0475 12.401 13.4981 11.9136 12.8467 11.6072C12.1954 11.3008 11.4696 11.1884 10.756 11.2833C10.0425 11.3782 9.37133 11.6765 8.82272 12.1425C8.70395 12.2424 8.55711 12.303 8.40246 12.3159C8.24781 12.3288 8.09295 12.2935 7.95925 12.2147C7.82554 12.1359 7.71957 12.0176 7.65593 11.876C7.5923 11.7345 7.57415 11.5767 7.60397 11.4244L9.01584 4.35281C9.04985 4.18289 9.14166 4.02999 9.27565 3.92009C9.40964 3.8102 9.57755 3.7501 9.75084 3.75H15.7508C15.9498 3.75 16.1405 3.82902 16.2812 3.96967C16.4218 4.11032 16.5008 4.30109 16.5008 4.5C16.5008 4.69891 16.4218 4.88968 16.2812 5.03033C16.1405 5.17098 15.9498 5.25 15.7508 5.25H10.3658L9.39834 10.0875C10.1929 9.78787 11.0482 9.68544 11.891 9.78898C12.7338 9.89252 13.5389 10.199 14.2373 10.682C14.9357 11.165 15.5065 11.8102 15.9007 12.5623C16.2949 13.3144 16.5009 14.1509 16.5008 15Z" fill="black"/>
</svg>
