<svg width="24" height="24" viewBox="0 0 24 24" fill="none" xmlns="http://www.w3.org/2000/svg">
<path d="M12 7.49989C11.11 7.49989 10.24 7.76382 9.49993 8.25828C8.75991 8.75275 8.18314 9.45555 7.84254 10.2778C7.50195 11.1001 7.41283 12.0049 7.58647 12.8778C7.7601 13.7507 8.18868 14.5525 8.81802 15.1819C9.44736 15.8112 10.2492 16.2398 11.1221 16.4134C11.995 16.5871 12.8998 16.4979 13.7221 16.1574C14.5443 15.8168 15.2471 15.24 15.7416 14.5C16.2361 13.7599 16.5 12.8899 16.5 11.9999C16.4985 10.8069 16.0239 9.66315 15.1803 8.81956C14.3367 7.97597 13.193 7.50138 12 7.49989ZM12 14.9999C11.4067 14.9999 10.8266 14.8239 10.3333 14.4943C9.83994 14.1647 9.45542 13.6961 9.22836 13.1479C9.0013 12.5998 8.94189 11.9966 9.05764 11.4146C9.1734 10.8327 9.45912 10.2981 9.87868 9.87857C10.2982 9.45902 10.8328 9.17329 11.4147 9.05754C11.9967 8.94178 12.5999 9.00119 13.1481 9.22826C13.6962 9.45532 14.1648 9.83984 14.4944 10.3332C14.8241 10.8265 15 11.4066 15 11.9999C15 12.7955 14.6839 13.5586 14.1213 14.1212C13.5587 14.6838 12.7956 14.9999 12 14.9999ZM20.97 6.20146L12.72 1.68739C12.4996 1.5656 12.2518 1.50171 12 1.50171C11.7482 1.50171 11.5004 1.5656 11.28 1.68739L3.03 6.20333C2.7944 6.33224 2.59772 6.52205 2.46052 6.75292C2.32331 6.98379 2.25061 7.24727 2.25 7.51583V16.4821C2.25061 16.7506 2.32331 17.0141 2.46052 17.245C2.59772 17.4759 2.7944 17.6657 3.03 17.7946L11.28 22.3105C11.5004 22.4323 11.7482 22.4962 12 22.4962C12.2518 22.4962 12.4996 22.4323 12.72 22.3105L20.97 17.7946C21.2056 17.6657 21.4023 17.4759 21.5395 17.245C21.6767 17.0141 21.7494 16.7506 21.75 16.4821V7.51677C21.7499 7.24773 21.6774 6.98366 21.5402 6.75225C21.403 6.52084 21.206 6.3306 20.97 6.20146ZM12 20.9999L3.75 16.483V7.51677L12 2.99989L20.25 7.51583V16.4821L12 20.9999Z" fill="black"/>
</svg>
