<svg width="24" height="24" viewBox="0 0 24 24" fill="none" xmlns="http://www.w3.org/2000/svg">
<path d="M21.75 17.25C21.75 17.4489 21.671 17.6397 21.5303 17.7803C21.3897 17.921 21.1989 18 21 18H15.0881C14.8094 18.0009 14.5361 17.9237 14.299 17.7773C14.0619 17.6308 13.8705 17.4209 13.7466 17.1713L8.91187 7.50001H3C2.80109 7.50001 2.61032 7.42099 2.46967 7.28034C2.32902 7.13969 2.25 6.94892 2.25 6.75001C2.25 6.5511 2.32902 6.36033 2.46967 6.21968C2.61032 6.07903 2.80109 6.00001 3 6.00001H8.91187C9.19057 5.99912 9.46394 6.07627 9.70104 6.22274C9.93814 6.36921 10.1295 6.57914 10.2534 6.82876L15.0881 16.5H21C21.1989 16.5 21.3897 16.579 21.5303 16.7197C21.671 16.8603 21.75 17.0511 21.75 17.25ZM14.25 7.50001H21C21.1989 7.50001 21.3897 7.42099 21.5303 7.28034C21.671 7.13969 21.75 6.94892 21.75 6.75001C21.75 6.5511 21.671 6.36033 21.5303 6.21968C21.3897 6.07903 21.1989 6.00001 21 6.00001H14.25C14.0511 6.00001 13.8603 6.07903 13.7197 6.21968C13.579 6.36033 13.5 6.5511 13.5 6.75001C13.5 6.94892 13.579 7.13969 13.7197 7.28034C13.8603 7.42099 14.0511 7.50001 14.25 7.50001Z" fill="black"/>
</svg>
