<svg width="24" height="24" viewBox="0 0 24 24" fill="none" xmlns="http://www.w3.org/2000/svg">
<path d="M21.8426 15.1639C21.7095 15.0574 21.5442 14.9994 21.3738 14.9994C21.2034 14.9994 21.0381 15.0574 20.9051 15.1639C20.8169 15.2352 18.7488 16.9152 18.7488 19.1249C18.7488 19.8211 19.0254 20.4888 19.5176 20.981C20.0099 21.4733 20.6776 21.7499 21.3738 21.7499C22.07 21.7499 22.7377 21.4733 23.23 20.981C23.7222 20.4888 23.9988 19.8211 23.9988 19.1249C23.9988 16.9152 21.9307 15.2352 21.8426 15.1639ZM21.3738 20.2499C21.0754 20.2499 20.7893 20.1313 20.5783 19.9204C20.3673 19.7094 20.2488 19.4232 20.2488 19.1249C20.2488 18.1705 20.9051 17.2939 21.3738 16.7877C21.8426 17.2958 22.4988 18.1752 22.4988 19.1249C22.4988 19.4232 22.3803 19.7094 22.1693 19.9204C21.9583 20.1313 21.6722 20.2499 21.3738 20.2499ZM21.5294 11.0464L11.4522 0.969252C11.3116 0.828706 11.1209 0.749756 10.9221 0.749756C10.7233 0.749756 10.5326 0.828706 10.3919 0.969252L6.58474 4.78113L4.27849 2.46925C4.13776 2.32865 3.94694 2.2497 3.748 2.24979C3.54907 2.24988 3.35831 2.32899 3.21771 2.46972C3.0771 2.61045 2.99816 2.80127 2.99825 3.00021C2.99833 3.19914 3.07745 3.3899 3.21818 3.5305L5.52443 5.83675L1.40505 9.95331C0.983126 10.3753 0.746094 10.9475 0.746094 11.5443C0.746094 12.141 0.983126 12.7132 1.40505 13.1352L9.36349 21.0936C9.78544 21.5156 10.3577 21.7526 10.9544 21.7526C11.5511 21.7526 12.1234 21.5156 12.5454 21.0936L21.5294 12.1096C21.5994 12.0399 21.655 11.957 21.6929 11.8658C21.7308 11.7746 21.7503 11.6768 21.7503 11.578C21.7503 11.4792 21.7308 11.3814 21.6929 11.2902C21.655 11.199 21.5994 11.1161 21.5294 11.0464ZM11.4841 20.0305C11.3435 20.171 11.1528 20.25 10.954 20.25C10.7551 20.25 10.5644 20.171 10.4238 20.0305L2.46818 12.0749C2.32763 11.9342 2.24868 11.7435 2.24868 11.5447C2.24868 11.3459 2.32763 11.1552 2.46818 11.0146L6.58474 6.89706L9.31474 9.62706C9.01513 10.1819 8.92521 10.826 9.06145 11.4416C9.19768 12.0572 9.55096 12.6032 10.0567 12.9798C10.5624 13.3564 11.1868 13.5384 11.8156 13.4924C12.4445 13.4465 13.0358 13.1758 13.4814 12.7298C13.9271 12.2837 14.1973 11.6922 14.2426 11.0633C14.288 10.4344 14.1055 9.81017 13.7285 9.30478C13.3514 8.7994 12.8051 8.44661 12.1893 8.31092C11.5736 8.17523 10.9296 8.26571 10.3751 8.56581L7.64599 5.83675L10.9272 2.56019L19.9432 11.5761L11.4841 20.0305ZM11.6238 9.74988C11.8841 9.7503 12.1362 9.84096 12.3371 10.0064C12.538 10.1719 12.6754 10.4019 12.7257 10.6572C12.7761 10.9126 12.7363 11.1775 12.6133 11.4068C12.4902 11.6362 12.2914 11.8158 12.0508 11.915C11.8101 12.0142 11.5425 12.0269 11.2936 11.9509C11.0446 11.8749 10.8297 11.715 10.6855 11.4983C10.5413 11.2816 10.4766 11.0217 10.5026 10.7627C10.5285 10.5037 10.6435 10.2617 10.8279 10.078C11.0392 9.86742 11.3255 9.74939 11.6238 9.74988Z" fill="black"/>
</svg>
