<svg width="24" height="24" viewBox="0 0 24 24" fill="none" xmlns="http://www.w3.org/2000/svg">
<path d="M21.6247 2.37746C21.3461 2.09881 21.0153 1.87777 20.6513 1.72696C20.2873 1.57616 19.8971 1.49854 19.5031 1.49854C19.1091 1.49854 18.7189 1.57616 18.3549 1.72696C17.9909 1.87777 17.6601 2.09881 17.3815 2.37746C17.3722 2.38683 17.3628 2.39621 17.3543 2.40652L12.2065 8.14214L11.3459 7.27871C11.137 7.06965 10.8889 6.90381 10.6158 6.79067C10.3427 6.67752 10.0501 6.61928 9.7545 6.61928C9.45892 6.61928 9.16625 6.67752 8.89319 6.79067C8.62013 6.90381 8.37204 7.06965 8.16309 7.27871L0.973402 14.4693C0.832856 14.61 0.753906 14.8007 0.753906 14.9995C0.753906 15.1983 0.832856 15.389 0.973402 15.5296L8.4734 23.0296C8.61404 23.1702 8.80473 23.2491 9.00356 23.2491C9.20239 23.2491 9.39308 23.1702 9.53371 23.0296L16.7234 15.8437C16.9325 15.6348 17.0983 15.3867 17.2114 15.1136C17.3246 14.8406 17.3828 14.5479 17.3828 14.2523C17.3828 13.9567 17.3246 13.6641 17.2114 13.391C17.0983 13.1179 16.9325 12.8698 16.7234 12.6609L15.86 11.7984L21.5956 6.65058C21.606 6.64194 21.6157 6.63254 21.6247 6.62246C21.9036 6.34384 22.1249 6.01297 22.2758 5.64878C22.4268 5.28458 22.5045 4.8942 22.5045 4.49996C22.5045 4.10571 22.4268 3.71533 22.2758 3.35114C22.1249 2.98694 21.9036 2.65608 21.6247 2.37746ZM9.00215 21.4396L7.4384 19.875L9.53278 17.7796C9.66749 17.6378 9.74149 17.449 9.73898 17.2535C9.73648 17.0579 9.65767 16.871 9.51937 16.7327C9.38107 16.5944 9.19422 16.5156 8.99865 16.5131C8.80307 16.5106 8.61426 16.5846 8.47246 16.7193L6.37715 18.8137L5.1884 17.625L7.28278 15.5296C7.41749 15.3878 7.49149 15.199 7.48898 15.0035C7.48648 14.8079 7.40767 14.621 7.26937 14.4827C7.13107 14.3444 6.94422 14.2656 6.74865 14.2631C6.55307 14.2606 6.36426 14.3346 6.22246 14.4693L4.12715 16.5637L2.56246 15L6.75215 10.8103L13.1918 17.25L9.00215 21.4396ZM20.5765 5.54621L14.8578 10.679C14.7062 10.8152 14.5839 10.9808 14.4984 11.1658C14.4129 11.3508 14.366 11.5513 14.3606 11.755C14.3552 11.9587 14.3913 12.1613 14.4668 12.3506C14.5423 12.5399 14.6555 12.7118 14.7997 12.8559L15.6622 13.7193C15.8027 13.86 15.8816 14.0507 15.8816 14.2495C15.8816 14.4483 15.8027 14.639 15.6622 14.7796L14.2559 16.1859L7.8134 9.74996L9.21965 8.34371C9.36029 8.20316 9.55098 8.12421 9.74981 8.12421C9.94864 8.12421 10.1393 8.20316 10.28 8.34371L11.1434 9.20621C11.2875 9.35033 11.4594 9.4636 11.6487 9.53908C11.838 9.61456 12.0406 9.65069 12.2443 9.64525C12.448 9.63981 12.6485 9.59292 12.8335 9.50744C13.0185 9.42197 13.1841 9.29969 13.3203 9.14808L18.4531 3.42933C18.7367 3.1599 19.1143 3.01191 19.5054 3.01692C19.8966 3.02193 20.2703 3.17954 20.5469 3.45614C20.8235 3.73274 20.9811 4.10645 20.9861 4.4976C20.9911 4.88874 20.8431 5.26636 20.5737 5.54996L20.5765 5.54621Z" fill="black"/>
</svg>
