<svg width="24" height="24" viewBox="0 0 24 24" fill="none" xmlns="http://www.w3.org/2000/svg">
<path d="M21.312 2.68876C21.1234 2.50025 20.8879 2.36544 20.6299 2.29821C20.3718 2.23098 20.1005 2.23376 19.8439 2.30626H19.8298L1.83543 7.76625C1.54251 7.85049 1.28221 8.02196 1.08917 8.25784C0.896144 8.49371 0.779547 8.78278 0.75491 9.08658C0.730272 9.39037 0.798764 9.69445 0.951265 9.95835C1.10376 10.2222 1.33304 10.4334 1.60855 10.5638L9.63543 14.3653L13.437 22.3922C13.557 22.6492 13.7481 22.8666 13.9876 23.0186C14.2271 23.1706 14.5052 23.2509 14.7889 23.25C14.832 23.25 14.8751 23.2481 14.9182 23.2444C15.221 23.2199 15.5089 23.1034 15.7435 22.9105C15.9782 22.7176 16.1482 22.4576 16.2307 22.1653L21.687 4.17094C21.687 4.16626 21.687 4.16157 21.687 4.15688C21.7604 3.90091 21.7644 3.63 21.6985 3.37199C21.6326 3.11397 21.4992 2.87815 21.312 2.68876ZM14.7973 21.7359L14.7926 21.7491L11.1026 13.9594L15.5314 9.52969C15.6661 9.3879 15.7401 9.19908 15.7376 9.00351C15.7351 8.80794 15.6563 8.62108 15.518 8.48278C15.3797 8.34448 15.1928 8.26568 14.9972 8.26318C14.8017 8.26067 14.6128 8.33466 14.4711 8.46938L10.0414 12.8981L2.25074 9.20813H2.26386L20.2507 3.75001L14.7973 21.7359Z" fill="black"/>
</svg>
