<svg width="24" height="24" viewBox="0 0 24 24" fill="none" xmlns="http://www.w3.org/2000/svg">
<path d="M22.3043 18.7583L13.2997 3.01677C13.1692 2.7848 12.9793 2.59173 12.7496 2.45737C12.5198 2.32301 12.2585 2.2522 11.9923 2.2522C11.7262 2.2522 11.4648 2.32301 11.2351 2.45737C11.0053 2.59173 10.8155 2.7848 10.685 3.01677L1.69529 18.7668C1.54639 19.0325 1.48194 19.3374 1.51052 19.6406C1.5391 19.9439 1.65936 20.2313 1.85528 20.4646C2.05121 20.6979 2.31352 20.866 2.60732 20.9465C2.90112 21.0271 3.21248 21.0163 3.49997 20.9155L11.9815 18.0093H11.9909H11.9993L20.5006 20.9155C20.789 21.0175 21.1017 21.0289 21.3967 20.9482C21.6917 20.8674 21.955 20.6984 22.1513 20.4638C22.3476 20.2292 22.4674 19.9402 22.4948 19.6355C22.5221 19.3308 22.4557 19.0251 22.3043 18.7593V18.7583ZM20.9918 19.4933L12.7512 16.6743V11.2499C12.7512 11.051 12.6722 10.8602 12.5316 10.7196C12.3909 10.5789 12.2001 10.4999 12.0012 10.4999C11.8023 10.4999 11.6115 10.5789 11.4709 10.7196C11.3302 10.8602 11.2512 11.051 11.2512 11.2499V16.6668L3.01247 19.4943L3.00122 19.4999L11.9881 3.7499L21.0012 19.4999L20.9918 19.4933Z" fill="black"/>
</svg>
