<svg width="24" height="24" viewBox="0 0 24 24" fill="none" xmlns="http://www.w3.org/2000/svg">
<path d="M20.9866 10.6876L5.23663 1.69788C4.97115 1.54895 4.66663 1.48432 4.36354 1.51258C4.06045 1.54084 3.77313 1.66064 3.53974 1.85608C3.30636 2.05151 3.13796 2.31333 3.05692 2.60675C2.97587 2.90017 2.98602 3.2113 3.08601 3.49882L5.99226 11.9804C5.99188 11.9835 5.99188 11.9866 5.99226 11.9898C5.99173 11.9929 5.99173 11.996 5.99226 11.9991L3.08601 20.4994C3.00593 20.7256 2.98128 20.9677 3.01412 21.2054C3.04695 21.443 3.13632 21.6694 3.27472 21.8653C3.41313 22.0613 3.59652 22.2212 3.80952 22.3317C4.02251 22.4421 4.25889 22.4999 4.49882 22.5001C4.75914 22.4994 5.01488 22.4316 5.24132 22.3032L20.9829 13.2985C21.2151 13.1684 21.4085 12.9789 21.5433 12.7494C21.678 12.5199 21.7493 12.2587 21.7498 11.9925C21.7503 11.7264 21.6799 11.4649 21.546 11.2349C21.412 11.0049 21.2193 10.8147 20.9876 10.6838L20.9866 10.6876ZM4.49882 21.0001V20.9916L7.32445 12.7501H12.7488C12.9477 12.7501 13.1385 12.671 13.2792 12.5304C13.4198 12.3897 13.4988 12.199 13.4988 12.0001C13.4988 11.8012 13.4198 11.6104 13.2792 11.4697C13.1385 11.3291 12.9477 11.2501 12.7488 11.2501H7.33195L4.50445 3.01132L4.49882 3.00007L20.2488 11.9841L4.49882 21.0001Z" fill="black"/>
</svg>
