<svg width="24" height="24" viewBox="0 0 24 24" fill="none" xmlns="http://www.w3.org/2000/svg">
<path d="M18.8945 5.1055C17.066 3.277 14.586 2.24976 12.0001 2.24976C9.41423 2.24976 6.93425 3.277 5.10574 5.1055C3.27724 6.934 2.25 9.41398 2.25 11.9999C2.25 14.5858 3.27724 17.0657 5.10574 18.8942C6.93425 20.7227 9.41423 21.75 12.0001 21.75C14.586 21.75 17.066 20.7227 18.8945 18.8942C20.723 17.0657 21.7502 14.5858 21.7502 11.9999C21.7502 9.41398 20.723 6.934 18.8945 5.1055ZM8.25012 17.9999C8.25012 17.602 8.40815 17.2205 8.68946 16.9392C8.97076 16.6579 9.35229 16.4999 9.75012 16.4999C10.1479 16.4999 10.5295 16.6579 10.8108 16.9392C11.0921 17.2205 11.2501 17.602 11.2501 17.9999V20.2114C10.2042 20.1169 9.18599 19.8235 8.25012 19.3471V17.9999ZM12.7501 17.9999C12.7501 17.602 12.9082 17.2205 13.1895 16.9392C13.4708 16.6579 13.8523 16.4999 14.2501 16.4999C14.6479 16.4999 15.0295 16.6579 15.3108 16.9392C15.5921 17.2205 15.7501 17.602 15.7501 17.9999V19.3471C14.8142 19.8235 13.796 20.1169 12.7501 20.2114V17.9999ZM10.0567 12.7499H13.9436L15.0292 15.103C14.4891 14.9574 13.9191 14.9661 13.3837 15.128C12.8483 15.2899 12.369 15.5985 12.0001 16.0189C11.6312 15.5985 11.1519 15.2899 10.6165 15.128C10.0811 14.9661 9.5111 14.9574 8.97106 15.103L10.0567 12.7499ZM10.7495 11.2499L12.0001 8.53956L13.2507 11.2499H10.7495ZM17.8332 17.8339C17.6457 18.0214 17.4507 18.1967 17.2501 18.3627V16.4999C17.2502 16.3914 17.2266 16.2842 17.1807 16.1858L12.6807 6.43581C12.6206 6.30592 12.5246 6.19595 12.404 6.11888C12.2834 6.04181 12.1432 6.00085 12.0001 6.00085C11.857 6.00085 11.7169 6.04181 11.5962 6.11888C11.4756 6.19595 11.3796 6.30592 11.3195 6.43581L6.81949 16.1858C6.77367 16.2842 6.74999 16.3914 6.75012 16.4999V18.3627C6.54949 18.1967 6.35449 18.0214 6.16699 17.8339C5.01307 16.6802 4.22719 15.2102 3.90874 13.6098C3.5903 12.0094 3.75359 10.3506 4.37798 8.84299C5.00236 7.33542 6.05978 6.04686 7.41651 5.14027C8.77325 4.23369 10.3684 3.7498 12.0001 3.7498C13.6319 3.7498 15.227 4.23369 16.5837 5.14027C17.9405 6.04686 18.9979 7.33542 19.6223 8.84299C20.2466 10.3506 20.4099 12.0094 20.0915 13.6098C19.773 15.2102 18.9872 16.6802 17.8332 17.8339Z" fill="black"/>
</svg>
