<svg width="24" height="24" viewBox="0 0 24 24" fill="none" xmlns="http://www.w3.org/2000/svg">
<path d="M22.4232 8.536C22.3286 8.23344 22.1392 7.96935 21.8829 7.78278C21.6266 7.59622 21.3171 7.49709 21.0001 7.50006H15.2813L13.4279 1.80569C13.3345 1.50031 13.1456 1.23294 12.889 1.04281C12.6324 0.852673 12.3216 0.749794 12.0023 0.74927C11.6829 0.748745 11.3718 0.850603 11.1146 1.03989C10.8574 1.22918 10.6677 1.49594 10.5732 1.801L8.72447 7.50006H3.0001C2.68222 7.49921 2.3723 7.59937 2.11504 7.78608C1.85778 7.97279 1.66648 8.2364 1.56875 8.53888C1.47102 8.84135 1.4719 9.16706 1.57128 9.469C1.67066 9.77094 1.86339 10.0335 2.12166 10.2188L6.75853 13.5544L4.98291 19.0313C4.8818 19.3325 4.88056 19.6583 4.97936 19.9603C5.07817 20.2623 5.27175 20.5244 5.53135 20.7076C5.78577 20.8965 6.09427 20.9986 6.41119 20.9986C6.72811 20.9986 7.03661 20.8965 7.29103 20.7076L12.0001 17.3204L16.7092 20.7076C16.9654 20.8935 17.2739 20.9937 17.5905 20.9937C17.9071 20.9936 18.2156 20.8934 18.4718 20.7074C18.7279 20.5213 18.9187 20.259 19.0167 19.9579C19.1147 19.6569 19.1149 19.3325 19.0173 19.0313L17.236 13.5507L21.8757 10.2122C22.1353 10.029 22.3288 9.76691 22.4274 9.4649C22.526 9.16289 22.5246 8.83711 22.4232 8.536ZM12.0001 2.26412L13.6988 7.50006H10.3013L12.0001 2.26412ZM3.0001 9.00006H8.23791L7.24697 12.0526L3.0001 9.00006ZM6.40697 19.5001L8.03728 14.476L10.7129 16.4016L6.40697 19.5001ZM8.52291 12.9779L9.81478 9.00006H14.1854L15.4745 12.9732L12.0001 15.4688L8.52291 12.9779ZM17.5876 19.5001L13.2845 16.4063L15.9601 14.4807L17.5876 19.5001ZM16.7504 12.0582L15.7623 9.00006H21.0001L16.7504 12.0582Z" fill="black"/>
</svg>
