<svg width="24" height="24" viewBox="0 0 24 24" fill="none" xmlns="http://www.w3.org/2000/svg">
<path d="M15.6806 3.78937C15.5145 2.93448 15.0565 2.16388 14.3849 1.60944C13.7133 1.055 12.8699 0.75119 11.9991 0.75C11.8002 0.75 11.6094 0.829018 11.4687 0.96967C11.3281 1.11032 11.2491 1.30109 11.2491 1.5C11.2491 1.69891 11.3281 1.88968 11.4687 2.03033C11.6094 2.17098 11.8002 2.25 11.9991 2.25C12.4755 2.25 12.9396 2.40124 13.3246 2.68193C13.7096 2.96262 13.9955 3.35826 14.1413 3.81187C12.7141 4.01961 11.4093 4.73382 10.4652 5.82406C9.52107 6.9143 9.00068 8.3078 8.99907 9.75C8.99907 14.1328 6.585 17.0625 1.82438 18.4688C1.49874 18.5637 1.21489 18.7662 1.01914 19.0432C0.823393 19.3202 0.727306 19.6553 0.746561 19.994C0.765815 20.3326 0.899274 20.6547 1.12516 20.9078C1.35105 21.1608 1.65602 21.3298 1.99032 21.3872C3.3994 21.6308 4.8269 21.7522 6.25688 21.75C10.08 21.75 14.3344 20.8922 17.2753 18.4256C19.7466 16.3537 20.9991 13.4344 20.9991 9.75C20.9975 8.27722 20.4549 6.85634 19.4744 5.75741C18.4938 4.65848 17.1437 3.9581 15.6806 3.78937ZM14.9991 5.25C15.9355 5.25124 16.8482 5.54414 17.6105 6.088C18.3727 6.63185 18.9467 7.39965 19.2525 8.28469L17.9991 8.90625L15.3347 7.57781C15.2305 7.52567 15.1156 7.49853 14.9991 7.49853C14.8826 7.49853 14.7676 7.52567 14.6634 7.57781L11.9991 8.90625L10.7456 8.28C11.0524 7.39591 11.6267 6.62921 12.3888 6.08626C13.151 5.54331 14.0633 5.25104 14.9991 5.25ZM16.3116 17.2781C14.6241 18.6909 12.2241 19.6462 9.36282 20.0409C6.99837 20.3536 4.60037 20.3093 2.24907 19.9097C7.61438 18.3281 10.4644 14.8472 10.4991 9.83906L11.6653 10.4222C11.7695 10.4743 11.8844 10.5015 12.0009 10.5015C12.1175 10.5015 12.2324 10.4743 12.3366 10.4222L14.9991 9.08719L17.6634 10.4194C17.7676 10.4715 17.8826 10.4987 17.9991 10.4987C18.1156 10.4987 18.2305 10.4715 18.3347 10.4194L19.4981 9.83813C19.4784 13.0163 18.4069 15.5194 16.3116 17.2772V17.2781Z" fill="black"/>
</svg>
