<svg width="24" height="24" viewBox="0 0 24 24" fill="none" xmlns="http://www.w3.org/2000/svg">
<path d="M21.7121 8.44981C16.4481 3.18763 7.55308 3.18763 2.28902 8.44981C0.414017 10.3248 0.234017 13.0895 1.84933 15.1726C1.98973 15.3526 2.16938 15.4982 2.37457 15.5983C2.57976 15.6984 2.80509 15.7503 3.03339 15.7501C3.21782 15.7502 3.40064 15.7159 3.57245 15.6489L8.1662 14.0204L8.19339 14.0101C8.42525 13.9174 8.63028 13.7683 8.7899 13.5762C8.94952 13.3842 9.05867 13.1553 9.10745 12.9104L9.66058 10.1429C11.1687 9.6216 12.8076 9.61797 14.3181 10.1326L14.9003 12.9217C14.9508 13.1639 15.0604 13.3899 15.2194 13.5795C15.3784 13.769 15.5818 13.9163 15.8115 14.0083L15.8387 14.0186L20.4325 15.6489C20.7326 15.7651 21.0621 15.7818 21.3724 15.6963C21.6827 15.6109 21.9573 15.428 22.1556 15.1745C23.7671 13.0895 23.5862 10.3248 21.7121 8.44981ZM20.9696 14.2501L20.9415 14.2389L16.3646 12.6142L15.7825 9.82606C15.7296 9.57378 15.6127 9.33936 15.4429 9.14543C15.2731 8.95149 15.0562 8.80459 14.8131 8.71888C12.979 8.09095 10.9875 8.09524 9.1562 8.73106C8.91123 8.81859 8.69323 8.96832 8.52361 9.16556C8.35398 9.36279 8.23857 9.60075 8.1887 9.85606L7.63558 12.6226L3.05964 14.237C3.05027 14.237 3.0437 14.2492 3.03433 14.2529C1.87839 12.7614 2.00308 10.8564 3.34933 9.51106C5.69308 7.16731 8.84777 5.99263 12.0006 5.99263C15.1534 5.99263 18.3071 7.16544 20.6518 9.51106C21.9953 10.8564 22.1256 12.7614 20.9696 14.2501ZM20.9996 18.7501C20.9996 18.949 20.9206 19.1398 20.78 19.2805C20.6393 19.4211 20.4486 19.5001 20.2496 19.5001H3.75058C3.55167 19.5001 3.3609 19.4211 3.22025 19.2805C3.0796 19.1398 3.00058 18.949 3.00058 18.7501C3.00058 18.5512 3.0796 18.3604 3.22025 18.2198C3.3609 18.0791 3.55167 18.0001 3.75058 18.0001H20.2506C20.4495 18.0001 20.6403 18.0791 20.7809 18.2198C20.9216 18.3604 21.0006 18.5512 21.0006 18.7501H20.9996Z" fill="black"/>
</svg>
