<svg width="24" height="24" viewBox="0 0 24 24" fill="none" xmlns="http://www.w3.org/2000/svg">
<path d="M14.4694 8.46943L16.1897 6.75005L14.4694 5.03068C14.3287 4.88995 14.2496 4.69908 14.2496 4.50005C14.2496 4.30103 14.3287 4.11016 14.4694 3.96943C14.6101 3.8287 14.801 3.74964 15 3.74964C15.199 3.74964 15.3899 3.8287 15.5306 3.96943L17.25 5.68974L18.9694 3.96943C19.1101 3.8287 19.301 3.74964 19.5 3.74964C19.699 3.74964 19.8899 3.8287 20.0306 3.96943C20.1714 4.11016 20.2504 4.30103 20.2504 4.50005C20.2504 4.69908 20.1714 4.88995 20.0306 5.03068L18.3113 6.75005L20.0306 8.46943C20.1003 8.53911 20.1556 8.62184 20.1933 8.71288C20.231 8.80393 20.2504 8.90151 20.2504 9.00005C20.2504 9.0986 20.231 9.19618 20.1933 9.28723C20.1556 9.37827 20.1003 9.461 20.0306 9.53068C19.961 9.60036 19.8782 9.65564 19.7872 9.69335C19.6961 9.73106 19.5986 9.75047 19.5 9.75047C19.4015 9.75047 19.3039 9.73106 19.2128 9.69335C19.1218 9.65564 19.0391 9.60036 18.9694 9.53068L17.25 7.81037L15.5306 9.53068C15.3899 9.67141 15.199 9.75047 15 9.75047C14.801 9.75047 14.6101 9.67141 14.4694 9.53068C14.3287 9.38995 14.2496 9.19908 14.2496 9.00005C14.2496 8.80103 14.3287 8.61016 14.4694 8.46943ZM21.7388 16.4138C21.5716 17.6841 20.9477 18.8502 19.9837 19.6942C19.0196 20.5382 17.7813 21.0023 16.5 21.0001C9.05626 21.0001 3.00001 14.9438 3.00001 7.50005C2.99771 6.21876 3.4619 4.98045 4.30588 4.01639C5.14986 3.05234 6.31592 2.42847 7.58626 2.2613C7.9075 2.22208 8.2328 2.2878 8.51362 2.44865C8.79444 2.60951 9.0157 2.85687 9.14438 3.1538L11.1244 7.57412V7.58537C11.2229 7.81267 11.2636 8.06083 11.2428 8.30769C11.222 8.55455 11.1404 8.79242 11.0053 9.00005C10.9884 9.02537 10.9706 9.0488 10.9519 9.07224L9.00001 11.386C9.7022 12.8129 11.1947 14.2922 12.6403 14.9963L14.9222 13.0547C14.9446 13.0359 14.9681 13.0184 14.9925 13.0022C15.2 12.8639 15.4387 12.7794 15.687 12.7565C15.9353 12.7336 16.1854 12.7729 16.4147 12.871L16.4269 12.8766L20.8434 14.8557C21.1409 14.9839 21.3889 15.205 21.5503 15.4858C21.7116 15.7667 21.7778 16.0922 21.7388 16.4138ZM20.25 16.2263C20.25 16.2263 20.2434 16.2263 20.2397 16.2263L15.8334 14.2529L13.5506 16.1944C13.5285 16.2132 13.5053 16.2307 13.4813 16.2469C13.2654 16.3909 13.0159 16.4765 12.7571 16.4952C12.4983 16.5139 12.239 16.4652 12.0047 16.3538C10.2488 15.5054 8.49845 13.7682 7.64907 12.031C7.5366 11.7984 7.48613 11.5406 7.50255 11.2827C7.51898 11.0249 7.60174 10.7756 7.74282 10.5591C7.75872 10.5337 7.77659 10.5096 7.79626 10.4869L9.75001 8.17037L7.78126 3.76412C7.78089 3.76038 7.78089 3.75661 7.78126 3.75287C6.87212 3.87146 6.03739 4.3174 5.43339 5.00716C4.8294 5.69693 4.49755 6.58322 4.50001 7.50005C4.50348 10.6816 5.76888 13.7318 8.01856 15.9815C10.2682 18.2312 13.3185 19.4966 16.5 19.5001C17.4163 19.5032 18.3023 19.1725 18.9925 18.5698C19.6827 17.9671 20.1297 17.1337 20.25 16.2254V16.2263Z" fill="black"/>
</svg>
