<svg width="24" height="24" viewBox="0 0 24 24" fill="none" xmlns="http://www.w3.org/2000/svg">
<path d="M14.4694 9.53073C14.3997 9.46107 14.3443 9.37836 14.3066 9.28731C14.2688 9.19626 14.2494 9.09866 14.2494 9.0001C14.2494 8.90154 14.2688 8.80395 14.3066 8.7129C14.3443 8.62185 14.3997 8.53913 14.4694 8.46948L17.6897 5.2501H15.75C15.5511 5.2501 15.3603 5.17108 15.2197 5.03043C15.079 4.88978 15 4.69901 15 4.5001C15 4.30119 15.079 4.11042 15.2197 3.96977C15.3603 3.82912 15.5511 3.7501 15.75 3.7501H19.5C19.6989 3.7501 19.8897 3.82912 20.0303 3.96977C20.171 4.11042 20.25 4.30119 20.25 4.5001V8.2501C20.25 8.44901 20.171 8.63978 20.0303 8.78043C19.8897 8.92108 19.6989 9.0001 19.5 9.0001C19.3011 9.0001 19.1103 8.92108 18.9697 8.78043C18.829 8.63978 18.75 8.44901 18.75 8.2501V6.31041L15.5306 9.53073C15.461 9.60046 15.3783 9.65578 15.2872 9.69352C15.1962 9.73127 15.0986 9.75069 15 9.75069C14.9014 9.75069 14.8039 9.73127 14.7128 9.69352C14.6218 9.65578 14.539 9.60046 14.4694 9.53073ZM21.7388 16.4139C21.5716 17.6842 20.9477 18.8502 19.9837 19.6942C19.0196 20.5382 17.7813 21.0024 16.5 21.0001C9.05626 21.0001 3.00001 14.9439 3.00001 7.5001C2.99771 6.21881 3.4619 4.9805 4.30588 4.01644C5.14986 3.05238 6.31592 2.42851 7.58626 2.26135C7.90739 2.22206 8.23261 2.28764 8.51342 2.44832C8.79422 2.60899 9.01555 2.85615 9.14438 3.15291L11.1244 7.57416V7.58541C11.2229 7.81271 11.2636 8.06088 11.2428 8.30774C11.222 8.5546 11.1404 8.79247 11.0053 9.0001C10.9884 9.02541 10.9706 9.04885 10.9519 9.07229L9.00001 11.386C9.7022 12.8129 11.1947 14.2923 12.6403 14.9964L14.9222 13.0548C14.9446 13.036 14.9681 13.0184 14.9925 13.0023C15.1997 12.8634 15.4385 12.7786 15.6869 12.7556C15.9353 12.7327 16.1855 12.7724 16.4147 12.871L16.4269 12.8767L20.8434 14.8557C21.1409 14.984 21.3889 15.205 21.5503 15.4859C21.7116 15.7667 21.7778 16.0923 21.7388 16.4139ZM20.25 16.2264C20.25 16.2264 20.2434 16.2264 20.2397 16.2264L15.8334 14.252L13.5506 16.1945C13.5285 16.2132 13.5053 16.2308 13.4813 16.247C13.2654 16.391 13.0159 16.4765 12.7571 16.4953C12.4983 16.514 12.239 16.4653 12.0047 16.3539C10.2488 15.5054 8.49845 13.7682 7.64907 12.031C7.5366 11.7984 7.48613 11.5407 7.50255 11.2828C7.51898 11.0249 7.60174 10.7757 7.74282 10.5592C7.75872 10.5337 7.77659 10.5096 7.79626 10.487L9.75001 8.17041L7.78126 3.76416C7.78089 3.76042 7.78089 3.75665 7.78126 3.75291C6.87212 3.87151 6.03739 4.31744 5.43339 5.00721C4.8294 5.69698 4.49755 6.58327 4.50001 7.5001C4.50348 10.6816 5.76888 13.7319 8.01856 15.9815C10.2682 18.2312 13.3185 19.4966 16.5 19.5001C17.4163 19.5033 18.3023 19.1726 18.9925 18.5699C19.6827 17.9672 20.1297 17.1338 20.25 16.2254V16.2264Z" fill="black"/>
</svg>
