<svg width="24" height="24" viewBox="0 0 24 24" fill="none" xmlns="http://www.w3.org/2000/svg">
<path d="M14.25 8.9999V5.2499C14.25 5.05098 14.329 4.86022 14.4697 4.71957C14.6103 4.57891 14.8011 4.4999 15 4.4999C15.1989 4.4999 15.3897 4.57891 15.5303 4.71957C15.671 4.86022 15.75 5.05098 15.75 5.2499V7.18958L18.9694 3.96927C19.1101 3.82854 19.301 3.74948 19.5 3.74948C19.699 3.74948 19.8899 3.82854 20.0306 3.96927C20.1714 4.11 20.2504 4.30087 20.2504 4.4999C20.2504 4.69892 20.1714 4.88979 20.0306 5.03052L16.8113 8.2499H18.75C18.9489 8.2499 19.1397 8.32891 19.2803 8.46957C19.421 8.61022 19.5 8.80098 19.5 8.9999C19.5 9.19881 19.421 9.38957 19.2803 9.53023C19.1397 9.67088 18.9489 9.7499 18.75 9.7499H15C14.8011 9.7499 14.6103 9.67088 14.4697 9.53023C14.329 9.38957 14.25 9.19881 14.25 8.9999ZM21.7388 16.4136C21.5716 17.684 20.9477 18.85 19.9837 19.694C19.0196 20.538 17.7813 21.0022 16.5 20.9999C9.05626 20.9999 3.00001 14.9436 3.00001 7.4999C2.99754 6.21866 3.46169 4.98036 4.30573 4.01641C5.14976 3.05247 6.31592 2.42884 7.58626 2.26208C7.90739 2.22279 8.23261 2.28837 8.51342 2.44905C8.79422 2.60972 9.01555 2.85688 9.14439 3.15365L11.1244 7.57396V7.58521C11.2229 7.81251 11.2636 8.06067 11.2428 8.30753C11.222 8.55439 11.1404 8.79226 11.0053 8.9999C10.9884 9.02521 10.9706 9.04865 10.9519 9.07208L9.00001 11.3858C9.7022 12.8127 11.1947 14.2921 12.6403 14.9961L14.9222 13.0546C14.9446 13.0357 14.9681 13.0182 14.9925 13.0021C15.2 12.8637 15.4387 12.7792 15.687 12.7563C15.9353 12.7334 16.1854 12.7728 16.4147 12.8708L16.4269 12.8765L20.8434 14.8555C21.1409 14.9837 21.3889 15.2048 21.5503 15.4857C21.7116 15.7665 21.7778 16.0921 21.7388 16.4136ZM20.25 16.2261C20.25 16.2261 20.2434 16.2261 20.2397 16.2261L15.8334 14.2527L13.5506 16.1943C13.5287 16.2133 13.5055 16.2309 13.4813 16.2468C13.2654 16.3908 13.0159 16.4763 12.7571 16.4951C12.4983 16.5138 12.239 16.4651 12.0047 16.3536C10.2488 15.5052 8.49845 13.768 7.64907 12.0308C7.5366 11.7982 7.48613 11.5405 7.50255 11.2826C7.51898 11.0247 7.60174 10.7754 7.74282 10.559C7.75872 10.5335 7.77659 10.5094 7.79626 10.4868L9.75001 8.17021L7.78126 3.76396C7.78089 3.76022 7.78089 3.75645 7.78126 3.75271C6.87212 3.8713 6.0374 4.31724 5.4334 5.007C4.8294 5.69677 4.49755 6.58306 4.50001 7.4999C4.50348 10.6814 5.76888 13.7317 8.01857 15.9813C10.2682 18.231 13.3185 19.4964 16.5 19.4999C17.4163 19.503 18.3023 19.1724 18.9925 18.5697C19.6827 17.967 20.1297 17.1336 20.25 16.2252V16.2261Z" fill="black"/>
</svg>
