<svg width="24" height="24" viewBox="0 0 24 24" fill="none" xmlns="http://www.w3.org/2000/svg">
<path d="M13.5 2.25H6C5.80109 2.25 5.61032 2.32902 5.46967 2.46967C5.32902 2.61032 5.25 2.80109 5.25 3V15C5.25223 16.9884 6.04313 18.8948 7.44917 20.3008C8.8552 21.7069 10.7616 22.4978 12.75 22.5C12.9489 22.5 13.1397 22.421 13.2803 22.2803C13.421 22.1397 13.5 21.9489 13.5 21.75V15.75C15.2902 15.75 17.0071 15.0388 18.273 13.773C19.5388 12.5071 20.25 10.7902 20.25 9C20.25 7.20979 19.5388 5.4929 18.273 4.22703C17.0071 2.96116 15.2902 2.25 13.5 2.25ZM6.75 5.86313L11.4675 14.25H6.75V5.86313ZM12 12.1369L7.2825 3.75H12V12.1369ZM6.79781 15.75H12V20.9531C10.6792 20.7843 9.45172 20.1817 8.51023 19.2401C7.56873 18.2984 6.96644 17.0709 6.79781 15.75ZM13.5 14.25V3.75C14.8924 3.75 16.2277 4.30312 17.2123 5.28769C18.1969 6.27226 18.75 7.60761 18.75 9C18.75 10.3924 18.1969 11.7277 17.2123 12.7123C16.2277 13.6969 14.8924 14.25 13.5 14.25Z" fill="black"/>
</svg>
