<svg width="24" height="24" viewBox="0 0 24 24" fill="none" xmlns="http://www.w3.org/2000/svg">
<path d="M20.25 10.4999C20.25 12.6158 19.5094 14.5499 18.1659 15.9477C16.9116 17.2499 15.2109 17.9999 13.5 17.9999C11.8238 17.9999 10.7044 17.4505 9.99094 16.8749L8.98031 21.1714C8.94163 21.3361 8.84843 21.4828 8.71586 21.5878C8.58329 21.6928 8.41912 21.7499 8.25 21.7499C8.19194 21.7498 8.13408 21.7432 8.0775 21.7302C7.98124 21.7081 7.8903 21.6672 7.80988 21.6099C7.72947 21.5525 7.66117 21.4799 7.6089 21.3961C7.55664 21.3123 7.52144 21.219 7.50533 21.1216C7.48921 21.0241 7.4925 20.9245 7.515 20.8283L10.515 8.07832C10.5605 7.88462 10.6811 7.71694 10.8502 7.61216C11.0194 7.50737 11.2232 7.47406 11.4169 7.51957C11.6106 7.56507 11.7782 7.68565 11.883 7.85478C11.9878 8.02392 12.0211 8.22775 11.9756 8.42144L10.3913 15.1527C10.6875 15.5624 11.5594 16.4999 13.5 16.4999C16.0809 16.4999 18.75 14.2555 18.75 10.4999C18.7496 9.46475 18.5111 8.44358 18.053 7.51534C17.595 6.58709 16.9295 5.77663 16.1082 5.14663C15.2868 4.51664 14.3316 4.08398 13.3164 3.88211C12.3011 3.68024 11.253 3.71457 10.2532 3.98245C9.2533 4.25034 8.32844 4.74459 7.5501 5.42699C6.77176 6.10939 6.16079 6.96166 5.76443 7.9179C5.36808 8.87414 5.19696 9.90872 5.2643 10.9417C5.33165 11.9746 5.63565 12.9782 6.15281 13.8749C6.2461 14.0467 6.26862 14.2481 6.21558 14.4363C6.16254 14.6244 6.03813 14.7844 5.86885 14.8822C5.69957 14.98 5.49879 15.0078 5.3093 14.9598C5.11981 14.9117 4.95658 14.7915 4.85438 14.6249C4.22197 13.529 3.85011 12.3022 3.76757 11.0396C3.68503 9.77703 3.89402 8.51235 4.37837 7.34342C4.86272 6.17449 5.60945 5.13263 6.56081 4.29842C7.51217 3.46421 8.64267 2.86001 9.86486 2.53255C11.0871 2.20508 12.3682 2.16312 13.6092 2.40993C14.8502 2.65673 16.0178 3.18568 17.0217 3.95585C18.0256 4.72603 18.8389 5.71681 19.3987 6.85154C19.9585 7.98628 20.2498 9.23458 20.25 10.4999Z" fill="black"/>
</svg>
