<svg width="24" height="24" viewBox="0 0 24 24" fill="none" xmlns="http://www.w3.org/2000/svg">
<path d="M23.2155 3.73974C23.2048 3.55626 23.127 3.3831 22.9971 3.25314C22.8671 3.12318 22.6939 3.04546 22.5105 3.03474C17.658 2.75349 13.7617 4.22912 12.0873 6.99287C10.9811 8.82006 10.983 11.0391 12.0723 13.156C11.4523 13.8941 10.9991 14.7576 10.7439 15.6872L9.21859 14.1563C9.95171 12.6254 9.92359 11.0297 9.12484 9.70412C7.88734 7.66131 5.03078 6.56631 1.48421 6.77443C1.30073 6.78515 1.12757 6.86286 0.997607 6.99283C0.867644 7.12279 0.789928 7.29595 0.779212 7.47943C0.57015 11.026 1.66609 13.8826 3.7089 15.1201C4.38302 15.5319 5.15767 15.7499 5.94765 15.7501C6.71443 15.7406 7.46928 15.559 8.1564 15.2185L10.5002 17.5622V20.2501C10.5002 20.449 10.5792 20.6397 10.7198 20.7804C10.8605 20.921 11.0512 21.0001 11.2502 21.0001C11.4491 21.0001 11.6398 20.921 11.7805 20.7804C11.9211 20.6397 12.0002 20.449 12.0002 20.2501V17.4854C11.9968 16.2922 12.4028 15.134 13.1505 14.2041C14.1151 14.7082 15.1849 14.978 16.2733 14.9916C17.3255 14.995 18.3582 14.7076 19.2573 14.161C22.0211 12.4885 23.5005 8.59224 23.2155 3.73974ZM4.48234 13.8376C3.04421 12.9666 2.23046 10.9051 2.25015 8.25006C4.90515 8.22756 6.96671 9.04412 7.83765 10.4822C8.29234 11.2322 8.3664 12.1069 8.06827 13.0079L5.77984 10.7194C5.63804 10.5847 5.44923 10.5107 5.25366 10.5132C5.05809 10.5157 4.87123 10.5945 4.73293 10.7328C4.59463 10.8711 4.51582 11.058 4.51332 11.2536C4.51082 11.4491 4.58481 11.6379 4.71953 11.7797L7.00796 14.0682C6.10703 14.3663 5.23328 14.2922 4.48234 13.8376ZM18.4802 12.8794C17.2239 13.6397 15.7473 13.6979 14.2473 13.0669L19.2808 8.03256C19.4155 7.89076 19.4895 7.70195 19.487 7.50638C19.4845 7.31081 19.4057 7.12395 19.2674 6.98565C19.1291 6.84735 18.9422 6.76854 18.7466 6.76604C18.5511 6.76354 18.3623 6.83753 18.2205 6.97224L13.1861 12.0001C12.5523 10.5001 12.6095 9.02256 13.3736 7.76724C14.6805 5.61099 17.7798 4.40912 21.7483 4.50193C21.8383 8.46943 20.6383 11.5726 18.4802 12.8794Z" fill="black"/>
</svg>
