<svg width="24" height="24" viewBox="0 0 24 24" fill="none" xmlns="http://www.w3.org/2000/svg">
<path d="M22.281 1.71948C22.2114 1.64974 22.1287 1.59443 22.0376 1.55668C21.9466 1.51894 21.849 1.49951 21.7504 1.49951C21.6519 1.49951 21.5543 1.51894 21.4632 1.55668C21.3722 1.59443 21.2894 1.64974 21.2198 1.71948L16.3073 6.63291L15.8039 6.12854C15.2406 5.56693 14.4777 5.25155 13.6823 5.25155C12.8869 5.25155 12.124 5.56693 11.5607 6.12854L9.37542 8.31479L8.78104 7.71948C8.64031 7.57875 8.44944 7.49968 8.25042 7.49968C8.05139 7.49968 7.86052 7.57875 7.71979 7.71948C7.57906 7.86021 7.5 8.05108 7.5 8.2501C7.5 8.44912 7.57906 8.64 7.71979 8.78073L8.3151 9.3751L6.12885 11.5604C5.85021 11.839 5.62917 12.1697 5.47836 12.5338C5.32755 12.8978 5.24993 13.288 5.24993 13.682C5.24993 14.076 5.32755 14.4662 5.47836 14.8302C5.62917 15.1942 5.85021 15.525 6.12885 15.8035L6.63323 16.307L1.71979 21.2195C1.65011 21.2892 1.59483 21.3719 1.55712 21.4629C1.51941 21.554 1.5 21.6516 1.5 21.7501C1.5 21.8486 1.51941 21.9462 1.55712 22.0373C1.59483 22.1283 1.65011 22.211 1.71979 22.2807C1.86052 22.4215 2.05139 22.5005 2.25042 22.5005C2.34896 22.5005 2.44654 22.4811 2.53759 22.4434C2.62863 22.4057 2.71136 22.3504 2.78104 22.2807L7.69354 17.3673L8.19698 17.8717C8.47556 18.1503 8.80631 18.3714 9.17033 18.5222C9.53435 18.673 9.92452 18.7506 10.3185 18.7506C10.7126 18.7506 11.1027 18.673 11.4668 18.5222C11.8308 18.3714 12.1615 18.1503 12.4401 17.8717L14.6254 15.6854L15.2198 16.2807C15.2895 16.3504 15.3722 16.4057 15.4632 16.4434C15.5543 16.4811 15.6519 16.5005 15.7504 16.5005C15.849 16.5005 15.9465 16.4811 16.0376 16.4434C16.1286 16.4057 16.2114 16.3504 16.281 16.2807C16.3507 16.211 16.406 16.1283 16.4437 16.0373C16.4814 15.9462 16.5008 15.8486 16.5008 15.7501C16.5008 15.6516 16.4814 15.554 16.4437 15.4629C16.406 15.3719 16.3507 15.2892 16.281 15.2195L15.6857 14.6251L17.872 12.4398C18.1506 12.1612 18.3717 11.8305 18.5225 11.4664C18.6733 11.1024 18.7509 10.7122 18.7509 10.3182C18.7509 9.9242 18.6733 9.53404 18.5225 9.17002C18.3717 8.806 18.1506 8.47525 17.872 8.19666L17.3676 7.69323L22.281 2.78073C22.3508 2.71107 22.4061 2.62836 22.4438 2.53731C22.4816 2.44626 22.501 2.34866 22.501 2.2501C22.501 2.15154 22.4816 2.05395 22.4438 1.9629C22.4061 1.87185 22.3508 1.78913 22.281 1.71948ZM11.3789 16.8132C11.0976 17.0943 10.7162 17.2522 10.3185 17.2522C9.92089 17.2522 9.53951 17.0943 9.25823 16.8132L7.1901 14.7423C6.90901 14.461 6.75111 14.0796 6.75111 13.682C6.75111 13.2843 6.90901 12.9029 7.1901 12.6217L9.37542 10.4354L13.5651 14.6251L11.3789 16.8132ZM16.8107 11.3814L14.6254 13.5648L10.4357 9.3751L12.622 7.18979C12.9033 6.9087 13.2846 6.7508 13.6823 6.7508C14.0799 6.7508 14.4613 6.9087 14.7426 7.18979L16.8107 9.25229C16.9508 9.39167 17.0619 9.55733 17.1377 9.73978C17.2135 9.92222 17.2525 10.1178 17.2525 10.3154C17.2525 10.513 17.2135 10.7086 17.1377 10.8911C17.0619 11.0735 16.9508 11.2392 16.8107 11.3785V11.3814ZM8.28885 3.23729C8.22595 3.04857 8.24059 2.84259 8.32955 2.66467C8.41851 2.48674 8.57451 2.35145 8.76323 2.28854C8.95195 2.22563 9.15793 2.24027 9.33585 2.32923C9.51378 2.4182 9.64907 2.5742 9.71198 2.76291L10.462 5.01291C10.4931 5.10636 10.5056 5.20502 10.4986 5.30327C10.4916 5.40152 10.4653 5.49744 10.4213 5.58554C10.3772 5.67364 10.3163 5.7522 10.2419 5.81673C10.1674 5.88127 10.081 5.93052 9.9876 5.96166C9.79889 6.02457 9.59291 6.00993 9.41498 5.92097C9.32688 5.87692 9.24832 5.81595 9.18379 5.74154C9.11925 5.66713 9.07 5.58073 9.03885 5.48729L8.28885 3.23729ZM2.28885 8.76291C2.32 8.66947 2.36924 8.58307 2.43378 8.50865C2.49831 8.43424 2.57687 8.37327 2.66497 8.32922C2.75307 8.28516 2.84899 8.2589 2.94724 8.25192C3.0455 8.24494 3.14416 8.25738 3.2376 8.28854L5.4876 9.03854C5.58105 9.06969 5.66744 9.11894 5.74185 9.18347C5.81626 9.24801 5.87723 9.32657 5.92128 9.41467C5.96533 9.50277 5.9916 9.59868 5.99858 9.69693C6.00557 9.79518 5.99313 9.89385 5.96198 9.98729C5.93083 10.0807 5.88158 10.1671 5.81705 10.2415C5.75251 10.3159 5.67395 10.3769 5.58585 10.421C5.49775 10.465 5.40184 10.4913 5.30359 10.4983C5.20534 10.5052 5.10667 10.4928 5.01323 10.4617L2.76323 9.71166C2.66978 9.68052 2.58338 9.63128 2.50897 9.56674C2.43455 9.50221 2.37358 9.42365 2.32953 9.33555C2.28548 9.24744 2.25921 9.15153 2.25224 9.05328C2.24526 8.95502 2.2577 8.85636 2.28885 8.76291ZM21.712 15.2373C21.6808 15.3307 21.6316 15.4171 21.5671 15.4915C21.5025 15.566 21.424 15.6269 21.3359 15.671C21.2478 15.715 21.1518 15.7413 21.0536 15.7483C20.9553 15.7553 20.8567 15.7428 20.7632 15.7117L18.5132 14.9617C18.3245 14.8988 18.1685 14.7635 18.0796 14.5855C17.9906 14.4076 17.976 14.2016 18.0389 14.0129C18.1018 13.8242 18.2371 13.6682 18.415 13.5792C18.5929 13.4903 18.7989 13.4756 18.9876 13.5385L21.2376 14.2885C21.3311 14.3197 21.4175 14.3689 21.4919 14.4335C21.5663 14.498 21.6273 14.5766 21.6713 14.6647C21.7154 14.7528 21.7416 14.8487 21.7486 14.9469C21.7556 15.0452 21.7431 15.1438 21.712 15.2373ZM15.712 20.7629C15.7749 20.9516 15.7602 21.1576 15.6713 21.3355C15.5823 21.5135 15.4263 21.6488 15.2376 21.7117C15.0489 21.7746 14.8429 21.7599 14.665 21.671C14.4871 21.582 14.3518 21.426 14.2889 21.2373L13.5389 18.9873C13.4759 18.7986 13.4906 18.5926 13.5796 18.4147C13.6685 18.2367 13.8245 18.1014 14.0132 18.0385C14.2019 17.9756 14.4079 17.9903 14.5859 18.0792C14.7638 18.1682 14.8991 18.3242 14.962 18.5129L15.712 20.7629Z" fill="black"/>
</svg>
