<svg width="24" height="24" viewBox="0 0 24 24" fill="none" xmlns="http://www.w3.org/2000/svg">
<path d="M22.5 10.5H21.435L18.8672 6.00562C18.736 5.77609 18.5464 5.5853 18.3178 5.45261C18.0891 5.31991 17.8294 5.25001 17.565 5.25H6.435C6.17061 5.25001 5.91092 5.31991 5.68224 5.45261C5.45356 5.5853 5.26402 5.77609 5.13281 6.00562L2.565 10.5H1.5C1.30109 10.5 1.11032 10.579 0.96967 10.7197C0.829018 10.8603 0.75 11.0511 0.75 11.25C0.75 11.4489 0.829018 11.6397 0.96967 11.7803C1.11032 11.921 1.30109 12 1.5 12H2.25V19.5C2.25 19.8978 2.40804 20.2794 2.68934 20.5607C2.97064 20.842 3.35218 21 3.75 21H6C6.39782 21 6.77936 20.842 7.06066 20.5607C7.34196 20.2794 7.5 19.8978 7.5 19.5V18H16.5V19.5C16.5 19.8978 16.658 20.2794 16.9393 20.5607C17.2206 20.842 17.6022 21 18 21H20.25C20.6478 21 21.0294 20.842 21.3107 20.5607C21.592 20.2794 21.75 19.8978 21.75 19.5V12H22.5C22.6989 12 22.8897 11.921 23.0303 11.7803C23.171 11.6397 23.25 11.4489 23.25 11.25C23.25 11.0511 23.171 10.8603 23.0303 10.7197C22.8897 10.579 22.6989 10.5 22.5 10.5ZM6.435 6.75H17.565L19.7072 10.5H4.29281L6.435 6.75ZM6 19.5H3.75V18H6V19.5ZM18 19.5V18H20.25V19.5H18ZM20.25 16.5H3.75V12H20.25V16.5ZM5.25 14.25C5.25 14.0511 5.32902 13.8603 5.46967 13.7197C5.61032 13.579 5.80109 13.5 6 13.5H7.5C7.69891 13.5 7.88968 13.579 8.03033 13.7197C8.17098 13.8603 8.25 14.0511 8.25 14.25C8.25 14.4489 8.17098 14.6397 8.03033 14.7803C7.88968 14.921 7.69891 15 7.5 15H6C5.80109 15 5.61032 14.921 5.46967 14.7803C5.32902 14.6397 5.25 14.4489 5.25 14.25ZM15.75 14.25C15.75 14.0511 15.829 13.8603 15.9697 13.7197C16.1103 13.579 16.3011 13.5 16.5 13.5H18C18.1989 13.5 18.3897 13.579 18.5303 13.7197C18.671 13.8603 18.75 14.0511 18.75 14.25C18.75 14.4489 18.671 14.6397 18.5303 14.7803C18.3897 14.921 18.1989 15 18 15H16.5C16.3011 15 16.1103 14.921 15.9697 14.7803C15.829 14.6397 15.75 14.4489 15.75 14.25ZM9 3C9 2.80109 9.07902 2.61032 9.21967 2.46967C9.36032 2.32902 9.55109 2.25 9.75 2.25H14.25C14.4489 2.25 14.6397 2.32902 14.7803 2.46967C14.921 2.61032 15 2.80109 15 3C15 3.19891 14.921 3.38968 14.7803 3.53033C14.6397 3.67098 14.4489 3.75 14.25 3.75H9.75C9.55109 3.75 9.36032 3.67098 9.21967 3.53033C9.07902 3.38968 9 3.19891 9 3Z" fill="black"/>
</svg>
