<svg width="24" height="24" viewBox="0 0 24 24" fill="none" xmlns="http://www.w3.org/2000/svg">
<path d="M20.6517 14.863C20.5448 14.7956 20.4225 14.7562 20.2963 14.7487C20.1701 14.7412 20.044 14.7657 19.9298 14.8199C19.644 14.9551 19.3287 15.0158 19.0132 14.9964C18.6976 14.977 18.3921 14.8781 18.125 14.709C17.858 14.5399 17.638 14.3059 17.4855 14.029C17.3331 13.752 17.2532 13.441 17.2532 13.1249C17.2532 12.8088 17.3331 12.4978 17.4855 12.2208C17.638 11.9439 17.858 11.7099 18.125 11.5408C18.3921 11.3717 18.6976 11.2728 19.0132 11.2534C19.3287 11.234 19.644 11.2947 19.9298 11.4299C20.0441 11.4842 20.1704 11.5086 20.2967 11.501C20.423 11.4933 20.5453 11.4538 20.6523 11.3862C20.7593 11.3185 20.8474 11.2249 20.9084 11.114C20.9694 11.0032 21.0014 10.8786 21.0014 10.7521V6.7499C21.0014 6.35207 20.8433 5.97054 20.562 5.68923C20.2807 5.40793 19.8992 5.24989 19.5014 5.24989H16.1057C16.1197 5.12539 16.1266 5.00018 16.1264 4.87489C16.1257 4.41395 16.0309 3.958 15.8477 3.53499C15.6646 3.11198 15.397 2.73083 15.0614 2.4149C14.5966 1.97841 14.0177 1.68249 13.3918 1.56141C12.7658 1.44034 12.1183 1.49905 11.5243 1.73076C10.9303 1.96247 10.4141 2.3577 10.0355 2.87067C9.65683 3.38364 9.43123 3.99338 9.38481 4.62927C9.3704 4.83612 9.3748 5.04384 9.39794 5.24989H6.00137C5.60355 5.24989 5.22202 5.40793 4.94071 5.68923C4.65941 5.97054 4.50137 6.35207 4.50137 6.7499V9.77052C4.37686 9.75656 4.25166 9.74968 4.12637 9.7499C3.66543 9.75064 3.2095 9.84548 2.7865 10.0286C2.3635 10.2117 1.98234 10.4793 1.66637 10.8149C1.34814 11.1511 1.10309 11.5496 0.946729 11.9853C0.790364 12.421 0.726079 12.8843 0.757935 13.3461C0.81168 14.1593 1.15719 14.9257 1.73094 15.5045C2.30468 16.0832 3.06808 16.4354 3.88075 16.4961C4.08758 16.511 4.29535 16.5066 4.50137 16.483V19.4999C4.50137 19.8977 4.65941 20.2793 4.94071 20.5606C5.22202 20.8419 5.60355 20.9999 6.00137 20.9999H19.5014C19.8992 20.9999 20.2807 20.8419 20.562 20.5606C20.8433 20.2793 21.0014 19.8977 21.0014 19.4999V15.4977C21.0014 15.371 20.9694 15.2463 20.9083 15.1353C20.8471 15.0243 20.7588 14.9307 20.6517 14.863ZM19.5014 19.4999H6.00137V15.4977C6.00141 15.3711 5.96943 15.2466 5.90839 15.1358C5.84736 15.0249 5.75926 14.9313 5.65231 14.8636C5.54535 14.796 5.42301 14.7565 5.29668 14.7488C5.17035 14.7412 5.04415 14.7656 4.92981 14.8199C4.64403 14.9551 4.32871 15.0158 4.01318 14.9964C3.69764 14.977 3.39213 14.8781 3.12505 14.709C2.85796 14.5399 2.63798 14.3059 2.48555 14.029C2.33312 13.752 2.25319 13.441 2.25319 13.1249C2.25319 12.8088 2.33312 12.4978 2.48555 12.2208C2.63798 11.9439 2.85796 11.7099 3.12505 11.5408C3.39213 11.3717 3.69764 11.2728 4.01318 11.2534C4.32871 11.234 4.64403 11.2947 4.92981 11.4299C5.04415 11.4842 5.17035 11.5086 5.29668 11.501C5.42301 11.4933 5.54535 11.4538 5.65231 11.3862C5.75926 11.3185 5.84736 11.2249 5.90839 11.114C5.96943 11.0032 6.00141 10.8786 6.00137 10.7521V6.7499H10.3786C10.5051 6.74994 10.6296 6.71795 10.7405 6.65692C10.8514 6.59588 10.945 6.50779 11.0126 6.40083C11.0803 6.29387 11.1198 6.17153 11.1274 6.0452C11.1351 5.91888 11.1106 5.79267 11.0564 5.67833C10.9212 5.39255 10.8605 5.07723 10.8799 4.7617C10.8993 4.44616 10.9982 4.14065 11.1673 3.87357C11.3364 3.60649 11.5703 3.3865 11.8473 3.23407C12.1242 3.08164 12.4352 3.00171 12.7514 3.00171C13.0675 3.00171 13.3785 3.08164 13.6555 3.23407C13.9324 3.3865 14.1663 3.60649 14.3355 3.87357C14.5046 4.14065 14.6035 4.44616 14.6228 4.7617C14.6422 5.07723 14.5815 5.39255 14.4464 5.67833C14.3921 5.79267 14.3677 5.91888 14.3753 6.0452C14.383 6.17153 14.4224 6.29387 14.4901 6.40083C14.5578 6.50779 14.6514 6.59588 14.7622 6.65692C14.8731 6.71795 14.9976 6.74994 15.1242 6.7499H19.5014V9.77146C19.2954 9.74786 19.0876 9.74346 18.8807 9.75833C18.0079 9.82014 17.1931 10.2186 16.6083 10.8696C16.0236 11.5206 15.7145 12.3733 15.7464 13.2478C15.7782 14.1223 16.1485 14.9502 16.7791 15.557C17.4097 16.1637 18.2513 16.5018 19.1264 16.4999C19.2517 16.5001 19.3769 16.4932 19.5014 16.4793V19.4999Z" fill="black"/>
</svg>
