<svg width="24" height="24" viewBox="0 0 24 24" fill="none" xmlns="http://www.w3.org/2000/svg">
<path d="M22.4979 6.74988V8.99988C22.4979 9.19879 22.4189 9.38956 22.2782 9.53021C22.1376 9.67086 21.9468 9.74988 21.7479 9.74988C21.549 9.74988 21.3582 9.67086 21.2176 9.53021C21.0769 9.38956 20.9979 9.19879 20.9979 8.99988V7.49988H11.7682L7.45007 19.0133C7.3968 19.1568 7.30087 19.2806 7.17518 19.3681C7.04949 19.4555 6.90005 19.5023 6.74695 19.5023C6.59385 19.5023 6.44441 19.4555 6.31872 19.3681C6.19303 19.2806 6.0971 19.1568 6.04382 19.0133L1.54382 7.01332C1.50923 6.92098 1.49316 6.82274 1.49653 6.72419C1.49991 6.62564 1.52266 6.52873 1.56349 6.43897C1.60432 6.34922 1.66242 6.26839 1.73449 6.20109C1.80656 6.13379 1.89118 6.08135 1.98351 6.04675C2.07585 6.01216 2.17409 5.99609 2.27264 5.99946C2.37119 6.00284 2.4681 6.02559 2.55786 6.06642C2.64761 6.10725 2.72844 6.16535 2.79574 6.23742C2.86304 6.30949 2.91548 6.39411 2.95007 6.48644L6.74789 16.6143L10.5457 6.48925C10.5989 6.3458 10.6946 6.22204 10.8201 6.13457C10.9456 6.0471 11.0949 6.0001 11.2479 5.99988H21.7479C21.9468 5.99988 22.1376 6.0789 22.2782 6.21955C22.4189 6.3602 22.4979 6.55097 22.4979 6.74988Z" fill="black"/>
</svg>
