<svg width="24" height="24" viewBox="0 0 24 24" fill="none" xmlns="http://www.w3.org/2000/svg">
<path d="M12 2.25C10.0716 2.25 8.18657 2.82183 6.58319 3.89317C4.97982 4.96451 3.73013 6.48726 2.99218 8.26884C2.25422 10.0504 2.06114 12.0108 2.43735 13.9021C2.81355 15.7934 3.74215 17.5307 5.10571 18.8943C6.46928 20.2579 8.20656 21.1865 10.0979 21.5627C11.9892 21.9389 13.9496 21.7458 15.7312 21.0078C17.5127 20.2699 19.0355 19.0202 20.1068 17.4168C21.1782 15.8134 21.75 13.9284 21.75 12C21.7473 9.41498 20.7192 6.93661 18.8913 5.10872C17.0634 3.28084 14.585 2.25273 12 2.25ZM12 20.25C10.3683 20.25 8.77326 19.7661 7.41655 18.8596C6.05984 17.9531 5.00242 16.6646 4.378 15.1571C3.75358 13.6496 3.5902 11.9908 3.90853 10.3905C4.22685 8.79016 5.01259 7.32015 6.16637 6.16637C7.32016 5.01259 8.79017 4.22685 10.3905 3.90852C11.9909 3.59019 13.6497 3.75357 15.1571 4.37799C16.6646 5.00242 17.9531 6.05984 18.8596 7.41655C19.7661 8.77325 20.25 10.3683 20.25 12C20.2475 14.1873 19.3775 16.2843 17.8309 17.8309C16.2843 19.3775 14.1873 20.2475 12 20.25ZM16.8534 8.34375C16.7338 8.27964 16.5991 8.24919 16.4635 8.25563C16.328 8.26207 16.1967 8.30516 16.0838 8.38031L11.5838 11.3803C11.4809 11.4488 11.3965 11.5416 11.3382 11.6505C11.2798 11.7595 11.2493 11.8811 11.2493 12.0047C11.2493 12.1283 11.2798 12.2499 11.3382 12.3588C11.3965 12.4678 11.4809 12.5606 11.5838 12.6291L16.0838 15.6291C16.2076 15.7095 16.3524 15.7515 16.5 15.75C16.6989 15.75 16.8897 15.671 17.0303 15.5303C17.171 15.3897 17.25 15.1989 17.25 15V9C17.2491 8.86506 17.2117 8.73286 17.1419 8.61737C17.0721 8.50187 16.9725 8.40734 16.8534 8.34375ZM15.75 13.5984L13.3519 12L15.75 10.4062V13.5984ZM10.8534 8.34375C10.7338 8.27964 10.5991 8.24919 10.4635 8.25563C10.328 8.26207 10.1967 8.30516 10.0838 8.38031L5.58375 11.3803C5.48088 11.4488 5.39651 11.5416 5.33816 11.6505C5.27981 11.7595 5.24927 11.8811 5.24927 12.0047C5.24927 12.1283 5.27981 12.2499 5.33816 12.3588C5.39651 12.4678 5.48088 12.5606 5.58375 12.6291L10.0838 15.6291C10.2076 15.7095 10.3524 15.7515 10.5 15.75C10.6989 15.75 10.8897 15.671 11.0303 15.5303C11.171 15.3897 11.25 15.1989 11.25 15V9C11.2491 8.86506 11.2117 8.73286 11.1419 8.61737C11.0721 8.50187 10.9725 8.40734 10.8534 8.34375ZM9.75 13.5984L7.35188 12L9.75 10.4062V13.5984Z" fill="black"/>
</svg>
