<svg width="24" height="24" viewBox="0 0 24 24" fill="none" xmlns="http://www.w3.org/2000/svg">
<path d="M9.27281 14.7272C9.90158 15.3526 10.4001 16.0964 10.7395 16.9156C11.0788 17.7349 11.2524 18.6133 11.25 19.5001C11.25 19.699 11.171 19.8897 11.0303 20.0304C10.8897 20.171 10.6989 20.2501 10.5 20.2501C10.3011 20.2501 10.1103 20.171 9.96967 20.0304C9.82902 19.8897 9.75 19.699 9.75 19.5001C9.75 18.1077 9.19688 16.7723 8.21231 15.7877C7.22775 14.8032 5.89239 14.2501 4.5 14.2501C4.30109 14.2501 4.11032 14.171 3.96967 14.0304C3.82902 13.8897 3.75 13.699 3.75 13.5001C3.75 13.3011 3.82902 13.1104 3.96967 12.9697C4.11032 12.8291 4.30109 12.7501 4.5 12.7501C5.38676 12.7477 6.26519 12.9212 7.08445 13.2606C7.9037 13.6 8.64751 14.0985 9.27281 14.7272ZM4.5 8.25006C4.30109 8.25006 4.11032 8.32907 3.96967 8.46973C3.82902 8.61038 3.75 8.80114 3.75 9.00006C3.75 9.19897 3.82902 9.38973 3.96967 9.53039C4.11032 9.67104 4.30109 9.75006 4.5 9.75006C5.78039 9.75006 7.04824 10.0022 8.23116 10.4922C9.41409 10.9822 10.4889 11.7004 11.3943 12.6058C12.2997 13.5111 13.0178 14.586 13.5078 15.7689C13.9978 16.9518 14.25 18.2197 14.25 19.5001C14.25 19.699 14.329 19.8897 14.4697 20.0304C14.6103 20.171 14.8011 20.2501 15 20.2501C15.1989 20.2501 15.3897 20.171 15.5303 20.0304C15.671 19.8897 15.75 19.699 15.75 19.5001C15.75 16.5164 14.5647 13.6549 12.455 11.5451C10.3452 9.43532 7.48369 8.25006 4.5 8.25006ZM15.6366 8.36349C14.1775 6.89636 12.442 5.73318 10.5304 4.94129C8.61879 4.14939 6.56912 3.7445 4.5 3.75006C4.30109 3.75006 4.11032 3.82907 3.96967 3.96973C3.82902 4.11038 3.75 4.30114 3.75 4.50006C3.75 4.69897 3.82902 4.88973 3.96967 5.03039C4.11032 5.17104 4.30109 5.25006 4.5 5.25006C6.37209 5.24492 8.22661 5.61117 9.95621 6.3276C11.6858 7.04402 13.2561 8.0964 14.5763 9.42381C15.9037 10.7439 16.956 12.3143 17.6725 14.0438C18.3889 15.7734 18.7551 17.628 18.75 19.5001C18.75 19.699 18.829 19.8897 18.9697 20.0304C19.1103 20.171 19.3011 20.2501 19.5 20.2501C19.6989 20.2501 19.8897 20.171 20.0303 20.0304C20.171 19.8897 20.25 19.699 20.25 19.5001C20.2556 17.4309 19.8507 15.3813 19.0588 13.4697C18.2669 11.5581 17.1037 9.82254 15.6366 8.36349ZM4.875 18.0001C4.6525 18.0001 4.43499 18.066 4.24998 18.1897C4.06498 18.3133 3.92078 18.489 3.83564 18.6945C3.75049 18.9001 3.72821 19.1263 3.77162 19.3445C3.81503 19.5628 3.92217 19.7632 4.07951 19.9206C4.23684 20.0779 4.4373 20.185 4.65552 20.2284C4.87375 20.2718 5.09995 20.2496 5.30552 20.1644C5.51109 20.0793 5.68679 19.9351 5.8104 19.7501C5.93402 19.5651 6 19.3476 6 19.1251C6 18.8267 5.88147 18.5405 5.6705 18.3296C5.45952 18.1186 5.17337 18.0001 4.875 18.0001Z" fill="black"/>
</svg>
