<svg width="24" height="24" viewBox="0 0 24 24" fill="none" xmlns="http://www.w3.org/2000/svg">
<path d="M19.8755 12.75C19.7649 12.75 19.6552 12.7556 19.5465 12.7659L18.5387 9.7425L16.4621 3.51281C16.4123 3.36347 16.3168 3.23358 16.1891 3.14155C16.0614 3.04951 15.908 2.99999 15.7505 3H12.7505C12.5516 3 12.3609 3.07902 12.2202 3.21967C12.0796 3.36032 12.0005 3.55109 12.0005 3.75C12.0005 3.94891 12.0796 4.13968 12.2202 4.28033C12.3609 4.42098 12.5516 4.5 12.7505 4.5H15.2096L16.9909 9.83156L12.384 15.75H7.47898C7.38653 14.9258 6.99387 14.1646 6.37593 13.6114C5.75798 13.0583 4.95802 12.7521 4.12869 12.7512C3.29936 12.7503 2.49873 13.0548 1.87958 13.6065C1.26043 14.1583 0.866109 14.9187 0.771869 15.7427C0.677629 16.5666 0.890064 17.3965 1.36864 18.0738C1.84721 18.7511 2.55841 19.2285 3.36653 19.4149C4.17465 19.6012 5.0231 19.4836 5.74998 19.0843C6.47685 18.685 7.03126 18.032 7.30741 17.25H12.7505C12.8647 17.2499 12.9773 17.2238 13.0798 17.1736C13.1823 17.1234 13.272 17.0504 13.3421 16.9603L17.5609 11.5416L18.1234 13.2413C17.4265 13.665 16.9067 14.3267 16.6599 15.104C16.4132 15.8814 16.4563 16.7218 16.7813 17.4698C17.1063 18.2178 17.6911 18.8229 18.4276 19.173C19.1642 19.5232 20.0026 19.5949 20.7879 19.3747C21.5732 19.1545 22.2522 18.6575 22.6993 17.9754C23.1465 17.2934 23.3315 16.4725 23.2202 15.6645C23.109 14.8566 22.7089 14.1163 22.094 13.5805C21.4792 13.0447 20.6911 12.7497 19.8755 12.75ZM4.12554 18C3.7547 18 3.39219 17.89 3.08384 17.684C2.7755 17.478 2.53518 17.1851 2.39326 16.8425C2.25135 16.4999 2.21422 16.1229 2.28657 15.7592C2.35891 15.3955 2.53749 15.0614 2.79971 14.7992C3.06194 14.537 3.39603 14.3584 3.75974 14.286C4.12346 14.2137 4.50046 14.2508 4.84307 14.3927C5.18568 14.5346 5.47852 14.775 5.68454 15.0833C5.89057 15.3916 6.00054 15.7542 6.00054 16.125C6.00054 16.3712 5.95204 16.615 5.85781 16.8425C5.76358 17.07 5.62547 17.2767 5.45136 17.4508C5.27725 17.6249 5.07055 17.763 4.84307 17.8573C4.61558 17.9515 4.37177 18 4.12554 18ZM19.8755 18C19.5047 18 19.1422 17.89 18.8338 17.684C18.5255 17.478 18.2852 17.1851 18.1433 16.8425C18.0014 16.4999 17.9642 16.1229 18.0366 15.7592C18.1089 15.3955 18.2875 15.0614 18.5497 14.7992C18.8119 14.537 19.146 14.3584 19.5097 14.286C19.8735 14.2137 20.2505 14.2508 20.5931 14.3927C20.9357 14.5346 21.2285 14.775 21.4345 15.0833C21.6406 15.3916 21.7505 15.7542 21.7505 16.125C21.7505 16.3712 21.702 16.615 21.6078 16.8425C21.5136 17.07 21.3755 17.2767 21.2014 17.4508C21.0273 17.6249 20.8206 17.763 20.5931 17.8573C20.3656 17.9515 20.1218 18 19.8755 18Z" fill="black"/>
</svg>
