<svg width="24" height="24" viewBox="0 0 24 24" fill="none" xmlns="http://www.w3.org/2000/svg">
<path d="M23.057 14.4966C22.9332 14.3597 20.7985 12.0384 17.3382 10.6941C17.177 8.96719 16.5451 7.39688 15.5185 6.20156C14.1451 4.59375 12.1492 3.75 9.75103 3.75C4.92103 3.75 1.77197 8.07938 1.64072 8.26406C1.53328 8.42595 1.49287 8.62321 1.52797 8.81431C1.56308 9.0054 1.67098 9.17541 1.82895 9.28854C1.98691 9.40167 2.18261 9.44908 2.37483 9.42079C2.56705 9.3925 2.7408 9.29071 2.85947 9.13688C2.88853 9.09844 5.70197 5.25 9.75103 5.25C11.6982 5.25 13.3004 5.91656 14.3832 7.17844C15.0788 7.98844 15.5495 9.02437 15.7585 10.1784C14.6725 9.89485 13.5547 9.75088 12.4323 9.75C9.98916 9.75 7.93884 10.3884 6.50166 11.5959C5.23041 12.6647 4.50103 14.1562 4.50103 15.6797C4.49524 16.2714 4.60723 16.8584 4.83047 17.4064C5.05371 17.9545 5.38374 18.4526 5.80134 18.8719C6.70697 19.7738 7.96322 20.25 9.43228 20.25C14.2895 20.25 17.0429 16.3003 17.3532 12.3356C19.0676 13.0977 20.6253 14.1719 21.947 15.5034C22.0131 15.5764 22.0929 15.6357 22.1819 15.6779C22.271 15.72 22.3674 15.7442 22.4658 15.7491C22.5642 15.754 22.6625 15.7394 22.7553 15.7063C22.848 15.6731 22.9333 15.622 23.0063 15.5559C23.0794 15.4898 23.1386 15.41 23.1808 15.321C23.2229 15.2319 23.2471 15.1355 23.252 15.0371C23.2569 14.9388 23.2423 14.8404 23.2092 14.7476C23.176 14.6549 23.125 14.5696 23.0588 14.4966H23.057ZM14.2013 16.5253C13.3735 17.5397 11.8754 18.75 9.43228 18.75C7.06228 18.75 6.00103 17.2078 6.00103 15.6797C6.00103 13.5459 8.01385 11.25 12.4323 11.25C13.6019 11.2535 14.7643 11.433 15.8804 11.7825C15.8382 13.5413 15.2317 15.2606 14.2013 16.5253Z" fill="black"/>
</svg>
