<svg width="24" height="24" viewBox="0 0 24 24" fill="none" xmlns="http://www.w3.org/2000/svg">
<path d="M5.055 3.24563C4.94222 3.12195 4.7913 3.03955 4.62627 3.01155C4.46124 2.98355 4.29158 3.01156 4.14431 3.09112C3.99704 3.17069 3.88062 3.29723 3.81358 3.45061C3.74655 3.60398 3.73274 3.77538 3.77437 3.93751C3.53982 4.06715 3.34428 4.25727 3.2081 4.4881C3.07191 4.71892 3.00006 4.98201 3 5.25001V10.7597C3 19.1616 10.1081 21.9478 11.5312 22.4203C11.8351 22.5243 12.1649 22.5243 12.4688 22.4203C14.3867 21.7547 16.1342 20.674 17.5866 19.2553L18.9469 20.7553C19.0132 20.8282 19.0932 20.8873 19.1823 20.9293C19.2715 20.9712 19.368 20.9952 19.4664 20.9999C19.5648 21.0046 19.6632 20.9898 19.7559 20.9564C19.8486 20.9231 19.9338 20.8718 20.0067 20.8055C20.0796 20.7392 20.1387 20.6592 20.1807 20.57C20.2226 20.4809 20.2466 20.3844 20.2513 20.2859C20.256 20.1875 20.2412 20.0892 20.2078 19.9965C20.1745 19.9037 20.1232 19.8185 20.0569 19.7456L5.055 3.24563ZM12 21C10.7316 20.5781 4.5 18.1238 4.5 10.7644V5.25001H4.84969L16.575 18.1472C15.2818 19.4274 13.7187 20.4022 12 21ZM21 5.25001V10.7597C21 12.6038 20.6503 14.3156 19.9594 15.8494C19.8777 16.0308 19.7273 16.1723 19.5413 16.2428C19.3553 16.3133 19.1489 16.307 18.9675 16.2253C18.7861 16.1436 18.6446 15.9933 18.5741 15.8072C18.5036 15.6212 18.5099 15.4148 18.5916 15.2334C19.1944 13.8947 19.5 12.39 19.5 10.7597V5.25001H9.23625C9.03734 5.25001 8.84657 5.17099 8.70592 5.03034C8.56527 4.88969 8.48625 4.69892 8.48625 4.50001C8.48625 4.3011 8.56527 4.11033 8.70592 3.96968C8.84657 3.82903 9.03734 3.75001 9.23625 3.75001H19.5C19.8978 3.75001 20.2794 3.90804 20.5607 4.18935C20.842 4.47065 21 4.85218 21 5.25001Z" fill="black"/>
</svg>
