<svg width="24" height="24" viewBox="0 0 24 24" fill="none" xmlns="http://www.w3.org/2000/svg">
<path d="M22.4414 6.57199C22.3668 6.33928 22.2247 6.13397 22.0333 5.98208C21.8419 5.8302 21.6096 5.73859 21.366 5.71887L17.8767 5.42356L16.5154 2.25012C16.4193 2.02764 16.2602 1.83816 16.0577 1.70504C15.8553 1.57191 15.6182 1.50098 15.3759 1.50098C15.1336 1.50098 14.8965 1.57191 14.694 1.70504C14.4915 1.83816 14.3324 2.02764 14.2364 2.25012L12.8751 5.42449L9.38479 5.71887C9.14243 5.73834 8.91127 5.82914 8.72045 5.97983C8.52964 6.13052 8.38773 6.33435 8.31262 6.5656C8.23751 6.79684 8.23256 7.04516 8.29841 7.27921C8.36425 7.51327 8.49794 7.72258 8.6826 7.88074L11.3226 10.1307L10.5323 13.4804C10.4767 13.7152 10.4916 13.9612 10.5749 14.1876C10.6583 14.414 10.8065 14.6109 11.001 14.7536C11.1979 14.8981 11.433 14.9814 11.6769 14.9931C11.9209 15.0048 12.1629 14.9443 12.3726 14.8192L15.3726 13.0379L18.3726 14.8192C18.5824 14.9443 18.8243 15.0048 19.0683 14.9931C19.3122 14.9814 19.5473 14.8981 19.7442 14.7536C19.9388 14.6109 20.0871 14.4141 20.1705 14.1877C20.2538 13.9612 20.2686 13.7152 20.2129 13.4804L19.4226 10.1307L22.0617 7.88074C22.2474 7.72469 22.3826 7.51701 22.4502 7.28402C22.5178 7.05103 22.5147 6.80322 22.4414 6.57199ZM18.3295 9.10324C18.1567 9.2496 18.028 9.44099 17.9574 9.65614C17.8869 9.8713 17.8775 10.1018 17.9301 10.322L18.6154 13.2282L16.011 11.6804C15.8188 11.5658 15.5992 11.5053 15.3754 11.5053C15.1516 11.5053 14.932 11.5658 14.7398 11.6804L12.1354 13.2189L12.8207 10.3126C12.8741 10.0925 12.8651 9.86189 12.7947 9.64661C12.7244 9.43134 12.5954 9.23993 12.4223 9.09387L10.1479 7.16074L13.1564 6.90574C13.3796 6.88701 13.5936 6.80782 13.7753 6.67668C13.957 6.54554 14.0995 6.36739 14.1876 6.16137L15.3754 3.39762L16.5604 6.16137C16.6487 6.36727 16.7913 6.54531 16.9729 6.67643C17.1546 6.80754 17.3684 6.88681 17.5917 6.90574L20.6001 7.16074L18.3295 9.10324ZM8.03104 11.7807L2.78104 17.0307C2.64031 17.1715 2.44944 17.2505 2.25042 17.2505C2.05139 17.2505 1.86052 17.1715 1.71979 17.0307C1.57906 16.89 1.5 16.6991 1.5 16.5001C1.5 16.3011 1.57906 16.1102 1.71979 15.9695L6.96979 10.7195C7.11052 10.5788 7.30139 10.4997 7.50042 10.4997C7.69944 10.4997 7.89031 10.5788 8.03104 10.7195C8.17177 10.8602 8.25083 11.0511 8.25083 11.2501C8.25083 11.4491 8.17177 11.64 8.03104 11.7807ZM9.53104 17.0307L4.28104 22.2807C4.21136 22.3504 4.12863 22.4057 4.03759 22.4434C3.94654 22.4811 3.84896 22.5005 3.75042 22.5005C3.65187 22.5005 3.55429 22.4811 3.46324 22.4434C3.3722 22.4057 3.28947 22.3504 3.21979 22.2807C3.15011 22.2111 3.09483 22.1283 3.05712 22.0373C3.01941 21.9462 3 21.8487 3 21.7501C3 21.6516 3.01941 21.554 3.05712 21.4629C3.09483 21.3719 3.15011 21.2892 3.21979 21.2195L8.46979 15.9695C8.61052 15.8288 8.80139 15.7497 9.00042 15.7497C9.19944 15.7497 9.39031 15.8288 9.53104 15.9695C9.67177 16.1102 9.75083 16.3011 9.75083 16.5001C9.75083 16.6991 9.67177 16.89 9.53104 17.0307ZM16.281 15.9695C16.3508 16.0391 16.4061 16.1219 16.4438 16.2129C16.4816 16.304 16.501 16.4016 16.501 16.5001C16.501 16.5987 16.4816 16.6963 16.4438 16.7873C16.4061 16.8784 16.3508 16.9611 16.281 17.0307L11.031 22.2807C10.9614 22.3504 10.8786 22.4057 10.7876 22.4434C10.6965 22.4811 10.599 22.5005 10.5004 22.5005C10.4019 22.5005 10.3043 22.4811 10.2132 22.4434C10.1222 22.4057 10.0395 22.3504 9.96979 22.2807C9.90011 22.2111 9.84483 22.1283 9.80712 22.0373C9.76941 21.9462 9.75 21.8487 9.75 21.7501C9.75 21.6516 9.76941 21.554 9.80712 21.4629C9.84483 21.3719 9.90011 21.2892 9.96979 21.2195L15.2198 15.9695C15.2894 15.8998 15.3722 15.8444 15.4632 15.8067C15.5543 15.769 15.6519 15.7495 15.7504 15.7495C15.849 15.7495 15.9466 15.769 16.0376 15.8067C16.1287 15.8444 16.2114 15.8998 16.281 15.9695Z" fill="black"/>
</svg>
