<svg width="24" height="24" viewBox="0 0 24 24" fill="none" xmlns="http://www.w3.org/2000/svg">
<path d="M22.2806 16.7193C22.3504 16.789 22.4057 16.8717 22.4434 16.9627C22.4812 17.0538 22.5006 17.1514 22.5006 17.2499C22.5006 17.3485 22.4812 17.4461 22.4434 17.5371C22.4057 17.6282 22.3504 17.7109 22.2806 17.7806L20.0306 20.0306C19.8899 20.1713 19.699 20.2503 19.5 20.2503C19.301 20.2503 19.1101 20.1713 18.9694 20.0306C18.8286 19.8898 18.7496 19.699 18.7496 19.4999C18.7496 19.3009 18.8286 19.11 18.9694 18.9693L19.9397 17.9999H16.1362C15.8978 17.9996 15.6629 17.9425 15.4509 17.8333C15.239 17.724 15.0561 17.5658 14.9175 17.3718L7.86375 7.49993H3C2.80109 7.49993 2.61032 7.42091 2.46967 7.28026C2.32902 7.13961 2.25 6.94884 2.25 6.74993C2.25 6.55102 2.32902 6.36025 2.46967 6.2196C2.61032 6.07895 2.80109 5.99993 3 5.99993H7.86375C8.1022 6.00022 8.33714 6.05736 8.54909 6.16659C8.76105 6.27583 8.9439 6.43402 9.0825 6.62805L16.1362 16.4999H19.9397L18.9694 15.5306C18.8286 15.3898 18.7496 15.199 18.7496 14.9999C18.7496 14.8009 18.8286 14.61 18.9694 14.4693C19.1101 14.3286 19.301 14.2495 19.5 14.2495C19.699 14.2495 19.8899 14.3286 20.0306 14.4693L22.2806 16.7193ZM13.4062 10.0312C13.4864 10.0884 13.577 10.1293 13.673 10.1516C13.7689 10.1738 13.8683 10.1769 13.9655 10.1607C14.0626 10.1445 14.1557 10.1093 14.2392 10.0572C14.3228 10.005 14.3953 9.93695 14.4525 9.8568L16.14 7.5018H19.9434L18.9694 8.4693C18.8286 8.61003 18.7496 8.80091 18.7496 8.99993C18.7496 9.19895 18.8286 9.38982 18.9694 9.53055C19.1101 9.67128 19.301 9.75035 19.5 9.75035C19.699 9.75035 19.8899 9.67128 20.0306 9.53055L22.2806 7.28055C22.3504 7.2109 22.4057 7.12818 22.4434 7.03713C22.4812 6.94609 22.5006 6.84849 22.5006 6.74993C22.5006 6.65137 22.4812 6.55377 22.4434 6.46272C22.4057 6.37168 22.3504 6.28896 22.2806 6.2193L20.0306 3.9693C19.8899 3.82857 19.699 3.74951 19.5 3.74951C19.301 3.74951 19.1101 3.82857 18.9694 3.9693C18.8286 4.11003 18.7496 4.30091 18.7496 4.49993C18.7496 4.69895 18.8286 4.88982 18.9694 5.03055L19.9397 5.99993H16.1362C15.8978 6.00022 15.6629 6.05736 15.4509 6.16659C15.239 6.27583 15.0561 6.43402 14.9175 6.62805L13.2328 8.98305C13.1752 9.06321 13.134 9.15394 13.1116 9.25004C13.0891 9.34615 13.0858 9.44575 13.102 9.54312C13.1181 9.64049 13.1532 9.73372 13.2055 9.81748C13.2577 9.90123 13.3259 9.97385 13.4062 10.0312ZM10.5938 13.9687C10.5136 13.9114 10.423 13.8705 10.327 13.8483C10.2311 13.8261 10.1317 13.823 10.0345 13.8392C9.93736 13.8554 9.84434 13.8905 9.76078 13.9427C9.67722 13.9948 9.60475 14.0629 9.5475 14.1431L7.86375 16.4999H3C2.80109 16.4999 2.61032 16.5789 2.46967 16.7196C2.32902 16.8603 2.25 17.051 2.25 17.2499C2.25 17.4488 2.32902 17.6396 2.46967 17.7803C2.61032 17.9209 2.80109 17.9999 3 17.9999H7.86375C8.1022 17.9996 8.33714 17.9425 8.54909 17.8333C8.76105 17.724 8.9439 17.5658 9.0825 17.3718L10.7653 15.0168C10.823 14.9368 10.8643 14.8461 10.8869 14.7501C10.9095 14.6541 10.913 14.5545 10.897 14.4571C10.8811 14.3598 10.8461 14.2665 10.794 14.1827C10.742 14.0989 10.6739 14.0261 10.5938 13.9687Z" fill="black"/>
</svg>
