<svg width="24" height="24" viewBox="0 0 24 24" fill="none" xmlns="http://www.w3.org/2000/svg">
<path d="M12 2.25C10.0716 2.25 8.18657 2.82183 6.58319 3.89317C4.97982 4.96451 3.73013 6.48726 2.99218 8.26884C2.25422 10.0504 2.06114 12.0108 2.43735 13.9021C2.81355 15.7934 3.74215 17.5307 5.10571 18.8943C6.46928 20.2579 8.20656 21.1865 10.0979 21.5627C11.9892 21.9389 13.9496 21.7458 15.7312 21.0078C17.5127 20.2699 19.0355 19.0202 20.1068 17.4168C21.1782 15.8134 21.75 13.9284 21.75 12C21.7473 9.41498 20.7192 6.93661 18.8913 5.10872C17.0634 3.28084 14.585 2.25273 12 2.25ZM12 20.25C10.3683 20.25 8.77326 19.7661 7.41655 18.8596C6.05984 17.9531 5.00242 16.6646 4.378 15.1571C3.75358 13.6496 3.5902 11.9908 3.90853 10.3905C4.22685 8.79016 5.01259 7.32015 6.16637 6.16637C7.32016 5.01259 8.79017 4.22685 10.3905 3.90852C11.9909 3.59019 13.6497 3.75357 15.1571 4.37799C16.6646 5.00242 17.9531 6.05984 18.8596 7.41655C19.7661 8.77325 20.25 10.3683 20.25 12C20.2475 14.1873 19.3775 16.2843 17.8309 17.8309C16.2843 19.3775 14.1873 20.2475 12 20.25ZM17.0306 15.2194C17.1003 15.2891 17.1556 15.3718 17.1933 15.4628C17.231 15.5539 17.2504 15.6515 17.2504 15.75C17.2504 15.8485 17.231 15.9461 17.1933 16.0372C17.1556 16.1282 17.1003 16.2109 17.0306 16.2806C16.9609 16.3503 16.8782 16.4056 16.7872 16.4433C16.6961 16.481 16.5986 16.5004 16.5 16.5004C16.4015 16.5004 16.3039 16.481 16.2128 16.4433C16.1218 16.4056 16.0391 16.3503 15.9694 16.2806L15 15.3103L14.0306 16.2806C13.961 16.3504 13.8783 16.4057 13.7872 16.4434C13.6962 16.4812 13.5986 16.5006 13.5 16.5006C13.4014 16.5006 13.3038 16.4812 13.2128 16.4434C13.1218 16.4057 13.039 16.3504 12.9694 16.2806L12 15.3103L11.0306 16.2806C10.961 16.3504 10.8783 16.4057 10.7872 16.4434C10.6962 16.4812 10.5986 16.5006 10.5 16.5006C10.4014 16.5006 10.3038 16.4812 10.2128 16.4434C10.1218 16.4057 10.039 16.3504 9.96938 16.2806L9 15.3103L8.03063 16.2806C7.8899 16.4214 7.69903 16.5004 7.5 16.5004C7.30098 16.5004 7.11011 16.4214 6.96938 16.2806C6.82865 16.1399 6.74959 15.949 6.74959 15.75C6.74959 15.551 6.82865 15.3601 6.96938 15.2194L8.46938 13.7194C8.53903 13.6496 8.62175 13.5943 8.7128 13.5566C8.80385 13.5188 8.90144 13.4994 9 13.4994C9.09857 13.4994 9.19616 13.5188 9.28721 13.5566C9.37826 13.5943 9.46097 13.6496 9.53063 13.7194L10.5 14.6897L11.4694 13.7194C11.539 13.6496 11.6218 13.5943 11.7128 13.5566C11.8038 13.5188 11.9014 13.4994 12 13.4994C12.0986 13.4994 12.1962 13.5188 12.2872 13.5566C12.3783 13.5943 12.461 13.6496 12.5306 13.7194L13.5 14.6897L14.4694 13.7194C14.539 13.6496 14.6218 13.5943 14.7128 13.5566C14.8038 13.5188 14.9014 13.4994 15 13.4994C15.0986 13.4994 15.1962 13.5188 15.2872 13.5566C15.3783 13.5943 15.461 13.6496 15.5306 13.7194L17.0306 15.2194ZM7.5 10.125C7.5 9.9025 7.56598 9.68499 7.6896 9.49998C7.81322 9.31498 7.98892 9.17078 8.19449 9.08564C8.40005 9.00049 8.62625 8.97821 8.84448 9.02162C9.06271 9.06502 9.26317 9.17217 9.4205 9.3295C9.57783 9.48684 9.68498 9.68729 9.72839 9.90552C9.7718 10.1238 9.74952 10.35 9.66437 10.5555C9.57922 10.7611 9.43503 10.9368 9.25002 11.0604C9.06502 11.184 8.84751 11.25 8.625 11.25C8.32664 11.25 8.04049 11.1315 7.82951 10.9205C7.61853 10.7095 7.5 10.4234 7.5 10.125ZM14.25 10.125C14.25 9.9025 14.316 9.68499 14.4396 9.49998C14.5632 9.31498 14.7389 9.17078 14.9445 9.08564C15.1501 9.00049 15.3763 8.97821 15.5945 9.02162C15.8127 9.06502 16.0132 9.17217 16.1705 9.3295C16.3278 9.48684 16.435 9.68729 16.4784 9.90552C16.5218 10.1238 16.4995 10.35 16.4144 10.5555C16.3292 10.7611 16.185 10.9368 16 11.0604C15.815 11.184 15.5975 11.25 15.375 11.25C15.0766 11.25 14.7905 11.1315 14.5795 10.9205C14.3685 10.7095 14.25 10.4234 14.25 10.125Z" fill="black"/>
</svg>
