<svg width="24" height="24" viewBox="0 0 24 24" fill="none" xmlns="http://www.w3.org/2000/svg">
<path d="M9.75 19.4999C9.75 19.6989 9.67098 19.8896 9.53033 20.0303C9.38968 20.1709 9.19891 20.2499 9 20.2499H4.5C4.30109 20.2499 4.11032 20.1709 3.96967 20.0303C3.82902 19.8896 3.75 19.6989 3.75 19.4999C3.75 19.301 3.82902 19.1103 3.96967 18.9696C4.11032 18.829 4.30109 18.7499 4.5 18.7499H9C9.19891 18.7499 9.38968 18.829 9.53033 18.9696C9.67098 19.1103 9.75 19.301 9.75 19.4999ZM6.75 16.4999C6.75 16.301 6.67098 16.1103 6.53033 15.9696C6.38968 15.829 6.19891 15.7499 6 15.7499H3C2.80109 15.7499 2.61032 15.829 2.46967 15.9696C2.32902 16.1103 2.25 16.301 2.25 16.4999C2.25 16.6989 2.32902 16.8896 2.46967 17.0303C2.61032 17.1709 2.80109 17.2499 3 17.2499H6C6.19891 17.2499 6.38968 17.1709 6.53033 17.0303C6.67098 16.8896 6.75 16.6989 6.75 16.4999ZM24 17.9999V18.7499C24 19.1478 23.842 19.5293 23.5607 19.8106C23.2794 20.0919 22.8978 20.2499 22.5 20.2499H13.8103C13.4148 20.2507 13.0352 20.0946 12.7547 19.8159L2.69813 10.0706L2.68969 10.0621C2.4086 9.78085 2.2507 9.39947 2.2507 9.00182C2.2507 8.60416 2.4086 8.22278 2.68969 7.9415L8.68969 1.93026L8.70375 1.91713C8.98619 1.64503 9.36444 1.49513 9.7566 1.49986C10.1488 1.5046 10.5233 1.6636 10.7991 1.94244L11.5688 2.71869C11.8321 2.98237 11.9878 3.33461 12.0056 3.70682C12.1116 5.85182 13.5994 7.29838 15.8784 7.48213C16.2518 7.51422 16.5997 7.68491 16.8535 7.96062C17.1074 8.23632 17.2488 8.59706 17.25 8.97182V11.2499C17.25 12.0456 17.5661 12.8087 18.1287 13.3713C18.6913 13.9339 19.4544 14.2499 20.25 14.2499C21.2446 14.2499 22.1984 14.645 22.9016 15.3483C23.6049 16.0516 24 17.0054 24 17.9999ZM22.5 17.9999C22.5 17.4032 22.2629 16.8309 21.841 16.409C21.419 15.987 20.8467 15.7499 20.25 15.7499C19.3662 15.751 18.502 15.49 17.7666 14.9999H15C14.8011 14.9999 14.6103 14.9209 14.4697 14.7803C14.329 14.6396 14.25 14.4489 14.25 14.2499C14.25 14.051 14.329 13.8603 14.4697 13.7196C14.6103 13.579 14.8011 13.4999 15 13.4999H16.3556C16.0865 13.0365 15.9029 12.5284 15.8137 11.9999H14.25C14.0511 11.9999 13.8603 11.9209 13.7197 11.7803C13.579 11.6396 13.5 11.4489 13.5 11.2499C13.5 11.051 13.579 10.8603 13.7197 10.7196C13.8603 10.579 14.0511 10.4999 14.25 10.4999H15.75V8.97182C14.3034 8.85369 13.0425 8.31557 12.105 7.41557C11.1309 6.47807 10.5788 5.22088 10.5113 3.77526L9.73781 2.99994L3.75 8.99994L13.8019 18.7406L13.8103 18.7481H22.5V17.9999Z" fill="black"/>
</svg>
