<svg width="24" height="24" viewBox="0 0 24 24" fill="none" xmlns="http://www.w3.org/2000/svg">
<path d="M21.5171 10.5937L15.5705 8.43749L13.4077 2.48437C13.3012 2.1973 13.1093 1.94972 12.8579 1.77489C12.6065 1.60006 12.3077 1.50635 12.0015 1.50635C11.6953 1.50635 11.3964 1.60006 11.145 1.77489C10.8936 1.94972 10.7018 2.1973 10.5952 2.48437L8.43896 8.43093L2.48583 10.5937C2.19877 10.7003 1.95119 10.8922 1.77636 11.1435C1.60152 11.3949 1.50781 11.6938 1.50781 12C1.50781 12.3062 1.60152 12.6051 1.77636 12.8565C1.95119 13.1078 2.19877 13.2997 2.48583 13.4062L8.4324 15.5625L10.5952 21.5156C10.7018 21.8027 10.8936 22.0503 11.145 22.2251C11.3964 22.3999 11.6953 22.4936 12.0015 22.4936C12.3077 22.4936 12.6065 22.3999 12.8579 22.2251C13.1093 22.0503 13.3012 21.8027 13.4077 21.5156L15.5705 15.5681L21.5171 13.4062C21.8041 13.2997 22.0517 13.1078 22.2266 12.8565C22.4014 12.6051 22.4951 12.3062 22.4951 12C22.4951 11.6938 22.4014 11.3949 22.2266 11.1435C22.0517 10.8922 21.8041 10.7003 21.5171 10.5937ZM15.0549 14.1562C14.8497 14.2312 14.6633 14.3501 14.5088 14.5046C14.3543 14.659 14.2355 14.8454 14.1605 15.0506L12.0015 20.9906L9.84521 15.0534C9.77031 14.8474 9.65116 14.6603 9.49615 14.5053C9.34114 14.3503 9.15404 14.2311 8.94802 14.1562L3.01083 12L8.94802 9.84374C9.15404 9.76884 9.34114 9.64969 9.49615 9.49468C9.65116 9.33968 9.77031 9.15258 9.84521 8.94656L12.0015 3.00937L14.1577 8.94656C14.2327 9.15177 14.3515 9.33814 14.506 9.49262C14.6605 9.64711 14.8469 9.76598 15.0521 9.84093L20.9893 11.9972L15.0549 14.1562Z" fill="black"/>
</svg>
