<svg width="24" height="24" viewBox="0 0 24 24" fill="none" xmlns="http://www.w3.org/2000/svg">
<path d="M22.4219 9.121C22.3311 8.84104 22.1599 8.594 21.9297 8.41063C21.6995 8.22726 21.4204 8.11566 21.1272 8.08975L15.5594 7.60974L13.3769 2.41974C13.2633 2.14742 13.0716 1.9148 12.826 1.75117C12.5805 1.58755 12.292 1.50024 11.9969 1.50024C11.7018 1.50024 11.4133 1.58755 11.1678 1.75117C10.9222 1.9148 10.7305 2.14742 10.6169 2.41974L8.44096 7.60974L2.86658 8.09256C2.57224 8.11729 2.29175 8.22838 2.06029 8.41188C1.82883 8.59539 1.65671 8.84315 1.56549 9.1241C1.47428 9.40504 1.46805 9.70666 1.54757 9.99113C1.6271 10.2756 1.78884 10.5303 2.01252 10.7232L6.24158 14.4188L4.97408 19.9069C4.90706 20.1941 4.92618 20.4947 5.02907 20.7711C5.13195 21.0475 5.31402 21.2874 5.55252 21.4609C5.79101 21.6344 6.07536 21.7337 6.37 21.7464C6.66463 21.7592 6.95649 21.6848 7.20908 21.5326L11.9903 18.6263L16.7819 21.5326C17.0345 21.6848 17.3263 21.7592 17.621 21.7464C17.9156 21.7337 18.2 21.6344 18.4385 21.4609C18.677 21.2874 18.859 21.0475 18.9619 20.7711C19.0648 20.4947 19.0839 20.1941 19.0169 19.9069L17.7503 14.4132L21.9785 10.7232C22.2021 10.5296 22.3635 10.2742 22.4424 9.98914C22.5213 9.70406 22.5142 9.40202 22.4219 9.121ZM20.995 9.58974L16.7669 13.2797C16.5611 13.4587 16.408 13.6905 16.3241 13.95C16.2402 14.2095 16.2286 14.487 16.2906 14.7526L17.561 20.2501L12.7731 17.3438C12.5396 17.2016 12.2713 17.1263 11.9978 17.1263C11.7243 17.1263 11.4561 17.2016 11.2225 17.3438L6.44127 20.2501L7.70315 14.7563C7.76516 14.4907 7.75359 14.2132 7.66967 13.9537C7.58576 13.6942 7.43268 13.4625 7.2269 13.2835L2.9969 9.59537C2.99655 9.59257 2.99655 9.58974 2.9969 9.58693L8.5694 9.10506C8.84146 9.08108 9.10181 8.98327 9.32237 8.82219C9.54293 8.6611 9.71533 8.44286 9.82096 8.191L11.9969 3.00756L14.1719 8.191C14.2775 8.44286 14.4499 8.6611 14.6705 8.82219C14.891 8.98327 15.1514 9.08108 15.4235 9.10506L20.9969 9.58693C20.9969 9.58693 20.9969 9.59256 20.9969 9.59349L20.995 9.58974Z" fill="black"/>
</svg>
