<svg width="24" height="24" viewBox="0 0 24 24" fill="none" xmlns="http://www.w3.org/2000/svg">
<path d="M21.9823 10.7232L21.492 11.1563C21.4196 11.2296 21.3328 11.2873 21.2372 11.3256C21.1415 11.3639 21.039 11.3822 20.936 11.3791C20.833 11.3761 20.7317 11.3518 20.6385 11.3079C20.5453 11.264 20.4621 11.2013 20.3942 11.1238C20.3263 11.0464 20.2751 10.9557 20.2437 10.8575C20.2124 10.7594 20.2016 10.6558 20.2121 10.5533C20.2225 10.4508 20.254 10.3515 20.3045 10.2617C20.355 10.1719 20.4235 10.0935 20.5057 10.0313L20.996 9.60287C20.996 9.60287 20.996 9.60287 20.996 9.59631L20.1832 9.52599C20.0847 9.51756 19.9888 9.48981 19.9011 9.44433C19.8133 9.39885 19.7354 9.33652 19.6717 9.26091C19.608 9.18531 19.5598 9.0979 19.5299 9.00368C19.5 8.90946 19.489 8.81027 19.4974 8.71178C19.5059 8.61328 19.5336 8.51742 19.5791 8.42965C19.6246 8.34188 19.6869 8.26394 19.7625 8.20025C19.8381 8.13657 19.9255 8.08841 20.0197 8.05851C20.114 8.02861 20.2131 8.01756 20.3116 8.02599L21.1273 8.09631C21.4218 8.12086 21.7026 8.23189 21.9342 8.41546C22.1659 8.59902 22.3382 8.84694 22.4294 9.12808C22.5206 9.40922 22.5268 9.71105 22.4471 9.99567C22.3674 10.2803 22.2053 10.535 21.9813 10.7279L21.9823 10.7232ZM16.2916 14.7544L16.5598 15.9179C16.5819 16.0138 16.6228 16.1045 16.68 16.1847C16.7372 16.2649 16.8096 16.333 16.8931 16.3852C16.9767 16.4374 17.0696 16.4726 17.1668 16.4889C17.2639 16.5051 17.3633 16.5021 17.4593 16.4799C17.5553 16.4577 17.6459 16.4169 17.7261 16.3597C17.8063 16.3025 17.8744 16.2301 17.9266 16.1465C17.9788 16.063 18.014 15.97 18.0303 15.8729C18.0465 15.7757 18.0435 15.6763 18.0213 15.5804L17.7541 14.4113L18.491 13.7682C18.6409 13.6374 18.7328 13.4524 18.7463 13.2539C18.7599 13.0554 18.694 12.8597 18.5632 12.7097C18.4324 12.5598 18.2474 12.468 18.0489 12.4544C17.8504 12.4409 17.6547 12.5068 17.5048 12.6376L16.7679 13.2816C16.5618 13.4608 16.4085 13.6928 16.3246 13.9527C16.2406 14.2126 16.2293 14.4904 16.2916 14.7563V14.7544ZM12.7479 4.79537V17.326L12.7732 17.3401L13.887 18.0169C14.057 18.1201 14.1791 18.2866 14.2264 18.4799C14.2737 18.6731 14.2423 18.8772 14.1391 19.0472C14.036 19.2173 13.8694 19.3394 13.6762 19.3867C13.483 19.434 13.2789 19.4026 13.1088 19.2994L11.9979 18.6226L7.21664 21.5288C6.96405 21.681 6.67219 21.7554 6.37755 21.7427C6.08291 21.7299 5.79857 21.6306 5.56007 21.4571C5.32157 21.2837 5.1395 21.0437 5.03662 20.7673C4.93374 20.491 4.91462 20.1904 4.98164 19.9032L6.24258 14.4188L2.01351 10.7232C1.78952 10.5303 1.62749 10.2756 1.54777 9.99098C1.46805 9.70636 1.4742 9.40453 1.56545 9.12339C1.65669 8.84225 1.82896 8.59434 2.06062 8.41077C2.29229 8.22721 2.57302 8.11617 2.86758 8.09162L8.44195 7.60974L10.6179 2.41974C10.7315 2.14742 10.9232 1.9148 11.1687 1.75117C11.4143 1.58755 11.7028 1.50024 11.9979 1.50024C12.293 1.50024 12.5815 1.58755 12.827 1.75117C13.0726 1.9148 13.2643 2.14742 13.3779 2.41974L15.5604 7.60974L16.5673 7.69693C16.7662 7.71409 16.9501 7.80956 17.0786 7.96234C17.2072 8.11513 17.2697 8.31271 17.2526 8.51162C17.2354 8.71053 17.1399 8.89448 16.9872 9.023C16.8344 9.15152 16.6368 9.21409 16.4379 9.19693L15.4291 9.10974C15.1571 9.08576 14.8967 8.98796 14.6762 8.82687C14.4556 8.66579 14.2832 8.44755 14.1776 8.19568L12.7479 4.79537ZM11.2226 17.3438L11.2479 17.3297V4.79537L9.82289 8.191C9.71726 8.44286 9.54486 8.6611 9.3243 8.82219C9.10374 8.98327 8.84339 9.08108 8.57133 9.10506L2.99789 9.58599C2.99762 9.58911 2.99762 9.59225 2.99789 9.59537L7.22883 13.2835C7.43444 13.4626 7.58734 13.6944 7.67109 13.9539C7.75484 14.2134 7.76626 14.4908 7.70414 14.7563L6.43664 20.2444L11.2226 17.3438ZM18.7141 18.586C18.6919 18.49 18.651 18.3994 18.5938 18.3192C18.5365 18.2391 18.464 18.171 18.3804 18.1188C18.2969 18.0667 18.2038 18.0315 18.1067 18.0153C18.0095 17.9991 17.9101 18.0022 17.8141 18.0244C17.7182 18.0467 17.6275 18.0876 17.5474 18.1448C17.4672 18.2021 17.3991 18.2746 17.347 18.3581C17.2948 18.4417 17.2596 18.5347 17.2434 18.6319C17.2273 18.7291 17.2304 18.8285 17.2526 18.9244L17.562 20.2501L16.5129 19.6126C16.4287 19.5614 16.3352 19.5273 16.2378 19.5123C16.1405 19.4973 16.0411 19.5016 15.9454 19.5249C15.8496 19.5483 15.7595 19.5903 15.68 19.6485C15.6005 19.7068 15.5333 19.7801 15.4821 19.8643C15.431 19.9485 15.3969 20.0419 15.3819 20.1393C15.3668 20.2367 15.3711 20.3361 15.3945 20.4318C15.4179 20.5275 15.4599 20.6177 15.5181 20.6972C15.5763 20.7767 15.6496 20.8439 15.7338 20.8951L16.7866 21.5344C17.0392 21.6867 17.3311 21.761 17.6257 21.7483C17.9204 21.7355 18.2047 21.6362 18.4432 21.4628C18.6817 21.2893 18.8638 21.0494 18.9667 20.773C19.0695 20.4966 19.0887 20.196 19.0216 19.9088L18.7141 18.586Z" fill="black"/>
</svg>
