<svg width="24" height="24" viewBox="0 0 24 24" fill="none" xmlns="http://www.w3.org/2000/svg">
<path d="M18.8184 3.75H5.18156C4.80204 3.7505 4.43821 3.90148 4.16984 4.16984C3.90148 4.43821 3.7505 4.80204 3.75 5.18156V18.8184C3.7505 19.198 3.90148 19.5618 4.16984 19.8302C4.43821 20.0985 4.80204 20.2495 5.18156 20.25H18.8184C19.198 20.2495 19.5618 20.0985 19.8302 19.8302C20.0985 19.5618 20.2495 19.198 20.25 18.8184V5.18156C20.2495 4.80204 20.0985 4.43821 19.8302 4.16984C19.5618 3.90148 19.198 3.7505 18.8184 3.75ZM18.75 18.75H5.25V5.25H18.75V18.75Z" fill="black"/>
</svg>
