<svg width="24" height="24" viewBox="0 0 24 24" fill="none" xmlns="http://www.w3.org/2000/svg">
<path d="M6.37542 14.25C5.70791 14.25 5.05538 14.4479 4.50037 14.8188C3.94535 15.1896 3.51277 15.7167 3.25732 16.3334C3.00188 16.9501 2.93504 17.6287 3.06527 18.2834C3.19549 18.9381 3.51693 19.5395 3.98893 20.0115C4.46093 20.4835 5.0623 20.8049 5.71699 20.9352C6.37167 21.0654 7.05027 20.9985 7.66697 20.7431C8.28367 20.4876 8.81078 20.0551 9.18163 19.5C9.55248 18.945 9.75042 18.2925 9.75042 17.625C9.75042 16.7299 9.39484 15.8715 8.7619 15.2385C8.12897 14.6056 7.27052 14.25 6.37542 14.25ZM6.37542 19.5C6.00458 19.5 5.64207 19.39 5.33372 19.184C5.02538 18.978 4.78506 18.6851 4.64314 18.3425C4.50123 17.9999 4.4641 17.6229 4.53644 17.2592C4.60879 16.8955 4.78737 16.5614 5.04959 16.2992C5.31182 16.037 5.64591 15.8584 6.00962 15.786C6.37334 15.7137 6.75034 15.7508 7.09295 15.8927C7.43556 16.0346 7.72839 16.275 7.93442 16.5833C8.14045 16.8916 8.25042 17.2542 8.25042 17.625C8.25042 18.1223 8.05287 18.5992 7.70124 18.9508C7.34961 19.3025 6.8727 19.5 6.37542 19.5ZM3.21979 9.96937L4.5651 8.625L3.21979 7.28063C3.07906 7.13989 3 6.94902 3 6.75C3 6.55098 3.07906 6.36011 3.21979 6.21938C3.36052 6.07864 3.55139 5.99958 3.75042 5.99958C3.94944 5.99958 4.14031 6.07864 4.28104 6.21937L5.62542 7.56469L6.96979 6.21937C7.11052 6.07864 7.30139 5.99958 7.50042 5.99958C7.69944 5.99958 7.89031 6.07864 8.03104 6.21938C8.17177 6.36011 8.25083 6.55098 8.25083 6.75C8.25083 6.94902 8.17177 7.13989 8.03104 7.28063L6.68573 8.625L8.03104 9.96937C8.17177 10.1101 8.25083 10.301 8.25083 10.5C8.25083 10.699 8.17177 10.8899 8.03104 11.0306C7.89031 11.1714 7.69944 11.2504 7.50042 11.2504C7.30139 11.2504 7.11052 11.1714 6.96979 11.0306L5.62542 9.68531L4.28104 11.0306C4.14031 11.1714 3.94944 11.2504 3.75042 11.2504C3.55139 11.2504 3.36052 11.1714 3.21979 11.0306C3.07906 10.8899 3 10.699 3 10.5C3 10.301 3.07906 10.1101 3.21979 9.96937ZM20.781 18.9694C20.8507 19.0391 20.906 19.1218 20.9437 19.2128C20.9814 19.3039 21.0008 19.4015 21.0008 19.5C21.0008 19.5985 20.9814 19.6961 20.9437 19.7872C20.906 19.8782 20.8507 19.9609 20.781 20.0306C20.7114 20.1003 20.6286 20.1556 20.5376 20.1933C20.4465 20.231 20.349 20.2504 20.2504 20.2504C20.1519 20.2504 20.0543 20.231 19.9632 20.1933C19.8722 20.1556 19.7895 20.1003 19.7198 20.0306L18.3754 18.6853L17.031 20.0306C16.8903 20.1714 16.6994 20.2504 16.5004 20.2504C16.3014 20.2504 16.1105 20.1714 15.9698 20.0306C15.8291 19.8899 15.75 19.699 15.75 19.5C15.75 19.301 15.8291 19.1101 15.9698 18.9694L17.3151 17.625L15.9698 16.2806C15.8291 16.1399 15.75 15.949 15.75 15.75C15.75 15.551 15.8291 15.3601 15.9698 15.2194C16.1105 15.0786 16.3014 14.9996 16.5004 14.9996C16.6994 14.9996 16.8903 15.0786 17.031 15.2194L18.3754 16.5647L19.7198 15.2194C19.8605 15.0786 20.0514 14.9996 20.2504 14.9996C20.4494 14.9996 20.6403 15.0786 20.781 15.2194C20.9218 15.3601 21.0008 15.551 21.0008 15.75C21.0008 15.949 20.9218 16.1399 20.781 16.2806L19.4357 17.625L20.781 18.9694ZM16.5445 10.5778C15.9651 12.6713 14.1707 14.4806 12.1823 14.9775C12.121 14.9927 12.058 15.0003 11.9948 15C11.8119 14.9997 11.6354 14.9325 11.4986 14.8112C11.3618 14.6898 11.274 14.5227 11.2517 14.3412C11.2295 14.1596 11.2744 13.9762 11.3779 13.8255C11.4814 13.6747 11.6365 13.567 11.8139 13.5225C13.2792 13.1559 14.6592 11.7497 15.0951 10.1775C15.3942 9.09937 15.397 7.45875 13.716 5.78062L13.5004 5.56031V7.5C13.5004 7.69891 13.4214 7.88968 13.2807 8.03033C13.1401 8.17098 12.9493 8.25 12.7504 8.25C12.5515 8.25 12.3607 8.17098 12.2201 8.03033C12.0794 7.88968 12.0004 7.69891 12.0004 7.5V3.75C12.0004 3.55109 12.0794 3.36032 12.2201 3.21967C12.3607 3.07902 12.5515 3 12.7504 3H16.5004C16.6993 3 16.8901 3.07902 17.0307 3.21967C17.1714 3.36032 17.2504 3.55109 17.2504 3.75C17.2504 3.94891 17.1714 4.13968 17.0307 4.28033C16.8901 4.42098 16.6993 4.5 16.5004 4.5H14.5607L14.781 4.71938C16.491 6.43031 17.1173 8.51063 16.5445 10.5778Z" fill="black"/>
</svg>
