<svg width="24" height="24" viewBox="0 0 24 24" fill="none" xmlns="http://www.w3.org/2000/svg">
<path d="M7.50011 16.8751C7.50011 17.0976 7.43413 17.3151 7.31052 17.5001C7.1869 17.6851 7.0112 17.8293 6.80563 17.9144C6.60007 17.9996 6.37387 18.0219 6.15564 17.9785C5.93741 17.935 5.73695 17.8279 5.57962 17.6706C5.42228 17.5132 5.31514 17.3128 5.27173 17.0946C5.22832 16.8763 5.2506 16.6501 5.33575 16.4446C5.4209 16.239 5.56509 16.0633 5.7501 15.9397C5.9351 15.8161 6.15261 15.7501 6.37511 15.7501C6.67348 15.7501 6.95963 15.8686 7.17061 16.0796C7.38159 16.2906 7.50011 16.5767 7.50011 16.8751ZM21.7501 14.6429V19.5001C21.7501 19.8979 21.5921 20.2794 21.3108 20.5607C21.0295 20.842 20.6479 21.0001 20.2501 21.0001H6.37511C6.12562 21.0002 5.87657 20.9789 5.63074 20.9363C4.55827 20.7407 3.60686 20.1284 2.98446 19.2333C2.36206 18.3383 2.11927 17.2333 2.30918 16.1598L4.65293 2.74132C4.68624 2.54743 4.75751 2.36203 4.86265 2.19575C4.96779 2.02946 5.10472 1.88558 5.2656 1.77235C5.42648 1.65911 5.60814 1.57876 5.80014 1.5359C5.99215 1.49304 6.19073 1.48851 6.38449 1.52257L11.5164 2.43757C11.9068 2.50795 12.2535 2.73016 12.4805 3.05556C12.7076 3.38097 12.7964 3.78306 12.7276 4.17383L11.5951 10.6426L17.9523 8.34383C18.325 8.20922 18.7357 8.22753 19.0949 8.39475C19.4541 8.56197 19.7326 8.86451 19.8695 9.23632L21.6564 14.1273C21.7138 14.2933 21.7454 14.4672 21.7501 14.6429ZM8.90636 17.3316L11.2501 3.9132L6.13699 3.00007L3.79324 16.4157C3.67088 17.0981 3.82341 17.8011 4.21755 18.3714C4.61169 18.9417 5.21543 19.333 5.89699 19.4598C6.23063 19.5196 6.57284 19.5125 6.90374 19.439C7.23463 19.3654 7.54761 19.2269 7.82449 19.0313C8.10845 18.8338 8.35032 18.5819 8.53605 18.2901C8.72177 17.9983 8.84765 17.6725 8.90636 17.3316ZM10.1982 18.2813L20.2501 14.6354L18.4614 9.75008L11.297 12.3469L10.3801 17.5894C10.3394 17.8248 10.2785 18.0563 10.1982 18.2813ZM20.2501 16.2301L11.2257 19.5001H20.2501V16.2301Z" fill="black"/>
</svg>
