<svg width="24" height="24" viewBox="0 0 24 24" fill="none" xmlns="http://www.w3.org/2000/svg">
<path d="M20.2477 3H14.2477C14.1329 2.99999 14.0196 3.02636 13.9165 3.07707C13.8135 3.12778 13.7234 3.20149 13.6534 3.2925L7.65337 11.0934L6.74774 10.1897C6.60843 10.0502 6.443 9.93958 6.2609 9.8641C6.07881 9.78861 5.88362 9.74976 5.68649 9.74976C5.48937 9.74976 5.29418 9.78861 5.11208 9.8641C4.92998 9.93958 4.76455 10.0502 4.62524 10.1897L3.43555 11.3803C3.29623 11.5196 3.18571 11.685 3.11031 11.867C3.0349 12.049 2.99609 12.2441 2.99609 12.4411C2.99609 12.6381 3.0349 12.8332 3.11031 13.0152C3.18571 13.1972 3.29623 13.3626 3.43555 13.5019L5.31055 15.3769L2.68555 18.0019C2.54623 18.1412 2.43571 18.3065 2.36031 18.4886C2.2849 18.6706 2.24609 18.8656 2.24609 19.0627C2.24609 19.2597 2.2849 19.4548 2.36031 19.6368C2.43571 19.8188 2.54623 19.9841 2.68555 20.1234L3.87524 21.3122C4.15652 21.5933 4.5379 21.7512 4.93555 21.7512C5.33321 21.7512 5.71459 21.5933 5.99587 21.3122L8.62087 18.6872L10.4959 20.5622C10.6352 20.7017 10.8006 20.8123 10.9827 20.8878C11.1648 20.9633 11.36 21.0021 11.5571 21.0021C11.7542 21.0021 11.9494 20.9633 12.1315 20.8878C12.3136 20.8123 12.4791 20.7017 12.6184 20.5622L13.8081 19.3716C13.9474 19.2323 14.0579 19.0669 14.1333 18.8849C14.2087 18.7029 14.2475 18.5078 14.2475 18.3108C14.2475 18.1138 14.2087 17.9187 14.1333 17.7367C14.0579 17.5547 13.9474 17.3893 13.8081 17.25L12.9043 16.3463L20.7052 10.3463C20.7965 10.276 20.8704 10.1857 20.9211 10.0823C20.9718 9.97887 20.998 9.86517 20.9977 9.75V3.75C20.9977 3.55109 20.9187 3.36032 20.7781 3.21967C20.6374 3.07902 20.4467 3 20.2477 3ZM4.93743 20.25L3.74774 19.0613L6.37274 16.4363L7.56149 17.625L4.93743 20.25ZM11.5571 19.5L4.49774 12.4416L5.68837 11.25L12.7477 18.3103L11.5571 19.5ZM19.4977 9.38062L11.8346 15.2756L10.809 14.25L15.5284 9.53063C15.669 9.38989 15.7479 9.19907 15.7478 9.00014C15.7477 8.8012 15.6686 8.61045 15.5279 8.46984C15.3872 8.32924 15.1963 8.2503 14.9974 8.25038C14.7985 8.25047 14.6077 8.32958 14.4671 8.47031L9.74774 13.1887L8.72306 12.1631L14.6171 4.5H19.4977V9.38062Z" fill="black"/>
</svg>
