<svg width="24" height="24" viewBox="0 0 24 24" fill="none" xmlns="http://www.w3.org/2000/svg">
<path d="M22.2081 2.45538C22.0919 2.35504 21.9505 2.28831 21.7992 2.26237C21.6479 2.23643 21.4923 2.25228 21.3494 2.3082L2.34998 9.74351C2.08071 9.84821 1.85275 10.0376 1.70041 10.283C1.54806 10.5285 1.47959 10.8168 1.50529 11.1046C1.53098 11.3923 1.64947 11.664 1.8429 11.8786C2.03633 12.0932 2.29423 12.2391 2.57779 12.2944L7.5006 13.261V18.7501C7.49963 19.0491 7.58848 19.3414 7.75564 19.5893C7.9228 19.8372 8.16056 20.0292 8.4381 20.1404C8.71522 20.2535 9.01997 20.2807 9.31274 20.2183C9.6055 20.156 9.87272 20.007 10.0797 19.7907L12.4534 17.3288L16.2194 20.6251C16.4911 20.8661 16.8415 20.9994 17.2047 21.0001C17.3638 20.9999 17.522 20.975 17.6734 20.926C17.9209 20.8475 18.1434 20.7055 18.3189 20.5142C18.4944 20.3229 18.6168 20.089 18.6737 19.8357L22.479 3.28132C22.5131 3.13202 22.5058 2.97628 22.4581 2.83078C22.4104 2.68528 22.324 2.55551 22.2081 2.45538ZM16.4762 5.83038L8.07717 11.8454L3.42717 10.9332L16.4762 5.83038ZM9.0006 18.7501V14.2988L11.3247 16.3369L9.0006 18.7501ZM17.2065 19.5001L9.45529 12.7032L20.6115 4.70726L17.2065 19.5001Z" fill="black"/>
</svg>
