<svg width="24" height="24" viewBox="0 0 24 24" fill="none" xmlns="http://www.w3.org/2000/svg">
<path d="M10.9958 12.5625L4.24583 18.5625C4.17197 18.6279 4.08593 18.6782 3.99264 18.7104C3.89936 18.7425 3.80065 18.756 3.70214 18.7501C3.60364 18.7441 3.50728 18.7188 3.41855 18.6756C3.32983 18.6324 3.25049 18.5721 3.18505 18.4983C3.11962 18.4244 3.06937 18.3384 3.03719 18.2451C3.005 18.1518 2.9915 18.0531 2.99747 17.9546C3.00343 17.8561 3.02874 17.7597 3.07194 17.671C3.11515 17.5823 3.1754 17.5029 3.24927 17.4375L9.37302 12L3.25021 6.56249C3.17634 6.49706 3.11608 6.41771 3.07288 6.32899C3.02967 6.24027 3.00437 6.14391 2.9984 6.0454C2.99244 5.9469 3.00594 5.84819 3.03812 5.7549C3.07031 5.66161 3.12056 5.57558 3.18599 5.50171C3.25143 5.42784 3.33077 5.36759 3.41949 5.32438C3.50821 5.28118 3.60458 5.25587 3.70308 5.24991C3.80158 5.24395 3.9003 5.25744 3.99358 5.28963C4.08687 5.32181 4.1729 5.37206 4.24677 5.43749L10.9968 11.4375C11.0766 11.5079 11.1405 11.5944 11.1843 11.6914C11.2281 11.7884 11.2507 11.8936 11.2507 12C11.2507 12.1064 11.2281 12.2116 11.1843 12.3086C11.1405 12.4056 11.0766 12.4921 10.9968 12.5625H10.9958ZM20.248 17.25H11.248C11.0491 17.25 10.8583 17.329 10.7177 17.4697C10.577 17.6103 10.498 17.8011 10.498 18C10.498 18.1989 10.577 18.3897 10.7177 18.5303C10.8583 18.671 11.0491 18.75 11.248 18.75H20.248C20.4469 18.75 20.6377 18.671 20.7784 18.5303C20.919 18.3897 20.998 18.1989 20.998 18C20.998 17.8011 20.919 17.6103 20.7784 17.4697C20.6377 17.329 20.4469 17.25 20.248 17.25Z" fill="black"/>
</svg>
