<svg width="24" height="24" viewBox="0 0 24 24" fill="none" xmlns="http://www.w3.org/2000/svg">
<path d="M14.25 5.25V16.5C14.25 16.6989 14.171 16.8897 14.0303 17.0303C13.8897 17.171 13.6989 17.25 13.5 17.25C13.3011 17.25 13.1103 17.171 12.9697 17.0303C12.829 16.8897 12.75 16.6989 12.75 16.5V11.625H4.5V16.5C4.5 16.6989 4.42098 16.8897 4.28033 17.0303C4.13968 17.171 3.94891 17.25 3.75 17.25C3.55109 17.25 3.36032 17.171 3.21967 17.0303C3.07902 16.8897 3 16.6989 3 16.5V5.25C3 5.05109 3.07902 4.86032 3.21967 4.71967C3.36032 4.57902 3.55109 4.5 3.75 4.5C3.94891 4.5 4.13968 4.57902 4.28033 4.71967C4.42098 4.86032 4.5 5.05109 4.5 5.25V10.125H12.75V5.25C12.75 5.05109 12.829 4.86032 12.9697 4.71967C13.1103 4.57902 13.3011 4.5 13.5 4.5C13.6989 4.5 13.8897 4.57902 14.0303 4.71967C14.171 4.86032 14.25 5.05109 14.25 5.25ZM23.25 15.75H22.5V13.5C22.5 13.3011 22.421 13.1103 22.2803 12.9697C22.1397 12.829 21.9489 12.75 21.75 12.75C21.5511 12.75 21.3603 12.829 21.2197 12.9697C21.079 13.1103 21 13.3011 21 13.5V15.75H18.2906L20.2116 9.98719C20.2745 9.79847 20.2598 9.59249 20.1709 9.41457C20.0819 9.23664 19.9259 9.10134 19.7372 9.03844C19.5485 8.97553 19.3425 8.99017 19.1646 9.07913C18.9866 9.1681 18.8513 9.32409 18.7884 9.51281L16.5384 16.2628C16.5009 16.3756 16.4906 16.4956 16.5085 16.6131C16.5264 16.7306 16.572 16.8421 16.6415 16.9385C16.711 17.035 16.8024 17.1135 16.9082 17.1676C17.014 17.2218 17.1312 17.25 17.25 17.25H21V19.5C21 19.6989 21.079 19.8897 21.2197 20.0303C21.3603 20.171 21.5511 20.25 21.75 20.25C21.9489 20.25 22.1397 20.171 22.2803 20.0303C22.421 19.8897 22.5 19.6989 22.5 19.5V17.25H23.25C23.4489 17.25 23.6397 17.171 23.7803 17.0303C23.921 16.8897 24 16.6989 24 16.5C24 16.3011 23.921 16.1103 23.7803 15.9697C23.6397 15.829 23.4489 15.75 23.25 15.75Z" fill="black"/>
</svg>
