<svg width="24" height="24" viewBox="0 0 24 24" fill="none" xmlns="http://www.w3.org/2000/svg">
<path d="M16.6322 7.55063C16.5195 7.38686 16.4765 7.18508 16.5125 6.9896C16.5486 6.79413 16.6607 6.62096 16.8244 6.50813C17.7994 5.835 19.3256 5.835 20.3006 6.50813C20.7694 6.83344 21.6019 6.83344 22.0744 6.50813C22.2381 6.40409 22.4358 6.36754 22.6259 6.40616C22.816 6.44477 22.9837 6.55555 23.0939 6.71522C23.2041 6.87489 23.2481 7.07104 23.2167 7.26247C23.1853 7.4539 23.081 7.62573 22.9256 7.74188C22.4057 8.07128 21.803 8.24617 21.1875 8.24617C20.572 8.24617 19.9693 8.07128 19.4494 7.74188C18.9806 7.41656 18.1481 7.41656 17.6756 7.74188C17.5946 7.79785 17.5033 7.8373 17.4069 7.85798C17.3106 7.87866 17.2112 7.88016 17.1143 7.8624C17.0174 7.84464 16.9249 7.80796 16.8422 7.75447C16.7595 7.70097 16.6881 7.63171 16.6322 7.55063ZM22.0744 9.50813C21.6056 9.83344 20.7731 9.83344 20.3006 9.50813C19.3256 8.835 17.7994 8.835 16.8244 9.50813C16.7392 9.56223 16.6659 9.63296 16.6087 9.71607C16.5515 9.79919 16.5117 9.89299 16.4916 9.99186C16.4715 10.0907 16.4716 10.1926 16.4918 10.2915C16.512 10.3903 16.552 10.484 16.6093 10.5671C16.6666 10.6501 16.74 10.7207 16.8253 10.7747C16.9105 10.8287 17.0057 10.865 17.1053 10.8813C17.2048 10.8976 17.3067 10.8937 17.4047 10.8697C17.5027 10.8458 17.5948 10.8023 17.6756 10.7419C18.1444 10.4166 18.9769 10.4166 19.4494 10.7419C19.9693 11.0713 20.572 11.2462 21.1875 11.2462C21.803 11.2462 22.4057 11.0713 22.9256 10.7419C23.081 10.6257 23.1853 10.4539 23.2167 10.2625C23.2481 10.071 23.2041 9.87489 23.0939 9.71522C22.9837 9.55555 22.816 9.44477 22.6259 9.40616C22.4358 9.36754 22.2381 9.40409 22.0744 9.50813ZM14.25 17.25C14.2497 17.811 14.0921 18.3608 13.7951 18.8367C13.4981 19.3127 13.0735 19.6958 12.5697 19.9426C12.0659 20.1894 11.5029 20.29 10.9448 20.2329C10.3867 20.1758 9.85574 19.9634 9.41229 19.6197C8.96883 19.2761 8.63064 18.8149 8.43611 18.2887C8.24158 17.7625 8.19851 17.1922 8.31179 16.6427C8.42508 16.0933 8.69017 15.5866 9.07697 15.1802C9.46377 14.7738 9.95678 14.484 10.5 14.3438V4.5C10.5 4.30109 10.579 4.11032 10.7197 3.96967C10.8603 3.82902 11.0511 3.75 11.25 3.75C11.4489 3.75 11.6397 3.82902 11.7803 3.96967C11.921 4.11032 12 4.30109 12 4.5V14.3438C12.6437 14.511 13.2138 14.887 13.621 15.4129C14.0282 15.9388 14.2494 16.5849 14.25 17.25ZM12.75 17.25C12.75 16.9533 12.662 16.6633 12.4972 16.4166C12.3324 16.17 12.0981 15.9777 11.824 15.8642C11.5499 15.7507 11.2483 15.7209 10.9574 15.7788C10.6664 15.8367 10.3991 15.9796 10.1893 16.1893C9.97956 16.3991 9.8367 16.6664 9.77882 16.9574C9.72094 17.2483 9.75065 17.5499 9.86418 17.824C9.97771 18.0981 10.17 18.3324 10.4166 18.4972C10.6633 18.662 10.9533 18.75 11.25 18.75C11.6478 18.75 12.0294 18.592 12.3107 18.3107C12.592 18.0294 12.75 17.6478 12.75 17.25ZM17.25 17.25C17.2494 18.2645 16.9915 19.2624 16.5005 20.1502C16.0094 21.038 15.3013 21.7868 14.4423 22.3265C13.5832 22.8663 12.6014 23.1795 11.5884 23.2367C10.5755 23.2939 9.5646 23.0934 8.65023 22.6538C7.73587 22.2142 6.94791 21.5499 6.36002 20.723C5.77213 19.8962 5.4035 18.9338 5.2886 17.9257C5.17371 16.9177 5.31629 15.897 5.70303 14.9591C6.08976 14.0212 6.70802 13.1966 7.5 12.5625V4.5C7.5 3.50544 7.89509 2.55161 8.59835 1.84835C9.30161 1.14509 10.2554 0.75 11.25 0.75C12.2446 0.75 13.1984 1.14509 13.9017 1.84835C14.6049 2.55161 15 3.50544 15 4.5V12.5625C15.7022 13.1254 16.269 13.8389 16.6584 14.6502C17.0478 15.4616 17.25 16.35 17.25 17.25ZM15.75 17.25C15.7494 16.5245 15.5737 15.8098 15.2378 15.1668C14.9019 14.5237 14.4157 13.9712 13.8206 13.5563C13.7211 13.4868 13.6399 13.3942 13.5841 13.2864C13.5282 13.1786 13.4994 13.0589 13.5 12.9375V4.5C13.5 3.90326 13.2629 3.33097 12.841 2.90901C12.419 2.48705 11.8467 2.25 11.25 2.25C10.6533 2.25 10.081 2.48705 9.65901 2.90901C9.23705 3.33097 9 3.90326 9 4.5V12.9375C9.00001 13.0583 8.97087 13.1772 8.91505 13.2843C8.85923 13.3914 8.77838 13.4834 8.67938 13.5525C8.04439 13.9944 7.53406 14.5926 7.19767 15.2893C6.86127 15.986 6.71017 16.7576 6.75896 17.5298C6.80774 18.3019 7.05476 19.0483 7.47617 19.6972C7.89757 20.346 8.47913 20.8752 9.1647 21.2337C9.85026 21.5922 10.6167 21.7679 11.3899 21.7438C12.1632 21.7198 12.9172 21.4967 13.5792 21.0963C14.2411 20.6959 14.7887 20.1315 15.1689 19.4578C15.5492 18.784 15.7493 18.0236 15.75 17.25Z" fill="black"/>
</svg>
