<svg width="24" height="24" viewBox="0 0 24 24" fill="none" xmlns="http://www.w3.org/2000/svg">
<path d="M22.2955 4.99019C21.709 4.36208 20.9997 3.86127 20.2116 3.51886C19.4234 3.17645 18.5733 2.99976 17.7139 2.99976C16.8546 2.99976 16.0045 3.17645 15.2163 3.51886C14.4282 3.86127 13.7188 4.36208 13.1324 4.99019C12.6807 5.46402 12.3002 6.00086 12.0027 6.58394C11.7066 6.00116 11.3277 5.46433 10.8777 4.99019C10.2912 4.36208 9.5819 3.86127 8.79375 3.51886C8.00559 3.17645 7.15544 2.99976 6.29612 2.99976C5.4368 2.99976 4.58665 3.17645 3.7985 3.51886C3.01034 3.86127 2.30101 4.36208 1.71456 4.99019C1.63139 5.07756 1.57053 5.1837 1.53713 5.29961C1.50374 5.41552 1.49879 5.53778 1.52271 5.65601C1.54663 5.77424 1.59872 5.88495 1.67455 5.97876C1.75038 6.07257 1.84772 6.1467 1.95831 6.19487L7.22143 8.48894C5.50746 8.9472 4.04543 10.067 3.15643 11.6024C2.71042 12.3635 2.42096 13.206 2.30504 14.0805C2.18913 14.955 2.2491 15.8439 2.48143 16.6949C2.51355 16.8135 2.5743 16.9223 2.65834 17.0119C2.74239 17.1015 2.84716 17.1691 2.96344 17.2087C3.07973 17.2484 3.20397 17.2588 3.32524 17.2392C3.44651 17.2195 3.5611 17.1704 3.65893 17.0961L11.2527 11.3136V20.9999C11.2527 21.1988 11.3317 21.3896 11.4724 21.5302C11.613 21.6709 11.8038 21.7499 12.0027 21.7499C12.2016 21.7499 12.3924 21.6709 12.533 21.5302C12.6737 21.3896 12.7527 21.1988 12.7527 20.9999V11.3136L20.3464 17.0961C20.4443 17.1706 20.559 17.2199 20.6803 17.2397C20.8017 17.2594 20.9261 17.249 21.0425 17.2094C21.159 17.1697 21.2638 17.1021 21.3479 17.0124C21.4321 16.9226 21.4928 16.8136 21.5249 16.6949C21.7572 15.8439 21.8172 14.955 21.7013 14.0805C21.5854 13.206 21.2959 12.3635 20.8499 11.6024C19.9607 10.0668 18.4983 8.94697 16.7839 8.48894L22.0546 6.19487C22.1651 6.1467 22.2625 6.07257 22.3383 5.97876C22.4142 5.88495 22.4662 5.77424 22.4902 5.65601C22.5141 5.53778 22.5091 5.41552 22.4757 5.29961C22.4423 5.1837 22.3815 5.07756 22.2983 4.99019H22.2955ZM6.29143 4.49987C6.94729 4.50135 7.59586 4.63739 8.19703 4.89959C8.79819 5.1618 9.33915 5.54458 9.78644 6.02425C10.4548 6.72757 10.9172 7.60087 11.1233 8.54894L3.65893 5.29956C4.43793 4.77828 5.35412 4.49997 6.29143 4.49987ZM3.75268 15.1405C3.71687 14.1647 3.95979 13.1989 4.453 12.3561C4.79775 11.7611 5.25692 11.2403 5.804 10.8237C6.35109 10.4072 6.97526 10.103 7.6405 9.92894C8.0879 9.80958 8.54901 9.74938 9.01206 9.74987C9.52761 9.74983 10.0403 9.82596 10.5336 9.97581L3.75268 15.1405ZM19.5496 12.3561C20.0437 13.1986 20.2876 14.1644 20.2527 15.1405L13.4746 9.97487C14.6079 9.63265 15.8234 9.68139 16.9257 10.1133C18.028 10.5451 18.9531 11.3351 19.5524 12.3561H19.5496ZM12.8821 8.54894C13.0882 7.60087 13.5506 6.72757 14.2189 6.02425C14.6662 5.54458 15.2072 5.1618 15.8083 4.89959C16.4095 4.63739 17.0581 4.50135 17.7139 4.49987C18.6512 4.49997 19.5674 4.77828 20.3464 5.29956L12.8821 8.54894Z" fill="black"/>
</svg>
