<svg width="24" height="24" viewBox="0 0 24 24" fill="none" xmlns="http://www.w3.org/2000/svg">
<path d="M18.5719 5.86862C18.0294 4.57323 17.1161 3.46706 15.9468 2.68911C14.7775 1.91115 13.4044 1.49609 12 1.49609C10.5956 1.49609 9.2225 1.91115 8.05324 2.68911C6.88397 3.46706 5.9707 4.57323 5.42815 5.86862C4.26055 6.40932 3.27106 7.27132 2.57543 8.35379C1.8798 9.43626 1.50678 10.6944 1.50003 11.9811C1.48971 15.6205 4.44003 18.6561 8.07565 18.7499C9.17546 18.7786 10.2655 18.5368 11.25 18.0458V21.7499C11.25 21.9488 11.329 22.1396 11.4697 22.2802C11.6103 22.4209 11.8011 22.4999 12 22.4999C12.1989 22.4999 12.3897 22.4209 12.5304 22.2802C12.671 22.1396 12.75 21.9488 12.75 21.7499V18.0458C13.6817 18.5105 14.7089 18.7515 15.75 18.7499H15.9244C19.56 18.6561 22.5103 15.6224 22.5 11.983C22.4937 10.696 22.1209 9.43734 21.4253 8.35449C20.7296 7.27164 19.7399 6.40937 18.5719 5.86862ZM15.886 17.2499C14.8028 17.2801 13.7372 16.9721 12.8372 16.3686C12.8078 16.3499 12.7788 16.3321 12.75 16.3152V12.463L16.8357 10.4211C16.9238 10.3771 17.0024 10.316 17.067 10.2416C17.1316 10.1671 17.1808 10.0807 17.212 9.9872C17.2432 9.8937 17.2556 9.79498 17.2486 9.69667C17.2416 9.59837 17.2154 9.5024 17.1713 9.41425C17.1272 9.3261 17.0662 9.2475 16.9917 9.18292C16.9173 9.11835 16.8308 9.06907 16.7373 9.03791C16.6439 9.00674 16.5451 8.9943 16.4468 9.00128C16.3485 9.00827 16.2526 9.03455 16.1644 9.07862L12.75 10.7867V8.24988C12.75 8.05096 12.671 7.8602 12.5304 7.71955C12.3897 7.57889 12.1989 7.49988 12 7.49988C11.8011 7.49988 11.6103 7.57889 11.4697 7.71955C11.329 7.8602 11.25 8.05096 11.25 8.24988V13.0367L7.83565 11.3286C7.65763 11.2396 7.45153 11.225 7.2627 11.2879C7.07388 11.3508 6.91779 11.4862 6.82878 11.6643C6.73976 11.8423 6.72512 12.0484 6.78806 12.2372C6.851 12.426 6.98637 12.5821 7.1644 12.6711L11.25 14.713V16.3124C11.2207 16.3292 11.1916 16.3471 11.1628 16.3658C10.263 16.9697 9.19746 17.2787 8.11409 17.2499C6.92836 17.2203 5.78761 16.79 4.87766 16.0292C3.96772 15.2684 3.34221 14.2219 3.10303 13.0602C2.86386 11.8984 3.02512 10.6899 3.56054 9.63158C4.09596 8.57321 4.97399 7.72733 6.05159 7.23175C6.3924 7.0756 6.66186 6.79676 6.80628 6.45081C7.23438 5.42769 7.95538 4.55394 8.87866 3.93943C9.80193 3.32491 10.8863 2.99705 11.9953 2.99705C13.1044 2.99705 14.1888 3.32491 15.112 3.93943C16.0353 4.55394 16.7563 5.42769 17.1844 6.45081C17.3288 6.79676 17.5983 7.0756 17.9391 7.23175C19.0167 7.72733 19.8947 8.57321 20.4301 9.63158C20.9656 10.6899 21.1268 11.8984 20.8876 13.0602C20.6485 14.2219 20.023 15.2684 19.113 16.0292C18.2031 16.79 17.0623 17.2203 15.8766 17.2499H15.886Z" fill="black"/>
</svg>
