<svg width="24" height="24" viewBox="0 0 24 24" fill="none" xmlns="http://www.w3.org/2000/svg">
<path d="M22.5004 12.7499V18.7499C22.5004 18.9488 22.4214 19.1396 22.2807 19.2803C22.1401 19.4209 21.9493 19.4999 21.7504 19.4999H15.7504C15.5515 19.4999 15.3607 19.4209 15.2201 19.2803C15.0794 19.1396 15.0004 18.9488 15.0004 18.7499C15.0004 18.551 15.0794 18.3603 15.2201 18.2196C15.3607 18.0789 15.5515 17.9999 15.7504 17.9999H19.9401L12.7504 10.8102L9.53104 14.0306C9.46139 14.1003 9.37867 14.1556 9.28762 14.1933C9.19657 14.2311 9.09898 14.2505 9.00042 14.2505C8.90186 14.2505 8.80426 14.2311 8.71321 14.1933C8.62216 14.1556 8.53945 14.1003 8.46979 14.0306L1.71979 7.28055C1.57906 7.13982 1.5 6.94895 1.5 6.74993C1.5 6.55091 1.57906 6.36003 1.71979 6.2193C1.86052 6.07857 2.05139 5.99951 2.25042 5.99951C2.44944 5.99951 2.64031 6.07857 2.78104 6.2193L9.00042 12.4396L12.2198 9.2193C12.2894 9.14957 12.3722 9.09425 12.4632 9.05651C12.5543 9.01877 12.6519 8.99934 12.7504 8.99934C12.849 8.99934 12.9466 9.01877 13.0376 9.05651C13.1287 9.09425 13.2114 9.14957 13.281 9.2193L21.0004 16.9396V12.7499C21.0004 12.551 21.0794 12.3603 21.2201 12.2196C21.3607 12.0789 21.5515 11.9999 21.7504 11.9999C21.9493 11.9999 22.1401 12.0789 22.2807 12.2196C22.4214 12.3603 22.5004 12.551 22.5004 12.7499Z" fill="black"/>
</svg>
