<svg width="24" height="24" viewBox="0 0 24 24" fill="none" xmlns="http://www.w3.org/2000/svg">
<path d="M13.4967 14.7826C14.6724 14.0503 15.5776 12.955 16.0754 11.6625C16.5732 10.3699 16.6365 8.95037 16.2557 7.61864C15.8749 6.2869 15.0707 5.11543 13.9648 4.28144C12.8589 3.44746 11.5115 2.99634 10.1264 2.99634C8.74125 2.99634 7.39382 3.44746 6.28793 4.28144C5.18203 5.11543 4.37785 6.2869 3.99703 7.61864C3.61622 8.95037 3.6795 10.3699 4.1773 11.6625C4.6751 12.955 5.58033 14.0503 6.75605 14.7826C4.82011 15.4163 3.07824 16.6004 1.67761 18.2673C1.61199 18.3423 1.56198 18.4297 1.53052 18.5243C1.49906 18.6189 1.48677 18.7188 1.49437 18.8182C1.50198 18.9176 1.52932 19.0145 1.57481 19.1032C1.6203 19.1919 1.68301 19.2707 1.75929 19.3348C1.83556 19.399 1.92387 19.4474 2.01905 19.477C2.11423 19.5067 2.21436 19.5171 2.3136 19.5076C2.41283 19.4981 2.50918 19.4689 2.59701 19.4217C2.68484 19.3746 2.76239 19.3104 2.82511 19.2329C4.70761 16.9867 7.30074 15.7501 10.1217 15.7501C12.9426 15.7501 15.5357 16.9867 17.422 19.2329C17.55 19.3853 17.7334 19.4806 17.9317 19.4979C18.13 19.5151 18.3271 19.4528 18.4795 19.3248C18.6319 19.1967 18.7272 19.0134 18.7444 18.8151C18.7617 18.6167 18.6994 18.4197 18.5714 18.2673C17.1698 16.6004 15.4279 15.4163 13.4967 14.7826ZM5.24667 9.37509C5.24667 8.4109 5.53259 7.46837 6.06826 6.66668C6.60393 5.86499 7.3653 5.24015 8.25609 4.87117C9.14688 4.5022 10.1271 4.40566 11.0727 4.59376C12.0184 4.78186 12.887 5.24616 13.5688 5.92794C14.2506 6.60972 14.7149 7.47836 14.903 8.42402C15.0911 9.36968 14.9946 10.3499 14.6256 11.2407C14.2566 12.1315 13.6318 12.8928 12.8301 13.4285C12.0284 13.9642 11.0859 14.2501 10.1217 14.2501C8.8292 14.2486 7.59009 13.7345 6.67617 12.8206C5.76226 11.9067 5.24816 10.6676 5.24667 9.37509ZM22.8951 13.4129L22.4582 13.1607C22.5095 12.8894 22.5095 12.6108 22.4582 12.3395L22.8951 12.0873C23.0674 11.9878 23.1932 11.824 23.2447 11.6318C23.2962 11.4397 23.2693 11.2349 23.1698 11.0626C23.0703 10.8903 22.9065 10.7645 22.7143 10.713C22.5222 10.6615 22.3174 10.6884 22.1451 10.7879L21.7073 11.041C21.4978 10.8613 21.2569 10.7217 20.9967 10.6295V10.1251C20.9967 9.92618 20.9177 9.73541 20.777 9.59476C20.6364 9.45411 20.4456 9.37509 20.2467 9.37509C20.0478 9.37509 19.857 9.45411 19.7163 9.59476C19.5757 9.73541 19.4967 9.92618 19.4967 10.1251V10.6295C19.2365 10.7217 18.9956 10.8613 18.786 11.041L18.3482 10.7879C18.2629 10.7387 18.1687 10.7067 18.0711 10.6938C17.9734 10.681 17.8742 10.6875 17.779 10.713C17.6839 10.7385 17.5947 10.7825 17.5165 10.8425C17.4384 10.9025 17.3728 10.9773 17.3236 11.0626C17.2743 11.1479 17.2423 11.2421 17.2295 11.3398C17.2167 11.4374 17.2232 11.5367 17.2487 11.6318C17.2742 11.727 17.3182 11.8162 17.3782 11.8943C17.4381 11.9725 17.5129 12.038 17.5982 12.0873L18.0351 12.3395C17.9839 12.6108 17.9839 12.8894 18.0351 13.1607L17.5982 13.4129C17.4259 13.5124 17.3002 13.6762 17.2487 13.8684C17.1972 14.0605 17.2241 14.2653 17.3236 14.4376C17.423 14.6099 17.5868 14.7356 17.779 14.7872C17.9712 14.8387 18.1759 14.8117 18.3482 14.7123L18.786 14.4592C18.9956 14.6389 19.2365 14.7784 19.4967 14.8707V15.3751C19.4967 15.574 19.5757 15.7648 19.7163 15.9054C19.857 16.0461 20.0478 16.1251 20.2467 16.1251C20.4456 16.1251 20.6364 16.0461 20.777 15.9054C20.9177 15.7648 20.9967 15.574 20.9967 15.3751V14.8707C21.2569 14.7784 21.4978 14.6389 21.7073 14.4592L22.1451 14.7123C22.259 14.7784 22.3884 14.813 22.5201 14.8126C22.6853 14.8127 22.8458 14.7582 22.9769 14.6577C23.1079 14.5572 23.2021 14.4162 23.2449 14.2567C23.2876 14.0972 23.2765 13.928 23.2132 13.7754C23.15 13.6228 23.0382 13.4954 22.8951 13.4129ZM19.4967 12.7501C19.4967 12.6018 19.5407 12.4567 19.6231 12.3334C19.7055 12.2101 19.8226 12.1139 19.9597 12.0572C20.0967 12.0004 20.2475 11.9856 20.393 12.0145C20.5385 12.0434 20.6721 12.1149 20.777 12.2198C20.8819 12.3246 20.9533 12.4583 20.9823 12.6038C21.0112 12.7493 20.9964 12.9001 20.9396 13.0371C20.8828 13.1741 20.7867 13.2913 20.6634 13.3737C20.54 13.4561 20.395 13.5001 20.2467 13.5001C20.0478 13.5001 19.857 13.4211 19.7163 13.2804C19.5757 13.1398 19.4967 12.949 19.4967 12.7501Z" fill="black"/>
</svg>
