<svg width="24" height="24" viewBox="0 0 24 24" fill="none" xmlns="http://www.w3.org/2000/svg">
<path d="M23.6034 6.84381C23.4838 6.77971 23.3491 6.74925 23.2135 6.75569C23.078 6.76213 22.9467 6.80522 22.8337 6.88038L19.5 9.0985V6.75006C19.5 6.35224 19.342 5.97071 19.0607 5.6894C18.7794 5.4081 18.3978 5.25006 18 5.25006H10.5994C10.4005 5.25006 10.2097 5.32908 10.069 5.46973C9.92839 5.61039 9.84937 5.80115 9.84937 6.00006C9.84937 6.19898 9.92839 6.38974 10.069 6.53039C10.2097 6.67105 10.4005 6.75006 10.5994 6.75006H18V14.9654C18 15.1643 18.079 15.3551 18.2197 15.4957C18.3603 15.6364 18.5511 15.7154 18.75 15.7154C18.9489 15.7154 19.1397 15.6364 19.2803 15.4957C19.421 15.3551 19.5 15.1643 19.5 14.9654V14.9063L22.8337 17.1291C22.9576 17.2095 23.1024 17.2516 23.25 17.2501C23.4489 17.2501 23.6397 17.171 23.7803 17.0304C23.921 16.8897 24 16.699 24 16.5001V7.50006C23.9991 7.36512 23.9617 7.23293 23.8919 7.11743C23.8221 7.00193 23.7225 6.9074 23.6034 6.84381ZM22.5 15.0985L19.5 13.0988V10.9013L22.5 8.90631V15.0985ZM5.055 3.24569C4.98914 3.17144 4.90919 3.11101 4.8198 3.06789C4.73041 3.02477 4.63335 2.99982 4.53424 2.99449C4.43514 2.98916 4.33596 3.00355 4.24246 3.03683C4.14896 3.07011 4.06299 3.12162 3.98954 3.18837C3.91609 3.25512 3.85662 3.33578 3.81458 3.42568C3.77253 3.51559 3.74875 3.61294 3.74461 3.7121C3.74046 3.81126 3.75604 3.91026 3.79044 4.00336C3.82484 4.09645 3.87738 4.18179 3.945 4.25444L4.84969 5.25006H3C2.60218 5.25006 2.22064 5.4081 1.93934 5.6894C1.65804 5.97071 1.5 6.35224 1.5 6.75006V17.2501C1.5 17.6479 1.65804 18.0294 1.93934 18.3107C2.22064 18.592 2.60218 18.7501 3 18.7501H17.1225L18.945 20.7544C19.0109 20.8287 19.0908 20.8891 19.1802 20.9322C19.2696 20.9754 19.3667 21.0003 19.4658 21.0056C19.5649 21.011 19.664 20.9966 19.7575 20.9633C19.851 20.93 19.937 20.8785 20.0105 20.8118C20.0839 20.745 20.1434 20.6643 20.1854 20.5744C20.2275 20.4845 20.2513 20.3872 20.2554 20.288C20.2595 20.1889 20.244 20.0899 20.2096 19.9968C20.1752 19.9037 20.1226 19.8183 20.055 19.7457L5.055 3.24569ZM3 17.2501V6.75006H6.21375L15.7594 17.2501H3Z" fill="black"/>
</svg>
