<svg width="24" height="24" viewBox="0 0 24 24" fill="none" xmlns="http://www.w3.org/2000/svg">
<path d="M11.5697 9.28125L9.13219 15.2812C9.07598 15.4194 8.97986 15.5376 8.85612 15.6209C8.73238 15.7041 8.58663 15.7486 8.4375 15.7486C8.28837 15.7486 8.14262 15.7041 8.01888 15.6209C7.89514 15.5376 7.79902 15.4194 7.74281 15.2812L5.30531 9.28125C5.26394 9.18924 5.24155 9.08983 5.23949 8.98897C5.23743 8.8881 5.25574 8.78786 5.29333 8.69424C5.33091 8.60062 5.387 8.51554 5.45823 8.4441C5.52946 8.37266 5.61437 8.31633 5.70788 8.27847C5.80139 8.24061 5.90158 8.22201 6.00245 8.22377C6.10332 8.22554 6.20279 8.24763 6.29492 8.28874C6.38705 8.32984 6.46994 8.38911 6.53863 8.463C6.60732 8.53689 6.6604 8.62387 6.69469 8.71875L8.4375 13.0069L10.1803 8.71875C10.2146 8.62387 10.2677 8.53689 10.3364 8.463C10.4051 8.38911 10.4879 8.32984 10.5801 8.28874C10.6722 8.24763 10.7717 8.22554 10.8726 8.22377C10.9734 8.22201 11.0736 8.24061 11.1671 8.27847C11.2606 8.31633 11.3455 8.37266 11.4168 8.4441C11.488 8.51554 11.5441 8.60062 11.5817 8.69424C11.6193 8.78786 11.6376 8.8881 11.6355 8.98897C11.6334 9.08983 11.6111 9.18924 11.5697 9.28125ZM24 12C23.9978 13.9884 23.2069 15.8948 21.8008 17.3008C20.3948 18.7069 18.4884 19.4978 16.5 19.5H7.5C5.51088 19.5 3.60322 18.7098 2.1967 17.3033C0.790176 15.8968 0 13.9891 0 12C0 10.0109 0.790176 8.10322 2.1967 6.6967C3.60322 5.29018 5.51088 4.5 7.5 4.5H16.5C18.4884 4.50223 20.3948 5.29313 21.8008 6.69917C23.2069 8.1052 23.9978 10.0116 24 12ZM22.5 12C22.4983 10.4092 21.8656 8.88412 20.7407 7.75928C19.6159 6.63444 18.0908 6.00174 16.5 6H7.5C5.9087 6 4.38258 6.63214 3.25736 7.75736C2.13214 8.88258 1.5 10.4087 1.5 12C1.5 13.5913 2.13214 15.1174 3.25736 16.2426C4.38258 17.3679 5.9087 18 7.5 18H16.5C18.0908 17.9983 19.6159 17.3656 20.7407 16.2407C21.8656 15.1159 22.4983 13.5908 22.5 12ZM16.9538 12.9703L17.9062 14.625C18.005 14.7978 18.031 15.0027 17.9786 15.1947C17.9262 15.3867 17.7997 15.55 17.6269 15.6488C17.4541 15.7475 17.2491 15.7735 17.0571 15.7211C16.8652 15.6687 16.7018 15.5422 16.6031 15.3694L15.5306 13.4944C15.4809 13.4944 15.4303 13.4991 15.3797 13.4991H14.25V14.9991C14.25 15.198 14.171 15.3887 14.0303 15.5294C13.8897 15.67 13.6989 15.7491 13.5 15.7491C13.3011 15.7491 13.1103 15.67 12.9697 15.5294C12.829 15.3887 12.75 15.198 12.75 14.9991V9C12.75 8.80109 12.829 8.61032 12.9697 8.46967C13.1103 8.32902 13.3011 8.25 13.5 8.25H15.375C15.9251 8.25052 16.4611 8.42382 16.9073 8.74544C17.3536 9.06705 17.6875 9.52072 17.862 10.0424C18.0364 10.564 18.0426 11.1273 17.8797 11.6527C17.7167 12.1781 17.3928 12.639 16.9538 12.9703ZM14.25 12H15.375C15.6734 12 15.9595 11.8815 16.1705 11.6705C16.3815 11.4595 16.5 11.1734 16.5 10.875C16.5 10.5766 16.3815 10.2905 16.1705 10.0795C15.9595 9.86853 15.6734 9.75 15.375 9.75H14.25V12Z" fill="black"/>
</svg>
