<svg width="24" height="24" viewBox="0 0 24 24" fill="none" xmlns="http://www.w3.org/2000/svg">
<g clip-path="url(#clip0_639_7597)">
<path d="M18.7471 6.75C17.7046 6.75096 16.6859 7.06228 15.821 7.64427C14.9561 8.22626 14.284 9.05258 13.8904 10.0179C13.4969 10.9833 13.3996 12.044 13.611 13.0648C13.8225 14.0856 14.333 15.0204 15.0777 15.75H8.91643C9.78581 14.8982 10.3322 13.7708 10.4622 12.5606C10.5921 11.3505 10.2976 10.1327 9.62894 9.11574C8.96027 8.09874 7.95902 7.34568 6.79646 6.98535C5.6339 6.62502 4.38226 6.67982 3.25563 7.14037C2.12901 7.60092 1.1974 8.43861 0.620171 9.51014C0.0429403 10.5817 -0.144052 11.8205 0.0911807 13.0147C0.326413 14.2088 0.969254 15.2842 1.90974 16.0568C2.85023 16.8293 4.02994 17.2511 5.24706 17.25H18.7471C20.1394 17.25 21.4748 16.6969 22.4594 15.7123C23.4439 14.7277 23.9971 13.3924 23.9971 12C23.9971 10.6076 23.4439 9.27226 22.4594 8.28769C21.4748 7.30312 20.1394 6.75 18.7471 6.75ZM1.49706 12C1.49706 11.2583 1.71699 10.5333 2.12905 9.91661C2.5411 9.29993 3.12677 8.81928 3.812 8.53545C4.49722 8.25162 5.25122 8.17736 5.97865 8.32205C6.70608 8.46675 7.37426 8.8239 7.89871 9.34835C8.42315 9.8728 8.78031 10.541 8.925 11.2684C9.0697 11.9958 8.99543 12.7498 8.71161 13.4351C8.42778 14.1203 7.94713 14.706 7.33045 15.118C6.71376 15.5301 5.98874 15.75 5.24706 15.75C4.2525 15.75 3.29867 15.3549 2.59541 14.6517C1.89215 13.9484 1.49706 12.9946 1.49706 12ZM18.7471 15.75C18.0054 15.75 17.2804 15.5301 16.6637 15.118C16.047 14.706 15.5663 14.1203 15.2825 13.4351C14.9987 12.7498 14.9244 11.9958 15.0691 11.2684C15.2138 10.541 15.571 9.8728 16.0954 9.34835C16.6199 8.8239 17.288 8.46675 18.0155 8.32205C18.7429 8.17736 19.4969 8.25162 20.1821 8.53545C20.8673 8.81928 21.453 9.29993 21.8651 9.91661C22.2771 10.5333 22.4971 11.2583 22.4971 12C22.4971 12.9946 22.102 13.9484 21.3987 14.6517C20.6954 15.3549 19.7416 15.75 18.7471 15.75Z" fill="black"/>
</g>
<defs>
<clipPath id="clip0_639_7597">
<rect width="24" height="24" fill="white"/>
</clipPath>
</defs>
</svg>
