<svg width="24" height="24" viewBox="0 0 24 24" fill="none" xmlns="http://www.w3.org/2000/svg">
<path d="M12.0015 6.75005C12.2004 6.75005 12.3912 6.82906 12.5318 6.96972C12.6725 7.11037 12.7515 7.30113 12.7515 7.50005V12.75C12.7515 12.949 12.6725 13.1397 12.5318 13.2804C12.3912 13.421 12.2004 13.5 12.0015 13.5C11.8026 13.5 11.6118 13.421 11.4712 13.2804C11.3305 13.1397 11.2515 12.949 11.2515 12.75V7.50005C11.2515 7.30113 11.3305 7.11037 11.4712 6.96972C11.6118 6.82906 11.8026 6.75005 12.0015 6.75005ZM10.8765 16.125C10.8765 16.3475 10.9425 16.5651 11.0661 16.7501C11.1897 16.9351 11.3654 17.0793 11.571 17.1644C11.7765 17.2496 12.0027 17.2718 12.221 17.2284C12.4392 17.185 12.6397 17.0779 12.797 16.9205C12.9543 16.7632 13.0615 16.5628 13.1049 16.3445C13.1483 16.1263 13.126 15.9001 13.0409 15.6945C12.9557 15.489 12.8115 15.3133 12.6265 15.1896C12.4415 15.066 12.224 15 12.0015 15C11.7031 15 11.417 15.1186 11.206 15.3296C10.995 15.5405 10.8765 15.8267 10.8765 16.125ZM22.5015 12C22.5021 12.1965 22.4636 12.3911 22.3885 12.5726C22.3133 12.7542 22.2029 12.919 22.0637 13.0575L13.059 22.0632C12.778 22.3425 12.3978 22.4994 12.0015 22.4994C11.6052 22.4994 11.225 22.3425 10.944 22.0632L1.944 13.0575C1.66463 12.7765 1.50781 12.3963 1.50781 12C1.50781 11.6038 1.66463 11.2236 1.944 10.9425L10.9487 1.93692C11.2297 1.65755 11.6099 1.50073 12.0062 1.50073C12.4025 1.50073 12.7826 1.65755 13.0637 1.93692L22.0684 10.9425C22.2068 11.0815 22.3163 11.2465 22.3907 11.428C22.465 11.6095 22.5027 11.8039 22.5015 12ZM21.0015 12L12.0015 3.00005L3.0015 12L12.0015 21L21.0015 12Z" fill="black"/>
</svg>
