<svg width="24" height="24" viewBox="0 0 24 24" fill="none" xmlns="http://www.w3.org/2000/svg">
<path d="M3.217 7.2825C3.14699 7.21281 3.09143 7.12998 3.05352 7.03876C3.01561 6.94753 2.99609 6.84972 2.99609 6.75094C2.99609 6.65215 3.01561 6.55434 3.05352 6.46312C3.09143 6.3719 3.14699 6.28906 3.217 6.21937C3.28919 6.14906 4.97669 4.5 8.24856 4.5C9.97544 4.5 11.2711 5.36344 12.4148 6.12562C13.4742 6.8325 14.4754 7.5 15.7486 7.5C16.7765 7.51534 17.7944 7.29637 18.7251 6.85969C19.0861 6.69316 19.4216 6.47632 19.7217 6.21563C19.7916 6.14625 19.8745 6.09133 19.9657 6.05399C20.0568 6.01666 20.1544 5.99765 20.253 5.99804C20.3515 5.99843 20.4489 6.01822 20.5398 6.05628C20.6306 6.09433 20.7131 6.14991 20.7825 6.21984C20.8518 6.28977 20.9068 6.37268 20.9441 6.46384C20.9814 6.55499 21.0004 6.65261 21.0001 6.75111C20.9997 6.84961 20.9799 6.94707 20.9418 7.03793C20.9038 7.12878 20.8482 7.21125 20.7782 7.28063C20.7079 7.35094 19.0204 9 15.7486 9C14.0217 9 12.7261 8.13656 11.5823 7.37438C10.5229 6.6675 9.52169 6 8.24856 6C7.22063 5.98466 6.2027 6.20363 5.272 6.64031C4.91105 6.80684 4.57552 7.02368 4.27544 7.28437C4.13463 7.4241 3.9442 7.50235 3.74583 7.502C3.54746 7.50165 3.35731 7.42272 3.217 7.2825ZM19.7217 11.4656C19.4216 11.7263 19.0861 11.9432 18.7251 12.1097C17.7944 12.5464 16.7765 12.7653 15.7486 12.75C14.4754 12.75 13.4742 12.0825 12.4148 11.3756C11.2711 10.6134 9.97544 9.75 8.24856 9.75C4.97669 9.75 3.28919 11.3991 3.21887 11.4694C3.07765 11.6095 2.99786 11.8 2.99707 11.9989C2.99628 12.1978 3.07455 12.3889 3.21466 12.5302C3.35476 12.6714 3.54524 12.7512 3.74417 12.752C3.94311 12.7528 4.13421 12.6745 4.27544 12.5344C4.57552 12.2737 4.91105 12.0568 5.272 11.8903C6.2027 11.4536 7.22063 11.2347 8.24856 11.25C9.52169 11.25 10.5229 11.9175 11.5823 12.6244C12.7261 13.3866 14.0198 14.25 15.7486 14.25C19.0204 14.25 20.7079 12.6009 20.7782 12.5306C20.8482 12.4613 20.9038 12.3788 20.9418 12.2879C20.9799 12.1971 20.9997 12.0996 21.0001 12.0011C21.0004 11.9026 20.9814 11.805 20.9441 11.7138C20.9068 11.6227 20.8518 11.5398 20.7825 11.4698C20.7131 11.3999 20.6306 11.3443 20.5398 11.3063C20.4489 11.2682 20.3515 11.2484 20.253 11.248C20.1544 11.2476 20.0568 11.2667 19.9657 11.304C19.8745 11.3413 19.7916 11.3963 19.7217 11.4656ZM19.7217 16.7156C19.4216 16.9763 19.0861 17.1932 18.7251 17.3597C17.7944 17.7964 16.7765 18.0153 15.7486 18C14.4754 18 13.4742 17.3325 12.4148 16.6256C11.2711 15.8634 9.97544 15 8.24856 15C4.97669 15 3.28919 16.6491 3.21887 16.7194C3.07765 16.8595 2.99786 17.05 2.99707 17.2489C2.99628 17.4478 3.07455 17.6389 3.21466 17.7802C3.35476 17.9214 3.54524 18.0012 3.74417 18.002C3.94311 18.0028 4.13421 17.9245 4.27544 17.7844C4.57552 17.5237 4.91105 17.3068 5.272 17.1403C6.2027 16.7036 7.22063 16.4847 8.24856 16.5C9.52169 16.5 10.5229 17.1675 11.5823 17.8744C12.7261 18.6366 14.0198 19.5 15.7486 19.5C19.0204 19.5 20.7079 17.8509 20.7782 17.7806C20.9195 17.6405 20.9993 17.45 21.0001 17.2511C21.0008 17.0522 20.9226 16.8611 20.7825 16.7198C20.6424 16.5786 20.4519 16.4988 20.253 16.498C20.054 16.4972 19.8629 16.5755 19.7217 16.7156Z" fill="black"/>
</svg>
