<svg width="24" height="24" viewBox="0 0 24 24" fill="none" xmlns="http://www.w3.org/2000/svg">
<path d="M22.3554 12.4387L17.4804 19.1887C17.411 19.2855 17.3195 19.3644 17.2135 19.4188C17.1076 19.4731 16.9902 19.5015 16.871 19.5015C16.7519 19.5015 16.6345 19.4731 16.5286 19.4188C16.4226 19.3644 16.3311 19.2855 16.2617 19.1887L7.12292 6.53061L2.85636 12.4369C2.79874 12.5169 2.72593 12.5848 2.64207 12.6367C2.55822 12.6885 2.46496 12.7234 2.36764 12.7392C2.27031 12.7551 2.17081 12.7516 2.07483 12.729C1.97885 12.7064 1.88826 12.6651 1.80824 12.6075C1.72821 12.5499 1.66032 12.4771 1.60844 12.3932C1.55655 12.3093 1.52169 12.2161 1.50585 12.1188C1.49001 12.0214 1.49349 11.9219 1.51609 11.826C1.5387 11.73 1.57999 11.6394 1.63761 11.5594L6.51261 4.80936C6.58205 4.71258 6.67354 4.63373 6.77951 4.57934C6.88547 4.52495 7.00287 4.49658 7.12199 4.49658C7.2411 4.49658 7.3585 4.52495 7.46447 4.57934C7.57043 4.63373 7.66192 4.71258 7.73136 4.80936L16.8729 17.4656L21.1395 11.5594C21.1971 11.4793 21.2699 11.4114 21.3538 11.3596C21.4376 11.3077 21.5309 11.2728 21.6282 11.257C21.7255 11.2411 21.825 11.2446 21.921 11.2672C22.017 11.2898 22.1076 11.3311 22.1876 11.3887C22.2676 11.4464 22.3355 11.5192 22.3874 11.603C22.4393 11.6869 22.4742 11.7801 22.49 11.8775C22.5058 11.9748 22.5024 12.0743 22.4798 12.1703C22.4571 12.2662 22.4159 12.3568 22.3582 12.4369L22.3554 12.4387Z" fill="black"/>
</svg>
