<svg width="24" height="24" viewBox="0 0 24 24" fill="none" xmlns="http://www.w3.org/2000/svg">
<path d="M16.7033 17.2499H10.4371C10.3236 17.9216 10.059 18.5589 9.66335 19.1135C9.26769 19.6681 8.75127 20.1256 8.15303 20.4516C7.55479 20.7775 6.89034 20.9634 6.20981 20.9952C5.52927 21.0269 4.8504 20.9038 4.22439 20.6349C3.59839 20.3661 3.0416 19.9587 2.596 19.4433C2.1504 18.928 1.82764 18.3182 1.65204 17.6599C1.47644 17.0017 1.4526 16.3121 1.58231 15.6433C1.71203 14.9745 1.9919 14.3438 2.40084 13.7989C2.46 13.7202 2.53409 13.6538 2.6189 13.6036C2.70371 13.5535 2.79756 13.5205 2.89511 13.5066C2.99265 13.4927 3.09198 13.4982 3.18741 13.5227C3.28284 13.5472 3.37252 13.5903 3.45131 13.6494C3.5301 13.7086 3.59647 13.7827 3.64663 13.8675C3.69679 13.9523 3.72975 14.0461 3.74363 14.1437C3.75752 14.2412 3.75206 14.3406 3.72756 14.436C3.70305 14.5314 3.66 14.6211 3.60084 14.6999C3.20947 15.2182 2.99872 15.8504 3.00084 16.4999C3.00084 17.2955 3.31691 18.0586 3.87952 18.6212C4.44213 19.1838 5.20519 19.4999 6.00084 19.4999C6.79649 19.4999 7.55955 19.1838 8.12216 18.6212C8.68477 18.0586 9.00084 17.2955 9.00084 16.4999C9.00084 16.301 9.07986 16.1102 9.22051 15.9696C9.36116 15.8289 9.55193 15.7499 9.75084 15.7499H16.7033C16.8684 15.4639 17.1233 15.2404 17.4284 15.1141C17.7334 14.9877 18.0717 14.9655 18.3906 15.051C18.7096 15.1365 18.9914 15.3248 19.1924 15.5867C19.3934 15.8487 19.5024 16.1697 19.5024 16.4999C19.5024 16.8301 19.3934 17.1511 19.1924 17.413C18.9914 17.675 18.7096 17.8633 18.3906 17.9488C18.0717 18.0342 17.7334 18.0121 17.4284 17.8857C17.1233 17.7593 16.8684 17.5358 16.7033 17.2499ZM6.00084 17.9999C6.26064 18 6.51601 17.9326 6.74194 17.8043C6.96787 17.6761 7.15661 17.4913 7.28967 17.2682C7.42274 17.045 7.49557 16.7912 7.50104 16.5314C7.5065 16.2717 7.44441 16.015 7.32084 15.7864L10.6743 10.3358C10.7784 10.1665 10.8109 9.96273 10.7649 9.76937C10.7188 9.576 10.5979 9.40883 10.4287 9.30457C10.0278 9.05779 9.69061 8.72013 9.44441 8.3189C9.1982 7.91768 9.04987 7.46414 9.01141 6.99497C8.97295 6.5258 9.04544 6.05416 9.22302 5.6182C9.40059 5.18223 9.67827 4.79417 10.0336 4.4854C10.3889 4.17662 10.8119 3.9558 11.2684 3.84079C11.7249 3.72577 12.202 3.7198 12.6612 3.82334C13.1205 3.92688 13.5489 4.13703 13.9118 4.43681C14.2748 4.73658 14.5621 5.11757 14.7505 5.54895C14.8301 5.73133 14.9788 5.87463 15.1641 5.94733C15.3493 6.02003 15.5558 6.01617 15.7382 5.9366C15.9206 5.85704 16.0639 5.70828 16.1366 5.52306C16.2093 5.33784 16.2054 5.13133 16.1258 4.94895C15.8557 4.33135 15.4502 3.78234 14.9394 3.34247C14.4286 2.9026 13.8255 2.58312 13.1746 2.40762C12.5237 2.23212 11.8418 2.20509 11.1791 2.32853C10.5163 2.45196 9.88984 2.72271 9.34581 3.12077C8.80178 3.51882 8.35413 4.03402 8.03593 4.6283C7.71773 5.22258 7.53711 5.88076 7.50742 6.55421C7.47772 7.22766 7.59971 7.89918 7.86436 8.51916C8.12902 9.13914 8.52958 9.69174 9.03647 10.1361L6.04209 14.9999C6.02803 14.9999 6.0149 14.9999 6.00084 14.9999C5.60302 14.9999 5.22149 15.1579 4.94018 15.4392C4.65888 15.7205 4.50084 16.1021 4.50084 16.4999C4.50084 16.8977 4.65888 17.2792 4.94018 17.5605C5.22149 17.8418 5.60302 17.9999 6.00084 17.9999ZM18.0008 11.9999C17.4226 11.9999 16.8497 12.111 16.3133 12.3271L13.3208 7.46239C13.4768 7.17343 13.5337 6.84128 13.4827 6.5169C13.4317 6.19252 13.2756 5.89384 13.0385 5.6667C12.8014 5.43955 12.4963 5.29648 12.17 5.25945C11.8437 5.22242 11.5143 5.29348 11.2324 5.46171C10.9504 5.62995 10.7314 5.88606 10.609 6.19076C10.4866 6.49546 10.4675 6.8319 10.5548 7.14846C10.642 7.46502 10.8308 7.7442 11.092 7.94316C11.3532 8.14213 11.6725 8.24988 12.0008 8.24989H12.0421L15.3965 13.7014C15.5009 13.8705 15.6681 13.9913 15.8615 14.0371C16.0548 14.083 16.2585 14.0503 16.4277 13.9461C16.8226 13.7027 17.2685 13.5542 17.7305 13.5122C18.1924 13.4702 18.6578 13.5359 19.0901 13.7042C19.5224 13.8724 19.9098 14.1386 20.2218 14.4818C20.5338 14.8251 20.762 15.236 20.8884 15.6823C21.0149 16.1286 21.0361 16.5981 20.9504 17.054C20.8647 17.5099 20.6745 17.9397 20.3946 18.3097C20.1148 18.6796 19.753 18.9796 19.3376 19.1862C18.9223 19.3927 18.4647 19.5001 18.0008 19.4999C17.8019 19.4999 17.6112 19.5789 17.4705 19.7196C17.3299 19.8602 17.2508 20.051 17.2508 20.2499C17.2508 20.4488 17.3299 20.6396 17.4705 20.7802C17.6112 20.9209 17.8019 20.9999 18.0008 20.9999C19.1943 20.9999 20.3389 20.5258 21.1828 19.6819C22.0267 18.838 22.5008 17.6934 22.5008 16.4999C22.5008 15.3064 22.0267 14.1618 21.1828 13.3179C20.3389 12.474 19.1943 11.9999 18.0008 11.9999Z" fill="black"/>
</svg>
