<svg width="24" height="24" viewBox="0 0 24 24" fill="none" xmlns="http://www.w3.org/2000/svg">
<path d="M20.0564 19.7457C20.1241 19.8183 20.1766 19.9037 20.211 19.9968C20.2454 20.0899 20.261 20.1889 20.2568 20.288C20.2527 20.3872 20.2289 20.4845 20.1869 20.5744C20.1448 20.6643 20.0854 20.745 20.0119 20.8118C19.9385 20.8785 19.8525 20.93 19.759 20.9633C19.6655 20.9966 19.5663 21.011 19.4672 21.0056C19.3681 21.0003 19.271 20.9754 19.1816 20.9322C19.0923 20.8891 19.0123 20.8287 18.9464 20.7544L14.0714 15.3966C13.1898 15.0468 12.2341 14.9256 11.2931 15.0443C10.3521 15.163 9.4564 15.5177 8.68926 16.0754C8.6098 16.1354 8.51917 16.179 8.42267 16.2037C8.32617 16.2283 8.22573 16.2335 8.12721 16.2189C8.02868 16.2043 7.93405 16.1703 7.84883 16.1187C7.76362 16.0672 7.68953 15.9992 7.63088 15.9187C7.57223 15.8382 7.5302 15.7468 7.50725 15.6499C7.4843 15.5529 7.48088 15.4524 7.49719 15.3542C7.51351 15.2559 7.54923 15.1619 7.60227 15.0776C7.65531 14.9933 7.72461 14.9204 7.80613 14.8632C9.02345 13.9731 10.4934 13.4955 12.0014 13.5001C12.1214 13.5001 12.2405 13.5001 12.3596 13.5094L9.83582 10.7335C8.3335 11.0631 6.92601 11.7306 5.72019 12.6854C5.64287 12.747 5.55413 12.7926 5.45909 12.8198C5.36404 12.847 5.26456 12.8551 5.16637 12.8437C5.06818 12.8323 4.97322 12.8015 4.88694 12.7533C4.80066 12.7051 4.72477 12.6402 4.66363 12.5626C4.54001 12.4071 4.48313 12.2089 4.50545 12.0115C4.52777 11.8142 4.62748 11.6337 4.78269 11.5098C5.9451 10.5903 7.27227 9.90112 8.69301 9.47913L6.50488 7.06881C5.13927 7.62346 3.86571 8.38209 2.72769 9.31881C2.65136 9.38136 2.56346 9.42825 2.46901 9.45682C2.37455 9.48539 2.27539 9.49508 2.1772 9.48533C2.079 9.47558 1.98368 9.44658 1.89669 9.4C1.8097 9.35341 1.73273 9.29014 1.67019 9.21381C1.60765 9.13748 1.56076 9.04958 1.53218 8.95513C1.50361 8.86067 1.49393 8.76152 1.50368 8.66332C1.52337 8.465 1.62104 8.28262 1.77519 8.15631C2.88968 7.2414 4.12193 6.48023 5.43894 5.89319L3.94644 4.25444C3.87882 4.18179 3.82628 4.09645 3.79188 4.00336C3.75749 3.91026 3.74191 3.81126 3.74605 3.7121C3.75019 3.61294 3.77397 3.51559 3.81602 3.42568C3.85806 3.33578 3.91753 3.25512 3.99098 3.18837C4.06443 3.12162 4.1504 3.07011 4.2439 3.03683C4.3374 3.00355 4.43658 2.98916 4.53569 2.99449C4.63479 2.99982 4.73185 3.02477 4.82124 3.06789C4.91063 3.11101 4.99058 3.17144 5.05644 3.24569L20.0564 19.7457ZM12.0014 18.0001C11.7789 18.0001 11.5614 18.066 11.3764 18.1897C11.1914 18.3133 11.0472 18.489 10.9621 18.6945C10.8769 18.9001 10.8547 19.1263 10.8981 19.3445C10.9415 19.5628 11.0486 19.7632 11.2059 19.9206C11.3633 20.0779 11.5637 20.185 11.782 20.2284C12.0002 20.2719 12.2264 20.2496 12.432 20.1644C12.6375 20.0793 12.8132 19.9351 12.9368 19.7501C13.0605 19.5651 13.1264 19.3476 13.1264 19.1251C13.1264 18.8267 13.0079 18.5405 12.7969 18.3296C12.586 18.1186 12.2998 18.0001 12.0014 18.0001ZM22.2277 8.15631C20.527 6.7635 18.5599 5.73246 16.4469 5.12635C14.3339 4.52023 12.1193 4.35178 9.93894 4.63131C9.83948 4.64147 9.74304 4.6714 9.65532 4.71937C9.56759 4.76733 9.49033 4.83235 9.4281 4.91061C9.36587 4.98886 9.31991 5.07877 9.29293 5.17504C9.26594 5.27132 9.25848 5.37201 9.27099 5.47121C9.28349 5.57041 9.3157 5.66611 9.36572 5.75268C9.41575 5.83925 9.48257 5.91494 9.56228 5.97531C9.64198 6.03568 9.73295 6.0795 9.82984 6.10419C9.92672 6.12889 10.0276 6.13397 10.1264 6.11913C10.7483 6.03988 11.3746 6.00012 12.0014 6.00006C15.3828 6.00191 18.6593 7.17348 21.2752 9.316C21.429 9.44231 21.6266 9.50236 21.8247 9.48293C22.0228 9.4635 22.205 9.36619 22.3313 9.21241C22.4576 9.05862 22.5176 8.86096 22.4982 8.6629C22.4788 8.46485 22.3815 8.28262 22.2277 8.15631ZM18.2827 12.6854C18.3599 12.7466 18.4484 12.792 18.5431 12.819C18.6378 12.846 18.737 12.854 18.8348 12.8427C18.9327 12.8314 19.0273 12.8009 19.1134 12.753C19.1995 12.7051 19.2753 12.6407 19.3364 12.5635C19.3976 12.4863 19.443 12.3978 19.47 12.3031C19.497 12.2084 19.5051 12.1092 19.4938 12.0114C19.4825 11.9135 19.452 11.8189 19.4041 11.7328C19.3562 11.6467 19.2918 11.5709 19.2146 11.5098C17.7961 10.3872 16.1357 9.61043 14.3649 9.241C14.2674 9.21859 14.1665 9.2159 14.0679 9.23308C13.9694 9.25026 13.8753 9.28697 13.7912 9.34105C13.7071 9.39513 13.6346 9.46549 13.5781 9.54798C13.5216 9.63048 13.4821 9.72344 13.4621 9.82141C13.442 9.91938 13.4417 10.0204 13.4613 10.1185C13.4808 10.2165 13.5198 10.3097 13.5758 10.3925C13.6319 10.4753 13.704 10.5461 13.7878 10.6006C13.8716 10.6551 13.9655 10.6923 14.0639 10.7101C15.6045 11.0321 17.0489 11.7084 18.2827 12.6854Z" fill="black"/>
</svg>
