<svg width="24" height="24" viewBox="0 0 24 24" fill="none" xmlns="http://www.w3.org/2000/svg">
<path d="M21.531 9.2193C21.6007 9.28899 21.6559 9.37171 21.6936 9.46276C21.7314 9.5538 21.7508 9.65138 21.7508 9.74993C21.7508 9.84847 21.7314 9.94606 21.6936 10.0371C21.6559 10.1281 21.6007 10.2109 21.531 10.2806C21.4613 10.3502 21.3786 10.4055 21.2875 10.4432C21.1965 10.4809 21.0989 10.5003 21.0004 10.5003C20.9018 10.5003 20.8042 10.4809 20.7132 10.4432C20.6221 10.4055 20.5394 10.3502 20.4697 10.2806L18.7504 8.56024L17.031 10.2806C16.8902 10.4213 16.6994 10.5003 16.5004 10.5003C16.3013 10.5003 16.1105 10.4213 15.9697 10.2806C15.829 10.1398 15.7499 9.94895 15.7499 9.74993C15.7499 9.55091 15.829 9.36003 15.9697 9.2193L17.69 7.49993L15.9697 5.78055C15.9 5.71087 15.8448 5.62815 15.8071 5.5371C15.7693 5.44606 15.7499 5.34847 15.7499 5.24993C15.7499 5.15138 15.7693 5.0538 15.8071 4.96276C15.8448 4.87171 15.9 4.78899 15.9697 4.7193C16.1105 4.57857 16.3013 4.49951 16.5004 4.49951C16.5989 4.49951 16.6965 4.51892 16.7875 4.55663C16.8786 4.59435 16.9613 4.64962 17.031 4.7193L18.7504 6.43962L20.4697 4.7193C20.5394 4.64962 20.6221 4.59435 20.7132 4.55663C20.8042 4.51892 20.9018 4.49951 21.0004 4.49951C21.0989 4.49951 21.1965 4.51892 21.2875 4.55663C21.3786 4.59435 21.4613 4.64962 21.531 4.7193C21.6007 4.78899 21.6559 4.87171 21.6936 4.96276C21.7314 5.0538 21.7508 5.15138 21.7508 5.24993C21.7508 5.34847 21.7314 5.44606 21.6936 5.5371C21.6559 5.62815 21.6007 5.71087 21.531 5.78055L19.8107 7.49993L21.531 9.2193ZM12.0004 17.9999C11.7779 17.9999 11.5603 18.0659 11.3753 18.1895C11.1903 18.3131 11.0461 18.4888 10.961 18.6944C10.8758 18.9 10.8536 19.1262 10.897 19.3444C10.9404 19.5626 11.0475 19.7631 11.2049 19.9204C11.3622 20.0778 11.5626 20.1849 11.7809 20.2283C11.9991 20.2717 12.2253 20.2494 12.4309 20.1643C12.6364 20.0791 12.8121 19.935 12.9358 19.7499C13.0594 19.5649 13.1254 19.3474 13.1254 19.1249C13.1254 18.8266 13.0068 18.5404 12.7958 18.3294C12.5849 18.1185 12.2987 17.9999 12.0004 17.9999ZM16.1919 14.8621C14.9737 13.9767 13.5064 13.4999 12.0004 13.4999C10.4944 13.4999 9.02704 13.9767 7.80879 14.8621C7.64792 14.9792 7.54016 15.1554 7.50922 15.352C7.47827 15.5486 7.52668 15.7494 7.64379 15.9102C7.7609 16.0711 7.93712 16.1789 8.13368 16.2098C8.33024 16.2408 8.53105 16.1924 8.69192 16.0752C9.65334 15.376 10.8116 14.9994 12.0004 14.9994C13.1891 14.9994 14.3474 15.376 15.3088 16.0752C15.3884 16.1332 15.4787 16.175 15.5745 16.198C15.6703 16.2211 15.7697 16.2251 15.867 16.2098C15.9644 16.1945 16.0577 16.1602 16.1418 16.1088C16.2258 16.0574 16.2989 15.9899 16.3569 15.9102C16.4149 15.8306 16.4566 15.7403 16.4797 15.6445C16.5028 15.5487 16.5068 15.4493 16.4915 15.352C16.4762 15.2547 16.4418 15.1613 16.3904 15.0773C16.339 14.9932 16.2716 14.9201 16.1919 14.8621ZM13.4282 6.06837C13.5276 6.08067 13.6285 6.07293 13.7248 6.0456C13.8212 6.01828 13.9111 5.97192 13.9893 5.90928C14.0675 5.84663 14.1323 5.76896 14.18 5.68084C14.2276 5.59273 14.2571 5.49596 14.2668 5.39625C14.2764 5.29655 14.266 5.19591 14.2361 5.1003C14.2062 5.00469 14.1575 4.91603 14.0928 4.83956C14.0281 4.76309 13.9487 4.70036 13.8593 4.65507C13.77 4.60978 13.6725 4.58285 13.5725 4.57587C13.0541 4.52524 12.5244 4.49993 12.0004 4.49993C8.27185 4.50229 4.65891 5.79405 1.77411 8.15618C1.69796 8.21872 1.63488 8.29565 1.58846 8.38257C1.54204 8.46949 1.5132 8.5647 1.50358 8.66277C1.49396 8.76084 1.50375 8.85984 1.5324 8.95412C1.56104 9.04841 1.60797 9.13613 1.67051 9.21227C1.73305 9.28842 1.80998 9.3515 1.8969 9.39792C1.98382 9.44433 2.07904 9.47317 2.1771 9.48279C2.37516 9.50222 2.57282 9.44218 2.72661 9.31587C5.34249 7.17335 8.61904 6.00178 12.0004 5.99993C12.4766 5.99993 12.9566 6.02337 13.4282 6.06837ZM13.3982 10.5937C13.5942 10.6187 13.7922 10.5653 13.9491 10.4451C14.106 10.3249 14.2091 10.1477 14.236 9.95189C14.2629 9.75611 14.2115 9.55761 14.0929 9.39954C13.9743 9.24147 13.798 9.13661 13.6025 9.10774C13.0716 9.03514 12.5363 8.99912 12.0004 8.99993C9.37845 8.98964 6.83166 9.87506 4.78161 11.5096C4.66086 11.6069 4.57323 11.7392 4.53077 11.8883C4.48831 12.0374 4.49311 12.196 4.54451 12.3423C4.59591 12.4886 4.69138 12.6153 4.81778 12.7051C4.94419 12.7949 5.09531 12.8433 5.25036 12.8437C5.42056 12.8449 5.58603 12.7876 5.71911 12.6815C7.50347 11.2605 9.71931 10.4909 12.0004 10.4999C12.4679 10.4992 12.9349 10.5305 13.3982 10.5937Z" fill="black"/>
</svg>
