<svg width="24" height="24" viewBox="0 0 24 24" fill="none" xmlns="http://www.w3.org/2000/svg">
<path d="M19.2486 8.96906L17.2077 2.03812C17.1619 1.88284 17.0672 1.74652 16.9376 1.64953C16.808 1.55254 16.6505 1.50008 16.4886 1.5H7.50924C7.34736 1.50008 7.18986 1.55254 7.06025 1.64953C6.93065 1.74652 6.83591 1.88284 6.79018 2.03812L4.74924 8.96906C4.42903 10.0314 4.41227 11.1621 4.70086 12.2335C4.98944 13.3048 5.57188 14.2741 6.38236 15.0319C7.71558 16.2822 9.4286 17.0507 11.2489 17.2153V21H8.24893C8.05001 21 7.85925 21.079 7.7186 21.2197C7.57794 21.3603 7.49893 21.5511 7.49893 21.75C7.49893 21.9489 7.57794 22.1397 7.7186 22.2803C7.85925 22.421 8.05001 22.5 8.24893 22.5H15.7489C15.9478 22.5 16.1386 22.421 16.2793 22.2803C16.4199 22.1397 16.4989 21.9489 16.4989 21.75C16.4989 21.5511 16.4199 21.3603 16.2793 21.2197C16.1386 21.079 15.9478 21 15.7489 21H12.7489V17.2153C14.5692 17.0506 16.2822 16.282 17.6155 15.0319C18.426 14.2741 19.0084 13.3048 19.297 12.2335C19.5856 11.1621 19.5688 10.0314 19.2486 8.96906ZM8.06986 3H15.928L17.8114 9.39281C17.8199 9.42094 17.8274 9.44906 17.8349 9.47719C15.8267 10.1972 13.5655 9.32719 12.3383 8.70563C9.97674 7.51031 8.10174 7.35844 6.71893 7.58719L8.06986 3ZM16.5927 13.9359C15.3473 15.1021 13.705 15.7509 11.9989 15.7509C10.2928 15.7509 8.65056 15.1021 7.40518 13.9359C6.79869 13.3676 6.36318 12.641 6.14782 11.8382C5.93246 11.0354 5.94583 10.1884 6.18643 9.39281L6.22861 9.25031C7.35361 8.86969 9.14143 8.76844 11.6596 10.0444C12.7049 10.5741 14.3933 11.2491 16.1999 11.2491C16.8037 11.252 17.4049 11.1699 17.9858 11.0053C17.9093 12.1234 17.4114 13.1707 16.5927 13.9359Z" fill="black"/>
</svg>
