<svg width="24" height="24" viewBox="0 0 24 24" fill="none" xmlns="http://www.w3.org/2000/svg">
<path d="M21.26 6.46886C21.2145 6.35642 21.1424 6.25669 21.0499 6.17822C20.9574 6.09975 20.8473 6.04489 20.7289 6.01834C20.6106 5.99179 20.4875 5.99435 20.3704 6.02579C20.2532 6.05723 20.1454 6.11662 20.0563 6.19886L16.2782 9.68543L14.6628 9.33855L14.316 7.72324L17.8025 3.94511C17.8848 3.85595 17.9442 3.74817 17.9756 3.63101C18.007 3.51386 18.0096 3.39083 17.9831 3.27247C17.9565 3.15411 17.9016 3.04395 17.8232 2.95145C17.7447 2.85895 17.645 2.78686 17.5325 2.74136C16.5078 2.32683 15.3969 2.17032 14.2975 2.28557C13.1981 2.40082 12.1439 2.78431 11.2274 3.40235C10.3109 4.02039 9.56017 4.85405 9.04125 5.8301C8.52233 6.80614 8.25106 7.8947 8.25128 9.00011C8.25007 9.93356 8.44156 10.8572 8.81378 11.7132L3.16909 16.5939C3.15503 16.6051 3.14191 16.6182 3.12878 16.6304C2.56611 17.1931 2.25 17.9562 2.25 18.752C2.25 19.146 2.32761 19.5362 2.47839 19.9002C2.62917 20.2642 2.85017 20.5949 3.12878 20.8736C3.40739 21.1522 3.73814 21.3732 4.10216 21.5239C4.46618 21.6747 4.85633 21.7523 5.25034 21.7523C6.04608 21.7523 6.80923 21.4362 7.37191 20.8736C7.38409 20.8614 7.39722 20.8473 7.40847 20.8342L12.2882 15.1876C13.3161 15.6388 14.4403 15.8266 15.559 15.7338C16.6777 15.641 17.7557 15.2707 18.6952 14.6564C19.6348 14.0421 20.4063 13.2031 20.9399 12.2155C21.4735 11.2278 21.7524 10.1227 21.7513 9.00011C21.7527 8.13254 21.5859 7.27291 21.26 6.46886ZM15.0013 14.2501C14.1135 14.2489 13.2405 14.0231 12.4635 13.5939C12.3129 13.5107 12.1384 13.4818 11.9691 13.512C11.7997 13.5422 11.646 13.6297 11.5335 13.7598L6.29284 19.8292C6.00925 20.0986 5.63162 20.2466 5.24048 20.2416C4.84934 20.2366 4.47563 20.079 4.19903 19.8024C3.92242 19.5258 3.76482 19.1521 3.75981 18.7609C3.7548 18.3698 3.90279 17.9921 4.17222 17.7086L10.2369 12.4689C10.3672 12.3563 10.4549 12.2024 10.4851 12.0328C10.5153 11.8633 10.4863 11.6886 10.4028 11.5379C9.92475 10.6732 9.70038 9.69114 9.75553 8.7046C9.81068 7.71805 10.1431 6.7671 10.7146 5.96107C11.2861 5.15503 12.0735 4.52664 12.9862 4.14813C13.8989 3.76962 14.8999 3.65635 15.8741 3.82136L12.9491 6.99105C12.8677 7.07934 12.8087 7.18588 12.7771 7.30171C12.7454 7.41753 12.742 7.53927 12.7672 7.65668L13.2978 10.1251C13.3282 10.2663 13.3987 10.3957 13.5008 10.4978C13.6029 10.5999 13.7323 10.6704 13.8735 10.7007L16.3438 11.2314C16.4612 11.2565 16.5829 11.2532 16.6988 11.2215C16.8146 11.1899 16.9211 11.1309 17.0094 11.0495L20.1791 8.12449C20.3055 8.87731 20.2663 9.64862 20.0644 10.3848C19.8624 11.1209 19.5026 11.8043 19.0098 12.3873C18.517 12.9702 17.9032 13.4389 17.2109 13.7606C16.5187 14.0823 15.7646 14.2493 15.0013 14.2501Z" fill="black"/>
</svg>
